<?xml version="1.0" encoding="utf-8"?>
<!-- Generator: Adobe Illustrator 17.0.0, SVG Export Plug-In . SVG Version: 6.00 Build 0)  -->
<!DOCTYPE svg PUBLIC "-//W3C//DTD SVG 1.1//EN" "http://www.w3.org/Graphics/SVG/1.1/DTD/svg11.dtd">
<svg version="1.1" id="Layer_1" xmlns="http://www.w3.org/2000/svg" xmlns:xlink="http://www.w3.org/1999/xlink" x="0px" y="0px"
	 width="42px" height="42px" viewBox="0 0 42 42" enable-background="new 0 0 42 42" xml:space="preserve">
<g>
	<polygon fill="#FFEBCD" points="39.604,30.643 38.456,28.959 38.456,28.062 33.222,25.894 31.425,27.705 29.645,25.9
		24.458,28.094 24.458,28.947 22.991,30.838 24.458,31.601 24.458,36.258 31.458,39.791 38.456,36.258 38.456,31.277 	"/>
	<path fill="#3D6480" d="M38.423,27.992l-3.99-1.666l-0.359,0.861l2.695,1.125l-5.315,2.746l-5.379-2.715l2.576-1.076l-0.359-0.861
		l-3.801,1.586l-2.211,3.002l2.211,1.15v4.092l6.967,3.518l6.965-3.518V31.83l1.857-1.027L38.423,27.992z M24.958,28.303h0.002
		H24.958L24.958,28.303L24.958,28.303z M23.702,30.682l1.391-1.789l5.582,2.818l-1.381,1.883L23.702,30.682z M25.425,32.631
		l4.148,2.162l1.547-2.109v5.854l-5.695-2.875V32.631z M37.489,35.662l-5.93,2.992v-6.268l1.59,2.361l4.34-2.402V35.662z
		 M33.446,33.516l-1.217-1.807l5.574-2.879l1.127,1.652L33.446,33.516z"/>
	<path fill="#0CB20F" d="M33.497,25.435L31.933,27v-1.74c0-2.803-1.211-4.055-3.926-4.055v1.045c2.156,0,2.883,0.76,2.883,3.01
		v1.746l-1.65-1.65l-0.738,0.738L31.409,29l2.826-2.826L33.497,25.435z"/>
</g>
<g>
	<path fill="#54D2F4" d="M192.809 0v63.785H256v64.329H128.54v64.696H64.27v-64.27H0V64.27h128.54V0h64.269" />

</g>
</svg>
