<?xml version="1.0" encoding="UTF-8"?>
<svg xmlns="http://www.w3.org/2000/svg" xmlns:xlink="http://www.w3.org/1999/xlink" width="42px" height="42px" viewBox="0 0 42 42" version="1.1">
<g id="surface1">
<path style=" stroke:none;fill-rule:nonzero;fill:rgb(1.176471%,23.921569%,36.470589%);fill-opacity:1;" d="M 17.660156 3.128906 C 17.054688 3.128906 16.449219 3.359375 15.984375 3.824219 L 11.15625 8.652344 L 12.867188 10.363281 L 16.988281 6.242188 C 17.175781 6.058594 17.417969 5.964844 17.660156 5.964844 C 17.902344 5.964844 18.144531 6.058594 18.328125 6.242188 L 21.550781 9.464844 L 19.808594 11.207031 L 25.007812 11.207031 L 25.007812 6.007812 L 23.261719 7.753906 L 19.332031 3.824219 C 18.871094 3.359375 18.265625 3.128906 17.660156 3.128906 Z M 5.386719 10.828125 L 7.132812 12.578125 L 3.203125 16.503906 C 2.738281 16.96875 2.507812 17.574219 2.507812 18.179688 C 2.507812 18.785156 2.738281 19.390625 3.203125 19.855469 L 8.03125 24.683594 L 9.742188 22.972656 L 5.621094 18.847656 C 5.4375 18.664062 5.34375 18.421875 5.34375 18.179688 C 5.34375 17.9375 5.4375 17.695312 5.621094 17.511719 L 8.84375 14.289062 L 10.585938 16.03125 L 10.585938 10.828125 Z M 27.183594 11.777344 L 25.472656 13.488281 L 29.597656 17.609375 C 29.78125 17.796875 29.875 18.039062 29.875 18.28125 C 29.875 18.523438 29.78125 18.765625 29.597656 18.949219 L 26.375 22.171875 L 24.632812 20.429688 L 24.632812 25.628906 L 29.832031 25.628906 L 28.085938 23.882812 L 32.015625 19.953125 C 32.476562 19.492188 32.710938 18.886719 32.710938 18.28125 C 32.710938 17.675781 32.476562 17.070312 32.015625 16.605469 Z M 10.207031 25.253906 L 10.207031 30.453125 L 11.953125 28.707031 L 15.882812 32.636719 C 16.347656 33.101562 16.953125 33.332031 17.558594 33.332031 C 18.164062 33.332031 18.769531 33.101562 19.234375 32.636719 L 24.0625 27.808594 L 22.351562 26.09375 L 18.226562 30.21875 C 18.042969 30.402344 17.800781 30.496094 17.558594 30.496094 C 17.316406 30.496094 17.074219 30.402344 16.890625 30.21875 L 13.667969 26.996094 L 15.410156 25.253906 Z M 10.207031 25.253906 "/>
<path style=" stroke:none;fill-rule:nonzero;fill:rgb(36.078432%,75.294119%,76.862746%);fill-opacity:1;" d="M 38.050781 34.417969 L 30.414062 38.847656 C 29.765625 39.226562 28.933594 38.769531 28.933594 38.011719 L 28.933594 29.148438 C 28.933594 28.390625 29.761719 27.933594 30.414062 28.3125 L 38.050781 32.746094 C 38.351562 32.917969 38.539062 33.234375 38.539062 33.582031 C 38.539062 33.925781 38.351562 34.246094 38.050781 34.417969 Z M 38.050781 34.417969 "/>
</g>
</svg>
