<?xml version="1.0" encoding="utf-8"?>
<svg version="1.1" id="Layer_1" xmlns="http://www.w3.org/2000/svg" x="0px"
     y="0px"
     width="24px" height="24px" viewBox="0 0 24 24" enable-background="new 0 0 24 24" xml:space="preserve">
<path id="path2" fill="#0F3B5A" d="M7.795,22c-1.387,0-2.404-0.295-3.052-0.886c-0.648-0.591-0.971-1.554-0.97-2.888v-3.216
	c0-1.423-0.591-2.136-1.773-2.136v-1.75c1.181,0,1.772-0.75,1.773-2.25V5.864c0-1.319,0.329-2.292,0.987-2.92S6.431,2.001,7.796,2
	v1.795c-1.212,0-1.819,0.689-1.819,2.069v3.034c0,1.635-0.564,2.658-1.692,3.067v0.046c1.128,0.364,1.692,1.364,1.692,3v3.023
	c0,0.75,0.138,1.299,0.416,1.646c0.277,0.348,0.746,0.521,1.406,0.523L7.795,22L7.795,22z"/>
    <path id="path6" fill="#0F3B5A" d="M14.292,8.25c0.001-1.266-1.024-2.292-2.291-2.293c-1.266,0-2.292,1.025-2.293,2.291
	c0,0,0,0.001,0,0.002c0,1.266,1.026,2.292,2.292,2.292C13.266,10.542,14.292,9.516,14.292,8.25z"/>
    <path id="path2-2" fill="#0F3B5A" d="M16.004,22c1.387,0,2.404-0.295,3.051-0.886c0.648-0.591,0.972-1.554,0.971-2.888v-3.216
	c0-1.423,0.592-2.136,1.773-2.136v-1.75c-1.182,0-1.772-0.75-1.773-2.25V5.864c0-1.319-0.329-2.292-0.987-2.92
	C18.379,2.315,17.367,2.001,16.003,2v1.795c1.212,0,1.819,0.689,1.819,2.069v3.034c0,1.635,0.563,2.658,1.691,3.067v0.046
	c-1.128,0.364-1.691,1.364-1.691,3v3.023c0,0.75-0.139,1.299-0.416,1.646S16.66,20.203,16,20.205L16.004,22L16.004,22z"/>
    <path id="path6-7" fill="#0F3B5A" d="M14.31,16.021c0.002-1.266-1.023-2.292-2.29-2.293c-1.266-0.001-2.292,1.023-2.293,2.289
	c0,0.002,0,0.003,0,0.004c0.001,1.266,1.028,2.291,2.293,2.29C13.284,18.311,14.31,17.286,14.31,16.021z"/>
</svg>
