<?xml version="1.0" encoding="utf-8"?>
<!-- Generator: Adobe Illustrator 14.0.0, SVG Export Plug-In . SVG Version: 6.00 Build 43363)  -->
<!DOCTYPE svg PUBLIC "-//W3C//DTD SVG 1.1//EN" "http://www.w3.org/Graphics/SVG/1.1/DTD/svg11.dtd">
<svg version="1.1" id="Layer_1" xmlns="http://www.w3.org/2000/svg" xmlns:xlink="http://www.w3.org/1999/xlink" x="0px" y="0px"
	 width="42px" height="42px" viewBox="0 0 42 42" enable-background="new 0 0 42 42" xml:space="preserve">
<path fill="#FFFFFF" d="M32.096,9.991l0.28,0.137v3.202l1.062,1.132l-0.939,1.78l0.939,0.877l-0.961,2.045l0.725,0.729l1.277-1.276
	v-8.385l0.319-0.123c0.446-0.172,0.845-0.431,1.185-0.77c0.547-0.546,0.879-1.249,0.961-2.033c0.119-1.03-0.231-2.036-0.961-2.765
	c-1.281-1.281-3.518-1.281-4.799,0c-0.641,0.641-0.994,1.493-0.994,2.399c0,0.906,0.354,1.759,0.994,2.399
	C31.451,9.607,31.758,9.825,32.096,9.991z M32.611,4.912c0.484-0.484,1.328-0.484,1.814,0c0.129,0.127,0.227,0.278,0.292,0.448
	c0.181,0.473,0.066,1.01-0.292,1.368c-0.242,0.242-0.564,0.376-0.908,0.376c-0.343,0-0.664-0.134-0.908-0.376
	c-0.241-0.242-0.375-0.564-0.375-0.908C32.234,5.476,32.368,5.155,32.611,4.912z"/>
<path fill="#FFFFFF" d="M33.859,6.162c0.137-0.135,0.18-0.338,0.111-0.517c-0.023-0.063-0.062-0.118-0.109-0.166
	c-0.092-0.093-0.215-0.144-0.344-0.144s-0.25,0.051-0.342,0.143c-0.092,0.091-0.143,0.213-0.143,0.342
	c0,0.129,0.051,0.251,0.142,0.342C33.359,6.346,33.68,6.346,33.859,6.162z"/>
<path fill="#0E3A5A" d="M31.376,10.74v2.986l0.845,0.899l-0.966,1.825l0.968,0.902l-0.947,2.02l1.924,1.938l2.279-2.28v-8.126
	c0.449-0.215,0.854-0.502,1.211-0.858c0.711-0.71,1.143-1.621,1.248-2.632c0.152-1.33-0.303-2.635-1.248-3.58
	c-0.83-0.83-1.934-1.287-3.105-1.287c-1.174,0-2.275,0.457-3.105,1.287s-1.289,1.933-1.289,3.106c0,1.174,0.457,2.276,1.287,3.106
	C30.747,10.317,31.048,10.549,31.376,10.74z M31.184,4.541c1.281-1.281,3.518-1.281,4.799,0c0.729,0.729,1.08,1.734,0.961,2.765
	c-0.082,0.784-0.414,1.487-0.961,2.033c-0.34,0.339-0.737,0.598-1.185,0.77l-0.319,0.123v8.385L33.2,19.893l-0.724-0.729
	l0.959-2.045l-0.938-0.877l0.94-1.78l-1.063-1.132v-3.202l-0.279-0.137c-0.339-0.165-0.646-0.384-0.912-0.651
	c-0.641-0.641-0.994-1.494-0.994-2.4C30.189,6.034,30.543,5.182,31.184,4.541z"/>
<path fill="#0E3A5A" d="M33.52,7.105c0.342,0,0.664-0.134,0.908-0.376c0.357-0.358,0.473-0.896,0.291-1.368
	c-0.064-0.17-0.164-0.321-0.291-0.448c-0.486-0.484-1.332-0.484-1.816,0c-0.242,0.242-0.377,0.564-0.377,0.908
	c0,0.344,0.135,0.666,0.377,0.908S33.176,7.105,33.52,7.105z M33.178,5.479c0.09-0.092,0.213-0.143,0.342-0.143
	s0.25,0.051,0.344,0.144c0.048,0.048,0.084,0.104,0.107,0.166c0.068,0.179,0.025,0.382-0.109,0.517
	c-0.182,0.184-0.502,0.184-0.686,0c-0.091-0.091-0.142-0.213-0.142-0.342C33.034,5.692,33.085,5.57,33.178,5.479z"/>
<path fill="#0E3A5A" d="M36.402,34.395c0.053-0.078,0.089-0.168,0.137-0.248l0.179-0.121l-0.081-0.055
	c0.373-0.688,0.605-1.464,0.605-2.301c0-2.678-2.18-4.855-4.857-4.855s-4.855,2.179-4.855,4.855c0,2.678,2.179,4.855,4.855,4.855
	c0.983,0,1.896-0.297,2.661-0.801l3.05,3.051l1.344-1.344L36.402,34.395z M32.384,35.027c-1.851,0-3.356-1.506-3.356-3.356
	s1.507-3.356,3.356-3.356c1.853,0,3.357,1.506,3.357,3.356S34.234,35.027,32.384,35.027z"/>
<polygon fill="#0E3A5A" points="23.658,17.156 8.837,31.977 8.836,8.728 11.128,8.73 8.017,4.62 4.905,8.725 7.135,8.727 
	7.135,34.977 21.299,34.975 22.999,33.273 9.941,33.275 24.857,18.358 26.534,20.037 27.238,14.932 22.139,15.634 "/>
</svg>
