<?xml version="1.0" encoding="UTF-8" standalone="no"?>
<!-- Created with Inkscape (http://www.inkscape.org/) -->
<svg
        xmlns:dc="http://purl.org/dc/elements/1.1/"
        xmlns:cc="http://creativecommons.org/ns#"
        xmlns:rdf="http://www.w3.org/1999/02/22-rdf-syntax-ns#"
        xmlns:svg="http://www.w3.org/2000/svg"
        xmlns="http://www.w3.org/2000/svg"
        xmlns:sodipodi="http://sodipodi.sourceforge.net/DTD/sodipodi-0.dtd"
        xmlns:inkscape="http://www.inkscape.org/namespaces/inkscape"
        version="1.1"
        id="svg3718"
        xml:space="preserve"
        width="56"
        height="56"
        viewBox="0 0 56 56"
        sodipodi:docname="aws_sns_notify.svg"
        inkscape:version="0.92.3 (unknown)"><metadata
     id="metadata3724"><rdf:RDF><cc:Work
         rdf:about=""><dc:format>image/svg+xml</dc:format><dc:type
        rdf:resource="http://purl.org/dc/dcmitype/StillImage" /><dc:title></dc:title></cc:Work></rdf:RDF></metadata><defs
        id="defs3722"><clipPath
       clipPathUnits="userSpaceOnUse"
       id="clipPath3746"><path
         d="M 0,42 H 42 V 0 H 0 Z"
         id="path3744"
         inkscape:connector-curvature="0" /></clipPath><clipPath
        clipPathUnits="userSpaceOnUse"
        id="clipPath3768"><path
         d="M 0,42 H 42 V 0 H 0 Z"
         id="path3766"
         inkscape:connector-curvature="0" /></clipPath></defs><sodipodi:namedview
        pagecolor="#ffffff"
        bordercolor="#666666"
        borderopacity="1"
        objecttolerance="10"
        gridtolerance="10"
        guidetolerance="10"
        inkscape:pageopacity="0"
        inkscape:pageshadow="2"
        inkscape:window-width="1855"
        inkscape:window-height="990"
        id="namedview3720"
        showgrid="false"
        showguides="false"
        inkscape:guide-bbox="true"
        inkscape:lockguides="false"
        inkscape:zoom="8.4852814"
        inkscape:cx="27.617153"
        inkscape:cy="27.91634"
        inkscape:window-x="65"
        inkscape:window-y="24"
        inkscape:window-maximized="1"
        inkscape:current-layer="layer1"><sodipodi:guide
       position="23.098822,45.961941"
       orientation="0,1"
       id="guide3782"
       inkscape:locked="false" /><sodipodi:guide
        position="11.902964,25.220142"
        orientation="1,0"
        id="guide3786"
        inkscape:locked="false" /><sodipodi:guide
        position="43.958472,62.814652"
        orientation="1,0"
        id="guide3788"
        inkscape:locked="false" /><sodipodi:guide
        position="20.741799,12.138666"
        orientation="0,1"
        id="guide3790"
        inkscape:locked="false" /></sodipodi:namedview><g
        id="g3726"
        inkscape:groupmode="layer"
        inkscape:label="PDI_Icon_Guide"
        transform="matrix(1.3333333,0,0,-1.3333333,0,56)"
        style="display:inline">
<path
        style="fill:none;fill-opacity:1;fill-rule:evenodd;stroke-width:0;stroke-miterlimit:4;stroke-dasharray:none"
        d="M 29.522383,50.604453 V 35.519508 h 15.143871 15.14387 V 50.604453 65.689398 H 44.666254 29.522383 Z m 21.585773,12.22069 c 0.366958,-0.790522 0.990445,-2.126741 1.385527,-2.969376 l 0.71833,-1.532065 2.444635,-0.492618 c 1.344548,-0.27094 2.484409,-0.49633 2.533023,-0.500867 0.04861,-0.0045 0.08727,-3.070906 0.08591,-6.814152 l -0.0025,-6.805903 -3.314325,-1.59099 c -1.822878,-0.875045 -3.380509,-1.655341 -3.461399,-1.733991 -0.08089,-0.07865 -1.671311,-0.881754 -3.534267,-1.784674 l -3.387194,-1.641673 -2.017227,0.991679 -2.017226,0.99168 -0.05892,1.285011 -0.05893,1.285012 -1.486134,-0.479794 -1.486134,-0.479793 -1.430682,0.68446 -1.430681,0.684461 v 0.696008 c 0,0.607406 -0.02625,0.688286 -0.206239,0.635349 -0.113432,-0.03336 -0.539751,-0.144986 -0.947376,-0.248053 l -0.741137,-0.187396 -0.820364,0.446352 -0.820365,0.446352 0.02944,6.827887 0.02944,6.827885 0.405614,0.105094 c 0.269498,0.06983 0.672255,0.380879 1.200184,0.926915 0.711095,0.735486 0.87815,0.845726 1.590135,1.049335 0.43756,0.125131 0.805917,0.215197 0.81857,0.200149 0.01265,-0.01505 0.162861,-0.305786 0.333796,-0.646081 0.239882,-0.477554 0.372769,-0.618718 0.58244,-0.618718 0.378516,0 0.980027,0.492755 1.906171,1.561527 0.435303,0.50234 0.864941,0.913346 0.95475,0.913346 0.08981,0 0.163291,0.045 0.163291,0.100002 0,0.055 0.437522,0.212662 0.972272,0.350359 1.801247,0.46382 1.547885,0.543083 2.097228,-0.656108 0.454859,-0.992937 0.501603,-1.051339 0.798675,-0.997897 0.416589,0.07494 0.531579,0.175331 1.291476,1.127501 0.354548,0.444256 0.987566,1.160202 1.406709,1.59099 l 0.762076,0.78325 1.963173,0.547076 c 1.079745,0.300891 1.98969,0.549933 2.022099,0.553426 0.03241,0.0035 0.359165,-0.640437 0.726123,-1.430957 z"
        id="path4717"
        inkscape:connector-curvature="0"
        transform="matrix(0.75000002,0,0,-0.75000002,0,42.000001)" /><path
        style="fill:none;fill-opacity:1;fill-rule:evenodd;stroke-width:0;stroke-miterlimit:4;stroke-dasharray:none"
        d="M 29.522383,50.604453 V 35.519508 h 15.143871 15.14387 V 50.604453 65.689398 H 44.666254 29.522383 Z m 21.585773,12.22069 c 0.366958,-0.790522 0.990445,-2.126741 1.385527,-2.969376 l 0.71833,-1.532065 2.444635,-0.492618 c 1.344548,-0.27094 2.484409,-0.49633 2.533023,-0.500867 0.04861,-0.0045 0.08727,-3.070906 0.08591,-6.814152 l -0.0025,-6.805903 -3.314325,-1.59099 c -1.822878,-0.875045 -3.380509,-1.655341 -3.461399,-1.733991 -0.08089,-0.07865 -1.671311,-0.881754 -3.534267,-1.784674 l -3.387194,-1.641673 -2.017227,0.991679 -2.017226,0.99168 -0.05892,1.285011 -0.05893,1.285012 -1.486134,-0.479794 -1.486134,-0.479793 -1.430682,0.68446 -1.430681,0.684461 v 0.696008 c 0,0.607406 -0.02625,0.688286 -0.206239,0.635349 -0.113432,-0.03336 -0.539751,-0.144986 -0.947376,-0.248053 l -0.741137,-0.187396 -0.820364,0.446352 -0.820365,0.446352 0.02944,6.827887 0.02944,6.827885 0.405614,0.105094 c 0.269498,0.06983 0.672255,0.380879 1.200184,0.926915 0.711095,0.735486 0.87815,0.845726 1.590135,1.049335 0.43756,0.125131 0.805917,0.215197 0.81857,0.200149 0.01265,-0.01505 0.162861,-0.305786 0.333796,-0.646081 0.239882,-0.477554 0.372769,-0.618718 0.58244,-0.618718 0.378516,0 0.980027,0.492755 1.906171,1.561527 0.435303,0.50234 0.864941,0.913346 0.95475,0.913346 0.08981,0 0.163291,0.045 0.163291,0.100002 0,0.055 0.437522,0.212662 0.972272,0.350359 1.801247,0.46382 1.547885,0.543083 2.097228,-0.656108 0.454859,-0.992937 0.501603,-1.051339 0.798675,-0.997897 0.416589,0.07494 0.531579,0.175331 1.291476,1.127501 0.354548,0.444256 0.987566,1.160202 1.406709,1.59099 l 0.762076,0.78325 1.963173,0.547076 c 1.079745,0.300891 1.98969,0.549933 2.022099,0.553426 0.03241,0.0035 0.359165,-0.640437 0.726123,-1.430957 z"
        id="path4719"
        inkscape:connector-curvature="0"
        transform="matrix(0.75000002,0,0,-0.75000002,0,42.000001)" /><path
        style="fill:none;fill-opacity:1;fill-rule:nonzero;stroke-width:0;stroke-miterlimit:4;stroke-dasharray:none"
        d="m 44.076998,59.782483 c -0.194454,-0.04158 -0.575814,-0.08188 -0.847465,-0.08955 -0.271652,-0.0077 -0.521874,-0.05919 -0.55605,-0.114483 -0.03417,-0.0553 -0.474827,-0.168713 -0.979227,-0.252038 -0.504399,-0.08332 -0.952209,-0.183923 -0.995132,-0.223551 -0.04292,-0.03963 -0.09547,-4.592343 -0.116775,-10.117143 l -0.03873,-10.04509 1.930564,-0.947611 c 1.06181,-0.521186 1.949894,-0.928281 1.97352,-0.904655 0.02363,0.02363 0.02943,5.15648 0.0129,11.406343 l -0.03005,11.363386 z"
        id="path4721"
        inkscape:connector-curvature="0"
        transform="matrix(0.75000002,0,0,-0.75000002,0,42.000001)" /><path
        style="fill:#eef8fd;fill-opacity:1;stroke:#3d6380;stroke-width:0.71854782;stroke-linecap:butt;stroke-linejoin:miter;stroke-miterlimit:4;stroke-dasharray:none;stroke-opacity:1;paint-order:normal"
        d="M 9.7095947,22.013438 V 7.5882734 H 21.45894 31.749747 l -0.08839,23.3502516 -1.767768,0.01573 0.0068,1.988738 -9.981053,0.04419"
        id="path4911"
        inkscape:connector-curvature="0"
        sodipodi:nodetypes="cccccccc" /></g><g
        inkscape:groupmode="layer"
        id="layer1"
        inkscape:label="PDI_Icon_Guide 1"><g
       style="display:inline"
       id="g4809"
       transform="matrix(0.04967315,0,0,0.04967315,35.307436,38.500758)"><path
         style="fill:#995b80"
         inkscape:connector-curvature="0"
         d="m 98.875,232.033 -26.433,-7.408 -25.001,-28.508 31.272,-0.863 20.162,36.779"
         id="path4791" /><path
        style="fill:#995b80"
        inkscape:connector-curvature="0"
        d="M 37.75,213.233 22.875,209.067 8.817,193.033 25.899,190.224 37.75,213.233"
        id="path4793" /><path
        style="fill:#7b3f65"
        inkscape:connector-curvature="0"
        d="m 0,191.017 15.204,3.091 2.207,-3.882 V 58.503 L 15.204,55.942 0,64.6 v 126.417"
        id="path4795" /><path
        style="fill:#c17b9d"
        inkscape:connector-curvature="0"
        d="M 73.933,69.708 15.208,55.942 v 138.166 l 8.798,-0.818 13.744,19.943 10.6,-22.205 25.583,-2.378 V 69.708"
        id="path4797" /><path
        style="fill:#7b3f65"
        inkscape:connector-curvature="0"
        d="m 33.958,198.133 26.063,5.25 1.716,-4.045 V 37.44 L 60.021,33.775 33.958,46.983 v 151.15"
        id="path4799" /><path
        style="fill:#c17b9d"
        inkscape:connector-curvature="0"
        d="M 208.734,81.516 60.021,33.775 v 169.612 l 17.221,-2.216 21.633,30.862 17.126,-35.85 92.733,-11.933 V 81.516"
        id="path4801" /><path
        style="fill:#995b80"
        inkscape:connector-curvature="0"
        d="m 181.833,256.492 -37.566,-10.525 -35.509,-40.5 46.033,-0.468 27.042,51.493"
        id="path4803" /><path
        style="fill:#7b3f65"
        inkscape:connector-curvature="0"
        d="m 89.591,208.95 38.33,7.417 2.977,-2.566 V 4.117 L 127.921,0 89.591,19.158 V 208.95"
        id="path4805" /><path
        style="fill:#c17b9d"
        inkscape:connector-curvature="0"
        d="M 256,64.033 127.925,0 v 216.367 l 22.597,-4.528 31.311,44.653 26.901,-56.309 -0.017,-0.002 L 256,190.708 V 64.033"
        id="path4807" /></g><rect
        style="display:inline;fill:#ffffff;fill-rule:evenodd;stroke-width:1.69643354"
        id="rect3928"
        width="7.9970651"
        height="27.789803"
        x="20.349918"
        y="-13.45378"
        transform="matrix(0.68027073,0.73296093,-0.68027073,0.73296093,0,0)" /><polygon
        transform="translate(4.5759252,4.7207773)"
        style="display:inline;fill:#3d6480"
        points="8.678,9.903 5.534,9.903 5.534,11.803 11.922,11.802 11.922,5.475 10.021,5.475 10.021,8.558 4.798,3.334 3.454,4.677 "
        id="polygon2" /><g
        transform="matrix(1.3333333,0,0,-1.3333333,0,56)"
        style="display:inline"
        id="g3740"><g
         id="g3742"
         clip-path="url(#clipPath3746)"><g
           id="g3748"
           transform="translate(39,42)" /><g
        id="g3752"
        transform="translate(0.1661,12.7012)"><path
             d="M 0,0 -0.166,0.169 0.087,0.418 0.253,0.249 Z"
             style="fill:#ff00ff;fill-opacity:1;fill-rule:nonzero;stroke:none"
             id="path3754"
             inkscape:connector-curvature="0" /></g></g></g><text
        xml:space="preserve"
        style="font-style:normal;font-weight:normal;font-size:9.29549885px;line-height:1.10000002;font-family:sans-serif;letter-spacing:0px;word-spacing:0px;display:inline;fill:#3d6380;fill-opacity:1;stroke:none;stroke-width:0.23238748"
        x="18.004005"
        y="29.417702"
        id="text3794"
        transform="scale(0.98527758,1.0149424)"><tspan
         sodipodi:role="line"
         id="tspan3792"
         x="18.004005"
         y="29.417702"
         style="line-height:1.10000002;fill:#3d6380;fill-opacity:1;stroke-width:0.23238748">AWS</tspan><tspan
        sodipodi:role="line"
        x="18.004005"
        y="39.64275"
        style="line-height:1.10000002;fill:#3d6380;fill-opacity:1;stroke-width:0.23238748"
        id="tspan4601">SNS</tspan></text>
    <rect
            style="display:inline;fill:#ffffff;fill-rule:evenodd;stroke-width:0.75908685"
            id="rect3928-3"
            width="3.5783699"
            height="12.434836"
            x="-26.398645"
            y="-46.878326"
            transform="matrix(-0.64975195,0.7601463,-0.64975195,-0.7601463,0,0)" /></g></svg>