<?xml version="1.0" encoding="UTF-8" standalone="no"?>
<svg
   xmlns:dc="http://purl.org/dc/elements/1.1/"
   xmlns:cc="http://creativecommons.org/ns#"
   xmlns:rdf="http://www.w3.org/1999/02/22-rdf-syntax-ns#"
   xmlns:svg="http://www.w3.org/2000/svg"
   xmlns="http://www.w3.org/2000/svg"
   xmlns:sodipodi="http://sodipodi.sourceforge.net/DTD/sodipodi-0.dtd"
   xmlns:inkscape="http://www.inkscape.org/namespaces/inkscape"
   version="1.1"
   width="32"
   height="32"
   viewBox="0 0 32 32"
   id="svg4"
   sodipodi:docname="sql.svg"
   inkscape:version="1.0 (4035a4fb49, 2020-05-01)">
  <metadata
     id="metadata10">
    <rdf:RDF>
      <cc:Work
         rdf:about="">
        <dc:format>image/svg+xml</dc:format>
        <dc:type
           rdf:resource="http://purl.org/dc/dcmitype/StillImage" />
        <dc:title></dc:title>
      </cc:Work>
    </rdf:RDF>
  </metadata>
  <defs
     id="defs8" />
  <sodipodi:namedview
     inkscape:document-rotation="0"
     pagecolor="#ffffff"
     bordercolor="#666666"
     borderopacity="1"
     objecttolerance="10"
     gridtolerance="10"
     guidetolerance="10"
     inkscape:pageopacity="0"
     inkscape:pageshadow="2"
     inkscape:window-width="3440"
     inkscape:window-height="1387"
     id="namedview6"
     showgrid="false"
     inkscape:zoom="21"
     inkscape:cx="12.153901"
     inkscape:cy="10.507267"
     inkscape:window-x="-8"
     inkscape:window-y="-8"
     inkscape:window-maximized="1"
     inkscape:current-layer="svg4" />
  <path
     d="m 21.015401,26.793888 c 0.760542,0 1.744293,-0.578071 1.740641,-1.291139 l 0.05194,-20.5721725 -12.107336,1e-7 c -1.275179,0 -2.5150225,1.260161 -2.519691,2.496225 L 8.1153759,24.790051 6.503817,24.273095 6.5693927,7.4268016 C 6.5777163,5.2875867 8.4190162,3.5533844 10.700643,3.5533844 h 15.147913 c 2.281627,0 3.335614,1.523969 3.321776,2.9492814 l -0.02151,2.2152751 c -1.559454,0.01197 -3.094514,0.038985 -4.653491,0.00728 l -0.02381,16.7775271 c 0,2.139228 -1.849623,3.873418 -4.131249,3.873418 H 6.5693927 c -2.2816259,0 -4.1312493,-1.73419 -4.1312493,-3.873418 V 24.21161 H 17.586058 c 0,1.426153 1.908259,2.582278 3.429343,2.582278 z"
     id="path2"
     sodipodi:nodetypes="sscssccsssscccsssccs"
     style="fill:#0e3a5a;fill-opacity:1;stroke-width:1.33341" />
  <path
     id="path2136"
     d="m 20.644862,26.741992 c -0.631451,-0.07101 -1.244097,-0.30257 -1.833462,-0.692986 -0.666885,-0.441767 -1.107458,-1.046378 -1.184236,-1.625159 l -0.03315,-0.249913 H 12.865781 8.1375505 l 0.020407,-7.535715 c 0.025345,-9.3594308 0.026691,-9.4417677 0.1608458,-9.84 0.256036,-0.7600325 0.8905379,-1.4151027 1.6614613,-1.7153203 l 0.3164934,-0.1232506 6.246184,-0.012928 6.246183,-0.012928 -0.02203,10.2272139 c -0.01211,5.624967 -0.03272,10.315502 -0.04579,10.42341 -0.0511,0.421893 -0.49638,0.863757 -1.067402,1.059215 -0.338501,0.115867 -0.614301,0.142752 -1.009039,0.09836 z"
     style="fill:#c9e8fb;fill-opacity:1;stroke:none;stroke-width:0.571991;stroke-linecap:round;stroke-linejoin:round" />
  <path
     fill="#0e3a5a"
     d="M 11.070253,13.437255 C 10.515488,13.291573 10.290082,13.21927 10.18407,13.10704 c -0.04425,-0.04748 -0.06999,-0.106831 -0.08543,-0.208272 -0.01646,-0.113311 -0.01545,-0.256834 -0.01545,-0.445684 0,-0.567626 0.08749,-0.7241 0.934559,-0.7241 0.43846,0 0.942794,0.05935 1.364785,0.159712 l 0.127627,0.03022 0.07822,-0.861152 -0.09365,-0.02481 c -0.442578,-0.123019 -1.012782,-0.192085 -1.493442,-0.192085 -1.391544,0 -1.847501,0.516905 -1.847501,1.587409 0,1.238848 0.195556,1.54748 1.554167,1.865825 0.571233,0.135971 0.810018,0.213669 0.922206,0.330218 0.04837,0.04964 0.07616,0.112239 0.09263,0.213668 0.01853,0.113311 0.01853,0.254675 0.01853,0.439207 0,0.566548 -0.11322,0.767267 -0.935588,0.767267 -0.483747,0 -0.993225,-0.08309 -1.479031,-0.242806 l -0.121457,-0.03993 -0.157477,0.82662 0.08852,0.03668 c 0.480658,0.202877 1.121881,0.307553 1.652974,0.307553 1.551079,0 1.880438,-0.615108 1.880438,-1.672662 10e-4,-1.175179 -0.118367,-1.437409 -1.599453,-1.822662 z"
     id="path12-3-6"
     style="fill:#0e3a5a;fill-opacity:1;stroke-width:1.0539" />
  <path
     fill="#0e3a5a"
     d="m 15.613361,10.840855 c -1.455359,0 -2.074967,0.82338 -2.074967,1.843164 v 2.405395 c 0,0.953957 0.542414,1.734173 1.811478,1.829135 l 0.579467,1.383452 0.836781,-0.3982 -0.444636,-1.054316 c 0.95823,-0.221223 1.366844,-0.936691 1.366844,-1.761151 v -2.405393 c 0,-1.019785 -0.618579,-1.842086 -2.074967,-1.842086 z m 1.145554,4.230214 c 0,0.615107 -0.336564,0.971221 -1.145554,0.971221 -0.80899,0 -1.145554,-0.356114 -1.145554,-0.971221 v -2.370862 c 0,-0.615109 0.336564,-0.971223 1.145554,-0.971223 0.80899,0 1.145554,0.356114 1.145554,0.971223 z"
     id="path14-0-1"
     style="fill:#0e3a5a;fill-opacity:1;stroke-width:1.0539" />
  <polygon
     style="fill:#0e3a5a;fill-opacity:1"
     fill="#0e3a5a"
     points="27.637,22.275 27.637,21.444 25.353,21.444 25.353,16.789 24.45,16.789 24.45,22.275 "
     id="polygon16-2-2"
     transform="matrix(1.0292495,0,0,1.0791364,-6.445517,-7.1915146)" />
</svg>
