<?xml version="1.0" encoding="UTF-8" standalone="no"?>
<svg width="16"
     height="16"
     viewBox="0 0 70 20"
     fill="none"
     version="1.1"
     xmlns="http://www.w3.org/2000/svg">
    <path d="M 50.993183,2.1981677 29.340855,14.387795 6.1557308,1.3627807 5.0393728,1.9648615 V 11.422547 L 29.340855,25.047133 50.990674,12.905171 v 5.004796 L 29.340855,30.102102 6.1557308,17.077089 5.0393728,17.67917 v 1.6206 L 29.340855,32.926864 53.594674,19.29977 V 9.8445941 L 52.478316,9.2425134 29.340855,22.219862 7.6408633,10.0779 V 5.0705956 L 29.340855,17.212557 53.594674,3.5904794 V -5.7317373 L 52.385495,-6.4266388 29.340855,6.5055547 8.7572214,-4.9891711 29.340855,-16.529052 46.251797,-7.0287196 47.739438,-7.8615979 V -9.0206033 L 29.340855,-19.353814 5.0393728,-5.7292286 v 1.4851324 L 29.340855,9.3829989 50.990674,-2.8091371 Z"
          fill="#ee3d2c"
          style="stroke-width:2.50867"/>
    <circle cx="56.775425"
            cy="30.747881"
            r="10"
            fill="none"
            stroke="#000000"
            stroke-width="3"
            id="circle5"/>
    <line x1="56.775425"
          y1="30.747881"
          x2="56.775425"
          y2="24.747881"
          stroke="#000000"
          stroke-width="2"
          stroke-linecap="round"
          id="line7"/>
    <line x1="56.775425"
          y1="30.747881"
          x2="62.775425"
          y2="30.747881"
          stroke="#000000"
          stroke-width="2"
          stroke-linecap="round"
          id="line9"/>
</svg>
