<?xml version="1.0" encoding="UTF-8"?>
<!--
  Licensed to the Apache Software Foundation (ASF) under one or more
  contributor license agreements.  See the NOTICE file distributed with
  this work for additional information regarding copyright ownership.
  The ASF licenses this file to You under the Apache License, Version 2.0
  (the "License"); you may not use this file except in compliance with
  the License.  You may obtain a copy of the License at

       http://www.apache.org/licenses/LICENSE-2.0

  Unless required by applicable law or agreed to in writing, software
  distributed under the License is distributed on an "AS IS" BASIS,
  WITHOUT WARRANTIES OR CONDITIONS OF ANY KIND, either express or implied.
  See the License for the specific language governing permissions and
  limitations under the License.
-->
<svg xmlns="http://www.w3.org/2000/svg" viewBox="0 0 48 48" width="48" height="48">
    <path d="M 42.119239,19.950754 24.450651,29.897655 5.5312786,19.269069 4.6203139,19.760374 v 7.717599 L 24.450651,38.595817 42.117194,28.687812 v 4.083983 L 24.450651,42.720742 5.5312786,32.092156 4.6203139,32.58346 v 1.322432 l 19.8303371,11.11989 19.791442,-11.11989 v -7.71555 L 43.331128,25.699038 24.450651,36.288728 6.7431672,26.380723 V 22.294694 L 24.450651,32.202699 44.242093,21.0869 V 13.479848 L 43.255386,12.912798 24.450651,23.465641 7.6541284,14.08579 24.450651,4.6690923 38.250206,12.421493 39.46414,11.741851 V 10.796088 L 24.450651,2.3640489 4.6203139,13.481894 v 1.211888 l 19.8303371,11.11989 17.666543,-9.948943 z"
          fill="#ee3d2c"
          style="stroke-width:2.04711"
          id="path852"/>
</svg>
