<!--
  - Licensed to the Apache Software Foundation (ASF) under one or more
  - contributor license agreements.  See the NOTICE file distributed with
  - this work for additional information regarding copyright ownership.
  - The ASF licenses this file to You under the Apache License, Version 2.0
  - (the "License"); you may not use this file except in compliance with
  - the License.  You may obtain a copy of the License at
  -
  -       http://www.apache.org/licenses/LICENSE-2.0
  -
  - Unless required by applicable law or agreed to in writing, software
  - distributed under the License is distributed on an "AS IS" BASIS,
  - WITHOUT WARRANTIES OR CONDITIONS OF ANY KIND, either express or implied.
  - See the License for the specific language governing permissions and
  - limitations under the License.
  -->

<svg
        version="1.1"
        xmlns="http://www.w3.org/2000/svg"
        x="0px"
        y="0px"
        width="256px"
        height="256px"
        viewBox="0 0 256 256"
        enable-background="new 0 0 256 256"
        xml:space="preserve">
    <g>
        <path fill="#0095DD" d="M70.956,195.781c-0.403,0-0.811-0.052-1.219-0.16c-2.502-0.671-3.99-3.247-3.319-5.751
            c7.757-28.959,6.274-106.436,6.257-107.217c-0.053-2.589,2.007-4.735,4.599-4.785c0.033-0.003,0.065-0.003,0.096-0.003
            c2.549,0,4.64,2.038,4.692,4.6c0.066,3.235,1.523,79.604-6.574,109.838C74.926,194.398,73.028,195.781,70.956,195.781z"/>
        <path fill="#7658B1" d="M138.613,137.416c-9.441,0-17.392-3.89-17.905-4.149c-2.318-1.158-3.258-3.978-2.099-6.295
            c1.157-2.312,3.966-3.257,6.291-2.104c0.279,0.138,14.777,7.093,24.519-0.106c2.083-1.546,5.022-1.103,6.564,0.982
            c1.542,2.084,1.101,5.022-0.983,6.564C149.78,136.168,143.958,137.416,138.613,137.416z"/>
        <path fill="#FF8A12" d="M157.21,182.926c-3.751,0-7.997-0.229-12.773-0.52c-2.588-0.159-4.557-2.386-4.399-4.976
            c0.158-2.587,2.364-4.541,4.972-4.397c9.839,0.604,20.985,1.291,23.67-1.979c1.954-2.384,1.542-8.912-1.228-19.4
            c-6.796-25.732-0.888-34.402,5.185-40.505c0.425-0.423,0.82-0.817,1.159-1.207c4.105-4.685,17.407-11.937,20.03-13.342
            c2.286-1.226,5.131-0.364,6.354,1.919c1.224,2.286,0.365,5.129-1.919,6.356c-5.905,3.163-15.207,8.747-17.399,11.248
            c-0.459,0.527-0.993,1.069-1.567,1.647c-3.487,3.505-8.758,8.8-2.767,31.483c3.834,14.525,3.664,22.566-0.591,27.753
            C172.118,181.664,166.024,182.926,157.21,182.926z"/>
        <path fill="#DB0012" d="M147.883,250.904c-11.599,0-22.975-5.176-30.923-14.549c-18.702-22.059-32.376-21.854-32.535-21.873
            c-2.591,0.174-4.751-1.9-4.878-4.456c-0.128-2.556,1.769-4.738,4.32-4.914c1.832-0.107,18.498-0.489,40.253,25.171
            c8.251,9.731,20.661,13.542,32.386,9.94c22.843-7.014,39.016-39.527,44.365-89.201c4.729-43.903,7.528-88.793-14.181-112.962
            c-12.908-14.376-33.947-21.362-64.317-21.362c-65.216,0-78.645,42.503-81.391,60.778c-4.135,27.518,6.459,56.024,22.668,61.009
            c2.478,0.763,3.87,3.389,3.107,5.868c-0.763,2.476-3.388,3.861-5.867,3.104c-20.683-6.359-34.051-39.044-29.193-71.376
            C38.17,33.018,72.067,7.309,122.374,7.309c33.188,0,56.511,8.008,71.303,24.479c24.289,27.045,21.484,74.229,16.529,120.24
            c-7.904,73.36-35.312,92.368-50.944,97.17C155.52,250.346,151.69,250.904,147.883,250.904z"/>
    </g>
</svg>