<?xml version="1.0" encoding="utf-8"?>
<!-- Generator: Adobe Illustrator 18.0.0, SVG Export Plug-In . SVG Version: 6.00 Build 0)  -->
<!DOCTYPE svg PUBLIC "-//W3C//DTD SVG 1.1//EN" "http://www.w3.org/Graphics/SVG/1.1/DTD/svg11.dtd">
<svg version="1.1" id="Layer_1" xmlns="http://www.w3.org/2000/svg" xmlns:xlink="http://www.w3.org/1999/xlink" x="0px" y="0px"
	 viewBox="0 0 42 42" enable-background="new 0 0 42 42" xml:space="preserve">
<g>
	<g>
		<circle fill="none" cx="32.3" cy="33.1" r="3.6"/>
		<path fill="#EFF9FE" d="M32.8,11.6H10.1V27h15.8l6.9-6.8V11.6z M15.5,24.9V13.7l11.9,5.6L15.5,24.9z"/>
		<polygon fill="#EFF9FE" points="17.3,16.6 17.3,22 23,19.3 		"/>
		<polygon fill="#3D6480" points="10.1,11.6 32.8,11.6 32.8,20.2 34.5,18.5 34.5,9.9 8.4,9.9 8.4,32 20.8,32 22.5,30.3 10.1,30.3 
			10.1,27.8 25.1,27.8 25.9,27 10.1,27 		"/>
		<rect x="11.2" y="28.8" fill="#3D6480" width="2.4" height="0.8"/>
		<path fill="#0CB20F" d="M15.5,24.9l11.9-5.6l-11.9-5.6V24.9z M17.3,16.6l5.7,2.7L17.3,22V16.6z"/>
		<path fill="#3D6480" d="M37.3,33.3c0-0.4,0-0.8-0.1-1.1l1.3-1l-0.2-0.5c-0.1-0.2-0.2-0.4-0.3-0.6l-0.2-0.5l-1.6,0.4
			c-0.1-0.1-0.2-0.3-0.3-0.4c-0.1-0.2-0.3-0.3-0.4-0.4l0.4-1.6l-0.4-0.2c-0.2-0.1-0.4-0.2-0.6-0.3l-0.5-0.2l-1,1.3
			c-0.4-0.1-0.7-0.1-1.1-0.1l-0.7-1.4l-0.5,0.1c-0.2,0-0.4,0.1-0.6,0.1L30,27l0.1,1.6c-0.3,0.2-0.6,0.4-0.9,0.6l-1.5-0.6L27.4,29
			c-0.1,0.2-0.3,0.4-0.4,0.5l-0.3,0.4l1.1,1.2c-0.1,0.4-0.3,0.7-0.3,1.1l-1.5,0.5l0,0.5c0,0.2,0,0.4,0,0.7l0.1,0.5l1.6,0.2
			c0.1,0.4,0.3,0.7,0.4,1l-0.9,1.3l1,1.1l1.4-0.6l0.1-0.1c0.3,0.2,0.7,0.4,1,0.5l0.2,1.6l0.5,0.1c0.2,0,0.4,0.1,0.6,0.1l0.5,0L33,38
			c0.4,0,0.8-0.1,1.1-0.3l1.2,1.1l0.4-0.3c0.2-0.1,0.4-0.2,0.6-0.4l0.4-0.3L36,36.4c0.3-0.3,0.5-0.6,0.7-0.9l1.6,0.1l0.2-0.5
			c0.1-0.2,0.1-0.4,0.2-0.6l0.1-0.5L37.3,33.3z M32.3,36.7c-2,0-3.6-1.6-3.6-3.6s1.6-3.6,3.6-3.6s3.6,1.6,3.6,3.6
			S34.3,36.7,32.3,36.7z"/>
	</g>
</g>
</svg>
