<svg version="1.1"
	 xmlns="http://www.w3.org/2000/svg" xmlns:xlink="http://www.w3.org/1999/xlink"
	 x="0px" y="0px" width="405px" height="405px" viewBox="0.62 3.101 405 405" enable-background="new 0.62 3.101 405 405"
	 xml:space="preserve">
<path id="path4_1_" fill="#00992C" d="M1.6,352C9.2,379.301,26.7,396.601,53.8,404.2l0,0
	c12.2,0,24.3-0.1,36.5-0.1c73.8,0,147.5,0,221.3,0c12.6,0,25.3,0.8,37.8-0.8l0,0l0,0c26.2-4.4,51-30.7,53.7-57.101
	c0.2-1.6,0.7-2.399,1.9-3.1c0-47,0-94,0-141c-135,0-270,0-405,0c0,49,0,98,0,147C1.5,349.5,1.3,350.9,1.6,352z M241.399,265.7
	c1.301-13.8,8.801-20.899,22.7-21.6c1.3-0.101,2.7-0.101,4,0c20.2,0,30.101,13.2,24.5,32.8c-1.6,5.8-4.8,10.6-9.1,14.7
	c-4.8,4.6-9.7,9.1-14.5,13.7c-3,2.899-5.4,6.199-7,10.8c10.1,0,19.399,0.1,28.8-0.101c2.8,0,3.6,0.801,3.6,3.601
	c0.101,9.7,0.2,9.7-9.5,9.7c-13,0-26-0.101-39,0.1c-3.5,0-4.8-0.4-4.399-4.6c1-11.2,6.2-20.2,13.8-28.101
	c4.5-4.7,9.3-9.1,14.1-13.399c6.601-5.9,7.5-13.4,6.4-21.5c-0.6-3.9-3.1-6.2-7.1-6.601c-3.801-0.3-6.9,1-8.601,4.601
	c-1.3,2.6-1.899,5.5-1.7,8.199c0.2,3.7-1.6,4.101-4.5,3.9c-2.3-0.2-4.699,0-7,0C240.8,271.9,240.8,271.9,241.399,265.7
	L241.399,265.7z M180.899,243.2c12,0.4,24-1.2,35.9,0.9c9.8,1.8,14.5,7.399,15.8,17.899c1.2,10-2.7,17.601-11.3,21.601
	c0.2,0.2,0.4,0.6,0.6,0.7c12.301,6.699,15.7,14.5,12.4,28.3c-2.5,10.399-11.2,16.5-23.7,16.7c-9.5,0.1-19,0-28.5,0.1
	c-2.6,0-3.399-0.7-3.399-3.3c0.1-26.5,0-52.9,0.1-79.4C178.8,245.2,178.2,243.101,180.899,243.2L180.899,243.2z M116.5,243.101
	c7.5,0.3,15,0.1,22.5,0.1c16.6,0,25.5,7.3,27.899,23.7c2,13.4,1.9,26.9-0.6,40.2c-2.9,15.1-11.3,22.1-26.6,22.2
	c-8.301,0.1-16.601-0.101-25,0.1c-3.101,0.1-4-0.8-3.9-3.9c0.2-13.1,0.1-26.3,0.1-39.399c0-12.5,0.301-25-0.1-37.4
	C110.5,243.9,112.1,242.9,116.5,243.101L116.5,243.101z"/>
<path id="path6_1_"  d="M7.7,200.5c18.3,0,36.6,0,55,0c110.8,0,221.5,0,332.3,0
	c3.399,0,7.1-0.8,10.1,1.601c0-46.7,0-93.3,0-140c-0.6-1.101-1.7-2.101-1.9-3.3c-5.3-31-23.699-49.801-53.6-58
	c-0.2-0.101-0.3-0.5-0.5-0.801c-97.3,0-194.7,0-292,0c-0.8,1.7-2.6,1.301-3.899,1.7C26.5,9.4,9.399,26.601,1.7,53.2
	c-0.4,1.3,0,3.101-1.7,3.9c0,48.3,0,96.7,0,145C2.3,200.2,5,200.5,7.7,200.5z M123.3,171.7c-0.1,2.2,0.6,4.601-3.3,4.4
	c-7.101-0.3-14.3-0.101-21.5-0.101c-7.3,0-14.7-0.199-22,0.101c-3.601,0.1-3.601-1.5-3.601-4.2c0-2.6,0-4.2,3.5-4.2
	c14.5,0.2,29,0.2,43.4,0C123.2,167.801,123.399,169.301,123.3,171.7z M184.1,176c-17,0.2-33.899,0-50.899,0.101
	c-3,0-3.801-1-3.5-3.7c0.3-2-1-4.6,3.1-4.6c22.8,0.199,45.5,0.1,69.5,0.1C196.6,173.5,190.7,175.9,184.1,176L184.1,176z
	 M209.6,153.9c-0.2,2.6,0,6.4-4.2,6.8c-0.8,0.101-1.699,0-2.5,0c-22.8,0-45.6,0-68.3,0c-2.899,0-4.899,0.2-4.899-4
	c0-4.1,1.5-4.5,4.899-4.5c11.8,0.2,23.601,0.101,35.4,0.101s23.6-0.101,35.399,0.1C206.899,152.5,209.899,151.2,209.6,153.9z
	 M165.899,96.4c0.2,2,0.4,4.1-2.8,3.8c-2.6-0.2-5.3,0-8,0c-2,0-4,0-6,0c-4.8,0-6.2-2.1-5-6.7c0.4-1.699,1.5-1.5,2.601-1.5
	c5.5,0,11,0.101,16.399-0.1C167.1,91.801,165.7,94.5,165.899,96.4z M166.2,141.7c0.1,2.2,0.399,4.4-3.101,4.101
	c-2.6-0.2-5.3,0-7.899,0c-2,0-4-0.301-5.9,0.1c-4.9,0.9-5.5-1.7-5.2-5.6c0.2-2.101,0.8-2.9,2.9-2.9c5.5,0.1,10.899,0.2,16.399,0
	C167.1,137.301,166.1,139.801,166.2,141.7L166.2,141.7z M147.2,130.4c-3.5,0-3-2-3-4.2s-0.4-4.2,3.1-4.1c16.8,0.2,33.6,0.1,50.3,0.1
	c5,0,5.7,4.8,7.9,8.2C186.1,130.4,166.6,130.301,147.2,130.4z M194,115.301c-15.101-0.601-30.3-0.301-45.4-0.101
	c-3.3,0-4.6-0.5-4.6-4.2c0.1-3.399,1.1-4.1,4.3-4c18.9,0.101,37.9,0.101,57.6,0.101C203.3,112.5,200.399,115.5,194,115.301z
	 M248.899,176.101c-9.8-0.2-19.6-0.2-29.399,0c-3.601,0.1-3-2.101-3-4.2c0-2.2-0.4-4.3,3.1-4.1c4.8,0.3,9.601,0.1,14.5,0.1
	c5,0,10,0.2,15-0.1c3.7-0.2,2.9,2.199,3,4.199C252,174.2,252.5,176.2,248.899,176.101z M252,143c-0.101,2.101-0.8,2.9-2.9,2.801
	c-4.6-0.101-9.3-0.2-13.899,0c-3.101,0.1-4.801-0.2-4.7-4.101c0.1-3.5,1.1-4.7,4.5-4.3c2.1,0.2,4.3,0,6.399,0
	c1.801,0,3.7,0.3,5.4-0.1C251.899,136.5,252.3,139.2,252,143L252,143z M249.2,130.4c-2.7-0.2-5.301,0-8,0c-1.801,0-3.7-0.3-5.5,0.1
	c-4.9,0.9-5.4-1.6-5.2-5.6c0.2-2.3,1-2.7,3.1-2.7c5.2,0.101,10.301,0.2,15.5,0c3.3-0.2,3,1.9,2.8,3.8
	C251.8,127.801,253.1,130.601,249.2,130.4L249.2,130.4z M273.8,175.9c-1.399-2.5-3-5-2.1-7.7c0.2-0.5,3.7-0.7,4-0.1
	C277.4,170.9,274.8,173.2,273.8,175.9z M275.1,160.801c-2.899-0.5-6.6,1.699-8-3.301c-1.1-3.899-1.1-5.899,3.7-5.1c1,0.2,2,0,3,0
	c0.7,0,1.4-0.2,2,0c1.8,0.7,5.4-1.9,5.2,1.9C280.7,157.301,280.6,161.801,275.1,160.801L275.1,160.801z M285.8,139.2
	c-0.3,2.601,0,7.101-5.3,6.7c-4.6-0.3-9.3-0.1-14-0.1c-1.5,0-2.7,0-3.6-1.801c-2.801-5.8-2.4-6.5,4-6.5c2.3,0,4.699,0,7,0
	c2.3,0,4.699-0.3,7,0.101C282.7,137.801,286.1,135.801,285.8,139.2z M282.4,130.4c-5.7,0-11.301,0-17,0c-7.301,0-7.301,0-8.9-8
	c11.4,0,22.9,0,34.3,0C289.8,130.4,289.8,130.4,282.4,130.4z M298.3,122.2c2.6,0.101,5.3,0,8,0c1.8,0,3.7,0.3,5.5-0.1
	c4.8-0.9,5.5,1.5,5.2,5.6c-0.2,2.3-1.101,2.7-3,2.7c-5.101-0.1-10.301-0.2-15.4,0c-3.199,0.1-3-1.8-2.8-3.8
	C295.8,124.801,294.4,122,298.3,122.2L298.3,122.2z M295.5,139.2c0.5-1.8,1.7-1.8,3-1.8c5.1,0,10.3,0.2,15.399-0.1
	c3.5-0.101,3,2.1,3,4.199c0,2,0.7,4.5-2.899,4.301c-2.601-0.2-5.301,0-7.9,0c-1.8,0-3.6,0-5.5,0
	C295.7,145.801,294.3,143.9,295.5,139.2z M328.1,176.101c-9.8-0.2-19.6-0.2-29.399,0c-3.7,0.1-3.101-2-3.101-4.101
	c0-2-0.699-4.399,2.9-4.199c5,0.3,10,0.1,15,0.1c4.8,0,9.699,0.2,14.5-0.1c3.6-0.2,3.1,2,3,4.1
	C330.899,173.9,331.8,176.2,328.1,176.101z M327.8,160.801c-4.8-0.301-9.601-0.101-14.4-0.101s-9.6-0.2-14.399,0.101
	c-3.8,0.199-3.3-2.101-3.4-4.5c-0.1-2.4,0-4.101,3.3-4c9.601,0.199,19.3,0.199,28.9,0c3.899-0.101,3.2,2.199,3.2,4.5
	C331.1,159.101,331.2,161,327.8,160.801z M288.7,67.9c0.399-2.3,0-6.5,3.8-6.6c12.1-0.301,24.3-0.2,36.399,0c3.7,0,1.601,3.199,2,5
	c0.5,2.1-0.2,3.3-2.8,3.3c-6.3-0.2-12.6-0.101-19-0.101c-5.5,0-11,0.101-16.5-0.1C291.3,69.301,288.3,70.801,288.7,67.9z
	 M283.8,83.5c0.4-2.5-0.4-6.899,4.6-6.899c6,0,12,0,17.9,0c7.1,0,14.3,0.2,21.399-0.101c3.2-0.1,3.5,1.5,3.301,3.9
	c-0.2,2.2,0.8,4.7-3.2,4.5c-7-0.3-14-0.1-20.9-0.1c-6.3,0-12.6,0.1-18.899-0.101C286.5,84.801,283.399,86.101,283.8,83.5L283.8,83.5
	z M287.5,91.9c8.8,0,17.699,0.1,26.5,0c3.199-0.1,3.1,1.7,2.899,3.8c-0.2,1.9,1.2,4.5-2.7,4.5c-11.8-0.1-23.6,0-35.499,0
	C280.1,91.9,280.1,91.9,287.5,91.9L287.5,91.9z M273.899,113.601C274.2,105.2,280.1,107,285,107c9.3-0.1,18.699,0.2,28-0.1
	c3.699-0.1,3.699,1.6,3.899,4.4c0.2,3.199-0.899,4-3.899,3.8c-4.801-0.2-9.7-0.2-14.5,0c-2.4,0.1-3.3-0.7-3.2-3.5
	c-0.9,3.7-3.3,3.5-5.8,3.399c-10.7-0.1-21.3-0.1-32,0c-2.5,0-4.9,0.101-5-3.899c-0.101,3.2-1.4,4-4,3.899c-4.8-0.199-9.7-0.3-14.5,0
	c-3.101,0.2-3.7-1.1-3.4-3.699c0.2-2.101-0.899-4.601,3.2-4.5c11.5,0.199,23,0.3,34.5,0
	C273.1,106.801,271.5,111.101,273.899,113.601L273.899,113.601z M268.399,100.101c-11.8,0-23.6-0.101-35.3,0
	c-3.6,0-2.3-2.5-2.399-4.101c0-1.699-1.101-4.1,2.399-4.1c10.3,0.1,20.601,0,30.9,0.1C266.8,92,267.1,92.7,268.399,100.101z
	 M216.5,64.9c-0.2-2.1-0.2-3.8,2.899-3.8c11.5,0.2,23-0.101,34.4,0.1c5.3,0.101,3.2,5.101,5.3,8.2c-13.8,0-26.899,0-40,0
	C215.3,69.5,216.6,66.801,216.5,64.9L216.5,64.9z M216.399,81.101c0.2-2.2-0.699-4.601,3.2-4.601c13,0.2,26,0,38.9,0.101
	c2.3,0,6,5.899,4.899,7.7c-0.8,1.199-2.1,0.6-3.199,0.6c-6.801,0.1-13.601,0-20.5,0c-6.7,0-13.301-0.2-20,0.1
	C216.7,85.101,216.2,83.7,216.399,81.101L216.399,81.101z M219.7,152.301c9.8,0.199,19.6,0.199,29.3,0
	c3.7-0.101,2.899,2.3,2.899,4.3c0,2.1,0.601,4.399-3,4.2c-5-0.2-9.899-0.101-14.899-0.101c-4.8,0-9.601-0.2-14.4,0.101
	c-3.899,0.199-3.2-2.301-3.3-4.5C216.3,153.9,216.5,152.301,219.7,152.301L219.7,152.301z M207.399,145.9c-2.6,0-5.3,0-7.899,0
	c-2.101,0-4.4-0.3-6.4,0.1c-5.3,1-5.5-2.1-5.2-6c0.101-1.899,0.801-2.6,2.7-2.6c5.601,0.1,11.2,0,16.9,0.1c4.2,0,3,3.601,3.5,5.9
	C211.5,146.301,209.2,145.9,207.399,145.9z M210.3,94.5c-0.3,2.9,0.3,6.101-4.6,5.7c-4.9-0.399-9.9-0.3-14.9,0
	c-3.6,0.2-3.4-1.8-3.5-4.2c-0.1-2.8,0.3-4.399,3.7-4.1c2.6,0.3,5.3,0.1,7.899,0.1c2.301,0,4.7-0.199,6.9,0.101
	C207.6,92.2,210.7,90.4,210.3,94.5L210.3,94.5z M209.7,83.301c-0.301,2.5-2.2,1.6-3.5,1.6c-12.2,0.1-24.301,0-36.5,0
	c-12,0-24-0.1-36,0.1c-3.5,0.101-4-1.199-4.101-4.3c-0.1-3.2,0.8-4.2,4.2-4.2c23.3,0.101,46.6,0.101,69.9,0.101
	C207.399,76.601,210.1,79.7,209.7,83.301L209.7,83.301z M133.899,61.101c16.301,0.2,32.601,0,48.9,0.1c6.9,0,12.9,2.601,18.3,7.4
	c-1.399,1.3-2.6,0.8-3.6,0.8c-21.101,0-42.2-0.1-63.3,0.1c-3.4,0-4.5-0.699-4.5-4.3C129.7,61.801,130.7,61.101,133.899,61.101z
	 M75.899,61.101c14.801,0.2,29.5,0.2,44.301,0c4.1-0.101,2.899,2.5,3.1,4.6c0.3,2.601-0.3,3.9-3.4,3.8
	c-7.3-0.199-14.6-0.1-21.899-0.1s-14.601-0.2-21.9,0.1c-3.5,0.101-3.1-1.899-3-4.1C73.2,63.5,72.1,61.101,75.899,61.101
	L75.899,61.101z M76.5,76.5c14.5,0.2,29,0.2,43.5,0c3.8-0.1,3.2,2.2,3.3,4.5c0.1,2.4,0,4.101-3.3,4c-7.5-0.199-15-0.1-22.5-0.1
	c-7,0-14-0.2-21,0.1c-3.601,0.2-3.5-1.699-3.5-4.199C73,78.2,72.899,76.4,76.5,76.5L76.5,76.5z M105.899,145.9
	c-2.6-0.2-5.3,0-7.899,0c-2.101,0-4.3,0-6.4,0c-4,0-6-3.3-4.399-7.2c0.6-1.5,1.8-1.2,2.899-1.2c5.3,0,10.601,0.101,15.9-0.1
	c3.6-0.1,3,2.2,3,4.3C108.8,143.7,109.5,146.101,105.899,145.9z M108.8,96.101c0.1,2.3,0.3,4.399-3.1,4
	c-2.601-0.3-5.301-0.101-8-0.101c-1.801,0-3.7-0.3-5.5,0.101c-4.601,0.8-5.7-1.3-5.301-5.4c0.2-2.2,0.9-2.8,2.9-2.8
	c5.3,0.1,10.6,0.2,15.9,0C109.399,91.801,108.7,94.101,108.8,96.101L108.8,96.101z M108.8,111.4c0.2,2,0.4,4.1-2.8,3.8
	c-2.601-0.2-5.3,0-8,0c-2,0-4-0.3-6,0.101c-5.101,1-5.2-2-5-5.7c0.1-2,0.7-2.601,2.6-2.601c5.5,0.101,11,0.101,16.4,0
	C109.899,106.801,108.6,109.5,108.8,111.4z M108.899,127.801c-0.1,1.899-0.8,2.6-2.6,2.6c-5.5-0.1-10.9-0.1-16.4,0
	c-3.8,0.1-2.6-2.5-2.699-4.4c-0.101-2-0.5-4.1,2.8-3.8c2.6,0.2,5.3,0,8,0c2,0,4,0.3,6-0.1C108.899,121.2,109.1,124,108.899,127.801
	L108.899,127.801z M73,156.601c0-2.5-0.2-4.3,3.5-4.3c14.5,0.199,29,0.199,43.5,0c3.8-0.101,3.3,2.1,3.3,4.5
	c0.1,2.399,0.1,4.1-3.3,4c-7.3-0.2-14.601-0.101-22-0.101c-7.2,0-14.3-0.2-21.5,0.101C73,161,73,159.2,73,156.601L73,156.601z"/>
<path id="path8_1_" d="M394.899,200.5c-110.8,0-221.5,0-332.3,0c-18.3,0-36.6,0-55,0
	c-2.6,0-5.399-0.3-7.6,1.601c135,0,270,0,405,0C402,199.7,398.3,200.5,394.899,200.5z"/>
<path id="path10_1_" fill="#1BA442" d="M347,404.2c-2.4,0.5-4.801,0.4-7.2,0.4
	c-94.6,0-189.3,0-283.9,0c-0.6,0-1.1-0.101-1.699-0.101c0,0.101,0.1,0.101,0,0.2c-0.101,0.3-0.2,0.4-0.301,0.4
	c97.7,0,195.301,0,293,0C347,404.7,347,404.4,347,404.2z"/>
<path id="path12_1_" fill="#1BA442" d="M349.399,403.301L349.399,403.301
	c-12.6,1.6-25.2,0.8-37.8,0.8c-73.8,0.1-147.5,0-221.3,0c-12.2,0-24.3,0.1-36.5,0.1l0,0c0.3,0.101,0.4,0.2,0.5,0.3
	c0.6,0,1.1,0.101,1.7,0.101c94.6,0,189.3,0,283.899,0c2.4,0,4.8,0.1,7.2-0.4C347.3,403.301,348.8,403.801,349.399,403.301z"/>
<path id="path14_1_" fill="#1BA442" d="M347.399,404.101c-0.1,0-0.2,0-0.3,0.1
	c-0.1,0.2-0.1,0.5,0,0.9c0.4-0.3,0.9-0.601,1.3-1C348,404.101,347.699,404.101,347.399,404.101z"/>
<path id="path16_1_" fill="#1BA442" d="M347,404.2c0.1,0,0.199,0,0.3-0.1c0.3,0,0.6,0,0.899,0
	c0.4-0.3,0.7-0.601,1.101-0.8C348.8,403.801,347.3,403.301,347,404.2z"/>
<path id="path18_1_" fill="#1BA442" d="M54.3,404.7c0-0.1,0-0.2,0-0.2c-0.2,0-0.3,0-0.5,0
	c0,0.2,0.1,0.4,0.2,0.601C54.1,405.101,54.2,405,54.3,404.7z"/>
<path id="path20_1_" fill="#1BA442" d="M53.8,404.5c0.2,0,0.3,0,0.5,0c-0.1-0.1-0.2-0.199-0.5-0.3
	C53.8,404.301,53.8,404.4,53.8,404.5z"/>
<path id="path22_1_" fill="#FEFEFE" d="M182.1,329.4c9.5-0.1,19,0,28.5-0.1
	c12.5-0.101,21.2-6.301,23.7-16.7c3.3-13.8-0.1-21.601-12.4-28.3c-0.3-0.101-0.399-0.5-0.6-0.7c8.6-4.101,12.6-11.7,11.3-21.601
	c-1.3-10.5-6-16.1-15.8-17.899c-11.9-2.101-23.9-0.5-35.9-0.9c-2.8-0.1-2.199,2-2.199,3.5c0,26.5,0,52.9-0.101,79.4
	C178.7,328.7,179.6,329.4,182.1,329.4L182.1,329.4z M217,302.9c0.399,10-9.601,17.3-19.2,14c-1.5-0.5-1.5-1.6-1.5-2.7
	c0-6.8-0.1-13.7,0-20.5c0.1-5.3,4.5-1.399,5.7-2.899C212.399,290.9,216.6,294.5,217,302.9z M201.2,256
	c10.8,0.2,14.399,3.7,13.8,12.801c-0.5,7.199-10.9,13.1-17.5,10c-1.5-0.7-1.101-1.9-1.2-3c0-4.7,0.2-9.301-0.1-14
	C196,257.4,196.7,254.4,201.2,256z"/>
<path id="path24_1_" fill="#FEFEFE" d="M110.8,286.101c0,13.1,0.1,26.3-0.1,39.399
	c0,3.101,0.8,4,3.899,3.9c8.3-0.2,16.601,0,25-0.1c15.3-0.101,23.8-7.101,26.601-22.2c2.5-13.4,2.6-26.8,0.6-40.2
	c-2.4-16.4-11.2-23.7-27.9-23.7c-7.5,0-15,0.2-22.5-0.1c-4.399-0.2-6,0.8-5.8,5.6C111,261.101,110.8,273.601,110.8,286.101
	L110.8,286.101z M132.5,255.9c11.5,0,15.6,2.7,17,13.7c1.5,11.7,1.7,23.6-0.4,35.3c-1.7,9.7-9.399,14.3-18.899,12
	c-2.601-0.6-1.801-2.4-1.801-3.9c-0.1-9,0-18,0-27c0-8.699,0.2-17.3-0.1-26C128.1,256.601,129.3,255.9,132.5,255.9z"/>
<path id="path26_1_"  fill="#FEFEFE" d="M246.8,271.9c2.3,0,4.7-0.1,7,0c2.9,0.2,4.7-0.2,4.5-3.9
	c-0.2-2.8,0.5-5.6,1.7-8.199c1.8-3.601,4.899-4.9,8.6-4.601c4,0.3,6.5,2.7,7.101,6.601c1.2,8.1,0.2,15.6-6.4,21.5
	c-4.8,4.3-9.6,8.8-14.1,13.399c-7.601,7.8-12.801,16.8-13.801,28.101c-0.399,4.199,0.9,4.6,4.4,4.6c13-0.2,26-0.1,39-0.1
	c9.7,0,9.601,0,9.5-9.7c0-2.8-0.8-3.7-3.6-3.601c-9.3,0.2-18.601,0.101-28.8,0.101c1.6-4.601,4-7.9,7-10.8
	c4.8-4.601,9.699-9.101,14.5-13.7c4.3-4.101,7.399-8.9,9.1-14.7c5.5-19.6-4.3-32.8-24.5-32.8c-1.3,0-2.7,0-4,0
	c-13.9,0.7-21.4,7.8-22.7,21.6C240.8,271.9,240.8,271.9,246.8,271.9L246.8,271.9z"/>
<path id="path28_1_"  fill="#F9F9F9" d="M205.399,152.5c-11.8-0.1-23.6-0.1-35.399-0.1
	s-23.601,0.1-35.4-0.1c-3.399-0.101-4.899,0.399-4.899,4.5c0,4.199,2,4,4.899,4c22.8-0.101,45.601,0,68.3,0c0.801,0,1.7,0.1,2.5,0
	c4.301-0.4,4-4.301,4.2-6.801C209.899,151.2,206.899,152.5,205.399,152.5L205.399,152.5z"/>
<path id="path30_1_"  fill="#F9F9F9" d="M133.899,76.5c-3.3,0-4.199,1-4.199,4.2
	c0,3.101,0.6,4.3,4.1,4.3c12-0.199,24-0.1,36-0.1c12.2,0,24.3,0,36.5,0c1.3,0,3.2,0.9,3.5-1.6c0.4-3.5-2.3-6.7-5.9-6.7
	C180.5,76.601,157.2,76.601,133.899,76.5L133.899,76.5z"/>
<path id="path32_1_"  fill="#FCFCFC" d="M233.8,106.9c-4-0.1-2.9,2.4-3.2,4.5
	c-0.3,2.6,0.3,3.9,3.4,3.7c4.8-0.3,9.7-0.2,14.5,0c2.6,0.1,3.899-0.7,4-3.9c0.1,4,2.399,3.9,5,3.9c10.7-0.101,21.3-0.101,32,0
	c2.5,0,5,0.3,5.8-3.4c-0.1,2.8,0.9,3.601,3.2,3.5c4.8-0.2,9.699-0.2,14.5,0c3,0.2,4.1-0.7,3.899-3.8c-0.1-2.8-0.1-4.6-3.899-4.4
	c-9.301,0.301-18.7,0.101-28,0.101c-4.9,0-10.9-1.8-11.101,6.6c-2.5-2.399-0.8-6.8-5.699-6.7
	C256.8,107.101,245.3,107.101,233.8,106.9L233.8,106.9z"/>
<path id="path34_1_" fill="#FDFDFD" d="M132.8,167.801c-4.1,0-2.8,2.5-3.1,4.6
	c-0.4,2.7,0.5,3.7,3.5,3.7c17-0.101,33.899,0,50.899-0.101c6.601-0.1,12.5-2.5,18.3-8.1C178.399,167.9,155.6,168,132.8,167.801
	L132.8,167.801z"/>
<path id="path36_1_" fill="#FDFDFD" d="M134.1,69.5c21.101-0.199,42.2-0.1,63.3-0.1
	c1.101,0,2.301,0.4,3.601-0.8c-5.4-4.8-11.4-7.3-18.3-7.4c-16.301-0.1-32.601,0.101-48.9-0.1c-3.2,0-4.2,0.7-4.3,4.1
	C129.6,68.801,130.7,69.601,134.1,69.5L134.1,69.5z"/>
<path id="path38_1_" fill="#FCFCFC" d="M148.3,106.9c-3.2,0-4.2,0.7-4.3,4
	c-0.101,3.7,1.3,4.3,4.6,4.2c15.101-0.2,30.3-0.4,45.4,0.1c6.399,0.2,9.3-2.7,11.899-8.3C186.2,107,167.3,107,148.3,106.9z"/>
<path id="path40_1_" fill="#FCFCFC" d="M205.5,130.4c-2.3-3.4-2.9-8.2-7.9-8.2
	c-16.8,0-33.6,0.101-50.3-0.1c-3.5,0-3.1,2-3.1,4.1c0,2.101-0.5,4.2,3,4.2C166.6,130.301,186.1,130.4,205.5,130.4z"/>
<path id="path42_1_" fill="#F8F8F8" d="M76.6,160.801c7.101-0.301,14.3-0.101,21.5-0.101
	c7.3,0,14.7-0.2,22,0.101c3.3,0.1,3.4-1.601,3.3-4c-0.1-2.301,0.5-4.5-3.3-4.5c-14.5,0.199-29,0.199-43.5,0
	c-3.7-0.101-3.5,1.8-3.5,4.3C73,159.2,73,161,76.6,160.801L76.6,160.801z"/>
<path id="path44_1_" fill="#F8F8F8" d="M76.5,85c7-0.3,14-0.1,21-0.1c7.5,0,15-0.2,22.5,0.1
	c3.3,0.101,3.399-1.5,3.3-4c-0.1-2.3,0.5-4.5-3.3-4.5c-14.5,0.2-29,0.2-43.5,0c-3.601-0.1-3.5,1.7-3.5,4.2
	C73,83.301,72.899,85.101,76.5,85z"/>
<path id="path46_1_" fill="#F7F7F7" d="M288,84.801c6.3,0.199,12.6,0.1,18.899,0.1
	c7,0,14-0.2,20.9,0.1c4,0.2,3-2.3,3.2-4.5c0.199-2.399,0-4-3.301-3.899c-7.1,0.2-14.3,0.1-21.399,0.1c-6,0-12,0-17.9,0
	c-4.899,0-4.199,4.4-4.6,6.9S286.5,84.801,288,84.801L288,84.801z"/>
<path id="path48_1_" fill="#F6F6F6" d="M219.899,85c6.601-0.199,13.301-0.1,20-0.1
	c6.801,0,13.601,0,20.5,0c1.101,0,2.4,0.6,3.2-0.6c1.101-1.7-2.6-7.7-4.899-7.7c-13,0-26,0.1-38.9-0.101
	c-3.899-0.1-3.1,2.4-3.2,4.601C216.2,83.7,216.7,85.101,219.899,85L219.899,85z"/>
<path id="path50_1_" fill="#FDFDFD" d="M120,167.801c-14.5,0.199-29,0.199-43.4,0
	c-3.6-0.101-3.5,1.6-3.5,4.199c0,2.601,0,4.301,3.601,4.2c7.3-0.3,14.6-0.1,22-0.1c7.199,0,14.3-0.2,21.5,0.1
	c3.899,0.2,3.1-2.2,3.3-4.399C123.399,169.301,123.2,167.801,120,167.801z"/>
<path id="path52_1_" fill="#FCFCFC" d="M76.1,69.5c7.3-0.3,14.601-0.1,21.9-0.1
	s14.6-0.1,21.899,0.1c3.101,0.101,3.7-1.199,3.4-3.8c-0.2-2.1,1-4.7-3.1-4.6c-14.801,0.2-29.5,0.2-44.301,0
	c-3.8,0-2.699,2.3-2.8,4.3C73,67.601,72.6,69.601,76.1,69.5L76.1,69.5z"/>
<path id="path54_1_" fill="#FCFCFC" d="M292.7,69.4c5.5,0.2,10.999,0.1,16.499,0.1
	c6.301,0,12.601-0.1,19,0.101c2.601,0.1,3.301-1.2,2.801-3.3c-0.4-1.7,1.699-4.9-2-5c-12.101-0.2-24.301-0.2-36.4,0
	c-3.8,0.1-3.399,4.3-3.8,6.6C288.3,70.801,291.3,69.301,292.7,69.4z"/>
<path id="path56_1_" fill="#FCFCFC" d="M219.1,69.5c13.101-0.1,26.2,0,40,0
	c-2.1-3.1,0-8.1-5.3-8.199c-11.5-0.2-23,0-34.4-0.101c-3.1,0-3.199,1.7-2.899,3.8C216.6,66.801,215.3,69.5,219.1,69.5L219.1,69.5z"
	/>
<path id="path58_1_" fill="#F1F1F1" d="M219.6,160.801c4.8-0.2,9.601-0.101,14.4-0.101
	c5,0,10-0.2,14.899,0.101c3.601,0.199,3-2.101,3-4.2c0-2,0.801-4.4-2.899-4.3c-9.8,0.199-19.601,0.199-29.3,0
	c-3.2-0.101-3.5,1.5-3.4,4C216.5,158.601,215.8,161,219.6,160.801z"/>
<path id="path60_1_" fill="#F7F7F7" d="M327.8,152.301c-9.601,0.199-19.3,0.199-28.9,0
	c-3.3-0.101-3.399,1.6-3.3,4c0.101,2.399-0.399,4.699,3.4,4.5c4.8-0.301,9.6-0.101,14.399-0.101s9.601-0.2,14.4,0.101
	c3.399,0.199,3.3-1.7,3.2-4C330.899,154.601,331.699,152.2,327.8,152.301z"/>
<path id="path62_1_" fill="#FCFCFC" d="M314.199,100.2c3.9,0,2.5-2.6,2.7-4.5
	c0.2-2.1,0.3-3.8-2.899-3.8c-8.801,0.2-17.7,0-26.5,0c-7.4,0-7.4,0-8.8,8.2C290.6,100.101,302.399,100,314.199,100.2L314.199,100.2z
	"/>
<path id="path64_1_" fill="#FDFDFD" d="M233.2,91.9c-3.5,0-2.5,2.4-2.4,4.1
	c0,1.7-1.2,4.2,2.4,4.101c11.699-0.101,23.5,0,35.3,0c-1.3-7.4-1.601-8.101-4.4-8.101C253.8,91.9,243.5,92,233.2,91.9z"/>
<path id="path66_1_" fill="#FCFCFC" d="M249,167.801c-5,0.3-10,0.1-15,0.1
	c-4.8,0-9.7,0.2-14.5-0.1c-3.5-0.2-3.2,1.899-3.101,4.1c0,2.1-0.6,4.3,3,4.2c9.801-0.2,19.601-0.2,29.4,0c3.6,0.1,3.1-2,3-4.101
	C251.899,169.9,252.6,167.601,249,167.801z"/>
<path id="path68_1_" fill="#FCFCFC" d="M328,167.801c-4.801,0.3-9.601,0.1-14.5,0.1
	c-5,0-10,0.2-15-0.1c-3.7-0.2-2.9,2.199-2.9,4.199c0,2.101-0.6,4.2,3.101,4.101c9.8-0.3,19.6-0.2,29.399,0c3.7,0.1,2.8-2.2,2.9-4.2
	C331,169.801,331.6,167.601,328,167.801z"/>
<path id="path70_1_" fill="#FCFCFC" d="M265.399,130.4c5.7,0,11.301,0,17,0c7.5,0,7.5,0,8.4-8
	c-11.4,0-22.8,0-34.3,0C258.1,130.4,258.1,130.4,265.399,130.4z"/>
<path id="path72_1_" fill="#F4F4F4" d="M280.899,137.5c-2.3-0.399-4.6-0.1-7-0.1
	c-2.3,0-4.699,0-7,0c-6.399,0-6.8,0.7-4,6.5c0.9,1.8,2.101,1.8,3.601,1.8c4.7,0,9.3-0.2,14,0.101c5.3,0.399,5-4.101,5.3-6.7
	C286.1,135.801,282.7,137.801,280.899,137.5z"/>
<path id="path74_1_" fill="#F5F5F5" d="M207.3,137.5c-5.6-0.1-11.2,0-16.9-0.1
	c-1.899,0-2.5,0.6-2.699,2.6c-0.301,3.9-0.101,6.9,5.199,6c2.101-0.399,4.301-0.1,6.4-0.1c2.6,0,5.3,0,7.9,0
	c1.8,0,4.1,0.4,3.399-2.6C210.399,141,211.5,137.5,207.3,137.5L207.3,137.5z"/>
<path id="path76_1_" fill="#F4F4F4" d="M163.399,137.4c-5.399,0.2-10.899,0.1-16.399,0
	c-2.101,0-2.8,0.7-2.9,2.9c-0.3,3.899,0.3,6.5,5.2,5.6c1.9-0.3,4-0.1,5.9-0.1c2.6,0,5.3-0.2,7.899,0c3.5,0.3,3.2-1.9,3.101-4.101
	C166.1,139.801,167.1,137.301,163.399,137.4z"/>
<path id="path78_1_" fill="#EEEEEE" d="M105.8,137.4c-5.3,0.2-10.6,0-15.9,0.1
	c-1.1,0-2.3-0.3-2.899,1.2c-1.601,3.8,0.399,7.101,4.399,7.2c2.101,0,4.301,0,6.4,0c2.6,0,5.3-0.2,7.9,0c3.6,0.3,2.899-2.2,3-4.3
	C108.8,139.5,109.399,137.2,105.8,137.4z"/>
<path id="path80_1_" fill="#F5F5F5" d="M246.899,137.4c-1.8,0.3-3.6,0.1-5.399,0.1
	c-2.2,0-4.3,0.2-6.4,0c-3.399-0.399-4.5,0.801-4.5,4.301c-0.1,3.899,1.601,4.3,4.7,4.1c4.6-0.2,9.3-0.1,13.9,0
	c2.1,0,2.8-0.7,2.899-2.8C252.3,139.2,251.899,136.5,246.899,137.4z"/>
<path id="path82_1_" fill="#EFEFEF" d="M300.6,145.801c1.8,0,3.6,0,5.5,0c2.6,0,5.3-0.101,7.9,0
	c3.6,0.199,2.899-2.301,2.899-4.301c0-2.1,0.5-4.399-3-4.199c-5.1,0.199-10.2,0.1-15.399,0.1c-1.3,0-2.5-0.1-3,1.8
	C294.3,143.9,295.7,145.801,300.6,145.801z"/>
<path id="path84_1_" fill="#FBFBFB" d="M205.899,92c-2.3-0.199-4.6-0.1-6.899-0.1
	c-2.601,0-5.3,0.2-7.9-0.1c-3.399-0.4-3.8,1.3-3.7,4.1c0.101,2.5-0.1,4.5,3.5,4.2c4.9-0.3,10-0.4,14.9,0c4.8,0.399,4.3-2.8,4.6-5.7
	C210.7,90.4,207.6,92.2,205.899,92L205.899,92z"/>
<path id="path86_1_" fill="#FAFAFA" d="M103.8,122.101c-1.9,0.399-4,0.1-6,0.1c-2.7,0-5.3,0.2-8,0
	c-3.3-0.3-2.9,1.8-2.8,3.8c0.1,1.9-1.101,4.5,2.7,4.4c5.5-0.2,10.899-0.1,16.399,0c1.9,0,2.5-0.7,2.601-2.6
	C109.1,124,108.899,121.2,103.8,122.101z"/>
<path id="path88_1_" fill="#FBFBFB" d="M106.1,106.9c-5.5,0.2-11,0.1-16.399,0
	c-1.9,0-2.5,0.6-2.601,2.6c-0.2,3.7-0.1,6.7,5,5.7c1.9-0.399,4-0.1,6-0.1c2.7,0,5.3-0.2,8,0c3.2,0.3,3-1.8,2.8-3.8
	C108.6,109.5,109.899,106.801,106.1,106.9z"/>
<path id="path90_1_" fill="#FBFBFB" d="M163.2,91.9c-5.5,0.2-11,0-16.4,0.1
	c-1.1,0-2.2-0.199-2.6,1.5c-1.2,4.601,0.199,6.601,5,6.7c2,0,4,0,6,0c2.699,0,5.3-0.2,8,0c3.199,0.3,3-1.8,2.8-3.8
	C165.7,94.5,167.1,91.801,163.2,91.9z"/>
<path id="path92_1_" fill="#FBFBFB" d="M105.8,91.9c-5.3,0.2-10.6,0.1-15.9,0
	c-2.1,0-2.699,0.6-2.899,2.8c-0.4,4.2,0.7,6.3,5.3,5.4c1.8-0.3,3.6-0.101,5.5-0.101c2.7,0,5.3-0.199,8,0.101c3.4,0.3,3.2-1.8,3.1-4
	C108.7,94.101,109.399,91.801,105.8,91.9z"/>
<path id="path94_1_" fill="#FAFAFA" d="M298.5,130.4c5.1-0.2,10.3-0.1,15.399,0c2,0,2.9-0.4,3-2.7
	c0.3-4-0.399-6.5-5.2-5.6c-1.8,0.3-3.6,0.1-5.5,0.1c-2.699,0-5.3,0.101-7.999,0c-3.801-0.2-2.5,2.601-2.7,4.5
	C295.399,128.601,295.2,130.601,298.5,130.4L298.5,130.4z"/>
<path id="path96_1_" fill="#FBFBFB" d="M249.1,122.101c-5.2,0.2-10.3,0.1-15.5,0
	c-2,0-2.899,0.399-3.1,2.7c-0.3,3.899,0.3,6.5,5.2,5.6c1.8-0.3,3.699-0.1,5.5-0.1c2.699,0,5.3-0.101,8,0
	c3.899,0.199,2.5-2.601,2.699-4.4C252.1,124,252.399,122,249.1,122.101L249.1,122.101z"/>
<path id="path98_1_" fill="#F0F0F0" d="M275.7,152.4c-0.601-0.2-1.301,0-2,0c-1,0-2,0.1-3,0
	c-4.801-0.8-4.801,1.2-3.7,5.1c1.399,5,5.1,2.801,8,3.301c5.5,1,5.6-3.5,5.8-6.5C281.1,150.601,277.5,153.101,275.7,152.4
	L275.7,152.4z"/>
<path id="path100_1_" fill="#E3E3E3" d="M271.6,168.101c-0.899,2.8,0.8,5.2,2.101,7.7
	c1-2.601,3.6-4.9,1.899-7.9C275.3,167.4,271.8,167.601,271.6,168.101z"/>
<path id="path102_1_" fill="#019A2D" d="M202,290.801c-1.3,1.5-5.7-2.5-5.7,2.899
	c-0.1,6.8,0,13.7,0,20.5c0,1.2,0,2.2,1.5,2.7c9.5,3.4,19.6-3.9,19.2-14C216.6,294.5,212.399,290.9,202,290.801z"/>
<path id="path104_1_" fill="#029A2D" d="M196.3,275.801c0,1.1-0.3,2.3,1.2,3
	c6.5,3.1,17-2.801,17.5-10c0.6-9.2-2.9-12.7-13.8-12.801c-4.5-1.5-5.2,1.5-4.9,5.9C196.5,266.5,196.3,271.2,196.3,275.801z"/>
<path id="path106_1_" fill="#019A2C" d="M128.3,286c0,9,0,18,0,27c0,1.5-0.7,3.301,1.8,3.9
	c9.5,2.3,17.2-2.2,18.9-12c2.1-11.7,1.899-23.6,0.399-35.3c-1.399-11-5.5-13.7-17-13.7c-3.199,0-4.3,0.7-4.3,4.1
	C128.5,268.7,128.3,277.4,128.3,286L128.3,286z"/>
</svg>
