<?xml version="1.0" encoding="UTF-8" standalone="no"?>
<svg
        xmlns="http://www.w3.org/2000/svg"
        width="18px"
        height="18px"
        viewBox="0 0 18 18"
        version="1.1">
    <path
            d="m 12.069981,10.654427 a 0.2133788,0.2133788 0 0 1 -0.196965,0.221586 H 10.157779 A 0.2133788,0.2133788 0 0 1 9.9361933,10.679048 V 9.3987752 A 0.2133788,0.2133788 0 0 1 10.133158,9.1771895 h 1.715238 a 0.2133788,0.2133788 0 0 1 0.221585,0.1969651 z m 3.044751,1.296687 A 0.2133788,0.2133788 0 0 1 14.917767,12.1727 H 13.20253 a 0.2133788,0.2133788 0 0 1 -0.221585,-0.196966 v -1.272065 a 0.2133788,0.2133788 0 0 1 0.196964,-0.221586 h 1.715238 a 0.2133788,0.2133788 0 0 1 0.221585,0.196965 z m -3.044751,1.3131 A 0.2133788,0.2133788 0 0 1 11.873016,13.4858 H 10.157779 A 0.2133788,0.2133788 0 0 1 9.9361933,13.288835 v -1.280273 a 0.2133788,0.2133788 0 0 1 0.1969647,-0.221586 h 1.715238 a 0.2133788,0.2133788 0 0 1 0.221585,0.196965 z"
            style="fill:#76bc2d;stroke-width:0.82068765"/>
    <path
            d="M 9.02523,9.3577408 A 0.20517192,0.20517192 0 0 1 8.8364718,9.5711196 H 7.0719933 A 0.2133788,0.2133788 0 0 1 6.8504076,9.3823615 V 8.0528474 A 0.2133788,0.2133788 0 0 1 7.0473727,7.8476755 h 1.7152372 c 0.1805513,0 0.2626201,0.090276 0.2626201,0.2215857 z"
            style="fill:#86d633;stroke-width:0.82068765"/>
    <path
            d="M 9.02523,11.951114 A 0.20517192,0.20517192 0 0 1 8.8364718,12.1727 H 7.0719933 A 0.2133788,0.2133788 0 0 1 6.8504076,11.951114 v -1.296687 a 0.2133788,0.2133788 0 0 1 0.1969651,-0.213378 h 1.7152372 c 0.1805513,0 0.2626201,0.09028 0.2626201,0.213378 z m 0,2.617994 A 0.20517192,0.20517192 0 0 1 8.8364718,14.790694 H 7.0719933 A 0.2133788,0.2133788 0 0 1 6.8504076,14.593729 v -1.329515 a 0.20517192,0.20517192 0 0 1 0.1969651,-0.213379 h 1.7152372 c 0.1805513,0 0.2626201,0.08207 0.2626201,0.213379 z"
            style="fill:#76bc2d;stroke-width:0.82068765"/>
    <g
            transform="matrix(0.82068768,0,0,0.82068768,3.1819337,3.7442371)"
            style="fill:#999999">
        <path
                d="m 1.07,1.51 h 1.29 v 3.6 A 0.29,0.29 0 0 1 2.07,5.4 H 0.79 A 0.29,0.29 0 0 1 0.5,5.11 v -3 a 0.57,0.57 0 0 1 0.57,-0.6 z"
        />
        <path
                d="m 1.07,1.51 h 1.29 v 3.6 A 0.29,0.29 0 0 1 2.07,5.4 H 0.79 A 0.29,0.29 0 0 1 0.5,5.11 v -3 a 0.57,0.57 0 0 1 0.57,-0.6 z"
                style="opacity:0.5"/>
    </g>
    <g
            transform="matrix(0.82068768,0,0,0.82068768,3.1819337,3.7442371)"
            style="fill:#999999">
        <path
                d="m 15.64,1.51 h 1.29 a 0.57,0.57 0 0 1 0.57,0.57 v 3 A 0.29,0.29 0 0 1 17.21,5.37 H 15.92 A 0.29,0.29 0 0 1 15.63,5.08 V 1.51 Z"
        />
        <path
                d="m 15.64,1.51 h 1.29 a 0.57,0.57 0 0 1 0.57,0.57 v 3 A 0.29,0.29 0 0 1 17.21,5.37 H 15.92 A 0.29,0.29 0 0 1 15.63,5.08 V 1.51 Z"
                style="opacity:0.5"/>
    </g>
    <path
            d="M 17.543968,5.4512675 V 6.4771271 H 3.5922775 V 5.4512675 a 0.46779198,0.46779198 0 0 1 0.467792,-0.467792 H 17.084383 a 0.46779198,0.46779198 0 0 1 0.459585,0.467792 z"
            style="fill:#949494;stroke-width:0.82068765"/>
    <g
            transform="matrix(0.82068768,0,0,0.82068768,3.1819337,3.7442371)"
            style="fill:#999999">
        <path
                d="m 0.79,12.76 h 1.29 a 0.29,0.29 0 0 1 0.29,0.29 v 3.6 H 1.07 A 0.57,0.57 0 0 1 0.5,16.08 V 13 a 0.29,0.29 0 0 1 0.29,-0.24 z"
        />
        <path
                d="m 0.79,12.76 h 1.29 a 0.29,0.29 0 0 1 0.29,0.29 v 3.6 H 1.07 A 0.57,0.57 0 0 1 0.5,16.08 V 13 a 0.29,0.29 0 0 1 0.29,-0.24 z"
                style="opacity:0.5"/>
    </g>
    <g
            transform="matrix(0.82068768,0,0,0.82068768,3.1819337,3.7442371)"
            style="fill:#999999">
        <path
                d="m 15.92,12.76 h 1.29 a 0.29,0.29 0 0 1 0.29,0.29 v 3 a 0.57,0.57 0 0 1 -0.57,0.57 H 15.64 V 13 a 0.29,0.29 0 0 1 0.28,-0.24 z"
        />
        <path
                d="m 15.92,12.76 h 1.29 a 0.29,0.29 0 0 1 0.29,0.29 v 3 a 0.57,0.57 0 0 1 -0.57,0.57 H 15.64 V 13 a 0.29,0.29 0 0 1 0.28,-0.24 z"
                style="opacity:0.5"/>
    </g>
    <path
            d="M 3.5922775,16.940895 V 15.915036 H 17.543968 v 1.025859 a 0.46779198,0.46779198 0 0 1 -0.467792,0.467792 H 4.0600695 a 0.46779198,0.46779198 0 0 1 -0.467792,-0.467792 z"
            style="fill:#949494;stroke-width:0.82068765"/>
    <g
            transform="matrix(0.46716134,0,0,0.46716134,-0.48418191,-0.68431845)"
    >
        <rect
                style="fill:#3d6380"
                x="4.2020001"
                y="10.417"
                width="7.4809999"
                height="1.2359999"
        />
        <rect
                style="fill:#3d6380"
                x="10.448"
                y="4.171"
                width="1.235"
                height="7.4819999"
        />
        <rect
                style="fill:#3d6380"
                x="1.095"
                y="6.3940001"
                transform="matrix(-0.707,-0.7072,0.7072,-0.707,7.0628,16.9487)"
                width="11.894"
                height="1.234"
        />
    </g>
</svg>
