<?xml version="1.0" encoding="UTF-8" standalone="no"?>
<svg
    xmlns="http://www.w3.org/2000/svg"
    version="1.1"
    viewBox="0 0 18 18"
    height="18px"
    width="18px">
  <path
      style="fill:#76bc2d;stroke-width:0.82068765"
      d="M 9.0086521,6.3000655 A 0.2133788,0.2133788 0 0 1 8.8116871,6.5216511 H 7.0964499 A 0.2133788,0.2133788 0 0 1 6.8748642,6.3246861 V 5.0444133 A 0.2133788,0.2133788 0 0 1 7.0718292,4.8228276 H 8.7870665 A 0.2133788,0.2133788 0 0 1 9.0086521,5.0197927 Z M 12.053403,7.596752 A 0.2133788,0.2133788 0 0 1 11.856438,7.8183377 H 10.141201 A 0.2133788,0.2133788 0 0 1 9.9196155,7.6213726 V 6.3493067 A 0.2133788,0.2133788 0 0 1 10.11658,6.127721 h 1.715238 a 0.2133788,0.2133788 0 0 1 0.221585,0.1969651 z M 9.0086521,8.9098523 A 0.2133788,0.2133788 0 0 1 8.8116871,9.1314377 H 7.0964499 A 0.2133788,0.2133788 0 0 1 6.8748642,8.9344729 V 7.6542001 a 0.2133788,0.2133788 0 0 1 0.196965,-0.2215856 h 1.7152373 a 0.2133788,0.2133788 0 0 1 0.2215856,0.196965 z"
  />
  <path
      style="fill:#86d633;stroke-width:0.82068765"
      d="M 5.9639009,5.0033789 A 0.20517192,0.20517192 0 0 1 5.7751427,5.2167577 H 4.0106642 A 0.2133788,0.2133788 0 0 1 3.7890785,5.0279996 V 3.6984855 A 0.2133788,0.2133788 0 0 1 3.9860436,3.4933136 h 1.7152372 c 0.1805513,0 0.2626201,0.090276 0.2626201,0.2215857 z"
  />
  <path
      style="fill:#76bc2d;stroke-width:0.82068765"
      d="M 5.9639009,7.596752 A 0.20517192,0.20517192 0 0 1 5.7751427,7.8183377 H 4.0106642 A 0.2133788,0.2133788 0 0 1 3.7890785,7.596752 V 6.3000655 A 0.2133788,0.2133788 0 0 1 3.9860436,6.0866867 h 1.7152372 c 0.1805513,0 0.2626201,0.090276 0.2626201,0.2133788 z m 0,2.617994 A 0.20517192,0.20517192 0 0 1 5.7751427,10.436332 H 4.0106642 A 0.2133788,0.2133788 0 0 1 3.7890785,10.239367 V 8.9098523 A 0.20517192,0.20517192 0 0 1 3.9860436,8.6964735 h 1.7152372 c 0.1805513,0 0.2626201,0.082069 0.2626201,0.2133788 z"
  />
  <g
      style="fill:#999999"
      transform="matrix(0.82068768,0,0,0.82068768,0.1206046,-0.61012474)"
  >
    <path
        d="m 1.07,1.51 h 1.29 v 3.6 A 0.29,0.29 0 0 1 2.07,5.4 H 0.79 A 0.29,0.29 0 0 1 0.5,5.11 v -3 a 0.57,0.57 0 0 1 0.57,-0.6 z"
    />
    <path
        style="opacity:0.5"
        d="m 1.07,1.51 h 1.29 v 3.6 A 0.29,0.29 0 0 1 2.07,5.4 H 0.79 A 0.29,0.29 0 0 1 0.5,5.11 v -3 a 0.57,0.57 0 0 1 0.57,-0.6 z"
    />
  </g>
  <g
      style="fill:#999999"
      transform="matrix(0.82068768,0,0,0.82068768,0.1206046,-0.61012474)"
  >
    <path
        d="m 15.64,1.51 h 1.29 a 0.57,0.57 0 0 1 0.57,0.57 v 3 A 0.29,0.29 0 0 1 17.21,5.37 H 15.92 A 0.29,0.29 0 0 1 15.63,5.08 V 1.51 Z"
    />
    <path
        style="opacity:0.5"
        d="m 15.64,1.51 h 1.29 a 0.57,0.57 0 0 1 0.57,0.57 v 3 A 0.29,0.29 0 0 1 17.21,5.37 H 15.92 A 0.29,0.29 0 0 1 15.63,5.08 V 1.51 Z"
    />
  </g>
  <path
      style="fill:#949494;stroke-width:0.82068765"
      d="M 14.482639,1.0969056 V 2.1227652 H 0.53094843 V 1.0969056 A 0.46779198,0.46779198 0 0 1 0.99874041,0.62911365 H 14.023054 a 0.46779198,0.46779198 0 0 1 0.459585,0.46779195 z"
  />
  <g
      style="fill:#999999"
      transform="matrix(0.82068768,0,0,0.82068768,0.1206046,-0.61012474)"
  >
    <path
        d="m 0.79,12.76 h 1.29 a 0.29,0.29 0 0 1 0.29,0.29 v 3.6 H 1.07 A 0.57,0.57 0 0 1 0.5,16.08 V 13 a 0.29,0.29 0 0 1 0.29,-0.24 z"
    />
    <path
        style="opacity:0.5"
        d="m 0.79,12.76 h 1.29 a 0.29,0.29 0 0 1 0.29,0.29 v 3.6 H 1.07 A 0.57,0.57 0 0 1 0.5,16.08 V 13 a 0.29,0.29 0 0 1 0.29,-0.24 z"
    />
  </g>
  <g
      style="fill:#999999"
      transform="matrix(0.82068768,0,0,0.82068768,0.1206046,-0.61012474)"
  >
    <path
        d="m 15.92,12.76 h 1.29 a 0.29,0.29 0 0 1 0.29,0.29 v 3 a 0.57,0.57 0 0 1 -0.57,0.57 H 15.64 V 13 a 0.29,0.29 0 0 1 0.28,-0.24 z"
    />
    <path
        style="opacity:0.5"
        d="m 15.92,12.76 h 1.29 a 0.29,0.29 0 0 1 0.29,0.29 v 3 a 0.57,0.57 0 0 1 -0.57,0.57 H 15.64 V 13 a 0.29,0.29 0 0 1 0.28,-0.24 z"
    />
  </g>
  <path
      style="fill:#949494;stroke-width:0.82068765"
      d="M 0.53094843,12.586533 V 11.560674 H 14.482639 v 1.025859 a 0.46779198,0.46779198 0 0 1 -0.467792,0.467792 H 0.99874041 A 0.46779198,0.46779198 0 0 1 0.53094843,12.586533 Z"
  />
  <g
      transform="matrix(0.46716134,0,0,0.46716134,11.558769,12.182621)">
    <rect
        height="1.2359999"
        width="7.4809999"
        y="10.417"
        x="4.2020001"
        style="fill:#3d6380"/>
    <rect
        height="7.4819999"
        width="1.235"
        y="4.171"
        x="10.448"
        style="fill:#3d6380"/>
    <rect
        height="1.234"
        width="11.894"
        transform="matrix(-0.707,-0.7072,0.7072,-0.707,7.0628,16.9487)"
        y="6.3940001"
        x="1.095"
        style="fill:#3d6380"/>
  </g>
</svg>
