<?xml version="1.0" encoding="UTF-8" standalone="no"?>
<svg
    xmlns="http://www.w3.org/2000/svg"
    version="1.1"
    viewBox="0 0 123.25144 120.43477"
    height="120.43477"
    width="123.25144"
>
  <g transform="translate(193.94689,36.979609)">
    <g
        transform="matrix(3.3668251,0,0,3.2438194,-210.54422,-54.102889)">
      <polygon
          points="37.929,29.326 31.007,36.249 28.675,33.917 27.332,35.261 31.007,38.935 39.273,30.67 "
          style="fill:#0cb20f"/>
      <polygon
          points="13.496,10.447 13.496,18.608 21.351,26.487 29.003,18.86 29.003,10.447 "
          style="fill:#eff9fe"/>
      <polygon
          points="32.62,16.383 21.349,27.619 10.08,16.314 10.08,31.272 25.292,31.272 32.62,23.945 "
          style="fill:#ffffff"/>
      <path
          d="M 10.08,16.314 21.349,27.619 32.62,16.383 v 7.562 l 1.7,-1.7 v -7.328 -0.6 H 30.703 V 8.748 H 11.796 v 5.569 H 8.38 v 0.6 18.056 h 15.212 l 1.7,-1.7 H 10.08 Z m 3.416,-5.867 h 15.507 v 8.413 l -7.651,7.627 -7.855,-7.879 v -8.161 z"
          style="fill:#3d6480"/>
    </g>
  </g>
</svg>
