<?xml version="1.0" encoding="UTF-8" standalone="no"?>
<svg
    xmlns:dc="http://purl.org/dc/elements/1.1/"
    xmlns:cc="http://creativecommons.org/ns#"
    xmlns:rdf="http://www.w3.org/1999/02/22-rdf-syntax-ns#"
    xmlns="http://www.w3.org/2000/svg"
    id="svg3395"
    xml:space="preserve"
    enable-background="new 0 0 16 16"
    viewBox="0 0 16 16"
    y="0px"
    x="0px"
    version="1.1"><metadata
     id="metadata3414"><rdf:RDF><cc:Work
         rdf:about=""><dc:format>image/svg+xml</dc:format><dc:type
    rdf:resource="http://purl.org/dc/dcmitype/StillImage"/><dc:title></dc:title></cc:Work></rdf:RDF></metadata>
  <defs
      id="defs3412"/>
  <g
      id="Layer_2"><g
       id="Layer_2_1_"><rect
         id="rect3399"
         height="16"
         width="16"
         fill="none" /></g></g>
  <path
      id="path4266"
      d="M 7.5441675,15.966405 C 6.9225668,15.916227 6.5059687,15.850173 6.0193204,15.724631 3.3003569,15.023214 1.1197471,12.912611 0.3322315,10.220122 0.222113,9.8436308 0.1294469,9.4041068 0.069493,8.9739301 0.0162249,8.5917256 0.0091598,7.4913548 0.0575089,7.1074611 0.25308,5.5546194 0.8151421,4.210025 1.7733713,3.0026845 2.0179939,2.6944673 2.539389,2.1595393 2.8477114,1.9004594 3.8549605,1.0540798 5.0160198,0.47446197 6.2687269,0.19263819 6.8994242,0.05074909 7.1920563,0.0218927 8.0002538,0.0218927 c 0.809651,0 1.1005685,0.0287925 1.7364672,0.17186067 2.122648,0.4775656 3.986311,1.82805853 5.118067,3.70877703 0.570728,0.9484201 0.941571,2.0406011 1.088211,3.2049307 0.04776,0.3792049 0.04059,1.4561146 -0.01234,1.8543251 -0.240093,1.8062878 -1.015846,3.3881378 -2.283234,4.6557828 -1.390781,1.391064 -3.122091,2.18712 -5.0898915,2.340333 -0.2953839,0.023 -0.7831058,0.02709 -1.013369,0.0085 z M 8.3823801,13.98534 C 9.2396624,13.924198 10.003089,13.71105 10.74539,13.325589 13.635825,11.82465 14.817392,8.3434039 13.427601,5.4230038 12.846272,4.2014454 11.865031,3.2068393 10.650485,2.6080646 10.046302,2.3102004 9.5086317,2.1401259 8.8507931,2.0387903 c -0.4147528,-0.06389 -1.2863258,-0.06389 -1.7010786,0 C 6.4918759,2.1401259 5.9542061,2.3102004 5.3500227,2.6080646 2.6633054,3.9326245 1.359818,7.022505 2.2923023,9.8563058 3.050443,12.16028 5.1572885,13.81007 7.5627233,13.98337 c 0.4020623,0.02897 0.4398506,0.02906 0.8196568,0.002 z"
      style="fill:#0cb20f;fill-opacity:1;stroke:none;stroke-width:0.00246533;stroke-miterlimit:4;stroke-dasharray:none;stroke-opacity:1"/>
  <path
      style="fill:#0cb20f;fill-opacity:1"
      id="path11"
      d="m 8.9899495,3.7573592 -1.979899,0 c -0.1414214,0 -0.2828427,0.1414214 -0.3535533,0.3535533 l 0.070711,2.6162951 -2.6162951,-0.070711 c -0.212132,0.070711 -0.3535534,0.212132 -0.3535534,0.3535534 l 0,1.979899 c 0,0.1414213 0.1414214,0.2828427 0.3535534,0.3535533 l 2.6162951,-0.070711 -0.070711,2.616295 c 0,0.141421 0.1414214,0.282843 0.3535534,0.353554 l 1.979899,0 c 0.1414214,0 0.2828427,-0.141422 0.3535534,-0.353554 l -0.070711,-2.616295 2.5455846,10e-8 c 0.141421,0 0.282842,-0.1414212 0.353553,-0.3535532 l 0,-1.979899 c 0,-0.1414214 -0.141421,-0.2828428 -0.353553,-0.3535535 l -2.5455847,0.1414212 -1e-7,-2.5455843 c 0,-0.2828427 -0.1414214,-0.4242641 -0.2828427,-0.4242641 z"/>
  <path
      id="path4333"
      d="M 7.4847458,13.96929 C 6.0585625,13.821448 4.8258101,13.24756 3.8151441,12.260965 3.3079901,11.76589 2.9325307,11.245061 2.6139202,10.594652 2.0338666,9.4105354 1.8652572,8.1195161 2.1229059,6.8350218 2.5575246,4.6682527 4.0990778,2.9536358 6.2307343,2.2660249 6.8014523,2.0819276 7.3411891,2.0025442 8.014792,2.0036291 c 0.6832328,0.0011 1.2245266,0.085167 1.8147326,0.2818397 1.5314904,0.5103347 2.7886334,1.5811934 3.5031684,2.9840676 0.453428,0.8902311 0.655126,1.7252354 0.655059,2.7118644 -5e-5,0.6997833 -0.08739,1.2446787 -0.304286,1.8983051 -0.503287,1.5166901 -1.604285,2.7692991 -3.066525,3.4887961 -0.577956,0.284384 -1.1122862,0.453712 -1.7516097,0.555081 -0.2372092,0.03761 -1.163006,0.06826 -1.3805855,0.04571 z m 1.6130796,-1.746634 c 0.03839,-0.01985 0.096899,-0.0683 0.1300213,-0.107665 0.1293229,-0.153691 0.1274783,-0.122498 0.090667,-1.533336 l -0.034076,-1.3060011 1.3037154,2.29e-5 c 1.487264,2.47e-5 1.401605,0.012277 1.52716,-0.2184108 l 0.06589,-0.1210586 0,-1.0346204 c 0,-1.0330789 -7.4e-5,-1.0347432 -0.05565,-1.1171918 -0.03061,-0.045414 -0.111036,-0.1112286 -0.178736,-0.1462545 l -0.123092,-0.063683 -1.183359,0.067026 c -0.6508476,0.036864 -1.2249617,0.067756 -1.2758091,0.068649 l -0.09245,0.00162 0,-1.3443974 c 0,-1.4586158 4.662e-4,-1.4532646 -0.1359305,-1.5605542 -0.067319,-0.052953 -0.07777,-0.053446 -1.1333942,-0.053446 l -1.0654483,0 -0.083769,0.056164 c -0.046073,0.03089 -0.1122172,0.1113216 -0.1469875,0.1787365 l -0.063218,0.1225726 0.035317,1.2893298 c 0.019424,0.7091316 0.029186,1.2954606 0.021693,1.3029537 -0.00749,0.00749 -0.4719788,0.00119 -1.0321903,-0.014004 -1.7392928,-0.047178 -1.59377,-0.049695 -1.7159162,0.029682 -0.2100799,0.1365209 -0.2022999,0.087187 -0.2024042,1.2834586 -1.036e-4,1.1821473 -0.00817,1.1257693 0.1803935,1.2609523 0.1340371,0.096093 0.1584556,0.096918 1.6068795,0.054298 0.6372881,-0.018752 1.1627907,-0.030819 1.1677835,-0.026816 0.00499,0.004 -0.00649,0.5874776 -0.02552,1.2966087 -0.019029,0.709132 -0.025744,1.324016 -0.014923,1.36641 0.023087,0.09045 0.1186177,0.192547 0.240449,0.256983 0.080446,0.04255 0.1608034,0.04596 1.1049292,0.04697 0.8472754,9.07e-4 1.0298889,-0.005 1.0879724,-0.035 z"
      style="fill:#ffffff;fill-opacity:1;stroke:none;stroke-width:0.1;stroke-miterlimit:4;stroke-dasharray:none;stroke-opacity:1"/></svg>