<?xml version="1.0" encoding="UTF-8" standalone="no"?>
<svg
    xmlns:dc="http://purl.org/dc/elements/1.1/"
    xmlns:cc="http://creativecommons.org/ns#"
    xmlns:rdf="http://www.w3.org/1999/02/22-rdf-syntax-ns#"
    xmlns="http://www.w3.org/2000/svg"
    version="1.1"
    x="0px"
    y="0px"
    viewBox="0 0 16 16"
    enable-background="new 0 0 16 16"
    xml:space="preserve"
    id="svg3395"><metadata
     id="metadata3414"><rdf:RDF><cc:Work
         rdf:about=""><dc:format>image/svg+xml</dc:format><dc:type
    rdf:resource="http://purl.org/dc/dcmitype/StillImage"/><dc:title></dc:title></cc:Work></rdf:RDF></metadata>
  <defs
      id="defs3412"/>
  <g
      style="fill:none;stroke:none;stroke-opacity:1"
      id="Layer_2"><g
       style="fill:none;stroke:none;stroke-opacity:1"
       id="Layer_2_1_"><rect
         style="fill:none;stroke:none;stroke-opacity:1"
         fill="none"
         width="16"
         height="16"
         id="rect3399" /></g></g>
  <circle
      r="2.5"
      cy="3.5"
      cx="3.5"
      id="path4230"
      style="fill:none;fill-opacity:1;stroke:#3d6380;stroke-width:2;stroke-miterlimit:4;stroke-dasharray:none;stroke-opacity:1"/>
  <circle
      style="fill:none;fill-opacity:1;stroke:#3d6380;stroke-width:2;stroke-miterlimit:4;stroke-dasharray:none;stroke-opacity:1"
      id="circle4235"
      cx="3.5"
      cy="12.5"
      r="2.5"/>
  <circle
      r="2.5"
      cy="8.5158167"
      cx="12.5"
      id="circle4237"
      style="fill:none;fill-opacity:1;stroke:#3d6380;stroke-width:2;stroke-miterlimit:4;stroke-dasharray:none;stroke-opacity:1"/>
  <path
      id="path4243"
      d="m 3.5,4.9701937 c 0,6.0000003 0,6.0000003 0,6.0000003 l 0,0"
      style="fill:none;fill-rule:evenodd;stroke:#3d6380;stroke-width:2;stroke-linecap:butt;stroke-linejoin:miter;stroke-miterlimit:4;stroke-dasharray:none;stroke-opacity:1"/>
  <path
      id="path4257"
      d="m 5,12 c 4,0 6,-2 6,-2"
      style="fill:none;fill-rule:evenodd;stroke:#3d6380;stroke-width:2;stroke-linecap:butt;stroke-linejoin:miter;stroke-opacity:1;stroke-miterlimit:4;stroke-dasharray:none"/>
  <path
      id="path4141"
      d="M 2.8750101,4.83184 C 2.561256,4.6828448 2.3093469,4.4273512 2.1546186,4.101198 2.0458581,3.8719408 2.0305774,3.7971312 2.0312724,3.4973333 2.0323037,3.0524728 2.1620215,2.7477698 2.4773258,2.4495681 2.800113,2.1442895 3.0757084,2.0316863 3.4990037,2.0321294 3.786166,2.0324301 3.8807138,2.0503858 4.0869495,2.1437873 4.3980364,2.2846745 4.7072783,2.5946747 4.8548766,2.9135974 4.9491934,3.1173922 4.9667322,3.2086239 4.9670964,3.4973333 4.9674749,3.7978468 4.9521139,3.8721714 4.8409671,4.107584 4.6866734,4.4343834 4.4440079,4.6791353 4.1229973,4.8317269 3.9100067,4.9329714 3.8362388,4.9465451 3.4990037,4.9465451 c -0.3370912,0 -0.4110938,-0.013603 -0.6239936,-0.1147051 z"
      style="fill:#ffffff;fill-opacity:1;stroke:none;stroke-width:1;stroke-miterlimit:4;stroke-dasharray:none;stroke-opacity:1"/>
  <path
      id="path4143"
      d="M 3.0498967,13.910515 C 2.289671,13.627081 1.877696,12.890469 2.0667278,12.152605 c 0.1178304,-0.459936 0.4149544,-0.814213 0.8517469,-1.015583 0.2848515,-0.131322 0.8762064,-0.131322 1.161058,0 0.9627554,0.443849 1.2018597,1.658466 0.4696873,2.385949 -0.317573,0.315539 -0.5396331,0.41172 -0.9898298,0.428727 -0.2385252,0.009 -0.4126041,-0.0051 -0.5094935,-0.04118 z"
      style="fill:#ffffff;fill-opacity:1;stroke:none;stroke-width:1;stroke-miterlimit:4;stroke-dasharray:none;stroke-opacity:1"/>
  <path
      id="path4145"
      d="M 11.98445,9.9026308 C 10.74926,9.4074902 10.701086,7.731986 11.905801,7.167237 c 0.197172,-0.09243 0.280858,-0.1070958 0.610916,-0.107058 0.342678,3.92e-5 0.406584,0.012263 0.614559,0.1175494 0.27655,0.1400021 0.603903,0.4727024 0.725993,0.7378512 0.07188,0.1560997 0.08811,0.2652528 0.08833,0.593831 2.34e-4,0.3524866 -0.01311,0.4311102 -0.107231,0.6319041 -0.13726,0.2928279 -0.417609,0.5730006 -0.709876,0.7094308 C 12.822191,9.993727 12.27375,10.0186 11.98445,9.9026308 Z"
      style="fill:#ffffff;fill-opacity:1;stroke:none;stroke-width:1;stroke-miterlimit:4;stroke-dasharray:none;stroke-opacity:1"/></svg>