<?xml version="1.0" encoding="UTF-8" standalone="no"?>
<svg
    xmlns:dc="http://purl.org/dc/elements/1.1/"
    xmlns:cc="http://creativecommons.org/ns#"
    xmlns:rdf="http://www.w3.org/1999/02/22-rdf-syntax-ns#"
    xmlns="http://www.w3.org/2000/svg"
    version="1.1"
    x="0px"
    y="0px"
    viewBox="0 0 16 16"
    enable-background="new 0 0 16 16"
    xml:space="preserve"
    id="svg3395"><metadata
     id="metadata3414"><rdf:RDF><cc:Work
         rdf:about=""><dc:format>image/svg+xml</dc:format><dc:type
    rdf:resource="http://purl.org/dc/dcmitype/StillImage"/><dc:title></dc:title></cc:Work></rdf:RDF></metadata>
  <defs
      id="defs3412"/>
  <g
      id="Layer_2"><g
       id="Layer_2_1_"><rect
         fill="none"
         width="16"
         height="16"
         id="rect3399" /></g></g>
  <path
      style="fill:#ffcc00;fill-opacity:1;stroke:none;stroke-width:0.00246533;stroke-miterlimit:4;stroke-dasharray:none;stroke-opacity:1"
      d="M 7.5441675,15.966405 C 6.9225668,15.916227 6.5059687,15.850173 6.0193204,15.724631 3.3003569,15.023214 1.1197471,12.912611 0.3322315,10.220122 0.222113,9.8436308 0.1294469,9.4041068 0.069493,8.9739301 0.0162249,8.5917256 0.0091598,7.4913548 0.0575089,7.1074611 0.25308,5.5546194 0.8151421,4.210025 1.7733713,3.0026845 2.0179939,2.6944673 2.539389,2.1595393 2.8477114,1.9004594 3.8549605,1.0540798 5.0160198,0.47446197 6.2687269,0.19263819 6.8994242,0.05074909 7.1920563,0.0218927 8.0002538,0.0218927 c 0.809651,0 1.1005685,0.0287925 1.7364672,0.17186067 2.122648,0.4775656 3.986311,1.82805853 5.118067,3.70877703 0.570728,0.9484201 0.941571,2.0406011 1.088211,3.2049307 0.04776,0.3792049 0.04059,1.4561146 -0.01234,1.8543251 -0.240093,1.8062878 -1.015846,3.3881378 -2.283234,4.6557828 -1.390781,1.391064 -3.122091,2.18712 -5.0898915,2.340333 -0.2953839,0.023 -0.7831058,0.02709 -1.013369,0.0085 z M 8.3823801,13.98534 C 9.2396624,13.924198 10.003089,13.71105 10.74539,13.325589 13.635825,11.82465 14.817392,8.3434039 13.427601,5.4230038 12.846272,4.2014454 11.865031,3.2068393 10.650485,2.6080646 10.046302,2.3102004 9.5086317,2.1401259 8.8507931,2.0387903 c -0.4147528,-0.06389 -1.2863258,-0.06389 -1.7010786,0 C 6.4918759,2.1401259 5.9542061,2.3102004 5.3500227,2.6080646 2.6633054,3.9326245 1.359818,7.022505 2.2923023,9.8563058 3.050443,12.16028 5.1572885,13.81007 7.5627233,13.98337 c 0.4020623,0.02897 0.4398506,0.02906 0.8196568,0.002 z"
      id="path4266"/>
  <g
      id="g4310"
      transform="translate(0.07396007,0)"
      style="stroke:none"><circle
       r="1.1587057"
       cy="8"
       cx="4.9060092"
       id="path4304"
       style="fill:#ffcc00;fill-opacity:1;stroke:none;stroke-width:0.1;stroke-miterlimit:4;stroke-dasharray:none;stroke-opacity:1" />
    <circle
        style="fill:#ffcc00;fill-opacity:1;stroke:none;stroke-width:0.1;stroke-miterlimit:4;stroke-dasharray:none;stroke-opacity:1"
        id="circle4306"
        cx="7.9260397"
        cy="8"
        r="1.1587057"/>
    <circle
        r="1.1587057"
        cy="8"
        cx="10.946071"
        id="circle4308"
        style="fill:#ffcc00;fill-opacity:1;stroke:none;stroke-width:0.1;stroke-miterlimit:4;stroke-dasharray:none;stroke-opacity:1"/></g>
  <path
      style="fill:#ffffff;fill-opacity:1;stroke:none;stroke-width:0.1;stroke-miterlimit:4;stroke-dasharray:none;stroke-opacity:1"
      d="M 7.2840131,13.94727 C 6.2535145,13.816289 5.2594739,13.413497 4.4178737,12.785889 4.0895891,12.541077 3.565649,12.031012 3.3023263,11.699883 2.6454332,10.873839 2.2246646,9.8944402 2.0596111,8.8072868 2.0057878,8.4527704 1.9991392,7.5975559 2.0475366,7.2541281 2.2421945,5.872834 2.8068947,4.7249462 3.76431,3.7643768 4.6432681,2.8825232 5.7732369,2.2932944 7.0064715,2.0737328 7.3688296,2.0092197 8.1998358,1.9842016 8.6185497,2.0252 9.9222203,2.152849 11.22047,2.7669892 12.181645,3.7107313 c 1.741101,1.7095212 2.278529,4.2055614 1.393636,6.4726227 -0.699571,1.792274 -2.311517,3.191491 -4.1897648,3.636839 -0.4645402,0.110147 -0.7357988,0.1421 -1.2942989,0.152466 -0.3677769,0.0068 -0.6148958,-9.46e-4 -0.8072042,-0.02539 z M 5.1574731,9.1517256 C 5.2456087,9.1379819 5.3962157,9.0884933 5.4921553,9.0417507 6.2098448,8.6920871 6.3666177,7.7443822 5.8004315,7.1781959 5.4430948,6.8208592 4.9153992,6.735342 4.4519968,6.9596714 4.2622242,7.0515388 4.0340418,7.2852051 3.9369224,7.4871243 3.5934909,8.2011479 4.0180297,9.0194123 4.8,9.1506367 c 0.1726385,0.028971 0.1785546,0.028989 0.3574731,0.00109 l 0,-8e-7 z M 8.3833859,9.1001046 C 8.9300443,8.9122088 9.2590117,8.338652 9.1418929,7.7776432 8.9498251,6.8576225 7.8394231,6.5195849 7.1789421,7.1800656 6.7243989,7.6346088 6.7173099,8.3237949 7.1622849,8.7994747 7.4751443,9.1339222 7.9470117,9.2500941 8.3833859,9.1001046 Z m 2.8141491,0.051621 c 0.08813,-0.013744 0.238742,-0.063232 0.334682,-0.1099749 0.717689,-0.3496636 0.874462,-1.2973685 0.308276,-1.8635548 -0.357337,-0.3573367 -0.885032,-0.4428539 -1.348435,-0.2185245 -0.189772,0.091867 -0.417955,0.3255337 -0.5150738,0.5274529 -0.3434318,0.7140236 0.081107,1.532288 0.8630778,1.6635124 0.172638,0.028971 0.178554,0.028989 0.357473,0.00109 l 0,-8e-7 z"
      id="path4213"/></svg>