<svg xmlns="http://www.w3.org/2000/svg" width="16" height="16" viewBox="0 0 16 16">
   <circle fill="#0E3A5A" cx="8.5" cy="10.5" r="3.5"/>
   <circle stroke="#0E3A5A" stroke-width="1" fill="none" cx="4" cy="10.5" r="3"/>
   <path fill="#0E3A5A" d="M3.12453459,6.60569924 C4.08941797,3.06318103 7.16510139,0.473039399 10.8101589,0.473039399 C11.1886965,0.473039399 11.5610935,0.500973368 11.9256235,0.555007027 C11.9584475,0.538684886 11.9914183,0.52249794 12.0245342,0.506447349 L12.0245342,1.6414425 C10.0593013,2.71905844 8.80739551,4.34675764 8.80739551,6.16801624 C8.80739551,6.59410638 8.87591772,7.00960219 9.00606549,7.40993826 L7.84334276,7.40993826 C7.75586976,7.03756883 7.71037584,6.65530103 7.71037584,6.26559527 C7.71037584,4.4850561 8.66006782,2.85978565 10.2242163,1.62444872 C7.19081178,1.89909099 4.71822556,4.28650836 4.08988039,7.40993826 L3.12453459,7.40993826 L3.12453459,6.60569924 Z"/>
</svg>
