<svg xmlns="http://www.w3.org/2000/svg" width="24" height="24" viewBox="0 0 24 24">
   <path fill="#0E3A5A" d="M5.65,7.1C5.217,7.666,4.867,8.278,4.6,8.938C4.333,9.596,4.15,10.283,4.05,11H2c0.1-0.983,0.342-1.925,0.725-2.825
	C3.108,7.275,3.617,6.45,4.25,5.7L5.65,7.1z M4.05,13c0.1,0.716,0.284,1.403,0.55,2.063c0.267,0.658,0.617,1.271,1.05,1.838
	L4.25,18.3c-0.633-0.75-1.133-1.575-1.5-2.475C2.383,14.925,2.133,13.983,2,13H4.05z M10.95,4.05C10.233,4.15,9.55,4.342,8.9,4.625
	S7.633,5.267,7.05,5.7l-1.4-1.45c0.768-0.617,1.597-1.113,2.488-1.488C9.029,2.387,9.967,2.15,10.95,2.05V4.05z M7.1,18.3
	c0.567,0.434,1.18,0.792,1.838,1.075S10.283,19.85,11,19.95v2c-0.983-0.1-1.925-0.337-2.825-0.712
	c-0.9-0.375-1.742-0.871-2.525-1.488L7.1,18.3 M12.95,2.05c1.001,0.101,1.954,0.333,2.862,0.7s1.754,0.867,2.537,1.5L16.9,5.7
	c-0.583-0.45-1.203-0.813-1.862-1.089C14.379,4.338,13.684,4.15,12.95,4.05V2.05 M18.35,19.75c-0.766,0.616-1.604,1.111-2.512,1.486
	C14.93,21.612,13.983,21.85,13,21.95v-2c0.717-0.101,1.408-0.292,2.075-0.575s1.292-0.642,1.875-1.075L18.35,19.75z M19.75,5.7
	c0.633,0.75,1.133,1.575,1.5,2.475c0.367,0.9,0.617,1.842,0.75,2.825h-2.05c-0.101-0.717-0.284-1.404-0.55-2.063
	C19.133,8.279,18.783,7.666,18.35,7.1L19.75,5.7 M22,13c-0.1,0.983-0.342,1.925-0.725,2.825c-0.384,0.899-0.893,1.725-1.525,2.475
	l-1.4-1.399c0.434-0.568,0.783-1.18,1.051-1.838c0.266-0.658,0.449-1.346,0.55-2.063H22z M13.025,7v6.175L15.6,10.6l1.426,1.4l-5,5
	l-5-5l1.4-1.425l2.6,2.6V7H13.025z"/>
</svg>
