<?xml version="1.0" encoding="UTF-8" standalone="no"?>
<svg
   xmlns:svg="http://www.w3.org/2000/svg"
   xmlns="http://www.w3.org/2000/svg"
   version="1.1"
   x="0px"
   y="0px"
   width="97px"
   height="97px"
   viewBox="0 0 97 97"
   enable-background="new 0 0 97 97">
  <g
     transform="matrix(0.84298576,0,0,0.84298576,0.40113214,0.40160318)">
    <path
       d="M 92.71,44.408 52.591,4.291 c -2.31,-2.311 -6.057,-2.311 -8.369,0 l -8.33,8.332 10.567,10.567 c 2.456,-0.83 5.272,-0.273 7.229,1.685 1.969,1.97 2.521,4.81 1.67,7.275 l 10.186,10.185 c 2.465,-0.85 5.307,-0.3 7.275,1.671 2.75,2.75 2.75,7.206 0,9.958 -2.752,2.751 -7.208,2.751 -9.961,0 -2.068,-2.07 -2.58,-5.11 -1.531,-7.658 l -9.5,-9.499 v 24.997 c 0.67,0.332 1.303,0.774 1.861,1.332 2.75,2.75 2.75,7.206 0,9.959 -2.75,2.749 -7.209,2.749 -9.957,0 -2.75,-2.754 -2.75,-7.21 0,-9.959 0.68,-0.679 1.467,-1.193 2.307,-1.537 v -25.23 c -0.84,-0.344 -1.625,-0.853 -2.307,-1.537 -2.083,-2.082 -2.584,-5.14 -1.516,-7.698 L 31.798,16.715 4.288,44.222 c -2.311,2.313 -2.311,6.06 0,8.371 l 40.121,40.118 c 2.31,2.311 6.056,2.311 8.369,0 L 92.71,52.779 c 2.311,-2.311 2.311,-6.06 0,-8.371 z"
       style="fill:#f05133" />
  </g>
  <path
     style="fill:#0e3a5a;fill-opacity:1;stroke-width:0.09796388"
     d="m 71.997331,62.049674 c -7.290474,0 -13.742375,3.516119 -17.8069,8.930389 L 46.74733,63.535296 v 23.767021 h 23.767022 l -8.085939,-8.084961 c 2.148445,-6.516559 8.275011,-11.224703 15.510621,-11.224703 9.028354,0 16.3394,7.316924 16.3394,16.340376 9e-6,-12.307204 -9.974684,-22.281887 -22.279929,-22.281887" />
</svg>
