<?xml version="1.0" encoding="utf-8"?>
<svg version="1.1" id="Layer_1" xmlns="http://www.w3.org/2000/svg" xmlns:xlink="http://www.w3.org/1999/xlink" x="0px" y="0px"
	 width="97px" height="97px" viewBox="0 0 97 97" enable-background="new 0 0 97 97" xml:space="preserve">
<g transform="matrix(0.84298576,0,0,0.84298576,0.40113214,0.40160318)">
	<path fill="#F05133" d="M92.71,44.408L52.591,4.291c-2.31-2.311-6.057-2.311-8.369,0l-8.33,8.332L46.459,23.19
		c2.456-0.829,5.272-0.273,7.229,1.686c1.969,1.97,2.521,4.81,1.67,7.275l10.187,10.185c2.465-0.85,5.306-0.3,7.275,1.671
		c2.749,2.75,2.749,7.206,0,9.958c-2.752,2.751-7.208,2.751-9.962,0c-2.068-2.07-2.58-5.11-1.53-7.658l-9.501-9.499v24.998
		c0.67,0.331,1.303,0.774,1.861,1.332c2.75,2.749,2.75,7.206,0,9.958c-2.75,2.749-7.208,2.749-9.957,0
		c-2.75-2.754-2.75-7.21,0-9.958c0.68-0.68,1.467-1.193,2.307-1.538V36.369c-0.84-0.344-1.625-0.853-2.307-1.537
		c-2.083-2.082-2.584-5.14-1.516-7.698L31.798,16.715L4.288,44.222c-2.311,2.313-2.311,6.06,0,8.371l40.121,40.118
		c2.31,2.311,6.056,2.311,8.369,0L92.71,52.779C95.02,50.468,95.02,46.719,92.71,44.408z"/>
</g>
<g transform="matrix(1.1836353,0,0,1.1836353,57.486934,57.295456)">
	<polygon fill="#0E3A5A" points="18.2,32 18.2,18.2 32,18.2 32,13.8 18.2,13.8 18.2,0 13.8,0 13.8,13.8 -0.001,13.8 -0.001,18.2 
		13.8,18.2 13.8,32 	"/>
</g>
</svg>
