<?xml version="1.0" encoding="UTF-8" standalone="no"?>
<svg
        xmlns="http://www.w3.org/2000/svg"
        version="1.1"
        x="0px"
        y="0px"
        width="97px"
        height="97px"
        viewBox="0 0 97 97"
        enable-background="new 0 0 97 97">
    <path
            fill="#F05133"
            d="M92.71,44.408L52.591,4.291c-2.31-2.311-6.057-2.311-8.369,0l-8.33,8.332L46.459,23.19   c2.456-0.83,5.272-0.273,7.229,1.685c1.969,1.97,2.521,4.81,1.67,7.275l10.186,10.185c2.465-0.85,5.307-0.3,7.275,1.671   c2.75,2.75,2.75,7.206,0,9.958c-2.752,2.751-7.208,2.751-9.961,0c-2.068-2.07-2.58-5.11-1.531-7.658l-9.5-9.499v24.997   c0.67,0.332,1.303,0.774,1.861,1.332c2.75,2.75,2.75,7.206,0,9.959c-2.75,2.749-7.209,2.749-9.957,0c-2.75-2.754-2.75-7.21,0-9.959   c0.68-0.679,1.467-1.193,2.307-1.537V36.369c-0.84-0.344-1.625-0.853-2.307-1.537c-2.083-2.082-2.584-5.14-1.516-7.698   L31.798,16.715L4.288,44.222c-2.311,2.313-2.311,6.06,0,8.371l40.121,40.118c2.31,2.311,6.056,2.311,8.369,0L92.71,52.779   C95.021,50.468,95.021,46.719,92.71,44.408z"/>
    <g
            transform="matrix(1.5008466,0,0,1.5008466,-47.384225,-47.353098)"
    >
        <circle
                style="fill:#005ca7;fill-opacity:1;stroke-width:2.19102311;stroke-linecap:round;stroke-linejoin:round"
                cx="80.112579"
                cy="80.05043"
                r="14.495687"
        />
        <path
                d="m 78.524952,72.286843 v -1.797157 h 1.888673 1.888677 V 72.286843 74.084 h -1.888677 -1.888673 z"
                style="fill:#ffffff;fill-opacity:1;stroke:none;stroke-width:0.05088682;stroke-linecap:round;stroke-linejoin:round;stroke-miterlimit:4;stroke-dasharray:none;paint-order:markers fill stroke"
        />
        <path
                style="fill:#ffffff;stroke-width:0.01490374;stroke-linecap:round;stroke-linejoin:round"
                d="m 76.720625,89.212664 c -0.120851,-0.03767 -0.250079,-0.176448 -0.284522,-0.30558 -0.01735,-0.06484 -0.02933,-0.684526 -0.02943,-1.514694 -1.64e-4,-1.396007 2.61e-4,-1.405823 0.06649,-1.541903 0.12688,-0.26073 0.125634,-0.260472 1.318165,-0.270961 l 1.044165,-0.0093 v -2.525944 -2.526 l -1.044169,-0.01218 c -0.898646,-0.01058 -1.063189,-0.01955 -1.180616,-0.06549 -0.148659,-0.05817 -0.313968,-0.207814 -0.35561,-0.321891 -0.0145,-0.03966 -0.02634,-0.700195 -0.02634,-1.467835 v -1.395679 l 0.07636,-0.159593 c 0.08247,-0.172352 0.187538,-0.279334 0.379329,-0.386199 l 0.121938,-0.06794 h 2.591909 c 2.538624,0 2.593964,0.0012 2.692479,0.06171 0.129403,0.07939 0.20755,0.19006 0.241329,0.341764 0.01539,0.06938 0.02725,1.875427 0.02764,4.232083 l 7.06e-4,4.111064 h 1.015674 c 0.994891,0 1.018342,0.0014 1.146123,0.06939 0.08879,0.04723 0.149904,0.108833 0.191415,0.192836 0.05914,0.119734 0.06096,0.169491 0.06096,1.666023 0,1.496544 -0.0019,1.546301 -0.06096,1.666024 -0.04152,0.084 -0.102614,0.145555 -0.191415,0.192833 l -0.130447,0.06939 -3.792706,-0.0028 c -2.085988,-0.0014 -3.831304,-0.01486 -3.878479,-0.0294 z"
        />
    </g>
</svg>
