<?xml version="1.0" encoding="utf-8"?>
<svg version="1.1" xmlns="http://www.w3.org/2000/svg" width="24px" height="24px" viewBox="0 0 800 800" enable-background="new 0 0 800 800" xml:space="preserve">
<path fill="#0E3A5A" d="M700,350H593.75c-27.566-106.962-136.622-171.326-243.584-143.76
	C279.648,224.414,224.58,279.481,206.406,350H100c-27.614,0-50,22.386-50,50s22.386,50,50,50h106.328
	c27.481,106.983,136.487,171.433,243.471,143.951C520.441,575.805,575.604,520.642,593.75,450H700c27.613,0,50-22.386,50-50
	S727.614,350,700,350z M400,500c-55.229,0-100-44.771-100-100s44.771-100,100-100c55.228,0,100,44.771,100,100
	C499.94,455.203,455.203,499.939,400,500z"/>
</svg>
