<svg xmlns="http://www.w3.org/2000/svg" viewBox="0 0 512 512" >
	<path fill="#0E3A5A" d="M341.33,256c0-26.81-21.95-48.76-48.76-48.76c-26.83,0-48.76,21.95-48.76,48.76s21.93,48.76,48.76,48.76
		C319.38,304.76,341.33,282.81,341.33,256z M292.57,36.57C171.4,36.57,73.14,134.83,73.14,256H0l97.52,97.52L195.05,256H121.9
		c0-94.36,76.31-170.67,170.67-170.67S463.24,161.64,463.24,256s-76.31,170.67-170.67,170.67c-36.81,0-70.95-11.95-99-31.69
		l-34.62,35.1c37.07,28.29,83.38,45.36,133.62,45.36C413.74,475.43,512,377.17,512,256S413.74,36.57,292.57,36.57z"/>
</svg>
