<svg style="width: 1em;height: 1em;vertical-align: middle;fill: currentColor;overflow: hidden;" viewBox="0 0 1024 1024" xmlns="http://www.w3.org/2000/svg">
    <path fill="#777777" d="M760.256 326.312l-433.23 434.48C378.66 799.24 442.672 822 512 822c171.208 0 310-138.792 310-310 0-69.648-22.968-133.93-61.744-185.688z m-63.794-63.484C644.916 224.608 581.098 202 512 202c-171.208 0-310 138.792-310 310 0 69.42 22.818 133.508 61.36 185.176l433.1-434.348zM512 912c-220.914 0-400-179.086-400-400S291.086 112 512 112s400 179.086 400 400-179.086 400-400 400z"  />
</svg>