<svg xmlns="http://www.w3.org/2000/svg" viewBox="0 0 128 128">
<path fill="#0F3B5A" d="M96,5.333C81.279,5.333,69.334,17.28,69.334,32v10.667h-48c-5.867,0-10.667,4.747-10.667,10.667v53.333
	c0,5.921,4.8,10.668,10.667,10.668h64c5.92,0,10.666-4.747,10.666-10.668V53.333c0-5.867-4.746-10.667-10.666-10.667H80V32
	c0-8.854,7.146-16,16-16s16,7.146,16,16v10.667h10.666V32C122.666,17.28,110.721,5.333,96,5.333 M53.333,69.334
	C59.2,69.334,64,74.08,64,80s-4.747,10.666-10.667,10.666c-5.867,0-10.667-4.746-10.667-10.666
	C42.667,74.133,47.467,69.334,53.333,69.334z"/>
</svg>
