<svg xmlns="http://www.w3.org/2000/svg" viewBox="0 0 128 128">
<path fill="#0F3B5A" d="M64,90.666c5.891,0,10.666-4.775,10.666-10.666c0-5.92-4.799-10.666-10.666-10.666
	c-5.891,0-10.667,4.775-10.667,10.666S58.109,90.666,64,90.666 M96,42.667c5.891,0,10.666,4.776,10.666,10.667v53.333
	c0,5.892-4.775,10.668-10.666,10.668H32c-5.891,0-10.667-4.776-10.667-10.668V53.333c0-5.92,4.8-10.667,10.667-10.667h5.333V32
	C37.333,17.272,49.272,5.333,64,5.333S90.666,17.272,90.666,32v10.667H96 M64,16c-8.836,0-16,7.164-16,16v10.667h32V32
	C80,23.164,72.836,16,64,16z"/>
</svg>
