<svg xmlns="http://www.w3.org/2000/svg" width="24" height="24" viewBox="0 0 24 24">
    <path fill="#0E3A5A" d="M8.1,21.213c-1.217-0.525-2.275-1.238-3.175-2.138c-0.9-0.9-1.612-1.958-2.137-3.175C2.263,14.684,2,13.383,2,12
	c0-1.383,0.262-2.683,0.788-3.9s1.238-2.275,2.137-3.175c0.899-0.9,1.957-1.612,3.175-2.137C9.318,2.263,10.618,2,12,2
	s2.682,0.262,3.9,0.788c1.218,0.526,2.275,1.238,3.175,2.137c0.898,0.899,1.611,1.957,2.138,3.175C21.74,9.318,22.002,10.618,22,12
	s-0.265,2.682-0.788,3.9c-0.523,1.218-1.235,2.275-2.137,3.175c-0.901,0.898-1.96,1.611-3.175,2.138
	C14.685,21.74,13.385,22.002,12,22S9.315,21.735,8.1,21.213 M12,20c2.217,0,4.104-0.779,5.663-2.337S20,14.217,20,12
	c0-2.217-0.779-4.105-2.337-5.663S14.218,4,12,4S7.895,4.779,6.337,6.338C4.78,7.896,4,9.784,4,12s0.779,4.104,2.338,5.663
	C7.897,19.223,9.785,20.002,12,20"/>
    <path fill="#0E3A5A"  d="M11,17v-6.175l-2.6,2.6L7,12l5-5l5,5l-1.426,1.4L13,10.825V17H11z"/>
</svg>
