<?xml version="1.0" encoding="UTF-8" standalone="no"?>
<svg
    xmlns:dc="http://purl.org/dc/elements/1.1/"
    xmlns:cc="http://creativecommons.org/ns#"
    xmlns:rdf="http://www.w3.org/1999/02/22-rdf-syntax-ns#"
    xmlns="http://www.w3.org/2000/svg"
    version="1.1"
    x="0px"
    y="0px"
    viewBox="0 0 16 16"
    enable-background="new 0 0 16 16"
    xml:space="preserve"
    id="svg3395"><metadata
     id="metadata3414"><rdf:RDF><cc:Work
         rdf:about=""><dc:format>image/svg+xml</dc:format><dc:type
    rdf:resource="http://purl.org/dc/dcmitype/StillImage"/><dc:title></dc:title></cc:Work></rdf:RDF></metadata>
  <defs
      id="defs3412"/>
  <g
      id="Layer_2"><g
       id="Layer_2_1_"><rect
         fill="none"
         width="16"
         height="16"
         id="rect3399" /></g></g>
  <path
      style="fill:#ffffff;fill-opacity:1;stroke:none;stroke-width:0.1;stroke-miterlimit:4;stroke-dasharray:none;stroke-opacity:1"
      d="M 7.2520744,13.500129 C 6.2215758,13.369148 5.2275352,12.966356 4.385935,12.338748 4.0576504,12.093936 3.5337103,11.583871 3.2703876,11.252742 2.6134945,10.426698 2.1927259,9.4472987 2.0276724,8.3601453 1.9738491,8.0056289 1.9672005,7.1504144 2.0155979,6.8069866 2.2102558,5.4256925 2.774956,4.2778047 3.7323713,3.3172353 4.6113294,2.4353817 5.7412982,1.8461529 6.9745328,1.6265913 7.3368909,1.5620782 8.1678971,1.5370601 8.586611,1.5780585 c 1.3036706,0.127649 2.60192,0.7417892 3.563095,1.6855313 1.741101,1.7095212 2.278529,4.2055614 1.393636,6.4726227 -0.699571,1.7922745 -2.311517,3.1914915 -4.1897645,3.6368395 -0.4645402,0.110147 -0.7357988,0.1421 -1.2942989,0.152466 -0.3677769,0.0068 -0.6148958,-9.46e-4 -0.8072042,-0.02539 z M 5.1255344,8.7045841 C 5.21367,8.6908404 5.364277,8.6413518 5.4602166,8.5946092 6.1779061,8.2449456 6.334679,7.2972407 5.7684928,6.7310544 5.4111561,6.3737177 4.8834605,6.2882005 4.4200581,6.5125299 4.2302855,6.6043973 4.0021031,6.8380636 3.9049837,7.0399828 c -0.3434315,0.7140236 0.081107,1.532288 0.8630776,1.6635124 0.1726385,0.028971 0.1785546,0.028989 0.3574731,0.00109 l 0,-8e-7 z M 8.3514472,8.6529631 C 8.8981056,8.4650673 9.227073,7.8915105 9.1099542,7.3305017 8.9178864,6.410481 7.8074844,6.0724434 7.1470034,6.7329241 6.6924602,7.1874673 6.6853712,7.8766534 7.1303462,8.3523332 7.4432056,8.6867807 7.915073,8.8029526 8.3514472,8.6529631 Z m 2.8141488,0.051621 c 0.08813,-0.013744 0.238742,-0.063232 0.334682,-0.1099749 0.717689,-0.3496636 0.874462,-1.2973685 0.308276,-1.8635548 -0.357337,-0.3573367 -0.885032,-0.4428539 -1.348435,-0.2185245 -0.189772,0.091867 -0.417955,0.3255337 -0.5150735,0.5274529 -0.3434318,0.7140236 0.081107,1.532288 0.8630775,1.6635124 0.172638,0.028971 0.178554,0.028989 0.357473,0.00109 l 0,-8e-7 z"
      id="path4213"/>
  <g
      transform="matrix(1,0,0,-1,0,16.114246)"
      id="g4166"><rect
       style="fill:#3d6380;fill-opacity:1;stroke:none;stroke-width:1;stroke-miterlimit:4;stroke-dasharray:none;stroke-opacity:1"
       id="rect4142"
       width="2"
       height="9"
       x="7.0023136"
       y="3.0413868" />
    <rect
        y="-3.3942273"
        x="12.882042"
        height="7"
        width="2"
        id="rect4156"
        style="fill:#3d6380;fill-opacity:1;stroke:none;stroke-width:1;stroke-miterlimit:4;stroke-dasharray:none;stroke-opacity:1"
        transform="matrix(0.70710678,0.70710678,-0.70710678,0.70710678,0,0)"/>
    <rect
        transform="matrix(0.70710678,-0.70710678,0.70710678,0.70710678,0,0)"
        style="fill:#3d6380;fill-opacity:1;stroke:none;stroke-width:1;stroke-miterlimit:4;stroke-dasharray:none;stroke-opacity:1"
        id="rect4158"
        width="2"
        height="7"
        x="-3.6078215"
        y="7.879992"/></g>
  <path
      style="fill:#3d6380;fill-opacity:1;stroke:none;stroke-width:0.00246533;stroke-miterlimit:4;stroke-dasharray:none;stroke-opacity:1"
      d="m 7.5441661,15.966407 c -0.6216,-0.05018 -1.038198,-0.116232 -1.524847,-0.241774 C 3.3003561,15.023216 1.1197462,12.912613 0.33223061,10.220124 0.22211211,9.8436326 0.12944601,9.4041086 0.06949211,8.9739319 0.01622401,8.5917274 0.00915891,7.4913566 0.05750801,7.1074629 0.25307911,5.5546212 0.81514121,4.2100268 1.7733704,3.0026863 2.017993,2.6944691 2.5393881,2.1595411 2.8477105,1.9004612 3.8549591,1.0540816 5.0160191,0.47446383 6.2687261,0.19264003 c 0.630697,-0.1418891 0.923329,-0.1707455 1.731527,-0.1707455 0.809651,0 1.100568,0.028793 1.736467,0.1718607 2.1226479,0.4775656 3.9863109,1.82805847 5.1180669,3.70877697 0.570728,0.9484201 0.941571,2.0406011 1.088211,3.2049307 0.04776,0.3792049 0.04059,1.4561146 -0.01234,1.8543251 -0.240093,1.806288 -1.015846,3.388138 -2.283234,4.655783 -1.390781,1.391064 -3.122091,2.18712 -5.0898919,2.340333 -0.295383,0.023 -0.783105,0.02709 -1.013369,0.0085 z m 0.838213,-1.981065 c 0.857282,-0.06114 1.6207089,-0.27429 2.3630099,-0.659751 C 13.635824,11.824652 14.817391,8.3434057 13.4276,5.4230056 12.846271,4.2014472 11.86503,3.2068411 10.650484,2.6080664 10.046301,2.3102022 9.5086311,2.1401277 8.8507921,2.0387921 c -0.414753,-0.06389 -1.286326,-0.06389 -1.701079,0 -0.657838,0.1013356 -1.195508,0.2714101 -1.799691,0.5692743 -2.6867176,1.3245599 -3.990205,4.4144404 -3.0577207,7.2482412 0.7581407,2.3039744 2.8649857,3.9537644 5.2704207,4.1270644 0.402063,0.02897 0.439851,0.02906 0.819657,0.002 z"
      id="path4266"/></svg>