<?xml version="1.0" encoding="utf-8"?>
<svg version="1.1" id="Layer_1" xmlns="http://www.w3.org/2000/svg" xmlns:xlink="http://www.w3.org/1999/xlink" x="0px" y="0px"
	 width="16px" height="16px" viewBox="0 0 16 16" enable-background="new 0 0 16 16" xml:space="preserve">
<rect x="7.002" y="4.073" fill="#0E3A5A" width="2" height="9"/>
<rect x="8.742" y="2.723" transform="matrix(-0.7071 0.7071 -0.7071 -0.7071 21.0307 3.7356)" fill="#0E3A5A" width="2" height="7"/>
<rect x="5.203" y="2.723" transform="matrix(-0.7071 -0.7071 0.7071 -0.7071 6.1884 15.0101)" fill="#0E3A5A" width="2" height="7"/>
<path fill="#0E3A5A" d="M7.544,15.967c-0.622-0.051-1.038-0.117-1.524-0.242c-2.719-0.701-4.9-2.813-5.688-5.504
	c-0.11-0.377-0.203-0.816-0.263-1.246c-0.053-0.383-0.06-1.483-0.012-1.867C0.253,5.555,0.815,4.21,1.773,3.003
	C2.018,2.694,2.54,2.16,2.848,1.9c1.007-0.846,2.168-1.426,3.421-1.708C6.899,0.051,7.192,0.022,8,0.022
	c0.81,0,1.1,0.029,1.736,0.172c2.123,0.478,3.986,1.828,5.119,3.708c0.57,0.949,0.941,2.041,1.088,3.205
	c0.047,0.379,0.04,1.456-0.013,1.854c-0.24,1.806-1.016,3.388-2.283,4.655c-1.391,1.392-3.122,2.188-5.09,2.341
	C8.262,15.98,7.774,15.984,7.544,15.967z M8.382,13.985c0.858-0.062,1.621-0.274,2.364-0.659c2.89-1.502,4.071-4.983,2.682-7.903
	c-0.582-1.221-1.563-2.216-2.777-2.815c-0.604-0.298-1.142-0.468-1.8-0.569c-0.415-0.063-1.286-0.063-1.701,0
	C6.492,2.14,5.954,2.31,5.35,2.608C2.663,3.933,1.36,7.022,2.292,9.856c0.758,2.304,2.865,3.954,5.27,4.127
	C7.965,14.012,8.002,14.012,8.382,13.985L8.382,13.985z"/>
</svg>
