<?xml version="1.0" encoding="UTF-8" standalone="no"?>
<svg
    xmlns:dc="http://purl.org/dc/elements/1.1/"
    xmlns:cc="http://creativecommons.org/ns#"
    xmlns:rdf="http://www.w3.org/1999/02/22-rdf-syntax-ns#"
    xmlns="http://www.w3.org/2000/svg"
    id="svg3395"
    xml:space="preserve"
    enable-background="new 0 0 16 16"
    viewBox="0 0 16 16"
    y="0px"
    x="0px"
    version="1.1"><metadata
     id="metadata3414"><rdf:RDF><cc:Work
         rdf:about=""><dc:format>image/svg+xml</dc:format><dc:type
    rdf:resource="http://purl.org/dc/dcmitype/StillImage"/><dc:title></dc:title></cc:Work></rdf:RDF></metadata>
  <defs
      id="defs3412"/>
  <g
      id="Layer_2"><g
       id="Layer_2_1_"><rect
         id="rect3399"
         height="16"
         width="16"
         fill="none" /></g></g>
  <path
      id="path4266"
      d="M 7.5441675,15.966405 C 6.9225668,15.916227 6.5059687,15.850173 6.0193204,15.724631 3.3003569,15.023214 1.1197471,12.912611 0.3322315,10.220122 0.222113,9.8436308 0.1294469,9.4041068 0.069493,8.9739301 0.0162249,8.5917256 0.0091598,7.4913548 0.0575089,7.1074611 0.25308,5.5546194 0.8151421,4.210025 1.7733713,3.0026845 2.0179939,2.6944673 2.539389,2.1595393 2.8477114,1.9004594 3.8549605,1.0540798 5.0160198,0.47446197 6.2687269,0.19263819 6.8994242,0.05074909 7.1920563,0.0218927 8.0002538,0.0218927 c 0.809651,0 1.1005685,0.0287925 1.7364672,0.17186067 2.122648,0.4775656 3.986311,1.82805853 5.118067,3.70877703 0.570728,0.9484201 0.941571,2.0406011 1.088211,3.2049307 0.04776,0.3792049 0.04059,1.4561146 -0.01234,1.8543251 -0.240093,1.8062878 -1.015846,3.3881378 -2.283234,4.6557828 -1.390781,1.391064 -3.122091,2.18712 -5.0898915,2.340333 -0.2953839,0.023 -0.7831058,0.02709 -1.013369,0.0085 z M 8.3823801,13.98534 C 9.2396624,13.924198 10.003089,13.71105 10.74539,13.325589 13.635825,11.82465 14.817392,8.3434039 13.427601,5.4230038 12.846272,4.2014454 11.865031,3.2068393 10.650485,2.6080646 10.046302,2.3102004 9.5086317,2.1401259 8.8507931,2.0387903 c -0.4147528,-0.06389 -1.2863258,-0.06389 -1.7010786,0 C 6.4918759,2.1401259 5.9542061,2.3102004 5.3500227,2.6080646 2.6633054,3.9326245 1.359818,7.022505 2.2923023,9.8563058 3.050443,12.16028 5.1572885,13.81007 7.5627233,13.98337 c 0.4020623,0.02897 0.4398506,0.02906 0.8196568,0.002 z"
      style="fill:#ff0000;fill-opacity:1;stroke:none;stroke-width:0.00246533;stroke-miterlimit:4;stroke-dasharray:none;stroke-opacity:1"/>
  <path
      style="fill:#ff0000"
      id="path11"
      d="m 11.7,5.6999998 -1.4,-1.4 c -0.1,-0.1 -0.3,-0.1 -0.4999998,0 l -1.8,1.9 -1.8,-1.9 c -0.2,-0.1 -0.4,-0.1 -0.5,0 l -1.4,1.4 c -0.1,0.1 -0.1,0.3 0,0.5 l 1.9,1.8 -1.9,1.8000001 c -0.1,0.1 -0.1,0.3000001 0,0.5000001 l 1.4,1.4 c 0.1,0.1 0.3,0.1 0.5,0 l 1.8,-1.9000001 1.8,1.8000001 c 0.1,0.1 0.2999998,0.1 0.4999998,0 l 1.4,-1.4 c 0.1,-0.1 0.1,-0.3000001 0,-0.5000001 L 9.8000002,7.9999998 11.6,6.1999998 c 0.2,-0.2 0.2,-0.4 0.1,-0.5 z"/>
  <path
      id="path4293"
      d="M 7.3023113,13.946624 C 5.9717705,13.779519 4.7981209,13.214315 3.8345669,12.276638 2.8528782,11.321312 2.2691979,10.180624 2.059329,8.8072868 c -0.060013,-0.3927157 -0.060013,-1.234403 0,-1.6271186 C 2.4030326,4.9310447 3.8602294,3.1347717 5.977605,2.3501458 6.577333,2.1279075 7.1055537,2.0292304 7.7953775,2.010567 c 0.8030553,-0.021727 1.3635962,0.053749 2.0288328,0.2731796 0.9600727,0.316683 1.7650927,0.820816 2.4712867,1.5476093 0.928356,0.9554371 1.493834,2.1390961 1.664628,3.4844055 0.04556,0.3588642 0.03342,1.1294567 -0.02377,1.5091086 -0.199462,1.324046 -0.760384,2.43935 -1.703109,3.386357 -0.973073,0.977493 -2.2117,1.578622 -3.5750005,1.735016 -0.395576,0.04538 -0.9963035,0.04555 -1.3559322,3.82e-4 l 0,-10e-7 z M 6.0997954,11.746115 c 0.102522,-0.03704 0.2230891,-0.154923 1.0089238,-0.986485 L 8.0012066,9.8152101 8.9275679,10.739386 c 1.0288705,1.026444 0.9838538,0.993057 1.2386121,0.918621 0.123738,-0.03615 0.174699,-0.08182 0.862447,-0.77277 0.571214,-0.573876 0.734631,-0.75197 0.747839,-0.815004 0.02193,-0.1046606 -0.0033,-0.2499721 -0.05923,-0.3405129 -0.02441,-0.039542 -0.461044,-0.4435427 -0.970306,-0.89778 L 9.820998,8.0060541 10.752937,7.0692283 c 0.512566,-0.5152543 0.949868,-0.9723304 0.971781,-1.0157249 0.02191,-0.043395 0.03984,-0.1313563 0.03984,-0.195471 l 0,-0.1165717 -0.72111,-0.724795 C 10.646841,4.6180283 10.292385,4.2760981 10.25577,4.2568206 10.165669,4.2093832 9.9721844,4.2136936 9.8634581,4.2655604 9.8072402,4.2923786 9.4490453,4.6517705 8.8925703,5.2396926 8.4075785,5.752092 8.0027124,6.1681166 7.9928678,6.1641918 7.9830233,6.1602668 7.5732206,5.7329267 7.0821954,5.214547 6.1028302,4.1806219 6.1299738,4.202594 5.8636756,4.2281819 L 5.7436337,4.2397164 4.9918307,4.9915195 C 4.2534752,5.7298749 4.2397969,5.745369 4.2271318,5.8577334 c -0.00709,0.062926 0.0011,0.16439 0.0182,0.2254753 0.028329,0.1011813 0.1147199,0.1902047 0.9708481,1.0004314 0.5168636,0.4891518 0.9429631,0.8981157 0.9468882,0.9088086 0.00392,0.010693 -0.4120999,0.4157902 -0.9244993,0.9002162 -0.5123996,0.4844263 -0.9509914,0.9102316 -0.9746488,0.9462346 -0.052448,0.079818 -0.056831,0.2700815 -0.00877,0.3805815 0.04147,0.09534 1.4852106,1.537236 1.555631,1.553647 0.094773,0.02209 0.1734605,0.01473 0.2890096,-0.02701 z"
      style="fill:#ffffff;fill-opacity:1;stroke:none;stroke-width:0.1;stroke-miterlimit:4;stroke-dasharray:none;stroke-opacity:1"/></svg>