<?xml version="1.0" encoding="UTF-8" standalone="no"?>
<svg
    xmlns:dc="http://purl.org/dc/elements/1.1/"
    xmlns:cc="http://creativecommons.org/ns#"
    xmlns:rdf="http://www.w3.org/1999/02/22-rdf-syntax-ns#"
    xmlns="http://www.w3.org/2000/svg"
    version="1.1"
    x="0px"
    y="0px"
    viewBox="0 0 16 16"
    enable-background="new 0 0 16 16"
    xml:space="preserve"
    id="svg3395"><metadata
     id="metadata3414"><rdf:RDF><cc:Work
         rdf:about=""><dc:format>image/svg+xml</dc:format><dc:type
    rdf:resource="http://purl.org/dc/dcmitype/StillImage"/><dc:title></dc:title></cc:Work></rdf:RDF></metadata>
  <defs
      id="defs3412"/>
  <path
      id="path4219"
      d="M 14 3.5273438 A 10.506676 7.0558767 0 0 1 13.919922 3.5644531 A 10.506676 7.0558767 0 0 1 13.025391 3.9355469 A 10.506676 7.0558767 0 0 1 12.082031 4.2441406 A 10.506676 7.0558767 0 0 1 11.095703 4.4863281 A 10.506676 7.0558767 0 0 1 10.078125 4.6621094 A 10.506676 7.0558767 0 0 1 9.0410156 4.7695312 A 10.506676 7.0558767 0 0 1 7.9921875 4.8066406 A 10.506676 7.0558767 0 0 1 7.9179688 4.8066406 A 10.506676 7.0558767 0 0 1 6.8691406 4.765625 A 10.506676 7.0558767 0 0 1 5.8320312 4.65625 A 10.506676 7.0558767 0 0 1 4.8164062 4.4765625 A 10.506676 7.0558767 0 0 1 3.8339844 4.2304688 A 10.506676 7.0558767 0 0 1 2.890625 3.9179688 A 10.506676 7.0558767 0 0 1 2 3.5449219 L 2 13.800781 A 10.506676 7.0558767 0 0 0 7.9921875 15.0625 A 10.506676 7.0558767 0 0 0 14 13.783203 L 14 3.5273438 z "
      style="fill:none;fill-opacity:1;stroke:#3d6380;stroke-width:1.94511342;stroke-miterlimit:4;stroke-dasharray:none;stroke-opacity:1"/>
  <path
      id="path4181"
      d="M 2 2.21875 L 2 3.5449219 A 10.506676 7.0558767 0 0 0 2.890625 3.9179688 A 10.506676 7.0558767 0 0 0 3.8339844 4.2304688 A 10.506676 7.0558767 0 0 0 4.8164062 4.4765625 A 10.506676 7.0558767 0 0 0 5.8320312 4.65625 A 10.506676 7.0558767 0 0 0 6.8691406 4.765625 A 10.506676 7.0558767 0 0 0 7.9179688 4.8066406 A 10.506676 7.0558767 0 0 0 7.9921875 4.8066406 A 10.506676 7.0558767 0 0 0 9.0410156 4.7695312 A 10.506676 7.0558767 0 0 0 10.078125 4.6621094 A 10.506676 7.0558767 0 0 0 11.095703 4.4863281 A 10.506676 7.0558767 0 0 0 12.082031 4.2441406 A 10.506676 7.0558767 0 0 0 13.025391 3.9355469 A 10.506676 7.0558767 0 0 0 13.919922 3.5644531 A 10.506676 7.0558767 0 0 0 14 3.5273438 L 14 2.2226562 A 10.506676 7.0558767 0 0 0 7.9921875 0.95117188 A 10.506676 7.0558767 0 0 0 2 2.21875 z "
      style="fill:none;fill-opacity:1;stroke:#3d6380;stroke-width:1.94511342;stroke-miterlimit:4;stroke-dasharray:none;stroke-opacity:1"/>
  <path
      id="path4757"
      d="m 6.7681443,14.026377 c -1.315269,-0.120466 -2.7035844,-0.438525 -3.7398501,-0.856791 -0.051659,-0.02085 -0.054653,-0.245299 -0.054653,-4.0964002 0,-3.8658107 0.0028,-4.0734936 0.054653,-4.0577867 0.030059,0.0091 0.1670831,0.05126 0.3044972,0.093678 0.9121799,0.2815786 2.0397071,0.5040021 3.1074329,0.612993 0.5429859,0.055427 2.0193972,0.074113 2.6077451,0.033005 1.2703276,-0.088758 2.5897646,-0.328431 3.6103506,-0.655813 0.164956,-0.052914 0.309006,-0.096208 0.320113,-0.096208 0.0111,0 0.02019,1.8324774 0.02019,4.0721721 l 0,4.0721719 -0.351343,0.128511 c -0.914799,0.334609 -1.891366,0.563361 -3.0222042,0.707924 -0.461401,0.05898 -2.36752,0.08737 -2.8569335,0.04254 z"
      style="fill:#ffffff;fill-opacity:1;stroke:none;stroke-width:1;stroke-miterlimit:4;stroke-dasharray:none;stroke-opacity:1"/>
  <path
      id="path4759"
      d="M 7.1741406,3.7958594 C 6.1582749,3.7150555 5.6559389,3.6454066 4.9285857,3.4845129 4.3799103,3.3631436 3.6714529,3.1563589 3.2391,2.9913857 L 2.9580257,2.8841359 3.0829476,2.830419 C 3.6214302,2.5988695 4.778053,2.2808062 5.5657708,2.1476596 6.4952892,1.9905447 6.8878198,1.96002 7.9861331,1.9594427 c 1.0099725,-5.308e-4 1.2728251,0.015601 2.0612119,0.126504 0.9141,0.1285869 2.088018,0.429309 2.781084,0.7124292 l 0.185812,0.075905 -0.142308,0.061313 C 12.651336,3.0306391 11.884533,3.2757822 11.488116,3.377994 10.697909,3.5817404 9.8060222,3.7238367 8.9386628,3.7841756 8.524788,3.8129673 7.4764876,3.8199086 7.1741406,3.7958594 Z"
      style="fill:#ffffff;fill-opacity:1;stroke:none;stroke-width:1;stroke-miterlimit:4;stroke-dasharray:none;stroke-opacity:1"/></svg>