<svg xmlns="http://www.w3.org/2000/svg" width="128px" height="128px" viewBox="0 0 128 128">
<path fill="#0E3A5A" d="M66.24,114.187l48-48c1.983-2,3.096-4.703,3.094-7.521V21.333c0-5.891-4.776-10.667-10.667-10.667H69.334
	c-2.844-0.002-5.57,1.131-7.574,3.147l-48,48c-1.983,2-3.096,4.703-3.094,7.521c0.013,2.824,1.145,5.528,3.147,7.52l37.333,37.333
	c1.991,2.003,4.695,3.135,7.52,3.147C61.51,117.336,64.236,116.203,66.24,114.187 M21.334,69.334l48-48.001h37.333v37.333
	l-48.001,48 M101.334,34.666c0,4.419-3.582,8-8,8c-4.419,0-8-3.581-8-8c0-4.418,3.581-8,8-8
	C97.752,26.666,101.334,30.248,101.334,34.666z"/>
</svg>
