<?xml version="1.0" encoding="UTF-8" standalone="no"?>
<svg
    xmlns:dc="http://purl.org/dc/elements/1.1/"
    xmlns:cc="http://creativecommons.org/ns#"
    xmlns:rdf="http://www.w3.org/1999/02/22-rdf-syntax-ns#"
    xmlns="http://www.w3.org/2000/svg"
    version="1.1"
    x="0px"
    y="0px"
    viewBox="0 0 16 16"
    enable-background="new 0 0 16 16"
    xml:space="preserve"
    id="svg3395"><metadata
     id="metadata3414"><rdf:RDF><cc:Work
         rdf:about=""><dc:format>image/svg+xml</dc:format><dc:type
    rdf:resource="http://purl.org/dc/dcmitype/StillImage"/><dc:title></dc:title></cc:Work></rdf:RDF></metadata>
  <defs
      id="defs3412"/>
  <g
      style="fill:none;stroke:none;stroke-opacity:1"
      id="Layer_2"><g
       style="fill:none;stroke:none;stroke-opacity:1"
       id="Layer_2_1_"><rect
         fill="none"
         style="fill:none;stroke:none;stroke-opacity:1"
         width="16"
         height="16"
         id="rect3399" /></g></g>
  <path
      id="path4141"
      d="M 2.8750101,4.83184 C 2.561256,4.6828448 2.3093469,4.4273512 2.1546186,4.101198 2.0458581,3.8719408 2.0305774,3.7971312 2.0312724,3.4973333 2.0323037,3.0524728 2.1620215,2.7477698 2.4773258,2.4495681 2.800113,2.1442895 3.0757084,2.0316863 3.4990037,2.0321294 3.786166,2.0324301 3.8807138,2.0503858 4.0869495,2.1437873 4.3980364,2.2846745 4.7072783,2.5946747 4.8548766,2.9135974 4.9491934,3.1173922 4.9667322,3.2086239 4.9670964,3.4973333 4.9674749,3.7978468 4.9521139,3.8721714 4.8409671,4.107584 4.6866734,4.4343834 4.4440079,4.6791353 4.1229973,4.8317269 3.9100067,4.9329714 3.8362388,4.9465451 3.4990037,4.9465451 c -0.3370912,0 -0.4110938,-0.013603 -0.6239936,-0.1147051 z"
      style="fill:#ffffff;fill-opacity:1;stroke:none;stroke-width:1;stroke-miterlimit:4;stroke-dasharray:none;stroke-opacity:1"/>
  <path
      id="rect3344"
      d="M 1.0332031 1.0019531 L 1.0332031 6.9453125 L 1.1230469 6.9453125 L 1.046875 7.0214844 L 9.0878906 15.0625 L 15.078125 9.0722656 L 7.0371094 1.03125 L 7.0078125 1.0605469 L 7.0078125 1.0019531 L 1.0332031 1.0019531 z "
      style="fill:none;fill-opacity:1;stroke:#3d6380;stroke-width:2;stroke-linecap:butt;stroke-linejoin:round;stroke-miterlimit:4;stroke-dasharray:none;stroke-opacity:1"/>
  <ellipse
      ry="1.4987406"
      rx="1.5143459"
      cy="4.4687896"
      cx="4.5156054"
      id="path4205"
      style="fill:#3d6380;fill-opacity:1;stroke:none;stroke-width:2;stroke-linecap:butt;stroke-linejoin:round;stroke-miterlimit:4;stroke-dasharray:none;stroke-opacity:1"/>
  <path
      id="path4139"
      d="m 5.5653692,10.115562 -3.5108847,-3.5111941 0,-2.2901108 0,-2.2901109 2.2782519,0 2.2782521,0 3.5230615,3.5231238 3.523062,3.5231237 -2.278277,2.2781813 c -1.253052,1.253 -2.2837455,2.278182 -2.2904291,2.278182 -0.00668,0 -1.59205,-1.580038 -3.5230367,-3.511195 z M 4.8947068,5.9262001 C 5.1108251,5.8744916 5.3713109,5.7334121 5.5456863,5.5736287 6.177585,4.9946084 6.2014238,4.0159485 5.5982713,3.4148659 5.3008995,3.1185147 4.9370433,2.9675729 4.5200392,2.9675729 c -0.4325933,0 -0.7695969,0.1394168 -1.0774039,0.4457167 -0.3043113,0.3028215 -0.4454387,0.6362002 -0.4454387,1.0522393 0,0.567612 0.3158505,1.0824689 0.8226216,1.3409265 0.3424686,0.1746621 0.6855962,0.2128871 1.0748886,0.1197447 z"
      style="fill:#ffffff;fill-opacity:1;stroke:none;stroke-width:2;stroke-linecap:butt;stroke-linejoin:round;stroke-miterlimit:4;stroke-dasharray:none;stroke-opacity:1"/>
  <path
      id="path4142"
      d="m 5.5654516,10.115728 -3.5109671,-3.5110299 0,-2.2902759 0,-2.290276 2.2782519,0 2.2782521,0 3.5230615,3.5231238 3.523062,3.5231237 -2.278277,2.2781813 c -1.253052,1.253 -2.2837085,2.278182 -2.2903467,2.278182 -0.00664,0 -1.5920048,-1.579963 -3.5230367,-3.511029 z M 5.0363769,5.8834832 C 5.742329,5.6103355 6.1492995,4.9014805 6.0088947,4.1895666 5.8684702,3.477554 5.24109,2.9658801 4.5101296,2.9672156 c -0.9853051,0.0018 -1.7073747,0.923697 -1.4651824,1.8706601 0.069903,0.2733169 0.1776191,0.4571852 0.3993287,0.6816411 0.1470149,0.1488359 0.2370203,0.2169872 0.3747723,0.283774 0.2826508,0.1370386 0.4036033,0.161641 0.7493352,0.1524194 0.2571557,-0.00686 0.3268482,-0.017615 0.4679935,-0.072227 z"
      style="fill:#ffffff;fill-opacity:1;stroke:none;stroke-width:2;stroke-linecap:butt;stroke-linejoin:round;stroke-miterlimit:4;stroke-dasharray:none;stroke-opacity:1"/></svg>