<?xml version="1.0" encoding="UTF-8" standalone="no"?>
<svg
   xmlns="http://www.w3.org/2000/svg"
   id="svg1840"
   version="1.1"
   viewBox="0 0 7.7200613 6.9423819"
   height="7.7200613"
   width="6.9423819">
  <defs
     id="defs1834">
    <mask
       fill="white"
       id="mask-22">
      <path
         style="stroke-width:0.26458332"
         d="m 0.00366631,3.5536222 c 0.00990938,0.097059 0.04007501,0.1925105 0.09049687,0.2798086 L 1.6981757,6.6111392 C 1.8157624,6.8147234 2.0267789,6.9451141 2.2594211,6.9607659 H 5.5620497 C 5.7946919,6.9451141 6.0057083,6.8147234 6.1232951,6.6111392 L 7.7273076,3.8334308 c 0.1255713,-0.2173025 0.1255713,-0.4851277 0,-0.7024913 L 6.1232951,0.35329216 C 5.9977849,0.1359286 5.7658294,0.00201602 5.514748,0.00201602 H 2.3067228 c -0.2510814,0 -0.4830369,0.13391258 -0.6085471,0.35127614 L 0.09416318,3.1309395 C 0.04374132,3.2182622 0.01357569,3.3137288 0.00366631,3.4107921 v 0.1428302"
         id="use213" />
    </mask>
    <mask
       fill="white"
       id="mask-22-3">
      <path
         style="stroke-width:0.26458332"
         d="m 0.00366631,3.5536222 c 0.00990938,0.097059 0.04007501,0.1925105 0.09049687,0.2798086 L 1.6981757,6.6111392 C 1.8157624,6.8147234 2.0267789,6.9451141 2.2594211,6.9607659 H 5.5620497 C 5.7946919,6.9451141 6.0057083,6.8147234 6.1232951,6.6111392 L 7.7273076,3.8334308 c 0.1255713,-0.2173025 0.1255713,-0.4851277 0,-0.7024913 L 6.1232951,0.35329216 C 5.9977849,0.1359286 5.7658294,0.00201602 5.514748,0.00201602 H 2.3067228 c -0.2510814,0 -0.4830369,0.13391258 -0.6085471,0.35127614 L 0.09416318,3.1309395 C 0.04374132,3.2182622 0.01357569,3.3137288 0.00366631,3.4107921 v 0.1428302"
         id="use213-6" />
    </mask>
    <mask
       fill="white"
       id="mask-22-7">
      <path
         style="stroke-width:0.26458332"
         d="m 0.00366631,3.5536222 c 0.00990938,0.097059 0.04007501,0.1925105 0.09049687,0.2798086 L 1.6981757,6.6111392 C 1.8157624,6.8147234 2.0267789,6.9451141 2.2594211,6.9607659 H 5.5620497 C 5.7946919,6.9451141 6.0057083,6.8147234 6.1232951,6.6111392 L 7.7273076,3.8334308 c 0.1255713,-0.2173025 0.1255713,-0.4851277 0,-0.7024913 L 6.1232951,0.35329216 C 5.9977849,0.1359286 5.7658294,0.00201602 5.514748,0.00201602 H 2.3067228 c -0.2510814,0 -0.4830369,0.13391258 -0.6085471,0.35127614 L 0.09416318,3.1309395 C 0.04374132,3.2182622 0.01357569,3.3137288 0.00366631,3.4107921 v 0.1428302"
         id="use213-5" />
    </mask>
    <mask
       fill="white"
       id="mask2583">
      <path
         style="stroke-width:0.26458332"
         d="m 0.00366631,3.5536222 c 0.00990938,0.097059 0.04007501,0.1925105 0.09049687,0.2798086 L 1.6981757,6.6111392 C 1.8157624,6.8147234 2.0267789,6.9451141 2.2594211,6.9607659 H 5.5620497 C 5.7946919,6.9451141 6.0057083,6.8147234 6.1232951,6.6111392 L 7.7273076,3.8334308 c 0.1255713,-0.2173025 0.1255713,-0.4851277 0,-0.7024913 L 6.1232951,0.35329216 C 5.9977849,0.1359286 5.7658294,0.00201602 5.514748,0.00201602 H 2.3067228 c -0.2510814,0 -0.4830369,0.13391258 -0.6085471,0.35127614 L 0.09416318,3.1309395 C 0.04374132,3.2182622 0.01357569,3.3137288 0.00366631,3.4107921 v 0.1428302"
         id="use2581" />
    </mask>
  </defs>
  <g
     transform="translate(-38.566723,-72.129918)"
     id="layer1">
    <path
       style="fill:#4285f4;fill-rule:evenodd;stroke:none;stroke-width:0.2494117"
       d="m 38.60582,75.548729 c 0.0092,0.09196 0.03757,0.182383 0.08486,0.265106 l 1.504326,2.631848 c 0.110274,0.192912 0.308172,0.316423 0.526365,0.331284 h 3.097378 c 0.218173,-0.01468 0.416084,-0.138372 0.526365,-0.331284 l 1.504326,-2.631848 c 0.117754,-0.205911 0.117754,-0.459654 0,-0.665605 l -1.504326,-2.63179 c -0.117717,-0.205948 -0.335252,-0.332825 -0.570729,-0.332825 h -3.008653 c -0.23547,0 -0.453015,0.126877 -0.570726,0.332825 l -1.504326,2.63179 c -0.04729,0.08276 -0.07557,0.173181 -0.08486,0.265142 v 0.135329"
       id="use216" />
    <path
       transform="matrix(0.25128133,0,0,0.25128133,38.553902,72.154423)"
       style="fill:#000000;fill-opacity:0.1;fill-rule:evenodd;stroke:none;stroke-width:1"
       mask="url(#mask-22-7)"
       id="path218"
       d="m 10.694091,9.439532 -1.7713787,1.702404 3.0090337,3.008357 2.281314,-1.316806 v -0.971614 l -0.91017,0.185872 -2.608799,-2.608213 m 5.185265,-3.1226513 -0.591922,1.1066894 h 0.06097 v 5.4099169 l 4.685954,2.704959 -0.567442,0.982928 -4.686185,-2.704958 -4.686185,2.704958 L 9.9134833,16.207816 8.7273295,17.150569 17.893,26.31441 h 2.950142 c 0.948969,0 1.825651,-0.506126 2.30002,-1.327427 L 27.91757,16.719022 20.604803,9.4078991 19.251904,9.688439 15.879356,6.3168807" />
    <path
       d="m 43.362413,74.473197 c 0.147752,-0.08528 0.336709,-0.03469 0.422017,0.113081 0.0853,0.147719 0.0347,0.336633 -0.113049,0.421923 -0.14781,0.08528 -0.336766,0.03469 -0.422075,-0.113024 -0.08531,-0.147777 -0.0347,-0.336691 0.113107,-0.42198"
       id="path222"
       style="fill:#ffffff;fill-rule:evenodd;stroke:none;stroke-width:0.25128132" />
    <path
       d="m 40.864665,75.008201 c -0.147752,-0.08528 -0.198356,-0.274204 -0.113048,-0.421923 0.08531,-0.147777 0.274265,-0.198371 0.422018,-0.113081 0.14781,0.08529 0.198415,0.274203 0.113106,0.42198 -0.08531,0.147719 -0.274265,0.198313 -0.422076,0.113024"
       id="path224"
       style="fill:#ffffff;fill-rule:evenodd;stroke:none;stroke-width:0.25128132" />
    <path
       d="m 42.57705,76.903311 c 0,0.170579 -0.138351,0.3089 -0.309027,0.3089 -0.170675,0 -0.309026,-0.138321 -0.309026,-0.3089 0,-0.170637 0.138351,-0.308957 0.309026,-0.308957 0.170676,0 0.309027,0.13832 0.309027,0.308957"
       id="path226"
       style="fill:#ffffff;fill-rule:evenodd;stroke:none;stroke-width:0.25128132" />
    <path
       d="m 42.881492,75.651005 c -0.02879,0.09312 -0.07811,0.177194 -0.142819,0.246934 l 0.706902,0.407997 0.142587,-0.246991 -0.70667,-0.40794"
       id="path228"
       style="fill:#ffffff;fill-rule:evenodd;stroke:none;stroke-width:0.25128132" />
    <polyline
       transform="matrix(0.25128133,0,0,0.25128133,38.553902,72.154423)"
       id="polyline230"
       points="11.9317461 14.150293 9.52710569 15.5384459 9.91348327 16.2078164 12.1846351 14.4031253 11.9317461 14.150293"
       style="fill:#ffffff;fill-rule:evenodd;stroke:none;stroke-width:1" />
    <path
       d="m 41.654555,75.651005 -0.102428,0.05912 0.06355,0.06354 -0.570699,0.453485 0.0455,0.07879 0.706902,-0.407997 c -0.0647,-0.06974 -0.114036,-0.153812 -0.14282,-0.246934"
       id="path232"
       style="fill:#ffffff;fill-rule:evenodd;stroke:none;stroke-width:0.25128132" />
    <path
       d="m 42.395348,74.019828 h -0.26997 v 0.815937 c 2.32e-4,-5.8e-5 5.28e-4,-1.17e-4 7.54e-4,-1.75e-4 l -3.01e-4,-3.01e-4 0.147114,-0.586525 0.122392,-0.228947"
       id="path234"
       style="fill:#ffffff;fill-rule:evenodd;stroke:none;stroke-width:0.25128132" />
    <path
       d="m 42.410669,74.019828 h -0.01532 l -0.122391,0.228947 -0.147114,0.586526 3.01e-4,3.02e-4 c 0.04567,-0.01032 0.09314,-0.01572 0.141891,-0.01572 0.04903,0 0.09674,0.0055 0.142645,0.0159 v -0.81595"
       id="path236"
       style="fill:#ffffff;fill-rule:evenodd;stroke:none;stroke-width:0.25128132" />
    <path
       d="m 42.767225,75.46157 c 0,0.275653 -0.223486,0.499089 -0.499202,0.499089 -0.275715,0 -0.499201,-0.223436 -0.499201,-0.499089 0,-0.275654 0.223486,-0.499089 0.499201,-0.499089 0.275716,0 0.499202,0.223435 0.499202,0.499089"
       id="Fill-16"
       style="fill:#ffffff;fill-rule:evenodd;stroke:none;stroke-width:0.25128132" />
    <path
       d="m 40.823114,75.842878 c 0.187563,-0.108266 0.427414,-0.04404 0.535705,0.143483 0.108289,0.18758 0.04405,0.427377 -0.143575,0.535642 -0.187563,0.108266 -0.427414,0.04404 -0.535704,-0.143541 -0.10829,-0.187521 -0.04405,-0.427318 0.143574,-0.535584"
       id="Fill-17"
       style="fill:#ffffff;fill-rule:evenodd;stroke:none;stroke-width:0.25128132" />
    <path
       d="m 43.320804,76.522003 c -0.187622,-0.108265 -0.251865,-0.348062 -0.143575,-0.535642 0.10829,-0.18752 0.348141,-0.251749 0.535705,-0.143483 0.187621,0.108266 0.251863,0.348063 0.143573,0.535584 -0.108289,0.187579 -0.34814,0.251807 -0.535703,0.143541"
       id="Fill-18"
       style="fill:#ffffff;fill-rule:evenodd;stroke:none;stroke-width:0.25128132" />
    <path
       d="m 42.66027,74.019828 c 0,0.216589 -0.175609,0.392158 -0.392247,0.392158 -0.216637,0 -0.392245,-0.175569 -0.392245,-0.392158 0,-0.216531 0.175608,-0.392158 0.392245,-0.392158 0.216638,0 0.392247,0.175627 0.392247,0.392158"
       id="Fill-19"
       style="fill:#ffffff;fill-rule:evenodd;stroke:none;stroke-width:0.25128132" />
    <g
       id="g12"
       transform="matrix(0.26458333,0,0,0.26458333,35.822798,68.688815)">
      <polygon
         points="32.6,38.7 39,38.7 39,32.3 37.1,32.3 37.1,35.4 31.9,30.2 30.5,31.5 35.8,36.8 32.6,36.8 "
         id="polygon10"
         style="fill:#3d6480" />
    </g>
  </g>
</svg>
