<?xml version="1.0" encoding="UTF-8" standalone="no"?>
<svg
    xmlns="http://www.w3.org/2000/svg"
    width="24"
    height="24"
    viewBox="0 0 24 24"
    version="1.1">
  <defs>
    <style>.cls-1{fill:#669df6;}.cls-1,.cls-2,.cls-3{fill-rule:evenodd;}.cls-2{fill:#aecbfa;}.cls-3{fill:#4285f4;}</style>
  </defs>
  <g transform="matrix(1.091877,0,0,1.091877,-0.08978594,-0.0295066)">
    <path
        style="fill:#669df6;fill-rule:evenodd"
        d="m 14.173662,4.7680784 -4.2199999,-2.51 a 2.86,2.86 0 0 1 -1.25,-1.70999999 c 0,0 0.16,-0.32 0.38,-0.2 0.22,0.12 3.4999999,2.05999999 5.2499999,3.09999999 0.63,0.37 0.24,2 0.24,2 a 0.77,0.77 0 0 0 -0.4,-0.68 z"
        class="cls-1"/>
    <path
        style="fill:#aecbfa;fill-rule:evenodd"
        d="m 15.443662,11.008078 a 0.35,0.35 0 0 1 -0.16,0.33 l -1,0.68 V 4.0680784 c 0,-0.27 0.17,-0.56 -0.06,-0.7 l 0.92,0.68 a 0.73,0.73 0 0 1 0.35,0.65 z"
        class="cls-2"/>
    <path
        style="fill:#669df6;fill-rule:evenodd"
        d="m 9.9536621,11.918078 a 0.36,0.36 0 0 1 -0.2,-0.06 l -3.46,-2.0599996 v 0.8999996 l 3.66,2.18 0.2899999,-0.57 c 0,0 -0.22,-0.39 -0.2899999,-0.39 z"
        class="cls-1"/>
    <path
        style="fill:#669df6;fill-rule:evenodd"
        d="m 10.153662,13.718078 a 0.36,0.36 0 0 1 -0.3999999,0 l -3.46,-2.06 v 0.66 a 0.42,0.42 0 0 0 0.19,0.35 l 3.28,2 a 0.37,0.37 0 0 0 0.3799999,0 2,2 0 0 0 0.2,-0.52 l -0.19,-0.39 z"
        class="cls-1"/>
    <path
        style="fill:#aecbfa;fill-rule:evenodd"
        d="M 9.9536621,11.048078 13.613662,8.8680784 v -0.43 a 0.39,0.39 0 0 0 -0.19,-0.34 l -3.28,-2 a 0.37,0.37 0 0 0 -0.3799999,0 l -3.28,2 a 0.41,0.41 0 0 0 -0.19,0.34 v 0.43 z"
        class="cls-2"/>
    <path
        style="fill:#669df6;fill-rule:evenodd"
        d="m 9.9536621,10.148078 -3.47,-2.0499996 a 0.41,0.41 0 0 0 -0.19,0.34 v 0.43 l 3.66,2.1799996 0.2799999,-0.56 z"
        class="cls-1"/>
    <path
        style="fill:#4285f4;fill-rule:evenodd"
        d="m 9.9536621,11.918078 v 1 l 3.6599999,-2.18 V 9.8380784 l -3.46,2.0199996 a 0.65,0.65 0 0 1 -0.1999999,0.06 z"
        class="cls-3"/>
    <path
        style="fill:#4285f4;fill-rule:evenodd"
        d="m 10.153662,13.718078 a 0.36,0.36 0 0 1 -0.1999999,0.06 c 0,0.28 0,0.9 0,0.9 a 0.5,0.5 0 0 0 0.2099999,-0.05 l 3.28,-2 a 0.39,0.39 0 0 0 0.19,-0.35 v -0.66 z"
        class="cls-3"/>
    <path
        style="fill:#4285f4;fill-rule:evenodd"
        d="M 13.423662,8.0980784 9.9536621,10.148078 v 0.9 L 13.613662,8.8680784 v -0.43 a 0.39,0.39 0 0 0 -0.19,-0.34 z"
        class="cls-3"/>
    <path
        style="fill:#669df6;fill-rule:evenodd"
        d="m 5.7336621,15.848078 4.15,2.47 a 2.72,2.72 0 0 1 1.2799999,1.8 0.18,0.18 0 0 1 -0.28,0.18 l -5.4499999,-3.23 c -0.53,-0.32 -0.07,-1.88 -0.07,-1.88 a 0.77,0.77 0 0 0 0.37,0.66 z"
        class="cls-1"/>
    <path
        style="fill:#aecbfa;fill-rule:evenodd"
        d="M 4.4636621,16.048078 V 9.4880784 a 0.41,0.41 0 0 1 0.19,-0.33 l 1,-0.59 v 7.9099996 c 0,0.27 0,0.69 0.21,0.83 l -1.06,-0.66 a 0.75,0.75 0 0 1 -0.34,-0.6 z"
        class="cls-2"/>
    <path
        style="fill:#669df6;fill-rule:evenodd"
        d="m 8.1136621,3.7780784 a 0.75,0.75 0 0 0 -0.74,0 l -4.2,2.54 a 2.63,2.63 0 0 1 -2.08,0.26 0.23,0.23 0 0 1 0,-0.4 c 0.18,-0.09 6.32,-3.74 6.32,-3.74 0.23,-0.14 0.74,1.39 0.74,1.39 z"
        class="cls-1"/>
    <path
        style="fill:#aecbfa;fill-rule:evenodd"
        d="m 8.1036621,2.3980784 5.3199999,3.15 a 0.37,0.37 0 0 1 0.2,0.31 v 1.18 l -6.6699999,-3.96 a 0.75,0.75 0 0 0 -0.74,0 l 1.18,-0.69 a 0.71,0.71 0 0 1 0.73,0 z"
        class="cls-2"/>
    <path
        style="fill:#669df6;fill-rule:evenodd"
        d="m 11.773662,16.808078 a 0.73,0.73 0 0 0 0.74,0 l 4.2,-2.49 a 2.63,2.63 0 0 1 2.1,-0.25 0.21,0.21 0 0 1 0,0.38 l -6.33,3.75 c -0.22,0.14 -0.74,-1.4 -0.74,-1.4 z"
        class="cls-1"/>
    <path
        style="fill:#aecbfa;fill-rule:evenodd"
        d="m 6.4636621,15.068078 a 0.56,0.56 0 0 1 -0.17,-0.33 v -1.16 l 6.6599999,3.93 a 0.69,0.69 0 0 0 0.73,0 l -1.18,0.7 a 0.7,0.7 0 0 1 -0.74,0 z"
        class="cls-2"/>
    <path
        style="fill:#669df6;fill-rule:evenodd"
        d="m 4.2136621,8.1280784 a 0.76,0.76 0 0 0 -0.37,0.65 v 4.9999996 a 2.75,2.75 0 0 1 -0.87,2 0.18,0.18 0 0 1 -0.3,-0.13 V 8.0880784 c 0,-0.28 1.54,0 1.54,0 z"
        class="cls-1"/>
    <path
        style="fill:#aecbfa;fill-rule:evenodd"
        d="m 7.7236621,4.8380784 a 0.34,0.34 0 0 1 0.36,0 l 1,0.59 -6.08,3.56 a 0.77,0.77 0 0 0 -0.37,0.66 v -1.39 a 0.72,0.72 0 0 1 0.38,-0.64 z"
        class="cls-2"/>
    <path
        style="fill:#669df6;fill-rule:evenodd"
        d="M 16.123662,11.758078 V 6.7580784 a 2.81,2.81 0 0 1 0.84,-2 c 0,0 0.33,-0.11 0.31,0.21 -0.02,0.32 0,7.3699996 0,7.3699996 -0.31,0.37 -1.61,0 -1.61,0 a 0.81,0.81 0 0 0 0.46,-0.58 z"
        class="cls-1"/>
    <path
        style="fill:#aecbfa;fill-rule:evenodd"
        d="m 16.953662,12.928078 -4.74,2.85 a 0.35,0.35 0 0 1 -0.37,0 l -1,-0.57 6.11,-3.67 a 0.77,0.77 0 0 0 0.37,-0.66 v 1.44 c -0.02,0.23 -0.37,0.61 -0.37,0.61 z"
        class="cls-2"/>
  </g>
  <g transform="translate(-15.94051,-15.425685)">
    <polygon
        points="35.8,36.8 32.6,36.8 32.6,38.7 39,38.7 39,32.3 37.1,32.3 37.1,35.4 31.9,30.2 30.5,31.5 "
        style="fill:#3d6480"/>
  </g>
</svg>
