<?xml version="1.0" encoding="UTF-8" standalone="no"?>
<svg
   xmlns="http://www.w3.org/2000/svg"
   id="svg4"
   version="1.1"
   viewBox="0 0 1000 1000"
   width="1000px"
   height="1000px"
>

  <defs
     id="defs8" />
  <path
     id="path2"
     d="M674.2 552.7c-38.2 0-72.4 17-95.9 43.6l-60.1-42.5c6.5-17.4 10.1-36.4 10.1-56.1 0-19.5-3.6-38-9.6-55.2l59.9-42c23.5 26.4 57.5 43.4 95.7 43.4 70.4 0 127.7-57.2 127.7-127.7 0-70.4-57.2-127.7-127.7-127.7-70.4 0-127.7 57.2-127.7 127.7 0 12.5 2 24.8 5.4 36.2l-60.1 42c-25-31.1-61.3-52.8-102.2-59.5v-72.2c57.9-12.3 101.5-63.7 101.5-125C491.1 67.2 433.8 10 363.4 10S235.7 67.2 235.7 137.7c0 60.6 42.5 111.3 99.3 124.5v73.1c-77.8 13.4-136.8 80.9-136.8 162.3 0 81.6 59.7 149.4 137.5 162.5v77.4c-57.2 12.5-100.4 63.7-100.4 124.8 0 70.4 57.2 127.7 127.7 127.7 70.4 0 128.1-57.2 128.1-127.9 0-61-43.2-112.2-100.4-124.8V660c40.2-6.7 75.6-27.9 100.4-58.4l60.4 42.7c-3.4 11.4-5.1 23.5-5.1 36 0 70.4 57.2 127.7 127.7 127.7 70.4 0 127.7-57.2 127.7-127.7-.2-70.4-57.2-127.6-127.6-127.6zm0-298.8c34.2 0 61.9 27.7 61.9 61.9s-27.7 61.9-61.9 61.9S612 350 612 315.8c0-34.1 28-61.9 62.2-61.9zm-373-116.2c0-34.2 27.7-61.9 61.9-61.9s61.9 27.7 61.9 61.9-27.7 61.9-61.9 61.9c-34.1 0-61.9-27.9-61.9-61.9zm123.9 724.4c0 34.2-27.7 61.9-61.9 61.9s-61.9-27.7-61.9-61.9 27.7-61.9 61.9-61.9 61.9 27.9 61.9 61.9zM363.2 584c-47.6 0-86.3-38.7-86.3-86.3 0-47.6 38.7-86.3 86.3-86.3 47.6 0 86.3 38.7 86.3 86.3.2 47.6-38.7 86.3-86.3 86.3zm311 158.5c-34.2 0-61.9-27.7-61.9-61.9s27.7-61.9 61.9-61.9 61.9 27.7 61.9 61.9-27.9 61.9-61.9 61.9z" />
</svg>
