<?xml version="1.0" encoding="UTF-8" standalone="no"?>
<!-- Generator: Adobe Illustrator 17.0.0, SVG Export Plug-In . SVG Version: 6.00 Build 0)  -->

<svg
   xmlns:dc="http://purl.org/dc/elements/1.1/"
   xmlns:cc="http://creativecommons.org/ns#"
   xmlns:rdf="http://www.w3.org/1999/02/22-rdf-syntax-ns#"
   xmlns="http://www.w3.org/2000/svg"
   xmlns:sodipodi="http://sodipodi.sourceforge.net/DTD/sodipodi-0.dtd"
   xmlns:inkscape="http://www.inkscape.org/namespaces/inkscape"
   version="1.1"
   id="Layer_1"
   x="0px"
   y="0px"
   width="42px"
   height="42px"
   viewBox="0 0 42 42"
   enable-background="new 0 0 42 42"
   xml:space="preserve"
   inkscape:version="0.91 r13725"
   sodipodi:docname="WFF.svg"
   inkscape:export-filename="/Users/puls3/Desktop/WFF.png"
   inkscape:export-xdpi="90"
   inkscape:export-ydpi="90"><metadata
     id="metadata3500"><rdf:RDF><cc:Work
         rdf:about=""><dc:format>image/svg+xml</dc:format><dc:type
           rdf:resource="http://purl.org/dc/dcmitype/StillImage" /></cc:Work></rdf:RDF></metadata><defs
     id="defs3498" /><sodipodi:namedview
     pagecolor="#ffffff"
     bordercolor="#666666"
     borderopacity="1"
     objecttolerance="10"
     gridtolerance="10"
     guidetolerance="10"
     inkscape:pageopacity="0"
     inkscape:pageshadow="2"
     inkscape:window-width="1299"
     inkscape:window-height="848"
     id="namedview3496"
     showgrid="false"
     inkscape:zoom="14.02381"
     inkscape:cx="9.4125641"
     inkscape:cy="21"
     inkscape:window-x="307"
     inkscape:window-y="45"
     inkscape:window-maximized="0"
     inkscape:current-layer="Layer_1" /><path
     style="fill:none"
     inkscape:connector-curvature="0"
     id="path3480"
     d="m 32.9,28.115 c -2.693,0 -4.875,2.183 -4.875,4.875 0,2.692 2.182,4.875 4.875,4.875 2.692,0 4.875,-2.183 4.875,-4.875 0,-2.692 -2.183,-4.875 -4.875,-4.875 z m 1.369,7.41 -2.203,-2.202 0,-3.373 1.5,0 0,2.752 1.764,1.763 -1.061,1.06 z" /><path
     style="fill:#eff9fe"
     inkscape:connector-curvature="0"
     id="path3486"
     d="m 30.063,13.417 -4.257,0 0,-4.258 -13.379,0 0,24.41 10.277,0 7.396,-7.395 -0.037,-12.757 z m -11.538,11.731 -3.201,0 0,-0.801 3.201,0 0,0.801 z m 8.701,-3.383 -11.903,0 0,-0.801 11.902,0 0,0.801 z m 0,-3.383 -11.903,0 0,-0.801 11.902,0 0,0.801 z" /><polygon
     style="fill:#3d6480"
     id="polygon3488"
     points="25.805,13.417 30.063,13.417 30.099,26.174 31.795,24.479 31.763,13.427 30.054,11.718 27.506,11.718 27.506,9.17 25.795,7.46 10.726,7.46 10.726,35.269 21.005,35.269 22.704,33.57 12.427,33.57 12.427,9.159 25.805,9.159 " /><rect
     style="fill:#3d6480"
     id="rect3490"
     height="0.801"
     width="11.902"
     y="17.580999"
     x="15.323" /><rect
     style="fill:#3d6480"
     id="rect3492"
     height="0.801"
     width="11.902"
     y="20.964001"
     x="15.323" /><rect
     style="fill:#3d6480"
     id="rect3494"
     height="0.801"
     width="3.201"
     y="24.347"
     x="15.323" /><path
     style="fill:#3d6480"
     inkscape:connector-curvature="0"
     id="path3365"
     d="m 35.789665,35.827504 c 0.529,-0.778 0.84,-1.715 0.84,-2.725 0,-2.678 -2.179,-4.856 -4.857,-4.856 -2.678,0 -4.856,2.179 -4.856,4.856 0,2.677 2.179,4.856 4.856,4.856 0.983,0 1.895,-0.298 2.661,-0.801 l 3.051,3.051 1.344,-1.344 -3.039,-3.037 z m -4.018,0.631 c -1.851,0 -3.356,-1.506 -3.356,-3.356 0,-1.851 1.506,-3.356 3.356,-3.356 1.852,0 3.357,1.506 3.357,3.356 0.001,1.851 -1.505,3.356 -3.357,3.356 z" /><path
     style="fill:#fe9c04;stroke:#ffe680;stroke-width:0.0713073;fill-opacity:1"
     d="m 31.006936,36.329456 c -1.621525,-0.393255 -2.729201,-1.996167 -2.516896,-3.64219 0.151771,-1.176702 0.80013,-2.055848 1.907175,-2.586043 0.438556,-0.210037 0.619349,-0.254478 1.160857,-0.285354 1.09853,-0.06264 1.996733,0.300908 2.690361,1.088911 1.656461,1.881839 0.72011,4.844946 -1.712233,5.418408 -0.533966,0.125891 -1.027672,0.127915 -1.529264,0.0063 z"
     id="path4222"
     inkscape:connector-curvature="0" /></svg>