<svg xmlns="http://www.w3.org/2000/svg" version="1.1" xml:space="preserve" width="437.64999" height="437.58511" viewBox="0 0 437.65 437.58511">
    <g id="g10"
       transform="matrix(1.25,0,0,-1.25,0,505.5675)"><g id="g12" transform="scale(0.1,0.1)"><path d="M 3501.2,2293.57 C 3501.2,1327.21 2717.33,543.859 1750.51,543.859 784.395,543.859 0,1327.21 0,2293.57 c 0,967.19 784.395,1750.97 1750.51,1750.97 966.82,0 1750.69,-783.78 1750.69,-1750.97" style="fill:#ed1f35;fill-opacity:1;fill-rule:nonzero;stroke:none" id="path14" /><path
            d="m 1871.98,2803.6 0,-2.63 0,2.63" style="fill:#a02927;fill-opacity:1;fill-rule:nonzero;stroke:none"
            id="path16"/><path
            d="m 1602.31,2394.91 c 20.23,16.55 35.84,145.04 -59.21,213.81 -95.02,68.69 -222.01,52.15 -312.36,75.05 -90.38,22.91 -301.119,116.01 -390.283,146.96 -203.328,70.68 -428.445,85.89 -428.445,85.89 0,0 253.98,-31.79 407.39,-91.62 153.485,-59.78 341.988,-137.42 425.338,-234.76 83.35,-97.35 5.48,-311.12 67.8,-494.36 62.3,-183.27 241.46,-381.77 443.99,-429.52 0,0 -161.59,75.03 -207.99,147 -77.1,119.62 -53.73,197.22 -35.04,301.57 18.69,104.38 -53.75,217.63 -53.75,217.63 0,0 58.43,-3.81 107.49,-89.72 20.72,134.61 -109.82,194.09 -154.2,209.99 -44.42,15.88 -97.51,80.2 -65.47,127.89 52.21,77.59 270.33,-2.57 254.74,-185.81"
            style="fill:#ffffff;fill-opacity:1;fill-rule:nonzero;stroke:none" id="path18"
    /><path
            d="m 1602.31,2394.91 c 20.23,16.55 35.84,145.04 -59.21,213.81 -95.02,68.69 -222.01,52.15 -312.36,75.05 -90.38,22.91 -301.119,116.01 -390.283,146.96 -203.328,70.68 -428.445,85.89 -428.445,85.89 0,0 253.98,-31.79 407.39,-91.62 153.485,-59.78 341.988,-137.42 425.338,-234.76 83.35,-97.35 5.48,-311.12 67.8,-494.36 62.3,-183.27 241.46,-381.77 443.99,-429.52 0,0 -161.59,75.03 -207.99,147 -77.1,119.62 -53.73,197.22 -35.04,301.57 18.69,104.38 -53.75,217.63 -53.75,217.63 0,0 58.43,-3.81 107.49,-89.72 20.72,134.61 -109.82,194.09 -154.2,209.99 -44.42,15.88 -97.51,80.2 -65.47,127.89 52.21,77.59 270.33,-2.57 254.74,-185.81 z"
            style="fill:none;stroke:#ffffff;stroke-width:2.31533003;stroke-linecap:butt;stroke-linejoin:miter;stroke-miterlimit:4;stroke-dasharray:none;stroke-opacity:1"
            id="path20"/><path
            d="m 1784.68,1835.16 c 0,0 -107.18,90.39 -79.97,261.5 39.56,248.83 333.9,352.85 248.48,373.68 -106.64,26.05 -273.96,-232.8 -299.51,-145.2 -51.3,175.74 299.39,399.61 467.7,479.6 241.06,114.52 920.96,365.46 914.73,345.36 -40.97,-131.79 -248.03,-148.55 -610.53,-274.25 -107.37,-37.29 -352.76,-134.89 -362.87,-146.34 -10.1,-11.39 219.19,85.62 365.68,136.34 202.24,70.07 402.06,132.05 394.75,111.25 -36.31,-103.37 -224.71,-144.53 -489.77,-216.47 -81.56,-22.2 -256.31,-68.32 -264.47,-77.95 -8.21,-9.64 185.75,47.75 263.38,68.85 212.27,57.78 341.53,95.47 328.98,61.16 -39.81,-108.86 -207.79,-120.33 -426.33,-166.51 -50.61,-10.69 -151.85,-29.93 -158.84,-39.23 -7.08,-9.33 99.6,17.23 161.69,29.51 106.86,21.08 210.9,37.23 171.75,-13.98 -61.62,-80.76 -94.89,-101.41 -198.16,-139.61 -425.17,-157.12 -474.16,-304.73 -492.86,-397.64 -29.22,-145.21 66.17,-250.07 66.17,-250.07"
            style="fill:#ffffff;fill-opacity:1;fill-rule:nonzero;stroke:none" id="path22"
    /><path
            d="m 1470.22,2529.46 c 0,-19.99 -16.23,-36.21 -36.21,-36.21 -20,0 -36.21,16.22 -36.21,36.21 0,20.02 16.21,36.21 36.21,36.21 19.98,0 36.21,-16.19 36.21,-36.21"
            style="fill:#ffffff;fill-opacity:1;fill-rule:nonzero;stroke:none" id="path24"
    /><path
            d="m 1695.98,1905.15 c 0,0 10.2,-134.52 104.85,-256.48 70.92,-91.35 136.85,-94.85 214.99,-187.22 78.3,-92.37 90.04,-189.22 90.04,-189.22 4.2,70.64 -29.23,192.87 -94.74,294.65 -54.47,84.75 -113.63,113.83 -113.63,113.83 49.05,10.97 104.34,-27.41 104.34,-27.41 0,0 -6.73,52.76 -95.41,93.89 -95.95,44.55 -145.37,29.78 -210.44,157.96"
            style="fill:#ffffff;fill-opacity:1;fill-rule:nonzero;stroke:none" id="path26"
    /></g></g>
</svg>