<?xml version="1.0" encoding="UTF-8" standalone="no"?>
<svg
   version="1.1"
   width="32"
   height="32"
   viewBox="0 0 32 32"
   id="svg10"
   xmlns="http://www.w3.org/2000/svg">
  <path
     d="m 21.015401,26.793888 c 0.760542,0 1.744293,-0.578071 1.740641,-1.291139 l 0.05194,-20.5721725 -12.107336,1e-7 c -1.275179,0 -2.5150225,1.260161 -2.519691,2.496225 L 8.1153759,24.790051 6.503817,24.273095 6.5693927,7.4268016 C 6.5777163,5.2875867 8.4190162,3.5533844 10.700643,3.5533844 h 15.147913 c 2.281627,0 3.335614,1.523969 3.321776,2.9492814 l -0.02151,2.2152751 c -1.559454,0.01197 -3.094514,0.038985 -4.653491,0.00728 l -0.02381,16.7775271 c 0,2.139228 -1.849623,3.873418 -4.131249,3.873418 H 6.5693927 c -2.2816259,0 -4.1312493,-1.73419 -4.1312493,-3.873418 V 24.21161 H 17.586058 c 0,1.426153 1.908259,2.582278 3.429343,2.582278 z"
     style="fill:#0e3a5a;fill-opacity:1;stroke-width:1.33341"
     id="path2" />
  <path
     d="m 20.644862,26.741992 c -0.631451,-0.07101 -1.244097,-0.30257 -1.833462,-0.692986 -0.666885,-0.441767 -1.107458,-1.046378 -1.184236,-1.625159 l -0.03315,-0.249913 H 12.865781 8.1375505 l 0.020407,-7.535715 c 0.025345,-9.3594308 0.026691,-9.4417677 0.1608458,-9.84 0.256036,-0.7600325 0.8905379,-1.4151027 1.6614613,-1.7153203 l 0.3164934,-0.1232506 6.246184,-0.012928 6.246183,-0.012928 -0.02203,10.2272139 c -0.01211,5.624967 -0.03272,10.315502 -0.04579,10.42341 -0.0511,0.421893 -0.49638,0.863757 -1.067402,1.059215 -0.338501,0.115867 -0.614301,0.142752 -1.009039,0.09836 z"
     style="fill:#ddccff;fill-opacity:1;stroke:none;stroke-width:0.571991;stroke-linecap:round;stroke-linejoin:round"
     id="path4" />
  <path
     d="m 15.097637,19.960981 q 0,0.29672 -0.311556,0.29672 -0.771473,0 -1.186881,-0.44508 -0.415408,-0.430245 -0.415408,-1.186882 v -2.19573 q 0,-0.637949 -0.504424,-0.964341 -0.489589,-0.326392 -1.023686,-0.326392 -0.311556,0 -0.311556,-0.281885 0,-0.311556 0.311556,-0.311556 0.534097,0 1.023686,-0.311556 0.504424,-0.326393 0.504424,-0.949505 v -2.180895 q 0,-0.771473 0.415408,-1.201717 0.415408,-0.4450805 1.186881,-0.4450805 0.133525,0 0.222541,0.089016 0.08901,0.07418 0.08901,0.2077042 0,0.1186882 -0.103851,0.2077042 -0.08902,0.089016 -0.22254,0.089016 -0.370901,0 -0.682457,0.252212 -0.296721,0.237377 -0.296721,0.801145 v 2.180895 q 0,1.127537 -1.157209,1.572617 1.157209,0.356065 1.157209,1.572618 v 2.19573 q 0,0.548933 0.296721,0.786309 0.311556,0.252213 0.697292,0.252213 0.133525,0 0.222541,0.08901 0.08901,0.08902 0.08901,0.207705 z"
     style="font-size:40px;line-height:1.25;font-family:FreeMono;-inkscape-font-specification:'FreeMono, Normal';white-space:pre;stroke-width:0.370901"
     id="path35519" />
  <path
     d="m 16.301855,19.960981 q 0,-0.118688 0.08902,-0.207705 0.08902,-0.08901 0.222541,-0.08901 0.385736,0 0.682457,-0.252213 0.311556,-0.237376 0.311556,-0.786309 v -2.19573 q 0,-1.216553 1.157209,-1.572618 -1.157209,-0.44508 -1.157209,-1.572617 v -2.1809 q 0,-0.563768 -0.311556,-0.801145 -0.296721,-0.252212 -0.667622,-0.252212 -0.133523,0 -0.237376,-0.089016 -0.08902,-0.089016 -0.08902,-0.2077042 0,-0.1335242 0.08902,-0.2077042 0.08902,-0.089016 0.222541,-0.089016 0.771472,0 1.186881,0.4450805 0.415409,0.4302448 0.415409,1.2017178 v 2.180894 q 0,0.623112 0.489588,0.949505 0.504424,0.311556 1.038521,0.311556 0.311556,0 0.311556,0.311556 0,0.281885 -0.311556,0.281885 -0.534097,0 -1.038521,0.326392 -0.489588,0.326392 -0.489588,0.964341 v 2.19573 q 0,0.756637 -0.415409,1.186882 -0.415409,0.44508 -1.186881,0.44508 -0.311557,0 -0.311557,-0.29672 z"
     style="font-size:40px;line-height:1.25;font-family:FreeMono;-inkscape-font-specification:'FreeMono, Normal';white-space:pre;stroke-width:0.370901"
     id="path35521" />
</svg>
