<?xml version="1.0" encoding="UTF-8" standalone="no"?>
<!-- Generator: Adobe Illustrator 17.0.0, SVG Export Plug-In . SVG Version: 6.00 Build 0)  -->

<svg
   xmlns:dc="http://purl.org/dc/elements/1.1/"
   xmlns:cc="http://creativecommons.org/ns#"
   xmlns:rdf="http://www.w3.org/1999/02/22-rdf-syntax-ns#"
   xmlns="http://www.w3.org/2000/svg"
   xmlns:sodipodi="http://sodipodi.sourceforge.net/DTD/sodipodi-0.dtd"
   xmlns:inkscape="http://www.inkscape.org/namespaces/inkscape"
   version="1.1"
   id="Layer_1"
   x="0px"
   y="0px"
   width="42px"
   height="42px"
   viewBox="0 0 42 42"
   enable-background="new 0 0 42 42"
   xml:space="preserve"
   sodipodi:docname="workflow3.svg"
   inkscape:version="0.92.4 (5da689c313, 2019-01-14)"><metadata
   id="metadata33"><rdf:RDF><cc:Work
       rdf:about=""><dc:format>image/svg+xml</dc:format><dc:type
         rdf:resource="http://purl.org/dc/dcmitype/StillImage" /></cc:Work></rdf:RDF></metadata><defs
   id="defs31" /><sodipodi:namedview
   pagecolor="#ffffff"
   bordercolor="#666666"
   borderopacity="1"
   objecttolerance="10"
   gridtolerance="10"
   guidetolerance="10"
   inkscape:pageopacity="0"
   inkscape:pageshadow="2"
   inkscape:window-width="640"
   inkscape:window-height="480"
   id="namedview29"
   showgrid="false"
   inkscape:zoom="38.846679"
   inkscape:cx="10.636751"
   inkscape:cy="20.851562"
   inkscape:current-layer="Layer_1" />

<polygon
   class="st1"
   points="-286.8,389 -282.8,393 -282.8,391.1 -281,391.1 -281,396 -286,396 -286,394.3 -284,394.3 -288,390.2 "
   id="polygon8"
   transform="matrix(1.4148593,0,0,1.3460595,429.57115,-513.78606)"
   style="fill:#5cc0c4;fill-opacity:1" /><polygon
   class="st1"
   points="-281,399.2 -285,403.2 -283.1,403.2 -283.1,405 -288,405 -288,400 -286.3,400 -286.3,402 -282.2,398 "
   id="polygon10"
   transform="matrix(1.4148593,0,0,1.3460595,429.57115,-513.78606)"
   style="fill:#5cc0c4;fill-opacity:1" /><polygon
   class="st1"
   points="-291.2,405 -295.2,401 -295.2,402.9 -297,402.9 -297,398 -292,398 -292,399.7 -294,399.7 -290,403.8 "
   id="polygon12"
   transform="matrix(1.4148593,0,0,1.3460595,429.57115,-513.78606)"
   style="fill:#5cc0c4;fill-opacity:1" /><polygon
   class="st1"
   points="-297,394.8 -293,390.8 -294.9,390.8 -294.9,389 -290,389 -290,394 -291.7,394 -291.7,392 -295.8,396 "
   id="polygon14"
   transform="matrix(1.4148593,0,0,1.3460595,429.57115,-513.78606)"
   style="fill:#5cc0c4;fill-opacity:1" /></svg>