<?xml version="1.0" encoding="UTF-8" standalone="no"?>
<!-- Generator: Adobe Illustrator 17.0.0, SVG Export Plug-In . SVG Version: 6.00 Build 0)  -->

<svg
   xmlns:dc="http://purl.org/dc/elements/1.1/"
   xmlns:cc="http://creativecommons.org/ns#"
   xmlns:rdf="http://www.w3.org/1999/02/22-rdf-syntax-ns#"
   xmlns:svg="http://www.w3.org/2000/svg"
   xmlns="http://www.w3.org/2000/svg"
   xmlns:sodipodi="http://sodipodi.sourceforge.net/DTD/sodipodi-0.dtd"
   xmlns:inkscape="http://www.inkscape.org/namespaces/inkscape"
   version="1.1"
   id="Layer_1"
   x="0px"
   y="0px"
   width="42px"
   height="42px"
   viewBox="0 0 42 42"
   enable-background="new 0 0 42 42"
   xml:space="preserve"
   sodipodi:docname="environment.svg"
   inkscape:version="0.92.4 (5da689c313, 2019-01-14)"><metadata
   id="metadata43"><rdf:RDF><cc:Work
       rdf:about=""><dc:format>image/svg+xml</dc:format><dc:type
         rdf:resource="http://purl.org/dc/dcmitype/StillImage" /><dc:title></dc:title></cc:Work></rdf:RDF></metadata><defs
   id="defs41">
	
  
  
  
  
  
  
  
  
  
  
  
  
  
  
  
  
</defs><sodipodi:namedview
   pagecolor="#ffffff"
   bordercolor="#666666"
   borderopacity="1"
   objecttolerance="10"
   gridtolerance="10"
   guidetolerance="10"
   inkscape:pageopacity="0"
   inkscape:pageshadow="2"
   inkscape:window-width="640"
   inkscape:window-height="480"
   id="namedview39"
   showgrid="false"
   inkscape:zoom="38.279762"
   inkscape:cx="13.123775"
   inkscape:cy="21"
   inkscape:current-layer="Layer_1" />
<path
   style="fill:#05cc0c;stroke-width:1.46207809;opacity:1;fill-opacity:0.25098041"
   inkscape:connector-curvature="0"
   id="path2"
   d="M 28.384739,9.5656612 C 29.85559,9.1738242 31.282578,8.6562486 32.655469,8.0290171 30.604174,6.1721779 28.106944,4.808059 25.342155,4.1135719 c 1.225221,1.684314 2.229669,3.5206841 3.042584,5.4520893 z" /><path
   style="fill:#05cc0c;stroke-width:1.46207809;opacity:1;fill-opacity:0.25098041"
   inkscape:connector-curvature="0"
   id="path4"
   d="m 33.56342,8.9062639 c -1.508865,0.7208045 -3.090833,1.2997871 -4.719588,1.7427971 1.106793,2.979715 1.69601,6.188977 1.761804,9.491811 h 7.68322 C 38.141186,15.79119 36.374996,11.852351 33.56342,8.9062639 Z" /><path
   style="fill:#05cc0c;stroke-width:1.46207809;opacity:1;fill-opacity:0.25098041"
   inkscape:connector-curvature="0"
   id="path6"
   d="m 21.754215,11.659357 v 8.481515 h 7.681758 c -0.06725,-3.209261 -0.653548,-6.322026 -1.742797,-9.20963 -1.932867,0.44301 -3.921293,0.688639 -5.938961,0.728115 z" /><path
   style="fill:#05cc0c;stroke-width:1.46207809;opacity:1;fill-opacity:0.25098041"
   inkscape:connector-curvature="0"
   id="path8"
   d="m 21.754215,30.969022 v 6.87323 c 0.647701,-0.02193 1.283705,-0.08042 1.912398,-0.172526 1.481085,-1.824673 2.696072,-3.864272 3.62303,-6.0647 -1.799818,-0.38745 -3.655195,-0.600914 -5.535428,-0.636004 z" /><path
   style="fill:#05cc0c;stroke-width:1.46207809;opacity:1;fill-opacity:0.25098041"
   inkscape:connector-curvature="0"
   id="path10"
   d="m 29.437436,21.310535 h -7.683221 v 8.488825 c 2.033751,0.03509 4.042646,0.270484 5.98721,0.704722 1.060007,-2.87006 1.634603,-5.978438 1.696011,-9.193547 z" /><path
   style="fill:#05cc0c;stroke-width:1.46207809;opacity:1;fill-opacity:0.25098041"
   inkscape:connector-curvature="0"
   id="path12"
   d="m 21.754215,10.491157 c 1.858301,-0.03801 3.691747,-0.258788 5.475483,-0.6520872 -0.940117,-2.190193 -2.1668,-4.229792 -3.662506,-6.0705483 C 22.972126,3.685183 22.366826,3.6310862 21.754215,3.6106171 Z" /><path
   style="fill:#05cc0c;stroke-width:1.46207809;opacity:1;fill-opacity:0.25098041"
   inkscape:connector-curvature="0"
   id="path14"
   d="m 28.438836,31.879897 c -0.798294,1.934329 -1.791045,3.763389 -3.001646,5.433082 2.750169,-0.707645 5.229853,-2.077613 7.266528,-3.935914 -1.361195,-0.614073 -2.789645,-1.114103 -4.264882,-1.497168 z" /><path
   style="fill:#05cc0c;stroke-width:1.46207809;opacity:1;fill-opacity:0.25098041"
   inkscape:connector-curvature="0"
   id="path16"
   d="m 30.607098,21.310535 c -0.06141,3.310144 -0.64039,6.51502 -1.719404,9.478652 1.633141,0.434237 3.210724,1.008834 4.710816,1.71648 2.791107,-2.941702 4.544139,-6.864457 4.690346,-11.195132 z" /><path
   style="fill:#0e3a5a;stroke-width:1.46207809"
   inkscape:connector-curvature="0"
   id="path18"
   d="m 21.172308,1.0943807 h -0.416692 v 0.020469 C 10.123384,1.3385477 1.5365992,10.040837 1.5365992,20.725703 c 0,10.703874 8.6160258,19.420784 19.2760378,19.613778 v 0.01754 h 0.359671 c 10.825226,0 19.631323,-8.806096 19.631323,-19.631323 0,-10.825226 -8.806097,-19.6313223 -19.631323,-19.6313223 z m 0.581907,36.7478713 v -6.87323 c 1.880233,0.03363 3.73561,0.248554 5.535428,0.636004 -0.92842,2.200428 -2.141945,4.240027 -3.62303,6.0647 -0.627231,0.09211 -1.264697,0.150594 -1.912398,0.172526 z m -3.077674,-0.172526 c -1.482547,-1.824673 -2.696072,-3.864272 -3.62303,-6.0647 1.798356,-0.38745 3.653733,-0.600914 5.532504,-0.636004 v 6.87323 c -0.647701,-0.02193 -1.282243,-0.08042 -1.909474,-0.172526 z M 23.568654,3.7670594 c 1.495706,1.8407563 2.722389,3.8803553 3.662506,6.0705483 -1.783736,0.3932993 -3.617182,0.6140723 -5.475483,0.6520873 v -6.88054 c 0.612611,0.020469 1.216449,0.074566 1.812977,0.1579044 z m 7.036982,16.3738126 c -0.06579,-3.302834 -0.655011,-6.512096 -1.761804,-9.491811 1.628755,-0.44301 3.209261,-1.0219926 4.719588,-1.7427971 2.811576,2.9460871 4.579229,6.8849261 4.726898,11.2346081 z m -10.019621,0 h -7.678834 c 0.06726,-3.209261 0.653548,-6.322026 1.741335,-9.20963 1.932867,0.441548 3.921293,0.688639 5.936037,0.728115 v 8.481515 z m 0,1.169663 v 8.488825 c -2.033751,0.03655 -4.041184,0.271947 -5.984286,0.704722 -1.060007,-2.87006 -1.634603,-5.978438 -1.696011,-9.193547 z m 1.1682,0 h 7.683221 c -0.06141,3.215109 -0.637466,6.323487 -1.696011,9.193547 -1.944564,-0.432775 -3.951997,-0.66817 -5.98721,-0.704722 z m 0,-1.169663 v -8.481515 c 2.016206,-0.03948 4.006094,-0.286567 5.938961,-0.728115 1.087786,2.886142 1.675542,6.000369 1.742797,9.20963 z M 28.384739,9.5656612 C 27.573286,7.634256 26.568838,5.7978859 25.342155,4.1135719 c 2.766252,0.6944871 5.262019,2.058606 7.313314,3.9154452 -1.372891,0.6286936 -2.799879,1.1448071 -4.27073,1.5366441 z m -7.798724,0.9254958 c -1.856839,-0.03801 -3.690285,-0.258788 -5.472559,-0.6520872 0.940117,-2.190193 2.1668,-4.229792 3.662506,-6.0705483 0.595066,-0.083338 1.198904,-0.1374353 1.811515,-0.1579044 v 6.8805399 z m -6.6276,-0.9254958 C 12.487564,9.1738242 11.060576,8.6562486 9.6876846,8.0290171 11.73898,6.1721779 14.23621,4.808059 17.002461,4.1135719 15.774316,5.7978859 14.769868,7.634256 13.958415,9.5656612 Z m -0.459093,1.0833998 c -1.105331,2.979715 -1.69601,6.188977 -1.761804,9.491811 H 4.0528356 C 4.2005055,15.79119 5.9666958,11.852351 8.7797341,8.9062639 10.288599,9.6270684 11.870567,10.206051 13.499322,10.649061 Z m -1.763266,10.661474 c 0.06141,3.310144 0.64039,6.51502 1.719404,9.478652 -1.633141,0.434237 -3.212186,1.008834 -4.7108158,1.71648 C 5.9535371,29.563965 4.2005055,25.64121 4.0528356,21.310535 Z m 2.168262,10.569362 c 0.798294,1.934329 1.791045,3.763389 3.001646,5.433082 -2.750169,-0.707645 -5.229853,-2.077613 -7.266528,-3.935914 1.361195,-0.614073 2.789645,-1.114103 4.264882,-1.497168 z m 14.534518,0 c 1.475237,0.383065 2.902225,0.883095 4.264882,1.497168 -2.036675,1.858301 -4.516359,3.228269 -7.266528,3.935914 1.210601,-1.669693 2.203352,-3.498753 3.001646,-5.433082 z m 0.448858,-1.09071 c 1.079014,-2.965095 1.657997,-6.16997 1.719404,-9.478652 h 7.681758 c -0.14767,4.330675 -1.899239,8.25343 -4.690346,11.195132 -1.500092,-0.707646 -3.077675,-1.280781 -4.710816,-1.71648 z" /><path
   style="fill:#05cc0c;stroke-width:1.46207809;opacity:1;fill-opacity:0.25098041"
   inkscape:connector-curvature="0"
   id="path20"
   d="m 20.586015,30.969022 c -1.878771,0.03509 -3.734148,0.248554 -5.532504,0.636004 0.92842,2.200428 2.140483,4.240027 3.62303,6.0647 0.627231,0.09211 1.263235,0.150594 1.909474,0.172526 z" /><path
   style="fill:#05cc0c;stroke-width:1.46207809;opacity:1;fill-opacity:0.25098041"
   inkscape:connector-curvature="0"
   id="path22"
   d="M 13.958415,9.5656612 C 14.769868,7.634256 15.774316,5.7978859 17.002461,4.1135719 14.23621,4.808059 11.740442,6.1721779 9.6876846,8.0290171 11.059114,8.6562486 12.487564,9.1738242 13.958415,9.5656612 Z" /><path
   style="fill:#05cc0c;stroke-width:1.46207809;opacity:1;fill-opacity:0.25098041"
   inkscape:connector-curvature="0"
   id="path24"
   d="m 15.111994,9.8376077 c 1.783736,0.3932993 3.615719,0.6140723 5.472559,0.6520873 v -6.88054 c -0.612611,0.020469 -1.216449,0.074566 -1.811515,0.1579044 -1.494244,1.8407563 -2.720927,3.8803553 -3.661044,6.0705483 z" /><path
   style="fill:#05cc0c;stroke-width:1.46207809;opacity:1;fill-opacity:0.25098041"
   inkscape:connector-curvature="0"
   id="path26"
   d="m 11.737518,20.140872 c 0.06579,-3.302834 0.655011,-6.512096 1.761804,-9.491811 C 11.870567,10.206051 10.288599,9.6270684 8.7797341,8.9062639 5.9666958,11.852351 4.2005055,15.79119 4.0528356,20.140872 Z" /><path
   style="fill:#05cc0c;stroke-width:1.46207809;opacity:1;fill-opacity:0.25098041"
   inkscape:connector-curvature="0"
   id="path28"
   d="m 12.907181,20.140872 h 7.678834 v -8.481515 c -2.016206,-0.03948 -4.004632,-0.286567 -5.936037,-0.728115 -1.089249,2.887604 -1.675542,6.000369 -1.742797,9.20963 z" /><path
   style="fill:#05cc0c;stroke-width:1.46207809;opacity:1;fill-opacity:0.25098041"
   inkscape:connector-curvature="0"
   id="path30"
   d="m 20.586015,29.79936 v -8.488825 h -7.680297 c 0.06141,3.215109 0.637467,6.323487 1.696011,9.193547 1.943102,-0.432775 3.950535,-0.66817 5.984286,-0.704722 z" /><path
   style="fill:#05cc0c;stroke-width:1.46207809;opacity:1;fill-opacity:0.25098041"
   inkscape:connector-curvature="0"
   id="path32"
   d="m 13.904318,31.879897 c -1.475237,0.383065 -2.903687,0.883095 -4.2663441,1.497168 2.0366751,1.858301 4.5178211,3.226806 7.2665281,3.935914 -1.209139,-1.669693 -2.20189,-3.498753 -3.000184,-5.433082 z" /><path
   style="fill:#05cc0c;stroke-width:1.46207809;opacity:1;fill-opacity:0.25098041"
   inkscape:connector-curvature="0"
   id="path34"
   d="m 13.45546,30.789187 c -1.079014,-2.965095 -1.657997,-6.16997 -1.719404,-9.478652 H 4.0528356 c 0.1476699,4.330675 1.9007015,8.25343 4.6918086,11.195132 1.4986298,-0.707646 3.0762128,-1.280781 4.7108158,-1.71648 z" />
</svg>