<?xml version="1.0" encoding="utf-8"?>
<svg xmlns="http://www.w3.org/2000/svg" width="42px" height="42px" viewBox="0 0 42 42">
<path fill="#EFF9FE" d="M32.295,10.051h-22.3v22.301h14.128l8.172-8.172V10.051z"/>
<polygon fill="#0F3B5A" points="37.26,32.836 37.26,35.918 32.035,30.693 30.691,32.037 35.918,37.264 32.771,37.264 32.771,39.164 
	39.161,39.161 39.161,32.836 "/>
<polygon fill="#0F3B5A" points="9.995,10.051 32.295,10.051 32.295,24.18 33.995,22.48 33.995,8.352 8.295,8.352 8.295,34.051 
	22.424,34.051 24.123,32.352 9.995,32.352 "/>
<path fill="#BF03B8" d="M17.64,29.693c-1.184,0-2.053-0.263-2.606-0.79c-0.553-0.526-0.829-1.385-0.829-2.574v-2.868
	c0-1.27-0.504-1.904-1.514-1.904v-1.561c1.008,0,1.513-0.668,1.514-2.006v-2.684c0-1.177,0.281-2.044,0.843-2.604
	c0.562-0.56,1.427-0.841,2.592-0.842v1.601c-1.035,0-1.553,0.614-1.553,1.845v2.705c0,1.458-0.482,2.37-1.445,2.734v0.041
	c0.963,0.325,1.445,1.217,1.445,2.675v2.696c0,0.669,0.118,1.158,0.355,1.467c0.236,0.311,0.637,0.466,1.2,0.467L17.64,29.693
	L17.64,29.693z"/>
<path fill="#BF03B8" d="M23.188,17.433c0.001-1.129-0.874-2.043-1.956-2.044c-1.082,0-1.957,0.914-1.958,2.043c0,0,0,0,0,0.001
	c0,1.128,0.876,2.044,1.957,2.044C22.312,19.477,23.188,18.562,23.188,17.433z"/>
<path fill="#BF03B8" d="M24.649,29.693c1.185,0,2.053-0.263,2.605-0.79c0.554-0.526,0.83-1.385,0.828-2.574v-2.868
	c0-1.27,0.506-1.904,1.515-1.904v-1.561c-1.009,0-1.513-0.668-1.515-2.006v-2.684c0-1.177-0.28-2.044-0.842-2.604
	c-0.563-0.561-1.428-0.841-2.594-0.842v1.601c1.036,0,1.555,0.614,1.555,1.845v2.705c0,1.458,0.48,2.37,1.444,2.734v0.041
	c-0.964,0.325-1.444,1.217-1.444,2.675v2.696c0,0.669-0.118,1.158-0.355,1.467c-0.236,0.311-0.637,0.467-1.2,0.469L24.649,29.693
	L24.649,29.693z"/>
<path fill="#BF03B8" d="M23.204,24.362c0.001-1.129-0.874-2.044-1.957-2.044c-1.081-0.002-1.957,0.911-1.958,2.041
	c0,0.002,0,0.002,0,0.003c0.001,1.129,0.878,2.043,1.958,2.041C22.326,26.403,23.204,25.49,23.204,24.362z"/>
</svg>
