<?xml version="1.0" encoding="utf-8"?>
<svg xmlns="http://www.w3.org/2000/svg" width="42px" height="42px" viewBox="0 0 42 42">
<path fill="#EFF9FE" d="M32.156,31.925V9.624H18.103l-8.247,8.247v14.054H32.156z"/>
<polygon fill="#0F3B5A" points="5.35,11.561 11.737,11.56 11.737,5.232 9.837,5.232 9.837,8.315 4.613,3.091 3.27,4.435 8.494,9.66 
	5.35,9.66 "/>
<polygon fill="#0F3B5A" points="19.802,7.925 18.103,9.624 32.156,9.624 32.156,31.925 9.856,31.925 9.856,17.871 8.156,19.571 
	8.156,33.624 33.855,33.624 33.855,7.925 "/>
<path fill="#BF03B8" d="M17.689,29.916c-1.184,0-2.053-0.262-2.606-0.789s-0.829-1.385-0.829-2.574v-2.869
	c0-1.27-0.504-1.904-1.514-1.904v-1.561c1.008,0,1.513-0.668,1.514-2.006v-2.684c0-1.177,0.281-2.044,0.843-2.604
	c0.562-0.56,1.427-0.841,2.592-0.842v1.601c-1.035,0-1.553,0.614-1.553,1.845v2.705c0,1.458-0.482,2.37-1.445,2.734v0.041
	c0.963,0.325,1.445,1.217,1.445,2.674v2.697c0,0.668,0.118,1.158,0.355,1.467c0.236,0.311,0.637,0.465,1.2,0.467L17.689,29.916
	L17.689,29.916z"/>
<path fill="#BF03B8" d="M23.236,17.656c0.001-1.129-0.874-2.043-1.956-2.044c-1.082,0-1.957,0.914-1.958,2.043c0,0,0,0,0,0.001
	c0,1.128,0.876,2.044,1.957,2.044C22.36,19.7,23.236,18.785,23.236,17.656z"/>
<path fill="#BF03B8" d="M24.698,29.916c1.185,0,2.053-0.262,2.605-0.789c0.554-0.527,0.83-1.385,0.828-2.574v-2.869
	c0-1.27,0.506-1.904,1.515-1.904v-1.561c-1.009,0-1.513-0.668-1.515-2.006v-2.684c0-1.177-0.28-2.044-0.842-2.604
	c-0.563-0.561-1.428-0.841-2.594-0.842v1.601c1.036,0,1.555,0.614,1.555,1.845v2.705c0,1.458,0.48,2.37,1.444,2.734v0.041
	c-0.964,0.325-1.444,1.217-1.444,2.674v2.697c0,0.668-0.118,1.158-0.355,1.467c-0.236,0.311-0.637,0.467-1.2,0.469L24.698,29.916
	L24.698,29.916z"/>
<path fill="#BF03B8" d="M23.253,24.586c0.001-1.129-0.874-2.045-1.957-2.045c-1.081-0.002-1.957,0.912-1.958,2.041
	c0,0.002,0,0.002,0,0.004c0.001,1.129,0.878,2.043,1.958,2.041C22.375,26.627,23.253,25.713,23.253,24.586z"/>
</svg>
