<?xml version="1.0" encoding="utf-8"?>
<svg xmlns="http://www.w3.org/2000/svg" width="24px" height="24px" viewBox="0 0 24 24">
<path fill="#BF03B8" d="M7.795,22c-1.387,0-2.404-0.295-3.052-0.886s-0.971-1.554-0.97-2.888V15.01c0-1.423-0.591-2.136-1.773-2.136
	v-1.75c1.181,0,1.772-0.75,1.773-2.25v-3.01c0-1.319,0.329-2.292,0.987-2.92C5.418,2.316,6.431,2.001,7.796,2v1.795
	c-1.212,0-1.819,0.689-1.819,2.069v3.034c0,1.635-0.564,2.658-1.692,3.067v0.046c1.128,0.364,1.692,1.364,1.692,3v3.023
	c0,0.75,0.138,1.299,0.416,1.646c0.277,0.348,0.746,0.521,1.406,0.523L7.795,22L7.795,22z"/>
<path fill="#BF03B8" d="M14.292,8.25c0.001-1.266-1.024-2.292-2.291-2.293c-1.266,0-2.292,1.025-2.293,2.291c0,0,0,0.001,0,0.002
	c0,1.266,1.026,2.292,2.292,2.292C13.266,10.542,14.292,9.516,14.292,8.25z"/>
<path fill="#BF03B8" d="M16.004,22c1.387,0,2.404-0.295,3.051-0.886c0.648-0.591,0.973-1.554,0.971-2.888V15.01
	c0-1.423,0.593-2.136,1.773-2.136v-1.75c-1.182,0-1.771-0.75-1.773-2.25v-3.01c0-1.319-0.328-2.292-0.986-2.92
	C18.379,2.315,17.367,2.001,16.003,2v1.795c1.212,0,1.819,0.689,1.819,2.069v3.034c0,1.635,0.563,2.658,1.691,3.067v0.046
	c-1.129,0.364-1.691,1.364-1.691,3v3.023c0,0.75-0.139,1.299-0.416,1.646c-0.277,0.348-0.746,0.523-1.406,0.525L16.004,22L16.004,22
	z"/>
<path fill="#BF03B8" d="M14.311,16.021c0.002-1.267-1.023-2.293-2.291-2.293c-1.266-0.002-2.292,1.022-2.293,2.289
	c0,0.002,0,0.002,0,0.004c0.001,1.266,1.028,2.291,2.293,2.289C13.284,18.311,14.311,17.286,14.311,16.021z"/>
</svg>
