<?xml version="1.0" encoding="utf-8"?>
<!DOCTYPE svg PUBLIC "-//W3C//DTD SVG 1.1//EN" "http://www.w3.org/Graphics/SVG/1.1/DTD/svg11.dtd">
<svg version="1.1" id="Layer_1" xmlns="http://www.w3.org/2000/svg" xmlns:xlink="http://www.w3.org/1999/xlink" x="0px" y="0px"
	 width="42px" height="42px" viewBox="0 0 42 42" enable-background="new 0 0 42 42" xml:space="preserve">
<polygon fill="#0E3A5A" points="32.01,31.152 30.666,32.497 35.893,37.723 32.746,37.723 32.747,39.624 39.137,39.621 
	39.137,33.296 37.236,33.296 37.236,36.378 "/>
<g>
	<path fill="#0068E0" d="M13.709,21.767l1.176,3.727l18.4,5.443L13.709,21.767z"/>
	<path fill="#000094" d="M20.131,15.597c0.228,0.929-0.011,1.52-1.46,1.374L33.209,30.95c0.165,0.068,0.194-0.047,0.081-0.223
		L20.131,15.597z"/>
	<path fill="#1CCCFC" d="M19.67,8.853c0,0-0.519,0.508,0.026,1.165c0.404,0.489,1.01,0.189,1.01,0.189s0.559-0.324,0.134-1.009
		C20.29,8.307,19.67,8.853,19.67,8.853z M33.318,31.012l-20.626-9.533c0,0-6.74-4.324-6.042-6.033
		c0.68-1.654,6.687,1.678,7.323,1.833c0.635,0.155,0.988-0.263,1.001-0.554c0.018-0.419-0.893-1.62-0.419-2.133
		c0.471-0.512,2.01,0.484,2.01,0.484l1.249,0.897L33.318,31.012z"/>
	<path fill="#1CCCFC" d="M33.4,30.922L19.788,15.279c0,0-2.452-2.888-2.35-3.715c0.101-0.827,3.359,1.813,3.359,1.813
		s0.362,0.362,0.704,0.3c0.343-0.06-0.022-0.652-0.022-0.652s-0.563-1.355-0.188-1.599c0.376-0.241,1.329,0.779,1.329,0.779
		s0.237,0.255,0.487,0.187c0.251-0.071,0.116-0.64,0.116-0.64s-1.721-4.118-0.97-4.425c1.146-0.471,2.776,2.938,3.324,3.998
		C25.715,11.617,33.4,30.922,33.4,30.922L33.4,30.922z M12.158,11.565c0,0-0.697,0.48,0.079,1.403
		c0.715,0.85,1.351,0.409,1.351,0.409s0.659-0.418,0.026-1.206C12.777,11.129,12.158,11.565,12.158,11.565z"/>
</g>
</svg>
