<?xml version="1.0" encoding="UTF-8" standalone="no"?>
<svg
   version="1.1"
   id="svg3718"
   xml:space="preserve"
   width="56"
   height="56"
   viewBox="0 0 56 56"
   xmlns="http://www.w3.org/2000/svg"
   xmlns:svg="http://www.w3.org/2000/svg"
   xmlns:rdf="http://www.w3.org/1999/02/22-rdf-syntax-ns#"
   xmlns:cc="http://creativecommons.org/ns#"
   xmlns:dc="http://purl.org/dc/elements/1.1/"><metadata
     id="metadata3724"><rdf:RDF><cc:Work
         rdf:about=""><dc:format>image/svg+xml</dc:format><dc:type
           rdf:resource="http://purl.org/dc/dcmitype/StillImage" /></cc:Work></rdf:RDF></metadata><defs
     id="defs3722"><clipPath
       clipPathUnits="userSpaceOnUse"
       id="clipPath3746"><path
         d="M 0,42 H 42 V 0 H 0 Z"
         id="path3744" /></clipPath><clipPath
       clipPathUnits="userSpaceOnUse"
       id="clipPath3768"><path
         d="M 0,42 H 42 V 0 H 0 Z"
         id="path3766" /></clipPath><clipPath
       clipPathUnits="userSpaceOnUse"
       id="clipPath3848"><g
         id="use3850"><path
           style="fill:none;stroke:#3d6380;stroke-width:0.71854782;stroke-linecap:butt;stroke-linejoin:miter;stroke-miterlimit:4;stroke-dasharray:none;stroke-opacity:1;paint-order:normal"
           d="M 9.8863714,32.973593 9.7095947,7.5882734 H 23.04993 l 8.699817,8.0433406 v 17.35557 H 19.91937 Z"
           id="path4771" /></g></clipPath><clipPath
       clipPathUnits="userSpaceOnUse"
       id="clipPath3746-5"><path
         d="M 0,42 H 42 V 0 H 0 Z"
         id="path3744-3" /></clipPath></defs><g
     id="g3726"
     transform="matrix(1.3333333,0,0,-1.3333333,0,56)"
     style="display:inline">
</g><g
     id="layer1"><path
   style="display:inline;fill:none;fill-opacity:1;fill-rule:evenodd;stroke-width:0;stroke-miterlimit:4;stroke-dasharray:none"
   d="M 31.201358,51.433464 V 36.348519 h 15.143871 15.14387 V 51.433464 66.518409 H 46.345229 31.201358 Z m 21.585773,12.22069 c 0.366958,-0.790522 0.990445,-2.126741 1.385527,-2.969376 l 0.71833,-1.532065 2.444635,-0.492618 c 1.344548,-0.27094 2.484409,-0.49633 2.533023,-0.500867 0.04861,-0.0045 0.08727,-3.070906 0.08591,-6.814152 l -0.0025,-6.805903 -3.314325,-1.59099 c -1.822878,-0.875045 -3.380509,-1.655341 -3.461399,-1.733991 -0.08089,-0.07865 -1.671311,-0.881754 -3.534267,-1.784674 l -3.387194,-1.641673 -2.017227,0.991679 -2.017226,0.99168 -0.05892,1.285011 -0.05893,1.285012 -1.486134,-0.479794 -1.486134,-0.479793 -1.430682,0.68446 -1.430681,0.684461 v 0.696008 c 0,0.607406 -0.02625,0.688286 -0.206239,0.635349 -0.113432,-0.03336 -0.539751,-0.144986 -0.947376,-0.248053 l -0.741137,-0.187396 -0.820364,0.446352 -0.820365,0.446352 0.02944,6.827887 0.02944,6.827885 0.405614,0.105094 c 0.269498,0.06983 0.672255,0.380879 1.200184,0.926915 0.711095,0.735486 0.87815,0.845726 1.590135,1.049335 0.43756,0.125131 0.805917,0.215197 0.81857,0.200149 0.01265,-0.01505 0.162861,-0.305786 0.333796,-0.646081 0.239882,-0.477554 0.372769,-0.618718 0.58244,-0.618718 0.378516,0 0.980027,0.492755 1.906171,1.561527 0.435303,0.50234 0.864941,0.913346 0.95475,0.913346 0.08981,0 0.163291,0.045 0.163291,0.100002 0,0.055 0.437522,0.212662 0.972272,0.350359 1.801247,0.46382 1.547885,0.543083 2.097228,-0.656108 0.454859,-0.992937 0.501603,-1.051339 0.798675,-0.997897 0.416589,0.07494 0.531579,0.175331 1.291476,1.127501 0.354548,0.444256 0.987566,1.160202 1.406709,1.59099 l 0.762076,0.78325 1.963173,0.547076 c 1.079745,0.300891 1.98969,0.549933 2.022099,0.553426 0.03241,0.0035 0.359165,-0.640437 0.726123,-1.430957 z"
   id="path4717" /><path
   style="display:inline;fill:none;fill-opacity:1;fill-rule:evenodd;stroke-width:0;stroke-miterlimit:4;stroke-dasharray:none"
   d="M 31.201358,51.433464 V 36.348519 h 15.143871 15.14387 V 51.433464 66.518409 H 46.345229 31.201358 Z m 21.585773,12.22069 c 0.366958,-0.790522 0.990445,-2.126741 1.385527,-2.969376 l 0.71833,-1.532065 2.444635,-0.492618 c 1.344548,-0.27094 2.484409,-0.49633 2.533023,-0.500867 0.04861,-0.0045 0.08727,-3.070906 0.08591,-6.814152 l -0.0025,-6.805903 -3.314325,-1.59099 c -1.822878,-0.875045 -3.380509,-1.655341 -3.461399,-1.733991 -0.08089,-0.07865 -1.671311,-0.881754 -3.534267,-1.784674 l -3.387194,-1.641673 -2.017227,0.991679 -2.017226,0.99168 -0.05892,1.285011 -0.05893,1.285012 -1.486134,-0.479794 -1.486134,-0.479793 -1.430682,0.68446 -1.430681,0.684461 v 0.696008 c 0,0.607406 -0.02625,0.688286 -0.206239,0.635349 -0.113432,-0.03336 -0.539751,-0.144986 -0.947376,-0.248053 l -0.741137,-0.187396 -0.820364,0.446352 -0.820365,0.446352 0.02944,6.827887 0.02944,6.827885 0.405614,0.105094 c 0.269498,0.06983 0.672255,0.380879 1.200184,0.926915 0.711095,0.735486 0.87815,0.845726 1.590135,1.049335 0.43756,0.125131 0.805917,0.215197 0.81857,0.200149 0.01265,-0.01505 0.162861,-0.305786 0.333796,-0.646081 0.239882,-0.477554 0.372769,-0.618718 0.58244,-0.618718 0.378516,0 0.980027,0.492755 1.906171,1.561527 0.435303,0.50234 0.864941,0.913346 0.95475,0.913346 0.08981,0 0.163291,0.045 0.163291,0.100002 0,0.055 0.437522,0.212662 0.972272,0.350359 1.801247,0.46382 1.547885,0.543083 2.097228,-0.656108 0.454859,-0.992937 0.501603,-1.051339 0.798675,-0.997897 0.416589,0.07494 0.531579,0.175331 1.291476,1.127501 0.354548,0.444256 0.987566,1.160202 1.406709,1.59099 l 0.762076,0.78325 1.963173,0.547076 c 1.079745,0.300891 1.98969,0.549933 2.022099,0.553426 0.03241,0.0035 0.359165,-0.640437 0.726123,-1.430957 z"
   id="path4719" /><path
   style="display:inline;fill:none;fill-opacity:1;fill-rule:nonzero;stroke-width:0;stroke-miterlimit:4;stroke-dasharray:none"
   d="m 44.017145,59.210188 c -0.194454,-0.04158 -0.575814,-0.08188 -0.847465,-0.08955 -0.271652,-0.0077 -0.521874,-0.05919 -0.55605,-0.114483 -0.03417,-0.0553 -0.474827,-0.168713 -0.979227,-0.252038 -0.504399,-0.08332 -0.952209,-0.183923 -0.995132,-0.223551 -0.04292,-0.03963 -0.09547,-4.592343 -0.116775,-10.117143 l -0.03873,-10.04509 1.930564,-0.947611 c 1.06181,-0.521186 1.949894,-0.928281 1.97352,-0.904655 0.02363,0.02363 0.02943,5.15648 0.0129,11.406343 L 44.3707,59.285796 Z"
   id="path4721" /><path
   style="display:inline;fill:#eef8fd;fill-opacity:1;stroke:#3d6380;stroke-width:0.95806372;stroke-linecap:butt;stroke-linejoin:miter;stroke-miterlimit:4;stroke-dasharray:none;stroke-opacity:1;paint-order:normal"
   d="M 12.886272,45.310008 H 28.552066 L 42.219644,30.696468 42.155284,14.17634 39.79826,14.15537 39.80736,11.503719 12.975265,11.453859 Z"
   id="path4911" /><rect
   style="display:inline;fill:#ffffff;fill-rule:evenodd;stroke-width:1.69643354"
   id="rect3928"
   width="7.9970651"
   height="27.789803"
   x="51.363533"
   y="-14.055373"
   transform="matrix(0.68027073,0.73296093,-0.68027073,0.73296093,0,0)" /><polygon
   transform="translate(33.937472,35.303334)"
   style="display:inline;fill:#3d6480"
   points="8.678,9.903 5.534,9.903 5.534,11.803 11.922,11.802 11.922,5.475 10.021,5.475 10.021,8.558 4.798,3.334 3.454,4.677 "
   id="polygon2" /><g
   transform="matrix(1.3333333,0,0,-1.3333333,-0.059854,55.427705)"
   style="display:inline"
   id="g3740"><g
     id="g3742"
     clip-path="url(#clipPath3746-5)"><g
       id="g3748"
       transform="translate(39,42)" /><g
       id="g3752"
       transform="translate(0.1661,12.7012)"><path
         d="M 0,0 -0.166,0.169 0.087,0.418 0.253,0.249 Z"
         style="fill:#ff00ff;fill-opacity:1;fill-rule:nonzero;stroke:none"
         id="path3754" /></g></g></g><text
   xml:space="preserve"
   style="font-style:normal;font-weight:normal;font-size:9.2955px;line-height:1.1;font-family:sans-serif;letter-spacing:0px;word-spacing:0px;display:inline;fill:#3d6380;fill-opacity:1;stroke:none;stroke-width:0.232387"
   x="17.823645"
   y="24.912724"
   id="text3794"
   transform="scale(0.98527758,1.0149424)"><tspan
     id="tspan3792"
     x="17.823645"
     y="24.912724"
     style="line-height:1.1;fill:#3d6380;fill-opacity:1;stroke-width:0.232387">AWS</tspan><tspan
     x="17.823645"
     y="35.137772"
     style="line-height:1.1;fill:#3d6380;fill-opacity:1;stroke-width:0.232387"
     id="tspan4601">SQS</tspan></text>
    <rect
   style="display:inline;fill:#ffffff;fill-rule:evenodd;stroke-width:0.75908685"
   id="rect3928-3"
   width="3.5783699"
   height="12.434836"
   x="-26.729025"
   y="-46.455833"
   transform="matrix(-0.64975195,0.7601463,-0.64975195,-0.7601463,0,0)" />
</g></svg>
