<?xml version="1.0" encoding="utf-8"?>
<svg
        xmlns="http://www.w3.org/2000/svg" x="0px" y="0px"
        version="1.1"
        viewBox="0 0 42 42"
        width="42"
        height="42"
        enable-background="new 0 0 42 42"
        xml:space="preserve"
>
  <path fill="#FFECCE"
        d="M13,17.2c0.1-0.5,2.9-1.5,7.9-1.5c5,0,7.9,1,8,1.5v0.8c-1,0.7-3.9,1.3-7.9,1.3c-4.1,0-7-0.6-8.1-1.3V17.2z"
  />
    <path fill="#FFECCE" d="M27,24.8c0.9-0.2,1.6-0.5,2-0.8v-5.2c-2.2,1.1-6.7,1.2-7.9,1.2c-2.3,0-4.6-0.2-6.2-0.6
	c-0.8-0.2-1.4-0.4-1.8-0.6v5.2c1.1,0.7,3.9,1.3,8,1.3C23.4,25.4,25.5,25.2,27,24.8z"/>
    <path fill="#FFECCE" d="M21.1,26.2c-2.3,0-4.6-0.2-6.2-0.6c-0.8-0.2-1.4-0.4-1.8-0.6v5c0,0.6,2.8,1.7,8,1.7h0c1.5,0,2.9-0.1,4.1-0.3
	l3.7-3.7V25C26.7,26.1,22.2,26.2,21.1,26.2z"/>
    <path fill="#3D6480" d="M21.1,31.7L21.1,31.7c-5.2,0-8-1.1-8-1.7v-5c0.5,0.2,1.1,0.4,1.8,0.6c1.7,0.4,3.9,0.6,6.2,0.6
	c1.1,0,5.6-0.1,7.9-1.2v2.6l1.7-1.7v-8.5c0-3-7.5-3.2-9.8-3.2c-2.9,0-9.6,0.3-9.6,3.2v12.5c0,3.3,8.1,3.4,9.7,3.4h0
	c0.8,0,1.5,0,2.2-0.1l1.9-1.9C24,31.6,22.6,31.7,21.1,31.7z M13,17.2c0.1-0.5,2.9-1.5,7.9-1.5c5,0,7.9,1,8,1.5v0.8
	c-1,0.7-3.9,1.3-7.9,1.3c-4.1,0-7-0.6-8.1-1.3V17.2z M13,18.8c0.5,0.2,1.1,0.4,1.8,0.6c1.7,0.4,3.9,0.6,6.2,0.6
	c1.1,0,5.6-0.1,7.9-1.2v5.2c-0.4,0.3-1.1,0.5-2,0.8c-1.5,0.4-3.6,0.6-5.9,0.6c-4.1,0-7-0.6-8-1.3V18.8z"/>
    <polygon fill="#3D6480"
             points="37.2,32.7 37.2,35.8 32,30.6 30.7,31.9 35.9,37.2 32.7,37.2 32.7,39.1 39.1,39.1 39.1,32.7 "/>
    <g>
	<path fill="#3D6480" d="M4.8,10c0,0.9,0.4,1.2,1.4,1.2c0.4,0,1,0,1.6-0.1l0.1,0.7C7.4,11.9,6.7,12,6.2,12c-1.6,0-2.3-0.7-2.3-2V7.1
		c0-1.3,0.6-2,2.3-2c0.5,0,1.2,0.1,1.7,0.2L7.8,6.1C7.3,6,6.6,5.9,6.2,5.9c-1.1,0-1.4,0.3-1.4,1.2V10z"/>
        <path fill="#3D6480" d="M11.8,11.9h-0.7l0-0.4c-0.4,0.3-1,0.5-1.6,0.5c-0.9,0-1.3-0.5-1.3-1.4c0-1,0.5-1.4,1.5-1.4h1.3V8.5
		c0-0.6-0.3-0.8-1.1-0.8c-0.5,0-1.1,0.1-1.5,0.2L8.3,7.1C8.8,7,9.4,6.9,9.9,6.9c1.4,0,1.8,0.5,1.8,1.6V11.9z M10.9,9.9H9.7
		C9.2,9.9,9,10.1,9,10.6c0,0.5,0.1,0.7,0.7,0.7c0.4,0,0.9-0.2,1.3-0.4V9.9z"/>
        <path fill="#3D6480" d="M13.9,12c-0.5,0-1.2-0.1-1.5-0.3l0.1-0.7c0.4,0.1,1,0.2,1.4,0.2c0.8,0,0.9-0.1,0.9-0.7s0-0.6-1-0.8
		c-1.2-0.3-1.3-0.5-1.3-1.6c0-0.9,0.4-1.3,1.7-1.3c0.5,0,1,0.1,1.4,0.2l-0.1,0.7C15,7.7,14.4,7.7,14,7.7c-0.7,0-0.8,0.2-0.8,0.6
		c0,0.5,0,0.6,0.8,0.8c1.4,0.4,1.5,0.5,1.5,1.5C15.5,11.5,15.2,12,13.9,12z"/>
        <path fill="#3D6480" d="M17.5,12c-0.5,0-1.2-0.1-1.5-0.3l0.1-0.7c0.4,0.1,1,0.2,1.4,0.2c0.8,0,0.9-0.1,0.9-0.7s0-0.6-1-0.8
		C16.1,9.5,16,9.3,16,8.2c0-0.9,0.4-1.3,1.7-1.3c0.5,0,1,0.1,1.4,0.2L19,7.8c-0.4-0.1-0.9-0.1-1.3-0.1c-0.7,0-0.8,0.2-0.8,0.6
		c0,0.5,0,0.6,0.8,0.8c1.4,0.4,1.5,0.5,1.5,1.5C19.2,11.5,18.9,12,17.5,12z"/>
        <path fill="#3D6480" d="M23.2,11.9h-0.7l0-0.4c-0.4,0.3-1,0.5-1.6,0.5c-0.9,0-1.3-0.5-1.3-1.4c0-1,0.5-1.4,1.5-1.4h1.3V8.5
		c0-0.6-0.3-0.8-1.1-0.8c-0.5,0-1.1,0.1-1.5,0.2l-0.1-0.7c0.5-0.1,1.1-0.2,1.6-0.2c1.4,0,1.8,0.5,1.8,1.6V11.9z M22.4,9.9h-1.2
		c-0.5,0-0.7,0.2-0.7,0.6c0,0.5,0.1,0.7,0.7,0.7c0.4,0,0.9-0.2,1.3-0.4V9.9z"/>
        <path fill="#3D6480" d="M26.9,11.9V8.2c0-0.3-0.2-0.5-0.5-0.5c-0.4,0-1.1,0.2-1.6,0.5v3.7H24V7h0.7l0.1,0.4c0.5-0.3,1.4-0.5,2-0.5
		c0.8,0,1.1,0.5,1.1,1.2v3.7H26.9z"/>
        <path fill="#3D6480" d="M28.4,8.5c0-1,0.4-1.6,1.6-1.6c0.4,0,1,0.1,1.4,0.1V5l0.8-0.1v7h-0.7l-0.1-0.4c-0.4,0.3-1,0.5-1.6,0.5
		c-1,0-1.4-0.5-1.4-1.5V8.5z M31.3,7.8c-0.4-0.1-1-0.1-1.3-0.1c-0.6,0-0.8,0.3-0.8,0.8v2c0,0.5,0.2,0.8,0.8,0.8c0.5,0,1-0.3,1.4-0.6
		V7.8z"/>
        <path fill="#3D6480" d="M35.3,7.7c-0.5,0.2-1,0.6-1.4,0.8v3.4H33V7h0.7l0,0.7c0.4-0.3,0.9-0.6,1.3-0.8L35.3,7.7z"/>
        <path fill="#3D6480" d="M38.8,11.9h-0.7l0-0.4c-0.4,0.3-1,0.5-1.6,0.5c-0.9,0-1.3-0.5-1.3-1.4c0-1,0.5-1.4,1.5-1.4h1.3V8.5
		c0-0.6-0.3-0.8-1.1-0.8c-0.5,0-1.1,0.1-1.5,0.2l-0.1-0.7c0.5-0.1,1.1-0.2,1.6-0.2c1.4,0,1.8,0.5,1.8,1.6V11.9z M37.9,9.9h-1.2
		c-0.5,0-0.7,0.2-0.7,0.6c0,0.5,0.1,0.7,0.7,0.7c0.4,0,0.9-0.2,1.3-0.4V9.9z"/>
</g>
</svg>
