<?xml version="1.0" encoding="utf-8"?>
<!DOCTYPE svg PUBLIC "-//W3C//DTD SVG 1.1//EN" "http://www.w3.org/Graphics/SVG/1.1/DTD/svg11.dtd">
<svg version="1.1" id="Layer_1" xmlns="http://www.w3.org/2000/svg" xmlns:xlink="http://www.w3.org/1999/xlink" x="0px" y="0px"
	 width="42px" height="42px" viewBox="0 0 42 42" enable-background="new 0 0 42 42" xml:space="preserve">
<rect x="4.82" y="7.433" fill="none" width="32.36" height="3.991"/>
<path fill="#0E3A5A" d="M3.498,29.895v7.391h35.76v-7.391H3.498z M37.558,35.586H5.198v-3.991h32.36V35.586z"/>
<polygon fill="#0E3A5A" points="4.757,9.777 4.757,5.785 18.937,5.785 18.937,4.086 3.057,4.086 3.057,11.478 18.937,11.478 
	18.937,9.777 "/>
<polygon fill="#0E3A5A" points="22.938,9.777 22.938,11.478 38.816,11.478 38.816,4.086 22.938,4.086 22.938,5.785 37.117,5.785 
	37.117,9.777 "/>
<rect x="22.896" y="6.869" fill="#0E3A5A" width="1.201" height="1.824"/>
<rect x="17.717" y="6.869" fill="#0E3A5A" width="1.2" height="1.824"/>
<g transform="matrix(0.50944579,0,0,0.54413104,16.332923,-0.3046484)">
	<path fill="#EA102A" d="M-18.938,14.703c0-0.411-0.018-0.865-0.056-1.361l-0.02-0.261h0.033l2.878,4.666h1.174v-5.855h-0.877v3.068
		c0,0.216,0.009,0.517,0.024,0.902c0.016,0.386,0.026,0.609,0.033,0.671h-0.024l-2.872-4.641h-1.161v5.855h0.868V14.703z"/>
	<path fill="#EA102A" d="M-11.135,17.827c0.488,0,0.908-0.087,1.258-0.263c0.351-0.175,0.62-0.424,0.805-0.749
		c0.186-0.324,0.278-0.702,0.278-1.135v-3.788H-9.75v3.696c0,0.948-0.451,1.422-1.354,1.422c-0.464,0-0.809-0.115-1.033-0.345
		c-0.224-0.23-0.335-0.586-0.335-1.069v-3.705h-0.961v3.773c0,0.673,0.202,1.202,0.605,1.586
		C-12.426,17.635-11.863,17.827-11.135,17.827z"/>
	<polygon fill="#EA102A" points="-6.337,16.926 -6.337,11.892 -7.295,11.892 -7.295,17.747 -3.859,17.747 -3.859,16.926 	"/>
	<polygon fill="#EA102A" points="-1.893,16.926 -1.893,11.892 -2.849,11.892 -2.849,17.747 0.588,17.747 0.588,16.926 	"/>
</g>
<path fill="#5CC0C4" d="M21.316,18.885v4.532l1.953-1.954l1.345,1.344l-4.248,4.248l-4.248-4.248l1.344-1.344l1.953,1.955v-4.532
	c0-2.953,2.403-5.356,5.356-5.356h0.638v1.9h-0.638C22.866,15.429,21.316,16.979,21.316,18.885z"/>
</svg>
