<?xml version="1.0" encoding="utf-8"?>
<!DOCTYPE svg PUBLIC "-//W3C//DTD SVG 1.1//EN" "http://www.w3.org/Graphics/SVG/1.1/DTD/svg11.dtd">
<svg version="1.1" id="Layer_1" xmlns="http://www.w3.org/2000/svg" xmlns:xlink="http://www.w3.org/1999/xlink" x="0px" y="0px"
	 width="42px" height="42px" viewBox="0 0 42 42" enable-background="new 0 0 42 42" xml:space="preserve">
<g>
	<polygon fill="#FFEBCD" points="39.604,30.643 38.456,28.959 38.456,28.063 33.223,25.895 31.425,27.705 29.645,25.9 
		24.458,28.094 24.458,28.947 22.991,30.838 24.458,31.602 24.458,36.258 31.458,39.791 38.456,36.258 38.456,31.277 	"/>
	<path fill="#3D6480" d="M38.423,27.992l-3.989-1.666l-0.358,0.861l2.694,1.125l-5.314,2.746l-5.379-2.717l2.574-1.074l-0.357-0.861
		l-3.801,1.586l-2.213,3.002l2.213,1.15v4.092l6.967,3.518l6.965-3.518V31.83l1.855-1.027L38.423,27.992z M24.958,28.303h0.002
		H24.958L24.958,28.303L24.958,28.303z M23.702,30.682l1.391-1.789l5.582,2.818l-1.381,1.883L23.702,30.682z M25.425,32.631
		l4.147,2.162l1.548-2.109v5.854l-5.695-2.875V32.631z M37.488,35.662l-5.93,2.992v-6.27l1.59,2.361l4.34-2.4V35.662z
		 M33.445,33.516l-1.217-1.807l5.574-2.879l1.127,1.652L33.445,33.516z"/>
	<path fill="#0CB20F" d="M33.497,25.436L31.934,27v-1.74c0-2.803-1.211-4.055-3.927-4.055v1.045c2.156,0,2.884,0.76,2.884,3.01
		v1.746l-1.649-1.65l-0.738,0.738L31.409,29l2.825-2.826L33.497,25.436z"/>
</g>
<g>
	<path fill="#15A9CA" d="M17.072,8.189l-3.063-2.863c-0.39-0.366-0.854-0.656-1.365-0.854c-0.51-0.198-1.058-0.301-1.61-0.301
		c-1.021-0.002-2.001,0.366-2.733,1.028C7.918,5.545,7.613,5.958,7.402,6.416C7.191,6.871,7.081,7.362,7.075,7.86
		C7.07,8.357,7.171,8.85,7.372,9.31c0.201,0.461,0.498,0.879,0.874,1.232l5.559,5.195c0.118,0.105,0.274,0.163,0.436,0.163
		c0.163,0,0.319-0.058,0.437-0.163l2.393-2.236C17.22,13.333,19.721,10.662,17.072,8.189z"/>
	<path fill="#52CAA3" d="M22.091,12.764c-0.583-0.529-1.188-1.073-1.734-1.663V11.08c-0.02,0.053-0.035,0.108-0.045,0.164
		c-0.229,1.254-0.888,2.404-1.875,3.279c-3.225,2.994-6.486,6.053-9.642,9.012L8.368,23.93c-0.65,0.559-1.089,1.3-1.251,2.111
		c-0.069,0.58-0.003,1.166,0.189,1.719c0.194,0.554,0.512,1.062,0.933,1.492c0.36,0.381,0.806,0.682,1.305,0.883
		c0.499,0.201,1.04,0.294,1.583,0.275c1.259,0.018,1.871-0.137,2.788-0.971c3.669-3.357,7.337-6.742,10.116-9.312
		c1.309-1.219,1.611-3.234,0.683-4.592C23.96,14.518,23.078,13.588,22.091,12.764z"/>
	<path fill="#5268AD" d="M4.333,10.971v12.646c0,0.14,0.044,0.274,0.126,0.391c0.083,0.116,0.201,0.205,0.338,0.259
		c0.138,0.055,0.289,0.068,0.434,0.041c0.146-0.027,0.28-0.094,0.386-0.193l6.809-6.364c0.129-0.122,0.201-0.285,0.201-0.456
		c0-0.17-0.071-0.335-0.201-0.456l-6.809-6.364c-0.068-0.066-0.15-0.117-0.24-0.152c-0.09-0.035-0.187-0.054-0.285-0.054
		c-0.2,0-0.392,0.074-0.535,0.206C4.417,10.605,4.335,10.784,4.333,10.971z"/>
</g>
</svg>
