<?xml version="1.0" encoding="UTF-8" standalone="no"?>
<svg
        xmlns="http://www.w3.org/2000/svg"
        viewBox="0 0 14.464 14.466"
        height="14.466"
        width="14.464"
        y="0px"
        x="0px"
        version="1.1">
    <path
            d="m 8.105,0.196 c 2.116,0.685 3.317,2.208 3.799,3.902 0.019,0.067 0.032,0.135 0.049,0.203 0.025,0.101 0.053,0.202 0.073,0.304 0.697,3.478 -1.441,7.386 -4.787,6.223 0,0 0.025,-0.013 0.034,-0.017 -10e-4,0 -0.002,0 -0.003,-10e-4 l -0.039,0.019 c 0,0 -2.143,-0.949 -2.143,-3.734 0,-2.636 2.143,-3.456 2.143,-3.456 0,0 0.042,0.016 0.113,0.05 0,0 -0.002,-10e-4 -0.002,-10e-4 C 7.314,3.673 7.292,3.662 7.275,3.653 7.261,3.647 7.232,3.632 7.232,3.632 2.69,2.717 1.198,9.593 4.302,12.89 c 0.735,0.769 1.707,1.343 2.93,1.576 3.994,0 7.232,-3.238 7.232,-7.232 0,-3.94 -3.152,-7.145 -7.072,-7.229 0.233,0.05 0.457,0.109 0.67,0.177 0.016,0.003 0.029,0.009 0.043,0.014 z"
            style="fill:#3d6480"/>
    <path
            d="M 7.232,14.465 C 5.993,14.229 5.024,13.655 4.302,12.889 1.198,9.592 2.689,2.716 7.232,3.631 c 0,0 0.029,0.015 0.043,0.021 0.018,0.009 0.039,0.02 0.067,0.035 0.001,0 0.002,0.001 0.002,0.001 0.436,0.231 2.038,1.233 2.038,3.526 0,2.552 -1.929,3.512 -2.109,3.596 -0.009,0.004 -0.034,0.017 -0.034,0.017 3.346,1.163 5.484,-2.745 4.787,-6.223 C 12.005,4.502 11.978,4.401 11.953,4.3 11.936,4.232 11.923,4.164 11.904,4.097 11.42,2.402 10.218,0.879 8.105,0.195 8.09,0.19 8.077,0.184 8.062,0.179 7.848,0.111 7.624,0.052 7.392,0.002 7.339,0.001 7.285,0 7.232,0 3.238,0 0,3.237 0,7.231 c 0,3.994 3.238,7.234 7.232,7.234 z"
            style="fill:#9fb2c0"/>
</svg>
