<?xml version="1.0" encoding="UTF-8" standalone="no"?>
<!-- Generator: Adobe Illustrator 18.0.0, SVG Export Plug-In . SVG Version: 6.00 Build 0)  -->

<svg
        version="1.1"
        x="0px"
        y="0px"
        width="42px"
        height="42px"
        viewBox="0 0 42 42"
        enable-background="new 0 0 42 42"
        id="svg430"
        sodipodi:docname="mongodb-delete.svg"
        inkscape:version="1.2 (dc2aedaf03, 2022-05-15)"
        xmlns:inkscape="http://www.inkscape.org/namespaces/inkscape"
        xmlns:sodipodi="http://sodipodi.sourceforge.net/DTD/sodipodi-0.dtd"
        xmlns="http://www.w3.org/2000/svg"
>
  <sodipodi:namedview
     id="namedview883"
     pagecolor="#ffffff"
     bordercolor="#666666"
     borderopacity="1.0"
     inkscape:showpageshadow="2"
     inkscape:pageopacity="0.0"
     inkscape:pagecheckerboard="0"
     inkscape:deskcolor="#d1d1d1"
     showgrid="false"
     inkscape:zoom="5.6190476"
     inkscape:cx="21"
     inkscape:cy="21.088983"
     inkscape:window-width="3840"
     inkscape:window-height="2063"
     inkscape:window-x="3840"
     inkscape:window-y="240"
     inkscape:window-maximized="1"
     inkscape:current-layer="svg430" />
  <defs
     id="defs434" />
  <g
     id="g428"
     transform="matrix(-1,0,0,1,43.271186,0)">
    <g
       id="g412">
      <path
         fill="#ffecce"
         d="m 14.9,20.3 c -0.8,-0.2 -1.4,-0.4 -1.8,-0.6 v 5 c 0,0.6 2.8,1.7 8,1.7 v 0 c 2.2,0 4.3,-0.2 5.8,-0.6 1.7,-0.5 2.1,-1 2.1,-1.1 V 19.8 C 26.8,20.9 22.3,21 21.1,21 18.7,20.9 16.5,20.7 14.9,20.3 Z"
         id="path404" />
      <path
         fill="#ffecce"
         d="m 13,18.8 c 1.1,0.7 3.9,1.3 8,1.3 4,0 6.8,-0.6 7.9,-1.3 v -5.2 c -2.2,1.1 -6.7,1.2 -7.9,1.2 -2.3,0 -4.5,-0.2 -6.2,-0.6 L 13,16 Z"
         id="path406" />
      <path
         fill="#ffecce"
         d="m 21.1,14 c 0.9,0 1.7,0 2.5,-0.1 0.1,0 0.2,0 0.4,0 0.3,0 0.6,-0.1 0.9,-0.1 0.1,0 0.2,0 0.3,0 0.3,0 0.6,-0.1 0.9,-0.1 0,0 0.1,0 0.1,0 1.3,-0.2 2.2,-0.6 2.8,-0.9 V 12 c -0.2,-0.5 -3,-1.5 -8,-1.5 -0.8,0 -1.5,0 -2.2,0.1 l -3.1,3 c 1.3,0.2 3.2,0.4 5.4,0.4 z"
         id="path408" />
      <path
         fill="#0e3a5a"
         d="m 20.9,8.7 c -0.1,0 -0.3,0 -0.4,0 l -1.8,1.8 c 0.7,0 1.4,-0.1 2.2,-0.1 5,0 7.9,1 8,1.5 v 0.8 c -0.5,0.3 -1.5,0.7 -2.8,0.9 0,0 -0.1,0 -0.1,0 -0.3,0.1 -0.6,0.1 -0.9,0.1 -0.1,0 -0.2,0 -0.3,0 -0.3,0 -0.6,0.1 -0.9,0.1 -0.1,0 -0.2,0 -0.4,0 C 22.8,14 22,14 21.1,14 18.9,14 17,13.8 15.6,13.5 l -0.7,0.7 c 1.6,0.4 3.8,0.6 6.2,0.6 1.1,0 5.6,-0.1 7.9,-1.2 v 5.2 c -1,0.7 -3.9,1.3 -7.9,1.3 -4.1,0 -7,-0.6 -8,-1.3 V 16 l -1.7,1.7 v 7 c 0,3.3 8.1,3.4 9.7,3.4 v 0 c 2.4,0 4.6,-0.2 6.2,-0.7 2.2,-0.6 3.4,-1.5 3.4,-2.8 V 11.9 C 30.7,9 23.2,8.7 20.9,8.7 Z m 8.1,16 c 0,0.2 -0.4,0.7 -2.1,1.1 -1.5,0.4 -3.6,0.6 -5.8,0.6 v 0 c -5.2,0 -8,-1.1 -8,-1.7 v -5 c 0.5,0.2 1.1,0.4 1.8,0.6 1.7,0.4 3.9,0.6 6.2,0.6 1.1,0 5.6,-0.1 7.9,-1.2 z"
         id="path410" />
    </g>
    <g
       id="g424">
      <path
         fill="#ffecce"
         d="m 14.9,20.3 c -0.8,-0.2 -1.4,-0.4 -1.8,-0.6 v 5 c 0,0.6 2.8,1.7 8,1.7 v 0 c 2.2,0 4.3,-0.2 5.8,-0.6 1.7,-0.5 2.1,-1 2.1,-1.1 V 19.8 C 26.8,20.9 22.3,21 21.1,21 18.7,20.9 16.5,20.7 14.9,20.3 Z"
         id="path416" />
      <path
         fill="#ffecce"
         d="m 13,18.8 c 1.1,0.7 3.9,1.3 8,1.3 4,0 6.8,-0.6 7.9,-1.3 v -5.2 c -2.2,1.1 -6.7,1.2 -7.9,1.2 -2.3,0 -4.5,-0.2 -6.2,-0.6 L 13,16 Z"
         id="path418" />
      <path
         fill="#ffecce"
         d="m 21.1,14 c 0.9,0 1.7,0 2.5,-0.1 0.1,0 0.2,0 0.4,0 0.3,0 0.6,-0.1 0.9,-0.1 0.1,0 0.2,0 0.3,0 0.3,0 0.6,-0.1 0.9,-0.1 0,0 0.1,0 0.1,0 1.3,-0.2 2.2,-0.6 2.8,-0.9 V 12 c -0.2,-0.5 -3,-1.5 -8,-1.5 -0.8,0 -1.5,0 -2.2,0.1 l -3.1,3 c 1.3,0.2 3.2,0.4 5.4,0.4 z"
         id="path420" />
      <path
         fill="#0e3a5a"
         d="m 20.9,8.7 c -0.1,0 -0.3,0 -0.4,0 l -1.8,1.8 c 0.7,0 1.4,-0.1 2.2,-0.1 5,0 7.9,1 8,1.5 v 0.8 c -0.5,0.3 -1.5,0.7 -2.8,0.9 0,0 -0.1,0 -0.1,0 -0.3,0.1 -0.6,0.1 -0.9,0.1 -0.1,0 -0.2,0 -0.3,0 -0.3,0 -0.6,0.1 -0.9,0.1 -0.1,0 -0.2,0 -0.4,0 C 22.8,14 22,14 21.1,14 18.9,14 17,13.8 15.6,13.5 l -0.7,0.7 c 1.6,0.4 3.8,0.6 6.2,0.6 1.1,0 5.6,-0.1 7.9,-1.2 v 5.2 c -1,0.7 -3.9,1.3 -7.9,1.3 -4.1,0 -7,-0.6 -8,-1.3 V 16 l -1.7,1.7 v 7 c 0,3.3 8.1,3.4 9.7,3.4 v 0 c 2.4,0 4.6,-0.2 6.2,-0.7 2.2,-0.6 3.4,-1.5 3.4,-2.8 V 11.9 C 30.7,9 23.2,8.7 20.9,8.7 Z m 8.1,16 c 0,0.2 -0.4,0.7 -2.1,1.1 -1.5,0.4 -3.6,0.6 -5.8,0.6 v 0 c -5.2,0 -8,-1.1 -8,-1.7 v -5 c 0.5,0.2 1.1,0.4 1.8,0.6 1.7,0.4 3.9,0.6 6.2,0.6 1.1,0 5.6,-0.1 7.9,-1.2 z"
         id="path422" />
    </g>
    <g
       id="g402"
       transform="matrix(-1,0,0,1,42.485593,1.2372881)">
      <path
         fill="#0e3a5a"
         d="M 3.9,30.9 3.8,36.3 H 3 l 0.2,-6.7 h 1.1 l 1.9,5.1 1.9,-5.1 h 1.1 l 0.2,6.7 H 8.6 L 8.5,30.9 6.8,35.4 H 5.6 Z"
         id="path388" />
      <path
         fill="#0e3a5a"
         d="m 12.2,36.4 c -1.4,0 -2,-0.8 -2,-1.8 v -1.4 c 0,-1 0.6,-1.8 2,-1.8 1.4,0 2,0.8 2,1.8 v 1.4 c 0,1 -0.6,1.8 -2,1.8 z m 0,-4.3 c -0.8,0 -1.1,0.4 -1.1,1.1 v 1.5 c 0,0.7 0.4,1.1 1.1,1.1 0.8,0 1.1,-0.4 1.1,-1.1 v -1.5 c 0,-0.8 -0.3,-1.1 -1.1,-1.1 z"
         id="path390" />
      <path
         fill="#0e3a5a"
         d="m 18,36.3 v -3.7 c 0,-0.3 -0.2,-0.4 -0.5,-0.4 -0.4,0 -1.1,0.2 -1.6,0.5 v 3.7 H 15 v -4.9 h 0.7 l 0.1,0.4 c 0.5,-0.3 1.4,-0.5 2,-0.5 0.8,0 1.1,0.5 1.1,1.2 v 3.7 z"
         id="path392" />
      <path
         fill="#0e3a5a"
         d="M 23.6,31.9 23.1,32 c 0.2,0.3 0.3,0.6 0.3,1 v 0.2 c 0,1 -0.6,1.7 -1.9,1.7 -0.2,0 -0.3,0 -0.5,0 -0.2,0.1 -0.4,0.3 -0.4,0.5 0,0.2 0.1,0.3 0.3,0.3 0.5,0.1 0.8,0.1 1.4,0.1 0.9,0.1 1.2,0.4 1.2,1.2 0,1.1 -0.4,1.4 -2.1,1.4 -0.4,0 -1.2,-0.1 -1.8,-0.2 l 0.1,-0.7 c 0.5,0.1 1.1,0.2 1.6,0.2 1.2,0 1.4,-0.2 1.4,-0.7 0,-0.4 -0.1,-0.5 -0.7,-0.5 -0.5,-0.1 -0.7,-0.1 -1.3,-0.1 -0.7,-0.1 -0.9,-0.4 -0.9,-0.9 0,-0.4 0.2,-0.7 0.5,-0.9 -0.5,-0.3 -0.7,-0.7 -0.7,-1.4 V 33 c 0,-1.1 0.5,-1.7 1.9,-1.7 0.3,0 0.6,0 0.8,0.1 h 1.4 v 0.5 z M 21.4,32 c -0.8,0 -1.1,0.3 -1.1,1 v 0.2 c 0,0.7 0.3,1 1.1,1 0.8,0 1.1,-0.3 1.1,-1 V 33 c 0,-0.7 -0.3,-1 -1.1,-1 z"
         id="path394" />
      <path
         fill="#0e3a5a"
         d="m 26,36.4 c -1.4,0 -2,-0.8 -2,-1.8 v -1.4 c 0,-1 0.6,-1.8 2,-1.8 1.4,0 2,0.8 2,1.8 v 1.4 c 0,1 -0.6,1.8 -2,1.8 z m 0,-4.3 c -0.8,0 -1.1,0.4 -1.1,1.1 v 1.5 c 0,0.7 0.4,1.1 1.1,1.1 0.8,0 1.1,-0.4 1.1,-1.1 v -1.5 c 0,-0.8 -0.3,-1.1 -1.1,-1.1 z"
         id="path396" />
      <path
         fill="#0e3a5a"
         d="m 31.2,29.7 c 1.6,0 2.1,0.8 2.1,1.9 v 2.8 c 0,1.1 -0.5,1.9 -2.1,1.9 h -2.3 v -6.7 h 2.3 z m -1.5,5.8 h 1.4 c 1,0 1.3,-0.4 1.3,-1.2 v -2.7 c 0,-0.8 -0.3,-1.2 -1.3,-1.2 h -1.4 z"
         id="path398" />
      <path
         fill="#0e3a5a"
         d="m 34.3,36.3 v -6.7 h 2.6 c 1,0 1.6,0.5 1.6,1.3 v 0.8 c 0,0.5 -0.2,0.9 -0.8,1.1 0.6,0.1 1,0.5 1,1.2 v 0.8 c 0,0.9 -0.6,1.4 -1.6,1.4 H 34.3 Z M 37.6,31 c 0,-0.4 -0.2,-0.6 -0.8,-0.6 h -1.7 v 2.2 h 1.5 c 0.6,0 0.9,-0.3 0.9,-0.8 V 31 Z m 0.2,3.1 c 0,-0.5 -0.3,-0.8 -1,-0.8 h -1.7 v 2.3 h 1.7 c 0.6,0 0.9,-0.3 0.9,-0.8 v -0.7 z"
         id="path400" />
    </g>
    <polygon
       fill="#ea102a"
       points="31.548,38.923 34.447,36.025 37.345,38.923 38.689,37.579 35.79,34.681 38.689,31.783 37.345,30.439 34.447,33.337 31.548,30.439 30.204,31.783 33.103,34.681 30.204,37.579 "
       id="polygon660"
       transform="translate(-25.726161,-27.740322)" />
  </g>
</svg>
