<?xml version="1.0" encoding="utf-8"?>
<!-- Generator: Adobe Illustrator 14.0.0, SVG Export Plug-In . SVG Version: 6.00 Build 43363)  -->
<!DOCTYPE svg PUBLIC "-//W3C//DTD SVG 1.1//EN" "http://www.w3.org/Graphics/SVG/1.1/DTD/svg11.dtd">
<svg version="1.1" id="Layer_1" xmlns="http://www.w3.org/2000/svg" xmlns:xlink="http://www.w3.org/1999/xlink" x="0px" y="0px"
	 width="128px" height="128px" viewBox="0 0 128 128" enable-background="new 0 0 128 128" xml:space="preserve">
<polygon fill="#FFEBCD" points="79.543,84.724 96,92.952 112.152,84.724 103.924,81.066 104.838,78.629 103.924,78.324 
	95.695,86.857 87.467,78.629 86.248,78.934 87.467,81.371 "/>
<polygon fill="#FFEBCD" points="96.305,96.914 96.305,116.114 114.285,106.972 114.285,96.914 100.876,104.229 "/>
<polygon fill="#FFEBCD" points="115.2,86.248 98.133,95.086 101.791,100.571 118.553,91.124 "/>
<polygon fill="#FFEBCD" points="93.563,95.086 76.495,86.248 72.229,91.733 89.295,100.571 "/>
<polygon fill="#FFEBCD" points="117.029,108.8 96,119.467 74.666,108.8 74.666,96.305 74.666,96.305 74.666,108.8 96,119.467 
	117.334,108.8 117.334,95.391 117.029,95.391 "/>
<polygon fill="#FFEBCD" points="77.41,97.828 77.41,106.972 94.781,115.81 94.781,97.828 90.209,104.229 "/>
<path fill="#3D6480" d="M117.029,83.505l-12.191-5.181v0.305l-0.914,2.438l8.229,3.353L96,92.647l-16.457-8.229l7.924-3.353
	l-0.914-2.438v-0.305L74.972,83.2l-6.705,9.143l6.705,3.353l0,0v12.495l21.333,10.667l21.334-10.667V94.781l0,0l5.485-3.048
	L117.029,83.505z M72.229,91.733l4.267-5.485l17.067,8.533l-4.268,5.79L72.229,91.733z M94.781,115.81l-17.371-8.838v-9.144
	l12.494,6.705l4.572-6.4v17.677H94.781z M114.285,106.972l-17.98,9.143v-19.2l4.877,7.314l13.104-7.314V106.972z M101.791,100.571
	l-3.658-5.485l17.067-8.838l3.353,5.181L101.791,100.571z"/>
<path fill="#0CB20F" d="M103.924,78.324L103.924,78.324l-1.828-2.438l-4.877,4.876v-5.181c0-8.533-3.656-12.495-11.885-12.495v3.047
	c6.704,0,8.838,2.438,8.838,9.144v5.181l-5.182-5.181l-2.133,2.134l0.609,0.609l8.229,8.229L103.924,78.324z"/>
<path d="M60.819,62.201c0.43-3.778,0.299-4.333,2.983-3.724l0.677,0.066c2.065,0.096,4.761-0.35,6.344-1.121
	c3.406-1.663,5.426-4.435,2.064-3.712c-7.663,1.663-8.191-1.061-8.191-1.061c8.095-12.623,11.479-28.644,8.56-32.561
	c-7.974-10.695-21.764-5.64-21.993-5.507l-0.075,0.012c-1.514-0.325-3.206-0.524-5.11-0.554c-3.477-0.06-6.104,0.952-8.105,2.542
	c0,0-24.602-10.646-23.461,13.388c0.247,5.116,6.981,38.695,15.012,28.554c2.937-3.705,5.771-6.844,5.771-6.844
	c1.411,0.982,3.098,1.488,4.864,1.308l0.138-0.121c-0.04,0.458-0.023,0.904,0.057,1.44c-2.065,2.428-1.457,2.856-5.599,3.754
	c-4.188,0.904-1.726,2.518-0.12,2.94c1.944,0.506,6.453,1.229,9.494-3.242L44,58.266c0.814,0.687,0.758,4.905,0.873,7.923
	s0.31,5.826,0.895,7.49c0.585,1.662,1.273,5.928,6.711,4.711C57.028,77.366,60.498,75.896,60.819,62.201"/>
<path d="M50.712,81.367c-2.409,0-3.969-0.977-4.922-1.916c-1.434-1.422-2.007-3.254-2.346-4.35l-0.144-0.458
	c-0.688-1.941-0.917-4.736-1.055-8.34c-0.023-0.542-0.035-1.096-0.057-1.688c-0.012-0.433-0.023-0.976-0.046-1.542
	c-0.86,0.434-1.784,0.735-2.73,0.904c-1.698,0.307-3.521,0.205-5.415-0.29c-1.342-0.356-2.736-1.084-3.533-2.211
	c-2.312,2.127-4.521,1.837-5.725,1.416c-2.122-0.741-4.015-2.832-5.805-6.38c-1.274-2.531-2.501-5.827-3.654-9.804
	c-2.013-6.917-3.287-14.201-3.401-16.593c-0.356-7.489,1.561-12.846,5.702-15.919c6.533-4.844,16.428-1.994,20.042-0.699
	c2.42-1.537,5.272-2.284,8.496-2.229c1.726,0.03,3.378,0.192,4.91,0.476c1.595-0.524,4.75-1.284,8.357-1.235
	c6.654,0.084,12.173,2.808,15.946,7.875c2.696,3.615,1.36,11.213,0.328,15.418c-1.452,5.911-4.005,12.202-7.136,17.678
	c0.854,0.006,2.081-0.096,3.837-0.482c3.453-0.747,4.463,1.199,4.737,2.073c1.096,3.495-3.682,6.134-5.168,6.857
	c-1.91,0.934-5.019,1.5-7.565,1.374H64.25l-0.665-0.066l-0.069,0.584l-0.069,0.579c-0.166,6.941-1.113,11.334-3.052,14.238
	c-2.042,3.042-4.864,3.898-7.359,4.459C52.186,81.289,51.412,81.367,50.712,81.367 M45.653,56.109
	c1.549,1.301,1.686,3.759,1.813,8.351c0.011,0.573,0.022,1.114,0.046,1.621c0.057,1.53,0.195,5.122,0.728,6.634
	c0.074,0.217,0.144,0.435,0.212,0.663c0.596,1.922,0.895,2.879,3.476,2.301c2.168-0.481,3.282-0.921,4.153-2.223
	c1.262-1.898,1.973-5.706,2.099-11.322l2.639,0.067l-2.615-0.332l0.075-0.687c0.246-2.259,0.43-3.893,1.87-4.977
	c1.153-0.868,2.473-0.784,3.517-0.578c-1.147-0.916-1.469-1.988-1.549-2.428l-0.224-1.139l0.614-0.964
	c3.556-5.537,6.493-12.352,8.048-18.678c1.6-6.507,1.112-9.965,0.625-10.623c-6.459-8.67-17.656-5.091-18.826-4.682l-0.201,0.109
	l-0.992,0.193l-0.505-0.109c-1.399-0.301-2.96-0.47-4.623-0.5c-2.616-0.042-4.732,0.603-6.465,1.983l-1.199,0.958l-1.399-0.603
	c-2.977-1.283-11.73-3.85-16.348-0.416c-2.57,1.904-3.734,5.646-3.476,11.111c0.092,1.802,1.25,8.628,3.178,15.256
	c2.661,9.152,5.082,12.195,6.092,12.544c0.172,0.066,0.631-0.307,1.083-0.879c1.899-2.387,3.861-4.718,5.891-6.984l1.526-1.687
	l1.842,1.283c0.746,0.524,1.565,0.82,2.403,0.874l4.405-3.941l-0.642,6.827c-0.012,0.157-0.023,0.361,0.034,0.753l0.195,1.295
	l-0.831,0.976l-0.098,0.108l2.421,1.175L45.653,56.109z"/>
<path fill="#336791" d="M72.888,53.711c-7.663,1.663-8.191-1.061-8.191-1.061c8.095-12.623,11.479-28.644,8.56-32.561
	c-7.974-10.695-21.764-5.64-21.993-5.507l-0.075,0.012c-1.514-0.325-3.212-0.524-5.116-0.554c-3.471-0.06-6.098,0.952-8.1,2.542
	c0,0-24.602-10.646-23.461,13.388c0.247,5.122,6.981,38.701,15.012,28.56c2.937-3.711,5.771-6.844,5.771-6.844
	c1.411,0.976,3.098,1.482,4.864,1.301l0.138-0.121c-0.046,0.458-0.023,0.91,0.057,1.446c-2.071,2.422-1.462,2.85-5.599,3.748
	c-4.188,0.904-1.732,2.518-0.126,2.94c1.95,0.506,6.453,1.229,9.5-3.242L44,58.272c0.814,0.681,1.383,4.44,1.285,7.839
	c-0.092,3.41-0.161,5.748,0.482,7.568c0.642,1.825,1.273,5.934,6.711,4.711c4.543-1.024,6.9-3.675,7.228-8.098
	c0.229-3.146,0.757-2.676,0.792-5.489l0.424-1.332c0.488-4.259,0.081-5.633,2.879-4.995l0.677,0.066
	c2.065,0.096,4.761-0.35,6.344-1.121C74.229,55.76,76.249,52.988,72.888,53.711"/>
<path fill="#FFFFFE" d="M50.987,79.668c-4.531,0-5.972-3.771-6.557-5.314c-0.86-2.266-1.05-11.032-0.854-18.221
	c0.012-0.512,0.413-0.916,0.895-0.903c0,0,0.006,0,0.012,0c0.481,0.018,0.86,0.446,0.849,0.952l0,0
	c-0.218,8.291,0.091,15.81,0.734,17.485c0.987,2.608,2.495,4.892,6.757,3.928c4.038-0.909,5.553-2.519,6.23-6.627
	c0.516-3.151,1.543-12.117,1.669-13.889c0.035-0.506,0.453-0.886,0.935-0.85h0.006c0.488,0.036,0.843,0.482,0.809,0.988
	c-0.126,1.843-1.147,10.791-1.687,14.063c-0.792,4.856-2.856,7.049-7.595,8.121C52.387,79.584,51.653,79.668,50.987,79.668
	 M26.408,61.249c-0.396-0.006-0.791-0.072-1.165-0.205c-2.948-1.03-5.748-6.067-8.34-14.973c-1.968-6.773-3.212-13.853-3.327-16.148
	c-0.321-6.821,1.348-11.641,4.968-14.334c7.164-5.333,19.216-0.253,19.721-0.036c0.453,0.193,0.666,0.729,0.482,1.205
	c-0.184,0.47-0.694,0.693-1.147,0.5c-0.115-0.049-11.667-4.905-18.041-0.157c-3.098,2.301-4.514,6.585-4.228,12.726
	c0.092,1.939,1.262,8.845,3.258,15.702c2.306,7.954,4.933,12.966,7.205,13.762c0.355,0.133,1.445,0.506,2.994-1.452
	c1.813-2.283,3.694-4.507,5.633-6.67c0.344-0.362,0.906-0.355,1.245,0c0.332,0.349,0.344,0.916,0.028,1.277
	c-0.028,0.03-2.673,2.935-5.552,6.574C28.777,60.743,27.469,61.249,26.408,61.249 M64.64,53.47c-0.482,0-0.878-0.416-0.878-0.927
	c0-0.181,0.051-0.362,0.149-0.512c8.186-12.756,11.06-28.168,8.599-31.471c-3.098-4.157-7.469-6.326-12.998-6.458
	c-4.096-0.091-7.349,1.012-7.882,1.199l-0.132,0.054c-0.533,0.181-0.946-0.126-1.095-0.488c-0.184-0.428-0.035-0.928,0.344-1.169
	c0.023-0.018,0.104-0.054,0.235-0.103H50.97h0.011c0.901-0.35,4.205-1.386,8.301-1.338c6.114,0.067,11.168,2.543,14.609,7.164
	c1.63,2.188,1.635,7.225,0.006,13.816c-1.651,6.724-4.761,13.948-8.529,19.823C65.201,53.326,64.926,53.47,64.64,53.47
	 M65.058,59.375c-1.393,0-2.649-0.205-3.401-0.675c-0.769-0.488-0.918-1.145-0.935-1.494c-0.212-3.886,1.83-4.561,2.863-4.868
	c-0.138-0.229-0.344-0.5-0.563-0.784c-0.608-0.795-1.434-1.879-2.076-3.512c-0.098-0.259-0.414-0.85-0.774-1.53
	c-1.968-3.718-6.075-11.442-3.437-15.395c1.216-1.832,3.648-2.555,7.222-2.151c-1.05-3.368-6.063-13.901-17.954-14.105
	c-3.574-0.06-6.511,1.097-8.713,3.435c-4.933,5.23-4.755,14.702-4.75,14.798c0.012,0.506-0.373,0.928-0.86,0.94
	c-0.482,0.018-0.884-0.386-0.895-0.892c-0.011-0.421-0.195-10.363,5.254-16.147c2.558-2.712,5.92-4.049,9.993-3.977
	c7.605,0.132,12.505,4.193,15.27,7.58c3.017,3.687,4.498,7.754,4.624,9.11c0.091,1.012-0.603,1.217-0.746,1.241l-0.31,0.013
	c-3.511-0.591-5.765-0.181-6.7,1.217c-2.001,3.006,1.882,10.315,3.534,13.437c0.424,0.795,0.729,1.374,0.872,1.723
	c0.539,1.386,1.25,2.319,1.824,3.067c0.499,0.656,0.929,1.229,1.09,1.897c0.068,0.133,1.096,1.723,7.17,0.41
	c1.521-0.332,2.432-0.048,2.714,0.837c0.545,1.741-2.53,3.778-4.239,4.609C69.607,58.905,67.169,59.375,65.058,59.375
	 M62.471,57.049c0.195,0.205,1.159,0.554,3.155,0.47c1.778-0.084,3.648-0.488,4.772-1.037c1.435-0.698,2.398-1.482,2.891-2.019
	l-0.274,0.055c-3.884,0.844-6.631,0.729-8.169-0.338c-0.104-0.072-0.2-0.144-0.298-0.229c-0.161,0.066-0.316,0.108-0.425,0.145
	C63.251,54.35,62.351,54.615,62.471,57.049 M37.381,62.207c-0.964,0-1.979-0.138-3.018-0.409c-1.072-0.284-2.885-1.133-2.856-2.531
	c0.034-1.566,2.202-2.037,3.017-2.211c2.949-0.633,3.138-0.892,4.062-2.121c0.264-0.355,0.602-0.801,1.055-1.337
	c0.677-0.801,1.423-1.199,2.203-1.199c0.539,0,0.986,0.193,1.285,0.325c0.941,0.41,1.721,1.398,2.048,2.579
	c0.292,1.073,0.155,2.097-0.396,2.892C43.003,60.821,40.444,62.207,37.381,62.207 M33.406,59.351c0.264,0.211,0.797,0.5,1.382,0.651
	c0.9,0.241,1.772,0.362,2.593,0.362c2.501,0,4.514-1.091,5.977-3.242c0.298-0.446,0.207-1.012,0.126-1.314
	c-0.166-0.626-0.59-1.192-1.033-1.385c-0.229-0.103-0.43-0.181-0.607-0.181c-0.098,0-0.39,0-0.895,0.585
	c-0.338,0.403-0.665,0.825-0.987,1.247c-1.147,1.531-1.669,2.049-5.082,2.796C34.043,59.043,33.618,59.23,33.406,59.351
	 M40.157,55.091c-0.43,0-0.797-0.332-0.86-0.783c-0.022-0.15-0.04-0.307-0.045-0.464c-2.237-0.042-4.394-1.048-6.034-2.844
	c-2.077-2.277-3.018-5.423-2.593-8.64c0.47-3.488,0.292-6.573,0.201-8.23c-0.029-0.458-0.045-0.79-0.04-1.024
	c0-0.29,0-1.061,2.467-2.374c0.877-0.47,2.639-1.284,4.554-1.495c3.184-0.344,5.277,1.145,5.908,4.194
	c1.692,8.23,0.132,11.87-1.009,14.527c-0.207,0.5-0.413,0.964-0.568,1.416l-0.143,0.398c-0.603,1.699-1.124,3.163-0.963,4.253
	c0.074,0.506-0.253,0.976-0.734,1.055l0,0L40.157,55.091z M32.54,33.364l0.034,0.657c0.104,1.723,0.281,4.923-0.206,8.598
	c-0.355,2.651,0.413,5.236,2.11,7.104C35.821,51.192,37.588,52,39.406,52h0.04c0.195-0.898,0.539-1.85,0.9-2.868l0.144-0.397
	c0.178-0.518,0.39-1.013,0.614-1.53c1.096-2.561,2.461-5.748,0.889-13.383c-0.31-1.512-1.067-2.392-2.306-2.681
	C37.141,30.55,33.343,32.563,32.54,33.364 M37.846,32.972c-0.041,0.326,0.567,1.193,1.371,1.313c0.792,0.121,1.48-0.566,1.526-0.892
	c0.04-0.325-0.573-0.687-1.376-0.801C38.575,32.478,37.886,32.647,37.846,32.972 M39.4,34.604l-0.229-0.018
	c-0.493-0.072-0.998-0.397-1.336-0.873c-0.121-0.169-0.316-0.494-0.281-0.783c0.058-0.428,0.551-0.681,1.325-0.681
	c0.172,0,0.35,0.012,0.533,0.036c0.419,0.061,0.815,0.193,1.102,0.362c0.499,0.295,0.539,0.62,0.516,0.795
	C40.966,33.912,40.255,34.604,39.4,34.604 M38.138,33.026c0.023,0.199,0.499,0.862,1.113,0.958L39.4,33.99
	c0.568,0,0.999-0.47,1.044-0.621c-0.052-0.109-0.418-0.374-1.113-0.47c-0.149-0.023-0.298-0.036-0.453-0.036
	C38.431,32.863,38.196,32.972,38.138,33.026 M62.15,32.309c0.045,0.325-0.574,1.193-1.366,1.314
	c-0.803,0.114-1.486-0.567-1.526-0.892c-0.046-0.325,0.568-0.687,1.365-0.808C61.427,31.809,62.104,31.984,62.15,32.309
	 M60.602,33.785c-0.769,0-1.434-0.626-1.492-1.03c-0.063-0.494,0.7-0.868,1.492-0.982c0.172-0.024,0.35-0.036,0.516-0.036
	c0.676,0,1.135,0.211,1.176,0.548c0.029,0.217-0.132,0.555-0.407,0.862c-0.184,0.199-0.563,0.549-1.084,0.627L60.602,33.785z
	 M61.118,32.044c-0.155,0-0.31,0.012-0.471,0.036c-0.791,0.115-1.273,0.446-1.25,0.626c0.034,0.199,0.539,0.771,1.205,0.771
	l0.16-0.012c0.436-0.061,0.757-0.361,0.912-0.531c0.247-0.265,0.338-0.518,0.327-0.608C61.989,32.213,61.697,32.044,61.118,32.044
	 M63.297,51.042c-0.482,0-0.872-0.416-0.872-0.922c0-0.18,0.046-0.361,0.149-0.518c1.87-2.928,1.526-5.929,1.193-8.821
	c-0.138-1.229-0.287-2.506-0.252-3.736c0.046-1.253,0.195-2.295,0.344-3.302c0.172-1.187,0.338-2.313,0.27-3.651
	c-0.029-0.506,0.343-0.94,0.832-0.964c0.481-0.03,0.895,0.361,0.924,0.868l0,0c0.074,1.53-0.109,2.795-0.293,4.031
	c-0.138,0.946-0.281,1.934-0.315,3.079c-0.035,1.084,0.098,2.241,0.235,3.458c0.355,3.073,0.757,6.567-1.48,10.068
	C63.871,50.891,63.596,51.042,63.297,51.042"/>
</svg>
