<?xml version="1.0" encoding="utf-8"?>
<!DOCTYPE svg PUBLIC "-//W3C//DTD SVG 1.1//EN" "http://www.w3.org/Graphics/SVG/1.1/DTD/svg11.dtd">
<svg version="1.1" id="Layer_1" xmlns="http://www.w3.org/2000/svg" xmlns:xlink="http://www.w3.org/1999/xlink" x="0px" y="0px"
	 width="42px" height="42px" viewBox="0 0 42 42" enable-background="new 0 0 42 42" xml:space="preserve">
<g>
	<polygon fill="#FFEBCD" points="39.604,30.643 38.456,28.959 38.456,28.063 33.223,25.895 31.425,27.705 29.645,25.9 
		24.458,28.094 24.458,28.947 22.991,30.838 24.458,31.602 24.458,36.258 31.458,39.791 38.456,36.258 38.456,31.277 	"/>
	<path fill="#3D6480" d="M38.423,27.992l-3.989-1.666l-0.357,0.861l2.693,1.125l-5.313,2.746l-5.379-2.718l2.573-1.073l-0.356-0.861
		l-3.801,1.586l-2.214,3.002l2.214,1.15v4.092l6.967,3.518l6.965-3.518V31.83l1.854-1.027L38.423,27.992z M24.958,28.303h0.002
		H24.958L24.958,28.303L24.958,28.303z M23.702,30.682l1.391-1.789l5.582,2.818l-1.381,1.883L23.702,30.682z M25.425,32.631
		l4.147,2.162l1.548-2.109v5.854l-5.695-2.875V32.631z M37.488,35.662l-5.93,2.992v-6.271l1.59,2.361l4.34-2.399V35.662z
		 M33.445,33.516l-1.217-1.807l5.574-2.879l1.127,1.652L33.445,33.516z"/>
	<path fill="#0CB20F" d="M33.497,25.436L31.934,27v-1.74c0-2.803-1.211-4.055-3.927-4.055v1.045c2.156,0,2.884,0.76,2.884,3.01
		v1.746l-1.648-1.65l-0.738,0.738L31.409,29l2.825-2.826L33.497,25.436z"/>
</g>
<g>
	<path fill="#215C98" d="M14.37,20.636l8.816,2.024V6.752L14.37,8.775V20.636z"/>
	<path fill="#5193CF" d="M23.186,6.752l1.682,0.808v14.291l-1.682,0.81V6.752z M14.37,20.636L5.553,22.66V6.752l8.816,2.023V20.636z
		"/>
	<path fill="#215C98" d="M5.553,6.752L3.873,7.56v14.291l1.68,0.81V6.752z"/>
	<path fill="#5193CF" d="M16.609,25.895l3.358-1.619V5.18l-3.358-1.619l-1.025,10.605L16.609,25.895z"/>
	<path fill="#215C98" d="M12.13,25.895l-3.358-1.619V5.18l3.358-1.619l1.025,10.605L12.13,25.895z"/>
	<path fill="#3074B7" d="M12.13,3.562h4.525V25.85H12.13V3.562z"/>
</g>
</svg>
