<?xml version="1.0" encoding="UTF-8" standalone="no"?>
<!-- Generator: Adobe Illustrator 18.0.0, SVG Export Plug-In . SVG Version: 6.00 Build 0)  -->

<svg
   xmlns:dc="http://purl.org/dc/elements/1.1/"
   xmlns:cc="http://creativecommons.org/ns#"
   xmlns:rdf="http://www.w3.org/1999/02/22-rdf-syntax-ns#"
   xmlns:svg="http://www.w3.org/2000/svg"
   xmlns="http://www.w3.org/2000/svg"
   xmlns:sodipodi="http://sodipodi.sourceforge.net/DTD/sodipodi-0.dtd"
   xmlns:inkscape="http://www.inkscape.org/namespaces/inkscape"
   version="1.1"
   id="Layer_1"
   x="0px"
   y="0px"
   viewBox="0 0 42 42"
   enable-background="new 0 0 42 42"
   xml:space="preserve"
   inkscape:version="0.91 r13725"
   sodipodi:docname="SWM.svg"><metadata
     id="metadata43"><rdf:RDF><cc:Work
         rdf:about=""><dc:format>image/svg+xml</dc:format><dc:type
           rdf:resource="http://purl.org/dc/dcmitype/StillImage" /><dc:title></dc:title></cc:Work></rdf:RDF></metadata><defs
     id="defs41" /><sodipodi:namedview
     pagecolor="#ffffff"
     bordercolor="#666666"
     borderopacity="1"
     objecttolerance="10"
     gridtolerance="10"
     guidetolerance="10"
     inkscape:pageopacity="0"
     inkscape:pageshadow="2"
     inkscape:window-width="852"
     inkscape:window-height="405"
     id="namedview39"
     showgrid="false"
     inkscape:zoom="5.6190476"
     inkscape:cx="20.002549"
     inkscape:cy="21"
     inkscape:window-x="591"
     inkscape:window-y="114"
     inkscape:window-maximized="0"
     inkscape:current-layer="g3" /><g
     id="g3"><path
       fill="#FFFFFF"
       d="M38.5,31.3v4.4v0l-7,3.5l-7-3.5v-4.1l-2.2-1.1l2.2-3l3.8-1.6l0,0.1l0.4-0.2l-0.2-0.2l0.7-0.7l1.7,1.7v0   v-1.7c0-2.3-0.7-3-2.9-3v-1c2.7,0,3.9,1.3,3.9,4.1v1.7l1.6-1.6l0.7,0.7l-0.1,0.1l0.3,0.1l0-0.1l4,1.7l1.9,2.8L38.5,31.3z"
       id="path21" /><polygon
       fill="#FFEBCD"
       points="38.4,35.7 31.5,39.2 24.5,35.7 24.5,31.6 24.5,31.6 24.5,35.7 31.5,39.2 38.5,35.7 38.5,35.7    38.5,31.3 38.4,31.3  "
       id="polygon33" /><text
       xml:space="preserve"
       style="font-style:normal;font-weight:normal;font-size:40px;line-height:125%;font-family:sans-serif;letter-spacing:0px;word-spacing:0px;fill:#3d6380;fill-opacity:1;stroke:none;stroke-width:1px;stroke-linecap:butt;stroke-linejoin:miter;stroke-opacity:1"
       x="1.6016947"
       y="15.48305"
       id="text4171"
       sodipodi:linespacing="125%"><tspan
         sodipodi:role="line"
         id="tspan4173"
         x="1.6016947"
         y="15.48305"
         style="font-style:normal;font-variant:normal;font-weight:normal;font-stretch:normal;font-size:8.75px;font-family:'Segoe UI Emoji';-inkscape-font-specification:'Segoe UI Emoji';fill:#3d6380;fill-opacity:1">Snowflake</tspan></text>
<path
       inkscape:connector-curvature="0"
       style="fill:#3d6480"
       d="m 38.008449,32.981288 c 0.02,-0.375 -0.003,-0.755 -0.071,-1.138 l 1.308,-0.956 -0.177,-0.464 c -0.078,-0.205 -0.171,-0.4 -0.268,-0.596 l -0.228,-0.455 -1.553,0.355 c -0.104,-0.132 -0.224,-0.264 -0.347,-0.396 -0.142,-0.152 -0.278,-0.288 -0.433,-0.421 l 0.383,-1.557 -0.432,-0.242 c -0.198,-0.11 -0.397,-0.209 -0.604,-0.298 l -0.469,-0.203 -0.952,1.266 c -0.366,-0.084 -0.742,-0.127 -1.119,-0.128 l -0.711,-1.435 -0.48,0.086 c -0.22,0.039 -0.441,0.085 -0.656,0.148 l -0.486,0.144 0.067,1.592 c -0.317,0.163 -0.627,0.373 -0.926,0.626 l -1.475,-0.646 -0.312,0.384 c -0.142,0.175 -0.272,0.357 -0.394,0.545 l -0.276,0.425 1.079,1.163 c -0.148,0.351 -0.256,0.712 -0.318,1.07 l -1.549,0.458 0.005,0.491 c 0.002,0.22 0.016,0.439 0.041,0.658 l 0.059,0.508 1.591,0.197 c 0.111,0.37 0.261,0.718 0.447,1.04 l -0.909,1.351 0.982,1.054 1.464,-0.695 0.058,-0.039 c 0.313,0.204 0.652,0.373 1.018,0.506 l 0.176,1.613 0.491,0.078 c 0.214,0.033 0.428,0.052 0.646,0.064 l 0.509,0.027 0.464,-1.52 c 0.404,-0.049 0.785,-0.14 1.096,-0.266 l 1.179,1.121 0.425,-0.26 c 0.188,-0.114 0.371,-0.244 0.551,-0.381 l 0.406,-0.309 -0.625,-1.438 c 0.253,-0.272 0.473,-0.572 0.667,-0.911 l 1.602,0.1 0.162,-0.466 c 0.074,-0.211 0.138,-0.426 0.19,-0.643 l 0.12,-0.502 -1.416,-0.705 z m -8.64,-0.219 c 0,-1.988 1.611,-3.6 3.6,-3.6 1.989,0 3.601,1.611 3.601,3.6 0,1.989 -1.612,3.601 -3.601,3.601 -1.989,0 -3.6,-1.613 -3.6,-3.601 z"
       id="path5" /></g></svg>