<?xml version="1.0" encoding="utf-8"?>
<!DOCTYPE svg PUBLIC "-//W3C//DTD SVG 1.1//EN" "http://www.w3.org/Graphics/SVG/1.1/DTD/svg11.dtd">
<svg version="1.1" id="Layer_1" xmlns="http://www.w3.org/2000/svg" xmlns:xlink="http://www.w3.org/1999/xlink" x="0px" y="0px"
	 width="128px" height="128px" viewBox="0 0 128 128" enable-background="new 0 0 128 128" xml:space="preserve">
<path fill="none" d="M44.8,31.086c-2.743,0-3.657,1.219-3.657,3.657v1.219h7.009v-1.219C48.152,32.609,47.543,31.086,44.8,31.086z"
	/>
<path fill="none" d="M98.133,41.143c0,1.523,0.305,2.438,2.438,2.438c1.524,0,3.048-0.609,4.267-1.219v-3.047h-4.267
	C99.048,39.01,98.133,39.619,98.133,41.143z"/>
<polygon fill="#FFEBCD" points="79.543,84.724 96,92.952 112.152,84.724 103.924,81.066 104.838,78.629 103.924,78.324 
	95.695,86.857 87.467,78.629 86.248,78.934 87.467,81.371 "/>
<polygon fill="#FFEBCD" points="96.305,96.914 96.305,116.114 114.285,106.972 114.285,96.914 100.876,104.229 "/>
<polygon fill="#FFEBCD" points="115.2,86.248 98.133,95.086 101.791,100.571 118.553,91.124 "/>
<polygon fill="#FFEBCD" points="93.563,95.086 76.495,86.248 72.229,91.733 89.295,100.571 "/>
<polygon fill="#FFEBCD" points="117.029,108.8 96,119.467 74.666,108.8 74.666,96.305 74.666,96.305 74.666,108.8 96,119.467 
	117.334,108.8 117.334,95.391 117.029,95.391 "/>
<polygon fill="#FFEBCD" points="77.41,97.828 77.41,106.972 94.781,115.81 94.781,97.828 90.209,104.229 "/>
<path fill="#3D6480" d="M117.029,83.505l-12.191-5.181v0.305l-0.914,2.438l8.229,3.353L96,92.647l-16.457-8.229l7.924-3.353
	l-0.914-2.438v-0.305L74.972,83.2l-6.705,9.143l6.705,3.353l0,0v12.495l21.333,10.667l21.334-10.667V94.781l0,0l5.485-3.048
	L117.029,83.505z M72.229,91.733l4.267-5.485l17.067,8.533l-4.268,5.79L72.229,91.733z M94.781,115.81l-17.371-8.838v-9.144
	l12.494,6.705l4.572-6.4v17.677H94.781z M114.285,106.972l-17.98,9.143v-19.2l4.877,7.314l13.104-7.314V106.972z M101.791,100.571
	l-3.658-5.485l17.067-8.838l3.353,5.181L101.791,100.571z"/>
<path fill="#0CB20F" d="M103.924,78.324L103.924,78.324l-1.828-2.438l-4.877,4.876v-5.181c0-8.533-3.656-12.495-11.885-12.495v3.047
	c6.704,0,8.838,2.438,8.838,9.144v5.181l-5.182-5.181l-2.133,2.134l0.609,0.609l8.229,8.229L103.924,78.324z"/>
<polygon fill="#0E3A5A" points="28.952,42.972 22.248,23.162 19.505,23.162 26.819,45.41 30.781,45.41 38.095,23.162 35.353,23.162 
	"/>
<path fill="#0E3A5A" d="M44.8,28.952c-4.876,0-6.4,2.743-6.4,6.096v4.876c0,3.657,1.524,6.095,6.4,6.095
	c2.133,0,4.267-0.305,5.791-0.914l-0.305-2.438c-1.829,0.61-3.657,0.915-5.181,0.915c-3.048,0-3.962-0.915-3.962-3.657V38.4h9.752
	v-3.352C50.895,31.695,49.676,28.952,44.8,28.952z M48.152,36.267h-7.009v-1.219c0-2.134,0.914-3.657,3.657-3.657
	c2.743,0,3.353,1.219,3.353,3.657V36.267z"/>
<path fill="#0E3A5A" d="M57.295,31.391l-0.305-2.133h-2.438v16.457h2.743V34.438c1.219-0.914,3.047-2.133,4.571-2.743l-0.305-2.438
	C60.038,29.562,58.514,30.476,57.295,31.391z"/>
<path fill="#0E3A5A" d="M72.838,45.41l-0.305-2.133c-0.914,0.305-1.828,0.305-2.742,0.305c-1.524,0-1.524-0.609-1.524-1.829V31.695
	h4.267l0.305-2.438h-4.571v-4.572l-2.743,0.305v3.962h-2.743v2.438h2.743v10.667c0,2.743,1.219,3.657,3.963,3.657
	C70.705,46.019,71.924,45.714,72.838,45.41z"/>
<rect x="75.886" y="22.552" fill="#0E3A5A" width="2.743" height="3.962"/>
<rect x="75.886" y="29.257" fill="#0E3A5A" width="2.743" height="16.457"/>
<path fill="#0E3A5A" d="M88.686,46.019c1.523,0,3.048-0.305,3.962-0.609l-0.305-2.438c-1.219,0.305-2.438,0.305-3.657,0.305
	c-2.742,0-3.656-0.915-3.656-3.353v-5.181c0-2.438,0.914-3.352,3.656-3.352c1.219,0,2.438,0,3.657,0.305l0.305-2.438
	c-0.914-0.305-2.438-0.61-3.962-0.61c-5.181,0-6.4,2.133-6.4,5.791v5.181C82.285,43.581,83.505,46.019,88.686,46.019z"/>
<path fill="#0E3A5A" d="M100.571,36.571c-3.353,0-4.876,1.219-4.876,4.572c0,2.743,1.219,4.571,4.267,4.571
	c1.829,0,3.962-0.609,5.181-1.524l0.305,1.219h2.438V34.133c0-3.353-1.524-5.181-6.095-5.181c-1.829,0-3.963,0.305-5.486,0.61
	l0.305,2.133c1.219-0.305,3.353-0.609,4.877-0.609c2.742,0,3.656,0.609,3.656,2.743v2.743H100.571z M104.838,42.057
	c-1.219,0.915-2.742,1.219-4.267,1.219c-2.134,0-2.438-0.61-2.438-2.438c0-1.523,0.609-2.133,2.438-2.133h4.267V42.057z"/>
</svg>
