<?xml version="1.0" encoding="utf-8"?>
<svg version="1.1" xmlns="http://www.w3.org/2000/svg" x="0px" y="0px" width="42px" height="42px" viewBox="0 0 42 42" enable-background="new 0 0 42 42" xml:space="preserve">
<g id="surface1">
	<path fill="#033D5D" d="M17.66,3.129c-0.605,0-1.211,0.23-1.676,0.695l-4.828,4.828l1.711,1.711l4.121-4.121
		c0.188-0.184,0.43-0.277,0.672-0.277s0.484,0.094,0.668,0.277l3.223,3.223l-1.742,1.742h5.199V6.008l-1.746,1.746l-3.93-3.93
		C18.871,3.359,18.266,3.129,17.66,3.129z M5.387,10.828l1.746,1.75l-3.93,3.926c-0.465,0.465-0.695,1.07-0.695,1.676
		s0.23,1.211,0.695,1.676l4.828,4.828l1.711-1.711l-4.121-4.125c-0.184-0.184-0.277-0.426-0.277-0.668s0.094-0.484,0.277-0.668
		l3.223-3.223l1.742,1.742v-5.203H5.387z M27.184,11.777l-1.711,1.711l4.125,4.121c0.184,0.188,0.277,0.43,0.277,0.672
		s-0.094,0.484-0.277,0.668l-3.223,3.223l-1.742-1.742v5.199h5.199l-1.746-1.746l3.93-3.93c0.461-0.461,0.695-1.066,0.695-1.672
		s-0.234-1.211-0.695-1.676L27.184,11.777z M10.207,25.254v5.199l1.746-1.746l3.93,3.93c0.465,0.465,1.07,0.695,1.676,0.695
		s1.211-0.23,1.676-0.695l4.828-4.828l-1.711-1.715l-4.125,4.125c-0.184,0.184-0.426,0.277-0.668,0.277s-0.484-0.094-0.668-0.277
		l-3.223-3.223l1.742-1.742H10.207z"/>
	<path fill="#033D5D" d="M38.051,34.418l-7.637,4.43c-0.648,0.379-1.48-0.078-1.48-0.836v-8.863c0-0.758,0.828-1.215,1.48-0.836
		l7.637,4.434c0.301,0.172,0.488,0.488,0.488,0.836C38.539,33.926,38.352,34.246,38.051,34.418z"/>
</g>
</svg>
