<svg xmlns="http://www.w3.org/2000/svg" xmlns:xlink="http://www.w3.org/1999/xlink" version="1.1" id="Ebene_1" x="0px" y="0px" width="39.167px" height="21.404px" viewBox="0 0 39.167 21.404" enable-background="new 0 0 39.167 21.404" xml:space="preserve">
<rect x="22.053" y="0.098" transform="matrix(-0.0888 0.9961 -0.9961 -0.0888 38.3583 -16.986)" width="9.792" height="17.909"/>
<path d="M10.293,0L9.575,8.063c1.2,1.09,1.976,2.64,2.009,4.383c1.962,0.114,3.595,1.405,4.221,3.178l22.025,1.964l1.338-15.014  L10.293,0z M36.017,15.424l-19.122-1.706L17.88,2.682l19.121,1.705L36.017,15.424z"/>
<path d="M11.549,13.022c-0.192,2.533-1.918,4.614-4.265,5.334c0.504,1.756,2.104,3.048,4.022,3.048c2.322,0,4.204-1.882,4.204-4.203  C15.509,14.963,13.754,13.15,11.549,13.022"/>
<path d="M11.016,12.563c0,3.041-2.466,5.507-5.507,5.507C2.466,18.07,0,15.604,0,12.563c0-3.043,2.466-5.509,5.508-5.509  C8.549,7.055,11.016,9.521,11.016,12.563"/>
</svg>