<?xml version="1.0" encoding="utf-8"?>
<svg version="1.1" xmlns="http://www.w3.org/2000/svg" xmlns:xlink="http://www.w3.org/1999/xlink" x="0px" y="0px"
	 width="250px" height="250px" viewBox="0 0 250 250" enable-background="new 0 0 250 250" xml:space="preserve">
<path id="path2076"  fill="#52C9A3" d="M86.187,236.114
	c-11.388-2.683-21.675-14.669-23.743-27.663c-1.196-7.507,0.122-13.686,4.363-20.462c1.271-2.031,21.386-22.823,47.017-48.599
	c26.178-26.325,45.729-46.543,47.039-48.643c2.658-4.26,5.418-10.838,6.123-14.592c0.277-1.48,0.872-2.833,1.32-3.005
	c0.969-0.372,26.353,24.968,31.099,31.045c8.768,11.107,9.931,15.955,9.982,21.483c-0.036,8.428-3.639,12.12-7.82,18.412
	c-2.844,4.278-85.189,85.505-89.869,88.647c-1.673,1.124-4.631,2.515-6.572,3.091C101.26,236.979,90.534,237.14,86.187,236.114
	L86.187,236.114z"/>
<path id="path2074"  fill="#14A8C9" d="M92.545,87.127
	C70.739,65.26,67.926,62.182,66.016,58.091c-5.89-12.615-3.47-26.901,6.105-36.035c2.262-2.158,5.69-4.723,7.618-5.699
	c9.716-4.923,23.135-4.002,32.159,2.207c1.719,1.183,9.999,9.049,18.401,17.482c13.225,13.273,15.604,15.996,17.713,20.272
	c4.422,8.969,3.938,17.375-1.622,28.081c-2.077,4.001-4.815,7.258-13.541,16.104c-10.026,10.164-11.146,11.088-13.425,11.086
	C117.097,111.587,115.396,110.04,92.545,87.127z"/>
<path id="path2072"  fill="#5369A9" d="M42.143,182.458
	l-1.531-1.629v-56.318V68.191c0-2.269,3.652-3.032,5.68-3.061c2.251,0,4.446,2.024,31.102,28.687
	c25.023,25.028,28.681,27.107,28.68,30.798c-0.002,3.689-3.655,5.766-28.687,30.792c-27.067,27.063-28.829,28.681-31.2,28.681
	C44.469,184.088,43.188,183.571,42.143,182.458z"/>
</svg>
