<?xml version="1.0" encoding="UTF-8" standalone="no"?>
<svg
        xmlns="http://www.w3.org/2000/svg"
        width="61.965988mm"
        height="48.596832mm"
        viewBox="0 0 61.965989 48.596832"
        version="1.1">
    <g transform="matrix(0.97465742,0,0,0.97465742,121.25942,-37.533412)">
        <path
                style="fill:#50abf1;fill-opacity:1;stroke-width:0.26458332"
                d="m -87.639384,48.103807 c -0.83674,-0.517127 -1.51902,-1.079486 -1.51617,-1.249686 0.005,-0.288357 4.23388,-3.121404
       4.92767,-3.301058 0.31903,-0.08261 3.16523,1.418646 3.39527,1.790869 0.0693,0.112184 -0.0795,0.386977 -0.33072,0.610652
       -0.85926,0.765019 -4.38703,3.103634 -4.67108,3.096539 -0.15599,-0.0039 -0.96822,-0.430188 -1.80497,-0.947316 z m
       -12.435416,1.582474 c -0.69122,-0.518846 -1.25604,-1.080778 -1.25516,-1.248736 7.9e-4,-0.167959 2.795806,-1.95109
       6.210946,-3.962515 l 6.20936,-3.657135 1.59425,0.849728 c 0.87684,0.46735 1.59425,0.939985 1.59425,1.050299 0,0.313658
       -12.17573,7.928766 -12.66282,7.919746 -0.23873,-0.004 -0.9996,-0.43254 -1.690826,-0.951387 z m -22.92651,7.203557 -1.41104,-1.42879
       0.62633,-0.40588 c 0.34448,-0.22324 7.33677,-4.03737 15.53841,-8.475859 l 14.912086,-8.069972 1.42593,0.699344 c 0.78427,0.38464
       1.42594,0.82959 1.42594,0.988779 0,0.217853 -30.659476,18.121168 -31.032546,18.121168 -0.0407,0 -0.70904,-0.64296 -1.48511,-1.42879 z
       m 39.407826,4.2842 c -1.07349,-0.77011 -1.99321,-1.52478 -2.04382,-1.67704 -0.0722,-0.21722 9.65735,-8.30344 11.86437,-9.860476
       0.42906,-0.302698 0.76662,-0.201878 2.60671,0.778566 1.1626,0.61946 2.112128,1.25218 2.110065,1.40606 -0.0053,0.39367 -11.585555,10.58162
       -12.134815,10.67581 -0.24789,0.0425 -1.32902,-0.5528 -2.40251,-1.32292 z m -35.462046,-0.0987 c -1.16667,-1.23358 -1.33631,-1.53156
       -1.03056,-1.81025 0.26442,-0.24102 14.93094,-8.9035 16.70498,-9.866459 0.29295,-0.159015 3.402316,2.083569 3.30281,2.382099 -0.12863,0.38591
       -16.66927,10.77042 -17.15603,10.77087 -0.23356,2.1e-4 -1.05309,-0.6641 -1.8212,-1.47626 z m 20.559606,2.38265 c -0.97752,-0.81138
       -1.772016,-1.61506 -1.765556,-1.78594 0.006,-0.17087 0.869676,-0.91362 1.918226,-1.65054 1.04856,-0.73692 5.74979,-4.10043 10.44717,-7.47448
       4.69738,-3.374042 8.73407,-6.134624 8.97041,-6.134624 0.63219,0 3.83253,1.850348 3.73038,2.156804 -0.14839,0.44515 -20.68696,16.35703
       -21.11781,16.36063 -0.22302,0.002 -1.20529,-0.66046 -2.18282,-1.47185 z m -15.791686,2.41373 c -1.48244,-1.49905 -1.65932,-1.77866
       -1.32291,-2.09124 0.48226,-0.44811 24.159556,-15.733344 24.643396,-15.908928 0.37882,-0.137469 3.65847,1.848334 3.65847,2.215175 0,0.262223
       -24.272676,17.260193 -24.863536,17.411753 -0.23462,0.0602 -1.12204,-0.62225 -2.11542,-1.62676 z m 5.13251,5.26842 c -1.03474,-1.15615
       -1.68452,-2.08962 -1.54513,-2.21974 0.7219,-0.67391 8.17024,-5.8387 8.41597,-5.83577 0.40037,0.005 3.995396,3.08705 3.995396,3.42553
       0,0.41622 -8.066246,6.62516 -8.606966,6.62516 -0.26047,0 -1.27714,-0.89783 -2.25927,-1.99518 z m 6.25912,6.38404 c -1.3218,-1.32871
       -2.15786,-2.37251 -2.07445,-2.5899 0.15068,-0.39266 17.280786,-14.23912 17.601056,-14.22713 0.39482,0.0148 4.42634,3.07772 4.42634,3.3629
       0,0.30012 -17.220596,15.67988 -17.556646,15.67988 -0.10016,0 -1.17849,-1.00159 -2.3963,-2.22575 z m 6.763806,6.94892 c -2.45176,-2.61569
       -2.525,-2.72897 -2.08429,-3.22357 0.69857,-0.784 30.4958,-28.05978 30.923573,-28.30682 0.370096,-0.21373 4.023447,1.5502 4.821637,2.328
       0.305998,0.29819 -2.068179,2.83579 -15.02077,16.05471 -8.46132,8.6353 -15.54507,15.73611 -15.74165,15.77959 -0.19659,0.0435 -1.50091,-1.14089
       -2.8985,-2.63191 z"/>
    </g>
    <polygon
            transform="matrix(1.6735955,0,0,1.6735955,41.002184,27.503774)"
            style="fill:#3d6480"
            points="9.8,8.5 4.6,3.3 3.3,4.7 8.5,9.9 5.3,9.9 5.3,11.8 11.7,11.8 11.7,5.5 9.8,5.5 "/>
</svg>
