<?xml version="1.0" encoding="utf-8"?>
<svg version="1.1" xmlns="http://www.w3.org/2000/svg" xmlns:xlink="http://www.w3.org/1999/xlink" x="0px" y="0px"
	 width="128px" height="128px" viewBox="0 0 128 128" enable-background="new 0 0 128 128" xml:space="preserve">
<path d="M64.008,121.5L64.008,121.5c-32.168,0-58.146-25.614-58.146-57.332l0,0c0-31.718,25.978-57.334,58.146-57.334l0,0
	c32.167,0,58.145,25.616,58.145,57.334l0,0C122.153,95.852,96.176,121.5,64.008,121.5z"/>
<path fill="#FFF100" d="M91.246,55.587H80.888v15.231h10.358c4.328,0,7.867-3.478,7.867-7.662
	C99.113,58.972,95.574,55.587,91.246,55.587"/>
<path fill="#FFF100" d="M30.127,63.25c0,11.753,9.823,21.323,21.89,21.323s21.89-9.57,21.89-21.323
	c0-11.754-9.823-21.324-21.89-21.324S30.127,51.496,30.127,63.25L30.127,63.25"/>
</svg>
