<?xml version="1.0" encoding="UTF-8" standalone="no"?>
<svg
   xmlns:dc="http://purl.org/dc/elements/1.1/"
   xmlns:cc="http://creativecommons.org/ns#"
   xmlns:rdf="http://www.w3.org/1999/02/22-rdf-syntax-ns#"
   xmlns:svg="http://www.w3.org/2000/svg"
   xmlns="http://www.w3.org/2000/svg"
   xmlns:sodipodi="http://sodipodi.sourceforge.net/DTD/sodipodi-0.dtd"
   xmlns:inkscape="http://www.inkscape.org/namespaces/inkscape"
   version="1.1"
   x="0px"
   y="0px"
   viewBox="0 0 29.922933 25.591132"
   enable-background="new 0 0 100 100"
   xml:space="preserve"
   id="svg14"
   sodipodi:docname="bee.svg"
   width="29.922932"
   height="25.591131"
   inkscape:version="0.92.3 (2405546, 2018-03-11)"><metadata
     id="metadata20"><rdf:RDF><cc:Work
         rdf:about=""><dc:format>image/svg+xml</dc:format><dc:type
           rdf:resource="http://purl.org/dc/dcmitype/StillImage" /><dc:title></dc:title></cc:Work></rdf:RDF></metadata><defs
     id="defs18" /><sodipodi:namedview
     pagecolor="#ffffff"
     bordercolor="#666666"
     borderopacity="1"
     objecttolerance="10"
     gridtolerance="10"
     guidetolerance="10"
     inkscape:pageopacity="0"
     inkscape:pageshadow="2"
     inkscape:window-width="3840"
     inkscape:window-height="2039"
     id="namedview16"
     showgrid="false"
     units="px"
     inkscape:zoom="11.313709"
     inkscape:cx="-30.765988"
     inkscape:cy="0.19897208"
     inkscape:window-x="0"
     inkscape:window-y="0"
     inkscape:window-maximized="1"
     inkscape:current-layer="svg14" /><g
     id="g12"
     transform="matrix(0.33837215,0,0,0.33837215,-2.1993426,-5.5851248)"><path
       d="M 93.508,30.614 C 91.433,28.489 87.181,27.695 83.65,29.535 83.473,29.312 83.292,29.106 83.107,28.922 82.91,28.725 82.7,28.549 82.482,28.383 c 1.813,-3.572 0.82,-8.028 -1.498,-10.293 -2.045,-1.997 -4.814,-2.114 -7.227,-0.305 -0.662,0.497 -0.797,1.438 -0.3,2.101 0.498,0.663 1.438,0.796 2.101,0.3 1.247,-0.938 2.337,-0.919 3.329,0.051 1.512,1.477 2.087,4.617 0.82,6.936 -0.493,-0.092 -1.012,-0.142 -1.56,-0.142 -2.401,0 -4.794,0.897 -6.223,1.434 l -0.3,0.112 c -1.289,0.478 -2.521,0.98 -3.703,1.506 -3.106,-0.812 -6.442,-1.402 -9.431,-1.402 -3.808,0 -6.619,0.947 -8.356,2.815 -1.467,1.578 -2.112,3.736 -1.917,6.417 0.197,2.696 1.322,4.637 3.253,5.719 -0.347,0.627 -0.673,1.263 -0.955,1.914 -3.468,8.013 -0.662,14.854 -0.541,15.143 l 0.232,0.552 0.549,0.24 c 0.125,0.054 3.105,1.334 7.429,1.334 3.051,0 6.562,-0.614 10.141,-2.485 0.018,0.036 0.03,0.075 0.049,0.111 0.741,1.441 2.356,3.214 5.839,3.468 0.315,0.022 0.62,0.034 0.915,0.034 3.056,0 5.408,-1.235 6.802,-3.571 2.321,-3.891 1.617,-10.292 0.183,-15.879 0.706,-1.479 1.389,-3.067 2.042,-4.782 1.226,-3.22 1.295,-5.65 0.826,-7.472 2.312,-1.245 5.109,-0.828 6.382,0.474 0.814,0.833 0.759,1.881 -0.166,3.112 -0.497,0.663 -0.362,1.604 0.3,2.101 0.271,0.202 0.586,0.3 0.899,0.3 0.456,0 0.906,-0.207 1.201,-0.6 2.164,-2.888 1.373,-5.515 -0.089,-7.012 z M 79.354,58.833 c -0.953,1.599 -2.525,2.259 -4.922,2.082 -2.271,-0.165 -3.022,-1.134 -3.39,-1.848 -0.051,-0.099 -0.079,-0.217 -0.123,-0.322 -0.395,-0.951 -0.502,-2.151 -0.388,-3.516 0.078,-0.943 0.25,-1.954 0.51,-3.018 0.417,-1.703 1.037,-3.518 1.752,-5.319 0.533,-1.341 1.116,-2.67 1.715,-3.941 0.809,-1.717 1.638,-3.324 2.386,-4.686 l 0.081,0.081 c 1.127,2.778 2.306,6.56 2.956,10.238 0.715,4.046 0.789,7.959 -0.577,10.249 z M 51.21,37.694 c -0.134,-1.841 0.232,-3.2 1.121,-4.156 1.147,-1.233 3.22,-1.858 6.16,-1.858 1.633,0 3.399,0.2 5.176,0.522 3.716,0.675 7.47,1.891 10.128,2.965 l 0.056,0.056 c -1.245,0.682 -2.87,1.532 -4.683,2.389 -1.244,0.589 -2.576,1.178 -3.938,1.719 -1.776,0.707 -3.597,1.321 -5.331,1.739 -1.172,0.282 -2.3,0.469 -3.349,0.529 -0.237,0.014 -0.479,0.031 -0.707,0.031 -1.146,0 -2.056,-0.167 -2.757,-0.521 -1.163,-0.588 -1.75,-1.693 -1.876,-3.415 z m 20.211,2.17 0.825,0.825 c -0.592,1.208 -1.195,2.521 -1.768,3.889 l -2.947,-2.947 c 1.367,-0.574 2.683,-1.178 3.89,-1.767 z m -9.08,3.647 6.267,6.268 c -0.467,1.592 -0.821,3.172 -0.989,4.667 l -9.933,-9.932 c 1.483,-0.172 3.059,-0.529 4.655,-1.003 z m -2.186,16.2 -8.198,-8.198 c 0.181,-1.398 0.551,-2.907 1.19,-4.467 l 11.587,11.587 c -1.583,0.592 -3.124,0.927 -4.579,1.078 z m 21.197,-21.07 c -0.186,0.487 -0.374,0.961 -0.564,1.426 -0.787,-2.304 -1.593,-4.218 -2.178,-5.388 -0.074,-0.28 -0.224,-0.531 -0.438,-0.727 -0.195,-0.214 -0.449,-0.364 -0.73,-0.437 -1.188,-0.601 -2.924,-1.333 -4.974,-2.049 0.068,-0.025 0.133,-0.053 0.201,-0.078 l 0.31,-0.116 c 1.239,-0.465 3.312,-1.242 5.169,-1.242 1.228,0 2.156,0.331 2.838,1.013 1.565,1.566 1.689,4.122 0.366,7.598 z"
       id="path2"
       inkscape:connector-curvature="0" /><g
       id="g10"><path
         d="m 44.735,66.188 c -0.575,0 -1.125,-0.333 -1.372,-0.893 -0.336,-0.758 0.006,-1.644 0.764,-1.979 1.37,-0.607 2.185,-1.014 2.202,-1.022 0.742,-0.37 1.643,-0.068 2.012,0.671 0.371,0.74 0.071,1.642 -0.669,2.013 0,0 -0.865,0.433 -2.33,1.081 -0.197,0.087 -0.404,0.129 -0.607,0.129 z"
         id="path4"
         inkscape:connector-curvature="0" /><path
         d="m 15.426,90.381 c -0.628,0 -1.213,-0.396 -1.423,-1.024 -0.263,-0.785 0.161,-1.636 0.947,-1.898 1.608,-0.538 3.113,-1.157 4.474,-1.841 0.738,-0.374 1.643,-0.075 2.014,0.666 0.372,0.74 0.074,1.642 -0.666,2.014 -1.488,0.748 -3.126,1.423 -4.87,2.007 -0.158,0.051 -0.319,0.076 -0.476,0.076 z m 8.918,-4.649 c -0.425,0 -0.846,-0.179 -1.143,-0.527 -0.537,-0.63 -0.462,-1.577 0.169,-2.114 0.206,-0.176 0.401,-0.353 0.585,-0.531 0.997,-0.971 1.938,-1.957 2.794,-2.93 0.545,-0.622 1.495,-0.684 2.116,-0.136 0.622,0.547 0.684,1.494 0.136,2.116 -0.906,1.032 -1.901,2.075 -2.955,3.101 -0.229,0.223 -0.474,0.444 -0.73,0.663 -0.283,0.24 -0.628,0.358 -0.972,0.358 z m 6.636,-7.595 c -0.291,0 -0.584,-0.084 -0.843,-0.26 -0.685,-0.466 -0.862,-1.398 -0.396,-2.084 0.953,-1.402 1.744,-2.803 2.35,-4.163 0.337,-0.759 1.228,-1.1 1.979,-0.761 0.758,0.337 1.098,1.223 0.761,1.979 -0.678,1.523 -1.556,3.082 -2.609,4.632 -0.29,0.427 -0.762,0.657 -1.242,0.657 z m -5.601,-6.365 c -0.771,0 -1.427,-0.591 -1.493,-1.374 -0.069,-0.825 0.543,-1.551 1.369,-1.621 1.486,-0.125 3.104,-0.373 4.808,-0.737 0.806,-0.171 1.607,0.343 1.78,1.153 0.173,0.81 -0.343,1.607 -1.153,1.78 -1.827,0.391 -3.57,0.657 -5.183,0.794 -0.043,0.004 -0.085,0.005 -0.128,0.005 z m -5.043,-0.065 c -0.065,0 -0.132,-0.004 -0.198,-0.013 -2.06,-0.272 -3.858,-0.86 -5.347,-1.749 -0.712,-0.425 -0.944,-1.346 -0.52,-2.057 0.426,-0.713 1.347,-0.943 2.057,-0.52 1.136,0.678 2.55,1.133 4.202,1.351 0.821,0.108 1.399,0.862 1.291,1.684 -0.099,0.755 -0.744,1.304 -1.485,1.304 z M 35.267,69.73 c -0.643,0 -1.237,-0.417 -1.435,-1.063 -0.03,-0.1 -0.05,-0.2 -0.059,-0.3 -0.26,-0.32 -0.387,-0.745 -0.315,-1.185 0.12,-0.744 0.181,-1.484 0.181,-2.2 0,-0.782 -0.073,-1.558 -0.217,-2.304 -0.157,-0.813 0.375,-1.601 1.188,-1.757 0.807,-0.156 1.6,0.374 1.757,1.188 0.181,0.934 0.271,1.899 0.271,2.872 0,0.413 -0.017,0.832 -0.049,1.253 0.966,-0.32 1.948,-0.668 2.938,-1.04 0.772,-0.291 1.639,0.102 1.932,0.877 0.291,0.775 -0.102,1.641 -0.877,1.932 -1.656,0.622 -3.298,1.182 -4.878,1.662 -0.145,0.045 -0.293,0.065 -0.437,0.065 z M 12.181,66.5 C 11.63,66.5 11.1,66.195 10.837,65.669 10.14,64.269 9.691,62.625 9.508,60.785 9.488,60.599 9.473,60.412 9.461,60.227 c -0.054,-0.826 0.573,-1.54 1.4,-1.594 0.838,-0.059 1.54,0.573 1.594,1.4 0.01,0.147 0.021,0.296 0.037,0.448 0.148,1.48 0.495,2.774 1.03,3.849 0.369,0.741 0.067,1.642 -0.674,2.012 -0.214,0.107 -0.443,0.158 -0.667,0.158 z m 20.828,-7.26 c -0.489,0 -0.97,-0.239 -1.258,-0.681 -0.805,-1.234 -1.845,-2.341 -3.093,-3.289 -0.66,-0.501 -0.788,-1.441 -0.287,-2.102 0.501,-0.661 1.441,-0.789 2.102,-0.287 1.522,1.156 2.799,2.516 3.792,4.039 0.452,0.694 0.256,1.624 -0.438,2.076 -0.253,0.166 -0.537,0.244 -0.818,0.244 z M 11.763,56.698 c -0.215,0 -0.434,-0.046 -0.641,-0.145 -0.749,-0.354 -1.068,-1.248 -0.714,-1.997 0.869,-1.837 2.327,-3.289 4.217,-4.2 0.744,-0.361 1.643,-0.047 2.002,0.699 0.36,0.746 0.047,1.643 -0.699,2.003 -1.282,0.618 -2.228,1.554 -2.809,2.781 -0.256,0.543 -0.795,0.859 -1.356,0.859 z m 13.373,-3.519 c -0.169,0 -0.341,-0.028 -0.509,-0.089 -1.474,-0.531 -3.018,-0.827 -4.467,-0.855 -0.828,-0.017 -1.486,-0.701 -1.47,-1.53 0.017,-0.828 0.696,-1.437 1.53,-1.47 1.771,0.035 3.646,0.393 5.424,1.033 0.779,0.281 1.184,1.141 0.902,1.92 -0.22,0.611 -0.796,0.991 -1.41,0.991 z"
         id="path6"
         inkscape:connector-curvature="0" /><path
         d="m 7.998,92.136 c -0.734,0 -1.376,-0.54 -1.483,-1.288 -0.117,-0.82 0.453,-1.58 1.273,-1.697 0.783,-0.111 1.583,-0.25 2.377,-0.412 0.812,-0.164 1.604,0.357 1.77,1.17 0.165,0.812 -0.358,1.604 -1.17,1.77 C 9.913,91.852 9.054,92 8.212,92.121 8.141,92.131 8.068,92.136 7.998,92.136 Z"
         id="path8"
         inkscape:connector-curvature="0" /></g></g></svg>