<?xml version="1.0" encoding="utf-8"?>
<!-- Generator: Adobe Illustrator 14.0.0, SVG Export Plug-In . SVG Version: 6.00 Build 43363)  -->
<!DOCTYPE svg PUBLIC "-//W3C//DTD SVG 1.1//EN" "http://www.w3.org/Graphics/SVG/1.1/DTD/svg11.dtd">
<svg version="1.1" id="Layer_1" xmlns="http://www.w3.org/2000/svg" xmlns:xlink="http://www.w3.org/1999/xlink" x="0px" y="0px"
	 width="24px" height="24px" viewBox="0 0 24 24" enable-background="new 0 0 24 24" xml:space="preserve">
<path fill="#0F3B5A" d="M20.242,8.62c0-4.202-3.697-7.62-8.241-7.62C7.456,1,3.758,4.418,3.758,8.62
	c0,2.633,1.453,4.958,3.659,6.329v5.439c0,0.478,0.414,0.859,0.928,0.859c0.513,0,0.929-0.382,0.929-0.859v-4.577
	c0.573,0.186,1.175,0.315,1.798,0.38v5.95c0,0.475,0.415,0.859,0.93,0.859c0.513,0,0.929-0.385,0.929-0.859v-5.95
	c0.622-0.064,1.225-0.194,1.798-0.38v4.577c0,0.478,0.415,0.859,0.929,0.859s0.93-0.382,0.93-0.859v-5.439
	C18.789,13.578,20.242,11.252,20.242,8.62z M5.617,8.62c0-3.252,2.863-5.901,6.384-5.901c3.518,0,6.382,2.649,6.382,5.901
	c0,3.254-2.864,5.902-6.382,5.902C8.48,14.521,5.617,11.874,5.617,8.62z M12.001,12.859c2.528,0,4.585-1.902,4.585-4.24
	c0-2.337-2.057-4.239-4.585-4.239c-2.529,0-4.587,1.902-4.587,4.239C7.414,10.958,9.472,12.859,12.001,12.859z"/>
</svg>
