<?xml version="1.0" encoding="UTF-8" standalone="no"?>
<!-- Generator: Adobe Illustrator 19.1.0, SVG Export Plug-In . SVG Version: 6.00 Build 0)  -->

<svg
   xmlns:dc="http://purl.org/dc/elements/1.1/"
   xmlns:cc="http://creativecommons.org/ns#"
   xmlns:rdf="http://www.w3.org/1999/02/22-rdf-syntax-ns#"
   xmlns:svg="http://www.w3.org/2000/svg"
   xmlns="http://www.w3.org/2000/svg"
   xmlns:sodipodi="http://sodipodi.sourceforge.net/DTD/sodipodi-0.dtd"
   xmlns:inkscape="http://www.inkscape.org/namespaces/inkscape"
   version="1.1"
   id="Layer_1"
   x="0px"
   y="0px"
   viewBox="-297 389 10.530519 10.530519"
   xml:space="preserve"
   sodipodi:docname="workflow2.svg"
   width="10.530519"
   height="10.530519"
   inkscape:version="0.92.4 (5da689c313, 2019-01-14)"><metadata
   id="metadata24"><rdf:RDF><cc:Work
       rdf:about=""><dc:format>image/svg+xml</dc:format><dc:type
         rdf:resource="http://purl.org/dc/dcmitype/StillImage" /></cc:Work></rdf:RDF></metadata><defs
   id="defs22">
	

		
    
    
    
	</defs><sodipodi:namedview
   pagecolor="#ffffff"
   bordercolor="#666666"
   borderopacity="1"
   objecttolerance="10"
   gridtolerance="10"
   guidetolerance="10"
   inkscape:pageopacity="0"
   inkscape:pageshadow="2"
   inkscape:window-width="640"
   inkscape:window-height="480"
   id="namedview20"
   showgrid="false"
   inkscape:zoom="101.75195"
   inkscape:cx="2.7300584"
   inkscape:cy="5.0942083"
   inkscape:current-layer="Layer_1" />
<style
   type="text/css"
   id="style2">
	.st0{fill:none;}
	.st1{fill:#F99C1C;}
</style>
  <g
   id="Layer_2"
   transform="matrix(0.32605923,0.33209822,-0.33209822,0.32605923,-65.66063,360.79613)">
	<g
   id="Layer_2_1_">
		<rect
   x="-297"
   y="389"
   class="st0"
   width="16"
   height="16"
   id="rect4"
   style="fill:none" />
	</g>
</g>
  <polygon
   class="st1"
   points="-288,390.2 -286.8,389 -282.8,393 -282.8,391.1 -281,391.1 -281,396 -286,396 -286,394.3 -284,394.3 "
   id="polygon8"
   style="fill:#5cc9c4;fill-opacity:1"
   transform="matrix(0.32605923,0.33209822,-0.33209822,0.32605923,-65.66063,360.79613)" /><polygon
   class="st1"
   points="-282.2,398 -281,399.2 -285,403.2 -283.1,403.2 -283.1,405 -288,405 -288,400 -286.3,400 -286.3,402 "
   id="polygon10"
   style="fill:#5cc9c4;fill-opacity:1"
   transform="matrix(0.32605923,0.33209822,-0.33209822,0.32605923,-65.66063,360.79613)" /><polygon
   class="st1"
   points="-290,403.8 -291.2,405 -295.2,401 -295.2,402.9 -297,402.9 -297,398 -292,398 -292,399.7 -294,399.7 "
   id="polygon12"
   style="fill:#5cc9c4;fill-opacity:1"
   transform="matrix(0.32605923,0.33209822,-0.33209822,0.32605923,-65.66063,360.79613)" /><polygon
   class="st1"
   points="-295.8,396 -297,394.8 -293,390.8 -294.9,390.8 -294.9,389 -290,389 -290,394 -291.7,394 -291.7,392 "
   id="polygon14"
   style="fill:#5cc9c4;fill-opacity:1"
   transform="matrix(0.32605923,0.33209822,-0.33209822,0.32605923,-65.66063,360.79613)" />
</svg>