<?xml version="1.0" encoding="utf-8"?>
<!DOCTYPE svg PUBLIC "-//W3C//DTD SVG 1.1//EN" "http://www.w3.org/Graphics/SVG/1.1/DTD/svg11.dtd">
<svg version="1.1" id="Layer_1" xmlns="http://www.w3.org/2000/svg" xmlns:xlink="http://www.w3.org/1999/xlink" x="0px" y="0px"
	 width="42px" height="42px" viewBox="0 0 42 42" enable-background="new 0 0 42 42" xml:space="preserve">
<g>
	<polygon fill="#FFEBCD" points="39.604,30.643 38.456,28.959 38.456,28.063 33.223,25.895 31.425,27.705 29.645,25.9 
		24.458,28.094 24.458,28.947 22.991,30.838 24.458,31.602 24.458,36.258 31.458,39.791 38.456,36.258 38.456,31.277 	"/>
	<path fill="#3D6480" d="M38.423,27.992l-3.989-1.666l-0.359,0.861l2.695,1.125l-5.315,2.746l-5.379-2.716l2.575-1.075l-0.358-0.861
		l-3.801,1.586l-2.212,3.002l2.212,1.15v4.092l6.967,3.518l6.965-3.518V31.83l1.856-1.027L38.423,27.992z M24.958,28.303h0.002
		H24.958L24.958,28.303L24.958,28.303z M23.702,30.682l1.391-1.789l5.582,2.818l-1.381,1.883L23.702,30.682z M25.425,32.631
		l4.147,2.162l1.548-2.109v5.854l-5.695-2.875V32.631z M37.488,35.662l-5.93,2.992v-6.269l1.59,2.361l4.34-2.401V35.662z
		 M33.445,33.516l-1.217-1.807l5.574-2.879l1.127,1.652L33.445,33.516z"/>
	<path fill="#0CB20F" d="M33.497,25.436L31.934,27v-1.74c0-2.803-1.211-4.055-3.927-4.055v1.045c2.156,0,2.884,0.76,2.884,3.01
		v1.746l-1.65-1.65l-0.738,0.738L31.409,29l2.825-2.826L33.497,25.436z"/>
</g>
<path fill="#29B5E8" d="M26.158,13.353l-2.747,1.561l2.747,1.548c0.69,0.394,0.927,1.266,0.526,1.947
	c-0.398,0.681-1.283,0.914-1.973,0.521l-4.921-2.796c-0.459-0.262-0.737-0.751-0.722-1.275c0.004-0.111,0.021-0.222,0.051-0.329
	c0.102-0.359,0.341-0.666,0.667-0.854l4.921-2.786c0.692-0.395,1.579-0.162,1.979,0.522c0.001,0,0.001,0.001,0.001,0.002
	c0.398,0.674,0.168,1.537-0.516,1.93C26.169,13.347,26.163,13.35,26.158,13.353z M23.558,20.919l-4.919-2.792
	c-0.697-0.394-1.585-0.157-1.985,0.53c-0.124,0.213-0.19,0.454-0.193,0.7v5.576c0.028,0.789,0.698,1.406,1.498,1.381
	c0.762-0.025,1.374-0.629,1.399-1.381v-3.126l2.753,1.562c0.691,0.395,1.574,0.162,1.975-0.52c0.399-0.682,0.164-1.553-0.527-1.947
	V20.919z M17.888,15.465l-2.051,1.999c-0.07,0.064-0.161,0.102-0.257,0.107h-0.602c-0.096-0.006-0.187-0.044-0.257-0.107
	l-2.04-2.005c-0.063-0.069-0.102-0.157-0.107-0.25v-0.592c0.005-0.093,0.043-0.182,0.107-0.251l2.04-2.005
	c0.071-0.063,0.161-0.101,0.257-0.106h0.602c0.096,0.004,0.186,0.042,0.257,0.106l2.045,2.005c0.063,0.069,0.1,0.158,0.105,0.251
	v0.592c-0.005,0.093-0.042,0.181-0.105,0.25L17.888,15.465z M16.254,14.909c-0.008-0.096-0.049-0.186-0.115-0.256l-0.592-0.577
	c-0.071-0.063-0.162-0.1-0.257-0.105h-0.021c-0.095,0.005-0.186,0.042-0.255,0.105l-0.592,0.577
	c-0.064,0.071-0.101,0.161-0.105,0.255v0.021c0.004,0.093,0.041,0.182,0.105,0.25l0.595,0.576c0.07,0.063,0.16,0.1,0.255,0.105
	h0.021c0.096-0.005,0.186-0.042,0.257-0.105l0.592-0.581c0.064-0.069,0.103-0.157,0.109-0.25L16.254,14.909z M7,8.909l4.922,2.783
	c0.697,0.395,1.587,0.157,1.986-0.532c0.124-0.213,0.191-0.455,0.193-0.7V4.888c-0.028-0.789-0.698-1.406-1.498-1.38
	c-0.762,0.025-1.374,0.629-1.399,1.38v3.125L8.447,6.451C7.756,6.057,6.873,6.29,6.473,6.971C6.073,7.652,6.309,8.524,7,8.918l0,0
	V8.909z M17.8,11.882c0.29,0.023,0.581-0.042,0.834-0.186L23.553,8.9c0.691-0.394,0.927-1.267,0.527-1.948
	c-0.4-0.681-1.285-0.914-1.975-0.52l0,0l-2.753,1.576V4.883c-0.027-0.789-0.698-1.407-1.498-1.38
	c-0.762,0.025-1.374,0.628-1.399,1.38v5.576C16.455,11.208,17.042,11.831,17.8,11.882z M12.762,17.942
	c-0.291-0.023-0.582,0.041-0.834,0.186L7,20.914c-0.69,0.393-0.926,1.265-0.527,1.947c0.4,0.682,1.284,0.914,1.975,0.52l0,0
	l2.757-1.562v3.126c0.027,0.789,0.698,1.406,1.498,1.381c0.762-0.025,1.374-0.629,1.399-1.381v-5.586
	C14.1,18.614,13.515,17.996,12.762,17.942z M11.428,15.332c0.195-0.635-0.082-1.319-0.667-1.645l-4.917-2.795
	c-0.691-0.39-1.572-0.157-1.973,0.521c-0.397,0.674-0.167,1.54,0.518,1.932c0.004,0.002,0.009,0.005,0.013,0.007l2.747,1.561
	l-2.747,1.548c-0.69,0.393-0.928,1.264-0.529,1.945c0.398,0.681,1.281,0.915,1.972,0.522l4.917-2.796
	c0.316-0.174,0.554-0.461,0.666-0.801H11.428z"/>
</svg>
