<svg width="274" height="250" xmlns="http://www.w3.org/2000/svg" xmlns:xlink="http://www.w3.org/1999/xlink" overflow="hidden"><defs><clipPath id="clip0"><path d="M506 235 780 235 780 485 506 485Z" fill-rule="evenodd" clip-rule="evenodd"/></clipPath><clipPath id="clip1"><path d="M506 236 774 236 774 484 506 484Z" fill-rule="evenodd" clip-rule="evenodd"/></clipPath><clipPath id="clip2"><path d="M506 236 774 236 774 484 506 484Z" fill-rule="evenodd" clip-rule="evenodd"/></clipPath><clipPath id="clip3"><path d="M506 236 774 236 774 484 506 484Z" fill-rule="evenodd" clip-rule="evenodd"/></clipPath><clipPath id="clip4"><path d="M682 387 779 387 779 484 682 484Z" fill-rule="evenodd" clip-rule="evenodd"/></clipPath><clipPath id="clip5"><path d="M682 387 779 387 779 484 682 484Z" fill-rule="evenodd" clip-rule="evenodd"/></clipPath><clipPath id="clip6"><path d="M682 387 779 387 779 484 682 484Z" fill-rule="evenodd" clip-rule="evenodd"/></clipPath></defs><g clip-path="url(#clip0)" transform="translate(-506 -235)"><g clip-path="url(#clip1)"><g clip-path="url(#clip2)"><g clip-path="url(#clip3)"><path d="M77.5 0 0 50.22 53.94 93.62 131.44 45.26 77.5 0ZM0 135.78 77.5 186.62 131.44 141.36 53.94 93.62 0 135.78ZM131.44 141.36 186 186.62 262.88 136.4 209.56 93.62 131.44 141.36ZM262.88 50.22 186-1.10134e-14 131.44 45.26 209.56 93.62 262.88 50.22ZM132.06 151.28 77.5 196.54 54.56 181.04 54.56 198.4 132.06 244.9 209.56 198.4 209.56 181.04 186 196.54 132.06 151.28Z" fill="#007EE5" transform="matrix(1.00525 0 -0 1 506 236)"/></g></g></g><g clip-path="url(#clip4)"><g clip-path="url(#clip5)"><g clip-path="url(#clip6)"><path d="M730.5 480.97 775.97 435.5 748.688 435.5 748.688 387 712.313 387 712.313 435.5 685.03 435.5Z"/></g></g></g></g></svg>