<?xml version="1.0" encoding="UTF-8" standalone="no"?>
<svg version="1.1"
     x="0px"
     y="0px"
     viewBox="0 0 432.04999 488.39999"
     enable-background="new 0 0 1500 600"
     xml:space="preserve"
     width="432.04999"
     height="488.39999"
     xmlns="http://www.w3.org/2000/svg">
  <path style="fill:#018bff;stroke-width:12.23"
        d="m 277.16677,140.18987 a 71.423149,71.423149 0 0 0 -43.29408,14.67603 l -79.2503,-54.17896 a 73.379945,73.379945
   0 0 0 2.69054,-19.44553 72.034647,72.034647 0 1 0 -72.156945,71.17858 71.056248,71.056248 0 0 0 43.294065,-14.67602
   l 79.00572,54.54563 a 72.034647,72.034647 0 0 0 0,39.01376 l -79.2503,54.17898 a 71.056248,71.056248 0 0 0
   -43.049485,-14.67602 72.156943,72.156943 0 1 0 72.034615,72.03443 73.379945,73.379945 0 0 0 -2.56821,-19.20096
   l 79.2503,-54.17895 a 71.423149,71.423149 0 0 0 43.29408,14.67605 72.156943,72.156943 0 0 0 0,-143.94702 z"/>
    <g transform="matrix(1.1698595,0,0,1.1698595,-53.382603,-53.30616)"><circle
     cy="369.63559"
     cx="320.66077"
     style="fill:#ea102a;fill-opacity:1;stroke:none;stroke-width:20.3114;stroke-linecap:round;stroke-linejoin:round;stroke-opacity:1"
     r="82.399208" />
        <g transform="matrix(7.3570719,0,0,7.3570719,232.73335,283.34761)">
    <rect style="fill:#ffffff;fill-opacity:1;stroke:none;stroke-width:0.593223;stroke-linecap:round;stroke-linejoin:round;stroke-opacity:1"
          width="3.1845231"
          height="8.6455154"
          x="10.479167"
          y="4.976191"/>
            <rect style="fill:#ffffff;fill-opacity:1;stroke:none;stroke-width:0.68788;stroke-linecap:round;stroke-linejoin:round;stroke-miterlimit:4;stroke-dasharray:none;stroke-opacity:1"
                  width="3.333333"
                  height="2.8767211"
                  x="10.404762"
                  y="16.02804"/>
  </g>
 </g>
</svg>
