<?xml version="1.0" encoding="utf-8"?>
<!-- Generator: Adobe Illustrator 14.0.0, SVG Export Plug-In . SVG Version: 6.00 Build 43363)  -->
<!DOCTYPE svg PUBLIC "-//W3C//DTD SVG 1.1//EN" "http://www.w3.org/Graphics/SVG/1.1/DTD/svg11.dtd">
<svg version="1.1" id="Layer_1" xmlns="http://www.w3.org/2000/svg" xmlns:xlink="http://www.w3.org/1999/xlink" x="0px" y="0px"
	 width="12px" height="12px" viewBox="0 0 12 12" enable-background="new 0 0 12 12" xml:space="preserve">
<path fill="#0E3A5A" d="M8.723,4.386c-0.412,0-0.811,0.119-1.137,0.335L5.505,3.486c0.046-0.145,0.071-0.293,0.071-0.443
	c0.012-0.906-0.824-1.65-1.868-1.661C2.664,1.371,1.807,2.098,1.796,3.003c-0.014,0.907,0.823,1.65,1.867,1.662
	c0.007,0,0.014,0,0.019,0c0.412,0,0.811-0.116,1.138-0.334l2.071,1.243c-0.092,0.291-0.092,0.599,0,0.889L4.813,7.697
	C4.488,7.482,4.091,7.363,3.682,7.363c-1.045,0-1.895,0.734-1.896,1.643C1.783,9.914,2.63,10.65,3.676,10.652
	c1.045,0.002,1.895-0.734,1.897-1.641c0-0.002,0-0.004,0-0.006C5.573,8.859,5.551,8.711,5.505,8.568l2.081-1.236
	c0.326,0.219,0.725,0.336,1.137,0.336c1.043-0.064,1.828-0.85,1.754-1.758C10.408,5.094,9.66,4.445,8.723,4.386L8.723,4.386z"/>
</svg>
