<?xml version="1.0" encoding="UTF-8"?>
<!--
  ~ Licensed to the Apache Software Foundation (ASF) under one or more
  ~ contributor license agreements.  See the NOTICE file distributed with
  ~ this work for additional information regarding copyright ownership.
  ~ The ASF licenses this file to You under the Apache License, Version 2.0
  ~ (the "License"); you may not use this file except in compliance with
  ~ the License.  You may obtain a copy of the License at
  ~
  ~       http://www.apache.org/licenses/LICENSE-2.0
  ~
  ~ Unless required by applicable law or agreed to in writing, software
  ~ distributed under the License is distributed on an "AS IS" BASIS,
  ~ WITHOUT WARRANTIES OR CONDITIONS OF ANY KIND, either express or implied.
  ~ See the License for the specific language governing permissions and
  ~ limitations under the License.
  -->
<svg xmlns="http://www.w3.org/2000/svg" version="1.1" width="42px" height="42px" viewBox="0 0 42 42">
  <path d="M25,7 L14,20" stroke="#0E3A5A" stroke-width="1.8" stroke-linecap="round"/>
  <path d="M25,7 L36,17" stroke="#0E3A5A" stroke-width="1.8" stroke-linecap="round"/>
  <path d="M14,20 L15,35" stroke="#0E3A5A" stroke-width="1.8" stroke-linecap="round"/>
  <path d="M36,17 L32,35" stroke="#0E3A5A" stroke-width="1.8" stroke-linecap="round"/>
  <path d="M15,35 L32,35" stroke="#0E3A5A" stroke-width="1.8" stroke-linecap="round"/>
  <path d="M14,20 L36,17" stroke="#0E3A5A" stroke-width="1.8" stroke-linecap="round"/>
  <path d="M25,7 L32,35" stroke="#0E3A5A" stroke-width="1.8" stroke-linecap="round"/>
  <circle cx="25" cy="7" r="3.4" fill="#C9E8FB" stroke="#0E3A5A" stroke-width="2"/>
  <circle cx="14" cy="20" r="3.4" fill="#C9E8FB" stroke="#0E3A5A" stroke-width="2"/>
  <circle cx="36" cy="17" r="3.4" fill="#C9E8FB" stroke="#0E3A5A" stroke-width="2"/>
  <circle cx="15" cy="35" r="3.4" fill="#C9E8FB" stroke="#0E3A5A" stroke-width="2"/>
  <circle cx="32" cy="35" r="3.4" fill="#C9E8FB" stroke="#0E3A5A" stroke-width="2"/>
  <g transform="translate(1,1)"><circle cx="4.5" cy="4.5" r="3.3" fill="none" stroke="#0E3A5A" stroke-width="2"/><path d="M6.8,6.8 L12.5,12.5 M10,10 L12,8 M11.3,11.3 L13.2,9.4" stroke="#0E3A5A" stroke-width="2" stroke-linecap="round"/></g>
</svg>
