<?xml version="1.0" encoding="UTF-8" standalone="no"?>
<svg
        xmlns="http://www.w3.org/2000/svg"
        version="1.1"
        x="0px"
        y="0px"
        viewBox="0 0 432.04999 488.39999"
        enable-background="new 0 0 1500 600"
        xml:space="preserve"
        width="432.04999"
        height="488.39999">
<g transform="translate(-46,-57.25)">
</g>
    <path
            style="fill:#018bff;stroke-width:12.22999287"
            d="m 333.2581,176.01079 a 71.423149,71.423149 0 0 0 -43.29408,14.67603 l -79.2503,-54.17896 a 73.379945,73.379945 0 0 0 2.69054,-19.44553 72.034647,72.034647 0 1 0 -72.15694,71.17858 71.056248,71.056248 0 0 0 43.29406,-14.67602 l 79.00572,54.54563 a 72.034647,72.034647 0 0 0 0,39.01376 l -79.2503,54.17898 a 71.056248,71.056248 0 0 0 -43.04948,-14.67602 72.156943,72.156943 0 1 0 72.03461,72.03443 73.379945,73.379945 0 0 0 -2.56821,-19.20096 l 79.2503,-54.17895 a 71.423149,71.423149 0 0 0 43.29408,14.67605 72.156943,72.156943 0 0 0 0,-143.94702 z"
    />
</svg>