<?xml version="1.0" encoding="UTF-8" standalone="no"?>
<svg
    xmlns="http://www.w3.org/2000/svg"
    viewBox="0 0 533.33331 533.33331"
    height="533.33331"
    width="533.33331"
    xml:space="preserve"
    version="1.1">
  <path
      style="fill:#000000;stroke-width:2.22373605"
      d="m 127.02311,25.696386 c 0.78986,16.27965 0.12492,32.5612 -0.9393,48.83755 -3.77733,31.192734 -6.51055,62.394944 -7.73183,93.608664 -0.42771,14.04192 -0.46481,28.08505 0.20615,42.1261 0.19829,3.36454 0.47162,6.72823 0.44418,10.09353 0.0659,4.35627 1.10296,8.70611 1.64014,13.05911 0.22028,2.50815 0.45006,5.016 0.92993,7.52059 0,0 -34.150431,5.61555 -34.150431,5.61555 v 0 c 0.0793,-2.53366 -0.008,-5.06746 -0.32707,-7.59949 -0.54504,-4.34579 -1.65374,-8.68134 -2.16411,-13.02434 -0.0793,-3.41405 0.11627,-6.8271 0.398,-10.24 1.02879,-14.24468 2.09763,-28.48915 3.38254,-42.7317 2.78589,-31.21674 6.24525,-62.4286 8.07992,-93.652974 -0.0353,-15.99493 -0.34554,-32.01442 -3.67619,-47.97971 0,0 33.908271,-5.63288 33.908271,-5.63288 z"
  />
  <path
      style="fill:#000000;stroke-width:2.30626583"
      d="m 226.79301,8.0966357 c -3.72204,9.9188003 -5.02817,19.8786603 -6.16108,29.8377503 -0.97098,19.7584 -3.59565,39.50581 -5.42629,59.25927 -1.52696,17.563794 -1.57974,35.133224 -1.69764,52.700714 -0.664,14.21098 0.16031,28.41629 1.57746,42.62145 0.77655,7.46199 1.66367,14.9231 2.46995,22.38485 0.0545,0.55529 0.10894,1.11056 0.16389,1.66583 0,0 -38.55506,5.25172 -38.55506,5.25172 v 0 c 0.0134,-0.56363 0.0312,-1.12728 0.0447,-1.69091 0.12856,-7.54211 -0.12053,-15.08415 -0.61704,-22.62516 -0.9273,-14.24757 -1.31028,-28.49383 -0.90988,-42.74375 0.38673,-17.62933 1.38982,-35.25658 2.85775,-52.88195 1.75649,-19.703034 4.61459,-39.401084 4.36934,-59.113054 0.45389,-9.79513 1.09745,-19.58868 2.92683,-29.37263 0,0 38.95764,-5.2941303 38.95764,-5.2941303 z"
  />
  <path
      style="fill:#000000;stroke-width:2.61456156"
      d="m 25.843749,74.449766 c 17.04643,1.86359 34.09939,2.03985 51.14951,2.48462 33.477971,1.90297 66.957191,2.9894 100.437281,3.53582 26.50275,0.3345 53.00548,0.034 79.50793,-0.54222 11.1475,-0.25979 22.29475,-0.73337 33.44142,-1.41579 2.29694,-0.1488 4.59391,-0.29262 6.89104,-0.36166 0,0 -9.56373,32.564054 -9.56373,32.564054 v 0 c -2.22825,-0.064 -4.45635,-0.19811 -6.68441,-0.3413 -10.87079,-0.65661 -21.74208,-1.11534 -32.61359,-1.40774 -26.26317,-0.69622 -52.52647,-1.25454 -78.78968,-1.92575 -33.57071,-0.8714 -67.14098,-2.29273 -100.712241,-2.57438 -17.53666,0.45055 -35.07578,0.65804 -52.60899,2.48462 0,0 9.54546,-32.500274 9.54546,-32.500274 z"
  />
  <path
      style="fill:#000000;stroke-width:2.81284857"
      d="m 49.003029,142.82461 c 15.69256,4.01264 31.43871,3.9872 47.1567,4.7936 37.585451,2.52403 75.165841,0.44598 112.746271,-2.11041 16.54655,-0.91357 33.08611,-2.20385 49.62426,-4.48353 0,0 -9.54491,28.30666 -9.54491,28.30666 v 0 c -16.35649,1.37691 -32.71325,1.97809 -49.07209,2.78116 -37.78104,2.28097 -75.56024,4.26168 -113.346821,3.76626 -16.23421,0.23233 -32.48263,1.06418 -48.71077,-0.9435 0,0 11.14736,-32.11024 11.14736,-32.11024 z"
      id="path42"
  />
  <path
      d="m 378.76707,140.87099 c -79.29083,0 -132.50116,46.1656 -132.50116,135.72375 v 63.85233 a 59.95527,59.95527 0 0 1 25.8557,-6.14542 59.130888,59.130888 0 0 1 25.93063,5.99553 v -64.00234 c 0,-58.08162 32.07605,-87.90931 80.93966,-87.90931 48.86348,0 80.48989,29.82769 80.48989,87.90931 v 139.54599 h 51.63643 V 276.29484 C 511.26905,186.21212 458.05778,140.87099 378.76707,140.87099 Z"
      style="stroke-width:7.49440956"/>
  <path
      style="fill:#018bff;stroke-width:7.49440956"
      d="m 269.87325,350.71438 a 43.76735,43.76735 0 0 0 -26.53016,8.99331 L 194.77937,326.5074 a 44.966454,44.966454 0 0 0 1.64872,-11.91602 44.142069,44.142069 0 1 0 -44.21702,43.61748 43.542516,43.542516 0 0 0 26.53015,-8.99331 l 48.41386,33.42499 a 44.142069,44.142069 0 0 0 0,23.90722 l -48.56375,33.2003 a 43.542516,43.542516 0 0 0 -26.38026,-8.99331 44.217011,44.217011 0 1 0 44.14206,44.14194 44.966454,44.966454 0 0 0 -1.57376,-11.76614 l 48.56372,-33.2003 a 43.76735,43.76735 0 0 0 26.53016,8.99333 44.217011,44.217011 0 0 0 0,-88.2092 z"
  />
</svg>