<?xml version="1.0" encoding="UTF-8" standalone="no"?>
<svg
    xmlns="http://www.w3.org/2000/svg"
    version="1.1"
    x="0px"
    y="0px"
    width="42px"
    height="42px"
    viewBox="0 0 42 42"
    enable-background="new 0 0 42 42"
    xml:space="preserve">
<path
    d="m 27.59998,4.0122305 c -7.444822,0 -12.440876,4.3346031 -12.440876,12.7434475 v 5.995264 a 5.6293544,5.6293544 0 0 1 2.427658,-0.577012 5.5519508,5.5519508 0 0 1 2.434695,0.562939 v -6.009338 c 0,-5.453437 3.011705,-8.2540395 7.599632,-8.2540395 4.587921,0 7.557407,2.8006025 7.557407,8.2540395 v 13.102325 h 4.848279 V 16.727531 C 40.040882,8.269425 35.044794,4.0122305 27.59998,4.0122305 Z"
    style="stroke-width:0.70366931"/>
  <path
      style="fill:#018bff;stroke-width:0.70366931"
      d="m 17.375659,23.714969 a 4.1094287,4.1094287 0 0 0 -2.490987,0.8444 L 10.3249,21.442116 a 4.2220157,4.2220157 0 0 0 0.154802,-1.118832 4.1446122,4.1446122 0 1 0 -4.1516468,4.095355 4.0883185,4.0883185 0 0 0 2.4909869,-0.844399 l 4.5457009,3.138361 a 4.1446122,4.1446122 0 0 0 0,2.244701 l -4.5597749,3.11726 A 4.0883185,4.0883185 0 0 0 6.3280552,31.230157 4.1516487,4.1516487 0 1 0 10.472667,35.374767 4.2220157,4.2220157 0 0 0 10.3249,34.270008 l 4.559772,-3.117253 a 4.1094287,4.1094287 0 0 0 2.490987,0.844399 4.1516487,4.1516487 0 0 0 0,-8.282185 z"
  />
</svg>