<?xml version="1.0" encoding="UTF-8" standalone="no"?>
<svg
    xmlns="http://www.w3.org/2000/svg"
    viewBox="0 0 533.33331 533.33331"
    height="533.33331"
    width="533.33331"
    xml:space="preserve"
    version="1.1">
  <path
      d="m 343.42821,50.600292 c -93.85114,0 -156.83253,54.643008 -156.83253,160.646888 v 75.57767 a 70.964944,70.964944 0 0 1 30.60363,-7.27391 69.989176,69.989176 0 0 1 30.69234,7.0965 v -75.75508 c 0,-68.74729 37.96624,-104.05235 95.80267,-104.05235 57.83643,0 95.27044,35.30506 95.27044,104.05235 v 165.1709 h 61.11856 V 210.89236 C 500.26073,104.26753 437.27934,50.600292 343.42821,50.600292 Z"
      style="fill:#000000;stroke-width:8.87061787"/>
  <path
      style="fill:#018bff;stroke-width:8.87061787"
      d="m 214.53813,298.97759 a 51.804409,51.804409 0 0 0 -31.40199,10.64475 L 125.65453,270.3255 a 53.223708,53.223708 0 0 0 1.95154,-14.10428 52.24794,52.24794 0 1 0 -52.336646,51.62699 51.53829,51.53829 0 0 0 31.401986,-10.64474 l 57.30419,39.56296 a 52.24794,52.24794 0 0 0 0,28.29727 l -57.4816,39.29684 a 51.53829,51.53829 0 0 0 -31.224576,-10.64475 52.336646,52.336646 0 1 0 52.247936,52.24794 53.223708,53.223708 0 0 0 -1.86283,-13.92687 l 57.48161,-39.29683 a 51.804409,51.804409 0 0 0 31.40199,10.64474 52.336646,52.336646 0 0 0 0,-104.40718 z"
  />
  <g
      aria-label="constraint"
      style="fill:#000000;fill-opacity:1;stroke:none"
      transform="matrix(0.5300312,0,0,0.5300312,211.79746,531.47982)"><path
     d="m -302.71329,-72.610167 q -13.632,0 -24.384,-5.568 -10.56,-5.568 -16.704,-17.28 -5.952,-11.712003 -5.952,-29.952003 0,-19.008 6.336,-30.912 6.336,-11.904 17.088,-17.472 10.944,-5.568 24.768,-5.568 7.872,0 15.168,1.728 7.296,1.536 11.904,3.84 l -5.184,14.016 q -4.608,-1.728 -10.752,-3.264 -6.144,-1.536 -11.52,-1.536 -30.336,0 -30.336,38.976 0,18.624 7.296,28.608003 7.488,9.792 22.08,9.792 8.448,0 14.784,-1.728 6.528,-1.728 11.904,-4.224 v 14.976 q -5.184,2.688 -11.52,4.032 -6.144,1.536 -14.976,1.536 z"
     />
    <path
        d="m -162.36138,-126.17817 q 0,25.536 -13.056,39.552003 -12.864,14.016 -34.944,14.016 -13.632,0 -24.384,-6.144 -10.56,-6.336 -16.704,-18.24 -6.144,-12.096003 -6.144,-29.184003 0,-25.536 12.864,-39.36 12.864,-13.824 34.944,-13.824 14.016,0 24.576,6.336 10.752,6.144 16.704,18.048 6.144,11.712 6.144,28.8 z m -77.76,0 q 0,18.24 7.104,28.992003 7.296,10.56 23.04,10.56 15.552,0 22.848,-10.56 7.296,-10.752003 7.296,-28.992003 0,-18.24 -7.296,-28.608 -7.296,-10.368 -23.04,-10.368 -15.744,0 -22.848,10.368 -7.104,10.368 -7.104,28.608 z"
    />
    <path
        d="m -86.137469,-179.36217 q 18.432,0 27.84,9.024 9.408,8.832 9.408,28.8 v 67.008003 h -16.704 v -65.856003 q 0,-24.768 -23.04,-24.768 -17.088001,0 -23.616001,9.6 -6.528,9.6 -6.528,27.648 v 53.376003 h -16.896 V -177.44217 h 13.632 l 2.496,14.016 h 0.96 q 4.992,-8.064 13.824,-11.904 8.832001,-4.032 18.624001,-4.032 z"
    />
    <path
        d="m 49.99017,-102.94617 q 0,14.976003 -11.136,22.656003 -11.136,7.68 -29.9519996,7.68 -10.752,0 -18.624,-1.728 -7.6800004,-1.728 -13.6320004,-4.8 v -15.36 q 6.144,3.072 14.7840004,5.76 8.83200001,2.496 17.856,2.496 12.8639996,0 18.6239996,-4.032 5.76,-4.224 5.76,-11.136003 0,-3.84 -2.112,-6.912 -2.112,-3.072 -7.68,-6.144 -5.376,-3.072 -15.5519996,-6.912 -9.984,-3.84 -17.088,-7.68 -7.1040004,-3.84 -10.9440004,-9.216 -3.84,-5.376 -3.84,-13.824 0,-13.056 10.56,-20.16 10.7520004,-7.104 28.032,-7.104 9.408,0 17.472,1.92 8.256,1.728 15.36,4.992 l -5.76,13.44 q -6.528,-2.688 -13.632,-4.608 -7.104,-1.92 -14.592,-1.92 -10.3679996,0 -15.9359996,3.456 -5.376,3.264 -5.376,9.024 0,4.224 2.496,7.296 2.496,2.88 8.256,5.76 5.952,2.688 15.7439996,6.528 9.792,3.648 16.704,7.488 6.912,3.84 10.56,9.408 3.648,5.376 3.648,13.632 z"
    />
    <path
        d="m 109.31782,-86.434167 q 3.84,0 7.872,-0.576 4.032,-0.768 6.528,-1.536 v 12.864 q -2.688,1.344 -7.68,2.112 -4.992,0.96 -9.6,0.96 -8.063998,0 -14.975998,-2.688 -6.72,-2.88 -10.944,-9.792 -4.224,-6.912 -4.224,-19.392003 v -59.904 h -14.592 v -8.064 l 14.784,-6.72 6.72,-21.888 h 9.984 v 23.616 h 29.759998 v 13.056 H 93.189822 v 59.52 q 0,9.408003 4.416,14.016003 4.607998,4.416 11.711998,4.416 z"
    />
    <path
        d="m 192.26147,-179.36217 q 2.88,0 6.144,0.384 3.456,0.192 5.952,0.768 l -2.112,15.552 q -2.496,-0.576 -5.568,-0.96 -2.88,-0.384 -5.568,-0.384 -7.872,0 -14.784,4.416 -6.912,4.224 -11.136,12.096 -4.032,7.68 -4.032,18.048 v 54.912003 h -16.896 V -177.44217 h 13.824 l 1.92,18.816 h 0.768 q 4.992,-8.448 12.864,-14.592 7.872,-6.144 18.624,-6.144 z"
    />
    <path
        d="m 258.69303,-179.17017 q 18.816,0 27.84,8.256 9.024,8.256 9.024,26.304 v 70.080003 h -12.288 l -3.264,-14.592 h -0.768 q -6.72,8.448 -14.208,12.48 -7.296,4.032 -20.352,4.032 -14.016,0 -23.232,-7.296 -9.216,-7.488 -9.216,-23.232003 0,-15.36 12.096,-23.616 12.096,-8.448 37.248,-9.216 l 17.472,-0.576 v -6.144 q 0,-12.864 -5.568,-17.856 -5.568,-4.992 -15.744,-4.992 -8.064,0 -15.36,2.496 -7.296,2.304 -13.632,5.376 l -5.184,-12.672 q 6.72,-3.648 15.936,-6.144 9.216,-2.688 19.2,-2.688 z m 20.16,54.336 -15.168,0.576 q -19.2,0.768 -26.688,6.144 -7.296,5.376 -7.296,15.168 0,8.640003 5.184,12.672003 5.376,4.032 13.632,4.032 13.056,0 21.696,-7.104 8.64,-7.296003 8.64,-22.272003 z"
    />
    <path
        d="m 336.06883,-216.03417 q 3.84,0 6.72,2.688 3.072,2.496 3.072,8.064 0,5.376 -3.072,8.064 -2.88,2.688 -6.72,2.688 -4.224,0 -7.104,-2.688 -2.88,-2.688 -2.88,-8.064 0,-5.568 2.88,-8.064 2.88,-2.688 7.104,-2.688 z m 8.256,38.592 v 102.912003 h -16.896 V -177.44217 Z"
    />
    <path
        d="m 426.50071,-179.36217 q 18.432,0 27.84,9.024 9.408,8.832 9.408,28.8 v 67.008003 h -16.704 v -65.856003 q 0,-24.768 -23.04,-24.768 -17.088,0 -23.616,9.6 -6.528,9.6 -6.528,27.648 v 53.376003 h -16.896 V -177.44217 h 13.632 l 2.496,14.016 h 0.96 q 4.992,-8.064 13.824,-11.904 8.832,-4.032 18.624,-4.032 z"
    />
    <path
        d="m 529.98835,-86.434167 q 3.84,0 7.872,-0.576 4.032,-0.768 6.528,-1.536 v 12.864 q -2.688,1.344 -7.68,2.112 -4.992,0.96 -9.6,0.96 -8.064,0 -14.976,-2.688 -6.72,-2.88 -10.944,-9.792 -4.224,-6.912 -4.224,-19.392003 v -59.904 h -14.592 v -8.064 l 14.784,-6.72 6.72,-21.888 h 9.984 v 23.616 h 29.76 v 13.056 h -29.76 v 59.52 q 0,9.408003 4.416,14.016003 4.608,4.416 11.712,4.416 z"
    /></g>
  <g
      style="font-style:normal;font-weight:normal;font-size:192px;line-height:1.25;font-family:sans-serif;letter-spacing:0px;word-spacing:0px;fill:#000000;fill-opacity:1;stroke:none"
  />
</svg>