<?xml version="1.0" encoding="UTF-8" standalone="no"?>
<svg
    xmlns="http://www.w3.org/2000/svg"
    version="1.1"
    x="0px"
    y="0px"
    width="42px"
    height="42px"
    viewBox="0 0 42 42"
    enable-background="new 0 0 42 42"
    xml:space="preserve"
>
  <ellipse
      fill="#3F6380"
      cx="20.375"
      cy="19.542"
      rx="13.041"
      ry="13.124"
  />
  <ellipse
      fill="#1DB24B"
      stroke="#FFFFFF"
      stroke-width="0.5"
      stroke-miterlimit="10"
      cx="27.458"
      cy="16.333"
      rx="7.208"
      ry="7.167"
  />
  <ellipse
      fill="#1DB24B"
      stroke="#FFFFFF"
      stroke-width="0.5"
      stroke-miterlimit="10"
      cx="18.042"
      cy="30.582"
      rx="5.875"
      ry="5.834"
  />
  <ellipse
      fill="#1DB24B"
      stroke="#FFFFFF"
      stroke-width="0.5"
      stroke-miterlimit="10"
      cx="13.092"
      cy="9.583"
      rx="4.075"
      ry="4"
  />
  <ellipse
      fill="#FFFFFF"
      cx="18.99"
      cy="8.667"
      rx="1.052"
      ry="1.083"
  />
  <ellipse
      fill="#FFFFFF"
      cx="21.705"
      cy="9.583"
      rx="1.052"
      ry="1.083"
  />
  <ellipse
      fill="#FFFFFF"
      cx="11.928"
      cy="15.229"
      rx="1.052"
      ry="1.083"
  />
  <ellipse
      fill="#FFFFFF"
      cx="12.115"
      cy="18.062"
      rx="1.052"
      ry="1.083"
  />
  <ellipse
      fill="#FFFFFF"
      cx="12.761"
      cy="21.105"
      rx="1.052"
      ry="1.083"
  />
  <ellipse
      fill="#FFFFFF"
      cx="14.22"
      cy="23.834"
      rx="1.052"
      ry="1.082"
  />
  <ellipse
      fill="#FFFFFF"
      cx="27.199"
      cy="25.334"
      rx="1.053"
      ry="1.082"
  />
  <ellipse
      fill="#FFFFFF"
      cx="25.304"
      cy="27.584"
      rx="1.052"
      ry="1.082"
  />

  <rect
      x="4.202"
      y="10.417"
      fill="#3D6380"
      width="7.481"
      height="1.236"
  />
  <rect
      x="10.448"
      y="4.171"
      fill="#3D6380"
      width="1.235"
      height="7.482"
  />
  <rect
      x="1.095"
      y="6.394"
      transform="matrix(-0.707 -0.7072 0.7072 -0.707 7.0628 16.9487)"
      fill="#3D6380"
      width="11.894"
      height="1.234"
  />
</svg>