<?xml version="1.0" encoding="UTF-8" standalone="no"?>
<svg
   xmlns="http://www.w3.org/2000/svg"
   viewBox="0 0 533.33331 533.33331"
   height="533.33331"
   width="533.33331"
   xml:space="preserve"
   version="1.1">
  <g
     transform="matrix(1.3333333,0,0,-1.3333333,0,533.33333)"
     id="g3726"><g
       transform="scale(0.1)"
       id="g3728">
  <path
         style="fill:#208cc7;fill-opacity:1;fill-rule:nonzero;stroke:none"
         d="m 3255.98,2150.96 c 0,-717.72 -581.83,-1299.55 -1299.55,-1299.55 -717.73,0 -1299.559,581.83 -1299.559,1299.55 0,717.72 581.829,1299.55 1299.559,1299.55 717.72,0 1299.55,-581.83 1299.55,-1299.55" /><path
         style="fill:#ffffff;fill-opacity:1;fill-rule:nonzero;stroke:none"
         d="m 1233.6,2576.83 c 0,-57.39 -46.56,-103.96 -103.96,-103.96 -57.43,0 -103.97,46.57 -103.97,103.96 0,57.45 46.54,103.97 103.97,103.97 57.4,0 103.96,-46.52 103.96,-103.97" /><path
         style="fill:#ffffff;fill-opacity:1;fill-rule:nonzero;stroke:none"
         d="m 1250.77,2291.94 c 0,-57.39 -46.56,-103.96 -103.96,-103.96 -57.43,0 -103.97,46.57 -103.97,103.96 0,57.45 46.54,103.96 103.97,103.96 57.4,0 103.96,-46.51 103.96,-103.96" /><path
         style="fill:#ffffff;fill-opacity:1;fill-rule:nonzero;stroke:none"
         d="m 1314.42,1989.87 c 0,-57.39 -46.56,-103.96 -103.96,-103.96 -57.43,0 -103.97,46.57 -103.97,103.96 0,57.45 46.54,103.97 103.97,103.97 57.4,0 103.96,-46.52 103.96,-103.97" /><path
         style="fill:#ffffff;fill-opacity:1;fill-rule:nonzero;stroke:none"
         d="m 1457.04,1719.15 c 0,-57.38 -46.56,-103.96 -103.96,-103.96 -57.43,0 -103.97,46.58 -103.97,103.96 0,57.46 46.54,103.97 103.97,103.97 57.4,0 103.96,-46.51 103.96,-103.97" /><path
         style="fill:#ffffff;fill-opacity:1;fill-rule:nonzero;stroke:none"
         d="m 2569.19,1340.59 c 0,-57.38 -46.56,-103.96 -103.97,-103.96 -57.43,0 -103.96,46.58 -103.96,103.96 0,57.46 46.53,103.97 103.96,103.97 57.41,0 103.97,-46.51 103.97,-103.97" /><path
         style="fill:#ffffff;fill-opacity:1;fill-rule:nonzero;stroke:none"
         d="m 2757.95,1564.02 c 0,-57.38 -46.56,-103.96 -103.97,-103.96 -57.43,0 -103.96,46.58 -103.96,103.96 0,57.46 46.53,103.97 103.96,103.97 57.41,0 103.97,-46.51 103.97,-103.97" /><path
         style="fill:#ffffff;fill-opacity:1;fill-rule:nonzero;stroke:none"
         d="m 2210.13,3143.99 c 0,-57.38 -46.56,-103.96 -103.96,-103.96 -57.43,0 -103.97,46.58 -103.97,103.96 0,57.45 46.54,103.97 103.97,103.97 57.4,0 103.96,-46.52 103.96,-103.97" /><path
         style="fill:#ffffff;fill-opacity:1;fill-rule:nonzero;stroke:none"
         d="m 1937.4,3239.81 c 0,-57.39 -46.56,-103.96 -103.96,-103.96 -57.43,0 -103.97,46.57 -103.97,103.96 0,57.45 46.54,103.97 103.97,103.97 57.4,0 103.96,-46.52 103.96,-103.97" /><path
         style="fill:#59b734;fill-opacity:1;fill-rule:nonzero;stroke:none"
         d="m 3366.55,2460.28 c 0,-382.48 -310.06,-692.53 -692.53,-692.53 -382.48,0 -692.53,310.05 -692.53,692.53 0,382.47 310.05,692.52 692.53,692.52 382.47,0 692.53,-310.05 692.53,-692.52" /><path
         style="fill:none;stroke:#ffffff;stroke-width:50;stroke-linecap:butt;stroke-linejoin:miter;stroke-miterlimit:10;stroke-dasharray:none;stroke-opacity:1"
         d="m 3366.55,2460.28 c 0,-382.48 -310.06,-692.53 -692.53,-692.53 -382.48,0 -692.53,310.05 -692.53,692.53 0,382.47 310.05,692.52 692.53,692.52 382.47,0 692.53,-310.05 692.53,-692.52 z" /><path
         style="fill:#59b734;fill-opacity:1;fill-rule:nonzero;stroke:none"
         d="m 2291.31,1048.58 c 0,-312.932 -253.68,-566.611 -566.61,-566.611 -312.93,0 -566.62,253.679 -566.62,566.611 0,312.93 253.69,566.61 566.62,566.61 312.93,0 566.61,-253.68 566.61,-566.61" /><path
         style="fill:none;stroke:#ffffff;stroke-width:50;stroke-linecap:butt;stroke-linejoin:miter;stroke-miterlimit:10;stroke-dasharray:none;stroke-opacity:1"
         d="m 2291.31,1048.58 c 0,-312.932 -253.68,-566.611 -566.61,-566.611 -312.93,0 -566.62,253.679 -566.62,566.611 0,312.93 253.69,566.61 566.62,566.61 312.93,0 566.61,-253.68 566.61,-566.61 z" /><path
         style="fill:#59b734;fill-opacity:1;fill-rule:nonzero;stroke:none"
         d="m 1636.53,3156.59 c 0,-208.63 -169.12,-377.75 -377.74,-377.75 -208.63,0 -377.747,169.12 -377.747,377.75 0,208.62 169.117,377.74 377.747,377.74 208.62,0 377.74,-169.12 377.74,-377.74" /><path
         style="fill:none;stroke:#ffffff;stroke-width:50;stroke-linecap:butt;stroke-linejoin:miter;stroke-miterlimit:10;stroke-dasharray:none;stroke-opacity:1"
         d="m 1636.53,3156.59 c 0,-208.63 -169.12,-377.75 -377.74,-377.75 -208.63,0 -377.747,169.12 -377.747,377.75 0,208.62 169.117,377.74 377.747,377.74 208.62,0 377.74,-169.12 377.74,-377.74 z" /></g></g>
</svg>