<?xml version="1.0" encoding="UTF-8" standalone="no"?>
<svg
    xmlns="http://www.w3.org/2000/svg"
    version="1.1"
    x="0px"
    y="0px"
    width="42px"
    height="42px"
    viewBox="0 0 42 42"
    enable-background="new 0 0 42 42"
    xml:space="preserve">
  <rect
      style="fill:#ffffff;fill-opacity:1;stroke:#000000;stroke-width:0.27988935;stroke-miterlimit:4;stroke-dasharray:none;stroke-opacity:0.95015576"
      width="11.334498"
      height="14.492783"
      x="4.6655011"
      y="2.5072174"
  />
  <rect
      style="fill:#ffffff;fill-opacity:1;stroke:#000000;stroke-width:0.27988935;stroke-miterlimit:4;stroke-dasharray:none;stroke-opacity:0.95015576"
      width="11.334498"
      height="14.492783"
      x="6.034483"
      y="3.7904921"
  />
  <g
      transform="matrix(1.6288903,0,0,1.6288903,0.07945561,1.1043667)"
  ><rect
   y="2.4538519"
   x="4.4263048"
   height="8.8973351"
   width="6.9584174"
   style="fill:#ffffff;fill-opacity:1;stroke:#000000;stroke-width:0.17182823;stroke-miterlimit:4;stroke-dasharray:none;stroke-opacity:0.95015576"
   />
    <text
        y="5.0476785"
        x="5.1348295"
        style="font-style:normal;font-weight:normal;font-size:5.33333349px;line-height:1.25;font-family:sans-serif;letter-spacing:0px;word-spacing:0px;fill:#000000;fill-opacity:1;stroke:none"
        xml:space="preserve"
    ><tspan
     style="font-size:3.33333349px"
     y="5.0476785"
     x="5.1348295"
     >csv</tspan></text>
</g>
  <path
      d="m 29.969964,9.9116287 c -6.517532,0 -10.891304,3.7947073 -10.891304,11.1561863 v 5.248524 a 4.9281901,4.9281901 0 0 1 2.125281,-0.505142 4.8604275,4.8604275 0 0 1 2.131443,0.492822 v -5.260845 c 0,-4.774184 2.636582,-7.225956 6.65306,-7.225956 4.016472,0 6.616094,2.451772 6.616094,7.225956 v 11.470365 h 4.244401 V 21.043174 C 40.861289,13.638569 36.487489,9.9116287 29.969964,9.9116287 Z"
      style="fill:#000000;stroke-width:0.61602378"/>
  <path
      style="fill:#018bff;stroke-width:0.61602378"
      d="m 21.019132,27.160292 a 3.5975788,3.5975788 0 0 0 -2.180722,0.739226 l -3.99183,-2.728984 a 3.6961425,3.6961425 0 0 0 0.135521,-0.979476 3.62838,3.62838 0 1 0 -3.634538,3.585258 3.579098,3.579098 0 0 0 2.180722,-0.739225 l 3.979511,2.747463 a 3.62838,3.62838 0 0 0 0,1.965112 l -3.991832,2.72899 a 3.579098,3.579098 0 0 0 -2.168401,-0.73923 3.6345401,3.6345401 0 1 0 3.628379,3.628378 3.6961425,3.6961425 0 0 0 -0.129362,-0.967156 l 3.99183,-2.728984 a 3.5975788,3.5975788 0 0 0 2.180722,0.739225 3.6345401,3.6345401 0 0 0 0,-7.250597 z"
  />
</svg>