<?xml version="1.0" encoding="UTF-8" standalone="no"?>
<svg
    xmlns="http://www.w3.org/2000/svg"
    viewBox="0 0 533.33331 533.33331"
    height="533.33331"
    width="533.33331"
    xml:space="preserve"
    version="1.1"
><g
     transform="matrix(1.3333333,0,0,-1.3333333,0,533.33333)"><g
       transform="scale(0.1)"><path
         d="m 3255.98,2150.96 c 0,-717.72 -581.83,-1299.55 -1299.55,-1299.55 -717.73,0 -1299.559,581.83 -1299.559,1299.55 0,717.72 581.829,1299.55 1299.559,1299.55 717.72,0 1299.55,-581.83 1299.55,-1299.55"
         style="fill:#208cc7;fill-opacity:1;fill-rule:nonzero;stroke:none"
         /><path
    d="m 1233.6,2576.83 c 0,-57.39 -46.56,-103.96 -103.96,-103.96 -57.43,0 -103.97,46.57 -103.97,103.96 0,57.45 46.54,103.97 103.97,103.97 57.4,0 103.96,-46.52 103.96,-103.97"
    style="fill:#ffffff;fill-opacity:1;fill-rule:nonzero;stroke:none"
/><path
    d="m 1250.77,2291.94 c 0,-57.39 -46.56,-103.96 -103.96,-103.96 -57.43,0 -103.97,46.57 -103.97,103.96 0,57.45 46.54,103.96 103.97,103.96 57.4,0 103.96,-46.51 103.96,-103.96"
    style="fill:#ffffff;fill-opacity:1;fill-rule:nonzero;stroke:none"
/><path
    d="m 1314.42,1989.87 c 0,-57.39 -46.56,-103.96 -103.96,-103.96 -57.43,0 -103.97,46.57 -103.97,103.96 0,57.45 46.54,103.97 103.97,103.97 57.4,0 103.96,-46.52 103.96,-103.97"
    style="fill:#ffffff;fill-opacity:1;fill-rule:nonzero;stroke:none"
/><path
    d="m 1457.04,1719.15 c 0,-57.38 -46.56,-103.96 -103.96,-103.96 -57.43,0 -103.97,46.58 -103.97,103.96 0,57.46 46.54,103.97 103.97,103.97 57.4,0 103.96,-46.51 103.96,-103.97"
    style="fill:#ffffff;fill-opacity:1;fill-rule:nonzero;stroke:none"
/><path
    d="m 2569.19,1340.59 c 0,-57.38 -46.56,-103.96 -103.97,-103.96 -57.43,0 -103.96,46.58 -103.96,103.96 0,57.46 46.53,103.97 103.96,103.97 57.41,0 103.97,-46.51 103.97,-103.97"
    style="fill:#ffffff;fill-opacity:1;fill-rule:nonzero;stroke:none"
/><path
    d="m 2757.95,1564.02 c 0,-57.38 -46.56,-103.96 -103.97,-103.96 -57.43,0 -103.96,46.58 -103.96,103.96 0,57.46 46.53,103.97 103.96,103.97 57.41,0 103.97,-46.51 103.97,-103.97"
    style="fill:#ffffff;fill-opacity:1;fill-rule:nonzero;stroke:none"
/><path
    d="m 2210.13,3143.99 c 0,-57.38 -46.56,-103.96 -103.96,-103.96 -57.43,0 -103.97,46.58 -103.97,103.96 0,57.45 46.54,103.97 103.97,103.97 57.4,0 103.96,-46.52 103.96,-103.97"
    style="fill:#ffffff;fill-opacity:1;fill-rule:nonzero;stroke:none"
/><path
    d="m 1937.4,3239.81 c 0,-57.39 -46.56,-103.96 -103.96,-103.96 -57.43,0 -103.97,46.57 -103.97,103.96 0,57.45 46.54,103.97 103.97,103.97 57.4,0 103.96,-46.52 103.96,-103.97"
    style="fill:#ffffff;fill-opacity:1;fill-rule:nonzero;stroke:none"
/><path
    d="m 3366.55,2460.28 c 0,-382.48 -310.06,-692.53 -692.53,-692.53 -382.48,0 -692.53,310.05 -692.53,692.53 0,382.47 310.05,692.52 692.53,692.52 382.47,0 692.53,-310.05 692.53,-692.52"
    style="fill:#59b734;fill-opacity:1;fill-rule:nonzero;stroke:none"
/><path
    d="m 3366.55,2460.28 c 0,-382.48 -310.06,-692.53 -692.53,-692.53 -382.48,0 -692.53,310.05 -692.53,692.53 0,382.47 310.05,692.52 692.53,692.52 382.47,0 692.53,-310.05 692.53,-692.52 z"
    style="fill:none;stroke:#ffffff;stroke-width:50;stroke-linecap:butt;stroke-linejoin:miter;stroke-miterlimit:10;stroke-dasharray:none;stroke-opacity:1"
/><path
    d="m 2291.31,1048.58 c 0,-312.932 -253.68,-566.611 -566.61,-566.611 -312.93,0 -566.62,253.679 -566.62,566.611 0,312.93 253.69,566.61 566.62,566.61 312.93,0 566.61,-253.68 566.61,-566.61"
    style="fill:#59b734;fill-opacity:1;fill-rule:nonzero;stroke:none"
/><path
    d="m 2291.31,1048.58 c 0,-312.932 -253.68,-566.611 -566.61,-566.611 -312.93,0 -566.62,253.679 -566.62,566.611 0,312.93 253.69,566.61 566.62,566.61 312.93,0 566.61,-253.68 566.61,-566.61 z"
    style="fill:none;stroke:#ffffff;stroke-width:50;stroke-linecap:butt;stroke-linejoin:miter;stroke-miterlimit:10;stroke-dasharray:none;stroke-opacity:1"
/><path
    d="m 1636.53,3156.59 c 0,-208.63 -169.12,-377.75 -377.74,-377.75 -208.63,0 -377.747,169.12 -377.747,377.75 0,208.62 169.117,377.74 377.747,377.74 208.62,0 377.74,-169.12 377.74,-377.74"
    style="fill:#59b734;fill-opacity:1;fill-rule:nonzero;stroke:none"
/><path
    d="m 1636.53,3156.59 c 0,-208.63 -169.12,-377.75 -377.74,-377.75 -208.63,0 -377.747,169.12 -377.747,377.75 0,208.62 169.117,377.74 377.747,377.74 208.62,0 377.74,-169.12 377.74,-377.74 z"
    style="fill:none;stroke:#ffffff;stroke-width:50;stroke-linecap:butt;stroke-linejoin:miter;stroke-miterlimit:10;stroke-dasharray:none;stroke-opacity:1"
/></g></g>
  <path
      style="fill:#000000;stroke-width:2.22373605"
      d="m 265.20134,201.33627 c 0.78986,16.27965 0.12492,32.5612 -0.9393,48.83755 -3.77733,31.19273 -6.51055,62.39494 -7.73183,93.60866 -0.42771,14.04192 -0.46481,28.08505 0.20615,42.1261 0.19829,3.36454 0.47162,6.72823 0.44418,10.09353 0.0659,4.35627 1.10296,8.70611 1.64014,13.05911 0.22028,2.50815 0.45006,5.016 0.92993,7.52059 0,0 -34.15043,5.61555 -34.15043,5.61555 v 0 c 0.0793,-2.53366 -0.008,-5.06746 -0.32707,-7.59949 -0.54504,-4.34579 -1.65374,-8.68134 -2.16411,-13.02434 -0.0793,-3.41405 0.11627,-6.8271 0.398,-10.24 1.02879,-14.24468 2.09763,-28.48915 3.38254,-42.7317 2.78589,-31.21674 6.24525,-62.4286 8.07992,-93.65297 -0.0353,-15.99493 -0.34554,-32.01442 -3.67619,-47.97971 0,0 33.90827,-5.63288 33.90827,-5.63288 z"
  />
  <path
      style="fill:#000000;stroke-width:2.30626583"
      d="m 364.97124,183.73652 c -3.72204,9.9188 -5.02817,19.87866 -6.16108,29.83775 -0.97098,19.7584 -3.59565,39.50581 -5.42629,59.25927 -1.52696,17.56379 -1.57974,35.13322 -1.69764,52.70071 -0.664,14.21098 0.16031,28.41629 1.57746,42.62145 0.77655,7.46199 1.66367,14.9231 2.46995,22.38485 0.0545,0.55529 0.10894,1.11056 0.16389,1.66583 0,0 -38.55506,5.25172 -38.55506,5.25172 v 0 c 0.0134,-0.56363 0.0312,-1.12728 0.0447,-1.69091 0.12856,-7.54211 -0.12053,-15.08415 -0.61704,-22.62516 -0.9273,-14.24757 -1.31028,-28.49383 -0.90988,-42.74375 0.38673,-17.62933 1.38982,-35.25658 2.85775,-52.88195 1.75649,-19.70303 4.61459,-39.40108 4.36934,-59.11305 0.45389,-9.79513 1.09745,-19.58868 2.92683,-29.37263 0,0 38.95764,-5.29413 38.95764,-5.29413 z"
  />
  <path
      style="fill:#000000;stroke-width:2.61456156"
      d="m 164.02198,250.08965 c 17.04643,1.86359 34.09939,2.03985 51.14951,2.48462 33.47797,1.90297 66.95719,2.9894 100.43728,3.53582 26.50275,0.3345 53.00548,0.034 79.50793,-0.54222 11.1475,-0.25979 22.29475,-0.73337 33.44142,-1.41579 2.29694,-0.1488 4.59391,-0.29262 6.89104,-0.36166 0,0 -9.56373,32.56405 -9.56373,32.56405 v 0 c -2.22825,-0.064 -4.45635,-0.19811 -6.68441,-0.3413 -10.87079,-0.65661 -21.74208,-1.11534 -32.61359,-1.40774 -26.26317,-0.69622 -52.52647,-1.25454 -78.78968,-1.92575 -33.57071,-0.8714 -67.14098,-2.29273 -100.71224,-2.57438 -17.53666,0.45055 -35.07578,0.65804 -52.60899,2.48462 0,0 9.54546,-32.50027 9.54546,-32.50027 z"
  />
  <path
      style="fill:#000000;stroke-width:2.81284857"
      d="m 187.18126,318.46449 c 15.69256,4.01264 31.43871,3.9872 47.1567,4.7936 37.58545,2.52403 75.16584,0.44598 112.74627,-2.11041 16.54655,-0.91357 33.08611,-2.20385 49.62426,-4.48353 0,0 -9.54491,28.30666 -9.54491,28.30666 v 0 c -16.35649,1.37691 -32.71325,1.97809 -49.07209,2.78116 -37.78104,2.28097 -75.56024,4.26168 -113.34682,3.76626 -16.23421,0.23233 -32.48263,1.06418 -48.71077,-0.9435 0,0 11.14736,-32.11024 11.14736,-32.11024 z"
  />
</svg>