<?xml version="1.0" encoding="UTF-8" standalone="no"?>
<svg
    xmlns="http://www.w3.org/2000/svg"
    viewBox="0 0 533.33331 533.33331"
    height="533.33331"
    width="533.33331"
    xml:space="preserve"
    version="1.1">
  <path
      d="m 343.42821,50.600292 c -93.85114,0 -156.83253,54.643008 -156.83253,160.646888 v 75.57767 a 70.964944,70.964944 0 0 1 30.60363,-7.27391 69.989176,69.989176 0 0 1 30.69234,7.0965 v -75.75508 c 0,-68.74729 37.96624,-104.05235 95.80267,-104.05235 57.83643,0 95.27044,35.30506 95.27044,104.05235 v 165.1709 h 61.11856 V 210.89236 C 500.26073,104.26753 437.27934,50.600292 343.42821,50.600292 Z"
      style="fill:#000000;stroke-width:8.87061787"/>
  <path
      style="fill:#018bff;stroke-width:8.87061787"
      d="m 214.53813,298.97759 a 51.804409,51.804409 0 0 0 -31.40199,10.64475 L 125.65453,270.3255 a 53.223708,53.223708 0 0 0 1.95154,-14.10428 52.24794,52.24794 0 1 0 -52.336646,51.62699 51.53829,51.53829 0 0 0 31.401986,-10.64474 l 57.30419,39.56296 a 52.24794,52.24794 0 0 0 0,28.29727 l -57.4816,39.29684 a 51.53829,51.53829 0 0 0 -31.224576,-10.64475 52.336646,52.336646 0 1 0 52.247936,52.24794 53.223708,53.223708 0 0 0 -1.86283,-13.92687 l 57.48161,-39.29683 a 51.804409,51.804409 0 0 0 31.40199,10.64474 52.336646,52.336646 0 0 0 0,-104.40718 z"
  />
  <g style="line-height:1.25;fill:#000000;fill-opacity:1;stroke:none;stroke-width:0.65031427">
    <path
        style="stroke-width:0.65031427"
        d="m 195.89023,413.95659 q 2.49721,0 4.37011,1.74805 1.99777,1.62318 1.99777,5.24413 0,3.49609 -1.99777,5.24414 -1.8729,1.74804 -4.37011,1.74804 -2.74693,0 -4.61983,-1.74804 -1.87291,-1.74805 -1.87291,-5.24414 0,-3.62095 1.87291,-5.24413 1.8729,-1.74805 4.61983,-1.74805 z m 5.369,25.09693 v 66.92515 h -10.98771 v -66.92515 z"/>
    <path
        style="stroke-width:0.65031427"
        d="m 254.69938,437.80492 q 11.98659,0 18.10475,5.86844 6.11816,5.74357 6.11816,18.72905 v 43.57626 h -10.86285 v -42.8271 q 0,-16.10698 -14.98324,-16.10698 -11.11257,0 -15.35782,6.24301 -4.24526,6.24302 -4.24526,17.97989 v 34.71118 h -10.98771 v -66.92515 h 8.86509 l 1.62318,9.11481 h 0.6243 q 3.24637,-5.24414 8.98995,-7.74134 5.74357,-2.62207 12.11145,-2.62207 z"/>
    <path
        style="stroke-width:0.65031427"
        d="m 323.37234,507.22727 q -12.48604,0 -19.97766,-8.61536 -7.49162,-8.74023 -7.49162,-25.97095 0,-17.23073 7.49162,-25.97096 7.61648,-8.86508 20.10252,-8.86508 7.74134,0 12.61089,2.87179 4.99442,2.87179 8.11593,6.99218 h 0.74916 q -0.12486,-1.62319 -0.49944,-4.7447 -0.24972,-3.24636 -0.24972,-5.11927 v -26.72011 h 10.98771 v 94.89386 h -8.86509 l -1.62318,-8.98995 h -0.49944 q -2.99665,4.24526 -7.99107,7.2419 -4.99441,2.99665 -12.86061,2.99665 z m 1.74804,-9.1148 q 10.61313,0 14.85838,-5.74358 4.37012,-5.86844 4.37012,-17.60531 v -1.99776 q 0,-12.48604 -4.1204,-19.10364 -4.12039,-6.74245 -15.23296,-6.74245 -8.86508,0 -13.36005,7.11704 -4.37012,6.99217 -4.37012,18.85391 0,11.98659 4.37012,18.60419 4.49497,6.6176 13.48491,6.6176 z"/>
    <path
        style="stroke-width:0.65031427"
        d="m 402.28405,437.80492 q 8.61536,0 14.73352,3.74581 6.24302,3.74581 9.48939,10.61313 3.37123,6.74246 3.37123,15.85726 v 6.6176 h -45.82375 q 0.24972,11.36229 5.74358,17.35559 5.61871,5.86844 15.60754,5.86844 6.36788,0 11.23743,-1.12375 4.99441,-1.2486 10.23855,-3.49609 v 9.61425 q -5.11928,2.24749 -10.11369,3.24637 -4.99441,1.12374 -11.86173,1.12374 -9.48939,0 -16.85615,-3.87067 -7.2419,-3.87067 -11.36229,-11.48715 -3.99553,-7.74134 -3.99553,-18.85391 0,-10.98771 3.62095,-18.85391 3.74581,-7.86621 10.36341,-12.11146 6.74246,-4.24525 15.60754,-4.24525 z m -0.12486,8.98995 q -7.8662,0 -12.48604,5.11927 -4.49497,4.99441 -5.36899,13.98436 h 34.08687 q -0.12486,-8.49051 -3.99553,-13.73464 -3.87067,-5.36899 -12.23631,-5.36899 z"/>
    <path
        style="stroke-width:0.65031427"
        d="m 460.21908,471.76693 -23.09916,-32.71341 h 12.48603 l 17.23073,25.22179 17.10587,-25.22179 h 12.36117 l -23.09916,32.71341 24.34776,34.21174 h -12.48603 l -18.22961,-26.72012 -18.47933,26.72012 h -12.36118 z"/>
  </g>
</svg>