<?xml version="1.0" encoding="UTF-8" standalone="no"?>
<svg
    xmlns="http://www.w3.org/2000/svg"
    version="1.1"
    x="0px"
    y="0px"
    width="42px"
    height="42px"
    viewBox="0 0 42 42"
    enable-background="new 0 0 42 42"
    xml:space="preserve">
<path
    d="m 29.439031,10.018441 c -6.517532,0 -10.891303,3.794707 -10.891303,11.156187 v 5.248524 a 4.9281901,4.9281901 0 0 1 2.125281,-0.505142 4.8604275,4.8604275 0 0 1 2.131442,0.492822 v -5.260845 c 0,-4.774184 2.636582,-7.225957 6.65306,-7.225957 4.016472,0 6.616094,2.451773 6.616094,7.225957 v 11.470365 h 4.244401 V 21.149987 c 0.01235,-7.404606 -4.36145,-11.131546 -10.878975,-11.131546 z"
    style="fill:#000000;stroke-width:0.61602378"/>
  <path
      style="fill:#018bff;stroke-width:0.61602378"
      d="m 20.4882,27.267105 a 3.5975788,3.5975788 0 0 0 -2.180722,0.739226 l -3.99183,-2.728984 a 3.6961425,3.6961425 0 0 0 0.135521,-0.979476 3.62838,3.62838 0 1 0 -3.634538,3.585258 3.579098,3.579098 0 0 0 2.180722,-0.739225 l 3.979511,2.747463 a 3.62838,3.62838 0 0 0 0,1.965112 l -3.991832,2.72899 a 3.579098,3.579098 0 0 0 -2.168401,-0.73923 3.6345401,3.6345401 0 1 0 3.628379,3.628378 3.6961425,3.6961425 0 0 0 -0.129362,-0.967156 l 3.99183,-2.728984 a 3.5975788,3.5975788 0 0 0 2.180722,0.739225 3.6345401,3.6345401 0 0 0 0,-7.250597 z"
  />
  <g
      style="fill:#018bff;fill-opacity:1;stroke:#018bff;stroke-width:0.04436514;stroke-linecap:butt;stroke-miterlimit:4;stroke-dasharray:none;stroke-opacity:1;paint-order:fill markers stroke"
      transform="matrix(1.4175392,0,0,1.4175392,-0.97170832,-2.3250353)"
  ><rect
     x="4.2020001"
     y="10.417"
     width="7.4809999"
     height="1.2359999"
     style="fill:#018bff;fill-opacity:1;stroke:#018bff;stroke-width:0.04436514;stroke-linecap:butt;stroke-miterlimit:4;stroke-dasharray:none;stroke-opacity:1;paint-order:fill markers stroke"
     />
    <rect
        x="10.448"
        y="4.171"
        width="1.235"
        height="7.4819999"
        style="fill:#018bff;fill-opacity:1;stroke:#018bff;stroke-width:0.04436514;stroke-linecap:butt;stroke-miterlimit:4;stroke-dasharray:none;stroke-opacity:1;paint-order:fill markers stroke"
    />
    <rect
        x="1.095"
        y="6.3940001"
        transform="matrix(-0.707,-0.7072,0.7072,-0.707,7.0628,16.9487)"
        width="11.894"
        height="1.234"
        style="fill:#018bff;fill-opacity:1;stroke:#018bff;stroke-width:0.04436556;stroke-linecap:butt;stroke-miterlimit:4;stroke-dasharray:none;stroke-opacity:1;paint-order:fill markers stroke"
    /></g>
</svg>