<?xml version="1.0" encoding="UTF-8" standalone="no"?>
<svg
    xmlns="http://www.w3.org/2000/svg"
    version="1.1"
    x="0px"
    y="0px"
    width="42px"
    height="42px"
    viewBox="0 0 42 42"
    enable-background="new 0 0 42 42"
    xml:space="preserve">
  
  <rect
      x="4.202"
      y="10.417"
      fill="#3D6380"
      width="7.481"
      height="1.236"
  />
  <rect
      x="10.448"
      y="4.171"
      fill="#3D6380"
      width="1.235"
      height="7.482"
  />
  <rect
      x="1.095"
      y="6.394"
      transform="matrix(-0.707 -0.7072 0.7072 -0.707 7.0628 16.9487)"
      fill="#3D6380"
      width="11.894"
      height="1.234"
  />
  <path
      d="m 27.225171,6.6517449 c -6.802038,0 -11.366725,3.9603541 -11.366725,11.6431781 v 5.477633 a 5.1433146,5.1433146 0 0 1 2.218048,-0.52719 5.072594,5.072594 0 0 1 2.224485,0.514332 v -5.490491 c 0,-4.982589 2.751675,-7.541383 6.943479,-7.541383 4.191797,0 6.904897,2.558794 6.904897,7.541383 v 11.971064 h 4.429682 V 18.269207 C 38.591867,10.541379 34.027201,6.6517449 27.225171,6.6517449 Z"
      id="path2"
      style="stroke-width:0.6429143"/>
  <path
      style="fill:#018bff;stroke-width:0.6429143"
      d="m 17.88362,24.653342 a 3.7546196,3.7546196 0 0 0 -2.275911,0.771505 l -4.166088,-2.848112 a 3.8574859,3.8574859 0 0 0 0.141441,-1.022234 3.7867653,3.7867653 0 1 0 -3.7931965,3.741756 3.7353322,3.7353322 0 0 0 2.2759185,-0.77149 l 4.153229,2.867392 a 3.7867653,3.7867653 0 0 0 0,2.050898 l -4.166088,2.848112 a 3.7353322,3.7353322 0 0 0 -2.2630595,-0.771498 3.7931945,3.7931945 0 1 0 3.7867675,3.786768 3.8574859,3.8574859 0 0 0 -0.135012,-1.009376 l 4.166088,-2.848112 a 3.7546196,3.7546196 0 0 0 2.275911,0.771497 3.7931945,3.7931945 0 0 0 0,-7.567106 z"
  />
</svg>