<?xml version="1.0" encoding="UTF-8" standalone="no"?>
<svg
    xmlns="http://www.w3.org/2000/svg"
    viewBox="0 0 533.33331 533.33331"
    height="533.33331"
    width="533.33331"
    xml:space="preserve"
    version="1.1">
  <polygon
      transform="matrix(19.60107,0,0,20.56549,-514.42784,-588.35741)"
      style="fill:#0c020f;fill-opacity:1"
      points="30.859,38.58 39.125,30.314 37.782,28.971 30.859,35.893 28.528,33.562 27.184,34.905 "
  />
  <path
      d="m 377.19844,120.31671 c -83.02729,0 -138.74508,48.34108 -138.74508,142.11952 v 66.86128 a 62.780574,62.780574 0 0 1 27.07411,-6.43501 61.917344,61.917344 0 0 1 27.15257,6.27805 V 262.1222 c 0,-60.81863 33.58758,-92.0519 84.75382,-92.0519 51.1661,0 84.28286,31.23327 84.28286,92.0519 v 146.12189 h 54.06973 V 262.1222 C 515.94439,167.79447 460.22561,120.31671 377.19844,120.31671 Z"
      style="stroke-width:7.8475728"/>
  <path
      style="fill:#018bff;stroke-width:7.8475728"
      d="m 263.17316,340.04865 a 45.829821,45.829821 0 0 0 -27.78035,9.41711 l -50.85223,-34.76481 a 47.085432,47.085432 0 0 0 1.72643,-12.47754 46.222199,46.222199 0 1 0 -46.30068,45.67289 45.594393,45.594393 0 0 0 27.78034,-9.4171 l 50.69529,35.00009 a 46.222199,46.222199 0 0 0 0,25.03381 l -50.85224,34.76481 a 45.594393,45.594393 0 0 0 -27.62339,-9.4171 46.300672,46.300672 0 1 0 46.22218,46.22206 47.085432,47.085432 0 0 0 -1.64793,-12.3206 l 50.85223,-34.76481 a 45.829821,45.829821 0 0 0 27.78035,9.41712 46.300672,46.300672 0 0 0 0,-92.36593 z"
  />
</svg>