<?xml version="1.0" encoding="UTF-8" standalone="no"?>
<svg
    xmlns="http://www.w3.org/2000/svg"
    version="1.1"
    x="0px"
    y="0px"
    width="42px"
    height="42px"
    viewBox="0 0 42 42"
    enable-background="new 0 0 42 42"
    xml:space="preserve"
>
  <g transform="matrix(1.2180716,0,0,1.2180716,-1.7832166,1.0816189)"><circle
   r="1.7473055"
   cy="15.603101"
   cx="9.3077497"
   style="fill:none;fill-opacity:1;stroke:#000000;stroke-width:0.86196536;stroke-miterlimit:4;stroke-dasharray:none;stroke-opacity:0.95015576"
   id="circle28" />
    <circle
        r="1.7473055"
        cy="15.602594"
        cx="16.365364"
        style="fill:none;fill-opacity:1;stroke:#000000;stroke-width:0.86196536;stroke-miterlimit:4;stroke-dasharray:none;stroke-opacity:0.95015576"
        id="circle30"/>
    <ellipse
        ry="0.49771407"
        rx="0.51935387"
        cy="15.605481"
        cx="9.3193407"
        style="fill:#000000;fill-opacity:1;stroke:none;stroke-width:3.2498405;stroke-miterlimit:4;stroke-dasharray:none;stroke-opacity:0.95015576"
        id="ellipse32"/>
    <ellipse
        ry="0.49771407"
        rx="0.51935387"
        cy="15.575911"
        cx="16.374222"
        style="fill:#000000;fill-opacity:1;stroke:none;stroke-width:3.2498405;stroke-miterlimit:4;stroke-dasharray:none;stroke-opacity:0.95015576"
        id="ellipse34"/>
    <path
        d="m 13.781739,15.834436 c 0.246469,-1.602071 0.985889,-2.218253 0.985889,-2.218253 L 16,13 12.795843,13.616183 9.838169,8.0705342 H 7.003726 L 5.401648,10.042319 H 3.5531 l -0.73942,0.369707 v 3.820339 l 0.492944,0.616182 3.204157,0.369707 1.355603,-2.095016 h 2.834436 l 1.109134,1.848547 z"
        style="fill:#000000;fill-opacity:1;stroke:none;stroke-width:0.08383971;stroke-linecap:butt;stroke-linejoin:miter;stroke-miterlimit:4;stroke-dasharray:none;stroke-opacity:1"
        id="path36"
    />
    <path
        d="m 9.591693,8.5634786 c 0.616183,1.4788404 0.616183,1.4788404 0.616183,1.4788404 H 9.221987 V 8.5634786 Z"
        style="fill:#ffffff;fill-opacity:1;stroke:none;stroke-width:0.02574329px;stroke-linecap:butt;stroke-linejoin:miter;stroke-opacity:1"
        id="path38"
    />
    <path
        d="m 8.852273,8.5634786 c 0,1.4788404 0,1.4788404 0,1.4788404 H 6.387543 L 7.250202,8.5634786 Z"
        style="fill:#ffffff;fill-opacity:1;stroke:#000000;stroke-width:0.02574329px;stroke-linecap:butt;stroke-linejoin:miter;stroke-opacity:1"
        id="path40"
    />
    <path
        d="m 11.091002,1.0726823 2.432234,2.7843744 -2.114486,5.4470064 c 0,0 5.074662,3.7488149 5.074662,3.7488149 L 18.164688,12.729673 19,12 13.961644,6.4195034 14.821522,4.032038 11.74069,0.50516026 Z"
        style="fill:#000000;fill-opacity:1;stroke:none;stroke-width:0.02464732px;stroke-linecap:butt;stroke-linejoin:miter;stroke-opacity:1"
        id="path42"
    />
    <g
        transform="matrix(0.26657004,0.11853829,-0.11853829,0.26657004,15.110955,2.82119)"
        id="g50"><rect
   style="fill:#ffffff;fill-opacity:1;stroke:#000000;stroke-width:0.17182823;stroke-miterlimit:4;stroke-dasharray:none;stroke-opacity:0.95015576"
   width="6.9584174"
   height="8.8973351"
   x="4.4263048"
   y="2.4538519"
   id="rect44" />
      <text
          xml:space="preserve"
          style="font-style:normal;font-weight:normal;font-size:5.33333349px;line-height:1.25;font-family:sans-serif;letter-spacing:0px;word-spacing:0px;fill:#000000;fill-opacity:1;stroke:none"
          x="5.1348295"
          y="5.0476785"
          id="text48"><tspan
     x="5.1348295"
     y="5.0476785"
     style="font-size:3.33333349px"
     id="tspan46">csv</tspan></text>

</g>
    <g
        transform="matrix(0.11960109,0.26609489,-0.26609489,0.11960109,20.658868,3.6129694)"
        id="g57"><rect
   style="fill:#ffffff;fill-opacity:1;stroke:#000000;stroke-width:0.17182823;stroke-miterlimit:4;stroke-dasharray:none;stroke-opacity:0.95015576"
   width="6.9584174"
   height="8.8973351"
   x="4.4263048"
   y="2.4538519"
   id="rect52" />
      <text
          xml:space="preserve"
          style="font-style:normal;font-weight:normal;font-size:5.33333349px;line-height:1.25;font-family:sans-serif;letter-spacing:0px;word-spacing:0px;fill:#000000;fill-opacity:1;stroke:none"
          x="5.1348295"
          y="5.0476785"
          id="text837-7-7"><tspan
     x="5.1348295"
     y="5.0476785"
     style="font-size:3.33333349px"
     id="tspan54">csv</tspan></text>


</g>
    <g
        transform="matrix(0.28996443,0.03211758,-0.03211758,0.28996443,16.166135,7.146308)"
        id="g65"><rect
   style="fill:#ffffff;fill-opacity:1;stroke:#000000;stroke-width:0.17182823;stroke-miterlimit:4;stroke-dasharray:none;stroke-opacity:0.95015576"
   width="6.9584174"
   height="8.8973351"
   x="4.4263048"
   y="2.4538519"
   id="rect59" />
      <text
          xml:space="preserve"
          style="font-style:normal;font-weight:normal;font-size:5.33333349px;line-height:1.25;font-family:sans-serif;letter-spacing:0px;word-spacing:0px;fill:#000000;fill-opacity:1;stroke:none"
          x="5.1348295"
          y="5.0476785"
          id="text63"><tspan
     x="5.1348295"
     y="5.0476785"
     style="font-size:3.33333349px"
     id="tspan61">csv</tspan></text>



</g>
    <g
        transform="matrix(0.09935915,0.27429668,-0.27429668,0.09935915,21.982417,7.7493644)"
        id="g73"><rect
   style="fill:#ffffff;fill-opacity:1;stroke:#000000;stroke-width:0.17182823;stroke-miterlimit:4;stroke-dasharray:none;stroke-opacity:0.95015576"
   width="6.9584174"
   height="8.8973351"
   x="4.4263048"
   y="2.4538519"
   id="rect67" />
      <text
          xml:space="preserve"
          style="font-style:normal;font-weight:normal;font-size:5.33333349px;line-height:1.25;font-family:sans-serif;letter-spacing:0px;word-spacing:0px;fill:#000000;fill-opacity:1;stroke:none"
          x="5.1348295"
          y="5.0476785"
          id="text71"><tspan
     x="5.1348295"
     y="5.0476785"
     style="font-size:3.33333349px"
     id="tspan69">csv</tspan></text>



</g>
    <g
        transform="matrix(0.12245408,-0.26479408,0.26479408,0.12245408,20.600167,9.6246078)"
        id="g81"><rect
   style="fill:#ffffff;fill-opacity:1;stroke:#000000;stroke-width:0.17182823;stroke-miterlimit:4;stroke-dasharray:none;stroke-opacity:0.95015576"
   width="6.9584174"
   height="8.8973351"
   x="4.4263048"
   y="2.4538519"
   id="rect75" />
      <text
          xml:space="preserve"
          style="font-style:normal;font-weight:normal;font-size:5.33333349px;line-height:1.25;font-family:sans-serif;letter-spacing:0px;word-spacing:0px;fill:#000000;fill-opacity:1;stroke:none"
          x="5.1348295"
          y="5.0476785"
          id="text79"><tspan
     x="5.1348295"
     y="5.0476785"
     style="font-size:3.33333349px"
     id="tspan77">csv</tspan></text>



</g>
    <g transform="matrix(-0.17927981,-0.23015138,0.23015138,-0.17927981,24.428559,15.450681)"><rect
   style="fill:#ffffff;fill-opacity:1;stroke:#000000;stroke-width:0.17182823;stroke-miterlimit:4;stroke-dasharray:none;stroke-opacity:0.95015576"
   width="6.9584174"
   height="8.8973351"
   x="4.4263048"
   y="2.4538519"/>
      <text
          xml:space="preserve"
          style="font-style:normal;font-weight:normal;font-size:5.33333349px;line-height:1.25;font-family:sans-serif;letter-spacing:0px;word-spacing:0px;fill:#000000;fill-opacity:1;stroke:none"
          x="5.1348295"
          y="5.0476785"
      ><tspan
     x="5.1348295"
     y="5.0476785"
     style="font-size:3.33333349px"
     >csv</tspan></text>

</g></g>
  <path
      d="m 33.258691,18.66522 c -4.648686,0 -7.768317,2.706608 -7.768317,7.957247 v 3.743556 a 3.5150744,3.5150744 0 0 1 1.515876,-0.360297 3.4667422,3.4667422 0 0 1 1.520269,0.351509 v -3.752343 c 0,-3.405228 1.880565,-5.153977 4.745353,-5.153977 2.864784,0 4.718987,1.748749 4.718987,5.153977 v 8.181338 h 3.027355 v -8.181338 c 0.0088,-5.2814 -3.110842,-7.939672 -7.759523,-7.939672 z"
      style="fill:#000000;stroke-width:0.43938431"/>
  <path
      style="fill:#018bff;stroke-width:0.43938431"
      d="m 26.874433,30.96798 a 2.5660044,2.5660044 0 0 0 -1.555419,0.527259 l -2.847207,-1.946472 a 2.6363058,2.6363058 0 0 0 0.09666,-0.698619 2.5879736,2.5879736 0 1 0 -2.592366,2.557216 2.5528228,2.5528228 0 0 0 1.555419,-0.527259 l 2.838421,1.959652 a 2.5879736,2.5879736 0 0 0 0,1.401634 l -2.847209,1.946475 a 2.5528228,2.5528228 0 0 0 -1.546631,-0.527262 2.5923673,2.5923673 0 1 0 2.587973,2.587972 2.6363058,2.6363058 0 0 0 -0.09227,-0.689832 l 2.847207,-1.946472 a 2.5660044,2.5660044 0 0 0 1.555419,0.527259 2.5923673,2.5923673 0 0 0 0,-5.171551 z"
  /></svg>