<?xml version="1.0" encoding="UTF-8"?>
<svg xmlns="http://www.w3.org/2000/svg" xmlns:xlink="http://www.w3.org/1999/xlink" width="42px" height="42px" viewBox="0 0 42 42" version="1.1">
<g id="surface1">
<path style=" stroke:none;fill-rule:nonzero;fill:rgb(36.078432%,75.294119%,76.862746%);fill-opacity:1;" d="M 38.339844 34.167969 L 30.703125 38.601562 C 30.054688 38.976562 29.222656 38.523438 29.222656 37.765625 L 29.222656 28.898438 C 29.222656 28.144531 30.054688 27.6875 30.703125 28.0625 L 38.339844 32.496094 C 38.640625 32.667969 38.828125 32.988281 38.828125 33.332031 C 38.828125 33.679688 38.640625 33.996094 38.339844 34.167969 Z M 38.339844 34.167969 "/>
<path style=" stroke:none;fill-rule:evenodd;fill:rgb(32.549021%,76.47059%,76.862746%);fill-opacity:1;" d="M 23.195312 5.726562 C 22.890625 5.722656 22.585938 5.738281 22.292969 5.761719 C 19.925781 5.972656 17.925781 6.933594 16.621094 7.558594 C 15.25 8.21875 13.523438 9.253906 11.707031 9.703125 C 9.886719 10.15625 8.148438 10.089844 6.429688 8.59375 C 6.003906 8.214844 5.4375 8.132812 4.945312 8.382812 C 4.453125 8.628906 4.117188 9.171875 4.058594 9.796875 C 4 10.421875 4.230469 11.035156 4.664062 11.402344 C 7.167969 13.578125 10 13.695312 12.320312 13.121094 C 14.640625 12.542969 16.621094 11.328125 17.742188 10.792969 C 19.027344 10.175781 20.710938 9.402344 22.515625 9.242188 C 24.320312 9.082031 26.195312 9.460938 28.167969 11.285156 C 28.582031 11.683594 29.148438 11.785156 29.648438 11.554688 C 30.148438 11.324219 30.5 10.792969 30.574219 10.167969 C 30.648438 9.542969 30.429688 8.921875 30 8.539062 C 27.753906 6.460938 25.347656 5.734375 23.195312 5.726562 Z M 23.195312 12.707031 C 22.890625 12.703125 22.585938 12.71875 22.292969 12.742188 C 19.925781 12.953125 17.925781 13.914062 16.621094 14.539062 C 15.25 15.199219 13.523438 16.234375 11.707031 16.683594 C 9.886719 17.136719 8.148438 17.070312 6.429688 15.574219 C 6.003906 15.195312 5.4375 15.113281 4.945312 15.363281 C 4.453125 15.609375 4.113281 16.152344 4.058594 16.777344 C 4 17.402344 4.230469 18.015625 4.664062 18.382812 C 7.167969 20.558594 10 20.679688 12.320312 20.101562 C 14.640625 19.523438 16.621094 18.308594 17.742188 17.773438 C 19.027344 17.15625 20.710938 16.386719 22.515625 16.222656 C 24.320312 16.0625 26.195312 16.441406 28.167969 18.265625 C 28.582031 18.664062 29.148438 18.765625 29.648438 18.535156 C 30.148438 18.304688 30.5 17.773438 30.574219 17.148438 C 30.648438 16.523438 30.429688 15.902344 30 15.519531 C 27.753906 13.441406 25.347656 12.714844 23.195312 12.707031 Z M 23.195312 19.6875 C 22.890625 19.683594 22.585938 19.699219 22.292969 19.726562 C 19.925781 19.933594 17.925781 20.894531 16.621094 21.523438 C 15.25 22.179688 13.523438 23.214844 11.707031 23.667969 C 9.886719 24.117188 8.148438 24.050781 6.429688 22.554688 C 6.003906 22.175781 5.4375 22.09375 4.945312 22.34375 C 4.453125 22.589844 4.113281 23.132812 4.058594 23.757812 C 4 24.382812 4.230469 24.996094 4.664062 25.363281 C 7.167969 27.539062 10 27.660156 12.320312 27.082031 C 14.640625 26.503906 16.621094 25.292969 17.742188 24.753906 C 19.027344 24.136719 20.710938 23.367188 22.515625 23.207031 C 24.320312 23.046875 26.195312 23.421875 28.167969 25.246094 C 28.582031 25.644531 29.148438 25.746094 29.648438 25.515625 C 30.148438 25.285156 30.5 24.753906 30.574219 24.128906 C 30.648438 23.503906 30.429688 22.882812 30 22.5 C 27.753906 20.421875 25.347656 19.695312 23.195312 19.6875 Z M 23.195312 19.6875 "/>
</g>
</svg>
