<?xml version="1.0" encoding="UTF-8" standalone="no"?>
<svg
   xmlns="http://www.w3.org/2000/svg"
   version="1.1"
   viewBox="0 0 6.7338233 6.4563665"
   height="6.4563665"
   width="6.7338233"
  >
  <g
     transform="translate(-63.428958,-53.814912)"
     >
    <polygon
       style="fill:#f99c1c"
       points="-274.4,407.1 -274.4,402.4 -266.3,410.5 -265.1,409.3 -273.2,401.2 -268.6,401.2 -268.6,399.5 -276.1,399.5 -276.1,407.1 "
       class="st1"
       transform="matrix(0.20411085,0,0,0.20126939,120.28312,-22.840725)" />
    <path
       style="fill:#5cc0c4;stroke-width:0.20268513"
       d="m 67.234709,57.566396 v 2.23409 l 2.428918,-1.12711 z m 0.387809,0.58368 1.163432,0.543428 -1.163432,0.543427 z"
       class="st2" />
    <polygon
       style="fill:#f99c1c"
       points="-266.6,386.1 -266.6,390.7 -264.9,390.7 -264.9,383.2 -272.4,383.2 -272.4,384.9 -267.8,384.9 -275.9,393 -274.7,394.2 "
       class="st1"
       transform="matrix(0.20411085,0,0,0.20126939,120.28312,-22.840725)" />
    <polygon
       style="fill:#f99c1c"
       points="-250.6,391.6 -258.7,383.5 -259.9,384.7 -251.8,392.8 -256.4,392.8 -256.4,394.5 -248.9,394.5 -248.9,386.9 -250.6,386.9 "
       class="st1"
       transform="matrix(0.20411085,0,0,0.20126939,120.28312,-22.840725)" />
  </g>
</svg>
