<?xml version="1.0" encoding="UTF-8" standalone="no"?>
<svg
    xmlns="http://www.w3.org/2000/svg"
    version="1.1"
    height="512"
    width="512">
  <g
      transform="translate(-379.90478,129.88361)"
  >
    <path
        style="color:#000000;clip-rule:nonzero;display:inline;overflow:visible;visibility:visible;opacity:1;isolation:auto;mix-blend-mode:normal;color-interpolation:sRGB;color-interpolation-filters:linearRGB;solid-color:#000000;solid-opacity:1;fill:#033d5d;fill-opacity:1;fill-rule:nonzero;stroke:none;stroke-width:42.9285;stroke-linecap:round;stroke-linejoin:round;stroke-miterlimit:4;stroke-dasharray:none;stroke-dashoffset:0;stroke-opacity:1;color-rendering:auto;image-rendering:auto;shape-rendering:auto;text-rendering:auto;enable-background:accumulate"
        d="m 484.26453,-26.513338 c -5.96861,5.968611 -9.65224,14.223644 -9.65224,23.3707773 l -1.5e-4,95.2474457 33.76183,-1.4e-5 1.5e-4,-81.301334 c -2e-5,-3.6601901 1.47306,-6.9594372 3.86045,-9.3468277 2.38753,-2.38752485 5.68813,-3.8607535 9.34697,-3.860598 l 63.55153,6.4e-6 3e-4,34.3593293 51.28596,-51.285952 -51.28836,-51.288357 0.002,34.452865 -77.49794,2.83e-4 c -9.14711,-2e-5 -17.40203,3.683497 -23.37091,9.652376 z m -45.09499,196.984898 34.45298,-0.002 -1.5e-4,77.49807 c 0,9.14712 3.68377,17.40174 9.65267,23.37063 5.96859,5.9686 14.22337,9.65253 23.37048,9.65253 l 95.24775,-1.5e-4 v -33.76183 l -81.30136,-1.5e-4 c -3.66019,0 -6.95944,-1.47308 -9.34682,-3.86045 -2.38752,-2.38753 -3.86076,-5.68814 -3.8606,-9.34696 l 0,-63.55154 34.3595,-1.5e-4 -51.2861,-51.28609 z m 224.3281,-205.647819 -1e-5,33.7618453 81.30152,-2.12e-5 c 3.66016,7.1e-6 6.95925,1.47324994 9.34663,3.8606263 2.38768,2.3876804 3.86078,5.6881225 3.86078,9.3467916 l -1.6e-4,63.551696 -34.35948,1.49e-4 51.28608,51.286082 51.2885,-51.288487 -34.45313,0.0024 V -2.1530928 c 1.6e-4,-9.1472742 -3.68362,-17.4018912 -9.65252,-23.3707912 -5.96859,-5.968589 -14.22336,-9.652524 -23.37063,-9.652368 z m -34.52606,300.320869 51.28836,51.28837 -0.002,-34.45298 77.49808,1.5e-4 c 9.14711,0 17.40173,-3.68378 23.37063,-9.65268 5.9686,-5.9686 9.65253,-14.22337 9.65253,-23.37049 l -1.5e-4,-95.24774 -33.76183,0 0,81.30153 c 0,3.66016 -1.47325,6.95926 -3.86062,9.34663 -2.38767,2.38767 -5.68814,3.86078 -9.34678,3.86077 l -63.55171,-1.5e-4 -1.4e-4,-34.35951 z"
    />
    <path
        style="fill:#5cc0c4;fill-opacity:1;stroke-width:14.6351"
        d="m 698.81692,129.56808 -93.12351,54.03299 c -7.9029,4.58078 -18.04508,-0.96593 -18.04508,-10.20071 V 65.334416 c 0,-9.22012 10.12733,-14.78148 18.04508,-10.18606 l 93.12351,54.032964 a 11.737389,11.737389 0 0 1 0,20.38676 z"/>
  </g>
</svg>
