<?xml version="1.0" encoding="UTF-8" standalone="no"?>
<svg
   version="1.1"
   x="0px"
   y="0px"
   width="42px"
   height="42px"
   viewBox="0 0 42 42"
   enable-background="new 0 0 42 42"
   id="svg120"
   sodipodi:docname="arrow_encode.svg"
   inkscape:version="1.2 (dc2aedaf03, 2022-05-15)"
   xmlns:inkscape="http://www.inkscape.org/namespaces/inkscape"
   xmlns:sodipodi="http://sodipodi.sourceforge.net/DTD/sodipodi-0.dtd"
   xmlns="http://www.w3.org/2000/svg"
   xmlns:svg="http://www.w3.org/2000/svg">
  <defs
     id="defs124" />
  <sodipodi:namedview
     id="namedview122"
     pagecolor="#ffffff"
     bordercolor="#000000"
     borderopacity="0.25"
     inkscape:showpageshadow="2"
     inkscape:pageopacity="0.0"
     inkscape:pagecheckerboard="0"
     inkscape:deskcolor="#d1d1d1"
     showgrid="false"
     inkscape:zoom="10.166667"
     inkscape:cx="5.4590164"
     inkscape:cy="38.016393"
     inkscape:window-width="1350"
     inkscape:window-height="1230"
     inkscape:window-x="729"
     inkscape:window-y="647"
     inkscape:window-maximized="0"
     inkscape:current-layer="svg120" />
  <g
     id="g503"
     transform="matrix(0.43712979,0,0,0.43712979,22.912391,11.440387)">
    <polygon
       points="168.75,168.75 590.62,590.62 168.75,1012.5 168.75,843.75 421.88,590.62 168.75,337.5 "
       style="fill:#000000;stroke:#000000;stroke-width:1.07;stroke-linecap:round;stroke-linejoin:round;stroke-miterlimit:10"
       id="polygon164"
       transform="matrix(0.05126796,0,0,0.05126796,-37.006697,17.842646)" />
    <polygon
       points="464.06,168.75 885.94,590.62 464.06,1012.5 464.06,843.75 717.19,590.62 464.06,337.5 "
       style="fill:#000000;stroke:#000000;stroke-width:1.07;stroke-linecap:round;stroke-linejoin:round;stroke-miterlimit:10"
       id="polygon166"
       transform="matrix(0.05126796,0,0,0.05126796,-37.006697,17.842646)" />
    <polygon
       points="759.38,168.75 1181.25,590.62 759.38,1012.5 759.38,843.75 1012.5,590.62 759.38,337.5 "
       style="fill:#000000;stroke:#000000;stroke-width:1.07;stroke-linecap:round;stroke-linejoin:round;stroke-miterlimit:10"
       id="polygon168"
       transform="matrix(0.05126796,0,0,0.05126796,-37.006697,17.842646)" />
  </g>
  <g
     id="g112">
    <rect
       x="6.6088653"
       y="19.284786"
       fill="none"
       width="20.080254"
       height="2.4765232"
       style="stroke-width:0.620527"
       id="rect92" />
    <rect
       x="6.6088653"
       y="3.914953"
       fill="none"
       width="9.5126791"
       height="2.4765232"
       style="stroke-width:0.620527"
       id="rect94" />
    <rect
       x="6.6088653"
       y="14.161716"
       fill="none"
       width="9.5126791"
       height="2.4765232"
       style="stroke-width:0.620527"
       id="rect96" />
    <path
       fill="#0e3a5a"
       d="M 33.170507,8.0605061 V 1.3502496 H 27.066566 V 8.0605061 Z M 28.47072,7.4514598 V 1.9592959 h 3.296459 v 5.4921639 z"
       style="stroke-width:0.543981"
       id="path98" />
    <path
       fill="#0e3a5a"
       d="m 26.351273,1.3502496 h -6.10394 V 14.161716 h 6.10394 z M 21.651487,13.55267 V 1.9592959 h 3.296458 V 13.55267 Z"
       style="stroke-width:0.543981"
       id="path100" />
    <path
       fill="#0e3a5a"
       d="M 6.6088651,1.3502496 V 14.161716 H 12.712805 V 1.3502496 Z M 11.308651,1.9592959 V 13.55267 H 8.0121928 V 1.9592959 Z"
       style="stroke-width:0.543981"
       id="path102" />
    <path
       fill="#0e3a5a"
       d="M 19.531214,8.0605061 V 1.3502496 H 13.427272 V 8.0605061 Z M 14.831427,7.4514598 V 1.9592959 h 3.296458 v 5.4921639 z"
       style="stroke-width:0.543981"
       id="path104" />
    <g
       style="stroke:#018bff;stroke-width:15;stroke-miterlimit:4;stroke-dasharray:none;stroke-opacity:1"
       transform="matrix(0.00244292,0.04151278,-0.05318557,0.00190676,21.233987,5.8925059)"
       id="g110">
      <path
         style="fill:none;stroke:#018bff;stroke-width:15;stroke-linecap:round;stroke-linejoin:miter;stroke-miterlimit:4;stroke-dasharray:none;stroke-opacity:1"
         d="M 119.12832,233.09119 416.46488,57.142855 361.58191,63.599675"
         id="path106" />
      <path
         style="fill:none;stroke:#018bff;stroke-width:15;stroke-linecap:round;stroke-linejoin:miter;stroke-miterlimit:4;stroke-dasharray:none;stroke-opacity:1"
         d="M 416.07824,57.530953 389.08719,96.141357"
         id="path108" />
    </g>
  </g>
  <g
     style="stroke:#018bff;stroke-width:15;stroke-miterlimit:4;stroke-dasharray:none;stroke-opacity:1"
     transform="matrix(-0.04465562,0.02615603,-0.02663434,-0.05164606,42.807559,15.32301)"
     id="g118">
    <path
       style="fill:none;stroke:#018bff;stroke-width:15;stroke-linecap:round;stroke-linejoin:miter;stroke-miterlimit:4;stroke-dasharray:none;stroke-opacity:1"
       d="M 119.12832,233.09119 416.46488,57.142855 361.58191,63.599675"
       id="path114" />
    <path
       style="fill:none;stroke:#018bff;stroke-width:15;stroke-linecap:round;stroke-linejoin:miter;stroke-miterlimit:4;stroke-dasharray:none;stroke-opacity:1"
       d="M 416.07824,57.530953 389.08719,96.141357"
       id="path116" />
  </g>
</svg>
