<?xml version="1.0" encoding="UTF-8" standalone="no"?>
<svg
   version="1.1"
   x="0px"
   y="0px"
   width="42px"
   height="42px"
   viewBox="0 0 42 42"
   enable-background="new 0 0 42 42"
   id="svg120"
   sodipodi:docname="arrow.svg"
   inkscape:version="1.2 (dc2aedaf03, 2022-05-15)"
   xmlns:inkscape="http://www.inkscape.org/namespaces/inkscape"
   xmlns:sodipodi="http://sodipodi.sourceforge.net/DTD/sodipodi-0.dtd"
   xmlns="http://www.w3.org/2000/svg"
   xmlns:svg="http://www.w3.org/2000/svg">
  <defs
     id="defs124">
    <clipPath
       id="cpMC4wMHwxMzUwLjAwfDAuMDB8MTM1MC4wMA==">
      <rect
         x="0"
         y="0"
         width="1350"
         height="1350"
         id="rect978" />
    </clipPath>
  </defs>
  <sodipodi:namedview
     id="namedview122"
     pagecolor="#ffffff"
     bordercolor="#000000"
     borderopacity="0.25"
     inkscape:showpageshadow="2"
     inkscape:pageopacity="0.0"
     inkscape:pagecheckerboard="0"
     inkscape:deskcolor="#d1d1d1"
     showgrid="false"
     inkscape:zoom="10.166667"
     inkscape:cx="5.4590164"
     inkscape:cy="38.016393"
     inkscape:window-width="1350"
     inkscape:window-height="1230"
     inkscape:window-x="729"
     inkscape:window-y="647"
     inkscape:window-maximized="0"
     inkscape:current-layer="svg120" />
  <g
     clip-path="url(#cpMC4wMHwxMzUwLjAwfDAuMDB8MTM1MC4wMA==)"
     id="g1013"
     transform="matrix(0.04148148,0,0,0.04148148,-4.7868837,-7.3442601)">
    <polygon
       points="453.6,927 561.6,819 453.6,711 453.6,639 633.6,819 453.6,999 "
       style="fill:#000000;stroke:#000000;stroke-width:1.07;stroke-linecap:round;stroke-linejoin:round;stroke-miterlimit:10"
       id="polygon985" />
    <polygon
       points="579.6,927 687.6,819 579.6,711 579.6,639 759.6,819 579.6,999 "
       style="fill:#000000;stroke:#000000;stroke-width:1.07;stroke-linecap:round;stroke-linejoin:round;stroke-miterlimit:10"
       id="polygon987" />
    <polygon
       points="705.6,927 813.6,819 705.6,711 705.6,639 885.6,819 705.6,999 "
       style="fill:#000000;stroke:#000000;stroke-width:1.07;stroke-linecap:round;stroke-linejoin:round;stroke-miterlimit:10"
       id="polygon989" />
    <path
       d="m 369.86,405.52 -14.07,38.72 h -5.74 l 16.19,-42.48 h 3.7 z m 11.78,38.72 -14.09,-38.72 -0.09,-3.76 h 3.71 l 16.25,42.48 z m -0.73,-15.73 v 4.61 h -23.86 v -4.61 z"
       style="fill:#000000;fill-rule:nonzero;stroke:none;stroke-width:0.75;stroke-linecap:round;stroke-linejoin:round;stroke-miterlimit:10"
       id="path991" />
    <path
       d="M 408.78,427.58 H 397.43 V 423 h 11.35 v 0 l 0.64,-0.01 0.62,-0.03 0.6,-0.05 0.57,-0.08 0.55,-0.09 0.52,-0.12 0.5,-0.13 0.47,-0.16 0.44,-0.18 0.42,-0.2 v 0 l 0.4,-0.22 0.38,-0.23 0.35,-0.25 0.33,-0.27 0.31,-0.28 0.29,-0.3 0.26,-0.32 0.24,-0.33 0.22,-0.35 0.2,-0.37 v 0 l 0.18,-0.38 0.17,-0.39 0.14,-0.4 0.13,-0.41 0.1,-0.42 0.09,-0.43 0.07,-0.44 0.04,-0.45 0.03,-0.46 0.01,-0.48 v 0 l -0.01,-0.43 -0.03,-0.43 -0.04,-0.43 -0.07,-0.42 -0.09,-0.41 -0.1,-0.41 -0.13,-0.4 -0.14,-0.4 -0.17,-0.39 -0.18,-0.39 v 0 l -0.2,-0.38 -0.22,-0.36 -0.24,-0.35 -0.26,-0.33 -0.29,-0.32 -0.31,-0.3 -0.33,-0.29 -0.35,-0.27 -0.38,-0.25 -0.4,-0.24 v 0 l -0.42,-0.23 -0.44,-0.2 -0.47,-0.18 -0.5,-0.16 -0.52,-0.13 -0.55,-0.11 -0.57,-0.08 -0.6,-0.06 -0.62,-0.04 -0.64,-0.01 h -10.04 v 37.87 h -5.63 v -42.48 h 15.67 v 0 l 0.94,0.02 0.92,0.05 0.89,0.08 0.86,0.12 0.83,0.15 0.8,0.18 0.77,0.22 0.74,0.24 0.71,0.29 0.68,0.31 v 0 l 0.64,0.35 0.62,0.37 0.59,0.4 0.55,0.42 0.52,0.45 0.49,0.47 0.46,0.5 0.42,0.53 0.39,0.55 0.36,0.57 v 0 l 0.33,0.6 0.29,0.6 0.26,0.63 0.22,0.64 0.19,0.66 0.16,0.68 0.12,0.69 0.09,0.71 0.05,0.73 0.01,0.74 v 0 l -0.01,0.81 -0.05,0.78 -0.09,0.76 -0.12,0.73 -0.16,0.71 -0.19,0.69 -0.22,0.66 -0.26,0.63 -0.29,0.62 -0.33,0.59 v 0 l -0.36,0.56 -0.39,0.54 -0.42,0.51 -0.46,0.48 -0.49,0.45 -0.52,0.43 -0.55,0.4 -0.59,0.37 -0.62,0.35 -0.64,0.31 v 0 l -0.68,0.29 -0.71,0.25 -0.74,0.22 -0.77,0.19 -0.8,0.17 -0.83,0.13 -0.86,0.11 -0.89,0.07 -0.92,0.05 z"
       style="fill:#000000;fill-rule:nonzero;stroke:none;stroke-width:0.75;stroke-linecap:round;stroke-linejoin:round;stroke-miterlimit:10"
       id="path993" />
    <path
       d="m 446.53,405.52 -14.06,38.72 h -5.75 l 16.19,-42.48 h 3.71 z m 11.79,38.72 -14.1,-38.72 -0.08,-3.76 h 3.7 l 16.25,42.48 z m -0.73,-15.73 v 4.61 h -23.87 v -4.61 z"
       style="fill:#000000;fill-rule:nonzero;stroke:none;stroke-width:0.75;stroke-linecap:round;stroke-linejoin:round;stroke-miterlimit:10"
       id="path995" />
    <path
       d="m 495.43,430.73 h 5.6 v 0 l -0.1,0.8 -0.13,0.78 -0.16,0.76 -0.19,0.75 -0.22,0.73 -0.24,0.71 -0.28,0.69 -0.3,0.68 -0.33,0.66 -0.36,0.65 v 0 l -0.39,0.62 -0.42,0.6 -0.45,0.57 -0.48,0.54 -0.51,0.52 -0.54,0.49 -0.58,0.47 -0.6,0.44 -0.64,0.41 -0.67,0.39 v 0 l -0.7,0.34 -0.73,0.32 -0.77,0.27 -0.8,0.24 -0.83,0.2 -0.87,0.17 -0.91,0.13 -0.93,0.09 -0.97,0.05 -1.01,0.02 v 0 l -0.74,-0.01 -0.72,-0.04 -0.72,-0.07 -0.7,-0.1 -0.68,-0.13 -0.68,-0.15 -0.66,-0.18 -0.64,-0.21 -0.64,-0.24 -0.61,-0.27 v 0 l -0.6,-0.29 -0.58,-0.31 -0.57,-0.34 -0.55,-0.36 -0.53,-0.39 -0.51,-0.41 -0.5,-0.43 -0.48,-0.45 -0.46,-0.48 -0.45,-0.51 v 0 l -0.42,-0.52 -0.41,-0.55 -0.39,-0.58 -0.37,-0.59 -0.35,-0.61 -0.33,-0.63 -0.3,-0.65 -0.29,-0.67 -0.27,-0.7 -0.25,-0.71 v 0 l -0.22,-0.74 -0.2,-0.75 -0.18,-0.77 -0.15,-0.79 -0.13,-0.8 -0.1,-0.82 -0.08,-0.84 -0.06,-0.85 -0.04,-0.87 -0.01,-0.88 v -4.23 0 l 0.01,-0.88 0.04,-0.87 0.06,-0.85 0.08,-0.84 0.1,-0.81 0.13,-0.8 0.15,-0.79 0.18,-0.76 0.2,-0.75 0.22,-0.73 v 0 l 0.25,-0.72 0.27,-0.7 0.29,-0.68 0.31,-0.65 0.33,-0.64 0.35,-0.61 0.37,-0.59 0.4,-0.57 0.41,-0.56 0.43,-0.53 v 0 l 0.46,-0.5 0.48,-0.49 0.49,-0.46 0.51,-0.43 0.53,-0.41 0.55,-0.39 0.57,-0.36 0.59,-0.34 0.6,-0.32 0.62,-0.29 v 0 l 0.64,-0.27 0.65,-0.24 0.67,-0.21 0.69,-0.18 0.7,-0.15 0.71,-0.13 0.74,-0.1 0.75,-0.07 0.76,-0.04 0.78,-0.01 v 0 l 0.95,0.02 0.92,0.05 0.88,0.09 0.86,0.13 0.83,0.16 0.8,0.2 0.77,0.23 0.74,0.27 0.71,0.31 0.68,0.35 v 0 l 0.65,0.37 0.62,0.41 0.59,0.43 0.56,0.46 0.53,0.48 0.5,0.52 0.48,0.54 0.44,0.58 0.41,0.6 0.38,0.62 v 0 l 0.36,0.65 0.33,0.67 0.3,0.68 0.28,0.71 0.24,0.73 0.22,0.75 0.19,0.77 0.16,0.79 0.13,0.81 0.1,0.83 h -5.6 v 0 l -0.09,-0.59 -0.11,-0.57 -0.11,-0.55 -0.13,-0.54 -0.15,-0.52 -0.16,-0.5 -0.17,-0.49 -0.19,-0.46 -0.2,-0.46 -0.21,-0.43 v 0 l -0.23,-0.42 -0.25,-0.4 -0.27,-0.39 -0.29,-0.36 -0.3,-0.34 -0.33,-0.32 -0.34,-0.31 -0.36,-0.28 -0.38,-0.26 -0.4,-0.25 v 0 l -0.42,-0.22 -0.45,-0.2 -0.47,-0.17 -0.5,-0.15 -0.52,-0.13 -0.54,-0.11 -0.58,-0.08 -0.59,-0.06 -0.62,-0.03 -0.65,-0.01 v 0 l -0.56,0.01 -0.55,0.03 -0.53,0.05 -0.52,0.08 -0.5,0.1 -0.5,0.12 -0.47,0.14 -0.47,0.16 -0.45,0.18 -0.44,0.21 v 0 l -0.42,0.22 -0.41,0.24 -0.39,0.27 -0.38,0.27 -0.36,0.3 -0.35,0.32 -0.34,0.33 -0.33,0.35 -0.31,0.37 -0.3,0.39 v 0 l -0.28,0.4 -0.26,0.42 -0.25,0.44 -0.24,0.45 -0.22,0.47 -0.21,0.48 -0.2,0.5 -0.18,0.52 -0.16,0.53 -0.16,0.55 v 0 l -0.14,0.56 -0.12,0.57 -0.11,0.58 -0.09,0.6 -0.08,0.61 -0.07,0.62 -0.05,0.64 -0.04,0.64 -0.02,0.66 -0.01,0.67 v 4.29 0 l 0.01,0.62 0.02,0.61 0.03,0.61 0.05,0.6 0.05,0.59 0.07,0.58 0.09,0.57 0.09,0.57 0.11,0.56 0.12,0.55 v 0 l 0.15,0.55 0.15,0.52 0.17,0.52 0.18,0.5 0.19,0.49 0.21,0.47 0.22,0.46 0.24,0.45 0.25,0.44 0.26,0.42 v 0 l 0.27,0.4 0.29,0.39 0.31,0.37 0.32,0.36 0.33,0.33 0.35,0.32 0.36,0.3 0.38,0.28 0.39,0.27 0.41,0.25 v 0 l 0.42,0.22 0.44,0.2 0.45,0.17 0.47,0.15 0.48,0.13 0.5,0.11 0.51,0.08 0.53,0.06 0.54,0.03 0.56,0.01 v 0 l 0.71,-0.01 0.67,-0.03 0.64,-0.06 0.62,-0.08 0.59,-0.1 0.55,-0.13 0.53,-0.15 0.5,-0.17 0.47,-0.19 0.44,-0.22 v 0 l 0.42,-0.23 0.39,-0.26 0.37,-0.28 0.36,-0.29 0.33,-0.32 0.31,-0.34 0.29,-0.35 0.27,-0.38 0.24,-0.4 0.23,-0.41 v 0 l 0.22,-0.44 0.2,-0.45 0.19,-0.47 0.17,-0.48 0.17,-0.5 0.15,-0.52 0.14,-0.54 0.12,-0.55 0.12,-0.57 z"
       style="fill:#000000;fill-rule:nonzero;stroke:none;stroke-width:0.75;stroke-linecap:round;stroke-linejoin:round;stroke-miterlimit:10"
       id="path997" />
    <path
       d="m 536.42,420.02 v 4.58 h -22.99 v -4.58 z M 514.3,401.76 v 42.48 h -5.63 v -42.48 z m 27.02,0 v 42.48 h -5.6 v -42.48 z"
       style="fill:#000000;fill-rule:nonzero;stroke:none;stroke-width:0.75;stroke-linecap:round;stroke-linejoin:round;stroke-miterlimit:10"
       id="path999" />
    <path
       d="m 578.28,439.66 v 4.58 h -22.49 v -4.58 z m -21.35,-37.9 v 42.48 h -5.63 v -42.48 z m 18.38,18.26 v 4.58 h -19.52 v -4.58 z m 2.68,-18.26 v 4.61 h -22.2 v -4.61 z"
       style="fill:#000000;fill-rule:nonzero;stroke:none;stroke-width:0.75;stroke-linecap:round;stroke-linejoin:round;stroke-miterlimit:10"
       id="path1001" />
    <path
       d="m 429.35,593.05 v 0 l -0.34,-0.02 -0.3,-0.05 -0.29,-0.09 -0.26,-0.12 -0.23,-0.15 -0.22,-0.19 -0.18,-0.22 -0.17,-0.26 -0.14,-0.3 -0.11,-0.32 -5.17,-16.87 v 0 l -0.07,-0.13 -0.07,-0.12 -0.08,-0.1 -0.08,-0.09 -0.08,-0.08 -0.09,-0.06 -0.09,-0.05 -0.1,-0.03 -0.1,-0.02 -0.1,-0.01 h -42.34 v 0 l -0.1,0.01 -0.1,0.02 -0.1,0.03 -0.09,0.05 -0.09,0.06 -0.08,0.08 -0.08,0.09 -0.08,0.1 -0.07,0.12 -0.07,0.13 -5,16.87 v 0 l -0.11,0.32 -0.14,0.3 -0.16,0.26 -0.19,0.22 -0.21,0.19 -0.24,0.15 -0.26,0.12 -0.28,0.09 -0.31,0.05 -0.33,0.02 h -21.87 v 0 l -0.2,-0.01 -0.19,-0.01 -0.18,-0.03 -0.17,-0.03 -0.16,-0.05 -0.15,-0.06 -0.14,-0.06 -0.13,-0.08 -0.12,-0.09 -0.1,-0.1 v 0 l -0.1,-0.14 -0.08,-0.15 -0.06,-0.17 -0.04,-0.17 -0.03,-0.19 v -0.19 -0.2 l 0.03,-0.22 0.04,-0.23 0.06,-0.23 37.19,-116.37 v 0 l 0.11,-0.32 0.14,-0.3 0.16,-0.26 0.19,-0.22 0.21,-0.19 0.24,-0.15 0.26,-0.12 0.28,-0.09 0.31,-0.05 0.33,-0.02 h 27.03 v 0 l 0.33,0.02 0.31,0.05 0.28,0.09 0.26,0.12 0.24,0.15 0.21,0.19 0.19,0.22 0.16,0.26 0.14,0.3 0.12,0.32 37.18,116.37 v 0 l 0.03,0.07 0.03,0.07 0.03,0.08 0.02,0.08 0.02,0.09 0.01,0.08 0.02,0.1 v 0.09 l 0.01,0.1 v 0.1 0 l -0.02,0.29 -0.05,0.27 -0.1,0.23 -0.13,0.2 -0.17,0.17 -0.21,0.14 -0.25,0.11 -0.28,0.08 -0.32,0.04 -0.36,0.02 z m -45.28,-39.08 v 0 l -0.02,0.2 v 0.17 l 0.01,0.16 0.04,0.13 0.06,0.12 0.08,0.09 0.1,0.07 0.12,0.05 0.14,0.04 0.16,0.01 h 30.3 v 0 l 0.19,-0.01 0.17,-0.04 0.13,-0.05 0.11,-0.07 0.09,-0.09 0.05,-0.12 0.03,-0.13 v -0.16 l -0.03,-0.17 -0.05,-0.2 -15.5,-51.12 v 0 l -0.03,-0.13 -0.04,-0.11 -0.04,-0.1 -0.05,-0.08 -0.05,-0.06 -0.05,-0.04 -0.06,-0.02 -0.06,-0.01 -0.07,0.01 -0.06,0.02 v 0 l -0.07,0.01 -0.06,0.01 -0.06,0.03 -0.06,0.03 -0.05,0.05 -0.05,0.06 -0.05,0.06 -0.04,0.08 -0.04,0.09 -0.04,0.1 z"
       style="fill:#000000;fill-rule:nonzero;stroke:none;stroke-width:0.75;stroke-linecap:round;stroke-linejoin:round;stroke-miterlimit:10"
       id="path1003" />
    <path
       d="m 534.35,593.05 v 0 l -0.33,-0.02 -0.32,-0.04 -0.29,-0.08 -0.27,-0.11 -0.25,-0.14 -0.23,-0.17 -0.21,-0.2 -0.19,-0.23 -0.17,-0.27 -0.15,-0.29 -21.52,-47.68 v 0 l -0.07,-0.13 -0.08,-0.12 -0.08,-0.1 -0.1,-0.09 -0.1,-0.08 -0.1,-0.06 -0.12,-0.05 -0.12,-0.03 -0.13,-0.02 -0.13,-0.01 h -16.01 v 0 l -0.16,0.01 -0.15,0.02 -0.13,0.05 -0.11,0.06 -0.09,0.07 -0.08,0.1 -0.06,0.11 -0.04,0.13 -0.03,0.15 -0.01,0.16 v 46.99 0 l -0.01,0.17 -0.02,0.17 -0.03,0.16 -0.05,0.16 -0.06,0.16 -0.08,0.15 -0.09,0.15 -0.1,0.15 -0.12,0.14 -0.13,0.14 v 0 l -0.1,0.1 -0.12,0.09 -0.12,0.08 -0.13,0.06 -0.13,0.06 -0.14,0.05 -0.15,0.03 -0.15,0.03 -0.17,0.01 -0.16,0.01 h -20.15 v 0 l -0.17,-0.01 -0.16,-0.01 -0.17,-0.03 -0.16,-0.03 -0.15,-0.05 -0.16,-0.06 -0.15,-0.06 -0.14,-0.08 -0.15,-0.09 -0.13,-0.1 v 0 l -0.1,-0.14 -0.09,-0.14 -0.08,-0.15 -0.06,-0.15 -0.06,-0.15 -0.05,-0.16 -0.03,-0.16 -0.03,-0.16 -0.02,-0.17 v -0.17 -116.36 0 -0.17 l 0.02,-0.16 0.03,-0.16 0.03,-0.15 0.05,-0.14 0.06,-0.13 0.06,-0.13 0.08,-0.12 0.09,-0.11 0.1,-0.11 v 0 l 0.13,-0.13 0.15,-0.12 0.14,-0.1 0.15,-0.09 0.16,-0.08 0.15,-0.06 0.16,-0.05 0.17,-0.03 0.16,-0.02 0.17,-0.01 h 49.24 v 0 l 2.17,0.05 2.12,0.13 2.07,0.22 2.01,0.32 1.95,0.4 1.91,0.49 1.84,0.58 1.79,0.68 1.74,0.76 1.68,0.85 v 0 l 1.64,0.93 1.57,1.01 1.49,1.08 1.41,1.16 1.33,1.24 1.25,1.31 1.17,1.39 1.1,1.46 1.01,1.54 0.94,1.62 v 0 l 0.88,1.67 0.79,1.73 0.7,1.79 0.6,1.83 0.51,1.88 0.42,1.94 0.33,1.99 0.23,2.04 0.14,2.09 0.04,2.14 v 0 l -0.05,2.31 -0.18,2.24 -0.29,2.18 -0.41,2.11 -0.53,2.05 -0.64,1.98 -0.76,1.92 -0.88,1.85 -1,1.78 -1.11,1.72 v 0 l -1.22,1.61 -1.31,1.51 -1.4,1.41 -1.49,1.31 -1.59,1.22 -1.68,1.12 -1.78,1.03 -1.87,0.93 -1.96,0.83 -2.05,0.74 v 0 l -0.16,0.07 -0.14,0.09 -0.11,0.09 -0.09,0.11 -0.06,0.11 -0.04,0.13 -0.02,0.13 0.01,0.15 0.04,0.16 0.05,0.16 23.41,48.72 v 0 l 0.07,0.13 0.06,0.13 0.05,0.12 0.04,0.11 0.04,0.11 0.03,0.1 0.03,0.09 0.01,0.09 0.01,0.08 0.01,0.07 v 0 l -0.02,0.26 -0.06,0.24 -0.09,0.2 -0.14,0.18 -0.17,0.15 -0.2,0.13 -0.25,0.09 -0.28,0.07 -0.33,0.04 -0.36,0.02 z m -40.97,-99.67 v 0 l -0.16,0.01 -0.15,0.02 -0.13,0.05 -0.11,0.06 -0.09,0.08 -0.08,0.09 -0.06,0.11 -0.04,0.13 -0.03,0.15 -0.01,0.16 v 29.44 0 l 0.01,0.16 0.03,0.15 0.04,0.13 0.06,0.11 0.08,0.09 0.09,0.08 0.11,0.06 0.13,0.04 0.15,0.03 0.16,0.01 h 22.55 v 0 l 1.42,-0.05 1.36,-0.12 1.31,-0.22 1.25,-0.3 1.2,-0.39 1.15,-0.47 1.08,-0.56 1.04,-0.65 0.97,-0.73 0.93,-0.82 v 0 l 0.88,-0.88 0.79,-0.94 0.7,-0.99 0.6,-1.04 0.51,-1.1 0.42,-1.14 0.33,-1.2 0.23,-1.24 0.14,-1.3 0.04,-1.36 v 0 l -0.04,-1.35 -0.14,-1.3 -0.23,-1.24 -0.33,-1.2 -0.42,-1.15 -0.51,-1.09 -0.6,-1.04 -0.7,-0.99 -0.79,-0.94 -0.88,-0.88 v 0 l -0.93,-0.85 -0.97,-0.77 -1.04,-0.67 -1.08,-0.58 -1.15,-0.49 -1.2,-0.4 -1.25,-0.32 -1.31,-0.22 -1.36,-0.14 -1.42,-0.04 z"
       style="fill:#000000;fill-rule:nonzero;stroke:none;stroke-width:0.75;stroke-linecap:round;stroke-linejoin:round;stroke-miterlimit:10"
       id="path1005" />
    <path
       d="m 640.04,593.05 v 0 l -0.33,-0.02 -0.31,-0.04 -0.3,-0.08 -0.27,-0.11 -0.25,-0.14 -0.23,-0.17 -0.21,-0.2 -0.19,-0.23 -0.17,-0.27 -0.15,-0.29 -21.51,-47.68 v 0 l -0.08,-0.13 -0.07,-0.12 -0.09,-0.1 -0.09,-0.09 -0.1,-0.08 -0.11,-0.06 -0.11,-0.05 -0.12,-0.03 -0.13,-0.02 -0.14,-0.01 h -16.01 v 0 l -0.16,0.01 -0.14,0.02 -0.13,0.05 -0.12,0.06 -0.09,0.07 -0.08,0.1 -0.06,0.11 -0.04,0.13 -0.03,0.15 -0.01,0.16 v 46.99 0 0.17 l -0.02,0.17 -0.04,0.16 -0.05,0.16 -0.06,0.16 -0.07,0.15 -0.09,0.15 -0.11,0.15 -0.11,0.14 -0.13,0.14 v 0 l -0.11,0.1 -0.11,0.09 -0.13,0.08 -0.12,0.06 -0.14,0.06 -0.14,0.05 -0.15,0.03 -0.15,0.03 -0.16,0.01 -0.17,0.01 h -20.14 v 0 l -0.17,-0.01 -0.17,-0.01 -0.16,-0.03 -0.16,-0.03 -0.16,-0.05 -0.15,-0.06 -0.15,-0.06 -0.15,-0.08 -0.14,-0.09 -0.14,-0.1 v 0 l -0.1,-0.14 -0.09,-0.14 -0.07,-0.15 -0.07,-0.15 -0.06,-0.15 -0.04,-0.16 -0.04,-0.16 -0.03,-0.16 -0.01,-0.17 -0.01,-0.17 v -116.36 0 l 0.01,-0.17 0.01,-0.16 0.03,-0.16 0.04,-0.15 0.04,-0.14 0.06,-0.13 0.07,-0.13 0.07,-0.12 0.09,-0.11 0.1,-0.11 v 0 l 0.14,-0.13 0.14,-0.12 0.15,-0.1 0.15,-0.09 0.15,-0.08 0.16,-0.06 0.16,-0.05 0.16,-0.03 0.17,-0.02 0.17,-0.01 h 49.23 v 0 l 2.18,0.05 2.12,0.13 2.06,0.22 2.01,0.32 1.96,0.4 1.9,0.49 1.84,0.58 1.79,0.68 1.74,0.76 1.68,0.85 v 0 l 1.65,0.93 1.57,1.01 1.48,1.08 1.41,1.16 1.33,1.24 1.26,1.31 1.17,1.39 1.09,1.46 1.02,1.54 0.93,1.62 v 0 l 0.88,1.67 0.79,1.73 0.7,1.79 0.6,1.83 0.52,1.88 0.41,1.94 0.33,1.99 0.23,2.04 0.14,2.09 0.05,2.14 v 0 l -0.06,2.31 -0.18,2.24 -0.29,2.18 -0.41,2.11 -0.53,2.05 -0.64,1.98 -0.76,1.92 -0.88,1.85 -0.99,1.78 -1.11,1.72 v 0 l -1.22,1.61 -1.31,1.51 -1.4,1.41 -1.5,1.31 -1.59,1.22 -1.68,1.12 -1.78,1.03 -1.86,0.93 -1.96,0.83 -2.06,0.74 v 0 l -0.16,0.07 -0.13,0.09 -0.12,0.09 -0.08,0.11 -0.07,0.11 -0.04,0.13 -0.01,0.13 0.01,0.15 0.03,0.16 0.06,0.16 23.41,48.72 v 0 l 0.06,0.13 0.06,0.13 0.05,0.12 0.05,0.11 0.03,0.11 0.04,0.1 0.02,0.09 0.02,0.09 0.01,0.08 v 0.07 0 l -0.02,0.26 -0.06,0.24 -0.09,0.2 -0.13,0.18 -0.17,0.15 -0.21,0.13 -0.25,0.09 -0.28,0.07 -0.32,0.04 -0.36,0.02 z m -40.97,-99.67 v 0 l -0.16,0.01 -0.14,0.02 -0.13,0.05 -0.12,0.06 -0.09,0.08 -0.08,0.09 -0.06,0.11 -0.04,0.13 -0.03,0.15 -0.01,0.16 v 29.44 0 l 0.01,0.16 0.03,0.15 0.04,0.13 0.06,0.11 0.08,0.09 0.09,0.08 0.12,0.06 0.13,0.04 0.14,0.03 0.16,0.01 h 22.56 v 0 l 1.41,-0.05 1.37,-0.12 1.31,-0.22 1.25,-0.3 1.2,-0.39 1.14,-0.47 1.09,-0.56 1.03,-0.65 0.98,-0.73 0.92,-0.82 v 0 l 0.88,-0.88 0.79,-0.94 0.7,-0.99 0.61,-1.04 0.51,-1.1 0.41,-1.14 0.33,-1.2 0.23,-1.24 0.14,-1.3 0.05,-1.36 v 0 l -0.05,-1.35 -0.14,-1.3 -0.23,-1.24 -0.33,-1.2 -0.41,-1.15 -0.51,-1.09 -0.61,-1.04 -0.7,-0.99 -0.79,-0.94 -0.88,-0.88 v 0 l -0.92,-0.85 -0.98,-0.77 -1.03,-0.67 -1.09,-0.58 -1.14,-0.49 -1.2,-0.4 -1.25,-0.32 -1.31,-0.22 -1.37,-0.14 -1.41,-0.04 z"
       style="fill:#000000;fill-rule:nonzero;stroke:none;stroke-width:0.75;stroke-linecap:round;stroke-linejoin:round;stroke-miterlimit:10"
       id="path1007" />
    <path
       d="m 722.5,594.94 v 0 l -2.66,-0.05 -2.59,-0.17 -2.53,-0.27 -2.47,-0.39 -2.4,-0.49 -2.35,-0.61 -2.28,-0.72 -2.22,-0.82 -2.16,-0.94 -2.1,-1.05 v 0 l -1.98,-1.14 -1.9,-1.23 -1.81,-1.32 -1.72,-1.4 -1.62,-1.49 -1.54,-1.58 -1.45,-1.66 -1.36,-1.74 -1.27,-1.84 -1.18,-1.92 v 0 l -1.08,-2.02 -0.97,-2.09 -0.85,-2.14 -0.74,-2.2 -0.62,-2.26 -0.52,-2.32 -0.39,-2.38 -0.29,-2.43 -0.17,-2.5 -0.05,-2.55 v -36.84 0 l 0.05,-2.52 0.17,-2.46 0.29,-2.4 0.39,-2.34 0.52,-2.29 0.62,-2.22 0.74,-2.17 0.85,-2.11 0.97,-2.05 1.08,-1.99 v 0 l 1.18,-1.92 1.27,-1.82 1.36,-1.74 1.45,-1.65 1.54,-1.56 1.62,-1.47 1.72,-1.38 1.81,-1.29 1.9,-1.21 1.98,-1.11 v 0 l 2.1,-1.04 2.16,-0.94 2.22,-0.83 2.28,-0.71 2.35,-0.61 2.4,-0.49 2.47,-0.39 2.53,-0.28 2.59,-0.16 2.66,-0.06 v 0 l 2.68,0.06 2.62,0.16 2.55,0.28 2.48,0.39 2.41,0.49 2.34,0.61 2.27,0.71 2.2,0.83 2.14,0.94 2.06,1.04 v 0 l 2.02,1.11 1.93,1.21 1.83,1.29 1.74,1.38 1.65,1.47 1.55,1.56 1.47,1.65 1.36,1.74 1.28,1.82 1.18,1.92 v 0 l 1.08,1.99 0.97,2.05 0.85,2.11 0.74,2.17 0.62,2.22 0.51,2.29 0.4,2.34 0.29,2.4 0.17,2.46 0.05,2.52 v 36.84 0 l -0.05,2.55 -0.17,2.5 -0.29,2.43 -0.4,2.38 -0.51,2.32 -0.62,2.26 -0.74,2.2 -0.85,2.14 -0.97,2.09 -1.08,2.02 v 0 l -1.18,1.96 -1.28,1.86 -1.36,1.77 -1.47,1.68 -1.55,1.6 -1.65,1.5 -1.74,1.42 -1.83,1.32 -1.93,1.24 -2.02,1.15 v 0 l -2.06,1.01 -2.14,0.91 -2.2,0.8 -2.27,0.69 -2.34,0.59 -2.41,0.48 -2.48,0.37 -2.55,0.27 -2.62,0.16 z m 0,-20.83 v 0 l 1.86,-0.06 1.78,-0.18 1.71,-0.3 1.64,-0.42 1.57,-0.54 1.5,-0.67 1.42,-0.78 1.35,-0.9 1.28,-1.03 1.21,-1.14 v 0 l 1.11,-1.25 1,-1.32 0.87,-1.4 0.76,-1.48 0.65,-1.57 0.53,-1.64 0.41,-1.72 0.29,-1.8 0.17,-1.87 0.06,-1.96 v -37.87 0 l -0.06,-1.96 -0.17,-1.88 -0.29,-1.8 -0.41,-1.71 -0.53,-1.65 -0.65,-1.56 -0.76,-1.48 -0.87,-1.4 -1,-1.33 -1.11,-1.24 v 0 l -1.18,-1.18 -1.25,-1.05 -1.34,-0.93 -1.41,-0.81 -1.49,-0.68 -1.57,-0.56 -1.65,-0.43 -1.73,-0.31 -1.81,-0.19 -1.89,-0.06 v 0 l -1.86,0.06 -1.78,0.19 -1.72,0.31 -1.64,0.43 -1.57,0.56 -1.49,0.68 -1.42,0.81 -1.36,0.93 -1.28,1.05 -1.2,1.18 v 0 l -1.08,1.24 -0.97,1.33 -0.85,1.4 -0.74,1.48 -0.62,1.56 -0.51,1.65 -0.4,1.71 -0.29,1.8 -0.17,1.88 -0.05,1.96 v 37.87 0 l 0.05,1.96 0.17,1.87 0.29,1.8 0.4,1.72 0.51,1.64 0.62,1.57 0.74,1.48 0.85,1.4 0.97,1.32 1.08,1.25 v 0 l 1.2,1.14 1.28,1.03 1.36,0.9 1.42,0.78 1.49,0.67 1.57,0.54 1.64,0.42 1.72,0.3 1.78,0.18 z"
       style="fill:#000000;fill-rule:nonzero;stroke:none;stroke-width:0.75;stroke-linecap:round;stroke-linejoin:round;stroke-miterlimit:10"
       id="path1009" />
    <path
       d="m 813.22,593.05 v 0 l -0.37,-0.02 -0.34,-0.05 -0.31,-0.09 -0.28,-0.12 -0.25,-0.15 -0.23,-0.19 -0.2,-0.22 -0.17,-0.26 -0.15,-0.3 -0.11,-0.32 -30.47,-116.54 -0.17,-0.69 v 0 l 0.01,-0.29 0.06,-0.27 0.1,-0.23 0.13,-0.2 0.17,-0.17 0.21,-0.14 0.24,-0.11 0.29,-0.08 0.32,-0.04 0.36,-0.02 h 21.34 v 0 l 0.34,0.02 0.3,0.05 0.29,0.09 0.26,0.12 0.23,0.15 0.22,0.19 0.18,0.22 0.17,0.26 0.14,0.3 0.11,0.32 16.36,70.06 v 0 l 0.03,0.13 0.04,0.12 0.04,0.1 0.05,0.09 0.05,0.08 0.05,0.06 0.06,0.05 0.06,0.03 0.06,0.02 0.07,0.01 v 0 l 0.07,-0.01 0.06,-0.02 0.06,-0.03 0.06,-0.05 0.05,-0.06 0.05,-0.08 0.05,-0.09 0.04,-0.1 0.04,-0.12 0.04,-0.13 15.83,-69.89 v 0 l 0.12,-0.35 0.14,-0.33 0.16,-0.28 0.19,-0.25 0.21,-0.21 0.24,-0.17 0.26,-0.13 0.28,-0.09 0.31,-0.06 0.33,-0.02 h 20.83 v 0 l 0.37,0.02 0.33,0.05 0.31,0.09 0.29,0.12 0.25,0.15 0.23,0.19 0.2,0.22 0.17,0.26 0.14,0.3 0.12,0.32 17.22,70.06 v 0 l 0.03,0.1 0.04,0.1 0.04,0.08 0.05,0.08 0.05,0.07 0.05,0.07 0.06,0.06 0.06,0.05 0.06,0.04 0.07,0.04 v 0 l 0.07,-0.01 0.06,-0.02 0.06,-0.03 0.06,-0.05 0.05,-0.06 0.05,-0.08 0.05,-0.09 0.04,-0.1 0.04,-0.12 0.04,-0.13 15.83,-69.89 v 0 l 0.12,-0.35 0.14,-0.33 0.16,-0.28 0.19,-0.25 0.21,-0.21 0.24,-0.17 0.26,-0.13 0.28,-0.09 0.31,-0.06 0.33,-0.02 h 20.32 v 0 l 0.45,0.02 0.39,0.07 0.34,0.11 0.27,0.16 0.22,0.2 0.16,0.25 0.11,0.29 0.04,0.33 -0.02,0.38 -0.07,0.43 -28.23,116.54 v 0 l -0.12,0.32 -0.14,0.3 -0.18,0.26 -0.2,0.22 -0.22,0.19 -0.26,0.15 -0.28,0.12 -0.31,0.09 -0.34,0.05 -0.36,0.02 h -20.49 v 0 l -0.33,-0.02 -0.31,-0.05 -0.28,-0.09 -0.26,-0.12 -0.24,-0.15 -0.21,-0.19 -0.19,-0.22 -0.16,-0.26 -0.14,-0.3 -0.11,-0.32 -17.56,-74.54 v 0 l -0.04,-0.13 -0.04,-0.12 -0.04,-0.1 -0.05,-0.09 -0.05,-0.08 -0.05,-0.06 -0.06,-0.05 -0.06,-0.03 -0.06,-0.02 -0.07,-0.01 v 0 l -0.07,0.01 -0.06,0.02 -0.06,0.03 -0.06,0.05 -0.05,0.06 -0.05,0.08 -0.05,0.09 -0.04,0.1 -0.04,0.12 -0.04,0.13 -16.35,74.37 v 0 l -0.08,0.35 -0.12,0.33 -0.14,0.28 -0.18,0.25 -0.21,0.21 -0.24,0.17 -0.27,0.13 -0.3,0.09 -0.33,0.06 -0.37,0.02 z"
       style="fill:#000000;fill-rule:nonzero;stroke:none;stroke-width:0.75;stroke-linecap:round;stroke-linejoin:round;stroke-miterlimit:10"
       id="path1011" />
  </g>
</svg>
