<?xml version="1.0" encoding="UTF-8" standalone="no"?>
<svg
   version="1.1"
   x="0px"
   y="0px"
   width="42px"
   height="42px"
   viewBox="0 0 42 42"
   enable-background="new 0 0 42 42"
   id="svg695"
   sodipodi:docname="arrow_decode.svg"
   inkscape:version="1.2 (dc2aedaf03, 2022-05-15)"
   xmlns:inkscape="http://www.inkscape.org/namespaces/inkscape"
   xmlns:sodipodi="http://sodipodi.sourceforge.net/DTD/sodipodi-0.dtd"
   xmlns="http://www.w3.org/2000/svg"
   xmlns:svg="http://www.w3.org/2000/svg">
  <defs
     id="defs699" />
  <sodipodi:namedview
     id="namedview697"
     pagecolor="#ffffff"
     bordercolor="#000000"
     borderopacity="0.25"
     inkscape:showpageshadow="2"
     inkscape:pageopacity="0.0"
     inkscape:pagecheckerboard="0"
     inkscape:deskcolor="#d1d1d1"
     showgrid="false"
     inkscape:zoom="20.333333"
     inkscape:cx="21"
     inkscape:cy="21"
     inkscape:window-width="1920"
     inkscape:window-height="1009"
     inkscape:window-x="950"
     inkscape:window-y="2152"
     inkscape:window-maximized="1"
     inkscape:current-layer="svg695" />
  <g
     transform="matrix(0.05948592,0,0,0.05948592,31.21741,27.268362)"
     id="g693">
    <g
       style="stroke:#018bff;stroke-width:15;stroke-miterlimit:4;stroke-dasharray:none;stroke-opacity:1"
       transform="matrix(0.65252187,0,0,0.65252187,-171.75346,-165.81281)"
       id="g673">
      <path
         style="fill:none;stroke:#018bff;stroke-width:15;stroke-linecap:round;stroke-linejoin:miter;stroke-miterlimit:4;stroke-dasharray:none;stroke-opacity:1"
         d="M 119.12832,233.09119 416.46488,57.142855 361.58191,63.599675"
         id="path669" />
      <path
         style="fill:none;stroke:#018bff;stroke-width:15;stroke-linecap:round;stroke-linejoin:miter;stroke-miterlimit:4;stroke-dasharray:none;stroke-opacity:1"
         d="M 416.07824,57.530953 389.08719,96.141357"
         id="path671" />
    </g>
    <g
       style="stroke:#018bff;stroke-width:15;stroke-miterlimit:4;stroke-dasharray:none;stroke-opacity:1"
       transform="matrix(0.60435292,0.24605352,-0.24605352,0.60435292,-108.66226,-183.897)"
       id="g679">
      <path
         style="fill:none;stroke:#018bff;stroke-width:15;stroke-linecap:round;stroke-linejoin:miter;stroke-miterlimit:4;stroke-dasharray:none;stroke-opacity:1"
         d="M 119.12832,233.09119 416.46488,57.142855 361.58191,63.599675"
         id="path675" />
      <path
         style="fill:none;stroke:#018bff;stroke-width:15;stroke-linecap:round;stroke-linejoin:miter;stroke-miterlimit:4;stroke-dasharray:none;stroke-opacity:1"
         d="M 416.07824,57.530953 389.08719,96.141357"
         id="path677" />
    </g>
    <g
       style="stroke:#018bff;stroke-width:15;stroke-miterlimit:4;stroke-dasharray:none;stroke-opacity:1"
       transform="matrix(0.47660273,0.44568445,-0.44568445,0.47660273,-46.911386,-177.90125)"
       id="g685">
      <path
         style="fill:none;stroke:#018bff;stroke-width:15;stroke-linecap:round;stroke-linejoin:miter;stroke-miterlimit:4;stroke-dasharray:none;stroke-opacity:1"
         d="M 119.12832,233.09119 416.46488,57.142855 361.58191,63.599675"
         id="path681" />
      <path
         style="fill:none;stroke:#018bff;stroke-width:15;stroke-linecap:round;stroke-linejoin:miter;stroke-miterlimit:4;stroke-dasharray:none;stroke-opacity:1"
         d="M 416.07824,57.530953 389.08719,96.141357"
         id="path683" />
    </g>
    <g
       style="stroke:#018bff;stroke-width:15;stroke-miterlimit:4;stroke-dasharray:none;stroke-opacity:1"
       transform="matrix(0.19555939,0.62252817,-0.62252817,0.19555939,27.789532,-133.45962)"
       id="g691">
      <path
         style="fill:none;stroke:#018bff;stroke-width:15;stroke-linecap:round;stroke-linejoin:miter;stroke-miterlimit:4;stroke-dasharray:none;stroke-opacity:1"
         d="M 119.12832,233.09119 416.46488,57.142855 361.58191,63.599675"
         id="path687" />
      <path
         style="fill:none;stroke:#018bff;stroke-width:15;stroke-linecap:round;stroke-linejoin:miter;stroke-miterlimit:4;stroke-dasharray:none;stroke-opacity:1"
         d="M 416.07824,57.530953 389.08719,96.141357"
         id="path689" />
    </g>
  </g>
  <g
     id="g503"
     transform="matrix(0.43712979,0,0,0.43712979,22.098653,-6.4785257)">
    <polygon
       points="590.62,590.62 168.75,1012.5 168.75,843.75 421.88,590.62 168.75,337.5 168.75,168.75 "
       style="fill:#000000;stroke:#000000;stroke-width:1.07;stroke-linecap:round;stroke-linejoin:round;stroke-miterlimit:10"
       id="polygon164"
       transform="matrix(0.05126796,0,0,0.05126796,-37.006697,17.842646)" />
    <polygon
       points="885.94,590.62 464.06,1012.5 464.06,843.75 717.19,590.62 464.06,337.5 464.06,168.75 "
       style="fill:#000000;stroke:#000000;stroke-width:1.07;stroke-linecap:round;stroke-linejoin:round;stroke-miterlimit:10"
       id="polygon166"
       transform="matrix(0.05126796,0,0,0.05126796,-37.006697,17.842646)" />
    <polygon
       points="1181.25,590.62 759.38,1012.5 759.38,843.75 1012.5,590.62 759.38,337.5 759.38,168.75 "
       style="fill:#000000;stroke:#000000;stroke-width:1.07;stroke-linecap:round;stroke-linejoin:round;stroke-miterlimit:10"
       id="polygon168"
       transform="matrix(0.05126796,0,0,0.05126796,-37.006697,17.842646)" />
  </g>
</svg>
