<?xml version="1.0" encoding="UTF-8" standalone="no"?>
<svg
   fill-opacity="1"
   color-rendering="auto"
   color-interpolation="auto"
   text-rendering="auto"
   stroke="#000000"
   stroke-linecap="square"
   width="864"
   stroke-miterlimit="10"
   shape-rendering="auto"
   stroke-opacity="1"
   fill="#000000"
   stroke-dasharray="none"
   font-weight="normal"
   stroke-width="1"
   height="124"
   font-family="Dialog"
   font-style="normal"
   stroke-linejoin="miter"
   font-size="12px"
   stroke-dashoffset="0"
   image-rendering="auto"
   version="1.1"
   id="svg592"
   xmlns="http://www.w3.org/2000/svg"
   xmlns:svg="http://www.w3.org/2000/svg">
  <!--Generated by the Batik Graphics2D SVG Generator-->
  <defs
     id="genericDefs" />
  <g
     id="g590"
     transform="translate(50.242941,48.269219)" />
  <g
     stroke-linecap="butt"
     font-size="10px"
     fill="#3d6380"
     text-rendering="geometricPrecision"
     image-rendering="optimizeQuality"
     color-rendering="optimizeQuality"
     font-family="FreeSans"
     stroke="#3d6380"
     color-interpolation="linearRGB"
     stroke-miterlimit="2"
     id="g588"
     transform="translate(-103.24279,-114.15394)">
    <line
       y2="160"
       fill="none"
       x1="176"
       x2="368"
       y1="160"
       id="line360" />
    <g
       filename="ui/images/hop-arrow-default.svg"
       transform="rotate(90,78,230)"
       stroke="none"
       id="g364">
      <path
         fill="#0e3a5a"
         d="m 8,0 -4,16 4,-2 4,2"
         id="path362" />
    </g>
    <line
       y2="160"
       fill="none"
       x1="368"
       x2="544"
       y1="160"
       id="line366" />
    <g
       filename="ui/images/hop-arrow-default.svg"
       transform="rotate(90,169,321)"
       stroke="none"
       id="g370">
      <path
         fill="#0e3a5a"
         d="m 8,0 -4,16 4,-2 4,2"
         id="path368" />
    </g>
    <line
       y2="160"
       fill="none"
       x1="544"
       x2="720"
       y1="160"
       id="line372" />
    <g
       filename="ui/images/hop-arrow-default.svg"
       transform="rotate(90,257,409)"
       stroke="none"
       id="g376">
      <path
         fill="#0e3a5a"
         d="m 8,0 -4,16 4,-2 4,2"
         id="path374" />
    </g>
    <line
       y2="160"
       fill="none"
       x1="720"
       x2="880"
       y1="160"
       id="line378" />
    <g
       filename="ui/images/hop-arrow-default.svg"
       transform="rotate(90,340,492)"
       stroke="none"
       id="g382">
      <path
         fill="#0e3a5a"
         d="m 8,0 -4,16 4,-2 4,2"
         id="path380" />
    </g>
    <rect
       x="863"
       y="143"
       fill="#ffffff"
       width="33"
       rx="4"
       ry="4"
       height="33"
       stroke="none"
       id="rect384" />
    <g
       filename="writetolog.svg"
       transform="matrix(0.762,0,0,0.762,864,144)"
       stroke="none"
       id="g474">
      <g
         id="g472">
        <polygon
           fill="#0e3a5a"
           points="11.924,5.475 10.023,5.475 10.023,8.559 4.798,3.334 3.454,4.678 8.68,9.903 5.534,9.903 5.534,11.804 11.924,11.802 "
           id="polygon386" />
        <path
           fill="#c9e8fb"
           d="m 21.367,21.796 c -0.624,0 -0.827,0.237 -0.827,0.732 v 2.048 c 0,0.496 0.203,0.732 0.827,0.732 0.624,0 0.827,-0.236 0.827,-0.732 v -2.048 c 0.001,-0.495 -0.203,-0.732 -0.827,-0.732 z"
           id="path388" />
        <path
           fill="#c9e8fb"
           d="m 23.521,27.196 c -0.624,0 -0.827,0.237 -0.827,0.733 v 2.047 c 0,0.496 0.203,0.732 0.827,0.732 0.624,0 0.827,-0.236 0.827,-0.732 v -2.047 c -10e-4,-0.496 -0.204,-0.733 -0.827,-0.733 z"
           id="path390" />
        <path
           fill="#c9e8fb"
           d="m 21.367,14.507 c 0.624,0 0.827,-0.237 0.827,-0.732 v -2.048 c 0,-0.495 -0.203,-0.732 -0.827,-0.732 -0.624,0 -0.827,0.237 -0.827,0.732 v 2.048 c 0,0.494 0.203,0.732 0.827,0.732 z"
           id="path392" />
        <path
           fill="#c9e8fb"
           d="m 15.378,14.507 c 0.624,0 0.827,-0.237 0.827,-0.732 v -2.048 c 0,-0.069 -0.015,-0.122 -0.023,-0.181 l -1.631,1.631 v 0.598 c -10e-4,0.494 0.203,0.732 0.827,0.732 z"
           id="path394" />
        <path
           fill="#c9e8fb"
           d="m 15.378,25.308 c 0.624,0 0.827,-0.236 0.827,-0.732 v -2.048 c 0,-0.495 -0.203,-0.732 -0.827,-0.732 -0.624,0 -0.828,0.237 -0.828,0.732 v 2.048 c 0,0.496 0.204,0.732 0.828,0.732 z"
           id="path396" />
        <path
           fill="#c9e8fb"
           d="m 17.531,19.908 c 0.624,0 0.827,-0.238 0.827,-0.733 v -2.048 c 0,-0.495 -0.203,-0.731 -0.827,-0.731 -0.624,0 -0.828,0.236 -0.828,0.731 v 2.048 c 0,0.495 0.204,0.733 0.828,0.733 z"
           id="path398" />
        <path
           fill="#c9e8fb"
           d="m 23.521,19.908 c 0.624,0 0.827,-0.238 0.827,-0.733 v -2.048 c 0,-0.495 -0.203,-0.731 -0.827,-0.731 -0.624,0 -0.827,0.236 -0.827,0.731 v 2.048 c 0,0.495 0.203,0.733 0.827,0.733 z"
           id="path400" />
        <path
           fill="#c9e8fb"
           d="M 30.037,33.222 29.979,13.07 H 25.722 V 8.812 h -6.808 l -2.266,2.266 c 0.084,0.17 0.126,0.367 0.126,0.586 v 2.171 c 0,0.678 -0.346,1.173 -1.396,1.173 -1.052,0 -1.397,-0.495 -1.397,-1.173 v -0.089 l -1.637,1.637 V 33.222 Z M 18.928,30.038 c 0,0.679 -0.346,1.173 -1.397,1.173 -1.051,0 -1.397,-0.494 -1.397,-1.173 v -2.17 c 0,-0.678 0.346,-1.174 1.397,-1.174 1.051,0 1.397,0.496 1.397,1.174 z m -0.724,-8.175 c -0.11,0.057 -0.306,0.14 -0.345,0.14 -0.055,0 -0.085,-0.017 -0.091,-0.051 -0.004,-0.02 -0.008,-0.04 -0.012,-0.061 -0.014,-0.067 -0.028,-0.137 -0.028,-0.199 0,-0.06 0.036,-0.098 0.134,-0.141 0.185,-0.083 0.569,-0.258 0.815,-0.258 0.141,0 0.162,0.107 0.162,0.173 v 4.162 c 0,0.132 -0.043,0.182 -0.162,0.182 h -0.18 c -0.177,0 -0.229,-0.024 -0.229,-0.182 v -3.797 z m 6.714,8.175 c 0,0.679 -0.346,1.173 -1.397,1.173 -1.051,0 -1.397,-0.494 -1.397,-1.173 v -2.17 c 0,-0.678 0.346,-1.174 1.397,-1.174 1.051,0 1.397,0.496 1.397,1.174 z M 21.367,25.81 c -1.051,0 -1.397,-0.495 -1.397,-1.173 v -2.17 c 0,-0.679 0.346,-1.174 1.397,-1.174 1.051,0 1.397,0.495 1.397,1.174 v 2.17 c 0,0.678 -0.345,1.173 -1.397,1.173 z m 2.827,-3.947 c -0.111,0.057 -0.305,0.14 -0.346,0.14 -0.055,0 -0.085,-0.017 -0.091,-0.051 -0.003,-0.02 -0.008,-0.04 -0.012,-0.061 -0.014,-0.067 -0.029,-0.137 -0.029,-0.199 0,-0.06 0.037,-0.098 0.134,-0.141 0.184,-0.083 0.568,-0.258 0.814,-0.258 0.141,0 0.162,0.107 0.162,0.173 v 4.162 c 0,0.132 -0.043,0.182 -0.162,0.182 h -0.179 c -0.178,0 -0.229,-0.024 -0.229,-0.182 V 21.831 Z M 23.851,10.751 c 0.184,-0.084 0.568,-0.258 0.814,-0.258 0.141,0 0.162,0.107 0.162,0.171 v 4.162 c 0,0.134 -0.043,0.183 -0.162,0.183 h -0.179 c -0.178,0 -0.229,-0.023 -0.229,-0.183 V 11.03 l -0.063,0.032 c -0.111,0.056 -0.305,0.14 -0.346,0.14 -0.055,0 -0.085,-0.018 -0.091,-0.052 -0.003,-0.019 -0.008,-0.04 -0.012,-0.06 -0.014,-0.066 -0.029,-0.137 -0.029,-0.199 10e-4,-0.06 0.038,-0.097 0.135,-0.14 z m 1.067,6.314 v 2.171 c 0,0.678 -0.346,1.173 -1.397,1.173 -1.051,0 -1.397,-0.495 -1.397,-1.173 v -2.171 c 0,-0.678 0.346,-1.172 1.397,-1.172 1.051,0 1.397,0.494 1.397,1.172 z m -4.948,-5.4 c 0,-0.678 0.346,-1.172 1.397,-1.172 1.051,0 1.397,0.494 1.397,1.172 v 2.171 c 0,0.678 -0.346,1.173 -1.397,1.173 -1.051,0 -1.397,-0.495 -1.397,-1.173 z m 0.044,4.486 c 0.185,-0.084 0.569,-0.258 0.815,-0.258 0.141,0 0.162,0.107 0.162,0.172 v 4.162 c 0,0.133 -0.044,0.182 -0.162,0.182 h -0.18 c -0.177,0 -0.229,-0.023 -0.229,-0.182 V 16.43 l -0.063,0.032 c -0.111,0.057 -0.306,0.14 -0.346,0.14 -0.055,0 -0.085,-0.018 -0.09,-0.052 -0.004,-0.018 -0.008,-0.04 -0.012,-0.06 -0.014,-0.067 -0.028,-0.137 -0.028,-0.198 0,-0.061 0.036,-0.098 0.133,-0.141 z m 0,10.801 c 0.185,-0.083 0.569,-0.258 0.815,-0.258 0.141,0 0.162,0.107 0.162,0.173 v 4.162 c 0,0.132 -0.044,0.182 -0.162,0.182 h -0.18 c -0.177,0 -0.229,-0.023 -0.229,-0.182 v -3.796 l -0.063,0.031 c -0.111,0.056 -0.306,0.139 -0.346,0.139 -0.055,0 -0.085,-0.016 -0.09,-0.051 -0.004,-0.019 -0.008,-0.04 -0.012,-0.061 -0.014,-0.067 -0.028,-0.137 -0.028,-0.199 0,-0.059 0.036,-0.097 0.133,-0.14 z M 17.861,10.751 c 0.185,-0.084 0.569,-0.258 0.815,-0.258 0.141,0 0.162,0.107 0.162,0.171 v 4.162 c 0,0.134 -0.043,0.183 -0.162,0.183 h -0.18 c -0.177,0 -0.229,-0.023 -0.229,-0.183 V 11.03 l -0.063,0.032 c -0.11,0.056 -0.306,0.14 -0.345,0.14 -0.055,0 -0.085,-0.018 -0.091,-0.052 -0.004,-0.019 -0.008,-0.04 -0.012,-0.06 -0.014,-0.066 -0.028,-0.137 -0.028,-0.199 -0.001,-0.06 0.035,-0.097 0.133,-0.14 z m -1.727,6.314 c 0,-0.678 0.346,-1.172 1.397,-1.172 1.051,0 1.397,0.494 1.397,1.172 v 2.171 c 0,0.678 -0.346,1.173 -1.397,1.173 -1.051,0 -1.397,-0.495 -1.397,-1.173 z m 0.64,5.402 v 2.17 c 0,0.678 -0.346,1.173 -1.396,1.173 -1.052,0 -1.397,-0.495 -1.397,-1.173 v -2.17 c 0,-0.679 0.346,-1.174 1.397,-1.174 1.05,0.001 1.396,0.496 1.396,1.174 z m -2.75,-6.316 c 0.185,-0.084 0.568,-0.258 0.815,-0.258 0.141,0 0.162,0.107 0.162,0.172 v 4.162 c 0,0.133 -0.044,0.182 -0.162,0.182 h -0.18 c -0.177,0 -0.229,-0.023 -0.229,-0.182 V 16.43 l -0.064,0.032 c -0.111,0.057 -0.305,0.14 -0.345,0.14 -0.055,0 -0.085,-0.018 -0.091,-0.052 -0.003,-0.018 -0.008,-0.04 -0.012,-0.06 -0.014,-0.067 -0.028,-0.137 -0.028,-0.198 0,-0.061 0.037,-0.098 0.134,-0.141 z m 0,10.801 c 0.185,-0.083 0.568,-0.258 0.815,-0.258 0.141,0 0.162,0.107 0.162,0.173 v 4.162 c 0,0.132 -0.044,0.182 -0.162,0.182 h -0.18 c -0.177,0 -0.229,-0.023 -0.229,-0.182 v -3.796 l -0.064,0.031 c -0.111,0.056 -0.305,0.139 -0.345,0.139 -0.055,0 -0.085,-0.016 -0.091,-0.051 -0.003,-0.019 -0.008,-0.04 -0.012,-0.061 -0.014,-0.067 -0.028,-0.137 -0.028,-0.199 0,-0.059 0.037,-0.097 0.134,-0.14 z"
           id="path402" />
        <path
           fill="#c9e8fb"
           d="m 17.531,27.196 c -0.624,0 -0.828,0.237 -0.828,0.733 v 2.047 c 0,0.496 0.204,0.732 0.828,0.732 0.624,0 0.827,-0.236 0.827,-0.732 v -2.047 c 0,-0.496 -0.203,-0.733 -0.827,-0.733 z"
           id="path404" />
        <polygon
           fill="#0e3a5a"
           points="25.712,7.113 20.614,7.113 18.914,8.812 25.722,8.812 25.722,13.07 29.979,13.07 30.037,33.222 12.343,33.222 12.343,15.383 10.643,17.084 10.643,34.922 31.742,34.922 31.679,13.08 29.97,11.371 27.422,11.371 27.422,8.823 "
           id="polygon406" />
        <path
           fill="#c9e8fb"
           d="m 15.378,15.008 c 1.051,0 1.396,-0.495 1.396,-1.173 v -2.171 c 0,-0.219 -0.042,-0.416 -0.126,-0.586 l -0.467,0.467 c 0.009,0.059 0.023,0.112 0.023,0.181 v 2.048 c 0,0.495 -0.203,0.732 -0.827,0.732 -0.624,0 -0.828,-0.237 -0.828,-0.732 v -0.598 l -0.57,0.57 v 0.089 c 0.001,0.678 0.347,1.173 1.399,1.173 z"
           id="path408" />
        <path
           fill="#0e3a5a"
           d="m 15.378,15.008 c 1.051,0 1.396,-0.495 1.396,-1.173 v -2.171 c 0,-0.219 -0.042,-0.416 -0.126,-0.586 l -0.467,0.467 c 0.009,0.059 0.023,0.112 0.023,0.181 v 2.048 c 0,0.495 -0.203,0.732 -0.827,0.732 -0.624,0 -0.828,-0.237 -0.828,-0.732 v -0.598 l -0.57,0.57 v 0.089 c 0.001,0.678 0.347,1.173 1.399,1.173 z"
           id="path410" />
        <path
           fill="#c9e8fb"
           d="m 17.768,11.15 c 0.005,0.034 0.036,0.052 0.091,0.052 0.04,0 0.235,-0.084 0.345,-0.14 l 0.063,-0.032 v 3.796 c 0,0.159 0.052,0.183 0.229,0.183 h 0.18 c 0.119,0 0.162,-0.049 0.162,-0.183 v -4.162 c 0,-0.064 -0.021,-0.171 -0.162,-0.171 -0.246,0 -0.63,0.174 -0.815,0.258 -0.098,0.043 -0.134,0.08 -0.134,0.14 0,0.063 0.014,0.133 0.028,0.199 0.005,0.02 0.009,0.041 0.013,0.06 z"
           id="path412" />
        <path
           fill="#0e3a5a"
           d="m 17.768,11.15 c 0.005,0.034 0.036,0.052 0.091,0.052 0.04,0 0.235,-0.084 0.345,-0.14 l 0.063,-0.032 v 3.796 c 0,0.159 0.052,0.183 0.229,0.183 h 0.18 c 0.119,0 0.162,-0.049 0.162,-0.183 v -4.162 c 0,-0.064 -0.021,-0.171 -0.162,-0.171 -0.246,0 -0.63,0.174 -0.815,0.258 -0.098,0.043 -0.134,0.08 -0.134,0.14 0,0.063 0.014,0.133 0.028,0.199 0.005,0.02 0.009,0.041 0.013,0.06 z"
           id="path414" />
        <path
           fill="#c9e8fb"
           d="m 21.367,15.008 c 1.051,0 1.397,-0.495 1.397,-1.173 v -2.171 c 0,-0.678 -0.346,-1.172 -1.397,-1.172 -1.051,0 -1.397,0.494 -1.397,1.172 v 2.171 c 0,0.678 0.346,1.173 1.397,1.173 z M 20.54,11.726 c 0,-0.495 0.203,-0.732 0.827,-0.732 0.624,0 0.827,0.237 0.827,0.732 v 2.048 c 0,0.495 -0.203,0.732 -0.827,0.732 -0.624,0 -0.827,-0.237 -0.827,-0.732 z"
           id="path416" />
        <path
           fill="#0e3a5a"
           d="m 21.367,15.008 c 1.051,0 1.397,-0.495 1.397,-1.173 v -2.171 c 0,-0.678 -0.346,-1.172 -1.397,-1.172 -1.051,0 -1.397,0.494 -1.397,1.172 v 2.171 c 0,0.678 0.346,1.173 1.397,1.173 z M 20.54,11.726 c 0,-0.495 0.203,-0.732 0.827,-0.732 0.624,0 0.827,0.237 0.827,0.732 v 2.048 c 0,0.495 -0.203,0.732 -0.827,0.732 -0.624,0 -0.827,-0.237 -0.827,-0.732 z"
           id="path418" />
        <path
           fill="#c9e8fb"
           d="m 23.758,11.15 c 0.005,0.034 0.036,0.052 0.091,0.052 0.041,0 0.234,-0.084 0.346,-0.14 l 0.063,-0.032 v 3.796 c 0,0.159 0.051,0.183 0.229,0.183 h 0.179 c 0.119,0 0.162,-0.049 0.162,-0.183 v -4.162 c 0,-0.064 -0.021,-0.171 -0.162,-0.171 -0.246,0 -0.63,0.174 -0.814,0.258 -0.098,0.043 -0.134,0.08 -0.134,0.14 0,0.063 0.015,0.133 0.029,0.199 0.003,0.02 0.008,0.041 0.011,0.06 z"
           id="path420" />
        <path
           fill="#0e3a5a"
           d="m 23.758,11.15 c 0.005,0.034 0.036,0.052 0.091,0.052 0.041,0 0.234,-0.084 0.346,-0.14 l 0.063,-0.032 v 3.796 c 0,0.159 0.051,0.183 0.229,0.183 h 0.179 c 0.119,0 0.162,-0.049 0.162,-0.183 v -4.162 c 0,-0.064 -0.021,-0.171 -0.162,-0.171 -0.246,0 -0.63,0.174 -0.814,0.258 -0.098,0.043 -0.134,0.08 -0.134,0.14 0,0.063 0.015,0.133 0.029,0.199 0.003,0.02 0.008,0.041 0.011,0.06 z"
           id="path422" />
        <path
           fill="#c9e8fb"
           d="m 13.98,22.467 v 2.17 c 0,0.678 0.346,1.173 1.397,1.173 1.051,0 1.396,-0.495 1.396,-1.173 v -2.17 c 0,-0.679 -0.346,-1.174 -1.396,-1.174 -1.051,0.001 -1.397,0.496 -1.397,1.174 z m 0.57,0.061 c 0,-0.495 0.204,-0.732 0.828,-0.732 0.624,0 0.827,0.237 0.827,0.732 v 2.048 c 0,0.496 -0.203,0.732 -0.827,0.732 -0.624,0 -0.828,-0.236 -0.828,-0.732 z"
           id="path424" />
        <path
           fill="#0e3a5a"
           d="m 13.98,22.467 v 2.17 c 0,0.678 0.346,1.173 1.397,1.173 1.051,0 1.396,-0.495 1.396,-1.173 v -2.17 c 0,-0.679 -0.346,-1.174 -1.396,-1.174 -1.051,0.001 -1.397,0.496 -1.397,1.174 z m 0.57,0.061 c 0,-0.495 0.204,-0.732 0.828,-0.732 0.624,0 0.827,0.237 0.827,0.732 v 2.048 c 0,0.496 -0.203,0.732 -0.827,0.732 -0.624,0 -0.828,-0.236 -0.828,-0.732 z"
           id="path426" />
        <path
           fill="#c9e8fb"
           d="m 18.496,25.81 h 0.18 c 0.119,0 0.162,-0.05 0.162,-0.182 v -4.162 c 0,-0.065 -0.021,-0.173 -0.162,-0.173 -0.246,0 -0.63,0.175 -0.815,0.258 -0.098,0.043 -0.134,0.081 -0.134,0.141 0,0.063 0.014,0.132 0.028,0.199 0.004,0.021 0.008,0.041 0.012,0.061 0.005,0.034 0.036,0.051 0.091,0.051 0.04,0 0.235,-0.083 0.345,-0.14 l 0.063,-0.031 v 3.797 c 0.001,0.157 0.053,0.181 0.23,0.181 z"
           id="path428" />
        <path
           fill="#0e3a5a"
           d="m 18.496,25.81 h 0.18 c 0.119,0 0.162,-0.05 0.162,-0.182 v -4.162 c 0,-0.065 -0.021,-0.173 -0.162,-0.173 -0.246,0 -0.63,0.175 -0.815,0.258 -0.098,0.043 -0.134,0.081 -0.134,0.141 0,0.063 0.014,0.132 0.028,0.199 0.004,0.021 0.008,0.041 0.012,0.061 0.005,0.034 0.036,0.051 0.091,0.051 0.04,0 0.235,-0.083 0.345,-0.14 l 0.063,-0.031 v 3.797 c 0.001,0.157 0.053,0.181 0.23,0.181 z"
           id="path430" />
        <path
           fill="#c9e8fb"
           d="m 22.764,24.637 v -2.17 c 0,-0.679 -0.346,-1.174 -1.397,-1.174 -1.051,0 -1.397,0.495 -1.397,1.174 v 2.17 c 0,0.678 0.346,1.173 1.397,1.173 1.051,0 1.397,-0.495 1.397,-1.173 z m -0.569,-0.061 c 0,0.496 -0.203,0.732 -0.827,0.732 -0.624,0 -0.827,-0.236 -0.827,-0.732 v -2.048 c 0,-0.495 0.203,-0.732 0.827,-0.732 0.624,0 0.827,0.237 0.827,0.732 z"
           id="path432" />
        <path
           fill="#0e3a5a"
           d="m 22.764,24.637 v -2.17 c 0,-0.679 -0.346,-1.174 -1.397,-1.174 -1.051,0 -1.397,0.495 -1.397,1.174 v 2.17 c 0,0.678 0.346,1.173 1.397,1.173 1.051,0 1.397,-0.495 1.397,-1.173 z m -0.569,-0.061 c 0,0.496 -0.203,0.732 -0.827,0.732 -0.624,0 -0.827,-0.236 -0.827,-0.732 v -2.048 c 0,-0.495 0.203,-0.732 0.827,-0.732 0.624,0 0.827,0.237 0.827,0.732 z"
           id="path434" />
        <path
           fill="#c9e8fb"
           d="m 24.487,25.81 h 0.179 c 0.119,0 0.162,-0.05 0.162,-0.182 v -4.162 c 0,-0.065 -0.021,-0.173 -0.162,-0.173 -0.246,0 -0.63,0.175 -0.814,0.258 -0.098,0.043 -0.134,0.081 -0.134,0.141 0,0.063 0.015,0.132 0.029,0.199 0.004,0.021 0.009,0.041 0.012,0.061 0.005,0.034 0.036,0.051 0.091,0.051 0.041,0 0.234,-0.083 0.346,-0.14 l 0.063,-0.031 v 3.797 c -0.001,0.157 0.05,0.181 0.228,0.181 z"
           id="path436" />
        <path
           fill="#0e3a5a"
           d="m 24.487,25.81 h 0.179 c 0.119,0 0.162,-0.05 0.162,-0.182 v -4.162 c 0,-0.065 -0.021,-0.173 -0.162,-0.173 -0.246,0 -0.63,0.175 -0.814,0.258 -0.098,0.043 -0.134,0.081 -0.134,0.141 0,0.063 0.015,0.132 0.029,0.199 0.004,0.021 0.009,0.041 0.012,0.061 0.005,0.034 0.036,0.051 0.091,0.051 0.041,0 0.234,-0.083 0.346,-0.14 l 0.063,-0.031 v 3.797 c -0.001,0.157 0.05,0.181 0.228,0.181 z"
           id="path438" />
        <path
           fill="#c9e8fb"
           d="m 13.931,16.55 c 0.005,0.034 0.036,0.052 0.091,0.052 0.04,0 0.234,-0.083 0.345,-0.14 l 0.064,-0.032 v 3.797 c 0,0.158 0.051,0.182 0.229,0.182 h 0.18 c 0.118,0 0.162,-0.049 0.162,-0.182 v -4.162 c 0,-0.065 -0.021,-0.172 -0.162,-0.172 -0.247,0 -0.631,0.174 -0.815,0.258 -0.098,0.043 -0.134,0.08 -0.134,0.141 0,0.062 0.015,0.131 0.028,0.198 0.004,0.02 0.009,0.042 0.012,0.06 z"
           id="path440" />
        <path
           fill="#0e3a5a"
           d="m 13.931,16.55 c 0.005,0.034 0.036,0.052 0.091,0.052 0.04,0 0.234,-0.083 0.345,-0.14 l 0.064,-0.032 v 3.797 c 0,0.158 0.051,0.182 0.229,0.182 h 0.18 c 0.118,0 0.162,-0.049 0.162,-0.182 v -4.162 c 0,-0.065 -0.021,-0.172 -0.162,-0.172 -0.247,0 -0.631,0.174 -0.815,0.258 -0.098,0.043 -0.134,0.08 -0.134,0.141 0,0.062 0.015,0.131 0.028,0.198 0.004,0.02 0.009,0.042 0.012,0.06 z"
           id="path442" />
        <path
           fill="#c9e8fb"
           d="m 17.531,20.409 c 1.051,0 1.397,-0.495 1.397,-1.173 v -2.171 c 0,-0.678 -0.346,-1.172 -1.397,-1.172 -1.051,0 -1.397,0.494 -1.397,1.172 v 2.171 c 0,0.678 0.345,1.173 1.397,1.173 z m -0.828,-3.282 c 0,-0.495 0.204,-0.731 0.828,-0.731 0.624,0 0.827,0.236 0.827,0.731 v 2.048 c 0,0.495 -0.203,0.733 -0.827,0.733 -0.624,0 -0.828,-0.238 -0.828,-0.733 z"
           id="path444" />
        <path
           fill="#0e3a5a"
           d="m 17.531,20.409 c 1.051,0 1.397,-0.495 1.397,-1.173 v -2.171 c 0,-0.678 -0.346,-1.172 -1.397,-1.172 -1.051,0 -1.397,0.494 -1.397,1.172 v 2.171 c 0,0.678 0.345,1.173 1.397,1.173 z m -0.828,-3.282 c 0,-0.495 0.204,-0.731 0.828,-0.731 0.624,0 0.827,0.236 0.827,0.731 v 2.048 c 0,0.495 -0.203,0.733 -0.827,0.733 -0.624,0 -0.828,-0.238 -0.828,-0.733 z"
           id="path446" />
        <path
           fill="#c9e8fb"
           d="m 19.921,16.55 c 0.005,0.034 0.036,0.052 0.09,0.052 0.04,0 0.235,-0.083 0.346,-0.14 L 20.42,16.43 v 3.797 c 0,0.158 0.052,0.182 0.229,0.182 h 0.18 c 0.118,0 0.162,-0.049 0.162,-0.182 v -4.162 c 0,-0.065 -0.021,-0.172 -0.162,-0.172 -0.246,0 -0.63,0.174 -0.815,0.258 -0.098,0.043 -0.134,0.08 -0.134,0.141 0,0.062 0.014,0.131 0.028,0.198 0.005,0.02 0.009,0.042 0.013,0.06 z"
           id="path448" />
        <path
           fill="#0e3a5a"
           d="m 19.921,16.55 c 0.005,0.034 0.036,0.052 0.09,0.052 0.04,0 0.235,-0.083 0.346,-0.14 L 20.42,16.43 v 3.797 c 0,0.158 0.052,0.182 0.229,0.182 h 0.18 c 0.118,0 0.162,-0.049 0.162,-0.182 v -4.162 c 0,-0.065 -0.021,-0.172 -0.162,-0.172 -0.246,0 -0.63,0.174 -0.815,0.258 -0.098,0.043 -0.134,0.08 -0.134,0.141 0,0.062 0.014,0.131 0.028,0.198 0.005,0.02 0.009,0.042 0.013,0.06 z"
           id="path450" />
        <path
           fill="#c9e8fb"
           d="m 22.123,17.065 v 2.171 c 0,0.678 0.346,1.173 1.397,1.173 1.051,0 1.397,-0.495 1.397,-1.173 v -2.171 c 0,-0.678 -0.346,-1.172 -1.397,-1.172 -1.051,0 -1.397,0.494 -1.397,1.172 z m 0.571,0.062 c 0,-0.495 0.203,-0.731 0.827,-0.731 0.624,0 0.827,0.236 0.827,0.731 v 2.048 c 0,0.495 -0.203,0.733 -0.827,0.733 -0.624,0 -0.827,-0.238 -0.827,-0.733 z"
           id="path452" />
        <path
           fill="#0e3a5a"
           d="m 22.123,17.065 v 2.171 c 0,0.678 0.346,1.173 1.397,1.173 1.051,0 1.397,-0.495 1.397,-1.173 v -2.171 c 0,-0.678 -0.346,-1.172 -1.397,-1.172 -1.051,0 -1.397,0.494 -1.397,1.172 z m 0.571,0.062 c 0,-0.495 0.203,-0.731 0.827,-0.731 0.624,0 0.827,0.236 0.827,0.731 v 2.048 c 0,0.495 -0.203,0.733 -0.827,0.733 -0.624,0 -0.827,-0.238 -0.827,-0.733 z"
           id="path454" />
        <path
           fill="#c9e8fb"
           d="m 13.931,27.352 c 0.005,0.035 0.036,0.051 0.091,0.051 0.04,0 0.234,-0.083 0.345,-0.139 l 0.064,-0.031 v 3.796 c 0,0.158 0.051,0.182 0.229,0.182 h 0.18 c 0.118,0 0.162,-0.05 0.162,-0.182 v -4.162 c 0,-0.065 -0.021,-0.173 -0.162,-0.173 -0.247,0 -0.631,0.175 -0.815,0.258 -0.098,0.043 -0.134,0.081 -0.134,0.141 0,0.063 0.015,0.132 0.028,0.199 0.004,0.02 0.009,0.041 0.012,0.06 z"
           id="path456" />
        <path
           fill="#0e3a5a"
           d="m 13.931,27.352 c 0.005,0.035 0.036,0.051 0.091,0.051 0.04,0 0.234,-0.083 0.345,-0.139 l 0.064,-0.031 v 3.796 c 0,0.158 0.051,0.182 0.229,0.182 h 0.18 c 0.118,0 0.162,-0.05 0.162,-0.182 v -4.162 c 0,-0.065 -0.021,-0.173 -0.162,-0.173 -0.247,0 -0.631,0.175 -0.815,0.258 -0.098,0.043 -0.134,0.081 -0.134,0.141 0,0.063 0.015,0.132 0.028,0.199 0.004,0.02 0.009,0.041 0.012,0.06 z"
           id="path458" />
        <path
           fill="#c9e8fb"
           d="m 17.531,26.694 c -1.051,0 -1.397,0.496 -1.397,1.174 v 2.17 c 0,0.679 0.346,1.173 1.397,1.173 1.051,0 1.397,-0.494 1.397,-1.173 v -2.17 c 0,-0.678 -0.347,-1.174 -1.397,-1.174 z m 0.827,3.282 c 0,0.496 -0.203,0.732 -0.827,0.732 -0.624,0 -0.828,-0.236 -0.828,-0.732 v -2.047 c 0,-0.496 0.204,-0.733 0.828,-0.733 0.624,0 0.827,0.237 0.827,0.733 z"
           id="path460" />
        <path
           fill="#0e3a5a"
           d="m 17.531,26.694 c -1.051,0 -1.397,0.496 -1.397,1.174 v 2.17 c 0,0.679 0.346,1.173 1.397,1.173 1.051,0 1.397,-0.494 1.397,-1.173 v -2.17 c 0,-0.678 -0.347,-1.174 -1.397,-1.174 z m 0.827,3.282 c 0,0.496 -0.203,0.732 -0.827,0.732 -0.624,0 -0.828,-0.236 -0.828,-0.732 v -2.047 c 0,-0.496 0.204,-0.733 0.828,-0.733 0.624,0 0.827,0.237 0.827,0.733 z"
           id="path462" />
        <path
           fill="#c9e8fb"
           d="m 19.921,27.352 c 0.005,0.035 0.036,0.051 0.09,0.051 0.04,0 0.235,-0.083 0.346,-0.139 l 0.063,-0.031 v 3.796 c 0,0.158 0.052,0.182 0.229,0.182 h 0.18 c 0.118,0 0.162,-0.05 0.162,-0.182 v -4.162 c 0,-0.065 -0.021,-0.173 -0.162,-0.173 -0.246,0 -0.63,0.175 -0.815,0.258 -0.098,0.043 -0.134,0.081 -0.134,0.141 0,0.063 0.014,0.132 0.028,0.199 0.005,0.02 0.009,0.041 0.013,0.06 z"
           id="path464" />
        <path
           fill="#0e3a5a"
           d="m 19.921,27.352 c 0.005,0.035 0.036,0.051 0.09,0.051 0.04,0 0.235,-0.083 0.346,-0.139 l 0.063,-0.031 v 3.796 c 0,0.158 0.052,0.182 0.229,0.182 h 0.18 c 0.118,0 0.162,-0.05 0.162,-0.182 v -4.162 c 0,-0.065 -0.021,-0.173 -0.162,-0.173 -0.246,0 -0.63,0.175 -0.815,0.258 -0.098,0.043 -0.134,0.081 -0.134,0.141 0,0.063 0.014,0.132 0.028,0.199 0.005,0.02 0.009,0.041 0.013,0.06 z"
           id="path466" />
        <path
           fill="#c9e8fb"
           d="m 23.521,26.694 c -1.051,0 -1.397,0.496 -1.397,1.174 v 2.17 c 0,0.679 0.346,1.173 1.397,1.173 1.051,0 1.397,-0.494 1.397,-1.173 v -2.17 c 0,-0.678 -0.346,-1.174 -1.397,-1.174 z m 0.826,3.282 c 0,0.496 -0.203,0.732 -0.827,0.732 -0.624,0 -0.827,-0.236 -0.827,-0.732 v -2.047 c 0,-0.496 0.203,-0.733 0.827,-0.733 0.624,0 0.827,0.237 0.827,0.733 z"
           id="path468" />
        <path
           fill="#0e3a5a"
           d="m 23.521,26.694 c -1.051,0 -1.397,0.496 -1.397,1.174 v 2.17 c 0,0.679 0.346,1.173 1.397,1.173 1.051,0 1.397,-0.494 1.397,-1.173 v -2.17 c 0,-0.678 -0.346,-1.174 -1.397,-1.174 z m 0.826,3.282 c 0,0.496 -0.203,0.732 -0.827,0.732 -0.624,0 -0.827,-0.236 -0.827,-0.732 v -2.047 c 0,-0.496 0.203,-0.733 0.827,-0.733 0.624,0 0.827,0.237 0.827,0.733 z"
           id="path470" />
      </g>
    </g>
    <rect
       x="863"
       y="143"
       fill="none"
       width="33"
       rx="4"
       ry="4"
       height="33"
       id="rect476" />
    <text
       fill="#000000"
       x="856"
       xml:space="preserve"
       y="193"
       stroke="none"
       id="text478">Write to log</text>
    <rect
       x="351"
       y="143"
       fill="#ffffff"
       width="33"
       rx="4"
       ry="4"
       height="33"
       stroke="none"
       id="rect480" />
    <g
       filename="selectvalues.svg"
       transform="matrix(0.762,0,0,0.762,352,144)"
       stroke="none"
       id="g504">
      <g
         id="g502">
        <rect
           x="4.8200002"
           fill="none"
           width="32.360001"
           y="31.389"
           height="3.9909999"
           id="rect482" />
        <rect
           x="4.8200002"
           fill="none"
           width="15.33"
           y="6.6199999"
           height="3.9909999"
           id="rect484" />
        <rect
           x="4.8200002"
           fill="none"
           width="15.33"
           y="23.132999"
           height="3.9909999"
           id="rect486" />
        <path
           fill="#0e3a5a"
           d="M 21.85,4.921 H 3.12 v 7.39 h 18.73 z m -1.7,5.69 H 4.82 V 6.62 h 15.33 z"
           id="path488" />
        <rect
           x="4.8200002"
           fill="#c9e8fb"
           width="32.360001"
           y="14.876"
           height="3.9909999"
           id="rect490" />
        <path
           fill="#0e3a5a"
           d="m 3.12,13.177 v 7.39 h 35.76 v -7.39 z m 34.06,5.69 H 4.82 v -3.991 h 32.36 z"
           id="path492" />
        <path
           fill="#0e3a5a"
           d="m 3.12,37.079 h 35.76 v -7.39 H 3.12 Z m 1.7,-5.69 H 37.18 V 35.38 H 4.82 Z"
           id="path494" />
        <path
           fill="#0e3a5a"
           d="M 21.85,21.434 H 3.12 v 7.39 h 18.73 z m -1.7,5.69 H 4.82 v -3.991 h 15.33 z"
           id="path496" />
        <polygon
           fill="#ea102a"
           points="25.948,4.103 24.604,5.446 27.503,8.345 24.604,11.243 25.948,12.587 28.847,9.688 31.745,12.587 33.089,11.243 30.19,8.345 33.089,5.446 31.745,4.103 28.847,7.001 "
           id="polygon498" />
        <polygon
           fill="#ea102a"
           points="25.948,20.793 24.604,22.137 27.503,25.035 24.604,27.934 25.948,29.277 28.847,26.379 31.745,29.277 33.089,27.934 30.19,25.035 33.089,22.137 31.745,20.793 28.847,23.691 "
           id="polygon500" />
      </g>
    </g>
    <rect
       x="351"
       y="143"
       fill="none"
       width="33"
       rx="4"
       ry="4"
       height="33"
       id="rect506" />
    <text
       fill="#000000"
       x="346"
       xml:space="preserve"
       y="193"
       stroke="none"
       id="text508">cast dates</text>
    <rect
       x="527"
       y="143"
       fill="#ffffff"
       width="33"
       rx="4"
       ry="4"
       height="33"
       stroke="none"
       id="rect510" />
    <g
       filename="memorygroupby.svg"
       transform="matrix(0.762,0,0,0.762,528,144)"
       stroke="none"
       id="g540">
      <polygon
         fill="#0e3a5a"
         points="35.158,25.255 35.158,24.308 30.524,24.308 34.349,28.836 30.524,33.364 35.158,33.364 35.158,32.397 36.857,32.397 36.857,35.064 26.862,35.064 32.124,28.836 26.862,22.608 36.857,22.608 36.857,25.255 "
         id="polygon512" />
      <g
         id="g524">
        <g
           id="g520">
          <rect
             x="7.1090002"
             fill="#0e3a5a"
             width="12.879"
             y="14.114"
             height="0.801"
             id="rect514" />
          <rect
             x="7.1090002"
             fill="#0e3a5a"
             width="12.879"
             y="20.74"
             height="0.801"
             id="rect516" />
          <rect
             x="7.1090002"
             fill="#0e3a5a"
             width="12.879"
             y="27.249001"
             height="0.801"
             id="rect518" />
        </g>
        <path
           fill="#0e3a5a"
           d="M 21.039,34.88 H 6.244 V 7.031 H 21.039 Z M 7.943,33.181 H 19.34 V 8.731 H 7.943 Z"
           id="path522" />
      </g>
      <g
         id="g538">
        <g
           id="g530">
          <polygon
             fill="#0e3a5a"
             points="27.037,12.129 27.877,12.984 24.286,16.51 27.881,20.106 27.033,20.953 22.581,16.502 "
             id="polygon526" />
          <rect
             x="23.434"
             fill="#0e3a5a"
             width="9.073"
             y="15.943"
             height="1.199"
             id="rect528" />
        </g>
        <g
           id="g536">
          <polygon
             fill="#0e3a5a"
             points="39.019,10.662 35.424,7.066 36.271,6.219 40.724,10.67 36.268,15.043 35.428,14.188 "
             id="polygon532" />
          <rect
             x="30.799"
             fill="#0e3a5a"
             width="9.0719995"
             y="10.029"
             height="1.199"
             id="rect534" />
        </g>
      </g>
    </g>
    <rect
       x="527"
       y="143"
       fill="none"
       width="33"
       rx="4"
       ry="4"
       height="33"
       id="rect542" />
    <text
       fill="#000000"
       x="497"
       xml:space="preserve"
       y="193"
       stroke="none"
       id="text544">nb zip codes per state</text>
    <rect
       x="159"
       y="143"
       fill="#ffffff"
       width="33"
       rx="4"
       ry="4"
       height="33"
       stroke="none"
       id="rect546" />
    <g
       filename="textfileinput.svg"
       transform="matrix(0.762,0,0,0.762,160,144)"
       stroke="none"
       id="g562">
      <g
         id="g560">
        <polygon
           fill="#0e3a5a"
           points="31.292,30.493 29.948,31.837 35.173,37.062 32.029,37.063 32.029,38.963 38.416,38.962 38.416,32.635 36.516,32.635 36.516,35.718 "
           id="polygon548" />
        <path
           fill="#c9e8fb"
           d="M 24.932,13.053 V 8.795 H 11.553 V 33.206 H 23.068 L 29.23,27.044 29.19,13.053 Z m -7.28,11.73 H 14.45 v -0.801 h 3.201 v 0.801 z M 26.353,21.4 H 14.45 v -0.8 h 11.902 v 0.8 z m 0,-3.382 H 14.45 v -0.801 h 11.902 v 0.801 z"
           id="path550" />
        <polygon
           fill="#0e3a5a"
           points="24.922,7.096 9.853,7.096 9.853,34.905 21.369,34.905 23.068,33.206 11.553,33.206 11.553,8.795 24.932,8.795 24.932,13.053 29.19,13.053 29.23,27.044 30.925,25.348 30.89,13.063 29.181,11.354 26.633,11.354 26.633,8.806 "
           id="polygon552" />
        <rect
           x="14.45"
           fill="#0e3a5a"
           width="11.902"
           y="17.216999"
           height="0.801"
           id="rect554" />
        <rect
           x="14.45"
           fill="#0e3a5a"
           width="11.902"
           y="20.6"
           height="0.801"
           id="rect556" />
        <rect
           x="14.45"
           fill="#0e3a5a"
           width="3.201"
           y="23.982"
           height="0.801"
           id="rect558" />
      </g>
    </g>
    <rect
       x="159"
       y="143"
       fill="none"
       width="33"
       rx="4"
       ry="4"
       height="33"
       id="rect564" />
    <text
       fill="#000000"
       x="134"
       xml:space="preserve"
       y="193"
       stroke="none"
       id="text566">read customer data</text>
    <rect
       x="703"
       y="143"
       fill="#ffffff"
       width="33"
       rx="4"
       ry="4"
       height="33"
       stroke="none"
       id="rect568" />
    <g
       filename="sortrows.svg"
       transform="matrix(0.762,0,0,0.762,704,144)"
       stroke="none"
       id="g582">
      <g
         id="g580">
        <rect
           x="17.591"
           fill="#0e3a5a"
           width="17.305"
           y="10.838"
           height="1.699"
           id="rect570" />
        <rect
           x="17.591"
           fill="#0e3a5a"
           width="14.305"
           y="17.187"
           height="1.699"
           id="rect572" />
        <rect
           x="17.591"
           fill="#0e3a5a"
           width="11.305"
           y="23.534"
           height="1.699"
           id="rect574" />
        <rect
           x="17.591"
           fill="#0e3a5a"
           width="8.3050003"
           y="29.882"
           height="1.699"
           id="rect576" />
        <polygon
           fill="#0e3a5a"
           points="11.673,25.339 7.105,25.339 13.302,31.537 13.316,10.462 11.71,10.462 "
           id="polygon578" />
      </g>
    </g>
    <rect
       x="703"
       y="143"
       fill="none"
       width="33"
       rx="4"
       ry="4"
       height="33"
       id="rect584" />
    <text
       fill="#000000"
       x="700"
       xml:space="preserve"
       y="193"
       stroke="none"
       id="text586">sort state</text>
  </g>
</svg>
