<?xml version="1.0" encoding="UTF-8" standalone="no"?>
<svg
   fill-opacity="1"
   color-rendering="auto"
   color-interpolation="auto"
   text-rendering="auto"
   stroke="#000000"
   stroke-linecap="square"
   width="500"
   stroke-miterlimit="10"
   shape-rendering="auto"
   stroke-opacity="1"
   fill="#000000"
   stroke-dasharray="none"
   font-weight="normal"
   stroke-width="1"
   height="420"
   font-family="Dialog"
   font-style="normal"
   stroke-linejoin="miter"
   font-size="12px"
   stroke-dashoffset="0"
   image-rendering="auto"
   version="1.1"
   id="svg2658"
   xmlns="http://www.w3.org/2000/svg"
   xmlns:svg="http://www.w3.org/2000/svg">
  <!--Generated by the Batik Graphics2D SVG Generator-->
  <defs
     id="genericDefs" />
  <g
     id="g2656">
    <g
       stroke-linecap="butt"
       font-size="10px"
       fill="#3d6380"
       text-rendering="geometricPrecision"
       image-rendering="optimizeQuality"
       color-rendering="optimizeQuality"
       font-family="FreeSans"
       stroke="#3d6380"
       color-interpolation="linearRGB"
       stroke-miterlimit="2"
       id="g2654"
       transform="translate(-79.10038,-143.8695)">
      <line
         y2="176"
         fill="none"
         x1="144"
         x2="512"
         y1="176"
         id="line2520" />
      <g
         filename="ui/images/hop-arrow-default.svg"
         transform="rotate(90,111.5,279.5)"
         stroke="none"
         id="g2524">
        <path
           fill="#0e3a5a"
           d="m 8,0 -4,16 4,-2 4,2"
           id="path2522" />
      </g>
      <line
         y2="176"
         fill="none"
         x1="144"
         x2="512"
         y1="282"
         id="line2526" />
      <g
         filename="ui/images/hop-arrow-default.svg"
         transform="rotate(73.931,58.643005,360.13288)"
         stroke="none"
         id="g2530">
        <path
           fill="#0e3a5a"
           d="m 8,0 -4,16 4,-2 4,2"
           id="path2528" />
      </g>
      <line
         y2="176"
         fill="none"
         x1="144"
         x2="512"
         y1="388"
         id="line2532" />
      <g
         filename="ui/images/hop-arrow-default.svg"
         transform="rotate(60.054,-14.715338,453.90639)"
         stroke="none"
         id="g2536">
        <path
           fill="#0e3a5a"
           d="m 8,0 -4,16 4,-2 4,2"
           id="path2534" />
      </g>
      <line
         y2="176"
         fill="none"
         x1="144"
         x2="512"
         y1="494"
         id="line2538" />
      <g
         filename="ui/images/hop-arrow-default.svg"
         transform="rotate(49.169,-110.50521,557.8284)"
         stroke="none"
         id="g2542">
        <path
           fill="#0e3a5a"
           d="m 8,0 -4,16 4,-2 4,2"
           id="path2540" />
      </g>
      <rect
         x="495"
         y="159"
         fill="#ffffff"
         width="33"
         rx="4"
         ry="4"
         height="33"
         stroke="none"
         id="rect2544" />
      <g
         filename="GenericTransform.svg"
         transform="matrix(0.762,0,0,0.762,496,160)"
         stroke="none"
         id="g2552">
        <g
           id="g2550">
          <path
             fill="none"
             d="m 25.045,31.057 h -1.699 v -7.528 h 7.527 v 1.699 h -4.627 l 5.37,5.371 c 2.303,-2.544 3.719,-5.905 3.719,-9.598 0,-3.693 -1.416,-7.054 -3.718,-9.598 l -5.37,5.37 h 4.626 v 1.7 h -7.527 v -7.529 h 1.699 v 4.627 l 5.361,-5.362 C 27.886,8.009 24.6,6.665 21,6.665 c -3.6,0 -6.886,1.344 -9.406,3.544 l 5.361,5.361 v -4.626 h 1.7 v 7.529 h -7.528 v -1.7 h 4.626 l -5.37,-5.37 C 8.081,13.946 6.665,17.307 6.665,21 c 0,3.693 1.416,7.054 3.719,9.598 l 5.37,-5.371 h -4.627 v -1.699 h 7.528 v 7.528 h -1.7 V 26.43 l -5.361,5.361 c 2.521,2.2 5.806,3.544 9.406,3.544 3.6,0 6.886,-1.344 9.406,-3.544 l -5.361,-5.362 z"
             id="path2546" />
          <path
             fill="#3d6480"
             d="m 36.136,21 c 0,-3.914 -1.506,-7.474 -3.953,-10.164 l 2.17,-2.17 -1.201,-1.202 -2.18,2.18 C 28.305,7.299 24.821,5.865 21,5.865 c -3.821,0 -7.305,1.434 -9.971,3.778 L 8.85,7.463 7.647,8.666 9.818,10.837 C 7.371,13.526 5.865,17.086 5.865,21 c 0,3.914 1.506,7.474 3.953,10.164 l -2.171,2.171 1.202,1.201 2.179,-2.179 c 2.666,2.344 6.151,3.779 9.972,3.779 3.821,0 7.306,-1.435 9.972,-3.779 l 2.179,2.179 1.201,-1.201 -2.17,-2.171 C 34.629,28.475 36.136,24.914 36.136,21 Z M 21,35.335 c -3.6,0 -6.886,-1.344 -9.406,-3.544 l 5.361,-5.361 v 4.627 h 1.7 v -7.528 h -7.528 v 1.699 h 4.627 l -5.37,5.371 C 8.081,28.054 6.665,24.693 6.665,21 c 0,-3.693 1.416,-7.054 3.718,-9.598 l 5.37,5.37 h -4.626 v 1.7 h 7.528 v -7.529 h -1.7 v 4.626 L 11.594,10.208 C 14.114,8.008 17.4,6.664 21,6.664 c 3.6,0 6.886,1.344 9.406,3.544 l -5.361,5.362 v -4.627 h -1.699 v 7.529 h 7.527 v -1.7 h -4.626 l 5.37,-5.37 c 2.302,2.544 3.718,5.905 3.718,9.598 0,3.694 -1.416,7.054 -3.719,9.598 l -5.37,-5.371 h 4.627 v -1.699 h -7.527 v 7.528 h 1.699 v -4.628 l 5.361,5.362 C 27.886,33.991 24.6,35.335 21,35.335 Z"
             id="path2548" />
        </g>
      </g>
      <rect
         x="495"
         y="159"
         fill="none"
         width="33"
         rx="4"
         ry="4"
         height="33"
         id="rect2554" />
      <text
         fill="#000000"
         x="462"
         xml:space="preserve"
         y="209"
         stroke="none"
         id="text2556">ETL metadata injection</text>
      <rect
         x="127"
         y="159"
         fill="#ffffff"
         width="33"
         rx="4"
         ry="4"
         height="33"
         stroke="none"
         id="rect2558" />
      <g
         filename="filemetadata.svg"
         transform="matrix(0.762,0,0,0.762,128,160)"
         stroke="none"
         id="g2576">
        <path
           style="fill:none"
           d="m 32.9,28.115 c -2.693,0 -4.875,2.183 -4.875,4.875 0,2.692 2.182,4.875 4.875,4.875 2.692,0 4.875,-2.183 4.875,-4.875 0,-2.692 -2.183,-4.875 -4.875,-4.875 z m 1.369,7.41 -2.203,-2.202 V 29.95 h 1.5 v 2.752 l 1.764,1.763 z"
           id="path2560" />
        <path
           style="fill:#eff9fe"
           d="M 30.063,13.417 H 25.806 V 9.159 H 12.427 v 24.41 H 22.704 L 30.1,26.174 Z M 18.525,25.148 h -3.201 v -0.801 h 3.201 z m 8.701,-3.383 H 15.323 v -0.801 h 11.902 v 0.801 z m 0,-3.383 H 15.323 v -0.801 h 11.902 v 0.801 z"
           id="path2562" />
        <polygon
           style="fill:#3d6480"
           points="27.506,11.718 27.506,9.17 25.795,7.46 10.726,7.46 10.726,35.269 21.005,35.269 22.704,33.57 12.427,33.57 12.427,9.159 25.805,9.159 25.805,13.417 30.063,13.417 30.099,26.174 31.795,24.479 31.763,13.427 30.054,11.718 "
           id="polygon2564" />
        <rect
           x="15.323"
           width="11.902"
           height="0.801"
           y="17.580999"
           style="fill:#3d6480"
           id="rect2566" />
        <rect
           x="15.323"
           width="11.902"
           height="0.801"
           y="20.964001"
           style="fill:#3d6480"
           id="rect2568" />
        <rect
           x="15.323"
           width="3.201"
           height="0.801"
           y="24.347"
           style="fill:#3d6480"
           id="rect2570" />
        <path
           style="fill:#3d6480"
           d="m 35.789665,35.827504 c 0.529,-0.778 0.84,-1.715 0.84,-2.725 0,-2.678 -2.179,-4.856 -4.857,-4.856 -2.678,0 -4.856,2.179 -4.856,4.856 0,2.677 2.179,4.856 4.856,4.856 0.983,0 1.895,-0.298 2.661,-0.801 l 3.051,3.051 1.344,-1.344 z m -4.018,0.631 c -1.851,0 -3.356,-1.506 -3.356,-3.356 0,-1.851 1.506,-3.356 3.356,-3.356 1.852,0 3.357,1.506 3.357,3.356 0.001,1.851 -1.505,3.356 -3.357,3.356 z"
           id="path2572" />
        <path
           style="fill:#fe9c04;fill-opacity:1;stroke:#ffe680;stroke-width:0.0713073"
           d="m 31.006936,36.329456 c -1.621525,-0.393255 -2.729201,-1.996167 -2.516896,-3.64219 0.151771,-1.176702 0.80013,-2.055848 1.907175,-2.586043 0.438556,-0.210037 0.619349,-0.254478 1.160857,-0.285354 1.09853,-0.06264 1.996733,0.300908 2.690361,1.088911 1.656461,1.881839 0.72011,4.844946 -1.712233,5.418408 -0.533966,0.125891 -1.027672,0.127915 -1.529264,0.0063 z"
           id="path2574" />
      </g>
      <rect
         x="127"
         y="159"
         fill="none"
         width="33"
         rx="4"
         ry="4"
         height="33"
         id="rect2578" />
      <text
         fill="#000000"
         x="92"
         xml:space="preserve"
         y="209"
         stroke="none"
         id="text2580">read customer metadata</text>
      <rect
         x="127"
         y="371"
         fill="#ffffff"
         width="33"
         rx="4"
         ry="4"
         height="33"
         stroke="none"
         id="rect2582" />
      <g
         filename="datagrid.svg"
         transform="matrix(0.762,0,0,0.762,128,372)"
         stroke="none"
         id="g2600">
        <g
           id="g2598">
          <rect
             x="10.276"
             fill="none"
             width="6.757"
             y="17.648001"
             height="7.4109998"
             id="rect2584" />
          <rect
             x="10.276"
             fill="none"
             width="6.757"
             y="25.860001"
             height="6.75"
             id="rect2586" />
          <rect
             x="17.832001"
             fill="none"
             width="7.4120002"
             y="17.648001"
             height="7.4109998"
             id="rect2588" />
          <path
             fill="#0e3a5a"
             d="m 38.064,33.958 c 0.02,-0.375 -0.003,-0.755 -0.071,-1.138 l 1.309,-0.957 -0.178,-0.464 C 39.046,31.196 38.954,31 38.856,30.804 l -0.228,-0.455 -1.553,0.355 C 36.971,30.571 36.852,30.44 36.729,30.308 36.586,30.156 36.45,30.02 36.295,29.888 l 0.383,-1.558 -0.432,-0.242 c -0.198,-0.11 -0.397,-0.209 -0.604,-0.298 l -0.469,-0.203 -0.952,1.265 c -0.366,-0.083 -0.742,-0.126 -1.119,-0.127 l -0.711,-1.435 -0.48,0.086 c -0.219,0.039 -0.439,0.085 -0.653,0.147 l -0.489,0.143 0.067,1.594 c -0.316,0.164 -0.626,0.373 -0.926,0.626 l -1.477,-0.646 -0.312,0.385 c -0.142,0.176 -0.271,0.357 -0.393,0.544 l -0.276,0.425 1.079,1.163 c -0.148,0.35 -0.255,0.711 -0.318,1.07 l -1.549,0.458 0.005,0.491 c 0.002,0.221 0.016,0.439 0.041,0.658 l 0.059,0.508 1.591,0.197 c 0.111,0.369 0.26,0.717 0.447,1.041 l -0.909,1.35 0.982,1.053 1.376,-0.644 0.146,-0.089 c 0.313,0.203 0.653,0.373 1.018,0.506 l 0.176,1.61 0.488,0.079 c 0.215,0.035 0.43,0.053 0.648,0.065 l 0.509,0.027 0.464,-1.52 c 0.407,-0.049 0.788,-0.141 1.096,-0.266 l 1.179,1.121 0.425,-0.26 c 0.188,-0.114 0.371,-0.244 0.551,-0.381 l 0.406,-0.309 -0.625,-1.438 c 0.252,-0.271 0.472,-0.572 0.667,-0.911 l 1.602,0.098 0.162,-0.465 c 0.074,-0.211 0.139,-0.425 0.19,-0.644 l 0.119,-0.501 z M 29.425,33.74 c 0,-1.988 1.611,-3.601 3.6,-3.601 1.989,0 3.601,1.612 3.601,3.601 0,1.989 -1.612,3.6 -3.601,3.6 -1.989,0 -3.6,-1.612 -3.6,-3.6 z"
             id="path2590" />
          <circle
             fill="#ffffff"
             r="3.5999999"
             cx="33.023998"
             cy="33.740002"
             id="circle2592" />
          <polygon
             fill="#c9e8fb"
             points="32.575,10.309 10.276,10.309 10.276,16.848 17.032,16.848 17.032,16.839 17.832,16.839 17.832,16.848 25.244,16.848 25.244,16.839 26.044,16.839 26.044,16.848 32.575,16.848 "
             id="polygon2594" />
          <path
             fill="#0e3a5a"
             d="m 31.373,25.059 h -5.328 v -7.411 h 6.531 v 6.208 l 1.7,-1.7 V 8.61 h -25.7 v 25.699 h 13.547 l 1.699,-1.699 h -5.99 v -6.75 h 7.412 v 5.328 l 0.8,-0.8 V 25.86 h 4.528 z M 17.032,32.61 h -6.757 v -6.75 h 6.757 z m 0,-7.551 h -6.757 v -7.411 h 6.757 z m 8.212,0 h -7.412 v -7.411 h 7.412 z m 0,-8.22 v 0.009 h -7.412 v -0.009 h -0.8 v 0.009 H 10.275 V 10.31 h 22.3 v 6.538 h -6.531 v -0.009 z"
             id="path2596" />
        </g>
      </g>
      <rect
         x="127"
         y="371"
         fill="none"
         width="33"
         rx="4"
         ry="4"
         height="33"
         id="rect2602" />
      <text
         fill="#000000"
         x="115"
         xml:space="preserve"
         y="421"
         stroke="none"
         id="text2604">rename fields</text>
      <rect
         x="127"
         y="265"
         fill="#ffffff"
         width="33"
         rx="4"
         ry="4"
         height="33"
         stroke="none"
         id="rect2606" />
      <g
         filename="datagrid.svg"
         transform="matrix(0.762,0,0,0.762,128,266)"
         stroke="none"
         id="g2624">
        <g
           id="g2622">
          <rect
             x="10.276"
             fill="none"
             width="6.757"
             y="17.648001"
             height="7.4109998"
             id="rect2608" />
          <rect
             x="10.276"
             fill="none"
             width="6.757"
             y="25.860001"
             height="6.75"
             id="rect2610" />
          <rect
             x="17.832001"
             fill="none"
             width="7.4120002"
             y="17.648001"
             height="7.4109998"
             id="rect2612" />
          <path
             fill="#0e3a5a"
             d="m 38.064,33.958 c 0.02,-0.375 -0.003,-0.755 -0.071,-1.138 l 1.309,-0.957 -0.178,-0.464 C 39.046,31.196 38.954,31 38.856,30.804 l -0.228,-0.455 -1.553,0.355 C 36.971,30.571 36.852,30.44 36.729,30.308 36.586,30.156 36.45,30.02 36.295,29.888 l 0.383,-1.558 -0.432,-0.242 c -0.198,-0.11 -0.397,-0.209 -0.604,-0.298 l -0.469,-0.203 -0.952,1.265 c -0.366,-0.083 -0.742,-0.126 -1.119,-0.127 l -0.711,-1.435 -0.48,0.086 c -0.219,0.039 -0.439,0.085 -0.653,0.147 l -0.489,0.143 0.067,1.594 c -0.316,0.164 -0.626,0.373 -0.926,0.626 l -1.477,-0.646 -0.312,0.385 c -0.142,0.176 -0.271,0.357 -0.393,0.544 l -0.276,0.425 1.079,1.163 c -0.148,0.35 -0.255,0.711 -0.318,1.07 l -1.549,0.458 0.005,0.491 c 0.002,0.221 0.016,0.439 0.041,0.658 l 0.059,0.508 1.591,0.197 c 0.111,0.369 0.26,0.717 0.447,1.041 l -0.909,1.35 0.982,1.053 1.376,-0.644 0.146,-0.089 c 0.313,0.203 0.653,0.373 1.018,0.506 l 0.176,1.61 0.488,0.079 c 0.215,0.035 0.43,0.053 0.648,0.065 l 0.509,0.027 0.464,-1.52 c 0.407,-0.049 0.788,-0.141 1.096,-0.266 l 1.179,1.121 0.425,-0.26 c 0.188,-0.114 0.371,-0.244 0.551,-0.381 l 0.406,-0.309 -0.625,-1.438 c 0.252,-0.271 0.472,-0.572 0.667,-0.911 l 1.602,0.098 0.162,-0.465 c 0.074,-0.211 0.139,-0.425 0.19,-0.644 l 0.119,-0.501 z M 29.425,33.74 c 0,-1.988 1.611,-3.601 3.6,-3.601 1.989,0 3.601,1.612 3.601,3.601 0,1.989 -1.612,3.6 -3.601,3.6 -1.989,0 -3.6,-1.612 -3.6,-3.6 z"
             id="path2614" />
          <circle
             fill="#ffffff"
             r="3.5999999"
             cx="33.023998"
             cy="33.740002"
             id="circle2616" />
          <polygon
             fill="#c9e8fb"
             points="32.575,10.309 10.276,10.309 10.276,16.848 17.032,16.848 17.032,16.839 17.832,16.839 17.832,16.848 25.244,16.848 25.244,16.839 26.044,16.839 26.044,16.848 32.575,16.848 "
             id="polygon2618" />
          <path
             fill="#0e3a5a"
             d="m 31.373,25.059 h -5.328 v -7.411 h 6.531 v 6.208 l 1.7,-1.7 V 8.61 h -25.7 v 25.699 h 13.547 l 1.699,-1.699 h -5.99 v -6.75 h 7.412 v 5.328 l 0.8,-0.8 V 25.86 h 4.528 z M 17.032,32.61 h -6.757 v -6.75 h 6.757 z m 0,-7.551 h -6.757 v -7.411 h 6.757 z m 8.212,0 h -7.412 v -7.411 h 7.412 z m 0,-8.22 v 0.009 h -7.412 v -0.009 h -0.8 v 0.009 H 10.275 V 10.31 h 22.3 v 6.538 h -6.531 v -0.009 z"
             id="path2620" />
        </g>
      </g>
      <rect
         x="127"
         y="265"
         fill="none"
         width="33"
         rx="4"
         ry="4"
         height="33"
         id="rect2626" />
      <text
         fill="#000000"
         x="97"
         xml:space="preserve"
         y="315"
         stroke="none"
         id="text2628">static filename, format</text>
      <rect
         x="127"
         y="477"
         fill="#ffffff"
         width="33"
         rx="4"
         ry="4"
         height="33"
         stroke="none"
         id="rect2630" />
      <g
         filename="datagrid.svg"
         transform="matrix(0.762,0,0,0.762,128,478)"
         stroke="none"
         id="g2648">
        <g
           id="g2646">
          <rect
             x="10.276"
             fill="none"
             width="6.757"
             y="17.648001"
             height="7.4109998"
             id="rect2632" />
          <rect
             x="10.276"
             fill="none"
             width="6.757"
             y="25.860001"
             height="6.75"
             id="rect2634" />
          <rect
             x="17.832001"
             fill="none"
             width="7.4120002"
             y="17.648001"
             height="7.4109998"
             id="rect2636" />
          <path
             fill="#0e3a5a"
             d="m 38.064,33.958 c 0.02,-0.375 -0.003,-0.755 -0.071,-1.138 l 1.309,-0.957 -0.178,-0.464 C 39.046,31.196 38.954,31 38.856,30.804 l -0.228,-0.455 -1.553,0.355 C 36.971,30.571 36.852,30.44 36.729,30.308 36.586,30.156 36.45,30.02 36.295,29.888 l 0.383,-1.558 -0.432,-0.242 c -0.198,-0.11 -0.397,-0.209 -0.604,-0.298 l -0.469,-0.203 -0.952,1.265 c -0.366,-0.083 -0.742,-0.126 -1.119,-0.127 l -0.711,-1.435 -0.48,0.086 c -0.219,0.039 -0.439,0.085 -0.653,0.147 l -0.489,0.143 0.067,1.594 c -0.316,0.164 -0.626,0.373 -0.926,0.626 l -1.477,-0.646 -0.312,0.385 c -0.142,0.176 -0.271,0.357 -0.393,0.544 l -0.276,0.425 1.079,1.163 c -0.148,0.35 -0.255,0.711 -0.318,1.07 l -1.549,0.458 0.005,0.491 c 0.002,0.221 0.016,0.439 0.041,0.658 l 0.059,0.508 1.591,0.197 c 0.111,0.369 0.26,0.717 0.447,1.041 l -0.909,1.35 0.982,1.053 1.376,-0.644 0.146,-0.089 c 0.313,0.203 0.653,0.373 1.018,0.506 l 0.176,1.61 0.488,0.079 c 0.215,0.035 0.43,0.053 0.648,0.065 l 0.509,0.027 0.464,-1.52 c 0.407,-0.049 0.788,-0.141 1.096,-0.266 l 1.179,1.121 0.425,-0.26 c 0.188,-0.114 0.371,-0.244 0.551,-0.381 l 0.406,-0.309 -0.625,-1.438 c 0.252,-0.271 0.472,-0.572 0.667,-0.911 l 1.602,0.098 0.162,-0.465 c 0.074,-0.211 0.139,-0.425 0.19,-0.644 l 0.119,-0.501 z M 29.425,33.74 c 0,-1.988 1.611,-3.601 3.6,-3.601 1.989,0 3.601,1.612 3.601,3.601 0,1.989 -1.612,3.6 -3.601,3.6 -1.989,0 -3.6,-1.612 -3.6,-3.6 z"
             id="path2638" />
          <circle
             fill="#ffffff"
             r="3.5999999"
             cx="33.023998"
             cy="33.740002"
             id="circle2640" />
          <polygon
             fill="#c9e8fb"
             points="32.575,10.309 10.276,10.309 10.276,16.848 17.032,16.848 17.032,16.839 17.832,16.839 17.832,16.848 25.244,16.848 25.244,16.839 26.044,16.839 26.044,16.848 32.575,16.848 "
             id="polygon2642" />
          <path
             fill="#0e3a5a"
             d="m 31.373,25.059 h -5.328 v -7.411 h 6.531 v 6.208 l 1.7,-1.7 V 8.61 h -25.7 v 25.699 h 13.547 l 1.699,-1.699 h -5.99 v -6.75 h 7.412 v 5.328 l 0.8,-0.8 V 25.86 h 4.528 z M 17.032,32.61 h -6.757 v -6.75 h 6.757 z m 0,-7.551 h -6.757 v -7.411 h 6.757 z m 8.212,0 h -7.412 v -7.411 h 7.412 z m 0,-8.22 v 0.009 h -7.412 v -0.009 h -0.8 v 0.009 H 10.275 V 10.31 h 22.3 v 6.538 h -6.531 v -0.009 z"
             id="path2644" />
        </g>
      </g>
      <rect
         x="127"
         y="477"
         fill="none"
         width="33"
         rx="4"
         ry="4"
         height="33"
         id="rect2650" />
      <text
         fill="#000000"
         x="115"
         xml:space="preserve"
         y="527"
         stroke="none"
         id="text2652">zips per state</text>
    </g>
  </g>
</svg>
