<svg version="1.1" xmlns="http://www.w3.org/2000/svg" xmlns:xlink="http://www.w3.org/1999/xlink" x="0px" y="0px"
	 width="250px" height="250px" viewBox="0 0 250 250" enable-background="new 0 0 250 250" xml:space="preserve">
<g>
	<linearGradient id="SVGID_2_" gradientUnits="userSpaceOnUse" x1="72.2744" y1="228.6309" x2="72.2744" y2="23.0698">
		<stop  offset="0" style="stop-color:#E4272C"/>
		<stop  offset="1" style="stop-color:#F8DC1A"/>
	</linearGradient>
	<path fill-rule="evenodd" clip-rule="evenodd" fill="url(#SVGID_2_)" d="M68.137,188.815c2.013,15.971,10.692,28.006,23.979,39.815
		l-4.787-2.415c-37.757-16.239-64.151-53.773-64.151-97.436c0-55.472,42.813-101.596,98.195-105.711
		C65.989,27.184,23.177,73.308,23.177,128.78c0-55.472,42.813-101.596,98.195-105.711C57.937,35.595-2.86,108.872,68.137,188.815z"
		/>
	<linearGradient id="SVGID_3_" gradientUnits="userSpaceOnUse" x1="152.8887" y1="235.4912" x2="152.8887" y2="23.1289">
		<stop  offset="0" style="stop-color:#E4272C"/>
		<stop  offset="1" style="stop-color:#F8DC1A"/>
	</linearGradient>
	<path fill-rule="evenodd" clip-rule="evenodd" fill="url(#SVGID_3_)" d="M212.947,95.005
		c-4.786-34.313-31.136-58.336-79.138-72.115l0,0c56.636,2.505,101.327,49.209,101.327,105.89
		c0,58.56-44.11,103.833-101.417,106.427c-5.413,0.269-10.826-0.671-16.105-2.326V113.436c1.745-2.639,1.745-5.278,0-7.918V80.107
		h5.86c-2.281-1.521-4.205-2.684-5.86-3.399v-7.337c30.734,11.721,45.005,13.063,42.857,3.893c2.685,7.56,0.359,11.005-6.979,10.245
		c-8.455-1.297-13.689-0.716-15.747,1.789c15.166,7.516,23.263,14.807,24.291,21.876c1.432,11.899-4.205,25.008-16.909,39.367
		c-8.008,9.978-3.848,20.579,9.081,22.278C194.338,166.851,213.932,142.2,212.947,95.005L212.947,95.005z M117.614,232.881
		c-12.258-3.803-23.262-11.452-28.63-16.775l0,0c-9.484-9.843-15.926-25.589-18.297-48.315c0-0.134-0.045-0.269-0.045-0.402v-7.695
		c1.477-18.252,13.644-31.092,36.595-38.473c5.189-2.549,8.679-5.145,10.378-7.784V232.881L117.614,232.881z M117.614,105.518
		c-0.716-1.164-1.834-2.326-3.22-3.534l0,0c-1.254-1.253-3.938-2.506-8.009-3.713c-9.305-0.269-14.36,2.058-15.166,7.023l0,0
		c-15.792-7.023-16.239-15.031-1.386-23.979c2.908-1.119,7.158-1.521,12.794-1.298c-2.326-10.289,1.611-14.27,11.855-11.855
		c1.073,0.403,2.103,0.806,3.131,1.208v7.337c-4.697-2.192-6.531-1.074-5.547,3.399h5.547V105.518z"/>
</g>
</svg>
