<?xml version="1.0" encoding="UTF-8" standalone="no"?>
<!-- Generator: Adobe Illustrator 17.0.0, SVG Export Plug-In . SVG Version: 6.00 Build 0)  -->

<svg
   xmlns:dc="http://purl.org/dc/elements/1.1/"
   xmlns:cc="http://creativecommons.org/ns#"
   xmlns:rdf="http://www.w3.org/1999/02/22-rdf-syntax-ns#"
   xmlns:svg="http://www.w3.org/2000/svg"
   xmlns="http://www.w3.org/2000/svg"
   xmlns:sodipodi="http://sodipodi.sourceforge.net/DTD/sodipodi-0.dtd"
   xmlns:inkscape="http://www.inkscape.org/namespaces/inkscape"
   version="1.1"
   id="Layer_1"
   x="0px"
   y="0px"
   width="42px"
   height="42px"
   viewBox="0 0 42 42"
   enable-background="new 0 0 42 42"
   xml:space="preserve"
   inkscape:version="0.91 r13725"
   sodipodi:docname="as400command.svg"><metadata
     id="metadata45"><rdf:RDF><cc:Work
         rdf:about=""><dc:format>image/svg+xml</dc:format><dc:type
           rdf:resource="http://purl.org/dc/dcmitype/StillImage" /><dc:title></dc:title></cc:Work></rdf:RDF></metadata><defs
     id="defs43" /><sodipodi:namedview
     pagecolor="#ffffff"
     bordercolor="#666666"
     borderopacity="1"
     objecttolerance="10"
     gridtolerance="10"
     guidetolerance="10"
     inkscape:pageopacity="0"
     inkscape:pageshadow="2"
     inkscape:window-width="1378"
     inkscape:window-height="791"
     id="namedview41"
     showgrid="false"
     inkscape:zoom="5.6190476"
     inkscape:cx="12.457627"
     inkscape:cy="21"
     inkscape:window-x="0"
     inkscape:window-y="0"
     inkscape:window-maximized="0"
     inkscape:current-layer="Layer_1" /><path
     style="fill:#eff9fe"
     inkscape:connector-curvature="0"
     id="path15"
     d="m 26.821,27.035 9.18,0 0,-21.149 -9.18,0 0,21.149 z m 7.739,-1.53 -1.703,0 0,-1 1.703,0 0,1 z m -6.297,-16.736 6.297,0 0,0.7 -6.297,0 0,-0.7 z m 0,3.261 6.297,0 0,0.7 -6.297,0 0,-0.7 z m 0,3.262 6.297,0 0,0.7 -6.297,0 0,-0.7 z" /><path
     style="fill:#3d6480"
     inkscape:connector-curvature="0"
     id="path17"
     d="m 25.121,4.186 0,12.148 -1.259,0 0,1.7 1.259,0 0,10.701 12.58,0 0,-24.549 -12.58,0 z m 10.88,22.849 -9.18,0 0,-21.149 9.18,0 0,21.149 z" /><rect
     style="fill:#3d6480"
     id="rect33"
     height="0.69999999"
     width="6.2969999"
     y="8.7690001"
     x="28.263" /><rect
     style="fill:#3d6480"
     id="rect35"
     height="0.69999999"
     width="6.2969999"
     y="12.03"
     x="28.263" /><rect
     style="fill:#3d6480"
     id="rect37"
     height="0.69999999"
     width="6.2969999"
     y="15.292"
     x="28.263" /><rect
     style="fill:#3d6480"
     id="rect39"
     height="1"
     width="1.7029999"
     y="24.504999"
     x="32.856998" /><polygon
     transform="translate(4.4157712,-9.3817542)"
     style="fill:#3d6480"
     id="polygon9-6"
     points="15.823,22.902 18.785,25.865 9.198,25.865 9.198,27.064 18.841,27.064 15.827,30.024 16.668,30.879 21.123,26.505 16.671,22.054 "
     inkscape:transform-center-x="2.6694915"
     inkscape:transform-center-y="8.720339" /><text
     xml:space="preserve"
     style="font-style:normal;font-weight:normal;font-size:8.90772343px;line-height:125%;font-family:sans-serif;letter-spacing:0px;word-spacing:0px;fill:#3d6480;fill-opacity:1;stroke:none;stroke-width:1px;stroke-linecap:butt;stroke-linejoin:miter;stroke-opacity:1"
     x="10.030137"
     y="42.958237"
     id="text4230"
     sodipodi:linespacing="125%"
     transform="scale(1.122718,0.89069561)"><tspan
       sodipodi:role="line"
       id="tspan4232"
       x="10.030137"
       y="42.958237">IBM</tspan></text>
<path
     inkscape:connector-curvature="0"
     style="fill:#3d6480"
     d="m 12.465576,17.506712 c 0.02,-0.375 -0.003,-0.755 -0.071,-1.138 l 1.308,-0.956 -0.177,-0.464 c -0.078,-0.205 -0.171,-0.4 -0.268,-0.596 l -0.228,-0.455 -1.553,0.355 c -0.104,-0.132 -0.224,-0.264 -0.347,-0.396 -0.142,-0.152 -0.278,-0.288 -0.433,-0.421 l 0.383,-1.557 -0.432,-0.242 c -0.198,-0.11 -0.397,-0.209 -0.604,-0.298 l -0.4690001,-0.203 -0.952,1.265 c -0.364,-0.084 -0.7399996,-0.126 -1.1189996,-0.127 l -0.711,-1.435 -0.48,0.086 c -0.22,0.039 -0.441,0.085 -0.656,0.148 l -0.486,0.144 0.067,1.591 c -0.317,0.164 -0.627,0.374 -0.926,0.627 l -1.475,-0.646 -0.312,0.384 c -0.142,0.175 -0.271,0.356 -0.393,0.542 l -0.278,0.426 1.08,1.165 c -0.148,0.351 -0.256,0.712 -0.318,1.07 l -1.549,0.458 0.005,0.491 c 0.002,0.22 0.016,0.439 0.041,0.658 l 0.059,0.508 1.591,0.197 c 0.111,0.37 0.261,0.718 0.447,1.04 l -0.909,1.351 0.982,1.054 1.464,-0.695 0.058,-0.039 c 0.313,0.204 0.652,0.373 1.018,0.506 l 0.176,1.613 0.491,0.078 c 0.214,0.033 0.428,0.052 0.646,0.064 l 0.509,0.027 0.4639996,-1.52 c 0.404,-0.049 0.785,-0.14 1.096,-0.266 l 1.1790001,1.121 0.425,-0.26 c 0.188,-0.114 0.37,-0.244 0.549,-0.379 l 0.409,-0.309 -0.625,-1.44 c 0.253,-0.272 0.473,-0.572 0.667,-0.911 l 1.602,0.1 0.162,-0.466 c 0.074,-0.211 0.138,-0.426 0.19,-0.643 l 0.12,-0.502 -1.417,-0.705 z m -8.6399997,-0.219 c 0,-1.988 1.611,-3.6 3.6,-3.6 1.9889996,0 3.6009997,1.611 3.6009997,3.6 0,1.989 -1.6120001,3.601 -3.6009997,3.601 -1.989,0 -3.6,-1.613 -3.6,-3.601 z"
     id="path5" /></svg>