<?xml version="1.0" encoding="utf-8"?>
<svg version="1.1" xmlns="http://www.w3.org/2000/svg" x="0px" y="0px" width="42px" height="42px" viewBox="0 0 42 42" enable-background="new 0 0 42 42" xml:space="preserve">
<g>
	<rect x="10.306" y="17.822" fill="none" width="6.757" height="7.413"/>
	<rect x="17.863" y="26.034" fill="none" width="7.413" height="6.75"/>
	<rect x="26.075" y="17.822" fill="none" width="6.53" height="7.413"/>
	<rect x="17.863" y="17.822" fill="none" width="7.413" height="7.413"/>
	<rect x="10.306" y="26.034" fill="none" width="6.757" height="6.75"/>
	<path fill="none" d="M26.075,26.034v6.75h6.53v-6.75H26.075z M32.262,31.573l-0.707,0.706l-1.965-1.963l-1.964,1.963l-0.707-0.706
		l1.964-1.964l-1.964-1.965l0.707-0.707l1.964,1.965l1.965-1.965l0.707,0.707l-1.965,1.965L32.262,31.573z"/>
	<polygon fill="#EFF9FE" points="10.306,17.023 17.063,17.023 17.063,17.013 17.863,17.013 17.863,17.023 25.275,17.023 
		25.275,17.013 26.075,17.013 26.075,17.023 32.605,17.023 32.605,10.485 10.306,10.485 	"/>
	<path fill="#0E3A5A" d="M8.606,8.784v25.7h25.701v-25.7H8.606z M17.863,25.234v-7.411h7.413v7.411H17.863z M25.275,26.034v6.75
		h-7.413v-6.75H25.275z M32.605,17.023h-6.53v-0.009h-0.8v0.009h-7.413v-0.009h-0.8v0.009h-6.757v-6.538h22.299V17.023z
		 M10.306,17.822h6.757v7.413h-6.757V17.822z M26.075,17.822h6.53v7.413h-6.53V17.822z M10.306,26.034h6.757v6.75h-6.757V26.034z
		 M26.075,32.784v-6.75h6.53v6.75H26.075z"/>
	<polygon fill="#EC0800" points="31.555,26.938 29.59,28.902 27.626,26.938 26.919,27.645 28.883,29.609 26.919,31.573 
		27.626,32.279 29.59,30.316 31.555,32.279 32.262,31.573 30.297,29.609 32.262,27.645 	"/>
</g>
</svg>
