<?xml version="1.0" encoding="utf-8"?>
<svg xmlns="http://www.w3.org/2000/svg"  width="1024px" height="1024px" viewBox="0 0 1024 1024">
    <path fill="#0E3A5A" d="M870.4,373.459l-284.16,154.24C560,541.779,544,569.938,544,601.299v298.24c0,32,31.359,53.12,57.6,38.399
	l284.16-154.239c25.6-14.08,42.24-42.24,42.24-73.601v-297.6C928,379.859,896.64,359.379,870.4,373.459z M437.76,527.059
	l-284.16-153.6c-26.24-14.08-57.6,6.4-57.6,38.4v299.52c0,31.36,16,59.52,42.24,73.6L422.4,938.579
	c26.24,14.08,57.601-7.04,57.601-39.04v-298.88C480,569.299,464,541.139,437.76,527.059z M844.159,303.699
	c13.44-7.04,19.841-19.2,18.561-30.72c1.28-12.16-5.12-23.68-18.561-30.72L554.88,91.219c-12.801-7.04-28.16-10.24-43.521-10.24
	c-15.359,0-30.72,3.2-43.52,10.24l-289.28,150.4c-13.439,7.04-19.2,19.2-18.56,30.72c-0.641,12.16,5.12,24.32,18.56,31.36
	l289.28,150.4c12.8,7.04,28.16,10.24,43.52,10.24c15.36,0,30.72-3.2,43.521-10.24L844.159,303.699z"/>
</svg>
