<svg xmlns="http://www.w3.org/2000/svg" width="64" height="64" viewBox="0 0 32 35">
    <path d="M16 2C8.28 2 2 8.09 2 15c0 3.96 2.06 7.56 5.42 9.66L5 33l7.92-4.5c.84.23 1.72.36 2.58.36 7.72 0 14-6.09 14-13S23.72 2 16 2z" fill="#5CC0C4"/>
    <circle cx="10" cy="10" r="1" fill="#0E3A5A"/>
    <circle cx="10" cy="16" r="1" fill="#0E3A5A"/>
    <circle cx="10" cy="22" r="1" fill="#0E3A5A"/>
    <circle cx="16" cy="10" r="1" fill="#0E3A5A"/>
    <circle cx="16" cy="16" r="1" fill="#0E3A5A"/>
    <circle cx="16" cy="22" r="1" fill="#0E3A5A"/>
    <circle cx="22" cy="10" r="1" fill="#0E3A5A"/>
    <circle cx="22" cy="16" r="1" fill="#0E3A5A"/>
    <circle cx="22" cy="22" r="1" fill="#0E3A5A"/>
    <line x1="10" y1="10" x2="16" y2="10" stroke="#0E3A5A" stroke-width="0.4"/>
    <line x1="10" y1="10" x2="16" y2="16" stroke="#0E3A5A" stroke-width="0.4"/>
    <line x1="10" y1="16" x2="16" y2="10" stroke="#0E3A5A" stroke-width="0.4"/>
    <line x1="10" y1="16" x2="16" y2="16" stroke="#0E3A5A" stroke-width="0.4"/>
    <line x1="10" y1="16" x2="16" y2="22" stroke="#0E3A5A" stroke-width="0.4"/>
    <line x1="10" y1="22" x2="16" y2="16" stroke="#0E3A5A" stroke-width="0.4"/>
    <line x1="10" y1="22" x2="16" y2="22" stroke="#0E3A5A" stroke-width="0.4"/>
    <line x1="16" y1="10" x2="22" y2="10" stroke="#0E3A5A" stroke-width="0.4"/>
    <line x1="16" y1="10" x2="22" y2="16" stroke="#0E3A5A" stroke-width="0.4"/>
    <line x1="16" y1="16" x2="22" y2="10" stroke="#0E3A5A" stroke-width="0.4"/>
    <line x1="16" y1="16" x2="22" y2="16" stroke="#0E3A5A" stroke-width="0.4"/>
    <line x1="16" y1="16" x2="22" y2="22" stroke="#0E3A5A" stroke-width="0.4"/>
    <line x1="16" y1="22" x2="22" y2="16" stroke="#0E3A5A" stroke-width="0.4"/>
    <line x1="16" y1="22" x2="22" y2="22" stroke="#0E3A5A" stroke-width="0.4"/>
</svg>
