<?xml version="1.0" encoding="UTF-8" standalone="no"?>
<svg
        xmlns="http://www.w3.org/2000/svg"
        id="svg34"
        version="1.1"
        xml:space="preserve"
        width="533.33331"
        height="533.33331"
        viewBox="0 0 533.33331 533.33331"><metadata
 />
    <path
            style="stroke-width:8.87061787"
            id="path2"
            d="m 343.42821,50.600292 c -93.85114,0 -156.83253,54.643008 -156.83253,160.646888 v 75.57767 a 70.964944,70.964944 0 0 1 30.60363,-7.27391 69.989176,69.989176 0 0 1 30.69234,7.0965 v -75.75508 c 0,-68.74729 37.96624,-104.05235 95.80267,-104.05235 57.83643,0 95.27044,35.30506 95.27044,104.05235 v 165.1709 h 61.11856 V 210.89236 C 500.26073,104.26753 437.27934,50.600292 343.42821,50.600292 Z"/>
    <path
            id="path14"
            d="m 214.53813,298.97759 a 51.804409,51.804409 0 0 0 -31.40199,10.64475 L 125.65453,270.3255 a 53.223708,53.223708 0 0 0 1.95154,-14.10428 52.24794,52.24794 0 1 0 -52.336646,51.62699 51.53829,51.53829 0 0 0 31.401986,-10.64474 l 57.30419,39.56296 a 52.24794,52.24794 0 0 0 0,28.29727 l -57.4816,39.29684 a 51.53829,51.53829 0 0 0 -31.224576,-10.64475 52.336646,52.336646 0 1 0 52.247936,52.24794 53.223708,53.223708 0 0 0 -1.86283,-13.92687 l 57.48161,-39.29683 a 51.804409,51.804409 0 0 0 31.40199,10.64474 52.336646,52.336646 0 0 0 0,-104.40718 z"
            style="fill:#018bff;stroke-width:8.87061787"/>
</svg>