<?xml version="1.0" encoding="UTF-8" standalone="no"?>
<svg
        xmlns="http://www.w3.org/2000/svg"
        version="1.1"
        viewBox="0 0 24 24"
        height="24"
        width="24">
    <path
            style="color:#000000;font-style:normal;font-variant:normal;font-weight:normal;font-stretch:normal;font-size:medium;line-height:normal;font-family:sans-serif;text-indent:0;text-align:start;text-decoration:none;text-decoration-line:none;text-decoration-style:solid;text-decoration-color:#000000;letter-spacing:normal;word-spacing:normal;text-transform:none;writing-mode:lr-tb;direction:ltr;baseline-shift:baseline;text-anchor:start;white-space:normal;clip-rule:nonzero;display:inline;overflow:visible;visibility:visible;opacity:1;isolation:auto;mix-blend-mode:normal;color-interpolation:sRGB;color-interpolation-filters:linearRGB;solid-color:#000000;solid-opacity:1;fill:#53c3c4;fill-opacity:1;fill-rule:evenodd;stroke:none;stroke-width:2.36303;stroke-linecap:round;stroke-linejoin:miter;stroke-miterlimit:4;stroke-dasharray:none;stroke-dashoffset:0;stroke-opacity:1;color-rendering:auto;image-rendering:auto;shape-rendering:auto;text-rendering:auto;enable-background:accumulate"
            d="m 16.180733,4.4778047 c -0.225712,-9.036e-4 -0.447587,0.00881 -0.664725,0.028102 C 13.778895,4.6602 12.310021,5.3650171 11.351491,5.8248197 10.345127,6.307569 9.0772298,7.0667616 7.7423285,7.3987385 6.4074274,7.7307155 5.1288775,7.6809549 3.8672819,6.5842574 A 1.0898647,1.2811267 0 1 0 2.5712276,8.644132 C 4.4094203,10.242054 6.4885583,10.329324 8.1935554,9.9053072 9.8985627,9.4812892 11.35277,8.5914861 12.17503,8.1970524 13.119637,7.7439286 14.355443,7.1782597 15.680225,7.0605906 17.005,6.9429206 18.384236,7.2200873 19.831155,8.5577185 A 1.0898647,1.2811267 0 1 0 21.178446,6.5440337 C 19.528655,5.0188481 17.760694,4.4842661 16.180733,4.4778067 Z m 0,5.1239955 c -0.225712,-8.8e-4 -0.447587,0.0088 -0.664725,0.0281 -1.737113,0.154294 -3.205987,0.8591118 -4.164517,1.3189138 -1.006364,0.482749 -2.2742612,1.241941 -3.6091625,1.573918 -1.3349011,0.331976 -2.613451,0.282218 -3.8750466,-0.81448 a 1.0898647,1.2811267 0 1 0 -1.2960543,2.059877 c 1.8381927,1.597922 3.9173307,1.685194 5.6223278,1.261176 1.7050073,-0.424019 3.1592146,-1.313823 3.9814746,-1.708255 0.944607,-0.453126 2.180413,-1.018793 3.505195,-1.136462 1.324775,-0.117671 2.704011,0.159496 4.15093,1.497128 a 1.0898647,1.2811267 0 1 0 1.347291,-2.013685 C 19.528655,10.142845 17.760694,9.6082632 16.180733,9.6018042 Z m 0,5.1239928 c -0.225712,-8.95e-4 -0.447587,0.0088 -0.664725,0.0281 -1.737113,0.154293 -3.205987,0.85911 -4.164517,1.318912 -1.006364,0.48275 -2.2742612,1.241942 -3.6091625,1.573919 -1.3349011,0.331978 -2.613451,0.282218 -3.8750466,-0.814481 a 1.0898647,1.2811267 0 1 0 -1.2960543,2.059876 c 1.8381927,1.597923 3.9173307,1.685195 5.6223278,1.261175 1.7050073,-0.424017 3.1592146,-1.31382 3.9814746,-1.708255 0.944607,-0.453124 2.180413,-1.018792 3.505195,-1.136462 1.324775,-0.117671 2.704011,0.159498 4.15093,1.497129 a 1.0898647,1.2811267 0 1 0 1.347291,-2.013685 c -1.649791,-1.525185 -3.417752,-2.059767 -4.997713,-2.066226 z"
    />
</svg>
