<?xml version="1.0" encoding="utf-8"?>
<!-- Generator: Adobe Illustrator 14.0.0, SVG Export Plug-In . SVG Version: 6.00 Build 43363)  -->
<!DOCTYPE svg PUBLIC "-//W3C//DTD SVG 1.1//EN" "http://www.w3.org/Graphics/SVG/1.1/DTD/svg11.dtd">
<svg version="1.1" id="Layer_1" xmlns="http://www.w3.org/2000/svg" x="0px" y="0px"
     width="32px" height="32px" viewBox="0 0 32 32" enable-background="new 0 0 32 32" xml:space="preserve">
<path id="path5_1_" fill="#3D6480" d="M13.4,1.256c-6.526,0-11.836,5.636-11.836,12.564S6.874,26.383,13.4,26.383
	c0.403,0,0.729-0.348,0.729-0.773c0-0.428-0.326-0.774-0.729-0.774c-5.723,0-10.377-4.94-10.377-11.014S7.678,2.806,13.4,2.806
	s10.377,4.941,10.377,11.015c0,2.538-1.273,5.055-3.094,6.121c-0.662,0.385-1.381,0.578-2.146,0.584
	c0.459-0.289,0.856-0.683,1.151-1.177c0.06-0.094,0.135-0.174,0.172-0.276c0.238-0.606,0.261-1.295,0.402-1.937
	c0.178-0.819-3.375-2.417-3.684-1.396c-0.111,0.38-0.283,1.576-0.508,1.891c-0.199,0.279-0.69,0.148-0.998-0.129
	c-0.809-0.732-1.713-1.81-2.506-2.659l0.002-0.001c-0.021-0.022-0.045-0.048-0.066-0.07c-0.021-0.023-0.045-0.048-0.066-0.071l0,0
	c-0.803-0.841-1.816-1.799-2.506-2.66c-0.261-0.326-0.387-0.846-0.121-1.059c0.297-0.238,1.424-0.417,1.78-0.537
	c0.961-0.327-0.543-4.1-1.315-3.911c-0.604,0.15-1.252,0.173-1.824,0.425c-0.096,0.043-0.172,0.123-0.26,0.185
	c-2.028,1.365-2.289,4.679-0.31,7.148c0.754,0.944,1.542,1.858,2.353,2.75l-0.004,0.004c0.021,0.022,0.045,0.046,0.068,0.067
	c0.021,0.024,0.043,0.05,0.064,0.074l0.004-0.006c0.84,0.861,1.837,2.127,3.455,3.273c3.41,2.416,6.025,1.742,7.565,0.845
	c2.659-1.554,3.851-4.875,3.851-7.476C25.238,6.892,19.928,1.256,13.4,1.256z"/>
<path id="path4164-2_1_" fill="#FF9C04" stroke="#FF9C04" stroke-width="0.2227" stroke-linecap="round" stroke-linejoin="round" d="
	M24.67,28.57c-0.311-1.068-0.58-1.953-0.602-1.965c-0.02-0.014-0.381-0.092-0.801-0.176c-0.422-0.084-1.414-0.289-2.204-0.453
	l-1.438-0.303l2.237-0.477l2.237-0.479l0.05-0.142c0.026-0.078,0.221-0.75,0.43-1.493c0.41-1.452,0.621-2.093,0.677-2.041
	c0.02,0.019,0.258,0.846,0.53,1.84s0.501,1.813,0.509,1.82c0.012,0.016,1.834,0.409,3.396,0.735c0.598,0.125,1.08,0.231,1.073,0.236
	c-0.008,0.005-1.018,0.219-2.244,0.475l-2.231,0.467l-0.526,1.949l-0.526,1.951L24.67,28.57z"/>
<path id="path4840_1_" fill="#FF9C04" stroke="#FF9C04" stroke-width="0.1134" stroke-linecap="round" stroke-linejoin="round" d="
	M16.904,31.152c-0.031-0.086-0.156-0.496-0.277-0.912c-0.339-1.17-0.346-1.178-1.209-1.461c-0.416-0.137-1.06-0.313-1.428-0.396
	c-0.367-0.08-0.63-0.175-0.583-0.209s0.636-0.183,1.31-0.329c0.672-0.146,1.275-0.292,1.34-0.324
	c0.066-0.033,0.295-0.588,0.509-1.235s0.403-1.188,0.421-1.201s0.207,0.497,0.422,1.135s0.459,1.2,0.541,1.249
	c0.084,0.051,0.691,0.217,1.352,0.367c1.27,0.293,1.502,0.383,1.185,0.455c-2.562,0.574-2.577,0.586-3.056,1.934
	c-0.194,0.545-0.379,1.014-0.409,1.037C16.987,31.286,16.937,31.236,16.904,31.152z"/>
<path id="path4842_1_" fill="#FF9C04" stroke="#FF9C04" stroke-width="0.0351" stroke-linecap="round" stroke-linejoin="round" d="
	M28.195,21.343c-0.012-0.016-0.093-0.296-0.18-0.622c-0.086-0.326-0.18-0.621-0.207-0.656c-0.08-0.104-0.537-0.271-1.323-0.483
	c-0.146-0.04-0.254-0.081-0.239-0.091c0.014-0.012,0.291-0.086,0.617-0.168c0.325-0.082,0.664-0.172,0.752-0.199l0.16-0.049
	l0.135-0.469c0.236-0.818,0.307-1.023,0.33-0.986c0.012,0.02,0.111,0.346,0.221,0.725c0.11,0.379,0.217,0.701,0.24,0.717
	c0.021,0.017,0.361,0.115,0.754,0.224c0.393,0.106,0.715,0.204,0.717,0.221c0.002,0.015-0.258,0.099-0.576,0.188
	c-0.317,0.088-0.639,0.192-0.711,0.233c-0.189,0.104-0.272,0.265-0.439,0.849C28.303,21.263,28.24,21.404,28.195,21.343z"/>
</svg>
