<?xml version="1.0" encoding="utf-8"?>
<svg version="1.1" xmlns="http://www.w3.org/2000/svg" x="0px" y="0px" width="42px" height="42px" viewBox="0 0 42 42" enable-background="new 0 0 42 42" xml:space="preserve">
<rect x="17.675" y="17.864" fill="none" width="7.412" height="7.409"/>
<rect x="10.118" y="17.864" fill="none" width="6.757" height="7.409"/>
<rect x="10.118" y="26.075" fill="none" width="6.757" height="6.75"/>
<polygon fill="#0E3A5A" points="26.221,32.415 26.673,33.23 27.789,32.605 27.789,37.586 28.792,37.586 28.792,31.413 
	27.956,31.413 "/>
<path fill="#0E3A5A" d="M33.171,35.282c0.927-1.103,1.076-1.441,1.076-2.209v-0.201c0-1.017-0.442-1.552-1.91-1.552
	c-0.547,0-1.164,0.111-1.569,0.234l-0.097,0.029l0.147,0.891l0.125-0.037c0.341-0.098,0.91-0.196,1.328-0.196
	c0.899,0,0.972,0.151,0.972,0.639v0.269c0,0.387-0.037,0.598-0.976,1.711c-0.727,0.854-0.9,1.057-1.609,1.861v0.866h3.645v-0.91
	h-2.316C32.439,36.163,32.575,35.993,33.171,35.282z"/>
<path fill="#0E3A5A" d="M38.625,34.45c0.434-0.285,0.54-0.65,0.54-1.164v-0.543c0-0.943-0.526-1.423-1.862-1.423
	c-0.488,0-1.031,0.074-1.427,0.169l-0.101,0.022l0.111,0.879l0.121-0.022c0.416-0.082,0.867-0.138,1.274-0.138
	c0.708,0,0.879,0.164,0.879,0.621v0.533c0,0.416-0.144,0.65-0.806,0.65h-1.273v0.91h1.375c0.561,0,0.814,0.174,0.814,0.686v0.459
	c0,0.488-0.215,0.678-1.063,0.678c-0.442,0-0.886-0.045-1.317-0.145l-0.123-0.029l-0.111,0.865l0.09,0.029
	c0.404,0.135,1.016,0.188,1.463,0.188c1.407,0,2.064-0.463,2.064-1.514v-0.599C39.275,34.959,39.029,34.633,38.625,34.45z"/>
<polygon fill="#EFF9FE" points="25.887,17.063 32.418,17.063 32.418,10.524 10.118,10.524 10.118,17.063 16.875,17.063 
	16.875,17.053 17.675,17.053 17.675,17.063 25.087,17.063 25.087,17.053 25.887,17.053 "/>
<path fill="#0E3A5A" d="M25.887,25.273v-7.409h6.531v6.053l1.7-1.7V8.825h-25.7v25.698h13.393l1.699-1.698h-5.835v-6.75h7.412v5.173
	l0.8-0.8v-4.374h4.375l0.801-0.801H25.887L25.887,25.273z M16.875,32.825h-6.757v-6.75h6.757V32.825z M16.875,25.273h-6.757v-7.409
	h6.757V25.273z M25.087,25.273h-7.412v-7.409h7.412V25.273z M25.087,17.053v0.01h-7.412v-0.01h-0.8v0.01h-6.757v-6.539h22.3v6.539
	h-6.531v-0.01H25.087z"/>
</svg>
