<?xml version="1.0" encoding="UTF-8" standalone="no"?>
<!--
  - Licensed to the Apache Software Foundation (ASF) under one or more
  - contributor license agreements.  See the NOTICE file distributed with
  - this work for additional information regarding copyright ownership.
  - The ASF licenses this file to You under the Apache License, Version 2.0
  - (the "License"); you may not use this file except in compliance with
  - the License.  You may obtain a copy of the License at
  -
  -       http://www.apache.org/licenses/LICENSE-2.0
  -
  - Unless required by applicable law or agreed to in writing, software
  - distributed under the License is distributed on an "AS IS" BASIS,
  - WITHOUT WARRANTIES OR CONDITIONS OF ANY KIND, either express or implied.
  - See the License for the specific language governing permissions and
  - limitations under the License.
  -->

<svg
    xmlns="http://www.w3.org/2000/svg"
    version="1.1"
    viewBox="0 0 128 128"
    xml:space="preserve"
    width="128"
    height="128">
  <title>Apache  Tika logo</title>
  <defs>
    <linearGradient
        id="cvfu"
        x1="-6874"
        x2="-6636"
        y1="2774"
        y2="2497"
        gradientTransform="matrix(0.023218,-0.0484389,-0.0496964,-0.0226305,358.68439,-259.30221)"
        gradientUnits="userSpaceOnUse"><stop
         style="stop-color:#f59723"
         offset="0"/>
      <stop style="stop-color:#f69822" offset=".312"/>
      <stop style="stop-color:#e87726" offset=".838"/>
      <stop style="stop-color:#e87726" offset="1"/>
    </linearGradient>
    <clipPath
        id="cvfp"><path
         d="M 0,0 H 272 V 97 H 0 Z"/></clipPath>
    <clipPath
        id="cvfq"><path
         d="M 0,0 H 272 V 97 H 0 Z"/></clipPath>
    <linearGradient
        id="cvfv"
        x1="-8631"
        x2="-6937"
        y1="2805"
        y2="2805"
        gradientTransform="matrix(0.023218,-0.0484389,-0.0496964,-0.0226305,358.68439,-259.30221)"
        gradientUnits="userSpaceOnUse"><stop
         style="stop-color:#9c2063"
         offset="0"/>
      <stop
          style="stop-color:#9c2063"
          offset=".323"/>
      <stop
          style="stop-color:#c82037"
          offset=".63"/>
      <stop
          style="stop-color:#cc2135"
          offset=".751"/>
      <stop
          style="stop-color:#e87726"
          offset="1"/></linearGradient>
    <linearGradient
        id="cvfw"
        x1="-8426"
        x2="-7417"
        y1="2635"
        y2="2635"
        gradientTransform="matrix(0.023218,-0.0484389,-0.0496964,-0.0226305,358.68439,-259.30221)"
        gradientUnits="userSpaceOnUse"><stop
         style="stop-color:#282661"
         offset="0"/>
      <stop style="stop-color:#662e8c" offset=".0955"/>
      <stop style="stop-color:#9e2064" offset=".788"/>
      <stop style="stop-color:#cc2032" offset=".949"/>
      <stop style="stop-color:#cc2032" offset="1"/></linearGradient>
    <linearGradient
        id="cvfx"
        x1="-8536"
        x2="-6842"
        y1="2821"
        y2="2821"
        gradientTransform="matrix(0.023218,-0.0484389,-0.0496964,-0.0226305,358.68439,-259.30221)"
        gradientUnits="userSpaceOnUse">
      <stop style="stop-color:#9c2063" offset="0"/>
      <stop style="stop-color:#9c2063" offset=".323"/>
      <stop style="stop-color:#c82037" offset=".63"/>
      <stop style="stop-color:#cc2135" offset=".751"/>
      <stop style="stop-color:#e87726" offset="1"/>
    </linearGradient>
    <linearGradient
        id="cvfy"
        x1="-8412"
        x2="-7522"
        y1="2798"
        y2="2798"
        gradientTransform="matrix(0.023218,-0.0484389,-0.0496964,-0.0226305,358.68439,-259.30221)"
        gradientUnits="userSpaceOnUse">
      <stop style="stop-color:#282661" offset="0"/>
      <stop style="stop-color:#662e8c" offset=".0955"/>
      <stop style="stop-color:#9e2064" offset=".788"/>
      <stop style="stop-color:#cc2032" offset=".949"/>
      <stop style="stop-color:#cc2032" offset="1"/>
    </linearGradient>
    <linearGradient
        id="cvfz"
        x1="-8536"
        x2="-6842"
        y1="2645"
        y2="2645"
        gradientTransform="matrix(0.023218,-0.0484389,-0.0496964,-0.0226305,358.68439,-259.30221)"
        gradientUnits="userSpaceOnUse">
      <stop style="stop-color:#9c2063" offset="0"/>
      <stop style="stop-color:#9c2063" offset=".323"/>
      <stop style="stop-color:#c82037" offset=".63"/>
      <stop style="stop-color:#cc2135" offset=".751"/>
      <stop style="stop-color:#e87726" offset="1"/>
    </linearGradient>
    <linearGradient
        id="cvfaa"
        x1="-8641"
        x2="-6947"
        y1="2654"
        y2="2654"
        gradientTransform="matrix(0.023218,-0.0484389,-0.0496964,-0.0226305,358.68439,-259.30221)"
        gradientUnits="userSpaceOnUse">
      <stop style="stop-color:#9c2063" offset="0"/>
      <stop style="stop-color:#9c2063" offset=".323"/>
      <stop style="stop-color:#c82037" offset=".63"/>
      <stop style="stop-color:#cc2135" offset=".751"/>
      <stop style="stop-color:#e87726" offset="1"/>
    </linearGradient>
    <clipPath
        id="cvfr"><path
         d="M 0,0 H 272 V 97 H 0 Z"/></clipPath>
    <linearGradient
        id="cvfab"
        x1="-8536"
        x2="-6842"
        y1="2593"
        y2="2593"
        gradientTransform="matrix(0.023218,-0.0484389,-0.0496964,-0.0226305,361.262,-259.096)"
        gradientUnits="userSpaceOnUse">
      <stop style="stop-color:#9c2063" offset="0"/>
      <stop style="stop-color:#9c2063" offset=".323"/>
      <stop style="stop-color:#c82037" offset=".63"/>
      <stop style="stop-color:#cc2135" offset=".751"/>
      <stop style="stop-color:#e87726" offset="1"/>
    </linearGradient>
    <clipPath
        id="cvfs"><path
         d="M 0,0 H 272 V 97 H 0 Z"
         id="path101"/></clipPath>
    <linearGradient
        id="cvfac"
        x1="-8536"
        x2="-6842"
        y1="2599"
        y2="2599"
        gradientTransform="matrix(0.023218,-0.0484389,-0.0496964,-0.0226305,361.262,-259.096)"
        gradientUnits="userSpaceOnUse">
      <stop style="stop-color:#9c2063" offset="0"/>
      <stop style="stop-color:#9c2063" offset=".323"/>
      <stop style="stop-color:#c82037" offset=".63"/>
      <stop style="stop-color:#cc2135" offset=".751"/>
      <stop style="stop-color:#e87726" offset="1"/>
    </linearGradient>
    <clipPath
        id="cvft"><path
         d="M 0,0 H 272 V 97 H 0 Z"
          /></clipPath>
    <linearGradient
        id="cvfad"
        x1="-7584"
        x2="-7210"
        y1="2601"
        y2="2601"
        gradientTransform="matrix(0.023218,-0.0484389,-0.0496964,-0.0226305,361.262,-259.096)"
        gradientUnits="userSpaceOnUse">
      <stop style="stop-color:#9c2063" offset="0"/>
      <stop style="stop-color:#9c2063" offset=".323"/>
      <stop style="stop-color:#c82037" offset=".63"/>
      <stop style="stop-color:#cc2135" offset=".751"/>
      <stop style="stop-color:#e87726" offset="1"/>
    </linearGradient>
  </defs>
  <g transform="matrix(1.33,0,0,1.33,-2.4385949,-3.0573521)">
    <path
        style="fill:url(#cvfu);stroke-width:0.97541994"
        d="m 65.742389,4.2420013 c -1.44248,0.831069 -3.8532,3.18753 -6.7184,6.6061797 l 2.62808,4.85352 c 1.85744,-2.58084
        3.73464,-4.90167 5.6316,-6.8854497 0.15018,-0.157932 0.21934,-0.229194 0.21934,-0.229194 -0.0692,0.071262
        -0.15018,0.157932 -0.21934,0.229194 -0.61355,0.65484 -2.47988,2.7734397 -5.2858,6.9817497 2.70712,-0.131931
        6.85672,-0.669285 10.2752,-1.23264 1.01764,-5.5083597 -0.98405,-8.0314197 -0.98405,-8.0314197 0,0 -2.53916,-4.00608
        -5.52292,-2.29194 z"/>
    <path
        style="fill:url(#cvfv);stroke-width:0.97541994"
        d="m 53.886389,28.249591 c 0.80325,-1.46376 1.61044,-2.889 2.43048,-4.27572 0.84968,-1.4445 1.71912,-2.84085
        2.57868,-4.19868 0.0504,-0.07511 0.10868,-0.157932 0.15512,-0.236898 0.86055,-1.32894 1.729,-2.60973
        2.59844,-3.82311 l -2.62808,-4.85352 c -0.1976,0.233046 -0.39421,0.473796 -0.59873,0.72225 -0.76372,0.929295
        -1.55116,1.91637 -2.36132,2.97567 -0.9139,1.18449 -1.84756,2.45565 -2.80592,3.78459 -0.87537,1.22301
        -1.7784,2.51343 -2.6676,3.852 -0.76372,1.13634 -1.52152,2.30157 -2.28228,3.49569 -0.0277,0.04045 -0.0504,0.08956
        -0.0771,0.13482 l 3.42836,6.60618 c 0.72618,-1.43487 1.47212,-2.83122 2.223,-4.19868 z"/>
    <path
        style="fill:url(#cvfw);stroke-width:0.97541994"
        d="m 38.275989,65.421391 c -0.45547,1.21338 -0.91489,2.45565 -1.37332,3.71718 -0.004,0.01444 -0.008,0.03756
        -0.0188,0.05297 -0.0662,0.176229 -0.13535,0.357273 -0.19365,0.533502 -0.30825,0.854181 -0.57501,1.62747
        -1.1856,3.3705 1.00776,0.447795 1.81792,1.6371 2.58856,2.97567 -0.081,-1.38672 -0.66788,-2.6964 -1.79816,-3.70755
        4.97952,0.22149 9.26744,-1.01115 11.4608,-4.55499 0.19662,-0.319716 0.37841,-0.647136 0.5434,-1.00152
        -1.00776,1.2519 -2.26252,1.77192 -4.62384,1.64673 -0.004,0 -0.008,0.0077 -0.0158,0.0077 0.008,0 0.0119,-0.0077
        0.0158,-0.0077 3.46788,-1.51191 5.20676,-2.96604 6.74804,-5.36391 0.3626,-0.572022 0.71729,-1.19412 1.07692,-1.88748
        -3.03316,3.03345 -6.54056,3.90015 -10.2752,3.24531 l -2.77628,0.297567 c -0.0889,0.229194 -0.16993,0.450684
        -0.25885,0.680841 z"/>
    <path
        style="fill:url(#cvfx);stroke-width:0.97541994"
        d="m 39.560389,59.354491 c 0.59873,-1.51191 1.21524,-3.03345 1.84756,-4.57425 0.6096,-1.48302 1.22512,-2.96604
        1.86732,-4.45869 0.64121,-1.48302 1.29428,-2.9853 1.95624,-4.48758 0.67085,-1.53117 1.36344,-3.04308
        2.0748,-4.55499 0.69852,-1.50228 1.40296,-2.9853 2.1242,-4.44906 0.25392,-0.530613 0.52463,-1.0593
        0.78349,-1.58895 0.45546,-0.910998 0.9139,-1.82007 1.37332,-2.70603 0.0277,-0.04911 0.0504,-0.101115
        0.0771,-0.146376 l -3.43824,-6.60618 c -0.0543,0.09052 -0.11264,0.184896 -0.16994,0.267714 -0.79929,1.27116
        -1.60056,2.57121 -2.3712,3.90015 -0.79139,1.33857 -1.57092,2.71566 -2.3218,4.10238 -0.63726,1.17486
        -1.26464,2.34972 -1.8772,3.54384 -0.12054,0.24075 -0.24008,0.485352 -0.36358,0.72225 -0.74496,1.50228
        -1.42272,2.94678 -2.03528,4.34313 -0.6916,1.57932 -1.30416,3.0816 -1.8278,4.51647 -0.35074,0.940851
        -0.66789,1.84896 -0.96034,2.71566 -0.24008,0.745362 -0.46337,1.49265 -0.68765,2.23416 -0.51277,1.75266
        -0.95737,3.49569 -1.32392,5.22909 l 3.44812,6.63507 c 0.45448,-1.19412 0.92576,-2.38824 1.40296,-3.61125
         0.14721,-0.349569 0.27467,-0.692397 0.41299,-1.03041 z"/>
    <path
        style="fill:url(#cvfy);stroke-width:0.97541994"
        d="m 34.225189,57.621091 c -0.43175,2.1186 -0.741,4.2372 -0.89513,6.33654 -0.008,0.07511 -0.0119,0.146376
        -0.0158,0.217638 -1.07692,-1.67562 -3.952,-3.31272 -3.952,-3.30309 2.06492,2.91789 3.63584,5.80689 3.86308,8.64774
        -1.10656,0.218601 -2.6182,-0.09823 -4.35708,-0.72225 1.81792,1.6371 3.19124,2.08008 3.72476,2.20527
        -1.6796,0.104967 -3.41848,1.22301 -5.17712,2.51343 2.5688,-1.02078 4.6436,-1.42524 6.1256,-1.09782
        -2.36132,6.50025 -4.72264,13.6746 -7.08396,21.2823 0.7252,-0.210897 1.15596,-0.688545 1.39308,-1.32894
        0.42089,-1.37709 3.211,-10.4004 7.59772,-22.3416 0.13141,-0.338976 0.25096,-0.681804 0.38236,-1.02078
        0.0306,-0.102078 0.0692,-0.191637 0.10473,-0.282159 0.45843,-1.2519 0.94551,-2.52306 1.4326,-3.82311
        0.11164,-0.292752 0.22329,-0.590319 0.34283,-0.887886 0,-0.0029 0.004,-0.01059 0.004,-0.01444 l -3.458,-6.63507
        c -0.008,0.06837 -0.0267,0.147339 -0.0425,0.226305 z"/>
    <path
        style="fill:url(#cvfz);stroke-width:0.97541994"
        d="m 52.206789,32.968291 c -0.0998,0.199341 -0.19661,0.398682 -0.30035,0.594171 -0.29739,0.598023 -0.59478,1.20375
        -0.90698,1.8297 -0.32802,0.676989 -0.65999,1.35783 -0.99788,2.07045 -0.17389,0.353421 -0.34383,0.714546
        -0.51376,1.07856 -0.51278,1.08819 -1.02752,2.2149 -1.56104,3.3705 -0.64418,1.42524 -1.31404,2.90826 -1.976,4.43943
        -0.63628,1.46376 -1.29428,2.9853 -1.94636,4.55499 -0.62146,1.49265 -1.25476,3.02382 -1.89696,4.61277
        -0.57206,1.40598 -1.14608,2.86974 -1.71912,4.36239 -0.0267,0.06837 -0.0533,0.147339 -0.081,0.214749
        -0.57502,1.48302 -1.15596,3.00456 -1.73888,4.56462 -0.0119,0.03756 -0.0277,0.06741 -0.0385,0.108819 l
        2.77628,-0.296604 c -0.0543,-0.0077 -0.11165,-0.01541 -0.16599,-0.026 3.31968,-0.399645 7.72616,-2.82159
        10.5716,-5.79726 1.31404,-1.37709 2.49964,-2.99493 3.59632,-4.89204 0.81807,-1.40598 1.59068,-2.9853
        2.33168,-4.70907 0.64121,-1.52154 1.25476,-3.15864 1.84756,-4.94019 -0.76372,0.391941 -1.6302,0.684693
        -2.58856,0.881145 -0.1729,0.03756 -0.34283,0.06741 -0.51672,0.09726 -0.17784,0.0337 -0.35469,0.06067
        -0.53649,0.07897 0,0 0.008,0 0.008,-0.0039 3.09244,-1.16523 5.0388,-3.39939 6.46152,-6.14394 -0.81016,0.538317
        -2.13408,1.2519 -3.72476,1.57932 -0.21242,0.04911 -0.43175,0.08667 -0.65603,0.120375 -0.0533,0.0077
        -0.11164,0.01445 -0.16598,0.026 h 0.0119 c 1.07692,-0.436239 1.976,-0.929295 2.7664,-1.51191 0.17389,-0.124227
        0.33987,-0.248454 0.48609,-0.384237 0.24305,-0.203193 0.46733,-0.416979 0.69062,-0.63558 0.1393,-0.146376
        0.27071,-0.289863 0.40508,-0.443943 0.30924,-0.357273 0.59872,-0.740547 0.8645,-1.1556 0.081,-0.131931
        0.16598,-0.256158 0.24008,-0.390978 0.10769,-0.191637 0.20452,-0.384237 0.30035,-0.56817 0.43275,-0.842625
        0.77953,-1.59858 1.04728,-2.26305 0.13832,-0.334161 0.25491,-0.63558 0.3626,-0.925443 0.0425,-0.116523
        0.081,-0.225342 0.11955,-0.334161 0.11164,-0.315864 0.19661,-0.598023 0.26676,-0.846477 0.10374,-0.376533
        0.16894,-0.673137 0.20056,-0.884034 -0.10473,0.07511 -0.22428,0.157932 -0.3626,0.236898 -0.93464,0.545058
        -2.53916,1.03041 -3.83344,1.27116 l 2.54904,-0.270603 -2.54904,0.270603 c -0.0158,0.0039 -0.0356,0.0039
        -0.0583,0.0077 -0.1314,0.02311 -0.2549,0.04141 -0.39026,0.06067 0.0237,-0.01156 0.0425,-0.02311 0.0662,-0.03467
        l -8.71416,0.933147 c 0,0.01926 -0.0158,0.05682 -0.0316,0.08667 z"/>
    <path
        style="fill:url(#cvfaa);stroke-width:0.97541994"
        d="m 61.987989,15.826891 c -0.77163,1.1556 -1.62032,2.47491 -2.53916,3.96756 -0.0464,0.07511
        -0.10077,0.161784 -0.14326,0.236898 -0.78743,1.29042 -1.62032,2.70603 -2.50952,4.25646 -0.75681,1.33857
        -1.55116,2.78307 -2.3712,4.32387 -0.71333,1.3482 -1.45236,2.77344 -2.21312,4.29498 l 8.71416,-0.933147
        c 2.53916,-1.13634 3.66548,-2.16675 4.77204,-3.6594 0.28949,-0.410238 0.58589,-0.839736 0.87537,-1.29042
        0.89612,-1.35783 1.76852,-2.86011 2.55892,-4.35276 0.75681,-1.4445 1.42272,-2.86974 1.93648,-4.16016
        0.32406,-0.820476 0.58687,-1.57932 0.76866,-2.25342 0.15808,-0.58743 0.28158,-1.1556 0.37742,-1.68525
        -3.37896,0.56817 -7.53844,1.10745 -10.2752,1.23264 z"/>
  </g>
</svg>