<?xml version="1.0" encoding="UTF-8" standalone="no"?>
<!-- Generator: Adobe Illustrator 17.0.0, SVG Export Plug-In . SVG Version: 6.00 Build 0)  -->

<svg
   xmlns:svg="http://www.w3.org/2000/svg"
   xmlns="http://www.w3.org/2000/svg"
   version="1.1"
   x="0px"
   y="0px"
   width="42px"
   height="42px"
   viewBox="0 0 42 42"
   enable-background="new 0 0 42 42"

   >



     <rect
     style="fill:none"

     height="3.9909999"
     width="32.360001"
     y="7.4330001"
     x="4.8200002" /><path
     style="fill:#3d6480"

     d="m 3.4975231,29.894479 0,7.39 35.7599999,0 0,-7.39 -35.7599999,0 z m 34.0599999,5.691 -32.3599999,0 0,-3.991 32.3599999,0 0,3.991 z" /><polygon
     style="fill:#3d6480"

     points="4.82,34.568 4.82,30.576 19,30.576 19,28.877 3.12,28.877 3.12,36.268 19,36.268 19,34.568 "
     transform="translate(-0.06292052,-24.790684)" /><polygon
     style="fill:#3d6480"

     points="23,34.568 23,36.268 38.88,36.268 38.88,28.877 23,28.877 23,30.576 37.18,30.576 37.18,34.568 "
     transform="translate(-0.06292052,-24.790684)" /><rect
     style="fill:#3d6480"

     height="1.824"
     width="1.2"
     y="6.8693156"
     x="22.897079" /><rect
     style="fill:#3d6480"

     height="1.824"
     width="1.2"
     y="6.8693156"
     x="17.717081" /><g

     transform="matrix(0.50944579,0,0,0.54413104,16.332923,-0.3046484)"><path
       d="m -18.937521,14.702836 c 0,-0.411 -0.019,-0.865 -0.056,-1.361 l -0.02,-0.261 0.032,0 2.879,4.666 1.174,0 0,-5.855 -0.877,0 0,3.068 c 0,0.216 0.008,0.517 0.024,0.902 0.016,0.386 0.026,0.609 0.032,0.671 l -0.024,0 -2.872,-4.641 -1.161,0 0,5.855 0.869,0 0,-3.044 z"

         style="fill:#ea102a" /><path
       d="m -11.135521,17.826836 c 0.488,0 0.908,-0.087 1.2589998,-0.263 0.351,-0.175 0.62,-0.424 0.805,-0.749 0.186,-0.324 0.278,-0.702 0.278,-1.135 l 0,-3.788 -0.957,0 0,3.696 c 0,0.948 -0.4509998,1.422 -1.3539998,1.422 -0.464,0 -0.809,-0.114 -1.033,-0.344 -0.224,-0.23 -0.336,-0.586 -0.336,-1.069 l 0,-3.705 -0.961,0 0,3.772 c 0,0.673 0.202,1.202 0.605,1.586 0.403,0.385 0.967,0.577 1.694,0.577 z"

         style="fill:#ea102a" /><polygon
       transform="translate(-25.075521,4.1628359)"
       points="18.738,12.763 18.738,7.729 17.781,7.729 17.781,13.584 21.217,13.584 21.217,12.763 "

       style="fill:#ea102a" /><polygon
       transform="translate(-25.075521,4.1628359)"
       points="23.183,12.763 23.183,7.729 22.226,7.729 22.226,13.584 25.663,13.584 25.663,12.763 "

       style="fill:#ea102a" /></g><path
     style="fill:#0cb20f"

     d="m 21.316271,18.884921 0,4.532 1.954,-1.954 1.344,1.344 -4.248,4.248 -4.248,-4.248 1.344,-1.344 1.953,1.955 0,-4.532 c 0,-2.953 2.403,-5.356 5.356,-5.356 l 0.638,0 0,1.9 -0.638,0 c -1.905,-10e-4 -3.455,1.549 -3.455,3.455 z" /></svg>