<?xml version="1.0" encoding="UTF-8" standalone="no"?>
<svg
   xmlns:dc="http://purl.org/dc/elements/1.1/"
   xmlns:cc="http://creativecommons.org/ns#"
   xmlns:rdf="http://www.w3.org/1999/02/22-rdf-syntax-ns#"
   xmlns="http://www.w3.org/2000/svg"
   width="16"
   height="16"
   viewBox="0 0 16 16"
   version="1.1"
   id="svg4">
  <metadata
     id="metadata10">
    <rdf:RDF>
      <cc:Work
         rdf:about="">
        <dc:format>image/svg+xml</dc:format>
        <dc:type
           rdf:resource="http://purl.org/dc/dcmitype/StillImage" />
        <dc:title></dc:title>
      </cc:Work>
    </rdf:RDF>
  </metadata>
  <defs
     id="defs8" />
  <path
     fill-rule="evenodd"
     d="M2 4a1 1 0 100-2 1 1 0 000 2zm3.75-1.5a.75.75 0 000 1.5h8.5a.75.75 0 000-1.5h-8.5zm0 5a.75.75 0 000 1.5h8.5a.75.75 0 000-1.5h-8.5zm0 5a.75.75 0 000 1.5h8.5a.75.75 0 000-1.5h-8.5zM3 8a1 1 0 11-2 0 1 1 0 012 0zm-1 6a1 1 0 100-2 1 1 0 000 2z"
     id="path2" />
  <g
     style="stroke:none;stroke-opacity:1"
     transform="matrix(0.48711186,-0.46522686,0.46522686,0.48711186,0.21859962,21.958705)"
     id="g844">
    <rect
       style="opacity:1;fill:#c9e8fb;fill-opacity:1;stroke:none;stroke-width:0.2;stroke-miterlimit:4;stroke-dasharray:none;stroke-opacity:1;paint-order:markers fill stroke"
       id="rect819"
       width="22.344238"
       height="8.4206381"
       x="11.412182"
       y="-10.665355" />
    <text
       xml:space="preserve"
       style="font-style:normal;font-variant:normal;font-weight:normal;font-stretch:normal;font-size:8px;line-height:1.25;font-family:'DejaVu Sans';-inkscape-font-specification:'DejaVu Sans';letter-spacing:0px;word-spacing:0px;fill:#0e3a5a;fill-opacity:1;stroke:none;stroke-opacity:1"
       x="12.113777"
       y="-3.5464792"
       id="text817"><tspan
         id="tspan815"
         x="12.113777"
         y="-3.5464792"
         style="font-weight:bold;fill:#0e3a5a;fill-opacity:1;stroke:none;stroke-opacity:1">Fake</tspan></text>
  </g>
</svg>
