<?xml version="1.0" encoding="UTF-8" standalone="no"?>
<svg
   xmlns:svg="http://www.w3.org/2000/svg"
   xmlns="http://www.w3.org/2000/svg"
   xmlns:sodipodi="http://sodipodi.sourceforge.net/DTD/sodipodi-0.dtd"
   xmlns:inkscape="http://www.inkscape.org/namespaces/inkscape"
   inkscape:version="1.0 (4035a4fb49, 2020-05-01)"
   sodipodi:docname="fake.svg"
   id="svg4"
   version="1.1"
   viewBox="0 0 16 16"
   height="16"
   width="16">
  <sodipodi:namedview
     inkscape:window-maximized="0"
     inkscape:window-x="0"
     inkscape:window-height="1378"
     inkscape:window-width="2764"
     inkscape:cy="6.7301587"
     inkscape:cx="16.531746"
     inkscape:zoom="63"
     inkscape:current-layer="svg4"
     inkscape:window-y="0"
     guidetolerance="10"
     gridtolerance="10"
     objecttolerance="10"
     borderopacity="1"
     bordercolor="#666666"
     pagecolor="#ffffff" />
  <defs
     id="defs8" />
  <path
     id="path2"
     d="M2 4a1 1 0 100-2 1 1 0 000 2zm3.75-1.5a.75.75 0 000 1.5h8.5a.75.75 0 000-1.5h-8.5zm0 5a.75.75 0 000 1.5h8.5a.75.75 0 000-1.5h-8.5zm0 5a.75.75 0 000 1.5h8.5a.75.75 0 000-1.5h-8.5zM3 8a1 1 0 11-2 0 1 1 0 012 0zm-1 6a1 1 0 100-2 1 1 0 000 2z"
     fill-rule="evenodd" />
  <rect
     transform="rotate(-43.683559)"
     style="fill:#c9e8fb;fill-opacity:1;stroke:none;stroke-width:0.134717;stroke-miterlimit:4;stroke-dasharray:none;stroke-opacity:1;paint-order:markers fill stroke"
     id="rect819"
     width="15.050698"
     height="5.6719985"
     x="-7.3211923"
     y="8.846755" />
  <text
     style="font-size:5.43593px;stroke-width:0.452994"
     transform="rotate(-43.683559)"
     xml:space="preserve"
     x="-7.1459179"
     y="13.610421"
     id="text817"><tspan
       id="tspan815"
       x="-7.1459179"
       y="13.610421"
       style="font-weight:bold;fill:#0e3a5a;fill-opacity:1;stroke:none;stroke-width:0.305129;stroke-opacity:1">Fake</tspan></text>
</svg>
