<svg version="1.1" xmlns="http://www.w3.org/2000/svg" xmlns:xlink="http://www.w3.org/1999/xlink" x="0px" y="0px"
	 width="250px" height="250px" viewBox="0 0 250 250" enable-background="new 0 0 250 250" xml:space="preserve">
<path fill="#2C6791" d="M154.919,13.959c1.322,1.596,2.489,3.157,3.727,4.817c16.116,21.598,20.959,47.469,16.269,73.814
	c-0.297,1.675-1.18,1.747-2.432,2.954c-7.737,7.467-15.188,15.205-19.813,25.032c-1.943,4.131-2.931,8.769-3.877,13.275
	c-0.282,1.349,0.679,3.881,1.736,4.343c1.188,0.518,3.681-0.189,4.65-1.243c4.932-5.358,9.68-10.9,14.239-16.581
	c3.111-3.876,5.806-8.087,8.98-12.004c0.858,8.572,0.71,16.996-3.218,24.678c-1.652,4.892-3.782,5.471-6.438,8.419
	c-3.023,2.267-6.507,5.716-8.648,8.595c-3.345,5.36-3.166,9.692,1.846,13.447c0.316,0.193,1.967,0.983,2.503,1.103
	c-1.135,0.759-2.133,1.007-4.73,1.762c-0.092,3.896-3.338,6.491-4.288,8.313c-0.448,1.745-0.615,2.009-0.758,3.954
	c-1.226,16.741-3.697,34.856-9.925,50.612c-2.105,5.326-4.643,8.662-9.914,10.869c-0.631,0.265-3.585,1.797-3.965,1.878
	c1.298-2.062,1.544-5.104-0.176-7.44c-1.234-1.677-6.16-1.583-7.752-3.117c0.303-0.069,2.417,0.091,2.717,0.101
	c2.513,0.086,4.889-0.041,5.625-3.134c0.59-2.48-0.73-4.958-3.229-6.695c-1.699-1.183-2.87-1.518-4.321-2.999
	c-0.351-0.356-0.881-2.327-0.513-3.626c0.05-0.177,0.262-0.244,0.399-0.12c1.637,1.468,3.775,3.024,5.143,4.659
	c0.878,0.804,1.985,1.726,2.749,1.716c0.808-0.01,1.272-0.992,2.218-1.659c2.175-1.936,2.945-2.878,4.315-5.523
	c0.238-1.455-0.278-3.924-0.733-5.716c-1.904-7.497-2.506-15.296-0.55-22.818c1.402-5.391,3.409-10.896,6.403-15.54
	c4.788-7.425,5.01-14.22-0.008-21.332c-8.575-12.154-7.588-24.438-0.641-36.896c4.951-8.878,11.323-16.605,18.377-23.865
	c1.46-1.502,2.412-1.655,2.815-3.712c5.165-23.806,1.987-47.95-9.385-69.121c-0.503-0.912-4.752-6.814-4.816-7.147
	C149.637,7.918,154.785,14.049,154.919,13.959L154.919,13.959z M108.415,142.695c-0.276-3.481-0.31-6.767-0.829-9.975
	c-2.071-12.8-8.857-23.101-17.52-32.359c-0.688-0.735-1.322-1.569-2.139-2.129c-4.327-2.969-5.646-7.335-6.208-12.266
	c-3.123-27.475,3.858-51.845,22.111-72.807c0.122-0.14,3.737-4.856,4.325-5.088c-5.119,8.92-11.21,17.634-14.099,32.545
	C91.26,55.052,91.23,69.37,94.251,83.705c0.308,1.464,1.381,2.919,2.45,4.045c7.582,7.982,14.721,16.349,19.071,26.544
	c2.086,4.888,3.494,10.258,4.098,15.536C120.69,136.991,116.247,141.603,108.415,142.695L108.415,142.695z M100.707,165.229
	c6.918-4.603,12.05-3.172,14.945,3.101c3.08,6.673,5.039,16.296,5.376,23.649c-1.742-4.262-4.163-11.016-5.862-15.295
	c-0.798-2.013-1.853-3.474-4.327-3.429c-2.312,0.042-3.836-1.312-4.337-3.478c-0.23-0.995-0.506-2.486-1.109-3.159
	C104.386,165.496,102.723,165.473,100.707,165.229L100.707,165.229z M98.293,143.349c-9.03-6.045-15.563-13.788-16.799-25.33
	C86.464,120.15,95.477,133.559,98.293,143.349z"/>
</svg>
