<?xml version="1.0" encoding="utf-8"?>
<!DOCTYPE svg PUBLIC "-//W3C//DTD SVG 1.1//EN" "http://www.w3.org/Graphics/SVG/1.1/DTD/svg11.dtd">
<svg version="1.1" id="Layer_1" xmlns="http://www.w3.org/2000/svg" xmlns:xlink="http://www.w3.org/1999/xlink" x="0px" y="0px"
	 width="42px" height="42px" viewBox="0 0 42 42" enable-background="new 0 0 42 42" xml:space="preserve">
<path fill="none" d="M16.2,13.5c0,0.5,0.1,0.8,0.8,0.8c0.5,0,1-0.2,1.4-0.4v-1H17C16.4,12.8,16.2,13,16.2,13.5z"/>
<path fill="none" d="M21.1,11.2v2.2c0,0.5,0.2,0.8,0.8,0.8c0.5,0,1.1-0.3,1.5-0.6v-3.1c-0.5-0.1-1.102-0.2-1.5-0.2
	C21.4,10.3,21.1,10.6,21.1,11.2z"/>
<path fill="none" d="M10.9,11.4c0-0.7-0.3-1.2-1.1-1.2c-0.8,0-1.2,0.4-1.2,1.2v0.4h2.3V11.4z"/>
<path fill="none" d="M26.3,13.5c0,0.5,0.101,0.8,0.8,0.8c0.5,0,1-0.2,1.4-0.4v-1h-1.4C26.5,12.8,26.3,13,26.3,13.5z"/>
<path fill="none" d="M34.7,13.5c0,0.5,0.1,0.8,0.8,0.8c0.5,0,1-0.2,1.4-0.4v-1h-1.4C34.9,12.8,34.7,13,34.7,13.5z"/>
<polygon fill="#FFEBCD" points="26.1,27.8 31.5,30.5 36.8,27.8 34.1,26.6 34.4,25.8 34.1,25.7 31.4,28.5 28.7,25.8 28.3,25.9 
	28.7,26.7 "/>
<polygon fill="#FFEBCD" points="31.6,31.8 31.6,38.1 37.5,35.1 37.5,31.8 33.1,34.2 "/>
<polygon fill="#FFEBCD" points="37.8,28.3 32.2,31.2 33.4,33 38.9,29.9 "/>
<polygon fill="#FFEBCD" points="30.7,31.2 25.1,28.3 23.7,30.1 29.3,33 "/>
<polygon fill="#FFEBCD" points="38.4,35.7 31.5,39.2 24.5,35.7 24.5,31.6 24.5,31.6 24.5,35.7 31.5,39.2 38.5,35.7 38.5,31.3 
	38.4,31.3 "/>
<polygon fill="#FFEBCD" points="25.4,32.1 25.4,35.1 31.1,38 31.1,32.1 29.6,34.2 "/>
<path fill="#3D6480" d="M38.4,27.4l-4-1.7v0.1L34.1,26.6l2.7,1.102L31.5,30.4l-5.4-2.699L28.7,26.6l-0.3-0.8v-0.1L24.6,27.3
	l-2.199,3L24.6,31.4l0,0v4.1l7,3.5l7-3.5v-4.4l0,0l1.801-1L38.4,27.4z M23.7,30.1l1.399-1.8l5.601,2.8L29.3,33L23.7,30.1z M31.1,38
	L25.4,35.1v-3l4.1,2.2l1.5-2.1V38H31.1z M37.5,35.1l-5.9,3v-6.3l1.602,2.4l4.3-2.4L37.5,35.1L37.5,35.1z M33.4,33l-1.2-1.8l5.6-2.9
	L38.9,30L33.4,33z"/>
<path fill="#0CB20F" d="M34.1,25.7L34.1,25.7l-0.6-0.8l-1.6,1.6v-1.7c0-2.8-1.2-4.1-3.9-4.1v1c2.2,0,2.9,0.8,2.9,3v1.7l-1.7-1.7
	l-0.7,0.7l0.2,0.199l2.7,2.699L34.1,25.7z"/>
<polygon fill="#0E3A5A" points="5.1,15 6,15 6,8.5 8.2,8.5 8.2,7.6 2.9,7.6 2.9,8.5 5.1,8.5 "/>
<path fill="#0E3A5A" d="M11.7,14.8L11.6,14c-0.6,0.2-1.2,0.3-1.7,0.3c-1,0-1.3-0.3-1.3-1.2v-0.5h3.2v-1.1c0-1.1-0.4-2-2-2
	c-1.6,0-2.1,0.9-2.1,2v1.6c0,1.2,0.5,2,2.1,2C10.5,15.1,11.2,14.9,11.7,14.8z M8.6,11.4c0-0.7,0.3-1.2,1.2-1.2
	c0.9,0,1.1,0.4,1.1,1.2v0.4H8.6V11.4z"/>
<path fill="#0E3A5A" d="M13.6,11.3c0.4-0.3,1-0.7,1.5-0.9L15,9.5c-0.5,0.2-1.1,0.5-1.5,0.9l-0.1-0.7h-0.8V15h0.9v-3.7H13.6z"/>
<path fill="#0E3A5A" d="M17.3,9.5c-0.6,0-1.3,0.1-1.8,0.2l0.1,0.7c0.4-0.1,1.1-0.2,1.6-0.2c0.9,0,1.2,0.2,1.2,0.9V12H17
	c-1.1,0-1.6,0.4-1.6,1.5c0,0.9,0.4,1.5,1.4,1.5c0.6,0,1.3-0.2,1.7-0.5l0.1,0.4h0.8v-3.7C19.3,10.1,18.8,9.5,17.3,9.5z M18.4,13.8
	c-0.4,0.3-0.9,0.4-1.4,0.4c-0.7,0-0.8-0.2-0.8-0.8c0-0.5,0.2-0.7,0.8-0.7h1.4V13.8z"/>
<path fill="#0E3A5A" d="M23.6,15H24.4V7.3l-0.9,0.1v2.2c-0.4-0.1-1.1-0.2-1.5-0.2c-1.3,0-1.7,0.7-1.7,1.7v2.2
	c0,1.1,0.5,1.6,1.601,1.6c0.699,0,1.301-0.2,1.801-0.6L23.6,15z M23.4,13.6c-0.4,0.4-1,0.6-1.5,0.6c-0.602,0-0.8-0.3-0.8-0.8v-2.2
	c0-0.6,0.3-0.9,0.9-0.9c0.4,0,1,0.1,1.5,0.2v3.1H23.4z"/>
<path fill="#0E3A5A" d="M27,12c-1.1,0-1.6,0.4-1.6,1.5c0,0.9,0.398,1.5,1.398,1.5c0.602,0,1.301-0.2,1.7-0.5l0.101,0.4H29.4v-3.7
	c0-1.1-0.5-1.7-2-1.7C26.8,9.5,26.1,9.6,25.6,9.7l0.102,0.7c0.398-0.1,1.1-0.2,1.6-0.2c0.9,0,1.2,0.2,1.2,0.9V12H27z M28.5,13.8
	c-0.4,0.3-0.9,0.4-1.4,0.4c-0.699,0-0.8-0.2-0.8-0.8c0-0.5,0.2-0.7,0.8-0.7h1.4V13.8z"/>
<path fill="#0E3A5A" d="M30.8,13.8c0,0.9,0.4,1.2,1.3,1.2c0.4,0,0.801-0.1,1.102-0.2L33.1,14.1c-0.3,0.1-0.6,0.1-0.898,0.1
	c-0.5,0-0.5-0.2-0.5-0.6v-3.3H33.1L33.2,9.5h-1.5V8.1l-0.9,0.1v1.3H29.9v0.8H30.8V13.8z"/>
<path fill="#0E3A5A" d="M35.4,12C34.3,12,33.8,12.4,33.8,13.5c0,0.9,0.4,1.5,1.4,1.5c0.6,0,1.3-0.2,1.7-0.5L37,15h0.8v-3.7
	c0-1.1-0.5-1.7-2-1.7c-0.6,0-1.3,0.1-1.8,0.2l0.1,0.7c0.4-0.1,1.102-0.2,1.602-0.2c0.898,0,1.199,0.2,1.199,0.9V12H35.4z M36.8,13.8
	C36.4,14.1,35.9,14.2,35.4,14.2c-0.7,0-0.801-0.2-0.801-0.8c0-0.5,0.199-0.7,0.801-0.7H36.8V13.8z"/>
</svg>
