<?xml version="1.0" encoding="utf-8"?>
<!-- Generator: Adobe Illustrator 18.0.0, SVG Export Plug-In . SVG Version: 6.00 Build 0)  -->
<!DOCTYPE svg PUBLIC "-//W3C//DTD SVG 1.1//EN" "http://www.w3.org/Graphics/SVG/1.1/DTD/svg11.dtd">
<svg version="1.1" id="Layer_1" xmlns="http://www.w3.org/2000/svg" xmlns:xlink="http://www.w3.org/1999/xlink" x="0px" y="0px"
	 viewBox="0 0 42 42" enable-background="new 0 0 42 42" xml:space="preserve">
<text transform="matrix(1 0 0 1 -4837 -2136)"><tspan x="0" y="0" font-family="'MyriadPro-Regular'" font-size="12">&lt;?xml version=&quot;1.0&quot; encoding=&quot;UTF-8&quot;?&gt;</tspan><tspan x="0" y="14.4" font-family="'MyriadPro-Regular'" font-size="12">&lt;transformation&gt;</tspan><tspan x="0" y="28.8" font-family="'MyriadPro-Regular'" font-size="12">  &lt;info&gt;</tspan><tspan x="0" y="43.2" font-family="'MyriadPro-Regular'" font-size="12">    &lt;name&gt;Transformation 1&lt;/name&gt;</tspan><tspan x="0" y="57.6" font-family="'MyriadPro-Regular'" font-size="12">    &lt;description/&gt;</tspan><tspan x="0" y="72" font-family="'MyriadPro-Regular'" font-size="12">    &lt;extended_description/&gt;</tspan><tspan x="0" y="86.4" font-family="'MyriadPro-Regular'" font-size="12">    &lt;trans_version/&gt;</tspan><tspan x="0" y="100.8" font-family="'MyriadPro-Regular'" font-size="12">    &lt;trans_type&gt;Normal&lt;/trans_type&gt;</tspan><tspan x="0" y="115.2" font-family="'MyriadPro-Regular'" font-size="12">    &lt;directory&gt;&amp;#x2f;&lt;/directory&gt;</tspan><tspan x="0" y="129.6" font-family="'MyriadPro-Regular'" font-size="12">    &lt;parameters&gt;</tspan><tspan x="0" y="144" font-family="'MyriadPro-Regular'" font-size="12">    &lt;/parameters&gt;</tspan><tspan x="0" y="158.4" font-family="'MyriadPro-Regular'" font-size="12">    &lt;log&gt;</tspan><tspan x="0" y="172.8" font-family="'MyriadPro-Regular'" font-size="12">&lt;trans-log-table&gt;&lt;connection/&gt;</tspan><tspan x="0" y="187.2" font-family="'MyriadPro-Regular'" font-size="12">&lt;schema/&gt;</tspan><tspan x="0" y="201.6" font-family="'MyriadPro-Regular'" font-size="12">&lt;table/&gt;</tspan><tspan x="0" y="216" font-family="'MyriadPro-Regular'" font-size="12">&lt;size_limit_lines/&gt;</tspan><tspan x="0" y="230.4" font-family="'MyriadPro-Regular'" font-size="12">&lt;interval/&gt;</tspan><tspan x="0" y="244.8" font-family="'MyriadPro-Regular'" font-size="12">&lt;timeout_days/&gt;</tspan><tspan x="0" y="259.2" font-family="'MyriadPro-Regular'" font-size="12">&lt;field&gt;&lt;id&gt;ID_BATCH&lt;/id&gt;&lt;enabled&gt;Y&lt;/enabled&gt;&lt;name&gt;ID_BATCH&lt;/name&gt;&lt;/field&gt;&lt;field&gt;&lt;id&gt;CHANNEL_ID&lt;/id&gt;&lt;enabled&gt;Y&lt;/enabled&gt;&lt;name&gt;CHANNEL_ID&lt;/name&gt;&lt;/field&gt;&lt;field&gt;&lt;id&gt;TRANSNAME&lt;/id&gt;&lt;enabled&gt;Y&lt;/enabled&gt;&lt;name&gt;TRANSNAME&lt;/name&gt;&lt;/field&gt;&lt;field&gt;&lt;id&gt;STATUS&lt;/id&gt;&lt;enabled&gt;Y&lt;/enabled&gt;&lt;name&gt;STATUS&lt;/name&gt;&lt;/field&gt;&lt;field&gt;&lt;id&gt;LINES_READ&lt;/id&gt;&lt;enabled&gt;Y&lt;/enabled&gt;&lt;name&gt;LINES_READ&lt;/name&gt;&lt;subject/&gt;&lt;/field&gt;&lt;field&gt;&lt;id&gt;LINES_WRITTEN&lt;/id&gt;&lt;enabled&gt;Y&lt;/enabled&gt;&lt;name&gt;LINES_WRITTEN&lt;/name&gt;&lt;subject/&gt;&lt;/field&gt;&lt;field&gt;&lt;id&gt;LINES_UPDATED&lt;/id&gt;&lt;enabled&gt;Y&lt;/enabled&gt;&lt;name&gt;LINES_UPDATED&lt;/name&gt;&lt;subject/&gt;&lt;/field&gt;&lt;field&gt;&lt;id&gt;LINES_INPUT&lt;/id&gt;&lt;enabled&gt;Y&lt;/enabled&gt;&lt;name&gt;LINES_INPUT&lt;/name&gt;&lt;subject/&gt;&lt;/field&gt;&lt;field&gt;&lt;id&gt;LINES_OUTPUT&lt;/id&gt;&lt;enabled&gt;Y&lt;/enabled&gt;&lt;name&gt;LINES_OUTPUT&lt;/name&gt;&lt;subject/&gt;&lt;/field&gt;&lt;field&gt;&lt;id&gt;LINES_REJECTED&lt;/id&gt;&lt;enabled&gt;Y&lt;/enabled&gt;&lt;name&gt;LINES_REJECTED&lt;/name&gt;&lt;subject/&gt;&lt;/field&gt;&lt;field&gt;&lt;id&gt;ERRORS&lt;/id&gt;&lt;enabled&gt;Y&lt;/enabled&gt;&lt;name&gt;ERRORS&lt;/name&gt;&lt;/field&gt;&lt;field&gt;&lt;id&gt;STARTDATE&lt;/id&gt;&lt;enabled&gt;Y&lt;/enabled&gt;&lt;name&gt;STARTDATE&lt;/name&gt;&lt;/field&gt;&lt;field&gt;&lt;id&gt;ENDDATE&lt;/id&gt;&lt;enabled&gt;Y&lt;/enabled&gt;&lt;name&gt;ENDDATE&lt;/name&gt;&lt;/field&gt;&lt;field&gt;&lt;id&gt;LOGDATE&lt;/id&gt;&lt;enabled&gt;Y&lt;/enabled&gt;&lt;name&gt;LOGDATE&lt;/name&gt;&lt;/field&gt;&lt;field&gt;&lt;id&gt;DEPDATE&lt;/id&gt;&lt;enabled&gt;Y&lt;/enabled&gt;&lt;name&gt;DEPDATE&lt;/name&gt;&lt;/field&gt;&lt;field&gt;&lt;id&gt;REPLAYDATE&lt;/id&gt;&lt;enabled&gt;Y&lt;/enabled&gt;&lt;name&gt;REPLAYDATE&lt;/name&gt;&lt;/field&gt;&lt;field&gt;&lt;id&gt;LOG_FIELD&lt;/id&gt;&lt;enabled&gt;Y&lt;/enabled&gt;&lt;name&gt;LOG_FIELD&lt;/name&gt;&lt;/field&gt;&lt;field&gt;&lt;id&gt;EXECUTING_SERVER&lt;/id&gt;&lt;enabled&gt;N&lt;/enabled&gt;&lt;name&gt;EXECUTING_SERVER&lt;/name&gt;&lt;/field&gt;&lt;field&gt;&lt;id&gt;EXECUTING_USER&lt;/id&gt;&lt;enabled&gt;N&lt;/enabled&gt;&lt;name&gt;EXECUTING_USER&lt;/name&gt;&lt;/field&gt;&lt;field&gt;&lt;id&gt;CLIENT&lt;/id&gt;&lt;enabled&gt;N&lt;/enabled&gt;&lt;name&gt;CLIENT&lt;/name&gt;&lt;/field&gt;&lt;/trans-log-table&gt;</tspan><tspan x="0" y="273.6" font-family="'MyriadPro-Regular'" font-size="12">&lt;perf-log-table&gt;&lt;connection/&gt;</tspan><tspan x="0" y="288" font-family="'MyriadPro-Regular'" font-size="12">&lt;schema/&gt;</tspan><tspan x="0" y="302.4" font-family="'MyriadPro-Regular'" font-size="12">&lt;table/&gt;</tspan><tspan x="0" y="316.8" font-family="'MyriadPro-Regular'" font-size="12">&lt;interval/&gt;</tspan><tspan x="0" y="331.2" font-family="'MyriadPro-Regular'" font-size="12">&lt;timeout_days/&gt;</tspan><tspan x="0" y="345.6" font-family="'MyriadPro-Regular'" font-size="12">&lt;field&gt;&lt;id&gt;ID_BATCH&lt;/id&gt;&lt;enabled&gt;Y&lt;/enabled&gt;&lt;name&gt;ID_BATCH&lt;/name&gt;&lt;/field&gt;&lt;field&gt;&lt;id&gt;SEQ_NR&lt;/id&gt;&lt;enabled&gt;Y&lt;/enabled&gt;&lt;name&gt;SEQ_NR&lt;/name&gt;&lt;/field&gt;&lt;field&gt;&lt;id&gt;LOGDATE&lt;/id&gt;&lt;enabled&gt;Y&lt;/enabled&gt;&lt;name&gt;LOGDATE&lt;/name&gt;&lt;/field&gt;&lt;field&gt;&lt;id&gt;TRANSNAME&lt;/id&gt;&lt;enabled&gt;Y&lt;/enabled&gt;&lt;name&gt;TRANSNAME&lt;/name&gt;&lt;/field&gt;&lt;field&gt;&lt;id&gt;STEPNAME&lt;/id&gt;&lt;enabled&gt;Y&lt;/enabled&gt;&lt;name&gt;STEPNAME&lt;/name&gt;&lt;/field&gt;&lt;field&gt;&lt;id&gt;STEP_COPY&lt;/id&gt;&lt;enabled&gt;Y&lt;/enabled&gt;&lt;name&gt;STEP_COPY&lt;/name&gt;&lt;/field&gt;&lt;field&gt;&lt;id&gt;LINES_READ&lt;/id&gt;&lt;enabled&gt;Y&lt;/enabled&gt;&lt;name&gt;LINES_READ&lt;/name&gt;&lt;/field&gt;&lt;field&gt;&lt;id&gt;LINES_WRITTEN&lt;/id&gt;&lt;enabled&gt;Y&lt;/enabled&gt;&lt;name&gt;LINES_WRITTEN&lt;/name&gt;&lt;/field&gt;&lt;field&gt;&lt;id&gt;LINES_UPDATED&lt;/id&gt;&lt;enabled&gt;Y&lt;/enabled&gt;&lt;name&gt;LINES_UPDATED&lt;/name&gt;&lt;/field&gt;&lt;field&gt;&lt;id&gt;LINES_INPUT&lt;/id&gt;&lt;enabled&gt;Y&lt;/enabled&gt;&lt;name&gt;LINES_INPUT&lt;/name&gt;&lt;/field&gt;&lt;field&gt;&lt;id&gt;LINES_OUTPUT&lt;/id&gt;&lt;enabled&gt;Y&lt;/enabled&gt;&lt;name&gt;LINES_OUTPUT&lt;/name&gt;&lt;/field&gt;&lt;field&gt;&lt;id&gt;LINES_REJECTED&lt;/id&gt;&lt;enabled&gt;Y&lt;/enabled&gt;&lt;name&gt;LINES_REJECTED&lt;/name&gt;&lt;/field&gt;&lt;field&gt;&lt;id&gt;ERRORS&lt;/id&gt;&lt;enabled&gt;Y&lt;/enabled&gt;&lt;name&gt;ERRORS&lt;/name&gt;&lt;/field&gt;&lt;field&gt;&lt;id&gt;INPUT_BUFFER_ROWS&lt;/id&gt;&lt;enabled&gt;Y&lt;/enabled&gt;&lt;name&gt;INPUT_BUFFER_ROWS&lt;/name&gt;&lt;/field&gt;&lt;field&gt;&lt;id&gt;OUTPUT_BUFFER_ROWS&lt;/id&gt;&lt;enabled&gt;Y&lt;/enabled&gt;&lt;name&gt;OUTPUT_BUFFER_ROWS&lt;/name&gt;&lt;/field&gt;&lt;/perf-log-table&gt;</tspan><tspan x="0" y="360" font-family="'MyriadPro-Regular'" font-size="12">&lt;channel-log-table&gt;&lt;connection/&gt;</tspan><tspan x="0" y="374.4" font-family="'MyriadPro-Regular'" font-size="12">&lt;schema/&gt;</tspan><tspan x="0" y="388.8" font-family="'MyriadPro-Regular'" font-size="12">&lt;table/&gt;</tspan><tspan x="0" y="403.2" font-family="'MyriadPro-Regular'" font-size="12">&lt;timeout_days/&gt;</tspan><tspan x="0" y="417.6" font-family="'MyriadPro-Regular'" font-size="12">&lt;field&gt;&lt;id&gt;ID_BATCH&lt;/id&gt;&lt;enabled&gt;Y&lt;/enabled&gt;&lt;name&gt;ID_BATCH&lt;/name&gt;&lt;/field&gt;&lt;field&gt;&lt;id&gt;CHANNEL_ID&lt;/id&gt;&lt;enabled&gt;Y&lt;/enabled&gt;&lt;name&gt;CHANNEL_ID&lt;/name&gt;&lt;/field&gt;&lt;field&gt;&lt;id&gt;LOG_DATE&lt;/id&gt;&lt;enabled&gt;Y&lt;/enabled&gt;&lt;name&gt;LOG_DATE&lt;/name&gt;&lt;/field&gt;&lt;field&gt;&lt;id&gt;LOGGING_OBJECT_TYPE&lt;/id&gt;&lt;enabled&gt;Y&lt;/enabled&gt;&lt;name&gt;LOGGING_OBJECT_TYPE&lt;/name&gt;&lt;/field&gt;&lt;field&gt;&lt;id&gt;OBJECT_NAME&lt;/id&gt;&lt;enabled&gt;Y&lt;/enabled&gt;&lt;name&gt;OBJECT_NAME&lt;/name&gt;&lt;/field&gt;&lt;field&gt;&lt;id&gt;OBJECT_COPY&lt;/id&gt;&lt;enabled&gt;Y&lt;/enabled&gt;&lt;name&gt;OBJECT_COPY&lt;/name&gt;&lt;/field&gt;&lt;field&gt;&lt;id&gt;REPOSITORY_DIRECTORY&lt;/id&gt;&lt;enabled&gt;Y&lt;/enabled&gt;&lt;name&gt;REPOSITORY_DIRECTORY&lt;/name&gt;&lt;/field&gt;&lt;field&gt;&lt;id&gt;FILENAME&lt;/id&gt;&lt;enabled&gt;Y&lt;/enabled&gt;&lt;name&gt;FILENAME&lt;/name&gt;&lt;/field&gt;&lt;field&gt;&lt;id&gt;OBJECT_ID&lt;/id&gt;&lt;enabled&gt;Y&lt;/enabled&gt;&lt;name&gt;OBJECT_ID&lt;/name&gt;&lt;/field&gt;&lt;field&gt;&lt;id&gt;OBJECT_REVISION&lt;/id&gt;&lt;enabled&gt;Y&lt;/enabled&gt;&lt;name&gt;OBJECT_REVISION&lt;/name&gt;&lt;/field&gt;&lt;field&gt;&lt;id&gt;PARENT_CHANNEL_ID&lt;/id&gt;&lt;enabled&gt;Y&lt;/enabled&gt;&lt;name&gt;PARENT_CHANNEL_ID&lt;/name&gt;&lt;/field&gt;&lt;field&gt;&lt;id&gt;ROOT_CHANNEL_ID&lt;/id&gt;&lt;enabled&gt;Y&lt;/enabled&gt;&lt;name&gt;ROOT_CHANNEL_ID&lt;/name&gt;&lt;/field&gt;&lt;/channel-log-table&gt;</tspan><tspan x="0" y="432" font-family="'MyriadPro-Regular'" font-size="12">&lt;step-log-table&gt;&lt;connection/&gt;</tspan><tspan x="0" y="446.4" font-family="'MyriadPro-Regular'" font-size="12">&lt;schema/&gt;</tspan><tspan x="0" y="460.8" font-family="'MyriadPro-Regular'" font-size="12">&lt;table/&gt;</tspan><tspan x="0" y="475.2" font-family="'MyriadPro-Regular'" font-size="12">&lt;timeout_days/&gt;</tspan><tspan x="0" y="489.6" font-family="'MyriadPro-Regular'" font-size="12">&lt;field&gt;&lt;id&gt;ID_BATCH&lt;/id&gt;&lt;enabled&gt;Y&lt;/enabled&gt;&lt;name&gt;ID_BATCH&lt;/name&gt;&lt;/field&gt;&lt;field&gt;&lt;id&gt;CHANNEL_ID&lt;/id&gt;&lt;enabled&gt;Y&lt;/enabled&gt;&lt;name&gt;CHANNEL_ID&lt;/name&gt;&lt;/field&gt;&lt;field&gt;&lt;id&gt;LOG_DATE&lt;/id&gt;&lt;enabled&gt;Y&lt;/enabled&gt;&lt;name&gt;LOG_DATE&lt;/name&gt;&lt;/field&gt;&lt;field&gt;&lt;id&gt;TRANSNAME&lt;/id&gt;&lt;enabled&gt;Y&lt;/enabled&gt;&lt;name&gt;TRANSNAME&lt;/name&gt;&lt;/field&gt;&lt;field&gt;&lt;id&gt;STEPNAME&lt;/id&gt;&lt;enabled&gt;Y&lt;/enabled&gt;&lt;name&gt;STEPNAME&lt;/name&gt;&lt;/field&gt;&lt;field&gt;&lt;id&gt;STEP_COPY&lt;/id&gt;&lt;enabled&gt;Y&lt;/enabled&gt;&lt;name&gt;STEP_COPY&lt;/name&gt;&lt;/field&gt;&lt;field&gt;&lt;id&gt;LINES_READ&lt;/id&gt;&lt;enabled&gt;Y&lt;/enabled&gt;&lt;name&gt;LINES_READ&lt;/name&gt;&lt;/field&gt;&lt;field&gt;&lt;id&gt;LINES_WRITTEN&lt;/id&gt;&lt;enabled&gt;Y&lt;/enabled&gt;&lt;name&gt;LINES_WRITTEN&lt;/name&gt;&lt;/field&gt;&lt;field&gt;&lt;id&gt;LINES_UPDATED&lt;/id&gt;&lt;enabled&gt;Y&lt;/enabled&gt;&lt;name&gt;LINES_UPDATED&lt;/name&gt;&lt;/field&gt;&lt;field&gt;&lt;id&gt;LINES_INPUT&lt;/id&gt;&lt;enabled&gt;Y&lt;/enabled&gt;&lt;name&gt;LINES_INPUT&lt;/name&gt;&lt;/field&gt;&lt;field&gt;&lt;id&gt;LINES_OUTPUT&lt;/id&gt;&lt;enabled&gt;Y&lt;/enabled&gt;&lt;name&gt;LINES_OUTPUT&lt;/name&gt;&lt;/field&gt;&lt;field&gt;&lt;id&gt;LINES_REJECTED&lt;/id&gt;&lt;enabled&gt;Y&lt;/enabled&gt;&lt;name&gt;LINES_REJECTED&lt;/name&gt;&lt;/field&gt;&lt;field&gt;&lt;id&gt;ERRORS&lt;/id&gt;&lt;enabled&gt;Y&lt;/enabled&gt;&lt;name&gt;ERRORS&lt;/name&gt;&lt;/field&gt;&lt;field&gt;&lt;id&gt;LOG_FIELD&lt;/id&gt;&lt;enabled&gt;N&lt;/enabled&gt;&lt;name&gt;LOG_FIELD&lt;/name&gt;&lt;/field&gt;&lt;/step-log-table&gt;</tspan><tspan x="0" y="504" font-family="'MyriadPro-Regular'" font-size="12">&lt;metrics-log-table&gt;&lt;connection/&gt;</tspan><tspan x="0" y="518.4" font-family="'MyriadPro-Regular'" font-size="12">&lt;schema/&gt;</tspan><tspan x="0" y="532.8" font-family="'MyriadPro-Regular'" font-size="12">&lt;table/&gt;</tspan><tspan x="0" y="547.2" font-family="'MyriadPro-Regular'" font-size="12">&lt;timeout_days/&gt;</tspan><tspan x="0" y="561.6" font-family="'MyriadPro-Regular'" font-size="12">&lt;field&gt;&lt;id&gt;ID_BATCH&lt;/id&gt;&lt;enabled&gt;Y&lt;/enabled&gt;&lt;name&gt;ID_BATCH&lt;/name&gt;&lt;/field&gt;&lt;field&gt;&lt;id&gt;CHANNEL_ID&lt;/id&gt;&lt;enabled&gt;Y&lt;/enabled&gt;&lt;name&gt;CHANNEL_ID&lt;/name&gt;&lt;/field&gt;&lt;field&gt;&lt;id&gt;LOG_DATE&lt;/id&gt;&lt;enabled&gt;Y&lt;/enabled&gt;&lt;name&gt;LOG_DATE&lt;/name&gt;&lt;/field&gt;&lt;field&gt;&lt;id&gt;METRICS_DATE&lt;/id&gt;&lt;enabled&gt;Y&lt;/enabled&gt;&lt;name&gt;METRICS_DATE&lt;/name&gt;&lt;/field&gt;&lt;field&gt;&lt;id&gt;METRICS_CODE&lt;/id&gt;&lt;enabled&gt;Y&lt;/enabled&gt;&lt;name&gt;METRICS_CODE&lt;/name&gt;&lt;/field&gt;&lt;field&gt;&lt;id&gt;METRICS_DESCRIPTION&lt;/id&gt;&lt;enabled&gt;Y&lt;/enabled&gt;&lt;name&gt;METRICS_DESCRIPTION&lt;/name&gt;&lt;/field&gt;&lt;field&gt;&lt;id&gt;METRICS_SUBJECT&lt;/id&gt;&lt;enabled&gt;Y&lt;/enabled&gt;&lt;name&gt;METRICS_SUBJECT&lt;/name&gt;&lt;/field&gt;&lt;field&gt;&lt;id&gt;METRICS_TYPE&lt;/id&gt;&lt;enabled&gt;Y&lt;/enabled&gt;&lt;name&gt;METRICS_TYPE&lt;/name&gt;&lt;/field&gt;&lt;field&gt;&lt;id&gt;METRICS_VALUE&lt;/id&gt;&lt;enabled&gt;Y&lt;/enabled&gt;&lt;name&gt;METRICS_VALUE&lt;/name&gt;&lt;/field&gt;&lt;/metrics-log-table&gt;</tspan><tspan x="0" y="576" font-family="'MyriadPro-Regular'" font-size="12">    &lt;/log&gt;</tspan><tspan x="0" y="590.4" font-family="'MyriadPro-Regular'" font-size="12">    &lt;maxdate&gt;</tspan><tspan x="0" y="604.8" font-family="'MyriadPro-Regular'" font-size="12">      &lt;connection/&gt;</tspan><tspan x="0" y="619.2" font-family="'MyriadPro-Regular'" font-size="12">      &lt;table/&gt;</tspan><tspan x="0" y="633.6" font-family="'MyriadPro-Regular'" font-size="12">      &lt;field/&gt;</tspan><tspan x="0" y="648" font-family="'MyriadPro-Regular'" font-size="12">      &lt;offset&gt;0.0&lt;/offset&gt;</tspan><tspan x="0" y="662.4" font-family="'MyriadPro-Regular'" font-size="12">      &lt;maxdiff&gt;0.0&lt;/maxdiff&gt;</tspan><tspan x="0" y="676.8" font-family="'MyriadPro-Regular'" font-size="12">    &lt;/maxdate&gt;</tspan><tspan x="0" y="691.2" font-family="'MyriadPro-Regular'" font-size="12">    &lt;size_rowset&gt;10000&lt;/size_rowset&gt;</tspan><tspan x="0" y="705.6" font-family="'MyriadPro-Regular'" font-size="12">    &lt;sleep_time_empty&gt;50&lt;/sleep_time_empty&gt;</tspan><tspan x="0" y="720" font-family="'MyriadPro-Regular'" font-size="12">    &lt;sleep_time_full&gt;50&lt;/sleep_time_full&gt;</tspan><tspan x="0" y="734.4" font-family="'MyriadPro-Regular'" font-size="12">    &lt;unique_connections&gt;N&lt;/unique_connections&gt;</tspan><tspan x="0" y="748.8" font-family="'MyriadPro-Regular'" font-size="12">    &lt;feedback_shown&gt;Y&lt;/feedback_shown&gt;</tspan><tspan x="0" y="763.2" font-family="'MyriadPro-Regular'" font-size="12">    &lt;feedback_size&gt;50000&lt;/feedback_size&gt;</tspan><tspan x="0" y="777.6" font-family="'MyriadPro-Regular'" font-size="12">    &lt;using_thread_priorities&gt;Y&lt;/using_thread_priorities&gt;</tspan><tspan x="0" y="792" font-family="'MyriadPro-Regular'" font-size="12">    &lt;shared_objects_file/&gt;</tspan><tspan x="0" y="806.4" font-family="'MyriadPro-Regular'" font-size="12">    &lt;capture_step_performance&gt;N&lt;/capture_step_performance&gt;</tspan><tspan x="0" y="820.8" font-family="'MyriadPro-Regular'" font-size="12">    &lt;step_performance_capturing_delay&gt;1000&lt;/step_performance_capturing_delay&gt;</tspan><tspan x="0" y="835.2" font-family="'MyriadPro-Regular'" font-size="12">    &lt;step_performance_capturing_size_limit&gt;100&lt;/step_performance_capturing_size_limit&gt;</tspan><tspan x="0" y="849.6" font-family="'MyriadPro-Regular'" font-size="12">    &lt;dependencies&gt;</tspan><tspan x="0" y="864" font-family="'MyriadPro-Regular'" font-size="12">    &lt;/dependencies&gt;</tspan><tspan x="0" y="878.4" font-family="'MyriadPro-Regular'" font-size="12">    &lt;partitionschemas&gt;</tspan><tspan x="0" y="892.8" font-family="'MyriadPro-Regular'" font-size="12">    &lt;/partitionschemas&gt;</tspan><tspan x="0" y="907.2" font-family="'MyriadPro-Regular'" font-size="12">    &lt;slaveservers&gt;</tspan><tspan x="0" y="921.6" font-family="'MyriadPro-Regular'" font-size="12">    &lt;/slaveservers&gt;</tspan><tspan x="0" y="936" font-family="'MyriadPro-Regular'" font-size="12">    &lt;clusterschemas&gt;</tspan><tspan x="0" y="950.4" font-family="'MyriadPro-Regular'" font-size="12">    &lt;/clusterschemas&gt;</tspan><tspan x="0" y="964.8" font-family="'MyriadPro-Regular'" font-size="12">  &lt;created_user&gt;-&lt;/created_user&gt;</tspan><tspan x="0" y="979.2" font-family="'MyriadPro-Regular'" font-size="12">  &lt;created_date&gt;2015&amp;#x2f;05&amp;#x2f;12 14&amp;#x3a;49&amp;#x3a;02.320&lt;/created_date&gt;</tspan><tspan x="0" y="993.6" font-family="'MyriadPro-Regular'" font-size="12">  &lt;modified_user&gt;-&lt;/modified_user&gt;</tspan><tspan x="0" y="1008" font-family="'MyriadPro-Regular'" font-size="12">  &lt;modified_date&gt;2015&amp;#x2f;05&amp;#x2f;12 14&amp;#x3a;49&amp;#x3a;02.320&lt;/modified_date&gt;</tspan><tspan x="0" y="1022.4" font-family="'MyriadPro-Regular'" font-size="12">    &lt;key_for_session_key&gt;H4sIAAAAAAAAAAMAAAAAAAAAAAA&amp;#x3d;&lt;/key_for_session_key&gt;</tspan><tspan x="0" y="1036.8" font-family="'MyriadPro-Regular'" font-size="12">    &lt;is_key_private&gt;N&lt;/is_key_private&gt;</tspan><tspan x="0" y="1051.2" font-family="'MyriadPro-Regular'" font-size="12">  &lt;/info&gt;</tspan><tspan x="0" y="1065.6" font-family="'MyriadPro-Regular'" font-size="12">  &lt;notepads&gt;</tspan><tspan x="0" y="1080" font-family="'MyriadPro-Regular'" font-size="12">  &lt;/notepads&gt;</tspan><tspan x="0" y="1094.4" font-family="'MyriadPro-Regular'" font-size="12">  &lt;connection&gt;</tspan><tspan x="0" y="1108.8" font-family="'MyriadPro-Regular'" font-size="12">    &lt;name&gt;AgileBI&lt;/name&gt;</tspan><tspan x="0" y="1123.2" font-family="'MyriadPro-Regular'" font-size="12">    &lt;server&gt;localhost&lt;/server&gt;</tspan><tspan x="0" y="1137.6" font-family="'MyriadPro-Regular'" font-size="12">    &lt;type&gt;MONETDB&lt;/type&gt;</tspan><tspan x="0" y="1152" font-family="'MyriadPro-Regular'" font-size="12">    &lt;access&gt;Native&lt;/access&gt;</tspan><tspan x="0" y="1166.4" font-family="'MyriadPro-Regular'" font-size="12">    &lt;database&gt;pentaho-instaview&lt;/database&gt;</tspan><tspan x="0" y="1180.8" font-family="'MyriadPro-Regular'" font-size="12">    &lt;port&gt;50006&lt;/port&gt;</tspan><tspan x="0" y="1195.2" font-family="'MyriadPro-Regular'" font-size="12">    &lt;username&gt;monetdb&lt;/username&gt;</tspan><tspan x="0" y="1209.6" font-family="'MyriadPro-Regular'" font-size="12">    &lt;password&gt;Encrypted 2be98afc86aa7f2e4cb14a17edb86abd8&lt;/password&gt;</tspan><tspan x="0" y="1224" font-family="'MyriadPro-Regular'" font-size="12">    &lt;servername/&gt;</tspan><tspan x="0" y="1238.4" font-family="'MyriadPro-Regular'" font-size="12">    &lt;data_tablespace/&gt;</tspan><tspan x="0" y="1252.8" font-family="'MyriadPro-Regular'" font-size="12">    &lt;index_tablespace/&gt;</tspan><tspan x="0" y="1267.2" font-family="'MyriadPro-Regular'" font-size="12">    &lt;read_only&gt;true&lt;/read_only&gt;</tspan><tspan x="0" y="1281.6" font-family="'MyriadPro-Regular'" font-size="12">    &lt;attributes&gt;</tspan><tspan x="0" y="1296" font-family="'MyriadPro-Regular'" font-size="12">      &lt;attribute&gt;&lt;code&gt;EXTRA_OPTION_INFOBRIGHT.characterEncoding&lt;/code&gt;&lt;attribute&gt;UTF-8&lt;/attribute&gt;&lt;/attribute&gt;</tspan><tspan x="0" y="1310.4" font-family="'MyriadPro-Regular'" font-size="12">      &lt;attribute&gt;&lt;code&gt;EXTRA_OPTION_MYSQL.defaultFetchSize&lt;/code&gt;&lt;attribute&gt;500&lt;/attribute&gt;&lt;/attribute&gt;</tspan><tspan x="0" y="1324.8" font-family="'MyriadPro-Regular'" font-size="12">      &lt;attribute&gt;&lt;code&gt;EXTRA_OPTION_MYSQL.useCursorFetch&lt;/code&gt;&lt;attribute&gt;true&lt;/attribute&gt;&lt;/attribute&gt;</tspan><tspan x="0" y="1339.2" font-family="'MyriadPro-Regular'" font-size="12">      &lt;attribute&gt;&lt;code&gt;PORT_NUMBER&lt;/code&gt;&lt;attribute&gt;50006&lt;/attribute&gt;&lt;/attribute&gt;</tspan><tspan x="0" y="1353.6" font-family="'MyriadPro-Regular'" font-size="12">      &lt;attribute&gt;&lt;code&gt;PRESERVE_RESERVED_WORD_CASE&lt;/code&gt;&lt;attribute&gt;Y&lt;/attribute&gt;&lt;/attribute&gt;</tspan><tspan x="0" y="1368" font-family="'MyriadPro-Regular'" font-size="12">      &lt;attribute&gt;&lt;code&gt;SUPPORTS_BOOLEAN_DATA_TYPE&lt;/code&gt;&lt;attribute&gt;Y&lt;/attribute&gt;&lt;/attribute&gt;</tspan><tspan x="0" y="1382.4" font-family="'MyriadPro-Regular'" font-size="12">      &lt;attribute&gt;&lt;code&gt;SUPPORTS_TIMESTAMP_DATA_TYPE&lt;/code&gt;&lt;attribute&gt;Y&lt;/attribute&gt;&lt;/attribute&gt;</tspan><tspan x="0" y="1396.8" font-family="'MyriadPro-Regular'" font-size="12">    &lt;/attributes&gt;</tspan><tspan x="0" y="1411.2" font-family="'MyriadPro-Regular'" font-size="12">  &lt;/connection&gt;</tspan><tspan x="0" y="1425.6" font-family="'MyriadPro-Regular'" font-size="12">  &lt;connection&gt;</tspan><tspan x="0" y="1440" font-family="'MyriadPro-Regular'" font-size="12">    &lt;name&gt;Data Services&lt;/name&gt;</tspan><tspan x="0" y="1454.4" font-family="'MyriadPro-Regular'" font-size="12">    &lt;server&gt;localhost&lt;/server&gt;</tspan><tspan x="0" y="1468.8" font-family="'MyriadPro-Regular'" font-size="12">    &lt;type&gt;KettleThin&lt;/type&gt;</tspan><tspan x="0" y="1483.2" font-family="'MyriadPro-Regular'" font-size="12">    &lt;access&gt;Native&lt;/access&gt;</tspan><tspan x="0" y="1497.6" font-family="'MyriadPro-Regular'" font-size="12">    &lt;database&gt;kettle&lt;/database&gt;</tspan><tspan x="0" y="1512" font-family="'MyriadPro-Regular'" font-size="12">    &lt;port&gt;0000&lt;/port&gt;</tspan><tspan x="0" y="1526.4" font-family="'MyriadPro-Regular'" font-size="12">    &lt;username/&gt;</tspan><tspan x="0" y="1540.8" font-family="'MyriadPro-Regular'" font-size="12">    &lt;password&gt;Encrypted &lt;/password&gt;</tspan><tspan x="0" y="1555.2" font-family="'MyriadPro-Regular'" font-size="12">    &lt;servername/&gt;</tspan><tspan x="0" y="1569.6" font-family="'MyriadPro-Regular'" font-size="12">    &lt;data_tablespace/&gt;</tspan><tspan x="0" y="1584" font-family="'MyriadPro-Regular'" font-size="12">    &lt;index_tablespace/&gt;</tspan><tspan x="0" y="1598.4" font-family="'MyriadPro-Regular'" font-size="12">    &lt;read_only&gt;true&lt;/read_only&gt;</tspan><tspan x="0" y="1612.8" font-family="'MyriadPro-Regular'" font-size="12">    &lt;attributes&gt;</tspan><tspan x="0" y="1627.2" font-family="'MyriadPro-Regular'" font-size="12">      &lt;attribute&gt;&lt;code&gt;EXTRA_OPTION_INFOBRIGHT.characterEncoding&lt;/code&gt;&lt;attribute&gt;UTF-8&lt;/attribute&gt;&lt;/attribute&gt;</tspan><tspan x="0" y="1641.6" font-family="'MyriadPro-Regular'" font-size="12">      &lt;attribute&gt;&lt;code&gt;EXTRA_OPTION_KettleThin.local&lt;/code&gt;&lt;attribute&gt;true&lt;/attribute&gt;&lt;/attribute&gt;</tspan><tspan x="0" y="1656" font-family="'MyriadPro-Regular'" font-size="12">      &lt;attribute&gt;&lt;code&gt;EXTRA_OPTION_MYSQL.defaultFetchSize&lt;/code&gt;&lt;attribute&gt;500&lt;/attribute&gt;&lt;/attribute&gt;</tspan><tspan x="0" y="1670.4" font-family="'MyriadPro-Regular'" font-size="12">      &lt;attribute&gt;&lt;code&gt;EXTRA_OPTION_MYSQL.useCursorFetch&lt;/code&gt;&lt;attribute&gt;true&lt;/attribute&gt;&lt;/attribute&gt;</tspan><tspan x="0" y="1684.8" font-family="'MyriadPro-Regular'" font-size="12">      &lt;attribute&gt;&lt;code&gt;PORT_NUMBER&lt;/code&gt;&lt;attribute&gt;0000&lt;/attribute&gt;&lt;/attribute&gt;</tspan><tspan x="0" y="1699.2" font-family="'MyriadPro-Regular'" font-size="12">      &lt;attribute&gt;&lt;code&gt;SUPPORTS_BOOLEAN_DATA_TYPE&lt;/code&gt;&lt;attribute&gt;Y&lt;/attribute&gt;&lt;/attribute&gt;</tspan><tspan x="0" y="1713.6" font-family="'MyriadPro-Regular'" font-size="12">      &lt;attribute&gt;&lt;code&gt;SUPPORTS_TIMESTAMP_DATA_TYPE&lt;/code&gt;&lt;attribute&gt;Y&lt;/attribute&gt;&lt;/attribute&gt;</tspan><tspan x="0" y="1728" font-family="'MyriadPro-Regular'" font-size="12">    &lt;/attributes&gt;</tspan><tspan x="0" y="1742.4" font-family="'MyriadPro-Regular'" font-size="12">  &lt;/connection&gt;</tspan><tspan x="0" y="1756.8" font-family="'MyriadPro-Regular'" font-size="12">  &lt;order&gt;</tspan><tspan x="0" y="1771.2" font-family="'MyriadPro-Regular'" font-size="12">  &lt;/order&gt;</tspan><tspan x="0" y="1785.6" font-family="'MyriadPro-Regular'" font-size="12">  &lt;step&gt;</tspan><tspan x="0" y="1800" font-family="'MyriadPro-Regular'" font-size="12">    &lt;name&gt;Avro Input&lt;/name&gt;</tspan><tspan x="0" y="1814.4" font-family="'MyriadPro-Regular'" font-size="12">    &lt;type&gt;AvroInput&lt;/type&gt;</tspan><tspan x="0" y="1828.8" font-family="'MyriadPro-Regular'" font-size="12">    &lt;description/&gt;</tspan><tspan x="0" y="1843.2" font-family="'MyriadPro-Regular'" font-size="12">    &lt;distribute&gt;Y&lt;/distribute&gt;</tspan><tspan x="0" y="1857.6" font-family="'MyriadPro-Regular'" font-size="12">    &lt;custom_distribution/&gt;</tspan><tspan x="0" y="1872" font-family="'MyriadPro-Regular'" font-size="12">    &lt;copies&gt;1&lt;/copies&gt;</tspan><tspan x="0" y="1886.4" font-family="'MyriadPro-Regular'" font-size="12">         &lt;partitioning&gt;</tspan><tspan x="0" y="1900.8" font-family="'MyriadPro-Regular'" font-size="12">           &lt;method&gt;none&lt;/method&gt;</tspan><tspan x="0" y="1915.2" font-family="'MyriadPro-Regular'" font-size="12">           &lt;schema_name/&gt;</tspan><tspan x="0" y="1929.6" font-family="'MyriadPro-Regular'" font-size="12">           &lt;/partitioning&gt;</tspan><tspan x="0" y="1958.4" font-family="'MyriadPro-Regular'" font-size="12">    &lt;json_encoded&gt;N&lt;/json_encoded&gt;</tspan><tspan x="0" y="1987.2" font-family="'MyriadPro-Regular'" font-size="12">    &lt;avro_in_field&gt;N&lt;/avro_in_field&gt;</tspan><tspan x="0" y="2016" font-family="'MyriadPro-Regular'" font-size="12">    &lt;schema_in_field&gt;N&lt;/schema_in_field&gt;</tspan><tspan x="0" y="2044.8" font-family="'MyriadPro-Regular'" font-size="12">    &lt;schema_in_field_is_path&gt;N&lt;/schema_in_field_is_path&gt;</tspan><tspan x="0" y="2073.6" font-family="'MyriadPro-Regular'" font-size="12">    &lt;cache_schemas&gt;N&lt;/cache_schemas&gt;</tspan><tspan x="0" y="2102.4" font-family="'MyriadPro-Regular'" font-size="12">    &lt;ignore_missing_fields&gt;N&lt;/ignore_missing_fields&gt;</tspan><tspan x="0" y="2116.8" font-family="'MyriadPro-Regular'" font-size="12">     &lt;cluster_schema/&gt;</tspan><tspan x="0" y="2131.2" font-family="'MyriadPro-Regular'" font-size="12"> &lt;remotesteps&gt;   &lt;input&gt;   &lt;/input&gt;   &lt;output&gt;   &lt;/output&gt; &lt;/remotesteps&gt;    &lt;GUI&gt;</tspan><tspan x="0" y="2145.6" font-family="'MyriadPro-Regular'" font-size="12">      &lt;xloc&gt;111&lt;/xloc&gt;</tspan><tspan x="0" y="2160" font-family="'MyriadPro-Regular'" font-size="12">      &lt;yloc&gt;191&lt;/yloc&gt;</tspan><tspan x="0" y="2174.4" font-family="'MyriadPro-Regular'" font-size="12">      &lt;draw&gt;Y&lt;/draw&gt;</tspan><tspan x="0" y="2188.8" font-family="'MyriadPro-Regular'" font-size="12">      &lt;/GUI&gt;</tspan><tspan x="0" y="2203.2" font-family="'MyriadPro-Regular'" font-size="12">    &lt;/step&gt;</tspan><tspan x="0" y="2232" font-family="'MyriadPro-Regular'" font-size="12">  &lt;step&gt;</tspan><tspan x="0" y="2246.4" font-family="'MyriadPro-Regular'" font-size="12">    &lt;name&gt;S3 File Output&lt;/name&gt;</tspan><tspan x="0" y="2260.8" font-family="'MyriadPro-Regular'" font-size="12">    &lt;type&gt;S3FileOutputPlugin&lt;/type&gt;</tspan><tspan x="0" y="2275.2" font-family="'MyriadPro-Regular'" font-size="12">    &lt;description/&gt;</tspan><tspan x="0" y="2289.6" font-family="'MyriadPro-Regular'" font-size="12">    &lt;distribute&gt;Y&lt;/distribute&gt;</tspan><tspan x="0" y="2304" font-family="'MyriadPro-Regular'" font-size="12">    &lt;custom_distribution/&gt;</tspan><tspan x="0" y="2318.4" font-family="'MyriadPro-Regular'" font-size="12">    &lt;copies&gt;1&lt;/copies&gt;</tspan><tspan x="0" y="2332.8" font-family="'MyriadPro-Regular'" font-size="12">         &lt;partitioning&gt;</tspan><tspan x="0" y="2347.2" font-family="'MyriadPro-Regular'" font-size="12">           &lt;method&gt;none&lt;/method&gt;</tspan><tspan x="0" y="2361.6" font-family="'MyriadPro-Regular'" font-size="12">           &lt;schema_name/&gt;</tspan><tspan x="0" y="2376" font-family="'MyriadPro-Regular'" font-size="12">           &lt;/partitioning&gt;</tspan><tspan x="0" y="2390.4" font-family="'MyriadPro-Regular'" font-size="12">    &lt;separator&gt;&amp;#x3b;&lt;/separator&gt;</tspan><tspan x="0" y="2404.8" font-family="'MyriadPro-Regular'" font-size="12">    &lt;enclosure&gt;&amp;#x22;&lt;/enclosure&gt;</tspan><tspan x="0" y="2419.2" font-family="'MyriadPro-Regular'" font-size="12">    &lt;enclosure_forced&gt;N&lt;/enclosure_forced&gt;</tspan><tspan x="0" y="2433.6" font-family="'MyriadPro-Regular'" font-size="12">    &lt;enclosure_fix_disabled&gt;N&lt;/enclosure_fix_disabled&gt;</tspan><tspan x="0" y="2448" font-family="'MyriadPro-Regular'" font-size="12">    &lt;header&gt;Y&lt;/header&gt;</tspan><tspan x="0" y="2462.4" font-family="'MyriadPro-Regular'" font-size="12">    &lt;footer&gt;N&lt;/footer&gt;</tspan><tspan x="0" y="2476.8" font-family="'MyriadPro-Regular'" font-size="12">    &lt;format&gt;DOS&lt;/format&gt;</tspan><tspan x="0" y="2491.2" font-family="'MyriadPro-Regular'" font-size="12">    &lt;compression&gt;None&lt;/compression&gt;</tspan><tspan x="0" y="2505.6" font-family="'MyriadPro-Regular'" font-size="12">    &lt;encoding/&gt;</tspan><tspan x="0" y="2520" font-family="'MyriadPro-Regular'" font-size="12">    &lt;endedLine/&gt;</tspan><tspan x="0" y="2534.4" font-family="'MyriadPro-Regular'" font-size="12">    &lt;fileNameInField&gt;N&lt;/fileNameInField&gt;</tspan><tspan x="0" y="2548.8" font-family="'MyriadPro-Regular'" font-size="12">    &lt;fileNameField/&gt;</tspan><tspan x="0" y="2563.2" font-family="'MyriadPro-Regular'" font-size="12">    &lt;create_parent_folder&gt;Y&lt;/create_parent_folder&gt;</tspan><tspan x="0" y="2577.6" font-family="'MyriadPro-Regular'" font-size="12">    &lt;file&gt;</tspan><tspan x="0" y="2592" font-family="'MyriadPro-Regular'" font-size="12">      &lt;name/&gt;</tspan><tspan x="0" y="2606.4" font-family="'MyriadPro-Regular'" font-size="12">      &lt;is_command&gt;N&lt;/is_command&gt;</tspan><tspan x="0" y="2620.8" font-family="'MyriadPro-Regular'" font-size="12">      &lt;servlet_output&gt;N&lt;/servlet_output&gt;</tspan><tspan x="0" y="2635.2" font-family="'MyriadPro-Regular'" font-size="12">      &lt;do_not_open_new_file_init&gt;N&lt;/do_not_open_new_file_init&gt;</tspan><tspan x="0" y="2649.6" font-family="'MyriadPro-Regular'" font-size="12">      &lt;extention&gt;txt&lt;/extention&gt;</tspan><tspan x="0" y="2664" font-family="'MyriadPro-Regular'" font-size="12">      &lt;append&gt;N&lt;/append&gt;</tspan><tspan x="0" y="2678.4" font-family="'MyriadPro-Regular'" font-size="12">      &lt;split&gt;N&lt;/split&gt;</tspan><tspan x="0" y="2692.8" font-family="'MyriadPro-Regular'" font-size="12">      &lt;haspartno&gt;N&lt;/haspartno&gt;</tspan><tspan x="0" y="2707.2" font-family="'MyriadPro-Regular'" font-size="12">      &lt;add_date&gt;N&lt;/add_date&gt;</tspan><tspan x="0" y="2721.6" font-family="'MyriadPro-Regular'" font-size="12">      &lt;add_time&gt;N&lt;/add_time&gt;</tspan><tspan x="0" y="2736" font-family="'MyriadPro-Regular'" font-size="12">      &lt;SpecifyFormat&gt;N&lt;/SpecifyFormat&gt;</tspan><tspan x="0" y="2750.4" font-family="'MyriadPro-Regular'" font-size="12">      &lt;date_time_format/&gt;</tspan><tspan x="0" y="2764.8" font-family="'MyriadPro-Regular'" font-size="12">      &lt;add_to_result_filenames&gt;Y&lt;/add_to_result_filenames&gt;</tspan><tspan x="0" y="2779.2" font-family="'MyriadPro-Regular'" font-size="12">      &lt;pad&gt;N&lt;/pad&gt;</tspan><tspan x="0" y="2793.6" font-family="'MyriadPro-Regular'" font-size="12">      &lt;fast_dump&gt;N&lt;/fast_dump&gt;</tspan><tspan x="0" y="2808" font-family="'MyriadPro-Regular'" font-size="12">      &lt;splitevery&gt;0&lt;/splitevery&gt;</tspan><tspan x="0" y="2822.4" font-family="'MyriadPro-Regular'" font-size="12">    &lt;/file&gt;</tspan><tspan x="0" y="2836.8" font-family="'MyriadPro-Regular'" font-size="12">    &lt;fields&gt;</tspan><tspan x="0" y="2851.2" font-family="'MyriadPro-Regular'" font-size="12">    &lt;/fields&gt;</tspan><tspan x="0" y="2865.6" font-family="'MyriadPro-Regular'" font-size="12">      &lt;access_key&gt;Encrypted &lt;/access_key&gt;</tspan><tspan x="0" y="2880" font-family="'MyriadPro-Regular'" font-size="12">      &lt;secret_key&gt;Encrypted &lt;/secret_key&gt;</tspan><tspan x="0" y="2894.4" font-family="'MyriadPro-Regular'" font-size="12">     &lt;cluster_schema/&gt;</tspan><tspan x="0" y="2908.8" font-family="'MyriadPro-Regular'" font-size="12"> &lt;remotesteps&gt;   &lt;input&gt;   &lt;/input&gt;   &lt;output&gt;   &lt;/output&gt; &lt;/remotesteps&gt;    &lt;GUI&gt;</tspan><tspan x="0" y="2923.2" font-family="'MyriadPro-Regular'" font-size="12">      &lt;xloc&gt;244&lt;/xloc&gt;</tspan><tspan x="0" y="2937.6" font-family="'MyriadPro-Regular'" font-size="12">      &lt;yloc&gt;132&lt;/yloc&gt;</tspan><tspan x="0" y="2952" font-family="'MyriadPro-Regular'" font-size="12">      &lt;draw&gt;Y&lt;/draw&gt;</tspan><tspan x="0" y="2966.4" font-family="'MyriadPro-Regular'" font-size="12">      &lt;/GUI&gt;</tspan><tspan x="0" y="2980.8" font-family="'MyriadPro-Regular'" font-size="12">    &lt;/step&gt;</tspan><tspan x="0" y="3009.6" font-family="'MyriadPro-Regular'" font-size="12">  &lt;step&gt;</tspan><tspan x="0" y="3024" font-family="'MyriadPro-Regular'" font-size="12">    &lt;name&gt;Teradata Fastload Bulk Loader&lt;/name&gt;</tspan><tspan x="0" y="3038.4" font-family="'MyriadPro-Regular'" font-size="12">    &lt;type&gt;TeraFast&lt;/type&gt;</tspan><tspan x="0" y="3052.8" font-family="'MyriadPro-Regular'" font-size="12">    &lt;description/&gt;</tspan><tspan x="0" y="3067.2" font-family="'MyriadPro-Regular'" font-size="12">    &lt;distribute&gt;Y&lt;/distribute&gt;</tspan><tspan x="0" y="3081.6" font-family="'MyriadPro-Regular'" font-size="12">    &lt;custom_distribution/&gt;</tspan><tspan x="0" y="3096" font-family="'MyriadPro-Regular'" font-size="12">    &lt;copies&gt;1&lt;/copies&gt;</tspan><tspan x="0" y="3110.4" font-family="'MyriadPro-Regular'" font-size="12">         &lt;partitioning&gt;</tspan><tspan x="0" y="3124.8" font-family="'MyriadPro-Regular'" font-size="12">           &lt;method&gt;none&lt;/method&gt;</tspan><tspan x="0" y="3139.2" font-family="'MyriadPro-Regular'" font-size="12">           &lt;schema_name/&gt;</tspan><tspan x="0" y="3153.6" font-family="'MyriadPro-Regular'" font-size="12">           &lt;/partitioning&gt;</tspan><tspan x="0" y="3168" font-family="'MyriadPro-Regular'" font-size="12">&lt;connection/&gt;</tspan><tspan x="0" y="3182.4" font-family="'MyriadPro-Regular'" font-size="12">&lt;controlfile_path/&gt;</tspan><tspan x="0" y="3196.8" font-family="'MyriadPro-Regular'" font-size="12">&lt;datafile_path&gt;&amp;#x24;&amp;#x7b;Internal.Step.CopyNr&amp;#x7d;.dat&lt;/datafile_path&gt;</tspan><tspan x="0" y="3211.2" font-family="'MyriadPro-Regular'" font-size="12">&lt;error_limit&gt;25&lt;/error_limit&gt;</tspan><tspan x="0" y="3225.6" font-family="'MyriadPro-Regular'" font-size="12">&lt;fastload_path&gt;&amp;#x2f;usr&amp;#x2f;bin&amp;#x2f;fastload&lt;/fastload_path&gt;</tspan><tspan x="0" y="3240" font-family="'MyriadPro-Regular'" font-size="12">&lt;logfile_path/&gt;</tspan><tspan x="0" y="3254.4" font-family="'MyriadPro-Regular'" font-size="12">&lt;sessions&gt;2&lt;/sessions&gt;</tspan><tspan x="0" y="3268.8" font-family="'MyriadPro-Regular'" font-size="12">&lt;target_table&gt;&amp;#x24;&amp;#x7b;TARGET_TABLE&amp;#x7d;_&amp;#x24;&amp;#x7b;RUN_ID&amp;#x7d;&lt;/target_table&gt;</tspan><tspan x="0" y="3283.2" font-family="'MyriadPro-Regular'" font-size="12">&lt;truncate_table&gt;Y&lt;/truncate_table&gt;</tspan><tspan x="0" y="3297.6" font-family="'MyriadPro-Regular'" font-size="12">&lt;use_control_file&gt;Y&lt;/use_control_file&gt;</tspan><tspan x="0" y="3312" font-family="'MyriadPro-Regular'" font-size="12">&lt;variable_substitution&gt;Y&lt;/variable_substitution&gt;</tspan><tspan x="0" y="3326.4" font-family="'MyriadPro-Regular'" font-size="12">     &lt;cluster_schema/&gt;</tspan><tspan x="0" y="3340.8" font-family="'MyriadPro-Regular'" font-size="12"> &lt;remotesteps&gt;   &lt;input&gt;   &lt;/input&gt;   &lt;output&gt;   &lt;/output&gt; &lt;/remotesteps&gt;    &lt;GUI&gt;</tspan><tspan x="0" y="3355.2" font-family="'MyriadPro-Regular'" font-size="12">      &lt;xloc&gt;312&lt;/xloc&gt;</tspan><tspan x="0" y="3369.6" font-family="'MyriadPro-Regular'" font-size="12">      &lt;yloc&gt;281&lt;/yloc&gt;</tspan><tspan x="0" y="3384" font-family="'MyriadPro-Regular'" font-size="12">      &lt;draw&gt;Y&lt;/draw&gt;</tspan><tspan x="0" y="3398.4" font-family="'MyriadPro-Regular'" font-size="12">      &lt;/GUI&gt;</tspan><tspan x="0" y="3412.8" font-family="'MyriadPro-Regular'" font-size="12">    &lt;/step&gt;</tspan><tspan x="0" y="3441.6" font-family="'MyriadPro-Regular'" font-size="12">  &lt;step&gt;</tspan><tspan x="0" y="3456" font-family="'MyriadPro-Regular'" font-size="12">    &lt;name&gt;Teradata TPT Bulk Loader&lt;/name&gt;</tspan><tspan x="0" y="3470.4" font-family="'MyriadPro-Regular'" font-size="12">    &lt;type&gt;TeraDataBulkLoader&lt;/type&gt;</tspan><tspan x="0" y="3484.8" font-family="'MyriadPro-Regular'" font-size="12">    &lt;description/&gt;</tspan><tspan x="0" y="3499.2" font-family="'MyriadPro-Regular'" font-size="12">    &lt;distribute&gt;Y&lt;/distribute&gt;</tspan><tspan x="0" y="3513.6" font-family="'MyriadPro-Regular'" font-size="12">    &lt;custom_distribution/&gt;</tspan><tspan x="0" y="3528" font-family="'MyriadPro-Regular'" font-size="12">    &lt;copies&gt;1&lt;/copies&gt;</tspan><tspan x="0" y="3542.4" font-family="'MyriadPro-Regular'" font-size="12">         &lt;partitioning&gt;</tspan><tspan x="0" y="3556.8" font-family="'MyriadPro-Regular'" font-size="12">           &lt;method&gt;none&lt;/method&gt;</tspan><tspan x="0" y="3571.2" font-family="'MyriadPro-Regular'" font-size="12">           &lt;schema_name/&gt;</tspan><tspan x="0" y="3585.6" font-family="'MyriadPro-Regular'" font-size="12">           &lt;/partitioning&gt;</tspan><tspan x="0" y="3600" font-family="'MyriadPro-Regular'" font-size="12">    &lt;connection/&gt;</tspan><tspan x="0" y="3614.4" font-family="'MyriadPro-Regular'" font-size="12">    &lt;generateScript&gt;Y&lt;/generateScript&gt;</tspan><tspan x="0" y="3628.8" font-family="'MyriadPro-Regular'" font-size="12">    &lt;tbuildPath/&gt;</tspan><tspan x="0" y="3643.2" font-family="'MyriadPro-Regular'" font-size="12">    &lt;tbuildLibPath/&gt;</tspan><tspan x="0" y="3657.6" font-family="'MyriadPro-Regular'" font-size="12">    &lt;libPath/&gt;</tspan><tspan x="0" y="3672" font-family="'MyriadPro-Regular'" font-size="12">    &lt;tdicuLibPath/&gt;</tspan><tspan x="0" y="3686.4" font-family="'MyriadPro-Regular'" font-size="12">    &lt;copLibPath/&gt;</tspan><tspan x="0" y="3700.8" font-family="'MyriadPro-Regular'" font-size="12">    &lt;twbRoot/&gt;</tspan><tspan x="0" y="3715.2" font-family="'MyriadPro-Regular'" font-size="12">    &lt;installPath&gt;&amp;#x2f;opt&amp;#x2f;teradata&amp;#x2f;client&amp;#x2f;14.00&lt;/installPath&gt;</tspan><tspan x="0" y="3729.6" font-family="'MyriadPro-Regular'" font-size="12">    &lt;jobName/&gt;</tspan><tspan x="0" y="3744" font-family="'MyriadPro-Regular'" font-size="12">    &lt;schema/&gt;</tspan><tspan x="0" y="3758.4" font-family="'MyriadPro-Regular'" font-size="12">    &lt;table/&gt;</tspan><tspan x="0" y="3772.8" font-family="'MyriadPro-Regular'" font-size="12">    &lt;logTable/&gt;</tspan><tspan x="0" y="3787.2" font-family="'MyriadPro-Regular'" font-size="12">    &lt;workTable/&gt;</tspan><tspan x="0" y="3801.6" font-family="'MyriadPro-Regular'" font-size="12">    &lt;errorTable/&gt;</tspan><tspan x="0" y="3816" font-family="'MyriadPro-Regular'" font-size="12">    &lt;errorTable2/&gt;</tspan><tspan x="0" y="3830.4" font-family="'MyriadPro-Regular'" font-size="12">    &lt;dropLogTable&gt;N&lt;/dropLogTable&gt;</tspan><tspan x="0" y="3844.8" font-family="'MyriadPro-Regular'" font-size="12">    &lt;dropWorkTable&gt;N&lt;/dropWorkTable&gt;</tspan><tspan x="0" y="3859.2" font-family="'MyriadPro-Regular'" font-size="12">    &lt;dropErrorTable&gt;N&lt;/dropErrorTable&gt;</tspan><tspan x="0" y="3873.6" font-family="'MyriadPro-Regular'" font-size="12">    &lt;dropErrorTable2&gt;N&lt;/dropErrorTable2&gt;</tspan><tspan x="0" y="3888" font-family="'MyriadPro-Regular'" font-size="12">    &lt;ignoreDupUpdate&gt;N&lt;/ignoreDupUpdate&gt;</tspan><tspan x="0" y="3902.4" font-family="'MyriadPro-Regular'" font-size="12">    &lt;insertMissingUpdate&gt;N&lt;/insertMissingUpdate&gt;</tspan><tspan x="0" y="3916.8" font-family="'MyriadPro-Regular'" font-size="12">    &lt;ignoreMissingUpdate&gt;N&lt;/ignoreMissingUpdate&gt;</tspan><tspan x="0" y="3931.2" font-family="'MyriadPro-Regular'" font-size="12">    &lt;accessLogFile/&gt;</tspan><tspan x="0" y="3945.6" font-family="'MyriadPro-Regular'" font-size="12">    &lt;updateLogFile/&gt;</tspan><tspan x="0" y="3960" font-family="'MyriadPro-Regular'" font-size="12">    &lt;fifoFileName/&gt;</tspan><tspan x="0" y="3974.4" font-family="'MyriadPro-Regular'" font-size="12">    &lt;randomizeFifoFilename&gt;N&lt;/randomizeFifoFilename&gt;</tspan><tspan x="0" y="3988.8" font-family="'MyriadPro-Regular'" font-size="12">    &lt;scriptFileName/&gt;</tspan><tspan x="0" y="4003.2" font-family="'MyriadPro-Regular'" font-size="12">    &lt;actionType&gt;0&lt;/actionType&gt;</tspan><tspan x="0" y="4017.6" font-family="'MyriadPro-Regular'" font-size="12">    &lt;existingScriptFile/&gt;</tspan><tspan x="0" y="4032" font-family="'MyriadPro-Regular'" font-size="12">    &lt;substituteScriptFile&gt;N&lt;/substituteScriptFile&gt;</tspan><tspan x="0" y="4046.4" font-family="'MyriadPro-Regular'" font-size="12">    &lt;existingVariableFile/&gt;</tspan><tspan x="0" y="4060.8" font-family="'MyriadPro-Regular'" font-size="12">    &lt;substituteVariableFile&gt;N&lt;/substituteVariableFile&gt;</tspan><tspan x="0" y="4075.2" font-family="'MyriadPro-Regular'" font-size="12">    &lt;lookup&gt;</tspan><tspan x="0" y="4089.6" font-family="'MyriadPro-Regular'" font-size="12">    &lt;/lookup&gt;</tspan><tspan x="0" y="4104" font-family="'MyriadPro-Regular'" font-size="12">     &lt;cluster_schema/&gt;</tspan><tspan x="0" y="4118.4" font-family="'MyriadPro-Regular'" font-size="12"> &lt;remotesteps&gt;   &lt;input&gt;   &lt;/input&gt;   &lt;output&gt;   &lt;/output&gt; &lt;/remotesteps&gt;    &lt;GUI&gt;</tspan><tspan x="0" y="4132.8" font-family="'MyriadPro-Regular'" font-size="12">      &lt;xloc&gt;332&lt;/xloc&gt;</tspan><tspan x="0" y="4147.2" font-family="'MyriadPro-Regular'" font-size="12">      &lt;yloc&gt;379&lt;/yloc&gt;</tspan><tspan x="0" y="4161.6" font-family="'MyriadPro-Regular'" font-size="12">      &lt;draw&gt;Y&lt;/draw&gt;</tspan><tspan x="0" y="4176" font-family="'MyriadPro-Regular'" font-size="12">      &lt;/GUI&gt;</tspan><tspan x="0" y="4190.4" font-family="'MyriadPro-Regular'" font-size="12">    &lt;/step&gt;</tspan><tspan x="0" y="4219.2" font-family="'MyriadPro-Regular'" font-size="12">  &lt;step_error_handling&gt;</tspan><tspan x="0" y="4233.6" font-family="'MyriadPro-Regular'" font-size="12">  &lt;/step_error_handling&gt;</tspan><tspan x="0" y="4248" font-family="'MyriadPro-Regular'" font-size="12">   &lt;slave-step-copy-partition-distribution&gt;</tspan><tspan x="0" y="4262.4" font-family="'MyriadPro-Regular'" font-size="12">&lt;/slave-step-copy-partition-distribution&gt;</tspan><tspan x="0" y="4276.8" font-family="'MyriadPro-Regular'" font-size="12">   &lt;slave_transformation&gt;N&lt;/slave_transformation&gt;</tspan><tspan x="0" y="4305.6" font-family="'MyriadPro-Regular'" font-size="12">&lt;/transformation&gt;</tspan></text>
<path fill="none" d="M9,34.9c0,0.5,0.1,0.7,0.7,0.7c0.4,0,0.9-0.2,1.3-0.4v-0.9H9.7C9.2,34.2,9,34.4,9,34.9z"/>
<path fill="none" d="M29.2,32.8v2c0,0.5,0.2,0.8,0.8,0.8c0.5,0,1-0.3,1.4-0.6v-2.9C30.9,32,30.3,32,30,32
	C29.4,32,29.2,32.2,29.2,32.8z"/>
<path fill="none" d="M20.4,34.9c0,0.5,0.1,0.7,0.7,0.7c0.4,0,0.9-0.2,1.3-0.4v-0.9h-1.2C20.6,34.2,20.4,34.4,20.4,34.9z"/>
<path fill="none" d="M36,34.9c0,0.5,0.1,0.7,0.7,0.7c0.4,0,0.9-0.2,1.3-0.4v-0.9h-1.2C36.2,34.2,36,34.4,36,34.9z"/>
<path fill="#FFECCE" d="M21.1,26.4c2.2,0,4.3-0.2,5.8-0.6c1.7-0.5,2.1-1,2.1-1.1v-4.9c-2.2,1.1-6.7,1.2-7.9,1.2
	c-2.3,0-4.6-0.2-6.2-0.6c-0.8-0.2-1.4-0.4-1.8-0.6l0,5C13,25.3,15.9,26.4,21.1,26.4L21.1,26.4z"/>
<path fill="#FFECCE" d="M21.1,20.1c4,0,6.8-0.6,7.9-1.3v-5.2c-2.2,1.1-6.7,1.2-7.9,1.2c-2.3,0-4.5-0.2-6.2-0.6L13,16l0,2.8
	C14.1,19.5,17,20.1,21.1,20.1z"/>
<path fill="#FFECCE" d="M23.6,13.9c0.1,0,0.2,0,0.4,0c0.3,0,0.6-0.1,0.9-0.1c0.1,0,0.2,0,0.3,0c0.3,0,0.6-0.1,0.9-0.1
	c0,0,0.1,0,0.1,0c1.3-0.2,2.2-0.6,2.8-0.9v-0.8c-0.2-0.5-3-1.5-8-1.5c-0.8,0-1.5,0-2.2,0.1l-3.1,3c1.4,0.3,3.3,0.5,5.5,0.5
	C22,14,22.8,14,23.6,13.9z"/>
<path fill="#3D6480" d="M21.1,28.1c2.4,0,4.6-0.2,6.2-0.7c2.2-0.6,3.4-1.5,3.4-2.8V11.9c0-2.9-7.5-3.2-9.7-3.2c-0.1,0-0.3,0-0.4,0
	l-1.8,1.8c0.7,0,1.4-0.1,2.2-0.1c5,0,7.9,1,8,1.5v0.8c-0.5,0.3-1.5,0.7-2.8,0.9c0,0-0.1,0-0.1,0c-0.3,0.1-0.6,0.1-0.9,0.1
	c-0.1,0-0.2,0-0.3,0c-0.3,0-0.6,0.1-0.9,0.1c-0.1,0-0.2,0-0.4,0C22.8,14,22,14,21.1,14c-2.2,0-4.1-0.2-5.5-0.5l-0.7,0.7
	c1.6,0.4,3.8,0.6,6.2,0.6c1.1,0,5.6-0.1,7.9-1.2v5.2c-1,0.7-3.9,1.3-7.9,1.3c-4.1,0-7-0.6-8-1.3l0-2.8l-1.7,1.7v7
	C11.3,28,19.5,28.1,21.1,28.1L21.1,28.1z M13,24.7l0-5c0.5,0.2,1.1,0.4,1.8,0.6c1.7,0.4,3.9,0.6,6.2,0.6c1.1,0,5.6-0.1,7.9-1.2v4.9
	c0,0.2-0.4,0.7-2.1,1.1c-1.5,0.4-3.6,0.6-5.8,0.6h0C15.9,26.4,13,25.3,13,24.7z"/>
<polygon fill="#3D6480" points="5.3,9.9 5.3,11.8 11.7,11.8 11.7,5.5 9.8,5.5 9.8,8.5 4.6,3.3 3.3,4.7 8.5,9.9 "/>
<path fill="#3D6480" d="M6.2,30.2c0.4,0,1,0,1.6,0.1l0.1-0.7c-0.5-0.1-1.2-0.2-1.7-0.2c-1.6,0-2.3,0.7-2.3,2v2.9c0,1.3,0.6,2,2.3,2
	c0.5,0,1.2-0.1,1.7-0.2l-0.1-0.7c-0.5,0.1-1.2,0.1-1.6,0.1c-1.1,0-1.4-0.3-1.4-1.2v-2.8C4.8,30.5,5.1,30.2,6.2,30.2z"/>
<path fill="#3D6480" d="M9.9,31.2c-0.5,0-1.1,0.1-1.6,0.2l0.1,0.7c0.4-0.1,1-0.2,1.5-0.2c0.8,0,1.1,0.2,1.1,0.8v0.8H9.6
	c-1,0-1.5,0.4-1.5,1.4c0,0.9,0.4,1.4,1.3,1.4c0.6,0,1.1-0.2,1.6-0.5l0,0.4h0.7v-3.4C11.8,31.8,11.3,31.2,9.9,31.2z M10.9,35.2
	c-0.4,0.2-0.8,0.4-1.3,0.4c-0.6,0-0.7-0.2-0.7-0.7c0-0.5,0.2-0.6,0.7-0.6h1.2V35.2z"/>
<path fill="#3D6480" d="M14,33.4c-0.8-0.2-0.8-0.3-0.8-0.8c0-0.4,0.1-0.6,0.8-0.6c0.4,0,0.9,0.1,1.3,0.1l0.1-0.7
	c-0.4-0.1-0.9-0.2-1.4-0.2c-1.3,0-1.7,0.4-1.7,1.3c0,1,0.1,1.3,1.3,1.6c1,0.2,1,0.3,1,0.8s-0.1,0.7-0.9,0.7c-0.4,0-1-0.1-1.4-0.2
	L12.3,36c0.4,0.2,1,0.3,1.5,0.3c1.4,0,1.7-0.5,1.7-1.4C15.5,33.9,15.4,33.7,14,33.4z"/>
<path fill="#3D6480" d="M17.7,33.4c-0.8-0.2-0.8-0.3-0.8-0.8c0-0.4,0.1-0.6,0.8-0.6c0.4,0,0.9,0.1,1.3,0.1l0.1-0.7
	c-0.4-0.1-0.9-0.2-1.4-0.2c-1.3,0-1.7,0.4-1.7,1.3c0,1,0.1,1.3,1.3,1.6c1,0.2,1,0.3,1,0.8s-0.1,0.7-0.9,0.7c-0.4,0-1-0.1-1.4-0.2
	L15.9,36c0.4,0.2,1,0.3,1.5,0.3c1.4,0,1.7-0.5,1.7-1.4C19.2,33.9,19.1,33.7,17.7,33.4z"/>
<path fill="#3D6480" d="M21.4,31.2c-0.5,0-1.1,0.1-1.6,0.2l0.1,0.7c0.4-0.1,1-0.2,1.5-0.2c0.8,0,1.1,0.2,1.1,0.8v0.8h-1.3
	c-1,0-1.5,0.4-1.5,1.4c0,0.9,0.4,1.4,1.3,1.4c0.6,0,1.1-0.2,1.6-0.5l0,0.4h0.7v-3.4C23.2,31.8,22.8,31.2,21.4,31.2z M22.4,35.2
	c-0.4,0.2-0.8,0.4-1.3,0.4c-0.6,0-0.7-0.2-0.7-0.7c0-0.5,0.2-0.6,0.7-0.6h1.2V35.2z"/>
<path fill="#3D6480" d="M26.7,31.2c-0.6,0-1.4,0.3-2,0.5l-0.1-0.4H24v4.9h0.8v-3.7c0.5-0.3,1.3-0.5,1.6-0.5c0.3,0,0.5,0.1,0.5,0.5
	v3.7h0.8v-3.7C27.7,31.7,27.5,31.2,26.7,31.2z"/>
<path fill="#3D6480" d="M31.3,31.4c-0.4-0.1-1-0.1-1.4-0.1c-1.1,0-1.6,0.6-1.6,1.6v2c0,1,0.5,1.5,1.4,1.5c0.6,0,1.2-0.2,1.6-0.5
	l0.1,0.4h0.7v-7l-0.8,0.1V31.4z M31.3,35c-0.4,0.3-0.9,0.6-1.4,0.6c-0.6,0-0.8-0.3-0.8-0.8v-2c0-0.6,0.2-0.8,0.8-0.8
	c0.3,0,0.9,0.1,1.3,0.1V35z"/>
<path fill="#3D6480" d="M35.1,31.2c-0.5,0.2-1,0.5-1.3,0.8l0-0.7H33v4.9h0.8v-3.4c0.4-0.3,0.9-0.6,1.4-0.8L35.1,31.2z"/>
<path fill="#3D6480" d="M36.9,31.2c-0.5,0-1.1,0.1-1.6,0.2l0.1,0.7c0.4-0.1,1-0.2,1.5-0.2c0.8,0,1.1,0.2,1.1,0.8v0.8h-1.3
	c-1,0-1.5,0.4-1.5,1.4c0,0.9,0.4,1.4,1.3,1.4c0.6,0,1.1-0.2,1.6-0.5l0,0.4h0.7v-3.4C38.8,31.8,38.3,31.2,36.9,31.2z M37.9,35.2
	c-0.4,0.2-0.8,0.4-1.3,0.4c-0.6,0-0.7-0.2-0.7-0.7c0-0.5,0.2-0.6,0.7-0.6h1.2V35.2z"/>
</svg>
