<?xml version="1.0" encoding="UTF-8" standalone="no"?>
<svg
   xmlns="http://www.w3.org/2000/svg"
   xml:space="preserve"
   style="enable-background:new 0 0 64 64;"
   viewBox="0 0 64 88"
   width="64px"
   height="64px"
   y="0px"
   x="0px"
   version="1.1"
   >
<g
   transform="matrix(0.76955752,0,0,0.76955752,9.4403561,14.62936)"
   >
	<path
   style="fill:#0dc54c"
   d="M 58,88 H 6 C 2.7,88 0,85.3 0,82 V 6 C 0,2.7 2.7,0 6,0 h 36 l 22,22 v 60 c 0,3.3 -2.7,6 -6,6 z"
   class="st0"
    />
  <path
   style="fill:#08962d"
   d="M 42,0 64,22 H 42 Z"
   class="st1"
    />
  <path
   style="fill:#fdffff"
   d="m 12,34.5 v 28 h 40 v -28 z m 5,5 H 29.5 V 46 H 17 Z M 17,51 h 12.5 v 6.5 H 17 Z m 30,6.5 H 34.5 V 51 H 47 Z M 47,46 H 34.5 V 39.5 H 47 Z"
   class="st2"
    />
</g>
  <polygon
   points="9.862,9.019 4.639,3.795 3.295,5.138 8.519,10.364 5.375,10.364 5.375,12.264 11.763,12.263 11.763,5.936 9.862,5.936 "
   style="fill:#0e3a5a"
   transform="matrix(2.7365035,0,0,2.7365035,-7.0602954,-5.9689309)"
   />
</svg>