<?xml version="1.0" encoding="utf-8"?>
<svg version="1.1" xmlns="http://www.w3.org/2000/svg" x="0px" y="0px"
     width="42px" height="42px" viewBox="0 0 42 42" enable-background="new 0 0 42 42">

  <!-- ── MongoDB cylinder (centre) ── -->
  <g>
    <!-- top ellipse fill -->
    <path fill="#FFECCE" d="M13,19.2c0.1-0.5,2.9-1.5,7.9-1.5c5,0,7.9,1,8,1.5v0.8
      c-1,0.7-3.9,1.3-7.9,1.3c-4.1,0-7-0.6-8.1-1.3V19.2z"/>
    <!-- middle band -->
    <path fill="#FFECCE" d="M27,26.8c0.9-0.2,1.6-0.5,2-0.8v-5.2
      c-2.2,1.1-6.7,1.2-7.9,1.2c-2.3,0-4.6-0.2-6.2-0.6
      c-0.8-0.2-1.4-0.4-1.8-0.6v5.2c1.1,0.7,3.9,1.3,8,1.3
      C23.4,27.4,25.5,27.2,27,26.8z"/>
    <!-- bottom band -->
    <path fill="#FFECCE" d="M21.1,28.2c-2.3,0-4.6-0.2-6.2-0.6
      c-0.8-0.2-1.4-0.4-1.8-0.6v5c0,0.6,2.8,1.7,8,1.7h0
      c2.2,0,4.3-0.2,5.8-0.6c1.7-0.5,2.1-1,2.1-1.1V27
      C26.8,28.1,22.3,28.2,21.1,28.2z"/>
    <!-- outline / dark paths -->
    <path fill="#0E3A5A" d="M20.9,15.5c-2.9,0-9.6,0.3-9.6,3.2v12.5
      c0,3.3,8.1,3.4,9.7,3.4h0c2.4,0,4.6-0.2,6.2-0.7
      c2.2-0.6,3.4-1.5,3.4-2.8V18.7C30.7,15.8,23.2,15.5,20.9,15.5z
      M13,19.2c0.1-0.5,2.9-1.5,7.9-1.5c5,0,7.9,1,8,1.5v0.8
      c-1,0.7-3.9,1.3-7.9,1.3c-4.1,0-7-0.6-8.1-1.3V19.2z
      M13,20.8c0.5,0.2,1.1,0.4,1.8,0.6c1.7,0.4,3.9,0.6,6.2,0.6
      c1.1,0,5.6-0.1,7.9-1.2v5.2c-0.4,0.3-1.1,0.5-2,0.8
      c-1.5,0.4-3.6,0.6-5.9,0.6c-4.1,0-7-0.6-8-1.3V20.8z
      M29,31.5c0,0.2-0.4,0.7-2.1,1.1c-1.5,0.4-3.6,0.6-5.8,0.6h0
      c-5.2,0-8-1.1-8-1.7v-5c0.5,0.2,1.1,0.4,1.8,0.6
      c1.7,0.4,3.9,0.6,6.2,0.6c1.1,0,5.6-0.1,7.9-1.2V31.5z"/>
  </g>

  <!-- ── "MongoDB" label (top, matching other icons) ── -->
  <g>
    <path fill="#0E3A5A" d="M3.9,7.1l-0.1,5.4H3l0.2-6.7h1.1L6.2,11l1.9-5.1h1.1l0.2,6.7H8.6L8.5,7.1l-1.7,4.5H5.6L3.9,7.1z"/>
    <path fill="#0E3A5A" d="M12.2,12.6c-1.4,0-2-0.8-2-1.8V9.4c0-1,0.6-1.8,2-1.8c1.4,0,2,0.8,2,1.8v1.4
      C14.2,11.8,13.6,12.6,12.2,12.6z M12.2,8.3c-0.8,0-1.1,0.4-1.1,1.1v1.5c0,0.7,0.4,1.1,1.1,1.1
      c0.8,0,1.1-0.4,1.1-1.1V9.3C13.3,8.6,13,8.3,12.2,8.3z"/>
    <path fill="#0E3A5A" d="M18,12.5V8.8c0-0.3-0.2-0.5-0.5-0.5c-0.4,0-1.1,0.2-1.6,0.5v3.7H15V7.6h0.7L15.8,8
      c0.5-0.3,1.4-0.5,2-0.5c0.8,0,1.1,0.5,1.1,1.2v3.7H18z"/>
    <path fill="#0E3A5A" d="M23.6,8.1l-0.6,0.1c0.2,0.3,0.3,0.6,0.3,1v0.2c0,1-0.6,1.7-1.9,1.7c-0.2,0-0.3,0-0.5,0
      c-0.2,0.1-0.4,0.3-0.4,0.5c0,0.2,0.1,0.3,0.3,0.3c0.5,0,0.8,0.1,1.4,0.1c0.9,0.1,1.2,0.4,1.2,1.2
      c0,1.1-0.4,1.4-2.1,1.4c-0.4,0-1.2-0.1-1.8-0.2l0.1-0.7c0.5,0.1,1.1,0.2,1.6,0.2c1.2,0,1.4-0.2,1.4-0.7
      c0-0.4-0.1-0.5-0.7-0.5c-0.5,0-0.7-0.1-1.3-0.1c-0.7-0.1-0.9-0.4-0.9-0.9c0-0.4,0.2-0.7,0.5-0.9
      c-0.5-0.3-0.7-0.7-0.7-1.4V9.2c0-1.1,0.5-1.7,1.9-1.7c0.3,0,0.6,0,0.8,0.1h1.4V8.1z
      M21.4,8.2c-0.8,0-1.1,0.3-1.1,1v0.2c0,0.7,0.3,1,1.1,1c0.8,0,1.1-0.3,1.1-1V9.2C22.5,8.5,22.2,8.2,21.4,8.2z"/>
    <path fill="#0E3A5A" d="M26,12.6c-1.4,0-2-0.8-2-1.8V9.4c0-1,0.6-1.8,2-1.8c1.4,0,2,0.8,2,1.8v1.4
      C28,11.8,27.4,12.6,26,12.6z M26,8.3c-0.8,0-1.1,0.4-1.1,1.1v1.5c0,0.7,0.4,1.1,1.1,1.1
      c0.8,0,1.1-0.4,1.1-1.1V9.3C27.1,8.6,26.8,8.3,26,8.3z"/>
    <path fill="#0E3A5A" d="M31.2,5.8c1.6,0,2.1,0.8,2.1,1.9v2.8c0,1.1-0.5,1.9-2.1,1.9h-2.3V5.8H31.2z
      M29.7,11.7h1.4c1,0,1.3-0.4,1.3-1.2V7.8c0-0.8-0.3-1.2-1.3-1.2h-1.4V11.7z"/>
    <path fill="#0E3A5A" d="M34.3,12.5V5.8h2.6c1,0,1.6,0.5,1.6,1.3V8c0,0.5-0.2,0.9-0.8,1.1
      c0.6,0.1,1,0.5,1,1.2v0.8c0,0.9-0.6,1.4-1.6,1.4H34.3z
      M37.6,7.2c0-0.4-0.2-0.6-0.8-0.6h-1.7v2.2h1.5c0.6,0,0.9-0.3,0.9-0.8V7.2z
      M37.8,10.3c0-0.5-0.3-0.8-1-0.8h-1.7v2.3h1.7c0.6,0,0.9-0.3,0.9-0.8V10.3z"/>
  </g>

  <!-- ── Feuille MongoDB officielle, centrée sur le cylindre ── -->
  <!-- viewBox originale : 0 0 216.56 448.5 → on scale pour tenir en ~12x25px centré en (21,26) -->
  <!-- Centre cylindre : x=21, y=15.5 à 34.6 → centre y≈25. Feuille h=448.5*0.033≈14.8 → top à 25-14.8/2≈17.6 -->
  <g transform="translate(21, 17.6) scale(0.033) translate(-108, 0)">
    <path fill="#10aa50" d="M202.8,179.68c-23-101.47-71-128.49-83.18-147.59C113,21.7,106.25,5.91,106.25,5.91c-.66,9-1.83,14.7-9.51,21.54C81.36,41.16,16,94.42,10.51,209.72c-5.12,107.5,79,173.8,90.18,180.65,8.54,4.2,19,.08,24-3.77,40.54-27.84,96-102.07,78.06-206.92"/>
    <path fill="#b8c4c2" d="M109.73,333.11c-2.11,26.62-3.63,42.11-9,57.29,0,0,3.54,25.33,6,52.17l8.77,0a488.62,488.62,0,0,1,9.57-56.2C113.71,380.8,110.16,356.46,109.73,333.11Z"/>
    <path fill="#12924f" d="M125.06,386.39h0c-11.48-5.3-14.8-30.13-15.31-53.28A1090.8,1090.8,0,0,0,112.2,218.4c-.6-20.07.3-185.92-4.94-210.2,2.12,4.75,7.24,15.91,12.36,23.88,12.23,19.11,60.19,46.13,83.17,147.61C220.7,284.27,165.57,358.37,125.06,386.39Z"/>
  </g>

  <!-- ── "QL" badge (bottom-right, navy fill, cream text) ── -->
  <rect x="27" y="29" width="13" height="9" rx="2" ry="2" fill="#0E3A5A"/>
  <text x="28.8" y="36.2" font-family="Arial, sans-serif" font-size="7.2"
        font-weight="bold" fill="#FFECCE" letter-spacing="0.3">QL</text>



</svg>
