<?xml version="1.0" encoding="UTF-8" standalone="no"?>
<svg
        xmlns="http://www.w3.org/2000/svg"
        version="1.1"
        viewBox="0 0 16 16"
        class="bi bi-download"
        fill="currentColor"
        height="16"
        width="16">
    <path
            style="fill:#0e3a5a;fill-opacity:1"
            d="M.5 9.9a.5.5 0 0 1 .5.5v2.5a1 1 0 0 0 1 1h12a1 1 0 0 0 1-1v-2.5a.5.5 0 0 1 1 0v2.5a2 2 0 0 1-2 2H2a2 2 0 0 1-2-2v-2.5a.5.5 0 0 1 .5-.5z"
            fill-rule="evenodd"/>
    <path
            style="fill:#0e3a5a;fill-opacity:1"
            d="M7.646 11.854a.5.5 0 0 0 .708 0l3-3a.5.5 0 0 0-.708-.708L8.5 10.293V1.5a.5.5 0 0 0-1 0v8.793L5.354 8.146a.5.5 0 1 0-.708.708l3 3z"
            fill-rule="evenodd"/>
</svg>
