<?xml version="1.0" encoding="UTF-8" standalone="no"?>
<!-- Generator: Adobe Illustrator 19.1.0, SVG Export Plug-In . SVG Version: 6.00 Build 0)  -->

<svg
   xmlns:dc="http://purl.org/dc/elements/1.1/"
   xmlns:cc="http://creativecommons.org/ns#"
   xmlns:rdf="http://www.w3.org/1999/02/22-rdf-syntax-ns#"
   xmlns:svg="http://www.w3.org/2000/svg"
   xmlns="http://www.w3.org/2000/svg"
   xmlns:sodipodi="http://sodipodi.sourceforge.net/DTD/sodipodi-0.dtd"
   xmlns:inkscape="http://www.inkscape.org/namespaces/inkscape"
   version="1.1"
   id="Layer_1"
   x="0px"
   y="0px"
   viewBox="-284 376 42 42"
   style="enable-background:new -284 376 42 42;"
   xml:space="preserve"
   sodipodi:docname="workflow.svg"
   inkscape:version="0.92.4 (5da689c313, 2019-01-14)"><metadata
   id="metadata19"><rdf:RDF><cc:Work
       rdf:about=""><dc:format>image/svg+xml</dc:format><dc:type
         rdf:resource="http://purl.org/dc/dcmitype/StillImage" /></cc:Work></rdf:RDF></metadata><defs
   id="defs17">
	
    
    
    
</defs><sodipodi:namedview
   pagecolor="#ffffff"
   bordercolor="#666666"
   borderopacity="1"
   objecttolerance="10"
   gridtolerance="10"
   guidetolerance="10"
   inkscape:pageopacity="0"
   inkscape:pageshadow="2"
   inkscape:window-width="640"
   inkscape:window-height="480"
   id="namedview15"
   showgrid="false"
   inkscape:zoom="38.587054"
   inkscape:cx="13.186499"
   inkscape:cy="21"
   inkscape:current-layer="Layer_1" />
<style
   type="text/css"
   id="style2">
	.st0{fill:#F99C1C;}
</style>
  <polygon
   style="fill:#f99c1c"
   id="polygon4"
   points="-260.7,410.8 -253.1,410.8 -253.1,409.1 -257.8,409.1 -249.6,401 -250.8,399.8 -259,407.9 -259,403.3 -260.7,403.3 "
   class="st0"
   transform="matrix(0.42502231,0.42327111,-0.44591563,0.44776052,25.809376,330.55937)" /><polygon
   style="fill:#f99c1c"
   id="polygon6"
   points="-274.9,407.1 -274.9,402.4 -266.8,410.5 -265.6,409.3 -273.7,401.2 -269.1,401.2 -269.1,399.5 -276.6,399.5 -276.6,407.1 "
   class="st0"
   transform="matrix(0.42502231,0.42327111,-0.44591563,0.44776052,25.809376,330.55937)" /><polygon
   style="fill:#f99c1c"
   id="polygon8"
   points="-267,386.1 -267,390.7 -265.3,390.7 -265.3,383.2 -272.9,383.2 -272.9,384.9 -268.2,384.9 -276.4,393 -275.2,394.2 "
   class="st0"
   transform="matrix(0.42502231,0.42327111,-0.44591563,0.44776052,25.809376,330.55937)" /><polygon
   style="fill:#f99c1c"
   id="polygon10"
   points="-252.3,392.8 -256.9,392.8 -256.9,394.5 -249.4,394.5 -249.4,386.9 -251.1,386.9 -251.1,391.6 -259.2,383.5 -260.4,384.7 "
   class="st0"
   transform="matrix(0.42502231,0.42327111,-0.44591563,0.44776052,25.809376,330.55937)" />
</svg>