<?xml version="1.0" encoding="utf-8"?>
<!DOCTYPE svg PUBLIC "-//W3C//DTD SVG 1.1//EN" "http://www.w3.org/Graphics/SVG/1.1/DTD/svg11.dtd">
<svg version="1.1" id="Layer_1" xmlns="http://www.w3.org/2000/svg" xmlns:xlink="http://www.w3.org/1999/xlink" x="0px" y="0px"
	 width="42px" height="42px" viewBox="0 0 42 42" enable-background="new 0 0 42 42" xml:space="preserve">
<g>
	<g transform="matrix(0.65252187,0,0,0.65252187,-171.75346,-165.81281)">
		<path fill="none" stroke="#018BFF" stroke-linecap="round" d="M308.675,306.837l12.401-7.155l-2.29,0.262"/>
		<path fill="none" stroke="#018BFF" stroke-linecap="round" d="M321.06,299.697l-1.124,1.571"/>
	</g>
	<g transform="matrix(0.60435292,0.24605352,-0.24605352,0.60435292,-108.66226,-183.897)">
		<path fill="none" stroke="#018BFF" stroke-linecap="round" d="M322.491,229.919l12.42-7.29l-2.283,0.283"/>
		<path fill="none" stroke="#018BFF" stroke-linecap="round" d="M334.896,222.645l-1.135,1.587"/>
	</g>
	<g transform="matrix(0.47660273,0.44568445,-0.44568445,0.47660273,-46.911386,-177.90125)">
		<path fill="none" stroke="#018BFF" stroke-linecap="round" d="M307.944,157.491l12.348-7.394l-2.266,0.294"/>
		<path fill="none" stroke="#018BFF" stroke-linecap="round" d="M320.275,150.114l-1.132,1.603"/>
	</g>
	<g transform="matrix(0.19555939,0.62252817,-0.62252817,0.19555939,27.789532,-133.45962)">
		<path fill="none" stroke="#018BFF" stroke-linecap="round" d="M246.292,74.358l12.235-8.57l-2.209,0.4"/>
		<path fill="none" stroke="#018BFF" stroke-linecap="round" d="M258.509,65.807l-1.153,1.807"/>
	</g>
</g>
<g>
	<path fill="#0068E0" d="M12.811,22.17l1.176,3.727l18.4,5.443L12.811,22.17z"/>
	<path fill="#000094" d="M19.232,16c0.228,0.929-0.011,1.52-1.46,1.374l14.538,13.979c0.165,0.068,0.194-0.047,0.081-0.223
		L19.232,16z"/>
	<path fill="#1CCCFC" d="M18.771,9.256c0,0-0.519,0.508,0.026,1.165c0.404,0.489,1.01,0.189,1.01,0.189s0.559-0.324,0.134-1.009
		C19.392,8.71,18.771,9.256,18.771,9.256z M32.42,31.415l-20.626-9.533c0,0-6.74-4.324-6.042-6.033
		c0.68-1.654,6.687,1.678,7.323,1.833c0.635,0.155,0.988-0.263,1.001-0.554c0.018-0.419-0.893-1.62-0.419-2.133
		c0.471-0.512,2.01,0.484,2.01,0.484l1.249,0.897L32.42,31.415z"/>
	<path fill="#1CCCFC" d="M32.502,31.325L18.89,15.682c0,0-2.452-2.888-2.35-3.715c0.101-0.827,3.359,1.813,3.359,1.813
		s0.362,0.362,0.704,0.3c0.343-0.06-0.022-0.652-0.022-0.652s-0.563-1.355-0.188-1.599c0.376-0.241,1.329,0.779,1.329,0.779
		s0.237,0.255,0.487,0.187c0.251-0.071,0.116-0.64,0.116-0.64s-1.721-4.118-0.97-4.425c1.146-0.471,2.776,2.938,3.324,3.998
		C24.816,12.02,32.502,31.325,32.502,31.325L32.502,31.325z M11.259,11.968c0,0-0.697,0.48,0.079,1.403
		c0.715,0.85,1.351,0.409,1.351,0.409s0.659-0.418,0.026-1.206C11.878,11.532,11.259,11.968,11.259,11.968z"/>
</g>
</svg>
