<?xml version="1.0" encoding="UTF-8" standalone="no"?>
<!-- Generator: Adobe Illustrator 17.0.0, SVG Export Plug-In . SVG Version: 6.00 Build 0)  -->
<svg
        xmlns="http://www.w3.org/2000/svg"
        version="1.1"
        x="0px"
        y="0px"
        width="80.08448"
        height="80.00547"
        viewBox="0 0 80.08448 80.005465"
        enable-background="new 0 0 419.53 595.28"
>
    <rect
            style="opacity:1;fill:#ffffff;fill-opacity:1;stroke:#ffffff;stroke-width:2.4749999;stroke-linecap:round;stroke-linejoin:miter;stroke-miterlimit:4;stroke-dasharray:none;stroke-opacity:1;paint-order:markers fill stroke"
            width="77.609482"
            height="77.530472"
            x="1.2375"
            y="1.2375"/>
    <path
            d="m 34.55418,31.865252 c -1.807984,1.928035 -2.965842,4.64207 -3.473329,8.141242 l -2.462765,16.978315 c -0.507488,3.499695 -0.136525,6.21292 1.112055,8.140958 0.477845,0.71464 1.250305,1.410987 2.316847,2.089017 1.065698,0.678573 2.562882,1.017455 4.492112,1.017455 1.964878,0 3.56961,-0.338882 4.81444,-1.017455 1.24454,-0.67803 2.209565,-1.374377 2.89563,-2.089017 1.80825,-1.928038 2.965843,-4.641263 3.473063,-8.140958 L 50.185,40.006494 c 0.507463,-3.499172 0.137225,-6.213207 -1.11179,-8.141242 -0.478955,-0.713835 -1.241815,-1.41018 -2.289687,-2.088755 -1.047875,-0.678028 -2.554373,-1.017718 -4.519273,-1.017718 -0.982582,0 -1.870257,0.09868 -2.663027,0.294748 -0.792475,0.19645 -1.511175,0.446805 -2.155538,0.749905 -0.64434,0.30362 -1.202282,0.634407 -1.671905,0.990805 -0.47073,0.35718 -0.877255,0.71436 -1.2196,1.071015 z m 2.637775,4.579352 c 0.430665,-0.838725 0.910178,-1.446252 1.437948,-1.821182 0.526662,-0.37495 1.04182,-0.59756 1.543542,-0.669438 0.501435,-0.071 0.95186,-0.107225 1.352908,-0.107225 0.363185,0 0.794407,0.03598 1.294465,0.107225 0.49842,0.07195 0.957357,0.294488 1.376497,0.669438 0.41832,0.37493 0.721713,0.982457 0.909623,1.821182 0.187175,0.839268 0.1698,2.026818 -0.05258,3.561633 l -2.46276,16.978285 c -0.227675,1.571685 -0.55768,2.77675 -0.98835,3.615192 -0.4312,0.83927 -0.910708,1.446253 -1.43766,1.821203 -0.527773,0.374952 -1.05142,0.598345 -1.5707,0.669415 -0.520368,0.0722 -0.962568,0.107225 -1.32575,0.107225 -0.400763,0 -0.840765,-0.03503 -1.32136,-0.107225 -0.481125,-0.071 -0.931548,-0.294463 -1.3496,-0.669415 -0.418875,-0.37495 -0.72227,-0.981673 -0.90936,-1.821203 -0.188125,-0.838442 -0.167625,-2.043507 0.0603,-3.615192 l 2.462765,-16.978285 c 0.222125,-1.534815 0.548875,-2.722365 0.9801,-3.561633 z m 36.260398,-4.707197 c -0.523118,3.606835 -1.738598,6.338617 -3.645058,8.194537 -2.036752,2.000173 -4.78371,2.999598 -8.240592,2.999598 l 0.738187,-5.088068 c 1.419018,0 2.406255,-0.1607 2.962825,-0.482092 0.55604,-0.321655 0.91949,-0.570888 1.091215,-0.750165 0.919225,-0.82095 1.555628,-2.444845 1.907835,-4.87381 0.186425,-1.285815 0.22745,-2.320503 0.12255,-3.106475 -0.10395,-0.785168 -0.335207,-1.39267 -0.690987,-1.821203 -0.356623,-0.428222 -0.842693,-0.713812 -1.45826,-0.85676 -0.616648,-0.142725 -1.343015,-0.214425 -2.179655,-0.214425 H 60.84024 l -1.755307,12.104735 -0.738188,5.08809 -2.493757,17.192545 h -0.0014 c -1.19847,9.638378 -10.18024,17.476803 -20.030485,17.476803 -4.881922,0 -9.265139,-1.87611 -12.342364,-5.282963 -2.958703,-3.275755 -4.348077,-7.565212 -3.956361,-12.139995 h -0.0287 l 0.09455,-0.66996 c 2.9e-4,-0.0016 2.9e-4,-0.0024 5.55e-4,-0.0047 h 2.65e-4 l 1.222616,-8.653185 h -7.750663 l -1.318078,9.328275 H 6.6113862 L 12.336535,20.704185 h 5.131003 l -3.669465,25.057592 h 7.750663 l 5.090122,-34.709983 -4.203557,-0.312519 7.541385,-8.8717639 6.092987,9.8854579 -4.299282,-0.319762 -7.091759,48.745192 h -0.0098 c -0.39502,3.351945 0.542029,6.476713 2.645179,8.805285 2.090805,2.315128 5.112335,3.58989 8.507492,3.58989 7.352095,0 14.056815,-5.863272 14.945865,-13.070245 l 0.04415,0.0048 5.63598,-38.857603 H 64.7987 c 3.420098,0 5.879585,0.982454 7.37788,2.945776 1.362773,1.892772 1.788763,4.606 1.27609,8.140982 z"
            style="fill:#000000;fill-opacity:1;stroke-width:0.27172738"/>
</svg>