<?xml version="1.0" encoding="UTF-8" standalone="no"?>
<svg
        xmlns="http://www.w3.org/2000/svg"
        width="143.40416mm"
        height="48.873489mm"
        viewBox="0 0 143.40416 48.873489"
        version="1.1">
    <g transform="translate(-0.8910229,-123.59604)">
        <g>
            <path
                    d="m 0.89102939,123.81349 c 0.0932929,2.48788 2.15502751,4.43356 4.20734911,5.6061 6.3064175,3.46401 13.6375965,4.00543 20.5670685,5.40011 3.295214,0.67688 6.671296,1.17102 9.811771,2.40037 0.868786,0.40793 -0.341902,0.0764 -0.722705,-0.0449 -5.650515,-1.35984 -11.480466,-1.674 -17.195456,-2.67758 -3.488266,-0.56891 -6.90604,-1.63002 -10.0412063,-3.27314 -0.6054584,-0.30693 -0.3295306,-0.0156 -0.1835373,0.30596 1.6089566,2.1821 4.0204296,3.59422 6.5979046,4.34092 4.24545,1.23814 8.714929,1.29542 13.090654,1.7121 3.648649,0.28287 7.364752,0.37212 10.901548,1.34979 0.295366,0.25173 0.398789,0.56247 -0.244719,0.30595 -5.620283,-1.09803 -11.372165,-0.77953 -17.057811,-1.05535 -2.263291,-0.12472 -4.488149,-0.85805 -6.618938,-1.45306 0.0623,0.2983 0.688068,0.75981 1.063007,1.18926 2.965921,2.38974 7.003739,2.50225 10.64464,2.46991 4.435799,-0.0216 8.892282,-0.30459 13.315061,0.0729 0.525384,0.78247 -0.433395,0.51646 -0.978895,0.42833 -4.159322,-0.26306 -8.301201,0.23027 -12.447781,0.45955 -2.603222,0.17341 -5.219603,-0.13041 -7.722746,-0.82665 -0.537449,-0.0148 0.207045,0.54362 0.419841,0.80592 2.167701,2.11553 5.462867,2.09216 8.283222,1.80194 3.451831,-0.23802 6.865523,-0.8656 10.309405,-1.13948 0.85507,0 1.710139,0 2.565209,0 0.224729,0.87537 -0.952559,0.34479 -1.459723,0.49136 -3.581767,0.1427 -7.056724,1.15931 -10.615485,1.53763 -2.045137,0.31771 -4.151135,0.16247 -6.156496,-0.25477 -0.575522,-0.21217 -0.02551,0.29353 0.138041,0.43633 1.385489,1.45477 3.324136,2.41321 5.368164,2.19448 3.538063,0.0259 6.781061,-1.61399 10.165713,-2.42092 0.528768,-0.36487 3.600882,-0.62735 2.009151,0.004 -3.510485,0.88197 -6.771406,2.64053 -10.368135,3.17755 -1.004896,0.13541 -2.019764,0.0862 -3.030333,0.0956 0.389041,0.42197 1.184238,1.28833 1.850697,1.80487 1.667977,1.58123 4.362312,2.43011 6.404801,1.02859 1.717513,-1.13632 3.129469,-2.88251 4.592343,-4.17939 0.409732,-0.50835 0.297658,0.12519 -0.0687,0.45029 -1.033076,1.55504 -2.42536,2.90769 -3.158567,4.63535 -0.38657,1.20393 -0.133697,2.82521 0.998244,1.40258 1.54671,-1.20504 3.093421,-2.41008 4.640132,-3.61511 0.818793,-2.92093 2.870492,-5.59752 2.529166,-8.77697 -0.161134,-2.42483 -2.279583,-4.15613 -4.410708,-4.98428 -3.331634,-1.31401 -6.956753,-1.53934 -10.449629,-2.20535 -6.897999,-1.20353 -13.95044,-1.91267 -20.5840332,-4.26637 -2.5663077,-0.98346 -5.2218012,-2.28108 -6.8149199,-4.6177 l -0.142615,-0.11699 z"
                    style="opacity:1;fill:#243353;fill-opacity:1;fill-rule:evenodd;stroke:none;stroke-width:0.0611802px;stroke-linecap:butt;stroke-linejoin:miter;stroke-opacity:1"/>
            <path
                    d="m 144.29519,123.63808 c -2.17926,3.33726 -6.19378,4.63985 -9.81512,5.77364 -6.9707,1.96961 -14.20802,2.69995 -21.32023,3.98442 -3.20149,0.57913 -6.66927,0.9465 -9.34301,2.96742 -2.34221,1.76249 -2.38022,5.1147 -1.36891,7.61694 0.59327,1.604 1.38744,3.171 1.90032,4.77517 1.86432,1.45247 3.72863,2.90494 5.59294,4.35741 0.86701,-2.09854 -1.08187,-3.8093 -2.13999,-5.38529 -0.44421,-0.71268 -1.09911,-1.41117 -1.43777,-2.1261 0.62772,0.4036 1.3829,1.3016 2.10187,1.97951 1.61476,1.60726 3.5413,3.77829 6.08106,3.17499 1.94744,-0.40626 3.53428,-1.93887 4.84856,-3.25787 0.49981,-0.3903 -0.49345,-0.2042 -0.88024,-0.24476 -3.17017,0.0966 -6.1535,-1.26584 -9.09976,-2.25984 -1.19253,-0.44088 -2.40153,-0.85631 -3.66316,-1.04389 -0.30359,-0.82117 0.99293,-0.13414 1.44442,-0.17018 3.72437,0.81516 7.27922,2.53868 11.1281,2.68907 2.11491,0.0168 4.44047,-0.90924 5.6592,-2.58013 0.49416,-0.43288 -1.29179,0.26129 -1.63654,0.16824 -3.58003,0.50451 -7.09296,-0.53384 -10.61764,-0.99417 -2.01604,-0.34892 -4.05495,-0.53895 -6.09986,-0.58122 -0.23822,-0.81427 0.76515,-0.38695 1.23872,-0.48944 5.25633,0.0163 10.43447,1.46072 15.69864,1.1519 1.75466,-0.0861 3.66029,-0.95166 4.65927,-2.31435 0.50856,-0.79006 -1.73069,0.27879 -2.23498,0.19498 -6.26345,1.09808 -12.59351,-0.82759 -18.87219,-0.0114 -0.61299,-0.0834 0.1878,-0.85734 0.66111,-0.61949 5.82947,-0.43075 11.6919,0.38488 17.50945,-0.26771 2.46809,-0.28533 5.08542,-1.16746 6.66867,-3.15082 0.37042,-0.56597 -1.22626,0.24021 -1.59836,0.25235 -6.80849,1.93075 -14.00314,0.33665 -20.87526,1.85373 -0.50994,0.073 -1.25536,0.282 -1.63143,0.21875 0.14231,-0.32665 0.57655,-0.46705 1.1162,-0.54328 7.58505,-1.74184 15.53017,-0.85386 23.06916,-2.83317 2.69118,-0.81582 5.44296,-2.31758 6.89429,-4.76065 -0.99493,0.2393 -2.43361,1.19994 -3.62692,1.5202 -5.4263,2.16122 -11.35759,2.21524 -17.04131,3.25188 -2.69827,0.3292 -5.42014,0.80809 -8.02539,1.52952 0.342,-0.34866 1.21123,-0.46162 1.7743,-0.73421 3.92747,-1.20644 8.01647,-1.80597 12.0482,-2.56616 6.03708,-1.09797 12.35684,-1.95182 17.68921,-5.20372 1.79653,-1.22856 3.49438,-3.0477 3.54438,-5.32223 z"
                    style="opacity:1;fill:#243353;fill-opacity:1;fill-rule:evenodd;stroke:none;stroke-width:0.0611802px;stroke-linecap:butt;stroke-linejoin:miter;stroke-opacity:1"/>
            <path
                    transform="matrix(0.44087537,0,0,0.19830984,26.246155,112.72137)"
                    d="m 105.07738,87.234573 114.23075,197.853477 -228.4615085,-1e-5 z"
                    style="opacity:1;fill:none;fill-opacity:1;stroke:#243353;stroke-width:11.73031712;stroke-linecap:butt;stroke-linejoin:miter;stroke-miterlimit:4;stroke-dasharray:none;stroke-opacity:1"
            />
            <g
                    style="font-style:normal;font-variant:normal;font-weight:normal;font-stretch:normal;font-size:101.78335571px;line-height:125%;font-family:Montserrat;-inkscape-font-specification:Montserrat;letter-spacing:0px;word-spacing:0px;fill:#243353;fill-opacity:1;stroke:none;stroke-width:7.63375139px;stroke-linecap:butt;stroke-linejoin:miter;stroke-opacity:1"
                    aria-label="AVRO"
                    transform="matrix(0.71069623,0,0,0.71069623,0.25777744,49.896086)">
                <path
                        style="font-style:normal;font-variant:normal;font-weight:bold;font-stretch:normal;font-family:Montserrat;-inkscape-font-specification:'Montserrat Bold';fill:#243353;fill-opacity:1;stroke-width:2.63637638px"
                        d="m 70.841397,166.68221 -2.284863,-5.30789 H 58.257087 l -2.284856,5.30789 H 50.13705 l 10.615807,-24.57102 h 5.307907 l 10.615807,24.57102 z m -7.417009,-17.25948 -3.093347,7.1358 h 6.151543 z"/>
                <path
                        style="font-style:normal;font-variant:normal;font-weight:bold;font-stretch:normal;font-family:Montserrat;-inkscape-font-specification:'Montserrat Bold';fill:#243353;fill-opacity:1;stroke-width:2.48371935px"
                        d="m 85.683191,158.27068 5.894692,-34.44184 5.596647,-4.41893 -9.305666,47.2723 h -4.371346 l -9.305673,-30.21854 5.596648,-3.53513 z"/>
                <path
                        style="font-style:normal;font-variant:normal;font-weight:bold;font-stretch:normal;font-family:Montserrat;-inkscape-font-specification:'Montserrat Bold';fill:#243353;fill-opacity:1;stroke-width:3.44519448px"
                        d="m 118.68354,136.92581 c 0,7.13644 -1.46815,11.74539 -4.40446,13.82685 l 5.86158,15.92955 h -6.35832 l -5.13303,-14.20916 h -3.57655 v 14.20916 h -5.166133 v -51.44564 l 8.775803,1.76757 c 3.52779,0.71055 6.15962,6.30721 7.68297,8.64355 1.54543,2.33633 2.31814,6.0957 2.31814,11.27812 z m -9.83552,6.94528 c 1.76619,0 2.96942,-0.55222 3.60967,-1.65667 0.64025,-1.10445 0.96037,-2.84608 0.96037,-5.22489 0,-2.42129 -0.0463,-5.58692 -0.61622,-8.37424 -0.42472,-2.07711 -0.42031,-2.94138 -3.85448,-4.82539 l -3.8746,-2.12563 v 22.20682 z"/>
                <path
                        style="font-style:normal;font-variant:normal;font-weight:bold;font-stretch:normal;font-family:Montserrat;-inkscape-font-specification:'Montserrat Bold';fill:#243353;fill-opacity:1;stroke-width:2.74974871px"
                        d="m 143.46569,153.71524 q 0,-3.44635 -2.19979,-5.86614 -2.19981,-2.41978 -5.42618,-2.41978 -3.1897,0 -5.38951,2.41978 -2.19979,2.41979 -2.19979,5.86614 0,3.40969 2.19979,5.82946 2.19981,2.38312 5.38951,2.38312 3.22637,0 5.42618,-2.38312 2.19979,-2.41977 2.19979,-5.82946 z m 1.94315,9.42246 q -3.88631,3.77633 -9.56912,3.77633 -5.68281,0 -9.56913,-3.77633 -3.88631,-3.81298 -3.88631,-9.45913 0,-5.64616 3.88631,-9.42247 3.88632,-3.81299 9.56913,-3.81299 5.68281,0 9.56912,3.81299 3.88632,3.77631 3.88632,9.42247 0,5.64615 -3.88632,9.45913 z"/>
            </g>
            <path
                    transform="matrix(0.5330955,0,0,0.23979132,16.555905,103.63124)"
                    d="m 105.07738,87.234573 114.23075,197.853477 -228.4615085,-1e-5 z"
                    style="opacity:1;fill:none;fill-opacity:1;stroke:#243353;stroke-width:3.97552752;stroke-linecap:butt;stroke-linejoin:miter;stroke-miterlimit:4;stroke-dasharray:none;stroke-opacity:1"
            />
            <g
                    aria-label="TM"
                    style="font-style:normal;font-variant:normal;font-weight:normal;font-stretch:normal;font-size:5.1561203px;line-height:125%;font-family:Montserrat;-inkscape-font-specification:Montserrat;letter-spacing:0px;word-spacing:0px;fill:#243353;fill-opacity:1;stroke:none;stroke-width:0.386709px;stroke-linecap:butt;stroke-linejoin:miter;stroke-opacity:1"
                    transform="matrix(0.71069623,0,0,0.71069623,0.25777744,49.896086)">
                <path
                        d="m 189.93532,167.3716 v 3.04727 h -0.60842 v -3.04727 h -1.0931 v -0.55686 h 2.79462 v 0.55686 z"
                        style="fill:#243353;fill-opacity:1;stroke-width:0.386709px"
                />
                <path
                        d="m 192.29432,170.41887 h -0.60842 v -3.60413 h 0.94873 l 1.08794,2.26354 1.08794,-2.26354 h 0.94357 v 3.60413 h -0.60842 v -2.81524 l -1.25809,2.50072 h -0.34031 l -1.25294,-2.50072 z"
                        style="fill:#243353;fill-opacity:1;stroke-width:0.386709px"
                />
            </g>
        </g>
    </g>
</svg>
