<?xml version="1.0" encoding="UTF-8"?>
<svg xmlns="http://www.w3.org/2000/svg" height="42" width="42">
    <path fill="#0e3a5a" d="M37.984 161.696a7.5 7.5 0 0 0 15 0v-58.627a7.499 7.499 0 0 0-12.803-5.303L21.177 116.77a7.5 7.5 0 0 0 0 10.606 7.5 7.5 0 0 0 10.606 0l6.201-6.201v40.521zM82.279 31.807l6.201-6.201v40.521a7.5 7.5 0 0 0 15 0V7.5a7.499 7.499 0 0 0-12.803-5.303L71.673 21.201a7.5 7.5 0 0 0 0 10.606 7.5 7.5 0 0 0 10.606 0zM167.815 96.14a7.501 7.501 0 0 0-8.173 1.626l-19.004 19.004a7.5 7.5 0 0 0 0 10.606 7.5 7.5 0 0 0 10.606 0l6.201-6.201v40.521a7.5 7.5 0 0 0 15 0v-58.627a7.5 7.5 0 0 0-4.63-6.929zM135.217 188.445a7.501 7.501 0 0 0-8.173 1.626l-19.004 19.004a7.5 7.5 0 0 0 0 10.606 7.5 7.5 0 0 0 10.606 0l6.201-6.201v22.197a7.5 7.5 0 0 0 15 0v-40.303a7.499 7.499 0 0 0-4.63-6.929zM122.504 143.42v-22.074c0-14.213-11.563-25.776-25.776-25.776h-.369c-14.213 0-25.776 11.563-25.776 25.776v22.074c0 14.213 11.563 25.776 25.776 25.776h.369c14.213 0 25.776-11.563 25.776-25.776zm-15 0c0 5.942-4.834 10.776-10.776 10.776h-.369c-5.942 0-10.776-4.834-10.776-10.776v-22.074c0-5.942 4.834-10.776 10.776-10.776h.369c5.942 0 10.776 4.834 10.776 10.776v22.074zM216.745 95.569h-.369c-14.213 0-25.776 11.563-25.776 25.776v22.074c0 14.213 11.563 25.776 25.776 25.776h.369c14.213 0 25.776-11.563 25.776-25.776v-22.074c0-14.212-11.563-25.776-25.776-25.776zm10.776 47.851c0 5.942-4.834 10.776-10.776 10.776h-.369c-5.942 0-10.776-4.834-10.776-10.776v-22.074c0-5.942 4.834-10.776 10.776-10.776h.369c5.942 0 10.776 4.834 10.776 10.776v22.074zM147.224 0h-.369c-14.213 0-25.776 11.563-25.776 25.776V47.85c0 14.213 11.563 25.776 25.776 25.776h.369a7.5 7.5 0 0 0 0-15h-.369c-5.942 0-10.776-4.834-10.776-10.776V25.776c0-5.942 4.834-10.776 10.776-10.776h.369C153.166 15 158 19.834 158 25.776a7.5 7.5 0 0 0 15 0C173.001 11.563 161.438 0 147.224 0ZM216.745 0h-.369C202.163 0 190.6 11.563 190.6 25.776V47.85c0 14.213 11.563 25.776 25.776 25.776h.369c14.213 0 25.776-11.563 25.776-25.776V25.776C242.521 11.563 230.958 0 216.745 0Zm10.776 47.851c0 5.942-4.834 10.776-10.776 10.776h-.369c-5.942 0-10.776-4.834-10.776-10.776V25.776c0-5.942 4.834-10.776 10.776-10.776h.369c5.942 0 10.776 4.834 10.776 10.776v22.075zM61.682 187.874h-.369c-14.213 0-25.776 11.563-25.776 25.776v22.074c0 14.213 11.563 25.776 25.776 25.776h.369c14.213 0 25.776-11.563 25.776-25.776V213.65c.001-14.212-11.562-25.776-25.776-25.776Zm10.777 47.851c0 5.942-4.834 10.776-10.776 10.776h-.369c-5.942 0-10.776-4.834-10.776-10.776V213.65c0-5.942 4.834-10.776 10.776-10.776h.369c5.942 0 10.776 4.834 10.776 10.776v22.075z" transform="matrix(.15014 0 0 .12892 1.342 3.94)"/>
</svg>
