<?xml version="1.0" encoding="UTF-8" standalone="no"?>
<svg
   xmlns:dc="http://purl.org/dc/elements/1.1/"
   xmlns:cc="http://creativecommons.org/ns#"
   xmlns:rdf="http://www.w3.org/1999/02/22-rdf-syntax-ns#"
   xmlns:svg="http://www.w3.org/2000/svg"
   xmlns="http://www.w3.org/2000/svg"
   xmlns:sodipodi="http://sodipodi.sourceforge.net/DTD/sodipodi-0.dtd"
   xmlns:inkscape="http://www.inkscape.org/namespaces/inkscape"
   inkscape:export-ydpi="34.285713"
   inkscape:export-xdpi="34.285713"
   inkscape:export-filename="C:\eclipse\workspace\pdi-expression-plugin\src\main\resources\Binary.png"
   sodipodi:docname="binary.svg"
   inkscape:version="1.0 (4035a4fb49, 2020-05-01)"
   xml:space="preserve"
   enable-background="new 0 0 42 42"
   viewBox="0 0 42 42"
   height="42px"
   width="42px"
   y="0px"
   x="0px"
   id="Layer_1"
   version="1.1"><metadata
     id="metadata13"><rdf:RDF><cc:Work
         rdf:about=""><dc:format>image/svg+xml</dc:format><dc:type
           rdf:resource="http://purl.org/dc/dcmitype/StillImage" /><dc:title /></cc:Work></rdf:RDF></metadata><defs
     id="defs11" /><sodipodi:namedview
     inkscape:document-rotation="0"
     inkscape:current-layer="Layer_1"
     inkscape:window-maximized="1"
     inkscape:window-y="-8"
     inkscape:window-x="-8"
     inkscape:cy="25.762108"
     inkscape:cx="-22.770458"
     inkscape:zoom="16"
     showgrid="false"
     id="namedview9"
     inkscape:window-height="1387"
     inkscape:window-width="3440"
     inkscape:pageshadow="2"
     inkscape:pageopacity="0"
     guidetolerance="10"
     gridtolerance="10"
     objecttolerance="10"
     borderopacity="1"
     bordercolor="#666666"
     pagecolor="#ffffff" /><g
     transform="matrix(0.38266263,0,0,0.36430952,-237.61523,-110.48342)"
     id="g4291" /><g
     transform="matrix(0.38266263,0,0,0.36430952,-237.61523,-110.48342)"
     id="g4293" /><g
     transform="matrix(0.38266263,0,0,0.36430952,-237.61523,-110.48342)"
     id="g4295" /><g
     transform="matrix(0.38266263,0,0,0.36430952,-237.61523,-110.48342)"
     id="g4297" /><g
     transform="matrix(0.38266263,0,0,0.36430952,-237.61523,-110.48342)"
     id="g4299" /><g
     transform="matrix(0.38266263,0,0,0.36430952,-237.61523,-110.48342)"
     id="g4301" /><g
     transform="matrix(0.38266263,0,0,0.36430952,-237.61523,-110.48342)"
     id="g4303" /><g
     transform="matrix(0.38266263,0,0,0.36430952,-237.61523,-110.48342)"
     id="g4305" /><g
     transform="matrix(0.38266263,0,0,0.36430952,-237.61523,-110.48342)"
     id="g4307" /><g
     transform="matrix(0.38266263,0,0,0.36430952,-237.61523,-110.48342)"
     id="g4309" /><g
     transform="matrix(0.38266263,0,0,0.36430952,-237.61523,-110.48342)"
     id="g4311" /><g
     transform="matrix(0.38266263,0,0,0.36430952,-237.61523,-110.48342)"
     id="g4313" /><g
     transform="matrix(0.38266263,0,0,0.36430952,-237.61523,-110.48342)"
     id="g4315" /><g
     transform="matrix(0.38266263,0,0,0.36430952,-237.61523,-110.48342)"
     id="g4317" /><g
     transform="matrix(0.38266263,0,0,0.36430952,-237.61523,-110.48342)"
     id="g4319" /><g
     style="fill:#0e3a29;fill-opacity:1"
     transform="matrix(0.1501431,0,0,0.12892384,1.3417068,3.9398084)"
     id="g4428"><g
       style="fill:#0e3a29;fill-opacity:1"
       id="g4372"><path
         style="fill:#0e3a29;fill-opacity:1"
         inkscape:connector-curvature="0"
         d="m 37.984,161.696 c 0,4.142 3.358,7.5 7.5,7.5 4.142,0 7.5,-3.358 7.5,-7.5 l 0,-58.627 c 0,-3.034 -1.827,-5.768 -4.63,-6.929 -2.801,-1.16 -6.028,-0.519 -8.173,1.626 L 21.177,116.77 c -2.929,2.929 -2.929,7.678 0,10.606 2.929,2.929 7.678,2.929 10.606,0 l 6.201,-6.201 0,40.521 z"
         id="path4374" /><path
         style="fill:#0e3a29;fill-opacity:1"
         inkscape:connector-curvature="0"
         d="m 82.279,31.807 6.201,-6.201 0,40.521 c 0,4.142 3.358,7.5 7.5,7.5 4.142,0 7.5,-3.358 7.5,-7.5 l 0,-58.627 c 0,-3.034 -1.827,-5.768 -4.63,-6.929 -2.801,-1.16 -6.028,-0.519 -8.173,1.626 L 71.673,21.201 c -2.929,2.929 -2.929,7.678 0,10.606 2.929,2.929 7.678,2.929 10.606,0 z"
         id="path4376" /><path
         style="fill:#0e3a29;fill-opacity:1"
         inkscape:connector-curvature="0"
         d="m 167.815,96.14 c -2.801,-1.16 -6.028,-0.519 -8.173,1.626 l -19.004,19.004 c -2.929,2.929 -2.929,7.678 0,10.606 2.929,2.929 7.678,2.929 10.606,0 l 6.201,-6.201 0,40.521 c 0,4.142 3.358,7.5 7.5,7.5 4.142,0 7.5,-3.358 7.5,-7.5 l 0,-58.627 c 0,-3.033 -1.827,-5.768 -4.63,-6.929 z"
         id="path4378" /><path
         style="fill:#0e3a29;fill-opacity:1"
         inkscape:connector-curvature="0"
         d="m 135.217,188.445 c -2.801,-1.16 -6.028,-0.519 -8.173,1.626 l -19.004,19.004 c -2.929,2.929 -2.929,7.678 0,10.606 2.929,2.929 7.678,2.929 10.606,0 l 6.201,-6.201 0,22.197 c 0,4.142 3.358,7.5 7.5,7.5 4.142,0 7.5,-3.358 7.5,-7.5 l 0,-40.303 c 0,-3.034 -1.827,-5.768 -4.63,-6.929 z"
         id="path4380" /><path
         style="fill:#0e3a29;fill-opacity:1"
         inkscape:connector-curvature="0"
         d="m 122.504,143.42 0,-22.074 c 0,-14.213 -11.563,-25.776 -25.776,-25.776 l -0.369,0 c -14.213,0 -25.776,11.563 -25.776,25.776 l 0,22.074 c 0,14.213 11.563,25.776 25.776,25.776 l 0.369,0 c 14.213,0 25.776,-11.563 25.776,-25.776 z m -15,0 c 0,5.942 -4.834,10.776 -10.776,10.776 l -0.369,0 c -5.942,0 -10.776,-4.834 -10.776,-10.776 l 0,-22.074 c 0,-5.942 4.834,-10.776 10.776,-10.776 l 0.369,0 c 5.942,0 10.776,4.834 10.776,10.776 l 0,22.074 z"
         id="path4382" /><path
         style="fill:#0e3a29;fill-opacity:1"
         inkscape:connector-curvature="0"
         d="m 216.745,95.569 -0.369,0 c -14.213,0 -25.776,11.563 -25.776,25.776 l 0,22.074 c 0,14.213 11.563,25.776 25.776,25.776 l 0.369,0 c 14.213,0 25.776,-11.563 25.776,-25.776 l 0,-22.074 c 0,-14.212 -11.563,-25.776 -25.776,-25.776 z m 10.776,47.851 c 0,5.942 -4.834,10.776 -10.776,10.776 l -0.369,0 c -5.942,0 -10.776,-4.834 -10.776,-10.776 l 0,-22.074 c 0,-5.942 4.834,-10.776 10.776,-10.776 l 0.369,0 c 5.942,0 10.776,4.834 10.776,10.776 l 0,22.074 z"
         id="path4384" /><path
         style="fill:#0e3a29;fill-opacity:1"
         inkscape:connector-curvature="0"
         d="m 147.224,0 -0.369,0 c -14.213,0 -25.776,11.563 -25.776,25.776 l 0,22.074 c 0,14.213 11.563,25.776 25.776,25.776 l 0.369,0 c 4.142,0 7.5,-3.358 7.5,-7.5 0,-4.142 -3.358,-7.5 -7.5,-7.5 l -0.369,0 c -5.942,0 -10.776,-4.834 -10.776,-10.776 l 0,-22.074 C 136.079,19.834 140.913,15 146.855,15 l 0.369,0 c 5.942,0 10.776,4.834 10.776,10.776 0,4.142 3.358,7.5 7.5,7.5 4.142,0 7.5,-3.358 7.5,-7.5 C 173.001,11.563 161.438,0 147.224,0 Z"
         id="path4386" /><path
         style="fill:#0e3a29;fill-opacity:1"
         inkscape:connector-curvature="0"
         d="m 216.745,0 -0.369,0 C 202.163,0 190.6,11.563 190.6,25.776 l 0,22.074 c 0,14.213 11.563,25.776 25.776,25.776 l 0.369,0 c 14.213,0 25.776,-11.563 25.776,-25.776 l 0,-22.074 C 242.521,11.563 230.958,0 216.745,0 Z m 10.776,47.851 c 0,5.942 -4.834,10.776 -10.776,10.776 l -0.369,0 c -5.942,0 -10.776,-4.834 -10.776,-10.776 l 0,-22.075 C 205.6,19.834 210.434,15 216.376,15 l 0.369,0 c 5.942,0 10.776,4.834 10.776,10.776 l 0,22.075 z"
         id="path4388" /><path
         style="fill:#0e3a29;fill-opacity:1"
         inkscape:connector-curvature="0"
         d="m 61.682,187.874 -0.369,0 c -14.213,0 -25.776,11.563 -25.776,25.776 l 0,22.074 c 0,14.213 11.563,25.776 25.776,25.776 l 0.369,0 c 14.213,0 25.776,-11.563 25.776,-25.776 l 0,-22.074 C 87.459,199.438 75.896,187.874 61.682,187.874 Z m 10.777,47.851 c 0,5.942 -4.834,10.776 -10.776,10.776 l -0.369,0 c -5.942,0 -10.776,-4.834 -10.776,-10.776 l 0,-22.075 c 0,-5.942 4.834,-10.776 10.776,-10.776 l 0.369,0 c 5.942,0 10.776,4.834 10.776,10.776 l 0,22.075 z"
         id="path4390" /></g><g
       style="fill:#0e3a29;fill-opacity:1"
       id="g4392" /><g
       style="fill:#0e3a29;fill-opacity:1"
       id="g4394" /><g
       style="fill:#0e3a29;fill-opacity:1"
       id="g4396" /><g
       style="fill:#0e3a29;fill-opacity:1"
       id="g4398" /><g
       style="fill:#0e3a29;fill-opacity:1"
       id="g4400" /><g
       style="fill:#0e3a29;fill-opacity:1"
       id="g4402" /><g
       style="fill:#0e3a29;fill-opacity:1"
       id="g4404" /><g
       style="fill:#0e3a29;fill-opacity:1"
       id="g4406" /><g
       style="fill:#0e3a29;fill-opacity:1"
       id="g4408" /><g
       style="fill:#0e3a29;fill-opacity:1"
       id="g4410" /><g
       style="fill:#0e3a29;fill-opacity:1"
       id="g4412" /><g
       style="fill:#0e3a29;fill-opacity:1"
       id="g4414" /><g
       style="fill:#0e3a29;fill-opacity:1"
       id="g4416" /><g
       style="fill:#0e3a29;fill-opacity:1"
       id="g4418" /><g
       style="fill:#0e3a29;fill-opacity:1"
       id="g4420" /></g></svg>
