<?xml version="1.0" encoding="UTF-8" standalone="no"?>
<svg
   xmlns:svg="http://www.w3.org/2000/svg"
   xmlns="http://www.w3.org/2000/svg"
   enable-background="new 0 0 42 42"
   viewBox="0 0 42 42"
   height="42px"
   width="42px"
   y="0px"
   x="0px"
   version="1.1">
<g
     transform="matrix(0.38266263,0,0,0.36430952,-237.61523,-110.48342)"
      /><g
     transform="matrix(0.38266263,0,0,0.36430952,-237.61523,-110.48342)"
      /><g
     transform="matrix(0.38266263,0,0,0.36430952,-237.61523,-110.48342)"
      /><g
     transform="matrix(0.38266263,0,0,0.36430952,-237.61523,-110.48342)"
      /><g
     transform="matrix(0.38266263,0,0,0.36430952,-237.61523,-110.48342)"
      /><g
     transform="matrix(0.38266263,0,0,0.36430952,-237.61523,-110.48342)"
      /><g
     transform="matrix(0.38266263,0,0,0.36430952,-237.61523,-110.48342)"
      /><g
     transform="matrix(0.38266263,0,0,0.36430952,-237.61523,-110.48342)"
      /><g
     transform="matrix(0.38266263,0,0,0.36430952,-237.61523,-110.48342)"
      /><g
     transform="matrix(0.38266263,0,0,0.36430952,-237.61523,-110.48342)"
      /><g
     transform="matrix(0.38266263,0,0,0.36430952,-237.61523,-110.48342)"
      /><g
     transform="matrix(0.38266263,0,0,0.36430952,-237.61523,-110.48342)"
      /><g
     transform="matrix(0.38266263,0,0,0.36430952,-237.61523,-110.48342)"
      /><g
     transform="matrix(0.38266263,0,0,0.36430952,-237.61523,-110.48342)"
      /><g
     transform="matrix(0.38266263,0,0,0.36430952,-237.61523,-110.48342)"
      /><g
     style="fill:#0e3a29;fill-opacity:1"
     transform="matrix(0.1501431,0,0,0.12892384,1.3417068,3.9398084)"
     ><g
       style="fill:#0e3a29;fill-opacity:1"
       ><path
         style="fill:#0e3a29;fill-opacity:1"
             d="m 37.984,161.696 c 0,4.142 3.358,7.5 7.5,7.5 4.142,0 7.5,-3.358 7.5,-7.5 l 0,-58.627 c 0,-3.034 -1.827,-5.768 -4.63,-6.929 -2.801,-1.16 -6.028,-0.519 -8.173,1.626 L 21.177,116.77 c -2.929,2.929 -2.929,7.678 0,10.606 2.929,2.929 7.678,2.929 10.606,0 l 6.201,-6.201 0,40.521 z"
          /><path
         style="fill:#0e3a29;fill-opacity:1"
             d="m 82.279,31.807 6.201,-6.201 0,40.521 c 0,4.142 3.358,7.5 7.5,7.5 4.142,0 7.5,-3.358 7.5,-7.5 l 0,-58.627 c 0,-3.034 -1.827,-5.768 -4.63,-6.929 -2.801,-1.16 -6.028,-0.519 -8.173,1.626 L 71.673,21.201 c -2.929,2.929 -2.929,7.678 0,10.606 2.929,2.929 7.678,2.929 10.606,0 z"
          /><path
         style="fill:#0e3a29;fill-opacity:1"
             d="m 167.815,96.14 c -2.801,-1.16 -6.028,-0.519 -8.173,1.626 l -19.004,19.004 c -2.929,2.929 -2.929,7.678 0,10.606 2.929,2.929 7.678,2.929 10.606,0 l 6.201,-6.201 0,40.521 c 0,4.142 3.358,7.5 7.5,7.5 4.142,0 7.5,-3.358 7.5,-7.5 l 0,-58.627 c 0,-3.033 -1.827,-5.768 -4.63,-6.929 z"
          /><path
         style="fill:#0e3a29;fill-opacity:1"
             d="m 135.217,188.445 c -2.801,-1.16 -6.028,-0.519 -8.173,1.626 l -19.004,19.004 c -2.929,2.929 -2.929,7.678 0,10.606 2.929,2.929 7.678,2.929 10.606,0 l 6.201,-6.201 0,22.197 c 0,4.142 3.358,7.5 7.5,7.5 4.142,0 7.5,-3.358 7.5,-7.5 l 0,-40.303 c 0,-3.034 -1.827,-5.768 -4.63,-6.929 z"
          /><path
         style="fill:#0e3a29;fill-opacity:1"
             d="m 122.504,143.42 0,-22.074 c 0,-14.213 -11.563,-25.776 -25.776,-25.776 l -0.369,0 c -14.213,0 -25.776,11.563 -25.776,25.776 l 0,22.074 c 0,14.213 11.563,25.776 25.776,25.776 l 0.369,0 c 14.213,0 25.776,-11.563 25.776,-25.776 z m -15,0 c 0,5.942 -4.834,10.776 -10.776,10.776 l -0.369,0 c -5.942,0 -10.776,-4.834 -10.776,-10.776 l 0,-22.074 c 0,-5.942 4.834,-10.776 10.776,-10.776 l 0.369,0 c 5.942,0 10.776,4.834 10.776,10.776 l 0,22.074 z"
          /><path
         style="fill:#0e3a29;fill-opacity:1"
             d="m 216.745,95.569 -0.369,0 c -14.213,0 -25.776,11.563 -25.776,25.776 l 0,22.074 c 0,14.213 11.563,25.776 25.776,25.776 l 0.369,0 c 14.213,0 25.776,-11.563 25.776,-25.776 l 0,-22.074 c 0,-14.212 -11.563,-25.776 -25.776,-25.776 z m 10.776,47.851 c 0,5.942 -4.834,10.776 -10.776,10.776 l -0.369,0 c -5.942,0 -10.776,-4.834 -10.776,-10.776 l 0,-22.074 c 0,-5.942 4.834,-10.776 10.776,-10.776 l 0.369,0 c 5.942,0 10.776,4.834 10.776,10.776 l 0,22.074 z"
          /><path
         style="fill:#0e3a29;fill-opacity:1"
             d="m 147.224,0 -0.369,0 c -14.213,0 -25.776,11.563 -25.776,25.776 l 0,22.074 c 0,14.213 11.563,25.776 25.776,25.776 l 0.369,0 c 4.142,0 7.5,-3.358 7.5,-7.5 0,-4.142 -3.358,-7.5 -7.5,-7.5 l -0.369,0 c -5.942,0 -10.776,-4.834 -10.776,-10.776 l 0,-22.074 C 136.079,19.834 140.913,15 146.855,15 l 0.369,0 c 5.942,0 10.776,4.834 10.776,10.776 0,4.142 3.358,7.5 7.5,7.5 4.142,0 7.5,-3.358 7.5,-7.5 C 173.001,11.563 161.438,0 147.224,0 Z"
          /><path
         style="fill:#0e3a29;fill-opacity:1"
             d="m 216.745,0 -0.369,0 C 202.163,0 190.6,11.563 190.6,25.776 l 0,22.074 c 0,14.213 11.563,25.776 25.776,25.776 l 0.369,0 c 14.213,0 25.776,-11.563 25.776,-25.776 l 0,-22.074 C 242.521,11.563 230.958,0 216.745,0 Z m 10.776,47.851 c 0,5.942 -4.834,10.776 -10.776,10.776 l -0.369,0 c -5.942,0 -10.776,-4.834 -10.776,-10.776 l 0,-22.075 C 205.6,19.834 210.434,15 216.376,15 l 0.369,0 c 5.942,0 10.776,4.834 10.776,10.776 l 0,22.075 z"
          /><path
         style="fill:#0e3a29;fill-opacity:1"
             d="m 61.682,187.874 -0.369,0 c -14.213,0 -25.776,11.563 -25.776,25.776 l 0,22.074 c 0,14.213 11.563,25.776 25.776,25.776 l 0.369,0 c 14.213,0 25.776,-11.563 25.776,-25.776 l 0,-22.074 C 87.459,199.438 75.896,187.874 61.682,187.874 Z m 10.777,47.851 c 0,5.942 -4.834,10.776 -10.776,10.776 l -0.369,0 c -5.942,0 -10.776,-4.834 -10.776,-10.776 l 0,-22.075 c 0,-5.942 4.834,-10.776 10.776,-10.776 l 0.369,0 c 5.942,0 10.776,4.834 10.776,10.776 l 0,22.075 z"
          /></g><g
       style="fill:#0e3a29;fill-opacity:1"
        /><g
       style="fill:#0e3a29;fill-opacity:1"
        /><g
       style="fill:#0e3a29;fill-opacity:1"
        /><g
       style="fill:#0e3a29;fill-opacity:1"
        /><g
       style="fill:#0e3a29;fill-opacity:1"
        /><g
       style="fill:#0e3a29;fill-opacity:1"
        /><g
       style="fill:#0e3a29;fill-opacity:1"
        /><g
       style="fill:#0e3a29;fill-opacity:1"
        /><g
       style="fill:#0e3a29;fill-opacity:1"
        /><g
       style="fill:#0e3a29;fill-opacity:1"
        /><g
       style="fill:#0e3a29;fill-opacity:1"
        /><g
       style="fill:#0e3a29;fill-opacity:1"
        /><g
       style="fill:#0e3a29;fill-opacity:1"
        /><g
       style="fill:#0e3a29;fill-opacity:1"
        /><g
       style="fill:#0e3a29;fill-opacity:1"
        /></g></svg>
