<?xml version="1.0" encoding="UTF-8" standalone="no"?>
<svg xmlns="http://www.w3.org/2000/svg" width="24" height="24" viewBox="0 0 1000 1000">
    <path fill="#0e3a5a" d="M108.318 875.803l-25.162-26.444 382.85-382.85 382.85-382.85 27.032 27.001c14.868 14.85 27.032 27.406 27.032 27.902 0 .731-315.687 314.108-703.338 698.192l-66.102 65.494zm57.63-444.429l-90.64-76.137c0-1.574 44.255-60.541 45.484-60.61.454-.025 29.746 23.612 65.094 52.526l64.269 52.572 68.526-67.488L445.76 206.002l71.554-70.7 13.002-11.952 24.907 27.993c13.699 15.396 24.907 28.599 24.907 29.34s-72.797 74.276-161.77 163.412L256.59 506.16zm642.033 427.682l-63.8-61.523c-.627 0-28.044 26.855-60.926 59.679L623.47 916.89l-17.945-18.767-29.954-31.755-12.009-12.988 61.018-57.575 61.018-57.575-55.674-54.9-55.675-54.9 26.031-28.216c14.317-15.519 26.619-28.087 27.338-27.93s27.21 25.329 58.871 55.938l57.564 55.653 26.511-26.118 57.366-56.587 30.855-30.468 26.751 27.884 26.751 27.884-56.687 57.167-56.687 57.167 62.883 62.896 62.882 62.896-27.018 26.991-27.018 26.991z"/>
</svg>