<?xml version="1.0" encoding="UTF-8" standalone="no"?>
<svg
   xmlns:dc="http://purl.org/dc/elements/1.1/"
   xmlns:cc="http://creativecommons.org/ns#"
   xmlns:rdf="http://www.w3.org/1999/02/22-rdf-syntax-ns#"
   xmlns:svg="http://www.w3.org/2000/svg"
   xmlns="http://www.w3.org/2000/svg"
   xmlns:sodipodi="http://sodipodi.sourceforge.net/DTD/sodipodi-0.dtd"
   xmlns:inkscape="http://www.inkscape.org/namespaces/inkscape"
   version="1.1"
   x="0px"
   y="0px"
   viewBox="0 0 1000 1000"
   enable-background="new 0 0 1000 1000"
   xml:space="preserve"
   id="svg2"
   inkscape:version="1.0 (4035a4fb49, 2020-05-01)"
   sodipodi:docname="boolean.svg"><defs
     id="defs16" /><sodipodi:namedview
     pagecolor="#ffffff"
     bordercolor="#666666"
     borderopacity="1"
     objecttolerance="10"
     gridtolerance="10"
     guidetolerance="10"
     inkscape:pageopacity="0"
     inkscape:pageshadow="2"
     inkscape:window-width="3440"
     inkscape:window-height="1387"
     id="namedview14"
     showgrid="false"
     inkscape:zoom="0.472"
     inkscape:cx="266.21966"
     inkscape:cy="1394.7761"
     inkscape:window-x="-8"
     inkscape:window-y="-8"
     inkscape:window-maximized="1"
     inkscape:current-layer="svg2"
     inkscape:document-rotation="0" /><metadata
     id="metadata4"> Svg Vector Icons : http://www.onlinewebfonts.com/icon <rdf:RDF><cc:Work
     rdf:about=""><dc:format>image/svg+xml</dc:format><dc:type
       rdf:resource="http://purl.org/dc/dcmitype/StillImage" /><dc:title></dc:title></cc:Work></rdf:RDF></metadata><path
     style="fill:#0e3a5a;fill-opacity:1;stroke-width:0.740164;stroke-linecap:round;stroke-linejoin:round"
     d="M 108.31751,875.80277 83.155527,849.35896 466.00581,466.50864 848.8561,83.658306 875.888,110.6589 c 14.86754,14.85034 27.0319,27.40603 27.0319,27.90156 0,0.73123 -315.68657,314.10806 -703.33829,698.19243 l -66.10195,65.49367 z"
     id="path837" /><path
     style="fill:#0e3a5a;fill-opacity:1;stroke-width:0.740164;stroke-linecap:round;stroke-linejoin:round"
     d="m 165.94768,431.37437 c -49.85333,-41.13182 -90.641184,-75.39365 -90.639675,-76.13738 0,-1.57365 44.255115,-60.54114 45.484265,-60.60954 0.4537,-0.0253 29.74595,23.61156 65.09391,52.52625 l 64.26911,52.57216 68.52591,-67.48819 c 37.68941,-37.11852 94.87466,-93.92455 127.07861,-126.23564 32.2038,-32.3111 64.40321,-64.126 71.55413,-70.69979 l 13.00155,-11.95235 24.90745,27.99301 c 13.69907,15.39615 24.90745,28.59933 24.90745,29.34039 0,0.74107 -72.79659,74.27639 -161.77023,163.4118 L 256.59009,506.15951 Z"
     id="path839" /><path
     style="fill:#0e3a5a;fill-opacity:1;stroke-width:0.740164;stroke-linecap:round;stroke-linejoin:round"
     d="m 807.98123,859.05588 c -34.46294,-33.83772 -63.17301,-61.52311 -63.80029,-61.52311 -0.62729,0 -28.04389,26.85534 -60.92582,59.67854 l -59.78534,59.67854 -17.9448,-18.76684 c -9.86966,-10.32176 -23.34899,-24.61156 -29.95404,-31.75512 l -12.00925,-12.98827 61.01783,-57.57503 61.01768,-57.57503 -55.67447,-54.90045 -55.67461,-54.90045 26.03142,-28.21554 c 14.31727,-15.51854 26.61935,-28.08726 27.33805,-27.93048 0.71854,0.15678 27.21032,25.32902 58.87052,55.93832 l 57.56405,55.65326 26.51145,-26.11848 c 14.5812,-14.36517 40.39605,-39.82912 57.36624,-56.58658 l 30.85494,-30.46809 26.75072,27.88433 26.75087,27.88435 -56.6869,57.16742 -56.6869,57.16742 62.88259,62.89584 62.88243,62.89586 -27.01828,26.99134 -27.01843,26.99135 z"
     id="path841" /></svg>
