<?xml version="1.0" encoding="UTF-8" standalone="no"?>
<svg
   xmlns:dc="http://purl.org/dc/elements/1.1/"
   xmlns:cc="http://creativecommons.org/ns#"
   xmlns:rdf="http://www.w3.org/1999/02/22-rdf-syntax-ns#"
   xmlns:svg="http://www.w3.org/2000/svg"
   xmlns="http://www.w3.org/2000/svg"
   xmlns:sodipodi="http://sodipodi.sourceforge.net/DTD/sodipodi-0.dtd"
   xmlns:inkscape="http://www.inkscape.org/namespaces/inkscape"
   inkscape:export-ydpi="34.285713"
   inkscape:export-xdpi="34.285713"
   inkscape:export-filename="C:\eclipse\workspace\pdi-expression-plugin\src\main\resources\Date.png"
   sodipodi:docname="date.svg"
   inkscape:version="1.0 (4035a4fb49, 2020-05-01)"
   xml:space="preserve"
   enable-background="new 0 0 42 42"
   viewBox="0 0 42 42"
   height="42px"
   width="42px"
   y="0px"
   x="0px"
   id="Layer_1"
   version="1.1"><metadata
     id="metadata13"><rdf:RDF><cc:Work
         rdf:about=""><dc:format>image/svg+xml</dc:format><dc:type
           rdf:resource="http://purl.org/dc/dcmitype/StillImage" /><dc:title /></cc:Work></rdf:RDF></metadata><defs
     id="defs11" /><sodipodi:namedview
     inkscape:document-rotation="0"
     inkscape:current-layer="Layer_1"
     inkscape:window-maximized="1"
     inkscape:window-y="-8"
     inkscape:window-x="-8"
     inkscape:cy="37.440954"
     inkscape:cx="-53.618082"
     inkscape:zoom="7.9999999"
     showgrid="false"
     id="namedview9"
     inkscape:window-height="1387"
     inkscape:window-width="3440"
     inkscape:pageshadow="2"
     inkscape:pageopacity="0"
     guidetolerance="10"
     gridtolerance="10"
     objecttolerance="10"
     borderopacity="1"
     bordercolor="#666666"
     pagecolor="#ffffff" /><path
     inkscape:connector-curvature="0"
     id="path4153"
     d="m 28.984209,36.338312 c -0.286074,-0.07104 -0.511126,-0.257296 -0.593925,-0.491539 -0.03334,-0.09432 -0.04266,-0.41272 -0.04266,-1.457736 l 0,-1.337061 0.0868,-0.173031 c 0.167515,-0.333916 0.443824,-0.455261 1.030035,-0.452355 0.429846,0.0021 0.658873,0.07304 0.848553,0.262719 0.214873,0.214873 0.221096,0.262481 0.221096,1.691401 0,0.831077 -0.01215,1.318576 -0.03513,1.409847 -0.04745,0.188441 -0.236132,0.396206 -0.443455,0.488307 -0.141403,0.06282 -0.225328,0.07502 -0.559605,0.08138 -0.216289,0.0041 -0.446562,-0.0058 -0.511718,-0.02193 z"
     style="opacity:1;fill:#0e3a5a;fill-opacity:1;fill-rule:nonzero;stroke:none;stroke-width:12.01181126;stroke-linecap:round;stroke-linejoin:round;stroke-miterlimit:4;stroke-dasharray:none;stroke-opacity:1" /><path
     inkscape:connector-curvature="0"
     id="path4161"
     d="m 29.476296,37.842568 c -0.152117,-0.346003 -0.291333,-0.632623 -0.309369,-0.636935 -0.01804,-0.0043 -0.160207,-0.03138 -0.315935,-0.06016 -0.71041,-0.131266 -1.190619,-0.541199 -1.354277,-1.156085 -0.06721,-0.25252 -0.06618,-2.924222 0.0012,-3.183016 0.147702,-0.567066 0.559327,-0.952539 1.206966,-1.130283 0.329364,-0.09039 1.107994,-0.0966 1.435958,-0.01144 0.619721,0.160914 1.040175,0.52758 1.221131,1.064912 0.06232,0.18505 0.06686,0.274559 0.07748,1.527562 0.01263,1.490313 -0.0016,1.664386 -0.163611,2.007849 -0.184989,0.392069 -0.501658,0.66444 -0.934634,0.803889 -0.118852,0.03828 -0.216095,0.07914 -0.216095,0.09081 0,0.01167 0.09268,0.230016 0.205954,0.485223 0.113275,0.255206 0.201554,0.468411 0.196177,0.473789 -0.0054,0.0054 -0.181816,0.087 -0.392085,0.181376 l -0.382306,0.171599 -0.276576,-0.629095 z m 0.628338,-1.56122 c 0.231832,-0.114131 0.334785,-0.228014 0.410517,-0.454103 0.04293,-0.128173 0.05043,-0.338809 0.05043,-1.417867 0,-1.41814 -0.0098,-1.49954 -0.20653,-1.717308 -0.257017,-0.284487 -0.897779,-0.389234 -1.447141,-0.236568 -0.237311,0.06595 -0.40085,0.199578 -0.505787,0.413287 l -0.08995,0.183187 0,1.337061 c 0,1.478181 0.001,1.486896 0.198059,1.705003 0.216106,0.239204 0.454539,0.310315 1.000683,0.298447 0.3582,-0.0078 0.393164,-0.01437 0.589724,-0.111139 z"
     style="opacity:1;fill:#0e3a5a;fill-opacity:1;fill-rule:nonzero;stroke:none;stroke-width:12.01181126;stroke-linecap:round;stroke-linejoin:round;stroke-miterlimit:4;stroke-dasharray:none;stroke-opacity:1" /><g
     style="fill:#0e3a5a;fill-opacity:1"
     transform="matrix(0.07208092,0,0,0.06731016,3.7768468,4.3730769)"
     id="g4256"><g
       style="fill:#0e3a5a;fill-opacity:1"
       id="g4211"><g
         style="fill:#0e3a5a;fill-opacity:1"
         id="_x35_4_37_"><g
           style="fill:#0e3a5a;fill-opacity:1"
           id="g4214"><path
             style="fill:#0e3a5a;fill-opacity:1"
             inkscape:connector-curvature="0"
             d="m 392.771,39.249 -24.462,0 0,-18.471 C 368.309,9.305 359.006,0 347.53,0 l -7.552,0 C 328.502,0 319.2,9.305 319.2,20.778 l 0,18.471 -145.355,0 0,-18.471 C 173.845,9.305 164.542,0 153.066,0 l -7.552,0 c -11.476,0 -20.777,9.305 -20.777,20.778 l 0,18.471 -32.845,0 c -30.932,0 -56.096,25.165 -56.096,56.096 l 0,333.222 c 0,30.932 25.164,56.096 56.096,56.096 l 300.879,0 c 30.932,0 56.096,-25.165 56.096,-56.096 l 0,-333.221 C 448.866,64.414 423.702,39.249 392.771,39.249 Z m 22.314,389.318 c 0,12.304 -10.011,22.314 -22.313,22.314 l -300.88,0 c -12.304,0 -22.314,-10.011 -22.314,-22.314 l 0,-333.221 c 0,-12.304 10.011,-22.315 22.314,-22.315 l 32.845,0 0,26.537 c 0,11.474 9.302,20.779 20.777,20.779 l 7.552,0 c 11.477,0 20.779,-9.306 20.779,-20.779 l 0,-26.537 145.355,0 0,26.537 c 0,11.474 9.303,20.779 20.777,20.779 l 7.553,0 c 11.477,0 20.778,-9.306 20.778,-20.779 l 0,-26.537 24.462,0 c 12.304,0 22.313,10.011 22.313,22.315 l 0.002,333.221 0,0 z"
             id="path4216" /><path
             style="fill:#0e3a5a;fill-opacity:1"
             inkscape:connector-curvature="0"
             d="m 239.642,327.275 c 11.083,-6.787 22.739,-13.348 34.958,-19.685 12.217,-6.332 23.418,-13.405 33.6,-21.212 10.183,-7.806 18.551,-16.912 25.115,-27.32 6.561,-10.405 9.843,-23.19 9.843,-38.353 0,-12.441 -2.322,-23.36 -6.957,-32.752 -4.642,-9.386 -11.2,-17.14 -19.687,-23.249 -8.483,-6.109 -18.667,-10.691 -30.545,-13.746 -11.88,-3.055 -24.945,-4.582 -39.201,-4.582 -15.839,0 -30.152,2.265 -42.934,6.788 -12.785,4.529 -23.588,11.147 -32.412,19.854 -8.824,8.713 -15.39,19.404 -19.685,32.073 -4.301,12.674 -5.998,27.151 -5.091,43.442 l 63.806,0 c -0.456,-14.477 1.979,-26.187 7.298,-35.127 5.313,-8.936 14.764,-13.406 28.339,-13.406 7.918,0 14.647,2.095 20.194,6.279 5.542,4.189 8.314,11.709 8.314,22.57 0,4.301 -1.076,8.146 -3.225,11.539 -2.152,3.394 -4.868,6.449 -8.146,9.164 -3.281,2.715 -6.787,5.209 -10.521,7.467 -3.733,2.265 -7.074,4.301 -10.012,6.108 -7.467,4.529 -15.162,9.111 -23.079,13.746 -7.923,4.64 -15.56,9.503 -22.909,14.595 -7.355,5.09 -14.255,10.579 -20.703,16.461 -6.448,5.885 -12.165,12.217 -17.14,19.006 -5.887,7.922 -10.352,16.746 -13.406,26.473 -3.055,9.73 -4.242,20.363 -3.563,31.903 l 204.656,0 0,-57.697 -106.91,0 0.003,-0.339 0,0 z"
             id="path4218" /></g></g></g><g
       style="fill:#0e3a5a;fill-opacity:1"
       id="g4220" /><g
       style="fill:#0e3a5a;fill-opacity:1"
       id="g4222" /><g
       style="fill:#0e3a5a;fill-opacity:1"
       id="g4224" /><g
       style="fill:#0e3a5a;fill-opacity:1"
       id="g4226" /><g
       style="fill:#0e3a5a;fill-opacity:1"
       id="g4228" /><g
       style="fill:#0e3a5a;fill-opacity:1"
       id="g4230" /><g
       style="fill:#0e3a5a;fill-opacity:1"
       id="g4232" /><g
       style="fill:#0e3a5a;fill-opacity:1"
       id="g4234" /><g
       style="fill:#0e3a5a;fill-opacity:1"
       id="g4236" /><g
       style="fill:#0e3a5a;fill-opacity:1"
       id="g4238" /><g
       style="fill:#0e3a5a;fill-opacity:1"
       id="g4240" /><g
       style="fill:#0e3a5a;fill-opacity:1"
       id="g4242" /><g
       style="fill:#0e3a5a;fill-opacity:1"
       id="g4244" /><g
       style="fill:#0e3a5a;fill-opacity:1"
       id="g4246" /><g
       style="fill:#0e3a5a;fill-opacity:1"
       id="g4248" /></g></svg>
