<?xml version="1.0" encoding="UTF-8" standalone="no"?>
<svg
   xmlns:dc="http://purl.org/dc/elements/1.1/"
   xmlns:cc="http://creativecommons.org/ns#"
   xmlns:rdf="http://www.w3.org/1999/02/22-rdf-syntax-ns#"
   xmlns:svg="http://www.w3.org/2000/svg"
   xmlns="http://www.w3.org/2000/svg"
   xmlns:sodipodi="http://sodipodi.sourceforge.net/DTD/sodipodi-0.dtd"
   xmlns:inkscape="http://www.inkscape.org/namespaces/inkscape"
   xml:space="preserve"
   style="enable-background:new 0 0 32.667 32.667;"
   viewBox="0 0 32.667 32.667"
   height="32px"
   width="32px"
   y="0px"
   x="0px"
   id="Capa_1"
   version="1.1"
   inkscape:version="0.91 r13725"
   sodipodi:docname="inet.svg"
   inkscape:export-filename="C:\eclipse\workspace\pdi-expression-plugin\src\main\resources\inet.png"
   inkscape:export-xdpi="45"
   inkscape:export-ydpi="45"><sodipodi:namedview
     pagecolor="#ffffff"
     bordercolor="#666666"
     borderopacity="1"
     objecttolerance="10"
     gridtolerance="10"
     guidetolerance="10"
     inkscape:pageopacity="0"
     inkscape:pageshadow="2"
     inkscape:window-width="1755"
     inkscape:window-height="906"
     id="namedview34"
     showgrid="false"
     inkscape:zoom="7.375"
     inkscape:cx="-42.440678"
     inkscape:cy="16"
     inkscape:window-x="0"
     inkscape:window-y="0"
     inkscape:window-maximized="0"
     inkscape:current-layer="Capa_1" /><metadata
     id="metadata41"><rdf:RDF><cc:Work
         rdf:about=""><dc:format>image/svg+xml</dc:format><dc:type
           rdf:resource="http://purl.org/dc/dcmitype/StillImage" /><dc:title /></cc:Work></rdf:RDF></metadata><defs
     id="defs39" /><g
     id="g7" /><g
     id="g9" /><g
     id="g11" /><g
     id="g13" /><g
     id="g15" /><g
     id="g17" /><g
     id="g19" /><g
     id="g21" /><g
     id="g23" /><g
     id="g25" /><g
     id="g27" /><g
     id="g29" /><g
     id="g31" /><g
     id="g33" /><g
     id="g35" /><path
     id="path4720"
     d="M 15.323038,30.174721 C 6.8053101,29.410409 1.0359576,20.847357 3.3668065,12.42891 4.8736305,6.9866365 9.7912184,2.82198 15.240222,2.373432 c 5.879191,-0.4839599 11.118174,2.5465214 13.640219,7.890163 0.999334,2.117364 1.242636,3.261182 1.246967,5.862276 0.0036,2.133983 -0.01208,2.258917 -0.428807,3.427434 -0.574645,1.611315 -1.177154,2.595509 -2.263858,3.69799 -3.008161,3.051838 -7.238802,2.917631 -11.3277,-0.359347 -2.02326,-1.621507 -5.990519,-5.983865 -6.7197471,-7.388965 -0.8888369,-1.71264 -1.0026074,-3.403092 -0.3281794,-4.876237 0.65352,-1.4274756 1.6471565,-2.103748 3.5124875,-2.3906104 0.536551,-0.082514 0.59666,-0.056203 1.006352,0.4405023 0.786354,0.9533658 1.38426,3.0909321 0.995575,3.5592681 -0.08894,0.107163 -0.581236,0.297653 -1.093997,0.423312 -1.198363,0.293674 -1.31635,0.375083 -1.301482,0.898003 0.01576,0.554309 0.60953,1.237405 4.007452,4.610337 2.081225,2.065918 2.689907,2.595366 2.983771,2.595366 0.478403,0 0.724178,-0.390112 0.935954,-1.485617 0.09173,-0.4745 0.253424,-0.934638 0.359327,-1.022531 0.486319,-0.403609 2.858267,0.356371 3.665737,1.174516 l 0.363668,0.368474 -0.201574,1.070862 c -0.231472,1.229693 -0.521291,1.767467 -1.321798,2.452673 l -0.568779,0.486851 0.427843,0 c 1.314154,0 3.090321,-0.994879 4.053338,-2.270382 C 30.891262,16.228851 27.761485,7.3945532 20.929027,4.7317524 17.22861,3.2895964 13.184901,3.7399204 9.8590423,5.9645508 5.0813524,9.1602953 3.17413,15.406254 5.2980477,20.901343 c 1.4986457,3.87736 5.0953113,6.825158 9.2010993,7.541148 0.663411,0.115688 1.476907,0.210344 1.807768,0.210344 0.488456,0 0.644073,0.06488 0.827643,0.345039 0.292362,0.4462 0.166065,0.94509 -0.292101,1.153844 -0.195733,0.08918 -0.368521,0.153199 -0.383971,0.142258 -0.01545,-0.01093 -0.526403,-0.0646 -1.135448,-0.119255 z"
     style="opacity:0;fill:#3d6480;fill-opacity:1;stroke:none;stroke-width:0.13841949" /><path
     id="path6157"
     d="M 15.373524,30.241532 C 9.4590171,29.71631 4.4948993,25.325331 3.1495566,19.4289 2.8853336,18.270851 2.8351108,17.767701 2.8344804,16.272355 2.8338783,14.84428 2.8624579,14.512311 3.0789071,13.433196 3.661589,10.528214 5.2289355,7.7554878 7.3851999,5.8151154 9.463012,3.9453407 11.86391,2.8004883 14.603655,2.3730424 c 0.792794,-0.123689 2.557731,-0.1513354 3.401239,-0.053278 4.178127,0.4857059 7.800699,2.7691866 10.093626,6.3624972 0.376858,0.5905832 1.062626,1.9731474 1.304089,2.6291434 0.578069,1.570479 0.864496,3.167697 0.867086,4.835182 0.0019,1.250875 -0.129836,2.143732 -0.479274,3.247265 -0.974858,3.078626 -3.059242,5.229089 -5.729652,5.91129 -2.615561,0.668189 -5.518795,-0.261862 -8.365191,-2.679788 -1.458499,-1.23895 -5.193112,-5.256664 -5.9935583,-6.447898 -0.7999742,-1.19053 -1.1504725,-2.370572 -1.1056109,-3.722318 0.0522,-1.572874 0.6660011,-2.7685769 1.8517492,-3.607264 0.413249,-0.2922946 0.723447,-0.3940503 1.760618,-0.5775449 l 0.843906,-0.1493021 0.189416,0.12535 c 0.404282,0.2675409 0.937601,1.185312 1.273064,2.190775 0.173257,0.519289 0.202543,0.670217 0.220645,1.13709 0.01853,0.4778 0.0097,0.555992 -0.07823,0.695461 -0.109203,0.17316 -0.154508,0.189515 -1.228454,0.443458 -1.090271,0.257804 -1.325475,0.42911 -1.245847,0.907387 0.08034,0.482533 0.332916,0.783781 2.346967,2.799201 0.780572,0.781103 1.991805,2.007423 2.691628,2.725156 0.98746,1.012732 1.329578,1.333123 1.527707,1.430685 0.272848,0.134356 0.629188,0.166522 0.804623,0.07263 0.156298,-0.08365 0.309507,-0.496949 0.507051,-1.367836 0.100529,-0.443185 0.211977,-0.863251 0.247663,-0.93348 0.332932,-0.655187 2.807306,0.02049 3.874483,1.058001 0.362652,0.352572 0.357243,0.31316 0.183212,1.334863 -0.167927,0.985861 -0.281344,1.336514 -0.564983,1.746753 -0.27606,0.399277 -0.794224,0.932694 -1.073194,1.104785 -0.106746,0.06585 -0.194675,0.13928 -0.195399,0.163179 -0.0016,0.05428 0.645897,-0.0018 1.074523,-0.09303 1.66588,-0.354649 3.11284,-1.585258 4.058069,-3.451304 0.89701,-1.770851 1.148531,-3.50799 0.831312,-5.741463 C 28.11808,11.801207 26.913599,9.386569 25.003125,7.4645938 24.045223,6.5009249 23.071139,5.806517 21.773172,5.1620153 20.055773,4.3092454 18.487348,3.945288 16.536733,3.9468844 15.500447,3.9477325 15.082784,3.9866237 14.187676,4.1656193 10.650632,4.8729257 7.5027919,7.2717216 5.8463844,10.52206 c -0.7210312,1.414867 -1.0900463,2.606124 -1.3037349,4.208726 -0.1084228,0.813141 -0.1085686,2.268134 -3.083e-4,3.083137 0.672899,5.065739 4.2356741,9.178057 9.0091328,10.398752 0.895034,0.228883 1.451467,0.313891 2.383258,0.364099 0.879718,0.0474 1.010294,0.0843 1.232389,0.348244 0.158637,0.18853 0.195456,0.328067 0.166387,0.63059 -0.02856,0.297243 -0.187836,0.525658 -0.449363,0.64443 -0.219454,0.09966 -0.705292,0.113009 -1.510621,0.04149 z"
     style="opacity:0;fill:#3d6480;fill-opacity:1;stroke:none" /><path
     id="path6159"
     d="M 15.373524,30.241532 C 9.4590171,29.71631 4.4948993,25.325331 3.1495566,19.4289 2.8853336,18.270851 2.8351108,17.767701 2.8344804,16.272355 2.8338783,14.84428 2.8624579,14.512311 3.0789071,13.433196 3.661589,10.528214 5.2289355,7.7554878 7.3851999,5.8151154 9.463012,3.9453407 11.86391,2.8004883 14.603655,2.3730424 c 0.792794,-0.123689 2.557731,-0.1513354 3.401239,-0.053278 4.178127,0.4857059 7.800699,2.7691866 10.093626,6.3624972 0.376858,0.5905832 1.062626,1.9731474 1.304089,2.6291434 0.578069,1.570479 0.864496,3.167697 0.867086,4.835182 0.0019,1.250875 -0.129836,2.143732 -0.479274,3.247265 -0.974858,3.078626 -3.059242,5.229089 -5.729652,5.91129 -2.615561,0.668189 -5.518795,-0.261862 -8.365191,-2.679788 -1.458499,-1.23895 -5.193112,-5.256664 -5.9935583,-6.447898 -0.7999742,-1.19053 -1.1504725,-2.370572 -1.1056109,-3.722318 0.0522,-1.572874 0.6660011,-2.7685769 1.8517492,-3.607264 0.413249,-0.2922946 0.723447,-0.3940503 1.760618,-0.5775449 l 0.843906,-0.1493021 0.189416,0.12535 c 0.404282,0.2675409 0.937601,1.185312 1.273064,2.190775 0.173257,0.519289 0.202543,0.670217 0.220645,1.13709 0.01853,0.4778 0.0097,0.555992 -0.07823,0.695461 -0.109203,0.17316 -0.154508,0.189515 -1.228454,0.443458 -1.090271,0.257804 -1.325475,0.42911 -1.245847,0.907387 0.08034,0.482533 0.332916,0.783781 2.346967,2.799201 0.780572,0.781103 1.991805,2.007423 2.691628,2.725156 0.98746,1.012732 1.329578,1.333123 1.527707,1.430685 0.272848,0.134356 0.629188,0.166522 0.804623,0.07263 0.156298,-0.08365 0.309507,-0.496949 0.507051,-1.367836 0.100529,-0.443185 0.211977,-0.863251 0.247663,-0.93348 0.332932,-0.655187 2.807306,0.02049 3.874483,1.058001 0.362652,0.352572 0.357243,0.31316 0.183212,1.334863 -0.167927,0.985861 -0.281344,1.336514 -0.564983,1.746753 -0.27606,0.399277 -0.794224,0.932694 -1.073194,1.104785 -0.106746,0.06585 -0.194675,0.13928 -0.195399,0.163179 -0.0016,0.05428 0.645897,-0.0018 1.074523,-0.09303 1.66588,-0.354649 3.11284,-1.585258 4.058069,-3.451304 0.89701,-1.770851 1.148531,-3.50799 0.831312,-5.741463 C 28.11808,11.801207 26.913599,9.386569 25.003125,7.4645938 24.045223,6.5009249 23.071139,5.806517 21.773172,5.1620153 20.055773,4.3092454 18.487348,3.945288 16.536733,3.9468844 15.500447,3.9477325 15.082784,3.9866237 14.187676,4.1656193 10.650632,4.8729257 7.5027919,7.2717216 5.8463844,10.52206 c -0.7210312,1.414867 -1.0900463,2.606124 -1.3037349,4.208726 -0.1084228,0.813141 -0.1085686,2.268134 -3.083e-4,3.083137 0.672899,5.065739 4.2356741,9.178057 9.0091328,10.398752 0.895034,0.228883 1.451467,0.313891 2.383258,0.364099 0.879718,0.0474 1.010294,0.0843 1.232389,0.348244 0.158637,0.18853 0.195456,0.328067 0.166387,0.63059 -0.02856,0.297243 -0.187836,0.525658 -0.449363,0.64443 -0.219454,0.09966 -0.705292,0.113009 -1.510621,0.04149 z"
     style="opacity:0;fill:#3d6480;fill-opacity:1;stroke:none" /><path
     id="path6161"
     d="M 15.373524,30.241532 C 9.4590171,29.71631 4.4948993,25.325331 3.1495566,19.4289 2.8853336,18.270851 2.8351108,17.767701 2.8344804,16.272355 2.8338783,14.84428 2.8624579,14.512311 3.0789071,13.433196 3.661589,10.528214 5.2289355,7.7554878 7.3851999,5.8151154 9.463012,3.9453407 11.86391,2.8004883 14.603655,2.3730424 c 0.792794,-0.123689 2.557731,-0.1513354 3.401239,-0.053278 4.178127,0.4857059 7.800699,2.7691866 10.093626,6.3624972 0.376858,0.5905832 1.062626,1.9731474 1.304089,2.6291434 0.578069,1.570479 0.864496,3.167697 0.867086,4.835182 0.0019,1.250875 -0.129836,2.143732 -0.479274,3.247265 -0.974858,3.078626 -3.059242,5.229089 -5.729652,5.91129 -2.615561,0.668189 -5.518795,-0.261862 -8.365191,-2.679788 -1.458499,-1.23895 -5.193112,-5.256664 -5.9935583,-6.447898 -0.7999742,-1.19053 -1.1504725,-2.370572 -1.1056109,-3.722318 0.0522,-1.572874 0.6660011,-2.7685769 1.8517492,-3.607264 0.413249,-0.2922946 0.723447,-0.3940503 1.760618,-0.5775449 l 0.843906,-0.1493021 0.189416,0.12535 c 0.404282,0.2675409 0.937601,1.185312 1.273064,2.190775 0.173257,0.519289 0.202543,0.670217 0.220645,1.13709 0.01853,0.4778 0.0097,0.555992 -0.07823,0.695461 -0.109203,0.17316 -0.154508,0.189515 -1.228454,0.443458 -1.090271,0.257804 -1.325475,0.42911 -1.245847,0.907387 0.08034,0.482533 0.332916,0.783781 2.346967,2.799201 0.780572,0.781103 1.991805,2.007423 2.691628,2.725156 0.98746,1.012732 1.329578,1.333123 1.527707,1.430685 0.272848,0.134356 0.629188,0.166522 0.804623,0.07263 0.156298,-0.08365 0.309507,-0.496949 0.507051,-1.367836 0.100529,-0.443185 0.211977,-0.863251 0.247663,-0.93348 0.332932,-0.655187 2.807306,0.02049 3.874483,1.058001 0.362652,0.352572 0.357243,0.31316 0.183212,1.334863 -0.167927,0.985861 -0.281344,1.336514 -0.564983,1.746753 -0.27606,0.399277 -0.794224,0.932694 -1.073194,1.104785 -0.106746,0.06585 -0.194675,0.13928 -0.195399,0.163179 -0.0016,0.05428 0.645897,-0.0018 1.074523,-0.09303 1.66588,-0.354649 3.11284,-1.585258 4.058069,-3.451304 0.89701,-1.770851 1.148531,-3.50799 0.831312,-5.741463 C 28.11808,11.801207 26.913599,9.386569 25.003125,7.4645938 24.045223,6.5009249 23.071139,5.806517 21.773172,5.1620153 20.055773,4.3092454 18.487348,3.945288 16.536733,3.9468844 15.500447,3.9477325 15.082784,3.9866237 14.187676,4.1656193 10.650632,4.8729257 7.5027919,7.2717216 5.8463844,10.52206 c -0.7210312,1.414867 -1.0900463,2.606124 -1.3037349,4.208726 -0.1084228,0.813141 -0.1085686,2.268134 -3.083e-4,3.083137 0.672899,5.065739 4.2356741,9.178057 9.0091328,10.398752 0.895034,0.228883 1.451467,0.313891 2.383258,0.364099 0.879718,0.0474 1.010294,0.0843 1.232389,0.348244 0.158637,0.18853 0.195456,0.328067 0.166387,0.63059 -0.02856,0.297243 -0.187836,0.525658 -0.449363,0.64443 -0.219454,0.09966 -0.705292,0.113009 -1.510621,0.04149 z"
     style="opacity:0;fill:#3d6480;fill-opacity:1;stroke:none" /><path
     id="path6163"
     d="M 15.373524,30.241532 C 9.4590171,29.71631 4.4948993,25.325331 3.1495566,19.4289 2.8853336,18.270851 2.8351108,17.767701 2.8344804,16.272355 2.8338783,14.84428 2.8624579,14.512311 3.0789071,13.433196 3.661589,10.528214 5.2289355,7.7554878 7.3851999,5.8151154 9.463012,3.9453407 11.86391,2.8004883 14.603655,2.3730424 c 0.792794,-0.123689 2.557731,-0.1513354 3.401239,-0.053278 4.178127,0.4857059 7.800699,2.7691866 10.093626,6.3624972 0.376858,0.5905832 1.062626,1.9731474 1.304089,2.6291434 0.578069,1.570479 0.864496,3.167697 0.867086,4.835182 0.0019,1.250875 -0.129836,2.143732 -0.479274,3.247265 -0.974858,3.078626 -3.059242,5.229089 -5.729652,5.91129 -2.615561,0.668189 -5.518795,-0.261862 -8.365191,-2.679788 -1.458499,-1.23895 -5.193112,-5.256664 -5.9935583,-6.447898 -0.7999742,-1.19053 -1.1504725,-2.370572 -1.1056109,-3.722318 0.0522,-1.572874 0.6660011,-2.7685769 1.8517492,-3.607264 0.413249,-0.2922946 0.723447,-0.3940503 1.760618,-0.5775449 l 0.843906,-0.1493021 0.189416,0.12535 c 0.404282,0.2675409 0.937601,1.185312 1.273064,2.190775 0.173257,0.519289 0.202543,0.670217 0.220645,1.13709 0.01853,0.4778 0.0097,0.555992 -0.07823,0.695461 -0.109203,0.17316 -0.154508,0.189515 -1.228454,0.443458 -1.090271,0.257804 -1.325475,0.42911 -1.245847,0.907387 0.08034,0.482533 0.332916,0.783781 2.346967,2.799201 0.780572,0.781103 1.991805,2.007423 2.691628,2.725156 0.98746,1.012732 1.329578,1.333123 1.527707,1.430685 0.272848,0.134356 0.629188,0.166522 0.804623,0.07263 0.156298,-0.08365 0.309507,-0.496949 0.507051,-1.367836 0.100529,-0.443185 0.211977,-0.863251 0.247663,-0.93348 0.332932,-0.655187 2.807306,0.02049 3.874483,1.058001 0.362652,0.352572 0.357243,0.31316 0.183212,1.334863 -0.167927,0.985861 -0.281344,1.336514 -0.564983,1.746753 -0.27606,0.399277 -0.794224,0.932694 -1.073194,1.104785 -0.106746,0.06585 -0.194675,0.13928 -0.195399,0.163179 -0.0016,0.05428 0.645897,-0.0018 1.074523,-0.09303 1.66588,-0.354649 3.11284,-1.585258 4.058069,-3.451304 0.89701,-1.770851 1.148531,-3.50799 0.831312,-5.741463 C 28.11808,11.801207 26.913599,9.386569 25.003125,7.4645938 24.045223,6.5009249 23.071139,5.806517 21.773172,5.1620153 20.055773,4.3092454 18.487348,3.945288 16.536733,3.9468844 15.500447,3.9477325 15.082784,3.9866237 14.187676,4.1656193 10.650632,4.8729257 7.5027919,7.2717216 5.8463844,10.52206 c -0.7210312,1.414867 -1.0900463,2.606124 -1.3037349,4.208726 -0.1084228,0.813141 -0.1085686,2.268134 -3.083e-4,3.083137 0.672899,5.065739 4.2356741,9.178057 9.0091328,10.398752 0.895034,0.228883 1.451467,0.313891 2.383258,0.364099 0.879718,0.0474 1.010294,0.0843 1.232389,0.348244 0.158637,0.18853 0.195456,0.328067 0.166387,0.63059 -0.02856,0.297243 -0.187836,0.525658 -0.449363,0.64443 -0.219454,0.09966 -0.705292,0.113009 -1.510621,0.04149 z"
     style="opacity:0;fill:#3d6480;fill-opacity:1;stroke:none" /><path
     id="path6165"
     d="M -6.2573729,30.241532 C -12.17188,29.71631 -17.135997,25.325331 -18.48134,19.4289 c -0.264223,-1.158049 -0.314446,-1.661199 -0.315076,-3.156545 -6.02e-4,-1.428075 0.02798,-1.760044 0.244426,-2.839159 0.582682,-2.904982 2.150029,-5.6777082 4.306293,-7.6180806 2.077812,-1.8697747 4.4787102,-3.0146271 7.2184556,-3.442073 0.7927934,-0.123689 2.5577307,-0.1513354 3.4012382,-0.053278 4.17812765,0.4857059 7.8006994,2.7691866 10.0936268,6.3624972 0.3768572,0.5905832 1.0626262,1.9731474 1.3040886,2.6291434 0.5780691,1.570479 0.8644959,3.167697 0.8670863,4.835182 0.00194,1.250875 -0.1298363,2.143732 -0.4792741,3.247265 -0.9748581,3.078626 -3.0592421,5.229089 -5.7296517,5.91129 -2.61556101,0.668189 -5.5187954,-0.261862 -8.3651919,-2.679788 -1.4584984,-1.23895 -5.1931118,-5.256664 -5.9935578,-6.447898 -0.799974,-1.19053 -1.150473,-2.370572 -1.105611,-3.722318 0.0522,-1.572874 0.666001,-2.7685769 1.851749,-3.607264 0.41325,-0.2922946 0.723447,-0.3940503 1.7606186,-0.5775449 l 0.8439055,-0.1493021 0.1894167,0.12535 c 0.4042814,0.2675409 0.9376,1.185312 1.2730639,2.190775 0.1732561,0.519289 0.2025425,0.670217 0.2206444,1.13709 0.018525,0.4778 0.00973,0.555992 -0.078225,0.695461 -0.1092033,0.17316 -0.1545087,0.189515 -1.2284544,0.443458 -1.0902706,0.257804 -1.3254748,0.42911 -1.2458466,0.907387 0.080336,0.482533 0.3329156,0.783781 2.3469669,2.799201 0.780572,0.781103 1.9918043,2.007423 2.6916275,2.725156 0.9874602,1.012732 1.3295783,1.333123 1.527707,1.430685 0.2728483,0.134356 0.6291885,0.166522 0.8046234,0.07263 0.1562979,-0.08365 0.3095068,-0.496949 0.5070512,-1.367836 0.1005283,-0.443185 0.2119769,-0.863251 0.247663,-0.93348 0.33293178,-0.655187 2.8073057,0.02049 3.8744826,1.058001 0.3626523,0.352572 0.3572431,0.31316 0.1832118,1.334863 -0.1679263,0.985861 -0.2813441,1.336514 -0.5649829,1.746753 -0.2760597,0.399277 -0.7942234,0.932694 -1.0731939,1.104785 -0.10674557,0.06585 -0.19467517,0.13928 -0.19539897,0.163179 -0.001644,0.05428 0.64589657,-0.0018 1.07452267,-0.09303 C 3.6425444,23.306809 5.089504,22.0762 6.0347336,20.210154 6.9317429,18.439303 7.1832647,16.702164 6.8660452,14.468691 6.4871835,11.801207 5.2827022,9.386569 3.3722281,7.4645938 2.4143259,6.5009249 1.4402421,5.806517 0.14227523,5.1620153 -1.575124,4.3092454 -3.1435485,3.945288 -5.0941636,3.9468844 c -1.0362863,8.481e-4 -1.4539491,0.039739 -2.3490566,0.2187349 -3.5370448,0.7073064 -6.6848848,3.1061023 -8.3412918,6.3564407 -0.721031,1.414867 -1.090047,2.606124 -1.303735,4.208726 -0.108423,0.813141 -0.108569,2.268134 -3.08e-4,3.083137 0.672899,5.065739 4.235674,9.178057 9.0091319,10.398752 0.8950342,0.228883 1.451467,0.313891 2.3832585,0.364099 0.8797178,0.0474 1.0102935,0.0843 1.232389,0.348244 0.1586372,0.18853 0.1954557,0.328067 0.1663871,0.63059 -0.028562,0.297243 -0.187836,0.525658 -0.4493628,0.64443 -0.2194547,0.09966 -0.7052925,0.113009 -1.5106216,0.04149 z"
     style="opacity:0;fill:#3d6480;fill-opacity:1;stroke:none" /><path
     id="path6167"
     d="M -6.2573729,30.241532 C -12.17188,29.71631 -17.135997,25.325331 -18.48134,19.4289 c -0.264223,-1.158049 -0.314446,-1.661199 -0.315076,-3.156545 -6.02e-4,-1.428075 0.02798,-1.760044 0.244426,-2.839159 0.582682,-2.904982 2.150029,-5.6777082 4.306293,-7.6180806 2.077812,-1.8697747 4.4787102,-3.0146271 7.2184556,-3.442073 0.7927934,-0.123689 2.5577307,-0.1513354 3.4012382,-0.053278 4.17812765,0.4857059 7.8006994,2.7691866 10.0936268,6.3624972 0.3768572,0.5905832 1.0626262,1.9731474 1.3040886,2.6291434 0.5780691,1.570479 0.8644959,3.167697 0.8670863,4.835182 0.00194,1.250875 -0.1298363,2.143732 -0.4792741,3.247265 -0.9748581,3.078626 -3.0592421,5.229089 -5.7296517,5.91129 -2.61556101,0.668189 -5.5187954,-0.261862 -8.3651919,-2.679788 -1.4584984,-1.23895 -5.1931118,-5.256664 -5.9935578,-6.447898 -0.799974,-1.19053 -1.150473,-2.370572 -1.105611,-3.722318 0.0522,-1.572874 0.666001,-2.7685769 1.851749,-3.607264 0.41325,-0.2922946 0.723447,-0.3940503 1.7606186,-0.5775449 l 0.8439055,-0.1493021 0.1894167,0.12535 c 0.4042814,0.2675409 0.9376,1.185312 1.2730639,2.190775 0.1732561,0.519289 0.2025425,0.670217 0.2206444,1.13709 0.018525,0.4778 0.00973,0.555992 -0.078225,0.695461 -0.1092033,0.17316 -0.1545087,0.189515 -1.2284544,0.443458 -1.0902706,0.257804 -1.3254748,0.42911 -1.2458466,0.907387 0.080336,0.482533 0.3329156,0.783781 2.3469669,2.799201 0.780572,0.781103 1.9918043,2.007423 2.6916275,2.725156 0.9874602,1.012732 1.3295783,1.333123 1.527707,1.430685 0.2728483,0.134356 0.6291885,0.166522 0.8046234,0.07263 0.1562979,-0.08365 0.3095068,-0.496949 0.5070512,-1.367836 0.1005283,-0.443185 0.2119769,-0.863251 0.247663,-0.93348 0.33293178,-0.655187 2.8073057,0.02049 3.8744826,1.058001 0.3626523,0.352572 0.3572431,0.31316 0.1832118,1.334863 -0.1679263,0.985861 -0.2813441,1.336514 -0.5649829,1.746753 -0.2760597,0.399277 -0.7942234,0.932694 -1.0731939,1.104785 -0.10674557,0.06585 -0.19467517,0.13928 -0.19539897,0.163179 -0.001644,0.05428 0.64589657,-0.0018 1.07452267,-0.09303 C 3.6425444,23.306809 5.089504,22.0762 6.0347336,20.210154 6.9317429,18.439303 7.1832647,16.702164 6.8660452,14.468691 6.4871835,11.801207 5.2827022,9.386569 3.3722281,7.4645938 2.4143259,6.5009249 1.4402421,5.806517 0.14227523,5.1620153 -1.575124,4.3092454 -3.1435485,3.945288 -5.0941636,3.9468844 c -1.0362863,8.481e-4 -1.4539491,0.039739 -2.3490566,0.2187349 -3.5370448,0.7073064 -6.6848848,3.1061023 -8.3412918,6.3564407 -0.721031,1.414867 -1.090047,2.606124 -1.303735,4.208726 -0.108423,0.813141 -0.108569,2.268134 -3.08e-4,3.083137 0.672899,5.065739 4.235674,9.178057 9.0091319,10.398752 0.8950342,0.228883 1.451467,0.313891 2.3832585,0.364099 0.8797178,0.0474 1.0102935,0.0843 1.232389,0.348244 0.1586372,0.18853 0.1954557,0.328067 0.1663871,0.63059 -0.028562,0.297243 -0.187836,0.525658 -0.4493628,0.64443 -0.2194547,0.09966 -0.7052925,0.113009 -1.5106216,0.04149 z"
     style="opacity:0;fill:#3d6480;fill-opacity:1;stroke:none" /><text
     transform="scale(1.007243,0.99280908)"
     id="text4142"
     y="443.45764"
     x="-353.44058"
     style="font-style:normal;font-variant:normal;font-weight:bold;font-stretch:normal;font-size:94.00445557px;line-height:127.99999714%;font-family:sans-serif;-inkscape-font-specification:'sans-serif Bold';letter-spacing:0px;word-spacing:0px;fill:#ffffff;fill-opacity:1;stroke:none;stroke-width:1.17499995;stroke-linecap:butt;stroke-linejoin:miter;stroke-miterlimit:4;stroke-dasharray:none;stroke-opacity:1"
     xml:space="preserve"><tspan
       style="fill:#ffffff;fill-opacity:1;stroke:none;stroke-width:1.17499995;stroke-miterlimit:4;stroke-dasharray:none;stroke-opacity:1"
       y="443.45764"
       x="-353.44058"
       id="tspan4144">URL</tspan></text>
<text
     transform="scale(1.0453657,0.95660303)"
     id="text4169"
     y="27.364719"
     x="2.4858203"
     style="font-style:normal;font-weight:normal;font-size:33.93386459px;line-height:125%;font-family:sans-serif;letter-spacing:0px;word-spacing:0px;fill:#3d6480;fill-opacity:1;stroke:none;stroke-width:12.26218224;stroke-linecap:butt;stroke-linejoin:miter;stroke-miterlimit:4;stroke-dasharray:none;stroke-opacity:1"
     xml:space="preserve"
     sodipodi:linespacing="125%"
     inkscape:export-xdpi="95.617126"
     inkscape:export-ydpi="95.617126"><tspan
       transform="matrix(0.76601202,0,0,0.89791264,-5.9646353,2.9852619)"
       style="font-style:italic;font-variant:normal;font-weight:normal;font-stretch:normal;font-family:'Trebuchet MS';-inkscape-font-specification:'Trebuchet MS Italic';fill:#3d6480;fill-opacity:1;stroke-width:14.78539467;stroke-miterlimit:4;stroke-dasharray:none"
       y="27.364719"
       x="2.4858203"
       id="tspan4171">@</tspan></text>
</svg>