<?xml version="1.0" encoding="UTF-8" standalone="no"?>
<svg
   xmlns:dc="http://purl.org/dc/elements/1.1/"
   xmlns:cc="http://creativecommons.org/ns#"
   xmlns:rdf="http://www.w3.org/1999/02/22-rdf-syntax-ns#"
   xmlns:svg="http://www.w3.org/2000/svg"
   xmlns="http://www.w3.org/2000/svg"
   xmlns:sodipodi="http://sodipodi.sourceforge.net/DTD/sodipodi-0.dtd"
   xmlns:inkscape="http://www.inkscape.org/namespaces/inkscape"
   inkscape:export-ydpi="45"
   inkscape:export-xdpi="45"
   inkscape:export-filename="C:\eclipse\workspace\pdi-expression-plugin\src\main\resources\inet.png"
   sodipodi:docname="inet.svg"
   inkscape:version="1.0 (4035a4fb49, 2020-05-01)"
   version="1.1"
   id="Capa_1"
   x="0px"
   y="0px"
   width="32px"
   height="32px"
   viewBox="0 0 32.667 32.667"
   style="enable-background:new 0 0 32.667 32.667;"
   xml:space="preserve"><sodipodi:namedview
   inkscape:document-rotation="0"
   inkscape:current-layer="Capa_1"
   inkscape:window-maximized="1"
   inkscape:window-y="-8"
   inkscape:window-x="-8"
   inkscape:cy="16"
   inkscape:cx="16.5094"
   inkscape:zoom="7.375"
   showgrid="false"
   id="namedview34"
   inkscape:window-height="1387"
   inkscape:window-width="3440"
   inkscape:pageshadow="2"
   inkscape:pageopacity="0"
   guidetolerance="10"
   gridtolerance="10"
   objecttolerance="10"
   borderopacity="1"
   bordercolor="#666666"
   pagecolor="#ffffff" /><metadata
   id="metadata41"><rdf:RDF><cc:Work
       rdf:about=""><dc:format>image/svg+xml</dc:format><dc:type
         rdf:resource="http://purl.org/dc/dcmitype/StillImage" /><dc:title /></cc:Work></rdf:RDF></metadata><defs
   id="defs39" /><g
   id="g7" /><g
   id="g9" /><g
   id="g11" /><g
   id="g13" /><g
   id="g15" /><g
   id="g17" /><g
   id="g19" /><g
   id="g21" /><g
   id="g23" /><g
   id="g25" /><g
   id="g27" /><g
   id="g29" /><g
   id="g31" /><g
   id="g33" /><g
   id="g35" /><path
   style="opacity:0;fill:#3d6480;fill-opacity:1;stroke:none"
   d="M -6.2573729,30.241532 C -12.17188,29.71631 -17.135997,25.325331 -18.48134,19.4289 c -0.264223,-1.158049 -0.314446,-1.661199 -0.315076,-3.156545 -6.02e-4,-1.428075 0.02798,-1.760044 0.244426,-2.839159 0.582682,-2.904982 2.150029,-5.6777082 4.306293,-7.6180806 2.077812,-1.8697747 4.4787102,-3.0146271 7.2184556,-3.442073 0.7927934,-0.123689 2.5577307,-0.1513354 3.4012382,-0.053278 4.17812765,0.4857059 7.8006994,2.7691866 10.0936268,6.3624972 0.3768572,0.5905832 1.0626262,1.9731474 1.3040886,2.6291434 0.5780691,1.570479 0.8644959,3.167697 0.8670863,4.835182 0.00194,1.250875 -0.1298363,2.143732 -0.4792741,3.247265 -0.9748581,3.078626 -3.0592421,5.229089 -5.7296517,5.91129 -2.61556101,0.668189 -5.5187954,-0.261862 -8.3651919,-2.679788 -1.4584984,-1.23895 -5.1931118,-5.256664 -5.9935578,-6.447898 -0.799974,-1.19053 -1.150473,-2.370572 -1.105611,-3.722318 0.0522,-1.572874 0.666001,-2.7685769 1.851749,-3.607264 0.41325,-0.2922946 0.723447,-0.3940503 1.7606186,-0.5775449 l 0.8439055,-0.1493021 0.1894167,0.12535 c 0.4042814,0.2675409 0.9376,1.185312 1.2730639,2.190775 0.1732561,0.519289 0.2025425,0.670217 0.2206444,1.13709 0.018525,0.4778 0.00973,0.555992 -0.078225,0.695461 -0.1092033,0.17316 -0.1545087,0.189515 -1.2284544,0.443458 -1.0902706,0.257804 -1.3254748,0.42911 -1.2458466,0.907387 0.080336,0.482533 0.3329156,0.783781 2.3469669,2.799201 0.780572,0.781103 1.9918043,2.007423 2.6916275,2.725156 0.9874602,1.012732 1.3295783,1.333123 1.527707,1.430685 0.2728483,0.134356 0.6291885,0.166522 0.8046234,0.07263 0.1562979,-0.08365 0.3095068,-0.496949 0.5070512,-1.367836 0.1005283,-0.443185 0.2119769,-0.863251 0.247663,-0.93348 0.33293178,-0.655187 2.8073057,0.02049 3.8744826,1.058001 0.3626523,0.352572 0.3572431,0.31316 0.1832118,1.334863 -0.1679263,0.985861 -0.2813441,1.336514 -0.5649829,1.746753 -0.2760597,0.399277 -0.7942234,0.932694 -1.0731939,1.104785 -0.10674557,0.06585 -0.19467517,0.13928 -0.19539897,0.163179 -0.001644,0.05428 0.64589657,-0.0018 1.07452267,-0.09303 C 3.6425444,23.306809 5.089504,22.0762 6.0347336,20.210154 6.9317429,18.439303 7.1832647,16.702164 6.8660452,14.468691 6.4871835,11.801207 5.2827022,9.386569 3.3722281,7.4645938 2.4143259,6.5009249 1.4402421,5.806517 0.14227523,5.1620153 -1.575124,4.3092454 -3.1435485,3.945288 -5.0941636,3.9468844 c -1.0362863,8.481e-4 -1.4539491,0.039739 -2.3490566,0.2187349 -3.5370448,0.7073064 -6.6848848,3.1061023 -8.3412918,6.3564407 -0.721031,1.414867 -1.090047,2.606124 -1.303735,4.208726 -0.108423,0.813141 -0.108569,2.268134 -3.08e-4,3.083137 0.672899,5.065739 4.235674,9.178057 9.0091319,10.398752 0.8950342,0.228883 1.451467,0.313891 2.3832585,0.364099 0.8797178,0.0474 1.0102935,0.0843 1.232389,0.348244 0.1586372,0.18853 0.1954557,0.328067 0.1663871,0.63059 -0.028562,0.297243 -0.187836,0.525658 -0.4493628,0.64443 -0.2194547,0.09966 -0.7052925,0.113009 -1.5106216,0.04149 z"
   id="path6165" /><path
   style="opacity:0;fill:#3d6480;fill-opacity:1;stroke:none"
   d="M -6.2573729,30.241532 C -12.17188,29.71631 -17.135997,25.325331 -18.48134,19.4289 c -0.264223,-1.158049 -0.314446,-1.661199 -0.315076,-3.156545 -6.02e-4,-1.428075 0.02798,-1.760044 0.244426,-2.839159 0.582682,-2.904982 2.150029,-5.6777082 4.306293,-7.6180806 2.077812,-1.8697747 4.4787102,-3.0146271 7.2184556,-3.442073 0.7927934,-0.123689 2.5577307,-0.1513354 3.4012382,-0.053278 4.17812765,0.4857059 7.8006994,2.7691866 10.0936268,6.3624972 0.3768572,0.5905832 1.0626262,1.9731474 1.3040886,2.6291434 0.5780691,1.570479 0.8644959,3.167697 0.8670863,4.835182 0.00194,1.250875 -0.1298363,2.143732 -0.4792741,3.247265 -0.9748581,3.078626 -3.0592421,5.229089 -5.7296517,5.91129 -2.61556101,0.668189 -5.5187954,-0.261862 -8.3651919,-2.679788 -1.4584984,-1.23895 -5.1931118,-5.256664 -5.9935578,-6.447898 -0.799974,-1.19053 -1.150473,-2.370572 -1.105611,-3.722318 0.0522,-1.572874 0.666001,-2.7685769 1.851749,-3.607264 0.41325,-0.2922946 0.723447,-0.3940503 1.7606186,-0.5775449 l 0.8439055,-0.1493021 0.1894167,0.12535 c 0.4042814,0.2675409 0.9376,1.185312 1.2730639,2.190775 0.1732561,0.519289 0.2025425,0.670217 0.2206444,1.13709 0.018525,0.4778 0.00973,0.555992 -0.078225,0.695461 -0.1092033,0.17316 -0.1545087,0.189515 -1.2284544,0.443458 -1.0902706,0.257804 -1.3254748,0.42911 -1.2458466,0.907387 0.080336,0.482533 0.3329156,0.783781 2.3469669,2.799201 0.780572,0.781103 1.9918043,2.007423 2.6916275,2.725156 0.9874602,1.012732 1.3295783,1.333123 1.527707,1.430685 0.2728483,0.134356 0.6291885,0.166522 0.8046234,0.07263 0.1562979,-0.08365 0.3095068,-0.496949 0.5070512,-1.367836 0.1005283,-0.443185 0.2119769,-0.863251 0.247663,-0.93348 0.33293178,-0.655187 2.8073057,0.02049 3.8744826,1.058001 0.3626523,0.352572 0.3572431,0.31316 0.1832118,1.334863 -0.1679263,0.985861 -0.2813441,1.336514 -0.5649829,1.746753 -0.2760597,0.399277 -0.7942234,0.932694 -1.0731939,1.104785 -0.10674557,0.06585 -0.19467517,0.13928 -0.19539897,0.163179 -0.001644,0.05428 0.64589657,-0.0018 1.07452267,-0.09303 C 3.6425444,23.306809 5.089504,22.0762 6.0347336,20.210154 6.9317429,18.439303 7.1832647,16.702164 6.8660452,14.468691 6.4871835,11.801207 5.2827022,9.386569 3.3722281,7.4645938 2.4143259,6.5009249 1.4402421,5.806517 0.14227523,5.1620153 -1.575124,4.3092454 -3.1435485,3.945288 -5.0941636,3.9468844 c -1.0362863,8.481e-4 -1.4539491,0.039739 -2.3490566,0.2187349 -3.5370448,0.7073064 -6.6848848,3.1061023 -8.3412918,6.3564407 -0.721031,1.414867 -1.090047,2.606124 -1.303735,4.208726 -0.108423,0.813141 -0.108569,2.268134 -3.08e-4,3.083137 0.672899,5.065739 4.235674,9.178057 9.0091319,10.398752 0.8950342,0.228883 1.451467,0.313891 2.3832585,0.364099 0.8797178,0.0474 1.0102935,0.0843 1.232389,0.348244 0.1586372,0.18853 0.1954557,0.328067 0.1663871,0.63059 -0.028562,0.297243 -0.187836,0.525658 -0.4493628,0.64443 -0.2194547,0.09966 -0.7052925,0.113009 -1.5106216,0.04149 z"
   id="path6167" /><text
   xml:space="preserve"
   style="font-style:normal;font-variant:normal;font-weight:bold;font-stretch:normal;font-size:94.0045px;line-height:0%;font-family:sans-serif;-inkscape-font-specification:'sans-serif Bold';letter-spacing:0px;word-spacing:0px;fill:#ffffff;fill-opacity:1;stroke:none;stroke-width:1.175;stroke-linecap:butt;stroke-linejoin:miter;stroke-miterlimit:4;stroke-dasharray:none;stroke-opacity:1"
   x="-353.44058"
   y="443.45764"
   id="text4142"
   transform="scale(1.007243,0.99280908)"><tspan
     id="tspan4144"
     x="-353.44058"
     y="443.45764"
     style="fill:#ffffff;fill-opacity:1;stroke:none;stroke-width:1.175;stroke-miterlimit:4;stroke-dasharray:none;stroke-opacity:1">URL</tspan></text>
<text
   inkscape:export-ydpi="95.617126"
   inkscape:export-xdpi="95.617126"
   xml:space="preserve"
   style="font-style:normal;font-weight:normal;font-size:33.9339px;line-height:0%;font-family:sans-serif;letter-spacing:0px;word-spacing:0px;fill:#0e3a5a;fill-opacity:1;stroke:none;stroke-width:12.2622;stroke-linecap:butt;stroke-linejoin:miter;stroke-miterlimit:4;stroke-dasharray:none;stroke-opacity:1"
   x="2.3534081"
   y="27.22002"
   id="text4169"
   transform="scale(1.0453657,0.95660303)"><tspan
     id="tspan4171"
     x="2.3534081"
     y="27.22002"
     style="font-style:italic;font-variant:normal;font-weight:normal;font-stretch:normal;font-family:'Trebuchet MS';-inkscape-font-specification:'Trebuchet MS Italic';fill:#0e3a5a;fill-opacity:1;stroke-width:14.7854;stroke-miterlimit:4;stroke-dasharray:none"
     transform="matrix(0.76601202,0,0,0.89791264,-5.9646353,2.9852619)">@</tspan></text>
</svg>
