<?xml version="1.0" encoding="UTF-8"?>
<svg xmlns="http://www.w3.org/2000/svg" height="42" width="42">
    <path fill="#0e3a5a" d="M10.55 32.377c.025-.981.122-2.304.22-3.722h-.074C9.53 31.7 7.976 32.75 6.469 32.75c-2.113 0-3.498-2.304-3.498-5.616 0-5.616 2.818-11.603 8.332-11.603a9.357 9.357 0 0 1 3.571.744l-1.212 8.59a53.128 53.128 0 0 0-.486 7.509l-2.625.004zm1.166-13.63a3.49 3.49 0 0 0-1.165-.169c-2.624 0-4.64 4.093-4.64 7.85 0 1.725.461 3.145 1.7 3.145 1.312 0 2.915-2.304 3.474-6.496l.631-4.33zM21.943 8.358l-1.483 9.98h.048c.895-1.754 2.342-2.8 3.887-2.808 2.526 0 3.57 2.875 3.57 5.818 0 5.21-2.575 11.401-7.627 11.401-2.477 0-3.96-1.454-3.935-4.431.011-.954.084-1.906.218-2.842L19.1 8.358h2.843zm-2.502 17.316a11.73 11.73 0 0 0-.122 1.963c-.07 1.065.492 2.009 1.257 2.107.108.014.216.01.323-.01 2.477 0 4.106-4.43 4.106-7.645 0-1.827-.558-3.35-1.87-3.35-1.458 0-2.966 2.098-3.45 5.413l-.244 1.522zM37.684 31.802c-1.072.644-2.233.956-3.4.912-2.967 0-4.786-2.638-4.786-6.562-.082-5.752 3.2-10.507 7.331-10.621.066-.002.132-.002.198-.002a4.869 4.869 0 0 1 2.405.643l-.73 3.079a3.227 3.227 0 0 0-1.773-.508c-2.745 0-4.47 3.519-4.47 6.934 0 2.47 1.02 3.857 2.6 3.857.872-.004 1.734-.27 2.526-.778l.099 3.046z"/>
</svg>
