<?xml version="1.0" encoding="UTF-8" standalone="no"?>
<svg
   xmlns:dc="http://purl.org/dc/elements/1.1/"
   xmlns:cc="http://creativecommons.org/ns#"
   xmlns:rdf="http://www.w3.org/1999/02/22-rdf-syntax-ns#"
   xmlns:svg="http://www.w3.org/2000/svg"
   xmlns="http://www.w3.org/2000/svg"
   xmlns:sodipodi="http://sodipodi.sourceforge.net/DTD/sodipodi-0.dtd"
   xmlns:inkscape="http://www.inkscape.org/namespaces/inkscape"
   inkscape:export-ydpi="34.285713"
   inkscape:export-xdpi="34.285713"
   inkscape:export-filename="C:\eclipse\workspace\pdi-expression-plugin\src\main\resources\String.png"
   sodipodi:docname="string.svg"
   inkscape:version="1.0 (4035a4fb49, 2020-05-01)"
   xml:space="preserve"
   enable-background="new 0 0 42 42"
   viewBox="0 0 42 42"
   height="42px"
   width="42px"
   y="0px"
   x="0px"
   id="Layer_1"
   version="1.1"><metadata
     id="metadata13"><rdf:RDF><cc:Work
         rdf:about=""><dc:format>image/svg+xml</dc:format><dc:type
           rdf:resource="http://purl.org/dc/dcmitype/StillImage" /><dc:title /></cc:Work></rdf:RDF></metadata><defs
     id="defs11" /><sodipodi:namedview
     inkscape:document-rotation="0"
     inkscape:current-layer="Layer_1"
     inkscape:window-maximized="1"
     inkscape:window-y="-8"
     inkscape:window-x="-8"
     inkscape:cy="24.053477"
     inkscape:cx="-8.1173682"
     inkscape:zoom="16"
     showgrid="false"
     id="namedview9"
     inkscape:window-height="1387"
     inkscape:window-width="3440"
     inkscape:pageshadow="2"
     inkscape:pageopacity="0"
     guidetolerance="10"
     gridtolerance="10"
     objecttolerance="10"
     borderopacity="1"
     bordercolor="#666666"
     pagecolor="#ffffff" /><g
     inkscape:export-ydpi="41.939152"
     inkscape:export-xdpi="41.939152"
     style="fill:#0e3a5a;fill-opacity:1"
     transform="matrix(0.07129873,0,0,0.09929455,2.9318982,0.25153639)"
     id="g4279"><path
       id="path4281"
       d="m 106.856,323.536 c 0.344,-9.88 1.704,-23.2 3.072,-37.48 l -1.032,0 c -16.352,30.664 -38.16,41.224 -59.28,41.224 -29.64,0 -49.064,-23.2 -49.064,-56.552 0,-56.56 39.52,-116.856 116.856,-116.856 16.968,0.08 33.84,2.6 50.088,7.496 l -17,86.496 c -4.744,24.928 -7.032,50.256 -6.816,75.632 l -36.824,0.04 z m 16.352,-137.264 c -5.36,-1.24 -10.848,-1.808 -16.352,-1.704 -36.8,0 -65.072,41.224 -65.072,79.048 0,17.376 6.472,31.68 23.84,31.68 18.4,0 40.888,-23.2 48.728,-65.416 l 8.856,-43.608 z"
       style="fill:#0e3a5a;fill-opacity:1"
       inkscape:connector-curvature="0" /><path
       id="path4283"
       d="m 266.64,81.64 -20.8,100.504 0.68,0 c 12.552,-17.656 32.84,-28.184 54.504,-28.272 35.44,0 50.088,28.952 50.088,58.592 0,52.472 -36.12,114.824 -106.976,114.824 -34.752,0 -55.536,-14.648 -55.2,-44.632 0.16,-9.608 1.184,-19.192 3.064,-28.616 l 34.76,-172.4 39.88,0 z m -35.096,174.392 c -1.336,6.504 -1.904,13.136 -1.704,19.768 -0.992,10.728 6.896,20.232 17.632,21.224 1.504,0.136 3.024,0.104 4.52,-0.104 34.752,0 57.6,-44.624 57.6,-76.992 0,-18.4 -7.832,-33.736 -26.232,-33.736 -20.448,0 -41.6,21.128 -48.384,54.512 l -3.432,15.328 z"
       style="fill:#0e3a5a;fill-opacity:1"
       inkscape:connector-curvature="0" /><path
       id="path4285"
       d="m 487.416,317.744 c -15.04,6.488 -31.32,9.632 -47.696,9.192 -41.6,0 -67.12,-26.568 -67.12,-66.096 -1.144,-57.928 44.896,-105.816 102.824,-106.96 0.928,-0.016 1.848,-0.024 2.776,-0.016 11.552,-0.032 23.008,2.168 33.728,6.472 l -10.232,31.008 c -7.824,-3.488 -16.312,-5.24 -24.872,-5.12 -38.496,0 -62.688,35.44 -62.688,69.84 0,24.872 14.312,38.84 36.456,38.84 12.24,-0.04 24.328,-2.712 35.44,-7.832 l 1.384,30.672 z"
       style="fill:#0e3a5a;fill-opacity:1"
       inkscape:connector-curvature="0" /></g><g
     transform="matrix(0.38266263,0,0,0.36430952,-237.61523,-110.48342)"
     id="g4291" /><g
     transform="matrix(0.38266263,0,0,0.36430952,-237.61523,-110.48342)"
     id="g4293" /><g
     transform="matrix(0.38266263,0,0,0.36430952,-237.61523,-110.48342)"
     id="g4295" /><g
     transform="matrix(0.38266263,0,0,0.36430952,-237.61523,-110.48342)"
     id="g4297" /><g
     transform="matrix(0.38266263,0,0,0.36430952,-237.61523,-110.48342)"
     id="g4299" /><g
     transform="matrix(0.38266263,0,0,0.36430952,-237.61523,-110.48342)"
     id="g4301" /><g
     transform="matrix(0.38266263,0,0,0.36430952,-237.61523,-110.48342)"
     id="g4303" /><g
     transform="matrix(0.38266263,0,0,0.36430952,-237.61523,-110.48342)"
     id="g4305" /><g
     transform="matrix(0.38266263,0,0,0.36430952,-237.61523,-110.48342)"
     id="g4307" /><g
     transform="matrix(0.38266263,0,0,0.36430952,-237.61523,-110.48342)"
     id="g4309" /><g
     transform="matrix(0.38266263,0,0,0.36430952,-237.61523,-110.48342)"
     id="g4311" /><g
     transform="matrix(0.38266263,0,0,0.36430952,-237.61523,-110.48342)"
     id="g4313" /><g
     transform="matrix(0.38266263,0,0,0.36430952,-237.61523,-110.48342)"
     id="g4315" /><g
     transform="matrix(0.38266263,0,0,0.36430952,-237.61523,-110.48342)"
     id="g4317" /><g
     transform="matrix(0.38266263,0,0,0.36430952,-237.61523,-110.48342)"
     id="g4319" /></svg>
