<?xml version="1.0" encoding="UTF-8" standalone="no"?>
<svg
   xmlns:svg="http://www.w3.org/2000/svg"
   xmlns="http://www.w3.org/2000/svg"






   enable-background="new 0 0 42 42"
   viewBox="0 0 42 42"
   height="42px"
   width="42px"
   y="0px"
   x="0px"
   version="1.1">
<g style="fill:#0e3a5a;fill-opacity:1"
     transform="matrix(0.07129873,0,0,0.09929455,2.9318982,0.25153639)"
     ><path

       d="m 106.856,323.536 c 0.344,-9.88 1.704,-23.2 3.072,-37.48 l -1.032,0 c -16.352,30.664 -38.16,41.224 -59.28,41.224 -29.64,0 -49.064,-23.2 -49.064,-56.552 0,-56.56 39.52,-116.856 116.856,-116.856 16.968,0.08 33.84,2.6 50.088,7.496 l -17,86.496 c -4.744,24.928 -7.032,50.256 -6.816,75.632 l -36.824,0.04 z m 16.352,-137.264 c -5.36,-1.24 -10.848,-1.808 -16.352,-1.704 -36.8,0 -65.072,41.224 -65.072,79.048 0,17.376 6.472,31.68 23.84,31.68 18.4,0 40.888,-23.2 48.728,-65.416 l 8.856,-43.608 z"
       style="fill:#0e3a5a;fill-opacity:1"
        /><path

       d="m 266.64,81.64 -20.8,100.504 0.68,0 c 12.552,-17.656 32.84,-28.184 54.504,-28.272 35.44,0 50.088,28.952 50.088,58.592 0,52.472 -36.12,114.824 -106.976,114.824 -34.752,0 -55.536,-14.648 -55.2,-44.632 0.16,-9.608 1.184,-19.192 3.064,-28.616 l 34.76,-172.4 39.88,0 z m -35.096,174.392 c -1.336,6.504 -1.904,13.136 -1.704,19.768 -0.992,10.728 6.896,20.232 17.632,21.224 1.504,0.136 3.024,0.104 4.52,-0.104 34.752,0 57.6,-44.624 57.6,-76.992 0,-18.4 -7.832,-33.736 -26.232,-33.736 -20.448,0 -41.6,21.128 -48.384,54.512 l -3.432,15.328 z"
       style="fill:#0e3a5a;fill-opacity:1"
        /><path

       d="m 487.416,317.744 c -15.04,6.488 -31.32,9.632 -47.696,9.192 -41.6,0 -67.12,-26.568 -67.12,-66.096 -1.144,-57.928 44.896,-105.816 102.824,-106.96 0.928,-0.016 1.848,-0.024 2.776,-0.016 11.552,-0.032 23.008,2.168 33.728,6.472 l -10.232,31.008 c -7.824,-3.488 -16.312,-5.24 -24.872,-5.12 -38.496,0 -62.688,35.44 -62.688,69.84 0,24.872 14.312,38.84 36.456,38.84 12.24,-0.04 24.328,-2.712 35.44,-7.832 l 1.384,30.672 z"
       style="fill:#0e3a5a;fill-opacity:1"
        /></g><g
     transform="matrix(0.38266263,0,0,0.36430952,-237.61523,-110.48342)"
      /><g
     transform="matrix(0.38266263,0,0,0.36430952,-237.61523,-110.48342)"
      /><g
     transform="matrix(0.38266263,0,0,0.36430952,-237.61523,-110.48342)"
      /><g
     transform="matrix(0.38266263,0,0,0.36430952,-237.61523,-110.48342)"
      /><g
     transform="matrix(0.38266263,0,0,0.36430952,-237.61523,-110.48342)"
      /><g
     transform="matrix(0.38266263,0,0,0.36430952,-237.61523,-110.48342)"
      /><g
     transform="matrix(0.38266263,0,0,0.36430952,-237.61523,-110.48342)"
      /><g
     transform="matrix(0.38266263,0,0,0.36430952,-237.61523,-110.48342)"
      /><g
     transform="matrix(0.38266263,0,0,0.36430952,-237.61523,-110.48342)"
      /><g
     transform="matrix(0.38266263,0,0,0.36430952,-237.61523,-110.48342)"
      /><g
     transform="matrix(0.38266263,0,0,0.36430952,-237.61523,-110.48342)"
      /><g
     transform="matrix(0.38266263,0,0,0.36430952,-237.61523,-110.48342)"
      /><g
     transform="matrix(0.38266263,0,0,0.36430952,-237.61523,-110.48342)"
      /><g
     transform="matrix(0.38266263,0,0,0.36430952,-237.61523,-110.48342)"
      /><g
     transform="matrix(0.38266263,0,0,0.36430952,-237.61523,-110.48342)"
      /></svg>
