<?xml version="1.0" encoding="UTF-8" standalone="no"?>
<svg
   xmlns:dc="http://purl.org/dc/elements/1.1/"
   xmlns:cc="http://creativecommons.org/ns#"
   xmlns:rdf="http://www.w3.org/1999/02/22-rdf-syntax-ns#"
   xmlns:svg="http://www.w3.org/2000/svg"
   xmlns="http://www.w3.org/2000/svg"
   xmlns:sodipodi="http://sodipodi.sourceforge.net/DTD/sodipodi-0.dtd"
   xmlns:inkscape="http://www.inkscape.org/namespaces/inkscape"
   inkscape:version="1.0 (4035a4fb49, 2020-05-01)"
   sodipodi:docname="timestamp.svg"
   version="1.1"
   x="0px"
   y="0px"
   viewBox="0 0 1000 1000"
   enable-background="new 0 0 1000 1000"
   xml:space="preserve"
   id="svg2"><sodipodi:namedview
     inkscape:current-layer="svg2"
     inkscape:window-maximized="0"
     inkscape:window-y="0"
     inkscape:window-x="0"
     inkscape:cy="323.14486"
     inkscape:cx="54.399152"
     inkscape:zoom="0.504"
     showgrid="false"
     id="namedview7"
     inkscape:window-height="1048"
     inkscape:window-width="2273"
     inkscape:pageshadow="2"
     inkscape:pageopacity="0"
     guidetolerance="10"
     gridtolerance="10"
     objecttolerance="10"
     borderopacity="1"
     bordercolor="#666666"
     pagecolor="#ffffff" /><defs
     id="defs12" /><metadata
     id="metadata4"> Svg Vector Icons : http://www.onlinewebfonts.com/icon <rdf:RDF><cc:Work
     rdf:about=""><dc:format>image/svg+xml</dc:format><dc:type
       rdf:resource="http://purl.org/dc/dcmitype/StillImage" /><dc:title /></cc:Work></rdf:RDF></metadata><path
     style="opacity:1;fill:#0e3a5a;fill-opacity:1;fill-rule:nonzero;stroke:none;stroke-width:12.01181126;stroke-linecap:round;stroke-linejoin:round;stroke-miterlimit:4;stroke-dasharray:none;stroke-opacity:1"
     d="M 473.51112,880.0201 C 377.96166,870.69728 298.64206,831.96127 230.72825,761.45635 198.57756,728.07899 180.55375,702.00792 160.53872,659.92853 56.185517,440.53724 174.46264,183.96263 410.23191,118.27757 c 60.8846,-16.96239 133.64421,-16.49944 199.62604,1.27017 130.16911,35.05594 235.58455,142.48139 271.8546,277.03815 8.29015,30.75526 8.98008,38.2997 8.90691,97.39631 -0.0723,58.51968 -0.84575,66.92647 -8.94303,97.2249 -15.47401,57.90084 -49.59785,120.34287 -91.06708,166.64062 -51.65026,57.6642 -142.00186,106.68728 -217.88731,118.22162 -35.00527,5.32068 -70.63092,6.73934 -99.21092,3.95076 z m 94.18545,-44.22485 c 11.97737,-1.86536 35.3458,-7.93633 51.92984,-13.49106 110.55352,-37.02931 195.627,-131.25731 224.89161,-249.09154 9.38721,-37.79768 8.63345,-129.65713 -1.36284,-166.08916 C 793.26353,225.29082 617.58772,115.62302 436.91926,153.5257 c -54.8763,11.51258 -113.88997,41.27671 -157.88369,79.6302 -47.53104,41.43736 -88.54684,108.75628 -105.50656,173.16707 -7.71658,29.30665 -8.90164,40.54816 -9.06286,85.97347 -0.1511,42.55495 1.13984,57.57964 6.95224,80.91621 15.49625,62.21712 47.6932,120.31515 91.1582,164.49102 80.04686,81.35626 188.5662,116.24358 305.11998,98.09158 z"
     id="path4150" /><path
     style="opacity:1;fill:#0e3a5a;fill-opacity:1;fill-rule:nonzero;stroke:none;stroke-width:12.01181126;stroke-linecap:round;stroke-linejoin:round;stroke-miterlimit:4;stroke-dasharray:none;stroke-opacity:1"
     d="m 479.36511,529.13833 -8.8276,-6.98772 0,-135.92789 c 0,-127.07581 0.40237,-136.42793 6.17854,-143.60633 7.49305,-9.31206 25.00466,-10.3323 33.34717,-1.94283 5.09186,5.12053 5.88315,18.64894 7.37866,126.15062 l 1.67516,120.415 119.56361,0.88523 119.56362,0.88524 6.91068,8.84109 c 9.0861,11.62419 8.72397,19.89951 -1.31281,29.9998 l -8.22349,8.27551 -133.71298,0 c -130.20077,0 -133.94483,-0.18354 -142.54056,-6.98772 z"
     id="path4152" /></svg>
