<?xml version="1.0" encoding="UTF-8" standalone="no"?>
<!--
  - Licensed to the Apache Software Foundation (ASF) under one or more
  - contributor license agreements.  See the NOTICE file distributed with
  - this work for additional information regarding copyright ownership.
  - The ASF licenses this file to You under the Apache License, Version 2.0
  - (the "License"); you may not use this file except in compliance with
  - the License.  You may obtain a copy of the License at
  -
  -      http://www.apache.org/licenses/LICENSE-2.0
  -
  - Unless required by applicable law or agreed to in writing, software
  - distributed under the License is distributed on an "AS IS" BASIS,
  - WITHOUT WARRANTIES OR CONDITIONS OF ANY KIND, either express or implied.
  - See the License for the specific language governing permissions and
  - limitations under the License.
  -
  -->

<svg xmlns="http://www.w3.org/2000/svg"
     width="24"
     height="24"
     version="1.1">
    <polygon
            points="747,171 927,351 747,531 747,459 855,351 747,243 "
            style="fill:#000000;stroke:#000000;stroke-width:1.07;stroke-linecap:round;stroke-linejoin:round;stroke-miterlimit:10"
            transform="matrix(0.03721743,0,0,0.03721743,-21.2472,3.7552708)"/>
    <polygon
            points="873,171 1053,351 873,531 873,459 981,351 873,243 "
            style="fill:#000000;stroke:#000000;stroke-width:1.07;stroke-linecap:round;stroke-linejoin:round;stroke-miterlimit:10"
            transform="matrix(0.03721743,0,0,0.03721743,-21.2472,3.7552708)"/>
    <polygon
            points="999,171 1179,351 999,531 999,459 1107,351 999,243 "
            style="fill:#000000;stroke:#000000;stroke-width:1.07;stroke-linecap:round;stroke-linejoin:round;stroke-miterlimit:10"
            transform="matrix(0.03721743,0,0,0.03721743,-21.2472,3.7552708)"/>
    <polygon
            fill="#0e3a5a"
            points="9.685,5.257 9.685,8.34 4.461,3.116 3.118,4.46 8.343,9.686 5.197,9.686 5.198,11.587 11.586,11.584 11.586,5.257 "
            transform="translate(-2.0638639,-2.2667546)"/>
</svg>
