<?xml version="1.0" encoding="UTF-8" standalone="no"?>
<svg
   xmlns="http://www.w3.org/2000/svg"
   version="1.1"
   x="0px"
   y="0px"
   viewBox="0 0 432.04999 488.39999"
   enable-background="new 0 0 1500 600"
   xml:space="preserve"
   width="432.04999"
   height="488.39999"
   >
<path
   d="m 100.67085,157.60514 c 0,8.72178 -6.855019,15.81422 -15.284834,15.81422 -8.429816,0 -15.284831,-7.09244 -15.284831,-15.81422 0,-8.72179 6.855015,-15.81423 15.284831,-15.81423 8.522451,0 15.284834,7.09244 15.284834,15.81423"
   id="path4"
   style="fill:#80ddff;stroke-width:0.94225907;fill-opacity:1" /><path
   d="m 103.26464,201.02237 c 0,8.72179 -6.855019,15.81423 -15.284835,15.81423 -8.429815,0 -15.28483,-7.09244 -15.28483,-15.81423 0,-8.72178 6.855015,-15.81422 15.28483,-15.81422 8.429816,0 15.284835,6.99659 15.284835,15.81422"
   style="fill:#80ddff;stroke-width:0.94225907;fill-opacity:1" /><path
   d="m 112.6208,247.02739 c 0,8.72179 -6.85501,15.81423 -15.284826,15.81423 -8.429815,0 -15.28483,-7.09244 -15.28483,-15.81423 0,-8.72178 6.855015,-15.81422 15.28483,-15.81422 8.429816,-0.0958 15.284826,6.99659 15.284826,15.81422"
   style="fill:#80ddff;stroke-width:0.94225907;fill-opacity:1" /><path
   d="m 133.55639,288.24022 c 0,8.72178 -6.85501,15.81422 -15.28483,15.81422 -8.42982,0 -15.28483,-7.09244 -15.28483,-15.81422 0,-8.72179 6.85501,-15.81423 15.28483,-15.81423 8.42982,-0.0958 15.28483,6.9966 15.28483,15.81423"
   style="fill:#80ddff;stroke-width:0.94225907;fill-opacity:1" /><path
   d="m 297.24303,345.84234 c 0,8.72178 -6.85501,15.81422 -15.28483,15.81422 -8.42981,0 -15.28483,-7.09244 -15.28483,-15.81422 0,-8.72179 6.85502,-15.81423 15.28483,-15.81423 8.42982,0 15.28483,7.09244 15.28483,15.81423"
   style="fill:#80ddff;stroke-width:0.94225907;fill-opacity:1" /><path
   d="m 325.03363,311.81779 c 0,8.72179 -6.85501,15.81423 -15.28483,15.81423 -8.42981,0 -15.28483,-7.09244 -15.28483,-15.81423 0,-8.72178 6.85502,-15.81422 15.28483,-15.81422 8.42982,0 15.28483,7.09244 15.28483,15.81422"
   style="fill:#80ddff;stroke-width:0.94225907;fill-opacity:1" /><path
   d="m 244.44089,71.249885 c 0,8.721785 -6.85502,15.814225 -15.28483,15.814225 -8.42982,0 -15.28483,-7.09244 -15.28483,-15.814225 0,-8.721784 6.85501,-15.814225 15.28483,-15.814225 8.42981,0 15.28483,7.092441 15.28483,15.814225"
   style="fill:#80ddff;stroke-width:0.94225907;fill-opacity:1" /><path
   d="m 204.23715,56.68163 c 0,8.721784 -6.85501,15.814225 -15.28483,15.814225 -8.42981,0 -15.28483,-7.092441 -15.28483,-15.814225 0,-8.721785 6.85502,-15.814225 15.28483,-15.814225 8.42982,0 15.28483,7.09244 15.28483,15.814225"
   style="fill:#80ddff;stroke-width:0.94225907;fill-opacity:1" /><ellipse
   stroke-miterlimit="10"
   cx="312.62048"
   cy="175.33624"
   style="fill:#66b245;stroke:#ffffff;stroke-width:3.29790664;stroke-miterlimit:10"
   rx="101.89887"
   ry="105.42817" /><ellipse
   stroke-miterlimit="10"
   cx="173.01904"
   cy="390.31384"
   style="fill:#66b245;stroke:#ffffff;stroke-width:3.29790664;stroke-miterlimit:10"
   rx="83.371803"
   ry="86.259407" /><ellipse
   stroke-miterlimit="10"
   cx="104.37626"
   cy="69.333008"
   style="fill:#66b245;stroke:#ffffff;stroke-width:3.29790664;stroke-miterlimit:10"
   rx="55.581203"
   ry="57.506271" />
<g
   transform="translate(-46,-57.25)">
</g>
</svg>