<?xml version="1.0" encoding="UTF-8" standalone="no"?>
<svg
    xmlns="http://www.w3.org/2000/svg"
    version="1.1"
    x="0px"
    y="0px"
    width="42px"
    height="42px"
    viewBox="0 0 42 42"
    enable-background="new 0 0 42 42"
    xml:space="preserve"
><g
     transform="translate(5.7106006,3.6009314)"
     style="opacity:0.4"><ellipse
       cx="20.375"
       cy="19.542"
       rx="13.041"
       ry="13.124"
       style="fill:#3f6380" /><ellipse
    stroke-miterlimit="10"
    cx="27.458"
    cy="16.333"
    rx="7.2080002"
    ry="7.1669998"
    style="fill:#1db24b;stroke:#ffffff;stroke-width:0.5;stroke-miterlimit:10"/><ellipse
    stroke-miterlimit="10"
    cx="18.042"
    cy="30.582001"
    rx="5.875"
    ry="5.8340001"
    style="fill:#1db24b;stroke:#ffffff;stroke-width:0.5;stroke-miterlimit:10"/><ellipse
    stroke-miterlimit="10"
    cx="13.092"
    cy="9.5830002"
    rx="4.0749998"
    ry="4"
    style="fill:#1db24b;stroke:#ffffff;stroke-width:0.5;stroke-miterlimit:10"/><ellipse
    cx="18.99"
    cy="8.6669998"
    rx="1.052"
    ry="1.0829999"
    style="fill:#ffffff"/><ellipse
    cx="21.705"
    cy="9.5830002"
    rx="1.052"
    ry="1.0829999"
    style="fill:#ffffff"/><ellipse
    cx="11.928"
    cy="15.229"
    rx="1.052"
    ry="1.0829999"
    style="fill:#ffffff"/><ellipse
    cx="12.115"
    cy="18.062"
    rx="1.052"
    ry="1.0829999"
    style="fill:#ffffff"/><ellipse
    cx="12.761"
    cy="21.105"
    rx="1.052"
    ry="1.0829999"
    style="fill:#ffffff"/><ellipse
    cx="14.22"
    cy="23.834"
    rx="1.052"
    ry="1.082"
    style="fill:#ffffff"/><ellipse
    cx="27.198999"
    cy="25.334"
    rx="1.053"
    ry="1.082"
    style="fill:#ffffff"/><ellipse
    cx="25.304001"
    cy="27.584"
    rx="1.052"
    ry="1.082"
    style="fill:#ffffff"/></g>
  <g
      transform="matrix(1.5560251,0,0,1.5560251,-3.1451899,-0.10471183)"><circle
       r="1.7473055"
       cy="15.603101"
       cx="9.3077497"
       style="fill:none;fill-opacity:1;stroke:#000000;stroke-width:0.86196536;stroke-miterlimit:4;stroke-dasharray:none;stroke-opacity:0.95015576" />
    <circle
        r="1.7473055"
        cy="15.602594"
        cx="16.365364"
        style="fill:none;fill-opacity:1;stroke:#000000;stroke-width:0.86196536;stroke-miterlimit:4;stroke-dasharray:none;stroke-opacity:0.95015576"/>
    <ellipse
        ry="0.49771407"
        rx="0.51935387"
        cy="15.605481"
        cx="9.3193407"
        style="fill:#000000;fill-opacity:1;stroke:none;stroke-width:3.2498405;stroke-miterlimit:4;stroke-dasharray:none;stroke-opacity:0.95015576"/>
    <ellipse
        ry="0.49771407"
        rx="0.51935387"
        cy="15.575911"
        cx="16.374222"
        style="fill:#000000;fill-opacity:1;stroke:none;stroke-width:3.2498405;stroke-miterlimit:4;stroke-dasharray:none;stroke-opacity:0.95015576"/>
    <path
        d="m 13.781739,15.834436 c 0.246469,-1.602071 0.985889,-2.218253 0.985889,-2.218253 L 16,13 12.795843,13.616183 9.838169,8.0705342 H 7.003726 L 5.401648,10.042319 H 3.5531 l -0.73942,0.369707 v 3.820339 l 0.492944,0.616182 3.204157,0.369707 1.355603,-2.095016 h 2.834436 l 1.109134,1.848547 z"
        style="fill:#000000;fill-opacity:1;stroke:none;stroke-width:0.08383971;stroke-linecap:butt;stroke-linejoin:miter;stroke-miterlimit:4;stroke-dasharray:none;stroke-opacity:1"/>
    <path
        d="m 9.591693,8.5634786 c 0.616183,1.4788404 0.616183,1.4788404 0.616183,1.4788404 H 9.221987 V 8.5634786 Z"
        style="fill:#ffffff;fill-opacity:1;stroke:none;stroke-width:0.02574329px;stroke-linecap:butt;stroke-linejoin:miter;stroke-opacity:1"/>
    <path
        d="m 8.852273,8.5634786 c 0,1.4788404 0,1.4788404 0,1.4788404 H 6.387543 L 7.250202,8.5634786 Z"
        style="fill:#ffffff;fill-opacity:1;stroke:#000000;stroke-width:0.02574329px;stroke-linecap:butt;stroke-linejoin:miter;stroke-opacity:1"/>
    <path
        d="m 11.091002,1.0726823 2.432234,2.7843744 -2.114486,5.4470064 c 0,0 5.074662,3.7488149 5.074662,3.7488149 L 18.164688,12.729673 19,12 13.961644,6.4195034 14.821522,4.032038 11.74069,0.50516026 Z"
        style="fill:#000000;fill-opacity:1;stroke:none;stroke-width:0.02464732px;stroke-linecap:butt;stroke-linejoin:miter;stroke-opacity:1"/>
    <g
        transform="matrix(0.26657004,0.11853829,-0.11853829,0.26657004,15.110955,2.82119)"><rect
   style="fill:#ffffff;fill-opacity:1;stroke:#000000;stroke-width:0.17182823;stroke-miterlimit:4;stroke-dasharray:none;stroke-opacity:0.95015576"
   width="6.9584174"
   height="8.8973351"
   x="4.4263048"
   y="2.4538519" />
      <text
          xml:space="preserve"
          style="font-style:normal;font-weight:normal;font-size:5.33333349px;line-height:1.25;font-family:sans-serif;letter-spacing:0px;word-spacing:0px;fill:#000000;fill-opacity:1;stroke:none"
          x="5.1348295"
          y="5.0476785"
      ><tspan
     x="5.1348295"
     y="5.0476785"
     style="font-size:3.33333349px">csv</tspan></text>
</g>
    <g
        transform="matrix(0.11960109,0.26609489,-0.26609489,0.11960109,20.658868,3.6129694)"><rect
   style="fill:#ffffff;fill-opacity:1;stroke:#000000;stroke-width:0.17182823;stroke-miterlimit:4;stroke-dasharray:none;stroke-opacity:0.95015576"
   width="6.9584174"
   height="8.8973351"
   x="4.4263048"
   y="2.4538519" />
      <text
          xml:space="preserve"
          style="font-style:normal;font-weight:normal;font-size:5.33333349px;line-height:1.25;font-family:sans-serif;letter-spacing:0px;word-spacing:0px;fill:#000000;fill-opacity:1;stroke:none"
          x="5.1348295"
          y="5.0476785"
          id="text837-7-7"><tspan
     x="5.1348295"
     y="5.0476785"
     style="font-size:3.33333349px">csv</tspan></text>

</g>
    <g
        transform="matrix(0.28996443,0.03211758,-0.03211758,0.28996443,16.166135,7.146308)"><rect
   style="fill:#ffffff;fill-opacity:1;stroke:#000000;stroke-width:0.17182823;stroke-miterlimit:4;stroke-dasharray:none;stroke-opacity:0.95015576"
   width="6.9584174"
   height="8.8973351"
   x="4.4263048"
   y="2.4538519" />
      <text
          xml:space="preserve"
          style="font-style:normal;font-weight:normal;font-size:5.33333349px;line-height:1.25;font-family:sans-serif;letter-spacing:0px;word-spacing:0px;fill:#000000;fill-opacity:1;stroke:none"
          x="5.1348295"
          y="5.0476785"
      ><tspan
     x="5.1348295"
     y="5.0476785"
     style="font-size:3.33333349px">csv</tspan></text>


</g>
    <g
        transform="matrix(0.09935915,0.27429668,-0.27429668,0.09935915,21.982417,7.7493644)"><rect
   style="fill:#ffffff;fill-opacity:1;stroke:#000000;stroke-width:0.17182823;stroke-miterlimit:4;stroke-dasharray:none;stroke-opacity:0.95015576"
   width="6.9584174"
   height="8.8973351"
   x="4.4263048"
   y="2.4538519" />
      <text
          xml:space="preserve"
          style="font-style:normal;font-weight:normal;font-size:5.33333349px;line-height:1.25;font-family:sans-serif;letter-spacing:0px;word-spacing:0px;fill:#000000;fill-opacity:1;stroke:none"
          x="5.1348295"
          y="5.0476785"
      ><tspan
     x="5.1348295"
     y="5.0476785"
     style="font-size:3.33333349px">csv</tspan></text>


</g>
    <g
        transform="matrix(0.12245408,-0.26479408,0.26479408,0.12245408,20.600167,9.6246078)"><rect
   style="fill:#ffffff;fill-opacity:1;stroke:#000000;stroke-width:0.17182823;stroke-miterlimit:4;stroke-dasharray:none;stroke-opacity:0.95015576"
   width="6.9584174"
   height="8.8973351"
   x="4.4263048"
   y="2.4538519" />
      <text
          xml:space="preserve"
          style="font-style:normal;font-weight:normal;font-size:5.33333349px;line-height:1.25;font-family:sans-serif;letter-spacing:0px;word-spacing:0px;fill:#000000;fill-opacity:1;stroke:none"
          x="5.1348295"
          y="5.0476785"
      ><tspan
     x="5.1348295"
     y="5.0476785"
     style="font-size:3.33333349px">csv</tspan></text>


</g>
    <g
        transform="matrix(-0.17927981,-0.23015138,0.23015138,-0.17927981,24.428559,15.450681)"><rect
   style="fill:#ffffff;fill-opacity:1;stroke:#000000;stroke-width:0.17182823;stroke-miterlimit:4;stroke-dasharray:none;stroke-opacity:0.95015576"
   width="6.9584174"
   height="8.8973351"
   x="4.4263048"
   y="2.4538519" />
      <text
          xml:space="preserve"
          style="font-style:normal;font-weight:normal;font-size:5.33333349px;line-height:1.25;font-family:sans-serif;letter-spacing:0px;word-spacing:0px;fill:#000000;fill-opacity:1;stroke:none"
          x="5.1348295"
          y="5.0476785"
      ><tspan
     x="5.1348295"
     y="5.0476785"
     style="font-size:3.33333349px">csv</tspan></text>
</g></g>
</svg>