<?xml version="1.0" encoding="utf-8"?>
<!-- Generator: Adobe Illustrator 17.0.0, SVG Export Plug-In . SVG Version: 6.00 Build 0)  -->
<!DOCTYPE svg PUBLIC "-//W3C//DTD SVG 1.1//EN" "http://www.w3.org/Graphics/SVG/1.1/DTD/svg11.dtd">
<svg version="1.1" id="Livello_1" xmlns="http://www.w3.org/2000/svg" xmlns:xlink="http://www.w3.org/1999/xlink" x="0px" y="0px"
	 width="419.53px" height="595.28px" viewBox="0 0 419.53 595.28" enable-background="new 0 0 419.53 595.28" xml:space="preserve">
<path fill="#0E3A5A" d="M189.288,269.074c-6.591,7.163-10.812,17.246-12.662,30.246l-8.978,63.077
	c-1.85,13.002-0.498,23.082,4.054,30.245c1.742,2.655,4.558,5.242,8.446,7.761c3.885,2.521,9.343,3.78,16.376,3.78
	c7.163,0,13.013-1.259,17.551-3.78c4.537-2.519,8.055-5.106,10.556-7.761c6.592-7.163,10.812-17.243,12.661-30.245l8.978-63.077
	c1.85-13,0.5-23.083-4.053-30.246c-1.746-2.652-4.527-5.239-8.347-7.76c-3.82-2.519-9.312-3.781-16.475-3.781
	c-3.582,0-6.818,0.367-9.708,1.095c-2.889,0.73-5.509,1.66-7.858,2.786c-2.349,1.128-4.383,2.357-6.095,3.681
	C192.018,266.422,190.536,267.749,189.288,269.074z M198.904,286.087c1.57-3.116,3.318-5.373,5.242-6.766
	c1.92-1.393,3.798-2.22,5.627-2.487c1.828-0.264,3.47-0.398,4.932-0.398c1.324,0,2.896,0.134,4.719,0.398
	c1.817,0.267,3.49,1.094,5.018,2.487c1.525,1.393,2.631,3.65,3.316,6.766c0.682,3.118,0.619,7.53-0.192,13.232l-8.978,63.077
	c-0.83,5.839-2.033,10.316-3.603,13.431c-1.572,3.118-3.32,5.373-5.241,6.766c-1.924,1.393-3.833,2.223-5.726,2.487
	c-1.897,0.268-3.509,0.398-4.833,0.398c-1.461,0-3.065-0.13-4.817-0.398c-1.754-0.264-3.396-1.094-4.92-2.487
	c-1.527-1.393-2.633-3.647-3.315-6.766c-0.686-3.115-0.611-7.592,0.22-13.431l8.978-63.077
	C196.141,293.617,197.332,289.205,198.904,286.087z M331.091,268.599c-1.907,13.4-6.338,23.549-13.288,30.444
	c-7.425,7.431-17.439,11.144-30.041,11.144l2.691-18.903c5.173,0,8.772-0.597,10.801-1.791c2.027-1.195,3.352-2.121,3.978-2.787
	c3.351-3.05,5.671-9.083,6.955-18.107c0.68-4.777,0.829-8.621,0.447-11.541c-0.379-2.917-1.222-5.174-2.519-6.766
	c-1.3-1.591-3.072-2.652-5.316-3.183c-2.248-0.53-4.896-0.797-7.946-0.797h-11.739l-6.399,44.971l-2.691,18.903l-9.091,63.873
	h-0.005c-4.369,35.808-37.112,64.929-73.021,64.929c-17.797,0-33.776-6.97-44.994-19.627c-10.786-12.17-15.851-28.106-14.423-45.102
	h-0.105l0.345-2.489c0.001-0.006,0.001-0.012,0.002-0.019h0.001l4.457-32.148h-28.255l-4.805,34.656H87.423l20.871-146.652h18.705
	L113.622,320.7h28.255l18.556-128.953l-15.324-1.161l27.492-32.96l22.212,36.726l-15.673-1.188L153.287,374.26h-0.037
	c-1.44,12.453,1.976,24.062,9.643,32.713c7.622,8.601,18.637,13.337,31.014,13.337c26.802,0,51.244-21.783,54.485-48.558l0.161,0.02
	l20.546-144.362h30.444c12.468,0,21.434,3.65,26.896,10.944C331.407,245.386,332.96,255.466,331.091,268.599z"/>
</svg>
