<?xml version="1.0" encoding="UTF-8" standalone="no"?>
<svg
    xmlns="http://www.w3.org/2000/svg"
    version="1.1"
    x="0px"
    y="0px"
    width="24.569099"
    height="24.441879"
    viewBox="0 0 24.5691 24.441879"
    enable-background="new 0 0 42 42"
    xml:space="preserve">

  <g transform="matrix(0.64663602,0,0,0.59167086,-2.9804845,-1.8143621)">
	<polygon points="31.007,38.935 39.273,30.67 37.929,29.326 31.007,36.249 28.675,33.917 27.332,35.261 "
           style="fill:#5cc0c4"/>
    <polygon points="29.003,18.86 29.003,10.447 13.496,10.447 13.496,18.608 21.351,26.487 "
             style="fill:#c9e8fb"/>
    <polygon
        points="25.292,31.272 32.62,23.945 32.62,16.383 21.349,27.619 10.08,16.314 10.08,31.272 "
        style="fill:#ffffff"/>
    <path
        d="M 10.08,16.314 21.349,27.619 32.62,16.383 v 7.562 l 1.7,-1.7 v -7.328 -0.6 H 30.703 V 8.748 H 11.796 v 5.569 H 8.38 v 0.6 18.056 h 15.212 l 1.7,-1.7 H 10.08 Z m 3.416,-5.867 h 15.507 v 8.413 l -7.651,7.627 -7.855,-7.879 v -8.161 z"
        style="fill:#0e3a5a"/>
</g>
</svg>