<?xml version="1.0" standalone="no"?>
<svg xmlns="http://www.w3.org/2000/svg" width="1535.0052108764648" height="752"
     style="touch-action: none; -webkit-tap-highlight-color: rgba(0, 0, 0, 0);"><defs><marker id="modelerCanvasArrow" viewBox="0 -5 10 10" refX="5" refY="0" markerWidth="4" markerHeight="4" orient="auto"><path d="M0,-5L10,0L0,5" class="arrowHead"/></marker></defs><g transform="translate(253.35083503723152,97.50001068115185) scale(0.7)"><g class="grid"/><g id="relationshiptype_Rel28" class="relationshipType"><path class="relationshipLine arrow" d="M706.7157287525381,263.2842712474619C695.2915010202709,277.3639540148894,683.8672732880036,291.4436367823168,673.159163730981,285.75146273309167C662.4510541739585,280.05928868386655,652.4590627921804,254.5952578179889,655.3852218662242,242.84137122636486C658.3113809402681,231.0874846347408,674.155690470134,233.0437423173704,690,235" style="fill: none; stroke: black; stroke-width: 3;" marker-end="url(#modelerCanvasArrow)"/><title class="relationshipTypeTooltip">executes</title><text class="displayText" x="656.8811565385123" y="267.357884438649" text-anchor="middle" baseline-shift="30%" alignment-baseline="alphabetic" font-family="Roboto, sans-serif" font-size="14" style="fill: black;" transform="rotate(-112.49999999999974 656.8811565385123 267.357884438649)">executes</text></g><g id="relationshiptype_Rel27" class="relationshipType"><path class="relationshipLine arrow" d="M356.3931237936435,213.53227360462293C380.3895918062269,196.08029686819862,404.3860598188103,178.62832013177436,428.38252783139365,161.1763433953501C452.378995843977,143.72436665892585,476.3754638565604,126.27238992250156,500.37193186914374,108.82041318607726" style="fill: none; stroke: black; stroke-width: 3;" marker-end="url(#modelerCanvasArrow)"/><title class="relationshipTypeTooltip"/><text class="displayText" x="430" y="160" text-anchor="middle" baseline-shift="30%" alignment-baseline="alphabetic" font-family="Roboto, sans-serif" font-size="14" style="fill: black;" transform="rotate(-36.02737338510361 430 160)"/></g><g id="relationshiptype_Rel22" class="relationshipType"><path class="relationshipLine arrow" d="M695,240C640.6666666666666,240,586.3333333333333,240,532,240C477.6666666666667,240,423.33333333333337,240,369,240" style="fill: none; stroke: black; stroke-width: 3;" marker-end="url(#modelerCanvasArrow)"/><title class="relationshipTypeTooltip">HAS_DATA</title><text class="displayText" x="530" y="240" text-anchor="middle" baseline-shift="30%" alignment-baseline="alphabetic" font-family="Roboto, sans-serif" font-size="14" style="fill: black;" transform="rotate(0 530 240)">HAS_DATA</text></g><g id="relationshiptype_Rel21" class="relationshipType"><path class="relationshipLine arrow" d="M704.8609035750636,211.8887228600509C683.7611815896712,195.00894527173688,662.6614596042788,178.12916768342288,641.5617376188861,161.24939009510885C620.4620156334935,144.36961250679482,599.3622936481011,127.4898349184808,578.2625716627085,110.61005733016678" style="fill: none; stroke: black; stroke-width: 3;" marker-end="url(#modelerCanvasArrow)"/><title class="relationshipTypeTooltip"/><text class="displayText" x="640" y="160" text-anchor="middle" baseline-shift="30%" alignment-baseline="alphabetic" font-family="Roboto, sans-serif" font-size="14" style="fill: black;" transform="rotate(38.65980825409008 640 160)"/></g><g id="relationshiptype_Rel1" class="relationshipType"><path class="relationshipLine arrow" d="M320,285C320,306,320,327,320,348C320,369,320,390,320,411" style="fill: none; stroke: black; stroke-width: 3;" marker-end="url(#modelerCanvasArrow)"/><title class="relationshipTypeTooltip">HAS_DATASET</title><text class="displayText" x="320" y="350" text-anchor="middle" baseline-shift="30%" alignment-baseline="alphabetic" font-family="Roboto, sans-serif" font-size="14" style="fill: black;" transform="rotate(90 320 350)">HAS_DATASET</text></g><g id="relationshiptype_Rel2" class="relationshipType"><path class="relationshipLine arrow" d="M286.82806369096664,270.4076082832806C258.37681188744494,296.4879224365088,229.92556008392322,322.56823658973707,201.4743082804015,348.6485507429653C173.02305647687976,374.72886489619356,144.57180467335803,400.8091790494218,116.12055286983633,426.88949320265004" style="fill: none; stroke: black; stroke-width: 3;" marker-end="url(#modelerCanvasArrow)"/><title class="relationshipTypeTooltip">HAS_METADATA</title><text class="displayText" x="200" y="350" text-anchor="middle" baseline-shift="30%" alignment-baseline="alphabetic" font-family="Roboto, sans-serif" font-size="14" style="fill: black;" transform="rotate(-42.51044707800085 200 350)">HAS_METADATA</text></g><g id="relationshiptype_Rel33" class="relationshipType"><path class="relationshipLine arrow" d="M275,460C250.66666666666669,460,226.33333333333334,460,202,460C177.66666666666666,460,153.33333333333331,460,129,460" style="fill: none; stroke: black; stroke-width: 3;" marker-end="url(#modelerCanvasArrow)"/><title class="relationshipTypeTooltip">HAS_METADATA</title><text class="displayText" x="200" y="460" text-anchor="middle" baseline-shift="30%" alignment-baseline="alphabetic" font-family="Roboto, sans-serif" font-size="14" style="fill: black;" transform="rotate(0 200 460)">HAS_METADATA</text></g><g id="relationshiptype_Rel35" class="relationshipType"><path class="relationshipLine arrow" d="M320,505C320,522.6666666666667,320,540.3333333333334,320,558C320,575.6666666666666,320,593.3333333333333,320,611" style="fill: none; stroke: black; stroke-width: 3;" marker-end="url(#modelerCanvasArrow)"/><title class="relationshipTypeTooltip">HAS_ROW</title><text class="displayText" x="320" y="560" text-anchor="middle" baseline-shift="30%" alignment-baseline="alphabetic" font-family="Roboto, sans-serif" font-size="14" style="fill: black;" transform="rotate(90 320 560)">HAS_ROW</text></g><g id="relationshiptype_Rel53" class="relationshipType"><path class="relationshipLine arrow" d="M785,240C826,240,867,240,908,240C949,240,990,240,1031,240" style="fill: none; stroke: black; stroke-width: 3;" marker-end="url(#modelerCanvasArrow)"/><title class="relationshipTypeTooltip">HAS_METRIC</title><text class="displayText" x="910" y="240" text-anchor="middle" baseline-shift="30%" alignment-baseline="alphabetic" font-family="Roboto, sans-serif" font-size="14" style="fill: black;" transform="rotate(0 910 240)">HAS_METRIC</text></g><g id="nodelabel_Node22" class="nodeLabel" style="touch-action: none; -webkit-tap-highlight-color: rgba(0, 0, 0, 0);"><circle class="hoverCircle" cy="240" cx="320" r="60" style="opacity: 0; fill: lightgray; touch-action: none; -webkit-tap-highlight-color: rgba(0, 0, 0, 0);"/><circle class="displayCircle" cy="240" cx="320" r="40" style="fill: rgb(103, 58, 183); stroke: rgb(5, 0, 106); stroke-width: 4;"/><text class="displayText" x="320" y="240" pointer-events="none" text-anchor="middle" alignment-baseline="central" font-family="Roboto, sans-serif" font-size="14" style="fill: white;"><tspan x="320" y="240" dy="0.00em">Execution</tspan><tspan x="320" y="240" dy="1.10em">Data</tspan></text><g class="annotation" transform="translate(23.992267600511582,98.18019484660536)"><path class="annotationBubble" stroke-width="2" d="M10,0L250.18792724609375,0 C253.3545939127604,0.16666666666666674,256.52126057942706,0.3333333333333335,258.18792724609375,2C259.85459391276044,3.6666666666666665,260.0212605794271,6.833333333333333,260.18792724609375,10 L260.18792724609375,96 L260.18792724609375,100L264.18792724609375,110L254.18792724609375,106L250.18792724609375,106 L10,106 C6.833333333333333,105.83333333333334,3.6666666666666665,105.66666666666667,2,104C0.3333333333333333,102.33333333333333,0.16666666666666666,99.16666666666666,0,96 L0,10 C0.16666666666666674,6.833333333333333,0.3333333333333335,3.6666666666666665,2,2C3.6666666666666665,0.3333333333333333,6.833333333333333,0.16666666666666666,10,0Z" style="fill: white; stroke: black;"/><g class="annotationColoredBackgroundRectangles"><rect x="6" y="5.399999999999999" width="135.12752532958984" height="21.6" rx="3" style="fill: white; stroke: white; stroke-width: 1;"/><rect x="6" y="28.6" width="136.68606567382812" height="21.6" rx="3" style="fill: white; stroke: white; stroke-width: 1;"/><rect x="6" y="51.800000000000004" width="214.18792724609375" height="21.6" rx="3" style="fill: white; stroke: white; stroke-width: 1;"/><rect x="6" y="75" width="129.46756744384766" height="21.6" rx="3" style="fill: white; stroke: white; stroke-width: 1;"/></g><text class="annotationText" x="10" y="25" pointer-events="none" font-family="Roboto, sans-serif" font-size="14" style="fill: black;"><tspan x="10" y="25" text-anchor="start" style="fill: black;" dy="-0.25em">(*) ownerId : String</tspan><tspan x="10" y="25" text-anchor="start" style="fill: black;" dy="1.45em">(*) parentId : String</tspan><tspan x="10" y="25" text-anchor="start" style="fill: black;" dy="3.15em">collectionDate : LocalDateTime</tspan><tspan x="10" y="25" text-anchor="start" style="fill: black;" dy="4.85em">finished : Boolean</tspan></text></g></g><g id="nodelabel_Node21" class="nodeLabel" style="touch-action: none; -webkit-tap-highlight-color: rgba(0, 0, 0, 0);"><circle class="hoverCircle" cy="80" cx="540" r="60" style="opacity: 0; fill: lightgray; touch-action: none; -webkit-tap-highlight-color: rgba(0, 0, 0, 0);"/><circle class="displayCircle" cy="80" cx="540" r="40" style="fill: rgb(3, 169, 244); stroke: rgb(0, 96, 163); stroke-width: 4;"/><text class="displayText" x="540" y="80" pointer-events="none" text-anchor="middle" alignment-baseline="central" font-family="Roboto, sans-serif" font-size="14" style="fill: white;"><tspan x="540" y="80" dy="0.00em">Execution</tspan><tspan x="540" y="80" dy="1.10em">Type</tspan></text><g class="annotation" transform="translate(457.18791580200195,-7)"><path class="annotationBubble" stroke-width="2" d="M10,0L155.6241683959961,0 C158.79083506266278,0.16666666666666674,161.95750172932944,0.3333333333333335,163.6241683959961,2C165.29083506266275,3.6666666666666665,165.4575017293294,6.833333333333333,165.6241683959961,10 L165.6241683959961,24 C165.4575017293294,27.166666666666668,165.29083506266275,30.333333333333336,163.6241683959961,32C161.95750172932944,33.666666666666664,158.79083506266278,33.83333333333333,155.6241683959961,34 L90.81208419799805,34L82.81208419799805,42L74.81208419799805,34L10,34 C6.833333333333333,33.833333333333336,3.6666666666666665,33.66666666666667,2,32C0.3333333333333333,30.333333333333332,0.16666666666666666,27.166666666666664,0,24 L0,10 C0.16666666666666674,6.833333333333333,0.3333333333333335,3.6666666666666665,2,2C3.6666666666666665,0.3333333333333333,6.833333333333333,0.16666666666666666,10,0Z" style="fill: white; stroke: black;"/><g class="annotationColoredBackgroundRectangles"><rect x="6" y="5.399999999999999" width="119.6241683959961" height="21.6" rx="3" style="fill: white; stroke: white; stroke-width: 1;"/></g><text class="annotationText" x="10" y="25" pointer-events="none" font-family="Roboto, sans-serif" font-size="14" style="fill: black;"><tspan x="10" y="25" text-anchor="start" style="fill: black;" dy="-0.25em">(*) name : String</tspan></text></g></g><g id="nodelabel_Node17" class="nodeLabel" style="touch-action: none; -webkit-tap-highlight-color: rgba(0, 0, 0, 0);"><circle class="hoverCircle" cy="240" cx="1080" r="60" style="opacity: 0; fill: lightgray; touch-action: none; -webkit-tap-highlight-color: rgba(0, 0, 0, 0);"/><circle class="displayCircle" cy="240" cx="1080" r="40" style="fill: rgb(244, 67, 54); stroke: rgb(151, 0, 0); stroke-width: 4;"/><text class="displayText" x="1080" y="240" pointer-events="none" text-anchor="middle" alignment-baseline="central" font-family="Roboto, sans-serif" font-size="14" style="fill: white;"><tspan x="1080" y="240" dy="0.00em">Execution</tspan><tspan x="1080" y="240" dy="1.10em">Metric</tspan></text><g class="annotation" transform="translate(1133,175)"><path class="annotationBubble" stroke-width="2" d="M10,0L230.07608032226562,0 C233.2427469889323,0.16666666666666674,236.40941365559897,0.3333333333333335,238.07608032226562,2C239.74274698893228,3.6666666666666665,239.90941365559894,6.833333333333333,240.07608032226562,10 L240.07608032226562,120 C239.90941365559894,123.16666666666667,239.74274698893228,126.33333333333334,238.07608032226562,128C236.40941365559897,129.66666666666666,233.2427469889323,129.83333333333331,230.07608032226562,130 L10,130 C6.833333333333333,129.83333333333334,3.6666666666666665,129.66666666666669,2,128C0.3333333333333333,126.33333333333333,0.16666666666666666,123.16666666666666,0,120 L0,73L-8,65L0,57L0,10 C0.16666666666666674,6.833333333333333,0.3333333333333335,3.6666666666666665,2,2C3.6666666666666665,0.3333333333333333,6.833333333333333,0.16666666666666666,10,0Z" style="fill: white; stroke: black;"/><g class="annotationColoredBackgroundRectangles"><rect x="6" y="5.399999999999999" width="188.2967987060547" height="21.6" rx="3" style="fill: white; stroke: white; stroke-width: 1;"/><rect x="6" y="28.6" width="194.07608032226562" height="21.6" rx="3" style="fill: white; stroke: white; stroke-width: 1;"/><rect x="6" y="51.800000000000004" width="95.59732055664062" height="21.6" rx="3" style="fill: white; stroke: white; stroke-width: 1;"/><rect x="6" y="75" width="147.6182098388672" height="21.6" rx="3" style="fill: white; stroke: white; stroke-width: 1;"/><rect x="6" y="98.19999999999999" width="147.44668579101562" height="21.6" rx="3" style="fill: white; stroke: white; stroke-width: 1;"/></g><text class="annotationText" x="10" y="25" pointer-events="none" font-family="Roboto, sans-serif" font-size="14" style="fill: black;"><tspan x="10" y="25" text-anchor="start" style="fill: black;" dy="-0.25em">(*) componentCopy : String</tspan><tspan x="10" y="25" text-anchor="start" style="fill: black;" dy="1.45em">(*) componentName : String</tspan><tspan x="10" y="25" text-anchor="start" style="fill: black;" dy="3.15em">(*) id : String</tspan><tspan x="10" y="25" text-anchor="start" style="fill: black;" dy="4.85em">(*) metricKey : String</tspan><tspan x="10" y="25" text-anchor="start" style="fill: black;" dy="6.55em">metricValue : Integer</tspan></text></g></g><g id="nodelabel_Node0" class="nodeLabel" style="touch-action: none; -webkit-tap-highlight-color: rgba(0, 0, 0, 0);"><circle class="hoverCircle" cy="240" cx="740" r="60" style="opacity: 0; fill: lightgray; touch-action: none; -webkit-tap-highlight-color: rgba(0, 0, 0, 0);"/><circle class="displayCircle" cy="240" cx="740" r="40" style="fill: rgb(244, 67, 54); stroke: rgb(151, 0, 0); stroke-width: 4;"/><text class="displayText" x="740" y="240" pointer-events="none" text-anchor="middle" alignment-baseline="central" font-family="Roboto, sans-serif" font-size="14" style="fill: white;"><tspan x="740" y="240" dy="0.34em">Execution</tspan></text><g class="annotation" transform="translate(594.6226654052734,293)"><path class="annotationBubble" stroke-width="2" d="M10,0L137.37733459472656,0L145.37733459472656,-8L153.37733459472656,0L280.7546691894531,0 C283.92133585611975,0.16666666666666674,287.08800252278644,0.3333333333333335,288.7546691894531,2C290.4213358561198,3.6666666666666665,290.5880025227865,6.833333333333333,290.7546691894531,10 L290.7546691894531,384 C290.5880025227865,387.16666666666663,290.4213358561198,390.3333333333333,288.7546691894531,392C287.08800252278644,393.6666666666667,283.92133585611975,393.83333333333337,280.7546691894531,394 L10,394 C6.833333333333333,393.83333333333337,3.6666666666666665,393.6666666666667,2,392C0.3333333333333333,390.3333333333333,0.16666666666666666,387.16666666666663,0,384 L0,10 C0.16666666666666674,6.833333333333333,0.3333333333333335,3.6666666666666665,2,2C3.6666666666666665,0.3333333333333333,6.833333333333333,0.16666666666666666,10,0Z" style="fill: white; stroke: black;"/><g class="annotationColoredBackgroundRectangles"><rect x="6" y="5.399999999999999" width="95.59732055664062" height="21.6" rx="3" style="fill: white; stroke: white; stroke-width: 1;"/><rect x="6" y="28.6" width="147.31246948242188" height="21.6" rx="3" style="fill: white; stroke: white; stroke-width: 1;"/><rect x="6" y="51.800000000000004" width="136.6114959716797" height="21.6" rx="3" style="fill: white; stroke: white; stroke-width: 1;"/><rect x="6" y="75" width="244.75466918945312" height="21.6" rx="3" style="fill: white; stroke: white; stroke-width: 1;"/><rect x="6" y="98.19999999999999" width="156.31320190429688" height="21.6" rx="3" style="fill: white; stroke: white; stroke-width: 1;"/><rect x="6" y="121.4" width="114.12826538085938" height="21.6" rx="3" style="fill: white; stroke: white; stroke-width: 1;"/><rect x="6" y="144.6" width="119.54959869384766" height="21.6" rx="3" style="fill: white; stroke: white; stroke-width: 1;"/><rect x="6" y="167.8" width="117.05146026611328" height="21.6" rx="3" style="fill: white; stroke: white; stroke-width: 1;"/><rect x="6" y="191" width="138.5652618408203" height="21.6" rx="3" style="fill: white; stroke: white; stroke-width: 1;"/><rect x="6" y="214.20000000000002" width="156.26846313476562" height="21.6" rx="3" style="fill: white; stroke: white; stroke-width: 1;"/><rect x="6" y="237.4" width="99.8777084350586" height="21.6" rx="3" style="fill: white; stroke: white; stroke-width: 1;"/><rect x="6" y="260.59999999999997" width="116.94705963134766" height="21.6" rx="3" style="fill: white; stroke: white; stroke-width: 1;"/><rect x="6" y="283.79999999999995" width="224.7845001220703" height="21.6" rx="3" style="fill: white; stroke: white; stroke-width: 1;"/><rect x="6" y="307" width="209.1021728515625" height="21.6" rx="3" style="fill: white; stroke: white; stroke-width: 1;"/><rect x="6" y="330.2" width="176.51455688476562" height="21.6" rx="3" style="fill: white; stroke: white; stroke-width: 1;"/><rect x="6" y="353.4" width="198.78152465820312" height="21.6" rx="3" style="fill: white; stroke: white; stroke-width: 1;"/></g><text class="annotationText" x="10" y="25" pointer-events="none" font-family="Roboto, sans-serif" font-size="14" style="fill: black;"><tspan x="10" y="25" text-anchor="start" style="fill: black;" dy="-0.25em">(*) id : String</tspan><tspan x="10" y="25" text-anchor="start" style="fill: black;" dy="1.45em">childIds : StringArray</tspan><tspan x="10" y="25" text-anchor="start" style="fill: black;" dy="3.15em">excutorXml : String</tspan><tspan x="10" y="25" text-anchor="start" style="fill: black;" dy="4.85em">executionStartDate : LocalDateTime</tspan><tspan x="10" y="25" text-anchor="start" style="fill: black;" dy="6.55em">executionType : String</tspan><tspan x="10" y="25" text-anchor="start" style="fill: black;" dy="8.25em">failed : Boolean</tspan><tspan x="10" y="25" text-anchor="start" style="fill: black;" dy="9.95em">filename : String</tspan><tspan x="10" y="25" text-anchor="start" style="fill: black;" dy="11.65em">logLevel : String</tspan><tspan x="10" y="25" text-anchor="start" style="fill: black;" dy="13.35em">loggingText : String</tspan><tspan x="10" y="25" text-anchor="start" style="fill: black;" dy="15.05em">metadataJson : String</tspan><tspan x="10" y="25" text-anchor="start" style="fill: black;" dy="16.75em">name : String</tspan><tspan x="10" y="25" text-anchor="start" style="fill: black;" dy="18.45em">parentId : String</tspan><tspan x="10" y="25" text-anchor="start" style="fill: black;" dy="20.15em">registrationDate : LocalDateTime</tspan><tspan x="10" y="25" text-anchor="start" style="fill: black;" dy="21.85em">runConfigurationName : String</tspan><tspan x="10" y="25" text-anchor="start" style="fill: black;" dy="23.55em">statusDescription : String</tspan><tspan x="10" y="25" text-anchor="start" style="fill: black;" dy="25.25em">updateTime : LocalDateTime</tspan></text></g></g><g id="nodelabel_Node1" class="nodeLabel" style="touch-action: none; -webkit-tap-highlight-color: rgba(0, 0, 0, 0);"><circle class="hoverCircle" cy="460" cx="320" r="60" style="opacity: 0; fill: lightgray; touch-action: none; -webkit-tap-highlight-color: rgba(0, 0, 0, 0);"/><circle class="displayCircle" cy="460" cx="320" r="40" style="fill: rgb(103, 58, 183); stroke: rgb(5, 0, 106); stroke-width: 4;"/><text class="displayText" x="320" y="460" pointer-events="none" text-anchor="middle" alignment-baseline="central" font-family="Roboto, sans-serif" font-size="14" style="fill: white;"><tspan x="320" y="460" dy="0.00em">Execution</tspan><tspan x="320" y="460" dy="1.10em">DataSet</tspan></text><g class="annotation" transform="translate(373,407)"><path class="annotationBubble" stroke-width="2" d="M10,0L187.48098754882812,0 C190.6476542154948,0.16666666666666674,193.81432088216147,0.3333333333333335,195.48098754882812,2C197.14765421549478,3.6666666666666665,197.31432088216144,6.833333333333333,197.48098754882812,10 L197.48098754882812,96 C197.31432088216144,99.16666666666666,197.14765421549478,102.33333333333333,195.48098754882812,104C193.81432088216147,105.66666666666667,190.6476542154948,105.83333333333334,187.48098754882812,106 L10,106 C6.833333333333333,105.83333333333334,3.6666666666666665,105.66666666666667,2,104C0.3333333333333333,102.33333333333333,0.16666666666666666,99.16666666666666,0,96 L0,61L-8,53L0,45L0,10 C0.16666666666666674,6.833333333333333,0.3333333333333335,3.6666666666666665,2,2C3.6666666666666665,0.3333333333333333,6.833333333333333,0.16666666666666666,10,0Z" style="fill: white; stroke: black;"/><g class="annotationColoredBackgroundRectangles"><rect x="6" y="5.399999999999999" width="135.12752532958984" height="21.6" rx="3" style="fill: white; stroke: white; stroke-width: 1;"/><rect x="6" y="28.6" width="136.68606567382812" height="21.6" rx="3" style="fill: white; stroke: white; stroke-width: 1;"/><rect x="6" y="51.800000000000004" width="126.65623474121094" height="21.6" rx="3" style="fill: white; stroke: white; stroke-width: 1;"/><rect x="6" y="75" width="151.48098754882812" height="21.6" rx="3" style="fill: white; stroke: white; stroke-width: 1;"/></g><text class="annotationText" x="10" y="25" pointer-events="none" font-family="Roboto, sans-serif" font-size="14" style="fill: black;"><tspan x="10" y="25" text-anchor="start" style="fill: black;" dy="-0.25em">(*) ownerId : String</tspan><tspan x="10" y="25" text-anchor="start" style="fill: black;" dy="1.45em">(*) parentId : String</tspan><tspan x="10" y="25" text-anchor="start" style="fill: black;" dy="3.15em">(*) setKey : String</tspan><tspan x="10" y="25" text-anchor="start" style="fill: black;" dy="4.85em">rowMetaJson : String</tspan></text></g></g><g id="nodelabel_Node2" class="nodeLabel" style="touch-action: none; -webkit-tap-highlight-color: rgba(0, 0, 0, 0);"><circle class="hoverCircle" cy="460" cx="80" r="60" style="opacity: 0; fill: lightgray; touch-action: none; -webkit-tap-highlight-color: rgba(0, 0, 0, 0);"/><circle class="displayCircle" cy="460" cx="80" r="40" style="fill: rgb(103, 58, 183); stroke: rgb(5, 0, 106); stroke-width: 4;"/><text class="displayText" x="80" y="460" pointer-events="none" text-anchor="middle" alignment-baseline="central" font-family="Roboto, sans-serif" font-size="14" style="fill: white;"><tspan x="80" y="460" dy="-0.76em">Execution</tspan><tspan x="80" y="460" dy="0.34em">DataSet</tspan><tspan x="80" y="460" dy="1.44em">Meta</tspan></text><g class="annotation" transform="translate(-185.1949119649181,495.81980515339467)"><path class="annotationBubble" stroke-width="2" d="M10,0L219.37510681152344,0 L223.37510681152344,0L233.37510681152344,-4L229.37510681152344,6L229.37510681152344,10 L229.37510681152344,192 C229.20844014485675,195.16666666666669,229.0417734781901,198.33333333333334,227.37510681152344,200C225.70844014485678,201.66666666666666,222.54177347819012,201.83333333333331,219.37510681152344,202 L10,202 C6.833333333333333,201.83333333333331,3.6666666666666665,201.66666666666666,2,200C0.3333333333333333,198.33333333333334,0.16666666666666666,195.16666666666669,0,192 L0,10 C0.16666666666666674,6.833333333333333,0.3333333333333335,3.6666666666666665,2,2C3.6666666666666665,0.3333333333333333,6.833333333333333,0.16666666666666666,10,0Z" style="fill: white; stroke: black;"/><g class="annotationColoredBackgroundRectangles"><rect x="6" y="5.399999999999999" width="95.59732055664062" height="21.6" rx="3" style="fill: white; stroke: white; stroke-width: 1;"/><rect x="6" y="28.6" width="126.65623474121094" height="21.6" rx="3" style="fill: white; stroke: white; stroke-width: 1;"/><rect x="6" y="51.800000000000004" width="109.58688354492188" height="21.6" rx="3" style="fill: white; stroke: white; stroke-width: 1;"/><rect x="6" y="75" width="135.42581176757812" height="21.6" rx="3" style="fill: white; stroke: white; stroke-width: 1;"/><rect x="6" y="98.19999999999999" width="129.84788513183594" height="21.6" rx="3" style="fill: white; stroke: white; stroke-width: 1;"/><rect x="6" y="121.4" width="147.68531799316406" height="21.6" rx="3" style="fill: white; stroke: white; stroke-width: 1;"/><rect x="6" y="144.6" width="99.8777084350586" height="21.6" rx="3" style="fill: white; stroke: white; stroke-width: 1;"/><rect x="6" y="167.8" width="183.37510681152344" height="21.6" rx="3" style="fill: white; stroke: white; stroke-width: 1;"/></g><text class="annotationText" x="10" y="25" pointer-events="none" font-family="Roboto, sans-serif" font-size="14" style="fill: black;"><tspan x="10" y="25" text-anchor="start" style="fill: black;" dy="-0.25em">(*) id : String</tspan><tspan x="10" y="25" text-anchor="start" style="fill: black;" dy="1.45em">(*) setKey : String</tspan><tspan x="10" y="25" text-anchor="start" style="fill: black;" dy="3.15em">copyNr : String</tspan><tspan x="10" y="25" text-anchor="start" style="fill: black;" dy="4.85em">description : String</tspan><tspan x="10" y="25" text-anchor="start" style="fill: black;" dy="6.55em">fieldName : String</tspan><tspan x="10" y="25" text-anchor="start" style="fill: black;" dy="8.25em">logChannelId : String</tspan><tspan x="10" y="25" text-anchor="start" style="fill: black;" dy="9.95em">name : String</tspan><tspan x="10" y="25" text-anchor="start" style="fill: black;" dy="11.65em">sampleDescription : String</tspan></text></g></g><g id="nodelabel_Node35" class="nodeLabel" style="touch-action: none; -webkit-tap-highlight-color: rgba(0, 0, 0, 0);"><circle class="hoverCircle" cy="660" cx="320" r="60" style="opacity: 0; fill: lightgray; touch-action: none; -webkit-tap-highlight-color: rgba(0, 0, 0, 0);"/><circle class="displayCircle" cy="660" cx="320" r="40" style="fill: rgb(103, 58, 183); stroke: rgb(5, 0, 106); stroke-width: 4;"/><text class="displayText" x="320" y="660" pointer-events="none" text-anchor="middle" alignment-baseline="central" font-family="Roboto, sans-serif" font-size="14" style="fill: white;"><tspan x="320" y="660" dy="-0.76em">Execution</tspan><tspan x="320" y="660" dy="0.34em">DataSet</tspan><tspan x="320" y="660" dy="1.44em">Row</tspan></text><g class="annotation" transform="translate(217.78821563720703,713)"><path class="annotationBubble" stroke-width="2" d="M10,0L94.21178436279297,0L102.21178436279297,-8L110.21178436279297,0L194.42356872558594,0 C197.59023539225262,0.16666666666666674,200.75690205891928,0.3333333333333335,202.42356872558594,2C204.0902353922526,3.6666666666666665,204.25690205891925,6.833333333333333,204.42356872558594,10 L204.42356872558594,96 C204.25690205891925,99.16666666666666,204.0902353922526,102.33333333333333,202.42356872558594,104C200.75690205891928,105.66666666666667,197.59023539225262,105.83333333333334,194.42356872558594,106 L10,106 C6.833333333333333,105.83333333333334,3.6666666666666665,105.66666666666667,2,104C0.3333333333333333,102.33333333333333,0.16666666666666666,99.16666666666666,0,96 L0,10 C0.16666666666666674,6.833333333333333,0.3333333333333335,3.6666666666666665,2,2C3.6666666666666665,0.3333333333333333,6.833333333333333,0.16666666666666666,10,0Z" style="fill: white; stroke: black;"/><g class="annotationColoredBackgroundRectangles"><rect x="6" y="5.399999999999999" width="95.59732055664062" height="21.6" rx="3" style="fill: white; stroke: white; stroke-width: 1;"/><rect x="6" y="28.6" width="158.42356872558594" height="21.6" rx="3" style="fill: white; stroke: white; stroke-width: 1;"/><rect x="6" y="51.800000000000004" width="126.65623474121094" height="21.6" rx="3" style="fill: white; stroke: white; stroke-width: 1;"/><rect x="6" y="75" width="148.6323699951172" height="21.6" rx="3" style="fill: white; stroke: white; stroke-width: 1;"/></g><text class="annotationText" x="10" y="25" pointer-events="none" font-family="Roboto, sans-serif" font-size="14" style="fill: black;"><tspan x="10" y="25" text-anchor="start" style="fill: black;" dy="-0.25em">(*) id : String</tspan><tspan x="10" y="25" text-anchor="start" style="fill: black;" dy="1.45em">(*) rowNumber : String</tspan><tspan x="10" y="25" text-anchor="start" style="fill: black;" dy="3.15em">(*) setKey : String</tspan><tspan x="10" y="25" text-anchor="start" style="fill: black;" dy="4.85em">rowDataJson : String</tspan></text></g></g></g><text pointer-events="none" font-family="Roboto, sans-serif" font-size="14"><tspan id="modelerCanvas_textDimensionHelper"/></text></svg>