<?xml version="1.0" encoding="utf-8"?>
<!DOCTYPE svg PUBLIC "-//W3C//DTD SVG 1.1//EN" "http://www.w3.org/Graphics/SVG/1.1/DTD/svg11.dtd">
<svg version="1.1" id="Layer_1" xmlns="http://www.w3.org/2000/svg" xmlns:xlink="http://www.w3.org/1999/xlink" x="0px" y="0px"
	 width="42px" height="42px" viewBox="0 0 42 42" enable-background="new 0 0 42 42" xml:space="preserve">
<rect x="10.161" y="27.101" fill="none" width="4.845" height="8.178"/>
<path fill="#5CC0C4" d="M32.109,26.184l1.955-1.955v2.533c0,1.906-1.551,3.457-3.455,3.457h-0.637v1.898h0.637
	c2.951,0,5.354-2.402,5.354-5.355v-2.533l1.955,1.955l1.344-1.344l-4.248-4.249l-4.246,4.249L32.109,26.184z"/>
<path fill="#5CC0C4" d="M37.918,14.811l-1.953,1.954v-2.533c0-2.954-2.402-5.355-5.355-5.355h-0.639v1.899h0.639
	c1.906,0,3.455,1.55,3.455,3.456v2.533l-1.953-1.954l-1.344,1.344l4.248,4.248l4.248-4.248L37.918,14.811z"/>
<rect x="5.021" y="27.101" fill="#C9E8FB" width="4.631" height="8.178"/>
<rect x="16.004" y="27.101" fill="#C9E8FB" width="4.978" height="8.178"/>
<path fill="#0E3A5A" d="M27.961,25.399H3.413v11.58h24.548V25.399z M21.736,35.278v-8.178h4.525v8.178H21.736z M15.959,35.278
	v-8.178h4.976v8.178H15.959z M9.483,27.101v8.178H5.111v-8.178H9.483z M10.284,35.278v-8.178h0.029h4.845v8.178h-4.845H10.284z"/>
<rect x="5.15" y="6.038" fill="#C9E8FB" width="4.372" height="8.178"/>
<rect x="21.873" y="6.038" fill="#C9E8FB" width="4.525" height="8.178"/>
<path fill="#0E3A5A" d="M28.078,4.337H3.531v11.58h24.547V4.337z M21.854,14.216V6.038h4.525v8.178H21.854z M16.077,14.216V6.038
	h4.976v8.178H16.077z M9.602,6.038v8.178H5.229V6.038H9.602z M10.402,14.216V6.038h0.029h4.845v8.178h-4.845H10.402z"/>
</svg>
