<?xml version="1.0" encoding="utf-8"?>
<svg xmlns="http://www.w3.org/2000/svg" width="128" height="128">
<path fill="#0F3B5A" d="M11.298,0.769C7.585,1.773,4.507,4.326,2.817,7.817C1.791,9.884,1.791,9.915,1.699,14.99l-0.121,5.104h4.408
	h4.407v-3.496c0-4.101,0.453-5.589,1.962-6.531c0.846-0.516,1.479-0.608,4.648-0.608h3.653V4.903V0.345L16.67,0.376
	C14.47,0.375,12.054,0.557,11.298,0.769z"/>
    <path fill="#0F3B5A" d="M28.205,4.902V9.46h6.189h6.188V4.902V0.345h-6.188h-6.189V4.902z"/>
    <path fill="#0F3B5A"
          d="M48.126,4.902V9.46l6.279-0.061l6.248-0.093l0.092-4.498l0.09-4.466h-6.369H48.13v4.559H48.126z"/>
    <path fill="#0F3B5A" d="M68.111,4.809l0.09,4.498l6.28,0.093l6.248,0.061V4.902V0.345h-6.339h-6.368L68.111,4.809z"/>
    <path fill="#0F3B5A" d="M88.276,4.902V9.46h6.189h6.186V4.902V0.345h-6.186h-6.189V4.902z"/>
    <path fill="#0F3B5A" d="M108.2,4.902V9.46h3.654c3.169,0,3.804,0.091,4.649,0.607c1.508,0.941,1.962,2.431,1.962,6.532v3.495h4.408
	h4.407l-0.123-5.105c-0.09-5.073-0.09-5.104-1.117-7.17c-1.72-3.556-5.101-6.29-8.815-7.14c-0.724-0.183-3.048-0.334-5.16-0.334
	H108.2V4.902L108.2,4.902z"/>
    <path fill="#0F3B5A" d="M1.639,33.919v6.228h4.378h4.378v-6.228V27.69H6.017H1.639V33.919z"/>
    <path fill="#0F3B5A" d="M118.464,33.919v6.228h4.376h4.379v-6.228V27.69h-4.379h-4.378v6.229H118.464z"/>
    <path fill="#0F3B5A" d="M118.464,54.124v6.382h4.376h4.379v-6.38v-6.381h-4.379h-4.378v6.379H118.464z"/>
    <path fill="#0F3B5A" d="M118.464,74.181v6.378h4.376h4.379v-6.378v-6.382h-4.379h-4.378v6.382H118.464z"/>
    <path fill="#0F3B5A" d="M118.464,94.383v6.231h4.376h4.379v-6.231v-6.229h-4.379h-4.378v6.229H118.464z"/>
    <path fill="#0F3B5A" d="M118.464,111.762c0,2.918-0.121,3.769-0.605,4.802c-0.934,1.975-1.747,2.278-6.004,2.278h-3.657v4.559v4.556
	h3.865c2.111,0,4.438-0.15,5.163-0.332c3.714-0.853,7.095-3.586,8.813-7.144c1.029-2.064,1.029-2.098,1.118-7.167l0.121-5.105
	h-4.407h-4.408L118.464,111.762L118.464,111.762z"/>
    <path fill="#0F3B5A" d="M88.276,123.4v4.558h6.189h6.186V123.4v-4.558h-6.186h-6.189V123.4z"/>
    <path fill="#0F3B5A" d="M80.159,123.703v-4.559l-6.28,0.061l-6.249,0.091l-0.092,4.497l-0.09,4.468h6.371h6.338v-4.558H80.159
	L80.159,123.703z"/>
    <path fill="#0F3B5A"
          d="M60.174,123.793l-0.091-4.497l-6.278-0.091l-6.25-0.061v4.559v4.556h6.34h6.369L60.174,123.793z"/>
    <path fill="#0F3B5A" d="M40.008,123.703v-4.559H33.82h-6.188v4.559v4.556h6.188h6.188V123.703z"/>
    <path fill="#0F3B5A" d="M20.084,123.703v-4.559h-3.652c-3.17,0-3.805-0.091-4.65-0.607c-1.509-0.943-1.963-2.431-1.963-6.533v-3.494
	H5.413H1.006l0.121,5.105c0.091,5.073,0.091,5.104,1.118,7.168c1.719,3.557,5.101,6.292,8.813,7.143
	c0.726,0.182,3.048,0.333,5.162,0.333h3.866v-4.556H20.084L20.084,123.703z"/>
    <path fill="#0F3B5A" d="M9.82,94.685v-6.229H5.445H1.067v6.229v6.23h4.378h4.378v-6.23H9.82z"/>
    <path fill="#0F3B5A" d="M9.82,74.481V68.1H5.445H1.067v6.382v6.38h4.378h4.378v-6.38H9.82z"/>
    <path fill="#0F3B5A" d="M9.82,54.426v-6.381H5.445H1.067v6.381v6.378h4.378h4.378v-6.378H9.82z"/>
    <path fill="#0E3A5A" d="M80.064,66.138H67.887v11.716h-6.089V66.138H49.616v-5.859h12.181V48.565h6.087v11.713h12.181
	 M64.841,33.919c-16.816,0-30.448,13.111-30.448,29.29l0,0c0,16.174,13.632,29.288,30.448,29.288l0,0
	c16.817,0,30.449-13.114,30.449-29.288l0,0C95.29,47.03,81.658,33.919,64.841,33.919L64.841,33.919z"/>
</svg>
