<?xml version="1.0" encoding="utf-8"?>
<svg xmlns="http://www.w3.org/2000/svg" width="128" height="128">
    <path fill="#FBBC04" d="M109.723,25.115L68.117,7.863c-2.162-0.896-4.586-0.927-6.77-0.086L18.393,24.279
	c-3.524,1.356-5.849,4.742-5.849,8.517v32.937c0,12.8,9.391,36.052,46.154,54.272c2.396,1.188,5.194,1.253,7.644,0.18
	c37.285-16.368,49.021-42.82,49.021-56.047V33.537C115.355,29.849,113.131,26.526,109.723,25.115L109.723,25.115z M68.725,62.449
	v26.348c0,2.639-2.137,4.775-4.776,4.775c-2.64,0-4.776-2.137-4.776-4.775V62.449c-5.004-1.918-8.555-6.76-8.555-12.438
	c0-7.368,5.972-13.34,13.34-13.34c7.368,0,13.341,5.972,13.341,13.34C77.289,55.688,73.729,60.531,68.725,62.449L68.725,62.449z"/>
</svg>
