<?xml version="1.0" encoding="UTF-8" standalone="no"?><svg   xmlns:dc="http://purl.org/dc/elements/1.1/"   xmlns:cc="http://creativecommons.org/ns#"   xmlns:rdf="http://www.w3.org/1999/02/22-rdf-syntax-ns#"   xmlns:svg="http://www.w3.org/2000/svg"   xmlns="http://www.w3.org/2000/svg"   xmlns:sodipodi="http://sodipodi.sourceforge.net/DTD/sodipodi-0.dtd"   xmlns:inkscape="http://www.inkscape.org/namespaces/inkscape"   inkscape:version="1.0 (4035a4fb49, 2020-05-01)"   sodipodi:docname="bookmark.svg"   id="svg4"   version="1.1"   viewBox="0 0 24 24"   height="24"   width="24">  <metadata     id="metadata10">    <rdf:RDF>      <cc:Work         rdf:about="">        <dc:format>image/svg+xml</dc:format>        <dc:type           rdf:resource="http://purl.org/dc/dcmitype/StillImage" />      </cc:Work>    </rdf:RDF>  </metadata>  <defs     id="defs8" />  <sodipodi:namedview     inkscape:current-layer="svg4"     inkscape:window-maximized="0"     inkscape:window-y="0"     inkscape:window-x="0"     inkscape:cy="12"     inkscape:cx="12"     inkscape:zoom="42"     showgrid="false"     id="namedview6"     inkscape:window-height="1318"     inkscape:window-width="2379"     inkscape:pageshadow="2"     inkscape:pageopacity="0"     guidetolerance="10"     gridtolerance="10"     objecttolerance="10"     borderopacity="1"     bordercolor="#666666"     pagecolor="#ffffff" />  <path     style="fill:#0e3a5a;fill-opacity:1"     id="path2"     d="M5 3.75C5 2.784 5.784 2 6.75 2h10.5c.966 0 1.75.784 1.75 1.75v17.5a.75.75 0 01-1.218.586L12 17.21l-5.781 4.625A.75.75 0 015 21.25V3.75zm1.75-.25a.25.25 0 00-.25.25v15.94l5.031-4.026a.75.75 0 01.938 0L17.5 19.69V3.75a.25.25 0 00-.25-.25H6.75z"     fill-rule="evenodd" /></svg>