<?xml version="1.0" encoding="utf-8"?>
<svg xmlns="http://www.w3.org/2000/svg" width="24" height="24">
    <path d="M-101.333,23C-107.777,23-113,28.223-113,34.667c0,6.443,5.224,11.667,11.667,11.667c6.444,0,11.667-5.224,11.667-11.667
	C-89.666,28.223-94.89,23-101.333,23z M-101.333,41.667c-1.931,0-3.661-0.805-4.927-2.073l-2.073,2.073v-5.833h5.833l-2.116,2.116
	c0.841,0.848,1.995,1.384,3.283,1.384c1.72,0,3.208-0.945,4.019-2.334h2.573C-95.706,39.715-98.293,41.667-101.333,41.667z
	 M-94.333,33.5h-5.833l2.116-2.116c-0.841-0.849-1.995-1.384-3.283-1.384c-1.72,0-3.208,0.945-4.018,2.333h-2.574
	c0.964-2.715,3.552-4.667,6.592-4.667c1.931,0,3.662,0.806,4.927,2.073l2.073-2.073V33.5z"/>
    <path fill="#DAAA0A" d="M12,1.937C6.443,1.937,1.938,6.442,1.938,12c0,5.559,4.506,10.063,10.063,10.063
	c5.559,0,10.063-4.504,10.063-10.063C22.063,6.442,17.559,1.937,12,1.937z M12,18.037c-1.666,0-3.158-0.695-4.25-1.789l-1.787,1.789
	v-5.029h5.031l-1.826,1.824c0.726,0.73,1.721,1.193,2.832,1.193c1.484,0,2.768-0.816,3.465-2.014h2.221
	C16.854,16.352,14.621,18.037,12,18.037z M18.037,10.994h-5.029l1.824-1.826C14.105,8.436,13.111,7.974,12,7.974
	c-1.483,0-2.768,0.816-3.466,2.014h-2.22C7.146,7.645,9.377,5.961,12,5.961c1.664,0,3.158,0.694,4.25,1.788l1.787-1.788V10.994z"/>
</svg>
