<?xml version="1.0" encoding="utf-8"?>
<svg xmlns="http://www.w3.org/2000/svg" width="16" height="16">
    <path fill="#0F3B5A" d="M1.448,9.916v2.823c0,1.56,2.95,2.823,6.588,2.823c3.638,0,6.588-1.265,6.588-2.823V9.916
	c0,1.561-2.95,2.823-6.588,2.823C4.398,12.739,1.448,11.477,1.448,9.916z"/>
    <path fill="#0F3B5A" d="M1.448,5.21v2.824c0,1.559,2.95,2.823,6.588,2.823c3.638,0,6.588-1.265,6.588-2.823V5.21
	c0,1.56-2.95,2.824-6.588,2.824C4.398,8.034,1.448,6.77,1.448,5.21z"/>
    <path fill="#0F3B5A" d="M14.625,3.328c0,1.56-2.95,2.823-6.588,2.823c-3.639,0-6.588-1.264-6.588-2.823s2.95-2.823,6.588-2.823
	C11.675,0.504,14.625,1.769,14.625,3.328z"/>
</svg>
