<?xml version="1.0" encoding="UTF-8" standalone="no"?>
<svg
    xmlns="http://www.w3.org/2000/svg"
    enable-background="new 0 0 16 16"
    viewBox="0 0 16 16"
    y="0px"
    x="0px"
    height="16px"
    width="16px"
    version="1.1">
  <polygon
      points="11.8,16 16,11.8 15,10.9 11.8,14.1 10.8,13 9.8,14 "
      style="fill:#0e3a5a"/>
  <path
      d="M 11.126297,0.3753325 C 10.957127,0.3746702 10.790833,0.3818114 10.62809,0.395997 9.3261322,0.50945736 8.2252182,1.0277456
      7.5068049,1.3658621 6.7525399,1.7208525 5.8022572,2.2791259 4.8017553,2.5232455 3.8012535,2.7673653 2.8429866,2.7307737
      1.8974268,1.9243157 A 0.81684822,0.94207834 0 1 0 0.92604067,3.4390474 C 2.3037573,4.6140816 3.8620607,4.6782552 5.1399476,4.3664544
      6.4178422,4.0546519 7.507764,3.4003342 8.1240434,3.1102868 8.8320213,2.7770815 9.7582516,2.3611161 10.751169,2.274588 c
      0.992913,-0.086529 2.026644,0.1172861 3.111102,1.1009151 a 0.81684822,0.94207834 0 1 0 1.009788,-1.480766 C 13.635549,0.77318979
      12.31047,0.3800842 11.126297,0.3753342 Z m 0,3.7679373 C 10.957127,4.142627 10.790833,4.149734 10.62809,4.163932 9.3261322,4.2773928
      8.2252182,4.7956808 7.5068049,5.1337977 6.7525399,5.488788 5.8022572,6.0470602 4.8017553,6.2911808 3.8012535,6.5352999
      2.8429866,6.4987092 1.8974268,5.6922524 A 0.81684822,0.94207834 0 1 0 0.92604067,7.2069859 C 2.3037573,8.3820183 3.8620607,8.4461957
      5.1399476,8.1343924 6.4178422,7.8225899 7.507764,7.1682712 8.1240434,6.8782251 8.8320213,6.5450182 9.7582516,6.1290541
      10.751169,6.0425257 c 0.992913,-0.086529 2.026644,0.1172866 3.111102,1.1009154 A 0.81684822,0.94207834 0 1 0 14.872059,5.6626753
      C 13.635549,4.5411277 12.31047,4.1480222 11.126297,4.1432727 Z m 0,3.7679346 c -0.16917,-6.428e-4 -0.335464,0.0065 -0.498207,0.020664
      C 9.3261322,8.0453288 8.2252182,8.5636168 7.5068049,8.9017329 6.7525399,9.2567211 5.8022572,9.8149939 4.8017553,10.059114
      3.8012535,10.303234 2.8429866,10.266644 1.8974268,9.460184 a 0.81684822,0.94207834 0 1 0 -0.97138613,1.514733 c 1.37771663,1.175035
      2.93602003,1.23921 4.21390693,0.927407 1.2778946,-0.311802 2.3678164,-0.96612 2.9840958,-1.256168 0.7079779,-0.333206
      1.6342082,-0.7491703 2.6271256,-0.8356987 0.992913,-0.08653 2.026644,0.1172866 3.111102,1.1009157 A 0.81684822,0.94207834
      0 1 0 14.872059,9.4306069 C 13.635549,8.3090598 12.31047,7.9159543 11.126297,7.9112044 Z"
      style="fill:#53c3c4;fill-opacity:1;stroke-width:0.74238974"
  />
</svg>
