<?xml version="1.0" encoding="utf-8"?>
<!-- Generator: Adobe Illustrator 18.0.0, SVG Export Plug-In . SVG Version: 6.00 Build 0)  -->
<!DOCTYPE svg PUBLIC "-//W3C//DTD SVG 1.1//EN" "http://www.w3.org/Graphics/SVG/1.1/DTD/svg11.dtd">
<svg
    xmlns="http://www.w3.org/2000/svg"
    enable-background="new 0 0 16 16"
    viewBox="0 0 16 16"
    y="0px"
    x="0px"
    height="16px"
    width="16px"
    version="1.1">
<g >
	<g >
		<rect fill="none" width="16" height="16"/>
	</g>
</g>
  <g >
	<g>
		<rect x="1.9" y="3.5" fill="#FFFFFF" width="1.9" height="1.9"/>
    <rect x="1.9" y="10.6" fill="#FFFFFF" width="1.9" height="1.9"/>
    <polygon fill="#0E3A5A" points="11,3.8 8.6,3.8 8.4,3.8 8.4,5.1 8.6,5.1 11,5.1 16,5.1 16,3.8 		"/>
    <polygon fill="#0E3A5A" points="8.6,10.9 8.4,10.9 8.4,12.2 8.6,12.2 11,12.2 16,12.2 16,10.9 11,10.9 		"/>
    <path fill="#0E3A5A" d="M0,7.2h5.6V1.7H0V7.2z M1.9,3.5h1.9v1.9H1.9V3.5z"/>
    <path fill="#0E3A5A" d="M0,14.3h5.6V8.8H0V14.3z M1.9,10.6h1.9v1.9H1.9V10.6z"/>
	</g>
</g>
</svg>
