<?xml version="1.0" encoding="UTF-8" standalone="no"?>
<svg
   xmlns:dc="http://purl.org/dc/elements/1.1/"
   xmlns:cc="http://creativecommons.org/ns#"
   xmlns:rdf="http://www.w3.org/1999/02/22-rdf-syntax-ns#"
   xmlns:svg="http://www.w3.org/2000/svg"
   xmlns="http://www.w3.org/2000/svg"
   xmlns:sodipodi="http://sodipodi.sourceforge.net/DTD/sodipodi-0.dtd"
   xmlns:inkscape="http://www.inkscape.org/namespaces/inkscape"
   width="24"
   height="24"
   viewBox="0 0 24 24"
   version="1.1"
   id="svg4"
   sodipodi:docname="copy-rows.svg"
   inkscape:version="1.0 (4035a4fb49, 2020-05-01)">
  <metadata
     id="metadata10">
    <rdf:RDF>
      <cc:Work
         rdf:about="">
        <dc:format>image/svg+xml</dc:format>
        <dc:type
           rdf:resource="http://purl.org/dc/dcmitype/StillImage" />
        <dc:title />
      </cc:Work>
    </rdf:RDF>
  </metadata>
  <defs
     id="defs8">
    <marker
       inkscape:stockid="Arrow1Lstart"
       orient="auto"
       refY="0.0"
       refX="0.0"
       id="Arrow1Lstart"
       style="overflow:visible"
       inkscape:isstock="true">
      <path
         id="path880"
         d="M 0.0,0.0 L 5.0,-5.0 L -12.5,0.0 L 5.0,5.0 L 0.0,0.0 z "
         style="fill-rule:evenodd;stroke:#000000;stroke-width:1.0pt"
         transform="scale(0.8) translate(12.5,0)" />
    </marker>
    <clipPath
       clipPathUnits="userSpaceOnUse"
       id="clipPath837">
      <g
         inkscape:label="Clip"
         id="use839">
        <path
           style="fill:#0e3a5a;fill-opacity:1;stroke-width:1.09656"
           id="path843"
           d="M 3.9642856,2.2142858 A 1.9166665,1.9212962 0 0 0 2.0476191,4.135582 v 10.429894 c 0,1.060555 0.8586666,1.921296 1.9166665,1.921296 h 1.6428573 a 0.82142878,0.82341292 0 0 0 0,-1.646825 H 3.9642856 A 0.27380952,0.2744709 0 0 1 3.6904762,14.565476 V 4.135582 A 0.27380952,0.2744709 0 0 1 3.9642856,3.8611111 H 14.369048 a 0.27380952,0.2744709 0 0 1 0.273809,0.2744709 v 1.6468255 a 0.82142878,0.82341292 0 0 0 1.642857,0 V 4.135582 A 1.9166665,1.9212962 0 0 0 14.369048,2.2142858 Z M 9.4404761,7.7037037 A 1.9166665,1.9212962 0 0 0 7.5238096,9.625 v 10.429894 c 0,1.060556 0.8586666,1.921296 1.9166665,1.921296 H 19.845237 a 1.9166665,1.9212962 0 0 0 1.916668,-1.921296 V 9.625 A 1.9166665,1.9212962 0 0 0 19.845237,7.7037037 Z M 9.1666667,9.625 A 0.27380952,0.2744709 0 0 1 9.4404761,9.3505291 H 19.845237 A 0.27380952,0.2744709 0 0 1 20.119048,9.625 v 10.429894 a 0.27380952,0.2744709 0 0 1 -0.273811,0.274471 H 9.4404761 A 0.27380952,0.2744709 0 0 1 9.1666667,20.054894 Z"
           fill-rule="evenodd" />
      </g>
    </clipPath>
  </defs>
  <sodipodi:namedview
     inkscape:document-rotation="0"
     pagecolor="#ffffff"
     bordercolor="#666666"
     borderopacity="1"
     objecttolerance="10"
     gridtolerance="10"
     guidetolerance="10"
     inkscape:pageopacity="0"
     inkscape:pageshadow="2"
     inkscape:window-width="1440"
     inkscape:window-height="1198"
     id="namedview6"
     showgrid="false"
     inkscape:zoom="42"
     inkscape:cx="12"
     inkscape:cy="12"
     inkscape:window-x="190"
     inkscape:window-y="33"
     inkscape:window-maximized="0"
     inkscape:current-layer="svg4" />
  <rect
     style="fill:#ffffff;fill-opacity:1;stroke:#0e3a5a;stroke-width:1.9;stroke-linecap:round;stroke-linejoin:round;stroke-miterlimit:4;stroke-dasharray:none;stroke-opacity:1;paint-order:stroke fill markers"
     id="rect878"
     width="13.765663"
     height="13.580059"
     x="3.0556991"
     y="3.0556991"
     ry="0.68624026" />
  <rect
     ry="0.68624026"
     y="7.3642373"
     x="7.178638"
     height="13.580059"
     width="13.765663"
     id="rect878-4"
     style="fill:#ffffff;fill-opacity:1;stroke:#0e3a5a;stroke-width:1.8;stroke-linecap:round;stroke-linejoin:round;stroke-miterlimit:4;stroke-dasharray:none;stroke-opacity:1;paint-order:stroke fill markers" />
</svg>
