<?xml version="1.0" encoding="utf-8"?>
<!-- Generator: Adobe Illustrator 14.0.0, SVG Export Plug-In . SVG Version: 6.00 Build 43363)  -->
<!DOCTYPE svg PUBLIC "-//W3C//DTD SVG 1.1//EN" "http://www.w3.org/Graphics/SVG/1.1/DTD/svg11.dtd">
<svg version="1.1" id="Layer_1" xmlns="http://www.w3.org/2000/svg" xmlns:xlink="http://www.w3.org/1999/xlink" x="0px" y="0px"
	 width="24px" height="24px" viewBox="0 0 24 24" enable-background="new 0 0 24 24" xml:space="preserve">
<path fill="#FFFFFF" stroke="#D7D7D7" stroke-width="1.9" stroke-linecap="round" stroke-linejoin="round" d="M3.742,3.056h12.393
	c0.379,0,0.687,0.307,0.687,0.687v12.207c0,0.379-0.308,0.687-0.687,0.687H3.742c-0.379,0-0.686-0.308-0.686-0.687V3.742
	C3.056,3.363,3.363,3.056,3.742,3.056z"/>
<path fill="#FFFFFF" stroke="#D7D7D7" stroke-width="1.8" stroke-linecap="round" stroke-linejoin="round" d="M7.865,7.364h12.393
	c0.379,0,0.687,0.307,0.687,0.686v12.208c0,0.379-0.308,0.687-0.687,0.687H7.865c-0.379,0-0.686-0.308-0.686-0.687V8.05
	C7.179,7.671,7.486,7.364,7.865,7.364z"/>
</svg>
