<?xml version="1.0" encoding="utf-8"?>
<svg 
    version="1.1" 
    xmlns="http://www.w3.org/2000/svg" 
    width="16px" 
    height="16px">
  
    <polygon fill="#FFFFFF" points="11.5,4.5 11.5,1.5 6.4,1.5 6.4,2 6.6,2 8.1,3.5 8.1,3.5 8.1,5 9.6,5 9.6,4.9 11.1,6.5 11.1,12.5 14.5,12.5 14.5,4.5"/>
    <polygon fill="#FFFFFF" points="9.6,14 9.6,12.5 9.6,6.5 6.6,6.5 6.6,3.5 6.4,3.5 4.9,3.5 1.5,3.5 1.5,14.5 9.6,14.5"/>
    <path fill="#0E3A5A" d="M14.5,2.9L14.5,2.9L13,3V1.5h0L11.5,0H4.9v2H0v14h11.1v-2H16V4.5L14.5,2.9z M11.1,12.5v-6L9.6,4.9v0H8.1 V3.5h0L6.6,2H6.4V1.5h5.1v3h3l0,8H11.1z M1.5,3.5h3.4h1.5h0.2v3h3l0,6V14v0.5h-8V3.5z"/>

</svg>
