<?xml version="1.0" encoding="UTF-8" standalone="no"?>
<svg
   xmlns="http://www.w3.org/2000/svg"
   xml:space="preserve"
   enable-background="new 0 0 42 42"
   viewBox="0 0 42 42"
   height="42px"
   width="42px"
   y="0px"
   x="0px"
   id="Layer_1"
   version="1.1"><defs
   id="defs21">

</defs>
<rect
   x="10.276"
   y="17.648001"
   width="6.757"
   height="7.4109998"
   id="rect2"
   style="fill:none" /><rect
   x="10.276"
   y="25.860001"
   width="6.757"
   height="6.75"
   id="rect4"
   style="fill:none" /><rect
   x="17.832001"
   y="17.648001"
   width="7.4120002"
   height="7.4109998"
   id="rect6"
   style="fill:none" /><circle
   cx="33.023998"
   cy="33.740002"
   r="3.5999999"
   id="circle10"
   style="fill:#ffffff" /><polygon
   points="32.575,10.309 10.276,10.309 10.276,16.848 17.032,16.848 17.032,16.839 17.832,16.839 17.832,16.848 25.244,16.848 25.244,16.839 26.044,16.839 26.044,16.848 32.575,16.848 "
   id="polygon12"
   style="fill:#c9e8fb" /><path
   d="m 31.373,25.059 h -5.328 v -7.411 h 6.531 v 6.208 l 1.7,-1.7 V 8.61 h -25.7 v 25.699 h 13.547 l 1.699,-1.699 h -5.99 v -6.75 h 7.412 v 5.328 l 0.8,-0.8 V 25.86 h 4.528 z M 17.032,32.61 h -6.757 v -6.75 h 6.757 z m 0,-7.551 h -6.757 v -7.411 h 6.757 z m 8.212,0 h -7.412 v -7.411 h 7.412 z m 0,-8.22 v 0.009 h -7.412 v -0.009 h -0.8 v 0.009 H 10.275 V 10.31 h 22.3 v 6.538 h -6.531 v -0.009 z"
   id="path14"
   style="fill:#0e3a5a" />
</svg>