<?xml version="1.0" encoding="UTF-8" standalone="no"?>
<svg
   xmlns:svg="http://www.w3.org/2000/svg"
   xmlns="http://www.w3.org/2000/svg"
   enable-background="new 0 0 42 42"
   viewBox="0 0 42 42"
   height="42px"
   width="42px"
   y="0px"
   x="0px"
   version="1.1">
  <path
   d="M 9.875,24.694583 V 17.229167 H 21.009002 32.143 V 24.694583 32.16 H 21.009002 9.875 Z"
   style="fill:#ffffff;stroke-width:0.0532514;stroke-linecap:round;stroke-linejoin:round;fill-opacity:1" /><g
   >
	<rect
   height="6.75"
   width="6.757"
   fill="none"
   y="25.41"
   x="9.843" />
  <rect
   height="7.412"
   width="6.757"
   fill="none"
   y="17.197"
   x="9.843" />
  <rect
   height="6.75"
   width="7.412"
   fill="none"
   y="25.41"
   x="17.4" />
  <rect
   height="7.412"
   width="7.412"
   fill="none"
   y="17.197"
   x="17.4" />
  <rect
   height="7.412"
   width="6.531"
   fill="none"
   y="17.197"
   x="25.612" />
  <rect
   height="6.75"
   width="6.531"
   fill="none"
   y="25.41"
   x="25.612" />
  <polygon
   points="9.843,16.396 16.6,16.396 16.6,16.389 17.4,16.389 17.4,16.396 24.812,16.396 24.812,16.389   25.612,16.389 25.612,16.396 32.143,16.396 32.143,9.859 9.843,9.859  "
   fill="#C9E8FB" />
  <path
   d="M8.143,8.16v25.699h25.7V8.16H8.143z M16.6,32.16H9.843v-6.75H16.6V32.16z M16.6,24.609H9.843v-7.412H16.6   V24.609z M24.812,32.16H17.4v-6.75h7.412V32.16z M24.812,24.609H17.4v-7.412h7.412V24.609z M32.143,32.16h-6.531v-6.75h6.531V32.16   z M32.143,24.609h-6.531v-7.412h6.531V24.609z M32.143,16.396h-6.531v-0.008h-0.8v0.008H17.4v-0.008h-0.8v0.008H9.843V9.859h22.3   V16.396z"
   fill="#0E3A5A" />
</g>
</svg>
