<?xml version="1.0" encoding="utf-8"?>
<!-- Generator: Adobe Illustrator 14.0.0, SVG Export Plug-In . SVG Version: 6.00 Build 43363)  -->
<!DOCTYPE svg PUBLIC "-//W3C//DTD SVG 1.1//EN" "http://www.w3.org/Graphics/SVG/1.1/DTD/svg11.dtd">
<svg version="1.1" id="Layer_1" xmlns="http://www.w3.org/2000/svg" xmlns:xlink="http://www.w3.org/1999/xlink" x="0px" y="0px"
	 width="16px" height="16px" viewBox="0 0 16 16" enable-background="new 0 0 16 16" xml:space="preserve">
<path fill="#FE9C04" d="M1.448,9.916v2.823c0,1.56,2.95,2.823,6.588,2.823c3.638,0,6.588-1.264,6.588-2.823V9.916
	c0,1.56-2.95,2.823-6.588,2.823C4.398,12.739,1.448,11.476,1.448,9.916z"/>
<path fill="#FE9C04" d="M1.448,5.21v2.824c0,1.559,2.95,2.824,6.588,2.824c3.638,0,6.588-1.265,6.588-2.824V5.21
	c0,1.56-2.95,2.824-6.588,2.824C4.398,8.034,1.448,6.77,1.448,5.21z"/>
<path fill="#FE9C04" d="M14.625,3.328c0,1.56-2.95,2.823-6.588,2.823c-3.639,0-6.588-1.264-6.588-2.823
	c0-1.559,2.95-2.823,6.588-2.823C11.675,0.504,14.625,1.769,14.625,3.328z"/>
</svg>
