<?xml version="1.0" encoding="UTF-8" standalone="no"?>
<svg
   xmlns:dc="http://purl.org/dc/elements/1.1/"
   xmlns:cc="http://creativecommons.org/ns#"
   xmlns:rdf="http://www.w3.org/1999/02/22-rdf-syntax-ns#"
   xmlns:svg="http://www.w3.org/2000/svg"
   xmlns="http://www.w3.org/2000/svg"
   xmlns:sodipodi="http://sodipodi.sourceforge.net/DTD/sodipodi-0.dtd"
   xmlns:inkscape="http://www.inkscape.org/namespaces/inkscape"
   inkscape:version="1.0 (4035a4fb49, 2020-05-01)"
   sodipodi:docname="data.svg"
   xml:space="preserve"
   enable-background="new 0 0 42 42"
   viewBox="0 0 42 42"
   height="42px"
   width="42px"
   y="0px"
   x="0px"
   id="Layer_1"
   version="1.1"><metadata
   id="metadata25"><rdf:RDF><cc:Work
       rdf:about=""><dc:format>image/svg+xml</dc:format><dc:type
         rdf:resource="http://purl.org/dc/dcmitype/StillImage" /></cc:Work></rdf:RDF></metadata><defs
   id="defs23" /><sodipodi:namedview
   inkscape:current-layer="Layer_1"
   inkscape:window-maximized="0"
   inkscape:window-y="0"
   inkscape:window-x="0"
   inkscape:cy="21"
   inkscape:cx="21"
   inkscape:zoom="24"
   showgrid="false"
   id="namedview21"
   inkscape:window-height="1208"
   inkscape:window-width="2597"
   inkscape:pageshadow="2"
   inkscape:pageopacity="0"
   guidetolerance="10"
   gridtolerance="10"
   objecttolerance="10"
   borderopacity="1"
   bordercolor="#666666"
   pagecolor="#ffffff" />
<path
   id="path850"
   d="M 9.875,24.694583 V 17.229167 H 21.009002 32.143 V 24.694583 32.16 H 21.009002 9.875 Z"
   style="fill:#ffffff;stroke-width:0.0532514;stroke-linecap:round;stroke-linejoin:round;fill-opacity:1" /><g
   id="g18">
	<rect
   id="rect2"
   height="6.75"
   width="6.757"
   fill="none"
   y="25.41"
   x="9.843" />
  <rect
   id="rect4"
   height="7.412"
   width="6.757"
   fill="none"
   y="17.197"
   x="9.843" />
  <rect
   id="rect6"
   height="6.75"
   width="7.412"
   fill="none"
   y="25.41"
   x="17.4" />
  <rect
   id="rect8"
   height="7.412"
   width="7.412"
   fill="none"
   y="17.197"
   x="17.4" />
  <rect
   id="rect10"
   height="7.412"
   width="6.531"
   fill="none"
   y="17.197"
   x="25.612" />
  <rect
   id="rect12"
   height="6.75"
   width="6.531"
   fill="none"
   y="25.41"
   x="25.612" />
  <polygon
   id="polygon14"
   points="9.843,16.396 16.6,16.396 16.6,16.389 17.4,16.389 17.4,16.396 24.812,16.396 24.812,16.389   25.612,16.389 25.612,16.396 32.143,16.396 32.143,9.859 9.843,9.859  "
   fill="#C9E8FB" />
  <path
   id="path16"
   d="M8.143,8.16v25.699h25.7V8.16H8.143z M16.6,32.16H9.843v-6.75H16.6V32.16z M16.6,24.609H9.843v-7.412H16.6   V24.609z M24.812,32.16H17.4v-6.75h7.412V32.16z M24.812,24.609H17.4v-7.412h7.412V24.609z M32.143,32.16h-6.531v-6.75h6.531V32.16   z M32.143,24.609h-6.531v-7.412h6.531V24.609z M32.143,16.396h-6.531v-0.008h-0.8v0.008H17.4v-0.008h-0.8v0.008H9.843V9.859h22.3   V16.396z"
   fill="#0E3A5A" />
</g>
</svg>
