<?xml version="1.0" encoding="UTF-8" standalone="no"?>
<svg
   xmlns:svg="http://www.w3.org/2000/svg"
   xmlns="http://www.w3.org/2000/svg"
   width="16"
   height="16"
   fill="currentColor"
   class="bi bi-bug-fill"
   viewBox="0 0 16 16"
   version="1.1"


   >
  <path
     fill-rule="evenodd"
     d="M 5.4987981,1.9214835 A 0.4138322,0.41959118 0 1 0 4.707551,2.1648463 L 5.0468934,3.2994209 A 4.125907,4.1833239 0 0 0 3.861678,6.2390766 h 8.276644 A 4.125907,4.1833239 0 0 0 10.953106,3.2994209 L 11.292448,2.1648463 A 0.4138322,0.41959118 0 1 0 10.501201,1.9214835 L 10.260352,2.7237418 A 4.1201133,4.1774498 0 0 0 8,2.0431649 4.1209411,4.1782889 0 0 0 5.7396485,2.7237418 L 5.4996259,1.9214835 Z M 12.138322,6.2390766 V 7.078259 H 8.4138321 v 7.531662 a 4.138322,4.1959118 0 0 0 3.7244899,-4.174933 h 0.413832 a 0.4138322,0.41959118 0 0 1 0.413831,0.419591 v 0.419591 a 0.41383253,0.41959153 0 1 0 0.827665,0 V 10.854579 A 1.2414966,1.2587735 0 0 0 12.552154,9.5958061 H 12.138322 V 8.7566237 h 1.241496 a 0.4138322,0.41959118 0 0 0 0,-0.8391823 H 12.138322 V 7.078259 h 0.413832 A 1.2414966,1.2587735 0 0 0 13.79365,5.8194855 V 5.3998943 a 0.41383253,0.41959153 0 0 0 -0.827665,0 V 5.8194855 A 0.4138322,0.41959118 0 0 1 12.552154,6.2390766 Z M 7.5861678,14.609921 V 7.078259 H 3.861678 V 6.2390766 H 3.4478458 A 0.4138322,0.41959118 0 0 1 3.0340136,5.8194855 V 5.3998943 a 0.4138322,0.41959118 0 0 0 -0.8276644,0 V 5.8194855 A 1.2414966,1.2587735 0 0 0 3.4478458,7.078259 H 3.861678 V 7.9174414 H 2.6201814 a 0.4138322,0.41959118 0 0 0 0,0.8391823 H 3.861678 V 9.5958061 H 3.4478458 A 1.2414966,1.2587735 0 0 0 2.2063492,10.854579 v 0.419591 a 0.4138322,0.41959118 0 1 0 0.8276644,0 V 10.854579 A 0.4138322,0.41959118 0 0 1 3.4478458,10.434988 H 3.861678 a 4.138322,4.1959118 0 0 0 3.7244898,4.174933 z"

     style="fill:#0e3a5a;fill-opacity:1;stroke-width:0.833403" />
</svg>
