<?xml version="1.0" encoding="UTF-8" standalone="no"?>
<svg
   xmlns:dc="http://purl.org/dc/elements/1.1/"
   xmlns:cc="http://creativecommons.org/ns#"
   xmlns:rdf="http://www.w3.org/1999/02/22-rdf-syntax-ns#"
   xmlns:svg="http://www.w3.org/2000/svg"
   xmlns="http://www.w3.org/2000/svg"
   xmlns:sodipodi="http://sodipodi.sourceforge.net/DTD/sodipodi-0.dtd"
   xmlns:inkscape="http://www.inkscape.org/namespaces/inkscape"
   inkscape:version="1.0 (4035a4fb49, 2020-05-01)"
   sodipodi:docname="debug.svg"
   id="svg4"
   version="1.1"
   viewBox="0 0 16 16"
   class="bi bi-bug-fill"
   fill="currentColor"
   height="16"
   width="16">
  <metadata
     id="metadata10">
    <rdf:RDF>
      <cc:Work
         rdf:about="">
        <dc:format>image/svg+xml</dc:format>
        <dc:type
           rdf:resource="http://purl.org/dc/dcmitype/StillImage" />
      </cc:Work>
    </rdf:RDF>
  </metadata>
  <defs
     id="defs8" />
  <sodipodi:namedview
     inkscape:current-layer="svg4"
     inkscape:window-maximized="0"
     inkscape:window-y="0"
     inkscape:window-x="0"
     inkscape:cy="8"
     inkscape:cx="8"
     inkscape:zoom="63"
     showgrid="false"
     id="namedview6"
     inkscape:window-height="1323"
     inkscape:window-width="2404"
     inkscape:pageshadow="2"
     inkscape:pageopacity="0"
     guidetolerance="10"
     gridtolerance="10"
     objecttolerance="10"
     borderopacity="1"
     bordercolor="#666666"
     pagecolor="#ffffff" />
  <path
     style="fill:#0e3a5a;fill-opacity:1"
     id="path2"
     d="M4.978.855a.5.5 0 1 0-.956.29l.41 1.352A4.985 4.985 0 0 0 3 6h10a4.985 4.985 0 0 0-1.432-3.503l.41-1.352a.5.5 0 1 0-.956-.29l-.291.956A4.978 4.978 0 0 0 8 1a4.979 4.979 0 0 0-2.731.811l-.29-.956zM13 6v1H8.5v8.975A5 5 0 0 0 13 11h.5a.5.5 0 0 1 .5.5v.5a.5.5 0 1 0 1 0v-.5a1.5 1.5 0 0 0-1.5-1.5H13V9h1.5a.5.5 0 0 0 0-1H13V7h.5A1.5 1.5 0 0 0 15 5.5V5a.5.5 0 0 0-1 0v.5a.5.5 0 0 1-.5.5H13zm-5.5 9.975V7H3V6h-.5a.5.5 0 0 1-.5-.5V5a.5.5 0 0 0-1 0v.5A1.5 1.5 0 0 0 2.5 7H3v1H1.5a.5.5 0 0 0 0 1H3v1h-.5A1.5 1.5 0 0 0 1 11.5v.5a.5.5 0 1 0 1 0v-.5a.5.5 0 0 1 .5-.5H3a5 5 0 0 0 4.5 4.975z"
     fill-rule="evenodd" />
</svg>
