<?xml version="1.0" encoding="UTF-8" standalone="no"?>
<!-- Generator: Adobe Illustrator 18.0.0, SVG Export Plug-In . SVG Version: 6.00 Build 0)  -->

<svg
   xmlns:dc="http://purl.org/dc/elements/1.1/"
   xmlns:cc="http://creativecommons.org/ns#"
   xmlns:rdf="http://www.w3.org/1999/02/22-rdf-syntax-ns#"
   xmlns="http://www.w3.org/2000/svg"
   xmlns:sodipodi="http://sodipodi.sourceforge.net/DTD/sodipodi-0.dtd"
   xmlns:inkscape="http://www.inkscape.org/namespaces/inkscape"
   version="1.1"
   x="0px"
   y="0px"
   viewBox="0 0 16 16"
   enable-background="new 0 0 16 16"
   xml:space="preserve"
   id="svg21"
   sodipodi:docname="end-script.svg"
   inkscape:version="0.92.5 (2060ec1f9f, 2020-04-08)"><metadata
   id="metadata27"><rdf:RDF><cc:Work
       rdf:about=""><dc:format>image/svg+xml</dc:format><dc:type
         rdf:resource="http://purl.org/dc/dcmitype/StillImage" /><dc:title /></cc:Work></rdf:RDF></metadata><defs
   id="defs25" /><sodipodi:namedview
   pagecolor="#ffffff"
   bordercolor="#666666"
   borderopacity="1"
   objecttolerance="10"
   gridtolerance="10"
   guidetolerance="10"
   inkscape:pageopacity="0"
   inkscape:pageshadow="2"
   inkscape:window-width="640"
   inkscape:window-height="480"
   id="namedview23"
   showgrid="false"
   inkscape:zoom="110.55186"
   inkscape:cx="2.6600603"
   inkscape:cy="6.5445341"
   inkscape:current-layer="svg21" />
<g
   id="Layer_2">
	<g
   id="Layer_2_1_">
		<rect
   fill="none"
   width="16"
   height="16"
   id="rect2" />
	</g>
</g>
  <g
   id="art">
	<g
   id="g18">
		<g
   id="g14">
			<polygon
   fill="#FFFFFF"
   points="3.1,12.3 2.8,2.6 4.8,0.4 14.6,0.8 15.6,2.1 14.6,4.1 12.6,4.1 12.5,14.1 9.7,15.2 2.1,15.7      0.9,14.2 0.9,13.5 2.1,12.6    "
   id="polygon6" />
      <g
   id="g12">
				<path
   fill="#0E3A5A"
   stroke="#3D6380"
   stroke-width="0.75"
   stroke-miterlimit="10"
   d="M3.6,12h-1V3.4c0-1.9,1.2-3.1,3.1-3.1h7.8      c1.1,0,2.1,0.9,2.1,2.1c0,1.1-0.9,2.1-2.1,2.1h-1.2v-1h1.2c0.6,0,1.1-0.5,1.1-1.1c0-0.6-0.5-1.1-1.1-1.1H5.7      c-1.4,0-2.1,0.8-2.1,2.1V12z"
   id="path8" />
        <path
   fill="#0E3A5A"
   stroke="#3D6380"
   stroke-width="0.75"
   stroke-miterlimit="10"
   d="M10.1,15.7H2.4c-1.1,0-2.1-0.9-2.1-2.1      c0-1.1,0.9-2.1,2.1-2.1h3.4v1H2.4c-0.6,0-1.1,0.5-1.1,1.1c0,0.6,0.5,1.1,1.1,1.1h7.6c1.4,0,2.1-0.8,2.1-2.1V3.1h1v9.5      C13.2,14.5,12,15.7,10.1,15.7z"
   id="path10" />
			</g>
		</g>
    <polygon
   fill="#3D6380"
   points="5.5,4.9 10.5,7.3 5.5,9.7   "
   id="polygon16" />
	</g>
</g>
<g
   id="g2120"
   transform="translate(0.55177725,-0.5336862)"><ellipse
     ry="2.0578578"
     rx="1.9628798"
     cy="12.621495"
     cx="11.614459"
     id="path2095"
     style="opacity:1;fill:#ffffff;fill-opacity:1;stroke:none;stroke-width:0.2;stroke-miterlimit:4;stroke-dasharray:none;stroke-opacity:1;paint-order:markers fill stroke" /><g
     transform="matrix(1.1104235,0,0,1.0871764,-1.0767486,-1.0470695)"
     id="g2115"><path
       inkscape:connector-curvature="0"
       style="fill:#ea102a;stroke-width:0.39032403"
       d="m 13.618198,10.496168 c -1.210005,-1.2100045 -3.200657,-1.2100045 -4.4106618,0 -1.2100037,1.210006 -1.2100037,3.200658 0,4.410663 1.2100058,1.210004 3.2006568,1.210004 4.4106618,0 1.210004,-1.210005 1.210004,-3.161625 0,-4.410663 z m -0.780648,2.927431 c 0.03903,0.03903 0.03903,0.117098 0,0.195162 l -0.546454,0.546454 c -0.03903,0.03903 -0.117097,0.03903 -0.195162,0 l -0.702582,-0.741616 -0.702584,0.702584 c -0.03903,0.03903 -0.117098,0.03903 -0.195162,0 L 9.9491532,13.579729 c -0.03903,-0.03903 -0.03903,-0.117097 0,-0.195162 L 10.690769,12.721016 9.9491532,12.018433 c -0.03903,-0.07807 -0.03903,-0.15613 0,-0.195162 l 0.5464538,-0.546455 c 0.03903,-0.03903 0.117097,-0.03903 0.195162,0 l 0.702583,0.741617 0.702582,-0.702584 c 0.03903,-0.03903 0.117097,-0.03903 0.195162,0 l 0.546454,0.546454 c 0.03903,0.03903 0.03903,0.117097 0,0.195162 l -0.741616,0.663551 z"
       id="path4" /></g></g></svg>