<?xml version="1.0" encoding="utf-8"?>
<svg xmlns="http://www.w3.org/2000/svg" width="128" height="128">
<g>
	<path d="M5410.455,2474.953v-2.049c0-2.867-5.121-4.097-9.934-4.097c-4.814,0-9.936,1.331-9.936,4.097v2.049
		c0,1.843,0.717,3.686,2.049,5.017l5.119,5.019c0.311,0.308,0.41,0.615,0.41,1.023v6.555c0,0.408,0.205,0.717,0.615,0.818
		l2.971,0.921c0.512,0.104,1.021-0.204,1.021-0.819v-7.371c0-0.41,0.205-0.718,0.41-1.024l5.225-5.12
		C5409.738,2478.639,5410.455,2476.796,5410.455,2474.953z M5400.521,2474.85c-4.914,0-7.578-1.33-7.682-1.843l0,0
		c0.104-0.512,2.768-1.843,7.682-1.843s7.475,1.331,7.68,1.843C5407.996,2473.52,5405.438,2474.85,5400.521,2474.85z"/>
    <path d="M5405.641,2485.396c-0.613,0-1.023,0.409-1.023,1.024c0,0.614,0.41,1.022,1.023,1.022h4.404
		c0.613,0,1.023-0.408,1.023-1.022c0-0.615-0.41-1.024-1.023-1.024H5405.641z"/>
    <path d="M5410.045,2488.879h-4.402c-0.615,0-1.025,0.409-1.025,1.023s0.41,1.023,1.025,1.023h4.402
		c0.615,0,1.023-0.409,1.023-1.023C5411.068,2489.289,5410.658,2488.879,5410.045,2488.879z"/>
    <path d="M5410.045,2492.258h-4.402c-0.615,0-1.025,0.41-1.025,1.024s0.41,1.023,1.025,1.023h4.402c0.615,0,1.023-0.409,1.023-1.023
		C5411.068,2492.771,5410.658,2492.258,5410.045,2492.258z"/>
</g>
    <path fill="#0E3A5A" d="M15.71,90.982c2.648,0,4.878-2.072,4.878-4.532V39.707c0-9.582,8.36-17.351,18.674-17.351h49.751v6.216
	c0,1.813,0.977,3.367,2.647,4.143c0.837,0.389,1.673,0.647,2.51,0.647c0.978,0,1.95-0.259,2.788-0.777l17.977-10.747
	c1.535-0.906,2.369-2.332,2.369-4.015c0-1.683-0.834-3.106-2.369-4.013l0,0L96.818,3.193c-1.531-0.907-3.623-1.036-5.293-0.129
	c-1.674,0.777-2.649,2.46-2.649,4.144v6.215H39.263c-15.748,0-28.43,11.784-28.43,26.285V86.45
	C10.833,89.039,12.923,90.982,15.71,90.982z"/>
    <path fill="#0E3A5A" d="M112.148,36.859c-2.648,0-4.879,2.072-4.879,4.531v46.744c0,9.581-8.358,17.353-18.672,17.353H38.984V99.27
	c0-1.813-0.975-3.367-2.647-4.143c-1.672-0.777-3.623-0.777-5.296,0.129l-17.978,10.747c-1.533,0.906-2.369,2.331-2.369,4.013
	c0,1.686,0.836,3.108,2.369,4.017l0,0l17.978,10.745c0.836,0.521,1.812,0.777,2.788,0.777c0.836,0,1.672-0.258,2.508-0.647
	c1.673-0.774,2.647-2.46,2.647-4.142v-6.346h49.75c15.609,0,28.433-11.785,28.433-26.417V41.39
	C117.025,38.801,114.938,36.859,112.148,36.859z"/>
    <path fill="#C9E8FB" d="M74.568,39.554l0.104,0.323l5.625,20.887h13.821c2.249-0.002,4.114,1.604,4.282,3.683l0.012,0.303
	c0.003,2.085-1.734,3.813-3.975,3.975l-0.319,0.006H76.943c-1.84,0.002-3.478-1.09-4.065-2.709l-0.099-0.307l-2.865-10.631
	l-10.362,28.85c-1.144,3.186-5.701,3.681-7.642,0.959l-0.182-0.279L42.223,68.73h-8.205c-2.246,0.004-4.114-1.604-4.28-3.684
	l-0.01-0.295c0-2.089,1.726-3.82,3.968-3.977l0.322-0.008h10.734c1.431,0,2.768,0.66,3.562,1.765l0.188,0.286l5.993,10.006
	l11.942-33.238C67.748,35.911,73.301,36.001,74.568,39.554z"/>
</svg>
