<?xml version="1.0" encoding="utf-8"?>
<svg xmlns="http://www.w3.org/2000/svg" height="24" width="24">
    <path d="M21.948 20.469c-.085.373-.23.655-.485.943-.247.279-.481.439-.786.536-.156.05-.49.052-8.677.052s-8.521-.002-8.677-.052c-.339-.108-.69-.365-.914-.669-.138-.188-.318-.598-.369-.839a2.45 2.45 0 0 1 .145-1.376 4302.02 4302.02 0 0 1 8.369-16.252 2.53 2.53 0 0 1 .514-.542 2.24 2.24 0 0 1 .337-.181c.202-.087.22-.09.595-.09s.393.003.596.09c.115.05.279.141.364.204.194.142.448.439.565.66l8.29 16.118a2.34 2.34 0 0 1 .132 1.398z"
          fill="#ea102a"/>
    <path d="M10.444 7.726h2.843v7.719h-2.843zm-.066 9.867h2.976v2.569h-2.976z" fill="#ffffff"/>
</svg>
