<?xml version="1.0" encoding="UTF-8" standalone="no"?>
<!-- Generator: Adobe Illustrator 17.0.0, SVG Export Plug-In . SVG Version: 6.00 Build 0)  -->

<svg
   xmlns:dc="http://purl.org/dc/elements/1.1/"
   xmlns:cc="http://creativecommons.org/ns#"
   xmlns:rdf="http://www.w3.org/1999/02/22-rdf-syntax-ns#"
   xmlns:svg="http://www.w3.org/2000/svg"
   xmlns="http://www.w3.org/2000/svg"
   xmlns:sodipodi="http://sodipodi.sourceforge.net/DTD/sodipodi-0.dtd"
   xmlns:inkscape="http://www.inkscape.org/namespaces/inkscape"
   version="1.1"
   id="Layer_1"
   x="0px"
   y="0px"
   width="42px"
   height="42px"
   viewBox="0 0 42 42"
   enable-background="new 0 0 42 42"
   xml:space="preserve"
   sodipodi:docname="file.svg"
   inkscape:version="0.92.5 (2060ec1f9f, 2020-04-08)"><metadata
   id="metadata21"><rdf:RDF><cc:Work
       rdf:about=""><dc:format>image/svg+xml</dc:format><dc:type
         rdf:resource="http://purl.org/dc/dcmitype/StillImage" /></cc:Work></rdf:RDF></metadata><defs
   id="defs19">
	
  
  
  
  
  
</defs><sodipodi:namedview
   pagecolor="#ffffff"
   bordercolor="#666666"
   borderopacity="1"
   objecttolerance="10"
   gridtolerance="10"
   guidetolerance="10"
   inkscape:pageopacity="0"
   inkscape:pageshadow="2"
   inkscape:window-width="640"
   inkscape:window-height="480"
   id="namedview17"
   showgrid="false"
   inkscape:zoom="41.259173"
   inkscape:cx="13.930412"
   inkscape:cy="21"
   inkscape:current-layer="Layer_1" />
<path
   style="fill:#c9e8fb"
   inkscape:connector-curvature="0"
   id="path4"
   d="M 24.932,13.053 V 8.795 H 11.553 V 33.206 H 23.068 L 29.23,27.044 29.19,13.053 Z m -7.28,11.73 H 14.45 v -0.801 h 3.201 v 0.801 z M 26.353,21.4 H 14.45 v -0.8 h 11.902 v 0.8 z m 0,-3.382 H 14.45 v -0.801 h 11.902 v 0.801 z" /><polygon
   style="fill:#0e3a5a"
   id="polygon6"
   points="26.633,11.354 26.633,8.806 24.922,7.096 9.853,7.096 9.853,34.905 21.369,34.905 23.068,33.206 11.553,33.206 11.553,8.795 24.932,8.795 24.932,13.053 29.19,13.053 29.23,27.044 30.925,25.348 30.89,13.063 29.181,11.354 " />
</svg>