<?xml version="1.0" encoding="UTF-8" standalone="no"?>
<svg
        width="16"
        height="16"
        version="1.1"
        id="svg4"
        xmlns="http://www.w3.org/2000/svg">
    <path
            fill="#0e3a5a"
            d="m 10.040337,7.008269 -6.3629999,3.692 c -0.54,0.313 -1.233,-0.066 -1.233,-0.697 v -7.384 c 0,-0.63 0.692,-1.01 1.233,-0.696 l 6.3629999,3.692 a 0.802,0.802 0 0 1 0,1.393 z"
            id="path2"
            style="fill:#0e3a5a;fill-opacity:1"/>
    <path
            fill="#0e3a5a"
            d="m 13.613945,9.1497224 c -0.07168,-0.089541 -0.189224,-0.089541 -0.261004,0 l -2.170214,2.7004696 -1.117686,-1.400496 c -0.071727,-0.08991 -0.1884353,-0.08991 -0.260636,0 l -0.3916365,0.48701 c -0.071727,0.08891 -0.071727,0.235308 0,0.324691 l 1.6385375,2.052665 c 0.07162,0.08881 0.188383,0.08881 0.260846,0 l 2.693272,-3.3522173 c 0.07262,-0.089593 0.07262,-0.2362012 0,-0.3260573 z"
            id="path2-6"
            style="stroke-width:0.0525475;fill:#0e3a5a;fill-opacity:1"/>
</svg>
