<?xml version="1.0" encoding="UTF-8" standalone="no"?>
<svg
   xmlns:dc="http://purl.org/dc/elements/1.1/"
   xmlns:cc="http://creativecommons.org/ns#"
   xmlns:rdf="http://www.w3.org/1999/02/22-rdf-syntax-ns#"
   xmlns:svg="http://www.w3.org/2000/svg"
   xmlns="http://www.w3.org/2000/svg"
   xmlns:sodipodi="http://sodipodi.sourceforge.net/DTD/sodipodi-0.dtd"
   xmlns:inkscape="http://www.inkscape.org/namespaces/inkscape"
   version="1.1"
   id="Layer_1"
   x="0px"
   y="0px"
   viewBox="0 0 24 24"
   enable-background="new 0 0 24 24"
   xml:space="preserve"
   sodipodi:docname="folder-add.svg"
   inkscape:version="1.0 (4035a4fb49, 2020-05-01)"><metadata
   id="metadata15"><rdf:RDF><cc:Work
       rdf:about=""><dc:format>image/svg+xml</dc:format><dc:type
         rdf:resource="http://purl.org/dc/dcmitype/StillImage" /><dc:title></dc:title></cc:Work></rdf:RDF></metadata><defs
   id="defs13">
	
  
  
</defs><sodipodi:namedview
   inkscape:document-rotation="0"
   pagecolor="#ffffff"
   bordercolor="#666666"
   borderopacity="1"
   objecttolerance="10"
   gridtolerance="10"
   guidetolerance="10"
   inkscape:pageopacity="0"
   inkscape:pageshadow="2"
   inkscape:window-width="3440"
   inkscape:window-height="1387"
   id="namedview11"
   showgrid="false"
   inkscape:zoom="42"
   inkscape:cx="12"
   inkscape:cy="12"
   inkscape:window-x="-8"
   inkscape:window-y="-8"
   inkscape:window-maximized="1"
   inkscape:current-layer="Layer_1" />
<rect
   style="stroke-width:1.46173"
   id="rect2"
   height="13.009402"
   width="21.48744"
   fill="#ffffff"
   y="7.1398373"
   x="1.2893921" /><polygon
   transform="matrix(1.4617307,0,0,1.4617307,-5.5807419,-5.5772194)"
   id="polygon4"
   points="10.5,8.3 9.1,6.9 4.9,6.9 4.9,8.3 "
   fill="#ffffff" /><path
   style="stroke-width:1.46173;fill:#0e3a5a;fill-opacity:1"
   id="path6"
   d="M 11.082988,5.3857608 8.1595267,2.6084725 H 0.12000783 V 21.464799 H 23.946218 V 5.3857608 Z M 2.3126039,19.272202 V 7.5783569 H 21.753622 V 19.272202 Z m 0,-12.8632297 V 4.6548955 h 5.1160574 l 1.6079038,1.7540768 z"
   fill="#3e6481" />
<path
   fill-rule="evenodd"
   d="m 11.642856,9.4999997 a 0.88095231,0.78571423 0 0 1 0.880954,0.7857133 v 2.357143 h 2.642856 a 0.8809535,0.78571529 0 0 1 0,1.57143 H 12.52381 v 2.357143 a 0.880953,0.78571485 0 0 1 -1.761906,0 V 14.214286 H 8.1190483 a 0.8809535,0.78571529 0 0 1 0,-1.57143 h 2.6428557 v -2.357143 a 0.88095231,0.78571423 0 0 1 0.880952,-0.7857133 z"
   id="path4"
   style="fill:#0e3a5a;fill-opacity:1;stroke-width:1.66395" /></svg>
