<?xml version="1.0" encoding="UTF-8" standalone="no"?>
<!-- Generator: Adobe Illustrator 18.0.0, SVG Export Plug-In . SVG Version: 6.00 Build 0)  -->

<svg
   xmlns:dc="http://purl.org/dc/elements/1.1/"
   xmlns:cc="http://creativecommons.org/ns#"
   xmlns:rdf="http://www.w3.org/1999/02/22-rdf-syntax-ns#"
   xmlns:svg="http://www.w3.org/2000/svg"
   xmlns="http://www.w3.org/2000/svg"
   xmlns:sodipodi="http://sodipodi.sourceforge.net/DTD/sodipodi-0.dtd"
   xmlns:inkscape="http://www.inkscape.org/namespaces/inkscape"
   version="1.1"
   id="Layer_1"
   x="0px"
   y="0px"
   viewBox="0 0 24 24"
   enable-background="new 0 0 24 24"
   xml:space="preserve"
   inkscape:version="0.91 r13725"
   sodipodi:docname="folder-add.svg"><metadata
     id="metadata15"><rdf:RDF><cc:Work
         rdf:about=""><dc:format>image/svg+xml</dc:format><dc:type
           rdf:resource="http://purl.org/dc/dcmitype/StillImage" /><dc:title></dc:title></cc:Work></rdf:RDF></metadata><defs
     id="defs13" /><sodipodi:namedview
     pagecolor="#ffffff"
     bordercolor="#666666"
     borderopacity="1"
     objecttolerance="10"
     gridtolerance="10"
     guidetolerance="10"
     inkscape:pageopacity="0"
     inkscape:pageshadow="2"
     inkscape:window-width="1151"
     inkscape:window-height="1355"
     id="namedview11"
     showgrid="false"
     inkscape:zoom="9.8333333"
     inkscape:cx="12"
     inkscape:cy="12"
     inkscape:window-x="0"
     inkscape:window-y="0"
     inkscape:window-maximized="0"
     inkscape:current-layer="Layer_1" /><g
     transform="matrix(0.26379294,0,0,0.26379294,14.796262,14.796262)"
     id="art"><polygon
       id="polygon6"
       points="13.8,13.8 0,13.8 0,18.2 13.8,18.2 13.8,32 18.2,32 18.2,18.2 32,18.2 32,13.8 18.2,13.8 18.2,0 13.8,0 "
       style="fill:#3d6380" /></g><path
     style="opacity:1;fill:#000000;fill-opacity:1;fill-rule:nonzero"
     d="m 1.3220339,11.308475 0,-6.4067801 2.7004202,0 2.7004202,0 0.9956145,0.966102 0.9956145,0.966101 4.3887107,0 4.388711,0 0,5.4406781 0,5.440678 -8.0847453,0 -8.0847458,0 0,-6.406779 z m 14.7457631,0.966101 0,-4.0169491 -6.6610173,0 -6.661017,0 0,4.0169491 0,4.01695 6.661017,0 6.6610173,0 0,-4.01695 z M 6.8899787,6.9101699 6.3298918,6.2745759 l -1.7920645,-0.02777 -1.7920646,-0.02777 0,0.663364 0,0.663363 2.3521514,0 2.3521514,0 -0.5600868,-0.635593 z"
     id="path4151"
     inkscape:connector-curvature="0" /></svg>