<?xml version="1.0" encoding="UTF-8" standalone="no"?>
<svg
   width="24"
   height="24"
   version="1.1"
   xmlns="http://www.w3.org/2000/svg">
  <path
     style="fill:#0e3a5a;fill-opacity:1"
     d="m 10,3 a -9,9 0 0 1 9,9 h 3 L 18.11,15.89 18.04,16.03 14,12 h 3 a -7,7 0 0 0 -7,-7 -7,7 0 0 0 -7,7 -7,7 0 0 0 7,7 c 1.93,0 3.68,-0.79 4.94,-2.06 l 1.42,1.42 C 14.73,20 12.5,21 10,21 A -9,9 0 0 1 1,12 -9,9 0 0 1 10,3 Z"
     id="path2" />
  <path
     d="m 8.44549,5.6567483 h 2.843 v 7.7189997 h -2.843 z m -0.066,9.8679997 h 2.976 v 2.569 h -2.976 z"
     fill="#ffffff"
     id="path4"
     style="fill:#ea102a;fill-opacity:1" />
</svg>
