<?xml version="1.0" encoding="UTF-8" standalone="no"?>
<!-- Svg Vector Icons : http://www.onlinewebfonts.com/icon -->

<svg
   xmlns:dc="http://purl.org/dc/elements/1.1/"
   xmlns:cc="http://creativecommons.org/ns#"
   xmlns:rdf="http://www.w3.org/1999/02/22-rdf-syntax-ns#"
   xmlns:svg="http://www.w3.org/2000/svg"
   xmlns="http://www.w3.org/2000/svg"
   xmlns:sodipodi="http://sodipodi.sourceforge.net/DTD/sodipodi-0.dtd"
   xmlns:inkscape="http://www.inkscape.org/namespaces/inkscape"
   version="1.1"
   x="0px"
   y="0px"
   viewBox="0 0 1000 1000"
   enable-background="new 0 0 1000 1000"
   xml:space="preserve"
   id="svg2"
   inkscape:version="0.91 r13725"
   sodipodi:docname="Function.svg"><defs
     id="defs16" /><sodipodi:namedview
     pagecolor="#ffffff"
     bordercolor="#666666"
     borderopacity="1"
     objecttolerance="10"
     gridtolerance="10"
     guidetolerance="10"
     inkscape:pageopacity="0"
     inkscape:pageshadow="2"
     inkscape:window-width="1425"
     inkscape:window-height="981"
     id="namedview14"
     showgrid="false"
     inkscape:zoom="0.236"
     inkscape:cx="500"
     inkscape:cy="500"
     inkscape:window-x="0"
     inkscape:window-y="0"
     inkscape:window-maximized="0"
     inkscape:current-layer="svg2" /><metadata
     id="metadata4"> Svg Vector Icons : http://www.onlinewebfonts.com/icon <rdf:RDF><cc:Work
     rdf:about=""><dc:format>image/svg+xml</dc:format><dc:type
       rdf:resource="http://purl.org/dc/dcmitype/StillImage" /></cc:Work></rdf:RDF></metadata><path
     style="opacity:1;fill:#3d6480;fill-opacity:1;fill-rule:nonzero;stroke:none;stroke-width:12.01181126;stroke-linecap:round;stroke-linejoin:round;stroke-miterlimit:4;stroke-dasharray:none;stroke-opacity:1"
     d="m 95.548215,949.09721 c -23.0965,-6.21377 -34.1488,-14.85725 -41.4086,-32.38377 -12.2852,-29.65928 10.3876,-63.3236 42.6482,-63.3236 19.477145,0 39.247035,15.28106 57.834505,44.70288 13.3646,21.15466 21.59493,23.25008 42.13264,10.72678 31.66354,-19.30746 55.98878,-72.9553 79.52386,-175.385 34.04425,-148.16784 83.75439,-389.02876 81.50147,-394.89975 -1.92886,-5.02654 -11.06831,-6.33135 -44.34759,-6.33135 l -41.91802,0 4.36333,-19.0678 4.36333,-19.0678 44.89385,0 44.89385,0 9.16139,-38.35072 c 21.94576,-91.86759 78.07942,-169.260686 147.83682,-203.826831 29.27242,-14.505071 40.90538,-17.904844 66.99348,-19.579076 17.36351,-1.114321 38.34072,-0.755847 46.61601,0.796609 42.11161,7.900186 59.21844,56.405307 30.14628,85.477488 -7.78945,7.78942 -14.78568,10.2283 -29.34128,10.2283 -22.558,0 -42.60423,-15.00231 -60.22665,-45.072688 -6.92915,-11.82367 -13.81907,-18.486644 -19.11627,-18.486644 -22.83381,0 -48.87686,27.274406 -67.57525,70.770312 -7.00225,16.28841 -27.17644,91.17326 -40.00886,148.50935 -2.13012,9.51753 -2.03664,9.5339 54.44411,9.5339 31.11784,0 57.62305,1.04515 58.90047,2.32255 1.27741,1.27741 0.40974,9.85791 -1.92784,19.0678 l -4.25043,16.74525 -58.19368,0 -58.19367,0 -7.37618,34.95762 c -46.41916,219.99233 -85.27071,391.23356 -93.28004,411.13894 -16.1443,40.12301 -36.34594,69.73776 -71.52694,104.85547 -37.54104,37.47352 -77.01118,59.82487 -119.01584,67.39695 -30.3742,5.47547 -33.03062,5.40941 -58.546455,-1.45517 z"
     id="path4144"
     inkscape:connector-curvature="0" /><path
     style="opacity:1;fill:#3d6480;fill-opacity:1;fill-rule:nonzero;stroke:none;stroke-width:12.01181126;stroke-linecap:round;stroke-linejoin:round;stroke-miterlimit:4;stroke-dasharray:none;stroke-opacity:1"
     d="m 481.08683,724.71197 c -8.17896,-4.1515 -12.54877,-9.2972 -15.52984,-18.2873 -11.44017,-34.5007 24.82399,-59.4111 66.25442,-45.5114 8.50915,2.8549 18.01091,5.1906 21.11503,5.1906 11.80329,0 77.74595,-86.5632 77.74595,-102.0575 0,-13.5096 -28.54304,-112.0361 -36.70319,-126.6942 -10.40975,-18.699 -24.61212,-25.0632 -51.09703,-22.8971 -11.6254,0.9509 -24.4113,2.6515 -28.41312,3.7793 -6.90996,1.9473 -7.09663,1.5438 -3.71028,-8.021 3.91087,-11.0463 8.94087,-13.7264 52.4023,-27.9207 24.2021,-7.9042 27.95448,-8.3229 44.31294,-4.9445 31.25647,6.4554 40.95914,21.0551 58.90727,88.638 5.61217,21.1324 10.91289,40.5007 11.77936,43.0406 0.94173,2.7605 12.11678,-11.2181 27.78263,-34.7528 29.8938,-44.9092 65.1996,-83.3632 85.36218,-92.9737 23.0763,-10.9993 51.78619,-6.5962 60.40704,9.2643 5.06327,9.3155 4.0141,29.8353 -1.95454,38.2258 -11.12054,15.6328 -40.97847,20.6716 -70.5556,11.9071 l -15.10669,-4.4766 -17.7413,18.8682 c -18.79051,19.984 -60.39035,79.193 -60.39035,85.9534 0,8.3671 29.66818,106.88 35.68567,118.494 7.27329,14.0377 23.00188,28.093 34.66204,30.9745 4.43362,1.0957 20.51158,1.3488 35.72882,0.5623 l 27.66766,-1.4298 -2.0927,8.2099 c -2.59691,10.1878 -3.49266,10.7224 -35.57017,21.231 -36.06122,11.8136 -69.38641,12.3906 -88.83883,1.5381 -17.70987,-9.8802 -26.13707,-26.7177 -40.10731,-80.1337 -5.75718,-22.0129 -11.54755,-41.2493 -12.86748,-42.7474 -1.31993,-1.4981 -11.5154,10.749 -22.65659,27.216 -36.76462,54.3389 -64.91092,85.5756 -87.45009,97.052 -16.12293,8.2094 -36.01867,9.3061 -49.0282,2.7026 z"
     id="path4146"
     inkscape:connector-curvature="0" /></svg>