<?xml version="1.0" encoding="utf-8"?>
<svg xmlns="http://www.w3.org/2000/svg" width="24" height="24">
<g>
	<path fill="#0E3A5A" d="M12.094,1.625v1c2.674,0,5.085,1.063,6.833,2.779c1.748,1.719,2.821,4.077,2.822,6.689
		c-0.001,2.612-1.074,4.971-2.822,6.689c-1.749,1.717-4.159,2.779-6.833,2.779c-2.675,0-5.086-1.063-6.835-2.779
		c-1.747-1.719-2.821-4.077-2.822-6.689c0-2.613,1.075-4.971,2.822-6.689c1.749-1.716,4.16-2.779,6.835-2.779V1.625v-1
		c-3.21,0-6.128,1.28-8.236,3.353c-2.109,2.07-3.421,4.947-3.42,8.116c0,3.169,1.311,6.045,3.42,8.115
		c2.108,2.072,5.025,3.354,8.236,3.354c3.21,0,6.127-1.281,8.235-3.354c2.109-2.07,3.422-4.946,3.421-8.115
		c0.001-3.169-1.312-6.046-3.421-8.116c-2.107-2.072-5.024-3.353-8.235-3.353V1.625z"/>
    <path fill="#0E3A5A" d="M11.919,4.539c-1.484,0-2.599,0.379-3.527,1.325C7.464,6.81,6.908,7.756,6.908,8.891L9.32,9.269
		c0.187-0.757,0.558-1.513,0.928-1.892c0.559-0.378,1.115-0.567,1.856-0.567c0.558,0,1.115,0.189,1.671,0.567
		c0.371,0.379,0.557,0.757,0.557,1.325c0,0.379-0.186,0.757-0.372,1.136c-0.185,0.189-0.558,0.567-1.298,1.135
		c-0.928,0.757-1.486,1.324-1.671,1.893C10.807,13.434,10.62,14,10.62,14.757c0,0,0,0.379,0,0.567h2.413
		c0-0.758,0-1.324,0.188-1.514c0.184-0.189,0.557-0.567,1.112-1.136c1.114-0.946,1.854-1.703,2.228-2.271
		c0.371-0.567,0.557-1.136,0.557-1.703c0-1.135-0.37-2.082-1.299-2.838C14.703,5.107,13.402,4.539,11.919,4.539z"/>
    <rect x="10.62" y="16.459" fill="#0E3A5A" width="2.784" height="2.839"/>
</g>
</svg>
