<?xml version="1.0" encoding="UTF-8" standalone="no"?>
<svg
   xmlns:dc="http://purl.org/dc/elements/1.1/"
   xmlns:cc="http://creativecommons.org/ns#"
   xmlns:rdf="http://www.w3.org/1999/02/22-rdf-syntax-ns#"
   xmlns:svg="http://www.w3.org/2000/svg"
   xmlns="http://www.w3.org/2000/svg"
   xmlns:sodipodi="http://sodipodi.sourceforge.net/DTD/sodipodi-0.dtd"
   xmlns:inkscape="http://www.inkscape.org/namespaces/inkscape"
   inkscape:version="1.0 (4035a4fb49, 2020-05-01)"
   sodipodi:docname="hide.svg"
   id="svg10"
   version="1.1"
   viewBox="0 0 16 16"
   class="bi bi-eye-slash"
   fill="currentColor"
   height="16"
   width="16">
  <metadata
     id="metadata16">
    <rdf:RDF>
      <cc:Work
         rdf:about="">
        <dc:format>image/svg+xml</dc:format>
        <dc:type
           rdf:resource="http://purl.org/dc/dcmitype/StillImage" />
      </cc:Work>
    </rdf:RDF>
  </metadata>
  <defs
     id="defs14" />
  <sodipodi:namedview
     inkscape:current-layer="svg10"
     inkscape:window-maximized="0"
     inkscape:window-y="0"
     inkscape:window-x="0"
     inkscape:cy="8"
     inkscape:cx="8"
     inkscape:zoom="63"
     showgrid="false"
     id="namedview12"
     inkscape:window-height="1219"
     inkscape:window-width="2486"
     inkscape:pageshadow="2"
     inkscape:pageopacity="0"
     guidetolerance="10"
     gridtolerance="10"
     objecttolerance="10"
     borderopacity="1"
     bordercolor="#666666"
     pagecolor="#ffffff" />
  <path
     style="fill:#0e3a5a;fill-opacity:1"
     id="path2"
     d="M13.359 11.238C15.06 9.72 16 8 16 8s-3-5.5-8-5.5a7.028 7.028 0 0 0-2.79.588l.77.771A5.944 5.944 0 0 1 8 3.5c2.12 0 3.879 1.168 5.168 2.457A13.134 13.134 0 0 1 14.828 8c-.058.087-.122.183-.195.288-.335.48-.83 1.12-1.465 1.755-.165.165-.337.328-.517.486l.708.709z" />
  <path
     style="fill:#0e3a5a;fill-opacity:1"
     id="path4"
     d="M11.297 9.176a3.5 3.5 0 0 0-4.474-4.474l.823.823a2.5 2.5 0 0 1 2.829 2.829l.822.822zm-2.943 1.299l.822.822a3.5 3.5 0 0 1-4.474-4.474l.823.823a2.5 2.5 0 0 0 2.829 2.829z" />
  <path
     style="fill:#0e3a5a;fill-opacity:1"
     id="path6"
     d="M3.35 5.47c-.18.16-.353.322-.518.487A13.134 13.134 0 0 0 1.172 8l.195.288c.335.48.83 1.12 1.465 1.755C4.121 11.332 5.881 12.5 8 12.5c.716 0 1.39-.133 2.02-.36l.77.772A7.029 7.029 0 0 1 8 13.5C3 13.5 0 8 0 8s.939-1.721 2.641-3.238l.708.709z" />
  <path
     style="fill:#0e3a5a;fill-opacity:1"
     id="path8"
     d="M13.646 14.354l-12-12 .708-.708 12 12-.708.708z"
     fill-rule="evenodd" />
</svg>
