<?xml version="1.0" encoding="UTF-8" standalone="no"?>
<svg
   xmlns:dc="http://purl.org/dc/elements/1.1/"
   xmlns:cc="http://creativecommons.org/ns#"
   xmlns:rdf="http://www.w3.org/1999/02/22-rdf-syntax-ns#"
   xmlns:svg="http://www.w3.org/2000/svg"
   xmlns="http://www.w3.org/2000/svg"
   xmlns:sodipodi="http://sodipodi.sourceforge.net/DTD/sodipodi-0.dtd"
   xmlns:inkscape="http://www.inkscape.org/namespaces/inkscape"
   inkscape:version="1.0 (4035a4fb49, 2020-05-01)"
   sodipodi:docname="hide.svg"
   id="svg4"
   viewBox="0 0 24 24"
   height="24"
   width="24"
   version="1.1">
  <metadata
     id="metadata10">
    <rdf:RDF>
      <cc:Work
         rdf:about="">
        <dc:format>image/svg+xml</dc:format>
        <dc:type
           rdf:resource="http://purl.org/dc/dcmitype/StillImage" />
      </cc:Work>
    </rdf:RDF>
  </metadata>
  <defs
     id="defs8" />
  <sodipodi:namedview
     inkscape:current-layer="svg4"
     inkscape:window-maximized="0"
     inkscape:window-y="0"
     inkscape:window-x="0"
     inkscape:cy="12"
     inkscape:cx="12"
     inkscape:zoom="42"
     showgrid="false"
     id="namedview6"
     inkscape:window-height="1217"
     inkscape:window-width="1881"
     inkscape:pageshadow="2"
     inkscape:pageopacity="0"
     guidetolerance="10"
     gridtolerance="10"
     objecttolerance="10"
     borderopacity="1"
     bordercolor="#666666"
     pagecolor="#ffffff" />
  <path
     style="fill:#0e3a5a;fill-opacity:1"
     id="path2"
     d="M2,5.27L3.28,4L20,20.72L18.73,22L15.65,18.92C14.5,19.3 13.28,19.5 12,19.5C7,19.5 2.73,16.39 1,12C1.69,10.24 2.79,8.69 4.19,7.46L2,5.27M12,9A3,3 0 0,1 15,12C15,12.35 14.94,12.69 14.83,13L11,9.17C11.31,9.06 11.65,9 12,9M12,4.5C17,4.5 21.27,7.61 23,12C22.18,14.08 20.79,15.88 19,17.19L17.58,15.76C18.94,14.82 20.06,13.54 20.82,12C19.17,8.64 15.76,6.5 12,6.5C10.91,6.5 9.84,6.68 8.84,7L7.3,5.47C8.74,4.85 10.33,4.5 12,4.5M3.18,12C4.83,15.36 8.24,17.5 12,17.5C12.69,17.5 13.37,17.43 14,17.29L11.72,15C10.29,14.85 9.15,13.71 9,12.28L5.6,8.87C4.61,9.72 3.78,10.78 3.18,12Z" />
</svg>
