<?xml version="1.0" encoding="utf-8"?>
<svg xmlns="http://www.w3.org/2000/svg" width="128" height="128">
<path fill="#0F3B5A" d="M112,21.327c0-2.549-2.021-5.333-5.334-5.333H21.333c-3.307,0-5.333,2.768-5.333,5.333v85.333
	c0,3.313,2.773,5.334,5.333,5.334h85.333c2.55,0,5.334-2.021,5.334-5.334V21.327z M24,23.994h80V74.66H24V23.994z M84.378,43.503
	c0.662-0.73,0.955-1.595,0.955-2.442c0-1.909-1.515-3.733-3.76-3.733H46.426c-2.25,0-3.76,1.824-3.76,3.733
	c0,0.848,0.293,1.712,0.949,2.442c5.238,5.809,12.891,14.315,17.174,19.072c0.816,0.906,1.979,1.419,3.205,1.419
	c1.222,0,2.39-0.513,3.205-1.414C71.482,57.818,79.141,49.316,84.378,43.503z"/>
</svg>
