<?xml version="1.0" encoding="UTF-8" standalone="no"?>
<!-- Generator: Adobe Illustrator 18.0.0, SVG Export Plug-In . SVG Version: 6.00 Build 0)  -->

<svg
   xmlns:dc="http://purl.org/dc/elements/1.1/"
   xmlns:cc="http://creativecommons.org/ns#"
   xmlns:rdf="http://www.w3.org/1999/02/22-rdf-syntax-ns#"
   xmlns="http://www.w3.org/2000/svg"
   xmlns:sodipodi="http://sodipodi.sourceforge.net/DTD/sodipodi-0.dtd"
   xmlns:inkscape="http://www.inkscape.org/namespaces/inkscape"
   version="1.1"
   x="0px"
   y="0px"
   viewBox="0 0 16 16"
   enable-background="new 0 0 16 16"
   xml:space="preserve"
   id="svg881"
   sodipodi:docname="inactive-script.svg"
   inkscape:version="0.92.5 (2060ec1f9f, 2020-04-08)"><metadata
   id="metadata887"><rdf:RDF><cc:Work
       rdf:about=""><dc:format>image/svg+xml</dc:format><dc:type
         rdf:resource="http://purl.org/dc/dcmitype/StillImage" /><dc:title></dc:title></cc:Work></rdf:RDF></metadata><defs
   id="defs885" /><sodipodi:namedview
   pagecolor="#ffffff"
   bordercolor="#666666"
   borderopacity="1"
   objecttolerance="10"
   gridtolerance="10"
   guidetolerance="10"
   inkscape:pageopacity="0"
   inkscape:pageshadow="2"
   inkscape:window-width="640"
   inkscape:window-height="480"
   id="namedview883"
   showgrid="false"
   inkscape:zoom="110.55186"
   inkscape:cx="2.6600603"
   inkscape:cy="8"
   inkscape:current-layer="svg881" />
<g
   id="Layer_2"
   style="opacity:0.5">
	<g
   id="Layer_2_1_"
   style="">
		<rect
   fill="none"
   width="16"
   height="16"
   id="rect862"
   style="" />
	</g>
</g>
  <g
   id="art"
   style="opacity:0.5">
	<g
   id="g878"
   style="">
		<g
   id="g874"
   style="">
			<polygon
   fill="#FFFFFF"
   points="3.1,12.3 2.8,2.6 4.8,0.4 14.6,0.8 15.6,2.1 14.6,4.1 12.6,4.1 12.5,14.1 9.7,15.2 2.1,15.7      0.9,14.2 0.9,13.5 2.1,12.6    "
   id="polygon866"
   style="" />
      <g
   id="g872"
   style="">
				<path
   fill="#0E3A5A"
   stroke="#3D6380"
   stroke-width="0.75"
   stroke-miterlimit="10"
   d="M3.6,12h-1V3.4c0-1.9,1.2-3.1,3.1-3.1h7.8      c1.1,0,2.1,0.9,2.1,2.1c0,1.1-0.9,2.1-2.1,2.1h-1.2v-1h1.2c0.6,0,1.1-0.5,1.1-1.1c0-0.6-0.5-1.1-1.1-1.1H5.7      c-1.4,0-2.1,0.8-2.1,2.1V12z"
   id="path868"
   style="" />
        <path
   fill="#0E3A5A"
   stroke="#3D6380"
   stroke-width="0.75"
   stroke-miterlimit="10"
   d="M10.1,15.7H2.4c-1.1,0-2.1-0.9-2.1-2.1      c0-1.1,0.9-2.1,2.1-2.1h3.4v1H2.4c-0.6,0-1.1,0.5-1.1,1.1c0,0.6,0.5,1.1,1.1,1.1h7.6c1.4,0,2.1-0.8,2.1-2.1V3.1h1v9.5      C13.2,14.5,12,15.7,10.1,15.7z"
   id="path870"
   style="" />
			</g>
		</g>
    <polygon
   fill="#3D6380"
   points="5.5,4.9 10.5,7.3 5.5,9.7   "
   id="polygon876"
   style="" />
	</g>
</g>
</svg>