<?xml version="1.0" encoding="UTF-8" standalone="no"?>
<svg
   xmlns:dc="http://purl.org/dc/elements/1.1/"
   xmlns:cc="http://creativecommons.org/ns#"
   xmlns:rdf="http://www.w3.org/1999/02/22-rdf-syntax-ns#"
   xmlns:svg="http://www.w3.org/2000/svg"
   xmlns="http://www.w3.org/2000/svg"
   xmlns:sodipodi="http://sodipodi.sourceforge.net/DTD/sodipodi-0.dtd"
   xmlns:inkscape="http://www.inkscape.org/namespaces/inkscape"
   version="1.1"
   width="24"
   height="24"
   viewBox="0 0 24 24"
   id="svg4"
   sodipodi:docname="info.svg"
   inkscape:version="1.0 (4035a4fb49, 2020-05-01)">
  <defs
     id="defs8" />
  <sodipodi:namedview
     inkscape:document-rotation="0"
     pagecolor="#ffffff"
     bordercolor="#666666"
     borderopacity="1"
     objecttolerance="10"
     gridtolerance="10"
     guidetolerance="10"
     inkscape:pageopacity="0"
     inkscape:pageshadow="2"
     inkscape:window-width="2059"
     inkscape:window-height="1120"
     id="namedview6"
     showgrid="false"
     inkscape:zoom="11.313709"
     inkscape:cx="-1.6667517"
     inkscape:cy="3.7038927"
     inkscape:window-x="0"
     inkscape:window-y="4"
     inkscape:window-maximized="0"
     inkscape:current-layer="svg4"
     inkscape:snap-global="false" />
  <circle
     r="10"
     cy="12"
     cx="12"
     id="path832"
     style="fill:#005ca7;fill-opacity:1;stroke-width:1.5115;stroke-linecap:round;stroke-linejoin:round" />
  <path
     style="fill:#ffffff;fill-opacity:1;stroke:none;stroke-width:0.0351048;stroke-linecap:round;stroke-linejoin:round;stroke-miterlimit:4;stroke-dasharray:none;paint-order:markers fill stroke"
     d="M 10.904762,6.6442141 V 5.4044268 h 1.302921 1.302923 v 1.2397873 1.2397877 h -1.302923 -1.302921 z"
     id="path837"
     sodipodi:nodetypes="ccccccccc" />
  <path
     id="path839"
     d="m 9.6600275,18.320668 c -0.083372,-0.02599 -0.1725183,-0.121725 -0.1962792,-0.210808 -0.011975,-0.04473 -0.020233,-0.472227 -0.0203,-1.044927 -1.133e-4,-0.96305 1.792e-4,-0.969822 0.045867,-1.063698 0.08753,-0.179867 0.086668,-0.179689 0.9093497,-0.186925 l 0.720328,-0.0064 v -1.742549 -1.742587 l -0.720331,-0.0084 c -0.61994,-0.0073 -0.7334525,-0.01349 -0.81446,-0.04518 -0.1025542,-0.04013 -0.2165942,-0.143363 -0.2453209,-0.22206 -0.00999,-0.02736 -0.018167,-0.483037 -0.018167,-1.012601 V 10.071709 L 9.3733891,9.9616117 C 9.4302811,9.8427125 9.5027641,9.7689108 9.6350732,9.6951883 l 0.084117,-0.046875 h 1.7880478 c 1.751296,0 1.789473,8.334e-4 1.857435,0.042567 0.08927,0.054767 0.14318,0.1311158 0.166483,0.2357692 0.01062,0.047858 0.0188,1.2937835 0.01907,2.9195475 l 4.87e-4,2.83606 h 0.700673 c 0.686336,0 0.702514,10e-4 0.790665,0.04787 0.06125,0.03258 0.103413,0.07508 0.13205,0.13303 0.0408,0.0826 0.04205,0.116925 0.04205,1.149323 0,1.032407 -0.0013,1.066732 -0.04205,1.149324 -0.02864,0.05795 -0.07079,0.100413 -0.13205,0.133028 l -0.08999,0.04787 -2.616438,-0.0019 c -1.43904,-0.001 -2.6430649,-0.01025 -2.6756091,-0.02028 z"
     style="fill:#ffffff;stroke-width:0.0102815;stroke-linecap:round;stroke-linejoin:round" />
</svg>
