<?xml version="1.0" encoding="utf-8"?>
<!-- Generator: Adobe Illustrator 14.0.0, SVG Export Plug-In . SVG Version: 6.00 Build 43363)  -->
<!DOCTYPE svg PUBLIC "-//W3C//DTD SVG 1.1//EN" "http://www.w3.org/Graphics/SVG/1.1/DTD/svg11.dtd">
<svg version="1.1" id="Layer_1" xmlns="http://www.w3.org/2000/svg" xmlns:xlink="http://www.w3.org/1999/xlink" x="0px" y="0px"
	 width="24px" height="24px" viewBox="0 0 24 24" enable-background="new 0 0 24 24" xml:space="preserve">
<circle fill="#D7D7D7" cx="12" cy="12" r="10"/>
<path fill="#FFFFFF" d="M10.905,6.644v-1.24h1.303h1.303v1.24v1.24h-1.303h-1.303V6.644z"/>
<path fill="#FFFFFF" d="M9.66,18.32c-0.083-0.025-0.173-0.121-0.196-0.211c-0.012-0.045-0.021-0.472-0.021-1.045
	c0-0.963,0-0.969,0.046-1.063c0.087-0.18,0.087-0.18,0.909-0.187l0.721-0.006v-1.743v-1.743l-0.721-0.008
	c-0.62-0.007-0.733-0.014-0.814-0.045c-0.103-0.04-0.216-0.143-0.245-0.222c-0.01-0.027-0.018-0.483-0.018-1.012v-0.963l0.053-0.11
	C9.43,9.843,9.503,9.769,9.635,9.695l0.084-0.047h1.788c1.75,0,1.79,0,1.858,0.042c0.089,0.055,0.143,0.131,0.166,0.236
	c0.011,0.048,0.019,1.293,0.02,2.919v2.836h0.701c0.686,0,0.702,0.002,0.79,0.049c0.062,0.032,0.104,0.074,0.132,0.133
	c0.041,0.082,0.043,0.117,0.043,1.149s-0.002,1.066-0.043,1.149c-0.028,0.058-0.07,0.1-0.132,0.133l-0.09,0.048l-2.617-0.002
	C10.896,18.34,9.692,18.33,9.66,18.32L9.66,18.32z"/>
</svg>
