<?xml version="1.0" encoding="UTF-8" standalone="no"?>
<svg
   xmlns="http://www.w3.org/2000/svg"
   id="svg12797"
   version="1.1"
   viewBox="0 0 5.6653113 5.826601"
   height="5.826601"
   width="5.6653113">
  <defs
     id="defs12791" />
  <g
     transform="translate(113.91709,-1.491745)"
     id="layer1">
    <g
       style="font-size:10px;font-family:FreeSans;color-interpolation:linearRGB;fill:#ffffff;stroke:none;stroke-linecap:butt;stroke-miterlimit:2;color-rendering:optimizeQuality;image-rendering:optimizeQuality;text-rendering:geometricPrecision"
       id="g5813"
       transform="matrix(0.1757747,0,0,0.1780601,-65.022675,-66.400552)"
       >
      <defs
         id="defs19" />
      <style
         id="style3"
         type="text/css">
	.st0{fill:none;}
	.st1{fill:#F99C1C;}
	.st2{fill:#5CC0C4;}
</style>
      <polygon
         points="-266.3,410.5 -265.1,409.3 -273.2,401.2 -268.6,401.2 -268.6,399.5 -276.1,399.5 -276.1,407.1 -274.4,407.1 -274.4,402.4 "
         class="st1"
         style="fill:#f99c1c"
         id="polygon9" />
      <path
         class="st2"
         style="fill:#5cc0c4"
         id="path5808"
         d="m -259.9,399.5 v 11.1 L -248,405 Z m 1.9,2.9 5.7,2.7 -5.7,2.7 z" />
      <polygon
         points="-254.2,406.8 -254.2,412.1 -248.5,409.5 "
         class="st0"
         style="fill:none"
         id="polygon7" />
      <polygon
         points="-264.9,390.7 -264.9,383.2 -272.4,383.2 -272.4,384.9 -267.8,384.9 -275.9,393 -274.7,394.2 -266.6,386.1 -266.6,390.7 "
         class="st1"
         style="fill:#f99c1c"
         id="polygon11" />
      <polygon
         points="-259.9,384.7 -251.8,392.8 -256.4,392.8 -256.4,394.5 -248.9,394.5 -248.9,386.9 -250.6,386.9 -250.6,391.6 -258.7,383.5 "
         class="st1"
         style="fill:#f99c1c"
         id="polygon13" />
    </g>
  </g>
</svg>
