<?xml version="1.0" encoding="UTF-8" standalone="no"?>
<svg
   xmlns:dc="http://purl.org/dc/elements/1.1/"
   xmlns:cc="http://creativecommons.org/ns#"
   xmlns:rdf="http://www.w3.org/1999/02/22-rdf-syntax-ns#"
   xmlns:svg="http://www.w3.org/2000/svg"
   xmlns="http://www.w3.org/2000/svg"
   xmlns:sodipodi="http://sodipodi.sourceforge.net/DTD/sodipodi-0.dtd"
   xmlns:inkscape="http://www.inkscape.org/namespaces/inkscape"
   inkscape:version="1.0 (4035a4fb49, 2020-05-01)"
   sodipodi:docname="logo_hop.svg"
   id="svg32"
   viewBox="0 0 512.00002 512.00002"
   height="512pt"
   width="512pt"
   version="1.1">
  <metadata
     id="metadata38">
    <rdf:RDF>
      <cc:Work
         rdf:about="">
        <dc:format>image/svg+xml</dc:format>
        <dc:type
           rdf:resource="http://purl.org/dc/dcmitype/StillImage" />
        <dc:title></dc:title>
      </cc:Work>
    </rdf:RDF>
  </metadata>
  <defs
     id="defs36" />
  <sodipodi:namedview
     inkscape:current-layer="svg32"
     inkscape:window-maximized="0"
     inkscape:window-y="0"
     inkscape:window-x="0"
     inkscape:cy="505.49151"
     inkscape:cx="565.11167"
     inkscape:zoom="2.1879343"
     showgrid="false"
     id="namedview34"
     inkscape:window-height="1255"
     inkscape:window-width="2612"
     inkscape:pageshadow="2"
     inkscape:pageopacity="0"
     guidetolerance="10"
     gridtolerance="10"
     objecttolerance="10"
     borderopacity="1"
     bordercolor="#666666"
     pagecolor="#ffffff" />
  <rect
     y="-0.68557811"
     x="-0.68557817"
     height="513.84088"
     width="514.52649"
     id="rect986"
     style="fill:#033d5d;fill-opacity:1;stroke-width:0.519195;stroke-linecap:round;stroke-linejoin:round" />
  <path
     style="color:#000000;font-style:normal;font-variant:normal;font-weight:normal;font-stretch:normal;font-size:medium;line-height:normal;font-family:sans-serif;font-variant-ligatures:normal;font-variant-position:normal;font-variant-caps:normal;font-variant-numeric:normal;font-variant-alternates:normal;font-variant-east-asian:normal;font-feature-settings:normal;font-variation-settings:normal;text-indent:0;text-align:start;text-decoration:none;text-decoration-line:none;text-decoration-style:solid;text-decoration-color:#000000;letter-spacing:normal;word-spacing:normal;text-transform:none;writing-mode:lr-tb;direction:ltr;text-orientation:mixed;dominant-baseline:auto;baseline-shift:baseline;text-anchor:start;white-space:normal;shape-padding:0;shape-margin:0;inline-size:0;clip-rule:nonzero;display:inline;overflow:visible;visibility:visible;opacity:1;isolation:auto;mix-blend-mode:normal;color-interpolation:sRGB;color-interpolation-filters:linearRGB;solid-color:#000000;solid-opacity:1;vector-effect:none;fill:#b9e5fa;fill-opacity:1;fill-rule:nonzero;stroke:none;stroke-width:1.51412;stroke-linecap:butt;stroke-linejoin:miter;stroke-miterlimit:4;stroke-dasharray:none;stroke-dashoffset:0;stroke-opacity:1;color-rendering:auto;image-rendering:auto;shape-rendering:auto;text-rendering:auto;enable-background:accumulate;stop-color:#000000;stop-opacity:1"
     d="m 450.74235,214.50802 c -2.88745,20.28937 -9.59656,35.65629 -20.11979,46.09622 -11.24242,11.25302 -26.40494,16.87348 -45.48601,16.87348 l 4.07453,-28.62163 c 7.8326,0 13.28196,-0.90393 16.35414,-2.7118 3.06914,-1.80939 5.07534,-3.21147 6.0232,-4.21989 5.07386,-4.6181 8.58663,-13.75436 10.5323,-27.41638 1.02959,-7.23149 1.2537,-13.05181 0.67529,-17.47458 -0.57384,-4.41672 -1.84875,-7.83261 -3.81408,-10.2431 -1.96838,-2.40898 -4.65141,-4.01548 -8.04913,-4.81948 -3.40377,-0.80247 -7.41471,-1.20674 -12.0328,-1.20674 h -17.77438 l -9.68893,68.09197 -4.07605,28.62163 -13.76345,96.71211 h -0.008 c -6.61525,54.218 -56.19244,98.31101 -110.56337,98.31101 -26.94701,0 -51.14132,-10.55348 -68.12684,-29.71786 -16.33142,-18.42695 -24.00049,-42.55616 -21.83832,-68.29034 h -0.15891 l 0.52237,-3.77169 c 0.001,-0.009 0.001,-0.0167 0.003,-0.0257 l 6.74848,-48.67631 h -42.78178 l -7.2754,52.47375 H 81.798506 L 113.39842,152.44228 h 28.32183 l -20.25302,140.95351 h 42.78178 l 28.09623,-195.250254 -23.20256,-1.75791 41.6265,-49.905768 33.63191,55.607992 -23.731,-1.79879 -39.14635,274.20159 h -0.056 c -2.18035,18.85548 2.99192,36.43304 14.60077,49.53026 11.54071,13.02305 28.21735,20.19398 46.95777,20.19398 40.58174,0 77.59014,-32.98231 82.49893,-73.52169 l 0.24379,0.0288 31.10935,-218.5815 h 46.09621 c 18.87819,0 32.45388,5.52506 40.72558,16.56914 7.5222,10.6489 9.87366,25.91135 7.04224,45.79641 M 250.59542,240.9872 c 2.37718,-4.71804 5.02388,-8.13543 7.93708,-10.24461 2.90713,-2.10919 5.75066,-3.36137 8.52001,-3.76564 2.76783,-0.39974 5.25253,-0.60263 7.46618,-0.60263 2.00622,0 4.38644,0.20289 7.14519,0.60263 2.75118,0.40427 5.28431,1.65645 7.5979,3.76564 2.30905,2.10918 3.98368,5.52657 5.02087,10.24461 1.03264,4.72105 0.93724,11.40141 -0.29071,20.03498 l -13.59387,95.50838 c -1.25674,8.83949 -3.07823,15.61824 -5.45391,20.33629 -2.38173,4.72105 -5.02843,8.13392 -7.93556,10.2431 -2.91319,2.10918 -5.80518,3.36591 -8.66991,3.76564 -2.87383,0.40578 -5.3131,0.60414 -7.3178,0.60414 -2.21215,0 -4.64233,-0.19836 -7.29508,-0.60414 -2.65428,-0.39973 -5.14048,-1.65646 -7.44802,-3.76564 -2.31359,-2.10918 -3.98672,-5.52205 -5.02086,-10.2431 -1.0372,-4.71805 -0.92514,-11.4968 0.3331,-20.33629 l 13.59236,-95.50838 c 1.22948,-8.63357 3.0313,-15.31393 5.41303,-20.03498 m -14.56141,-25.75991 c -9.97812,10.84571 -16.36927,26.1127 -19.17193,45.79489 l -13.59236,95.50838 c -2.80114,19.68522 -0.75404,34.94917 6.13677,45.7949 2.63913,4.01849 6.90142,7.93707 12.78986,11.74964 5.88241,3.81865 14.14503,5.72494 24.79543,5.72494 10.84573,0 19.70188,-1.90629 26.57301,-5.72494 6.87112,-3.81257 12.19633,-7.73115 15.98317,-11.74964 9.98115,-10.84573 16.37079,-26.10968 19.17042,-45.7949 l 13.59387,-95.50838 c 2.80113,-19.68219 0.75706,-34.94918 -6.13678,-45.79489 -2.64367,-4.01549 -6.85447,-7.93254 -12.63845,-11.74966 -5.78398,-3.8141 -14.09808,-5.72492 -24.9438,-5.72492 -5.42362,0 -10.32486,0.55567 -14.69919,1.65644 -4.37432,1.10684 -8.34134,2.51346 -11.89956,4.21837 -3.55518,1.70946 -6.63491,3.56881 -9.22711,5.57351 -2.59825,2.01077 -4.84371,4.02003 -6.73335,6.02626"
     id="path951-1" />
</svg>
