<?xml version="1.0" encoding="UTF-8" standalone="no"?>
<svg
   xmlns:dc="http://purl.org/dc/elements/1.1/"
   xmlns:cc="http://creativecommons.org/ns#"
   xmlns:rdf="http://www.w3.org/1999/02/22-rdf-syntax-ns#"
   xmlns="http://www.w3.org/2000/svg"
   xmlns:sodipodi="http://sodipodi.sourceforge.net/DTD/sodipodi-0.dtd"
   xmlns:inkscape="http://www.inkscape.org/namespaces/inkscape"
   inkscape:version="1.0 (4035a4fb49, 2020-05-01)"
   sodipodi:docname="metadata.svg"
   id="svg4"
   viewBox="0 0 24 24"
   height="24"
   width="24"
   version="1.1">
  <metadata
     id="metadata10">
    <rdf:RDF>
      <cc:Work
         rdf:about="">
        <dc:format>image/svg+xml</dc:format>
        <dc:type
           rdf:resource="http://purl.org/dc/dcmitype/StillImage" />
      </cc:Work>
    </rdf:RDF>
  </metadata>
  <defs
     id="defs8" />
  <sodipodi:namedview
     inkscape:current-layer="svg4"
     inkscape:window-maximized="0"
     inkscape:window-y="0"
     inkscape:window-x="0"
     inkscape:cy="12"
     inkscape:cx="12"
     inkscape:zoom="42"
     showgrid="false"
     id="namedview6"
     inkscape:window-height="1378"
     inkscape:window-width="2324"
     inkscape:pageshadow="2"
     inkscape:pageopacity="0"
     guidetolerance="10"
     gridtolerance="10"
     objecttolerance="10"
     borderopacity="1"
     bordercolor="#666666"
     pagecolor="#ffffff" />
  <path
     style="fill:#0e3a5a;fill-opacity:1;stroke-width:1.33201"
     id="path2"
     d="m 8.0396825,5.3756614 h 7.9920635 a 2.6640211,2.6640211 0 0 1 2.664021,2.6640211 V 18.695767 H 16.031746 V 8.0396825 H 13.367725 V 17.363756 H 10.703704 V 8.0396825 H 8.0396825 V 18.695767 H 5.3756614 V 8.0396825 A 2.6640211,2.6640211 0 0 1 8.0396825,5.3756614 M 2.7116402,0.04761905 H 21.359789 A 2.6640211,2.6640211 0 0 1 24.02381,2.7116402 V 21.359789 A 2.6640211,2.6640211 0 0 1 21.359789,24.02381 H 2.7116402 A 2.6640211,2.6640211 0 0 1 0.04761905,21.359789 V 2.7116402 A 2.6640211,2.6640211 0 0 1 2.7116402,0.04761905 m 0,2.66402115 V 21.359789 H 21.359789 V 2.7116402 Z" />
</svg>
