<?xml version="1.0" encoding="utf-8"?>
<svg xmlns="http://www.w3.org/2000/svg" width="24" height="24">
    <path d="M21.471 20.061c-.081.355-.219.623-.461.898-.235.266-.458.418-.748.511-.148.047-.467.049-8.26.049s-8.112-.002-8.26-.049a1.84 1.84 0 0 1-.87-.637c-.132-.179-.303-.569-.351-.799a2.33 2.33 0 0 1 .138-1.31c.1-.222 7.879-15.329 7.967-15.473a2.41 2.41 0 0 1 .489-.516c.067-.048.211-.125.32-.172.193-.083.21-.086.567-.086s.374.003.568.086a2.14 2.14 0 0 1 .347.194c.185.135.427.418.538.628l7.892 15.345a2.23 2.23 0 0 1 .125 1.331z"
          fill="none" stroke="#ea102a" stroke-width=".952" stroke-linejoin="round"/>
    <path d="M10.52 7.927h2.707v7.349H10.52zm-.063 9.395h2.833v2.445h-2.833z" fill="#ea102a"/>
</svg>
