<?xml version="1.0" encoding="UTF-8" standalone="no"?>
<svg xmlns="http://www.w3.org/2000/svg"
     version="1.1" viewBox="0 0 16 16" fill="currentColor" height="16" width="16">
  <path style="fill:#0e3a5a;fill-opacity:1"
        d="M1 2.5A1.5 1.5 0 0 1 2.5 1h11A1.5 1.5 0 0 1 15 2.5v6.086a1.5 1.5 0 0 1-.44 1.06l-4.914 4.915a1.5 1.5 0 0 1-1.06.439H2.5A1.5 1.5 0 0 1 1 13.5v-11zM2.5 2a.5.5 0 0 0-.5.5v11a.5.5 0 0 0 .5.5h6.086a.5.5 0 0 0 .353-.146l4.915-4.915A.5.5 0 0 0 14 8.586V2.5a.5.5 0 0 0-.5-.5h-11z"
        fill-rule="evenodd"/>
  <path style="fill:#0e3a5a;fill-opacity:1" id="path4" d="M9.5 9a.5.5 0 0 0-.5.5v5H8v-5A1.5 1.5 0 0 1 9.5 8h5v1h-5z" fill-rule="evenodd"/>
  <path
      d="M 2.3730159,13.97722 C 2.240801,13.936857 2.1206752,13.835093 2.0532702,13.706349 L 2.015873,13.634921 V 8 2.3650794 L 2.058152,2.2857144 C 2.108825,2.1905939 2.1963304,2.1042234 2.2936508,2.0532702 L 2.3650794,2.015873 H 8 13.634921 l 0.07936,0.042279 c 0.09512,0.050673 0.181491,0.138178 0.232444,0.2354984 l 0.0374,0.071429 0.0041,2.8131395 0.0041,2.8131397 -2.361284,0.00469 -2.3612837,0.00469 -0.1332302,0.035648 C 8.5912383,8.182313 8.182313,8.5912383 8.0363881,9.1366111 l -0.035648,0.1332302 -0.00469,2.3611107 -0.00469,2.361111 -2.7893301,-0.0014 c -1.5341316,-7.5e-4 -2.8071873,-0.0068 -2.8290127,-0.01348 z"
      style="fill:#c9e8fb;fill-opacity:0.81176472;stroke:#0e3a5a;stroke-width:0.190664;stroke-linecap:round;stroke-linejoin:round"/>
</svg>