<?xml version="1.0" encoding="UTF-8" standalone="no"?>
<svg
        xmlns="http://www.w3.org/2000/svg"
        viewBox="0 0 24 24"
        height="24"
        width="24"
        version="1.1">
    <path
            style="fill:#0e3a5a;fill-opacity:1;stroke-width:1.12054"
            d="m 4.6834822,12.199406 -2.353125,8.964285 V 9.9583336 H 21.379464 A 2.2410714,2.2410714 0 0 0 19.138393,7.7172619 H 11.294644 L 9.0535714,5.4761905 H 2.3303572 A 2.2410714,2.2410714 0 0 0 0.08928576,7.7172619 V 21.163691 A 2.2410714,2.2410714 0 0 0 2.3303572,23.404762 H 19.138393 c 1.008482,0 1.904911,-0.672321 2.129018,-1.680803 l 2.577232,-9.524553 H 4.6834822 M 19.138393,21.163691 H 4.5714286 L 6.3642857,14.440477 H 20.93125 Z"/>
    <path
            style="fill:#0e3a5a;fill-opacity:1;stroke-width:0.761551"
            d="M 17.656583,0.84514834 V 2.3682507 h 2.735338 l -3.426981,3.4269809 1.072419,1.073906 3.426982,-3.4269808 v 2.7338498 h 1.5231 V 0.84514834 Z"
    />
</svg>
