<?xml version="1.0" encoding="utf-8"?>
<svg xmlns="http://www.w3.org/2000/svg" width="128" height="128">
    <g>
        <path fill="#0F3B5A" d="M101.334,48c-6.765,0.019-12.786,4.29-15.041,10.667H16c-2.945,0-5.333,2.388-5.333,5.333
			s2.388,5.334,5.333,5.334h70.293c2.945,8.33,12.088,12.696,20.418,9.751c8.332-2.946,12.697-12.087,9.752-20.418
			C114.197,52.258,108.131,47.981,101.334,48z M101.334,69.334C98.388,69.334,96,66.945,96,64s2.388-5.333,5.334-5.333
			c2.945,0,5.332,2.388,5.332,5.333S104.279,69.334,101.334,69.334z"/>
        <path fill="#0F3B5A" d="M16,37.333h6.293c3.015,8.306,12.192,12.596,20.499,9.581c4.456-1.617,7.964-5.126,9.582-9.581H112
			c2.945,0,5.334-2.388,5.334-5.333s-2.389-5.333-5.334-5.333H52.374c-3.015-8.306-12.192-12.596-20.499-9.581
			c-4.455,1.617-7.964,5.126-9.581,9.581H16c-2.945,0-5.333,2.388-5.333,5.333S13.055,37.333,16,37.333z M37.333,26.667
			c2.945,0,5.333,2.388,5.333,5.333s-2.388,5.333-5.333,5.333C34.388,37.333,32,34.945,32,32S34.388,26.667,37.333,26.667z"/>
        <path fill="#0F3B5A" d="M112,90.666H73.707c-3.016-8.306-12.193-12.596-20.499-9.58c-4.456,1.617-7.964,5.125-9.582,9.58H16
			c-2.945,0-5.333,2.389-5.333,5.334s2.388,5.334,5.333,5.334h27.626c3.015,8.306,12.193,12.596,20.499,9.58
			c4.455-1.617,7.964-5.125,9.582-9.58H112c2.945,0,5.334-2.389,5.334-5.334S114.945,90.666,112,90.666z M58.667,101.334
			c-2.945,0-5.333-2.389-5.333-5.334s2.388-5.334,5.333-5.334C61.612,90.666,64,93.055,64,96S61.612,101.334,58.667,101.334z"/>
    </g>
</svg>
