<?xml version="1.0" encoding="utf-8"?>
<svg xmlns="http://www.w3.org/2000/svg" width="128" height="128">
<path fill="#0F3B5A" d="M93.334,64c-4.419,0-8-3.582-8-8s3.581-8,8-8c4.418,0,8,3.582,8,8S97.752,64,93.334,64 M77.334,42.667
	c-4.419,0-8-3.582-8-8c0-4.418,3.581-8,8-8c4.418,0,8,3.582,8,8C85.334,39.085,81.752,42.667,77.334,42.667 M50.667,42.667
	c-4.418,0-8-3.582-8-8c0-4.418,3.582-8,8-8c4.418,0,8,3.582,8,8C58.667,39.085,55.085,42.667,50.667,42.667 M34.667,64
	c-4.418,0-8-3.582-8-8s3.582-8,8-8c4.418,0,8,3.582,8,8S39.085,64,34.667,64 M64,16c-26.51,0-48,21.49-48,48s21.49,48,48,48
	c4.418,0,8-3.582,8-8c0-2.08-0.8-3.947-2.08-5.334c-1.227-1.439-2.026-3.307-2.026-5.332c0-4.419,3.581-8,8-8h9.44
	c14.727,0,26.666-11.939,26.666-26.667C112,35.093,90.507,16,64,16z"/>
</svg>
