<?xml version="1.0" encoding="UTF-8" standalone="no"?>
<svg
   xmlns:dc="http://purl.org/dc/elements/1.1/"
   xmlns:cc="http://creativecommons.org/ns#"
   xmlns:rdf="http://www.w3.org/1999/02/22-rdf-syntax-ns#"
   xmlns:svg="http://www.w3.org/2000/svg"
   xmlns="http://www.w3.org/2000/svg"
   xmlns:sodipodi="http://sodipodi.sourceforge.net/DTD/sodipodi-0.dtd"
   xmlns:inkscape="http://www.inkscape.org/namespaces/inkscape"
   inkscape:version="1.0 (4035a4fb49, 2020-05-01)"
   height="42"
   width="42"
   sodipodi:docname="paper-clip.svg"
   xml:space="preserve"
   viewBox="0 0 42 42"
   y="0px"
   x="0px"
   id="Layer_1"
   version="1.1"><metadata
   id="metadata39"><rdf:RDF><cc:Work
       rdf:about=""><dc:format>image/svg+xml</dc:format><dc:type
         rdf:resource="http://purl.org/dc/dcmitype/StillImage" /><dc:title></dc:title></cc:Work></rdf:RDF></metadata><defs
   id="defs37" /><sodipodi:namedview
   inkscape:current-layer="Layer_1"
   inkscape:window-maximized="1"
   inkscape:window-y="0"
   inkscape:window-x="1920"
   inkscape:cy="18.412402"
   inkscape:cx="22.005778"
   inkscape:zoom="22.627417"
   showgrid="false"
   id="namedview35"
   inkscape:window-height="1412"
   inkscape:window-width="2560"
   inkscape:pageshadow="2"
   inkscape:pageopacity="0"
   guidetolerance="10"
   gridtolerance="10"
   objecttolerance="10"
   borderopacity="1"
   bordercolor="#666666"
   pagecolor="#ffffff" />
<path
   style="stroke-width:0.0865979"
   id="path2"
   d="m 24.119553,0 c -4.41693,0 -8.01031,3.59338 -8.01031,8.01031 v 22.94845 c 0,2.74568 2.23371,4.97938 4.97938,4.97938 2.74567,0 4.97938,-2.2337 4.97938,-4.97938 V 8.01031 h -2.59794 v 22.94845 c 0,1.31317 -1.06827,2.38145 -2.38144,2.38145 -1.31317,0 -2.38144,-1.06828 -2.38144,-2.38145 V 8.01031 c 0,-2.98443 2.42803,-5.41237 5.41237,-5.41237 2.98434,0 5.41237,2.42794 5.41237,5.41237 v 22.94845 c 0,4.65568 -3.78762,8.4433 -8.4433,8.4433 -4.65568,0 -8.4433,-3.78762 -8.4433,-8.4433 V 8.01031 h -2.59794 v 22.94845 c 0,6.08818 4.95306,11.04124 11.04124,11.04124 6.08818,0 11.04124,-4.95306 11.04124,-11.04124 V 8.01031 C 32.129863,3.59338 28.536483,0 24.119553,0 Z" />
<g
   id="g4">
</g>
<g
   id="g6">
</g>
<g
   id="g8">
</g>
<g
   id="g10">
</g>
<g
   id="g12">
</g>
<g
   id="g14">
</g>
<g
   id="g16">
</g>
<g
   id="g18">
</g>
<g
   id="g20">
</g>
<g
   id="g22">
</g>
<g
   id="g24">
</g>
<g
   id="g26">
</g>
<g
   id="g28">
</g>
<g
   id="g30">
</g>
<g
   id="g32">
</g>
</svg>
