<?xml version="1.0" encoding="utf-8"?>
<!-- Generator: Adobe Illustrator 14.0.0, SVG Export Plug-In . SVG Version: 6.00 Build 43363)  -->
<!DOCTYPE svg PUBLIC "-//W3C//DTD SVG 1.1//EN" "http://www.w3.org/Graphics/SVG/1.1/DTD/svg11.dtd">
<svg version="1.1" id="Layer_1" xmlns="http://www.w3.org/2000/svg" xmlns:xlink="http://www.w3.org/1999/xlink" x="0px" y="0px"
	 width="24px" height="24px" viewBox="0 0 24 24" enable-background="new 0 0 24 24" xml:space="preserve">
<path fill="#D7D7D7" d="M3.59,5.875l16.781-0.073c0.889-0.004,1.607,0.713,1.605,1.602l0,0c-0.003,0.889-0.726,1.612-1.614,1.616
	L3.581,9.093C2.692,9.097,1.974,8.379,1.976,7.491l0,0C1.979,6.602,2.701,5.878,3.59,5.875z"/>
<path fill="#D7D7D7" d="M3.59,14.813l16.781-0.072c0.889-0.004,1.607,0.713,1.605,1.602l0,0c-0.003,0.889-0.726,1.612-1.614,1.616
	L3.581,18.031c-0.889,0.004-1.607-0.714-1.605-1.603l0,0C1.979,15.54,2.701,14.816,3.59,14.813z"/>
</svg>
