<?xml version="1.0" encoding="UTF-8" standalone="no"?>
<svg
   xmlns:dc="http://purl.org/dc/elements/1.1/"
   xmlns:cc="http://creativecommons.org/ns#"
   xmlns:rdf="http://www.w3.org/1999/02/22-rdf-syntax-ns#"
   xmlns:svg="http://www.w3.org/2000/svg"
   xmlns="http://www.w3.org/2000/svg"
   xmlns:sodipodi="http://sodipodi.sourceforge.net/DTD/sodipodi-0.dtd"
   xmlns:inkscape="http://www.inkscape.org/namespaces/inkscape"
   inkscape:version="1.0 (4035a4fb49, 2020-05-01)"
   sodipodi:docname="paste.svg"
   id="svg4"
   viewBox="0 0 24 24"
   height="24"
   width="24"
   version="1.1">
  <metadata
     id="metadata10">
    <rdf:RDF>
      <cc:Work
         rdf:about="">
        <dc:format>image/svg+xml</dc:format>
        <dc:type
           rdf:resource="http://purl.org/dc/dcmitype/StillImage" />
      </cc:Work>
    </rdf:RDF>
  </metadata>
  <defs
     id="defs8" />
  <sodipodi:namedview
     inkscape:current-layer="svg4"
     inkscape:window-maximized="0"
     inkscape:window-y="0"
     inkscape:window-x="0"
     inkscape:cy="12"
     inkscape:cx="12"
     inkscape:zoom="42"
     showgrid="false"
     id="namedview6"
     inkscape:window-height="1194"
     inkscape:window-width="2388"
     inkscape:pageshadow="2"
     inkscape:pageopacity="0"
     guidetolerance="10"
     gridtolerance="10"
     objecttolerance="10"
     borderopacity="1"
     bordercolor="#666666"
     pagecolor="#ffffff" />
  <path
     style="fill:#0e3a5a;fill-opacity:1"
     id="path2"
     d="M19,20H5V4H7V7H17V4H19M12,2A1,1 0 0,1 13,3A1,1 0 0,1 12,4A1,1 0 0,1 11,3A1,1 0 0,1 12,2M19,2H14.82C14.4,0.84 13.3,0 12,0C10.7,0 9.6,0.84 9.18,2H5A2,2 0 0,0 3,4V20A2,2 0 0,0 5,22H19A2,2 0 0,0 21,20V4A2,2 0 0,0 19,2Z" />
</svg>
