<?xml version="1.0" encoding="UTF-8" standalone="no"?>
<svg
   xmlns:dc="http://purl.org/dc/elements/1.1/"
   xmlns:cc="http://creativecommons.org/ns#"
   xmlns:rdf="http://www.w3.org/1999/02/22-rdf-syntax-ns#"
   xmlns:svg="http://www.w3.org/2000/svg"
   xmlns="http://www.w3.org/2000/svg"
   xmlns:sodipodi="http://sodipodi.sourceforge.net/DTD/sodipodi-0.dtd"
   xmlns:inkscape="http://www.inkscape.org/namespaces/inkscape"
   inkscape:version="1.0 (4035a4fb49, 2020-05-01)"
   sodipodi:docname="pipeline.svg"
   id="svg4"
   version="1.1"
   viewBox="0 0 24 24"
   height="24"
   width="24"
   y="0"
   x="0">
  <path
     style="fill:#53c3c4;fill-opacity:1"
     d="m 16.180733,3.9870568 c -0.225712,-9.036e-4 -0.447587,0.00881 -0.664725,0.028102 -1.737113,0.1542933 -3.205987,0.8591104 -4.164517,1.318913 C 10.345127,5.8168211 9.0772298,6.5760137 7.7423285,6.9079906 6.4074274,7.2399676 5.1288775,7.190207 3.8672819,6.0935095 A 1.0898647,1.2811267 0 1 0 2.5712276,8.1533841 C 4.4094203,9.7513061 6.4885583,9.8385761 8.1935554,9.4145593 9.8985627,8.9905413 11.35277,8.1007382 12.17503,7.7063045 13.119637,7.2531807 14.355443,6.6875118 15.680225,6.5698427 17.005,6.4521727 18.384236,6.7293394 19.831155,8.0669706 A 1.0898647,1.2811267 0 1 0 21.178446,6.0532858 C 19.528655,4.5281002 17.760694,3.9935182 16.180733,3.9870588 Z m 0,5.1239955 c -0.225712,-8.8e-4 -0.447587,0.0088 -0.664725,0.0281 -1.737113,0.154294 -3.205987,0.8591118 -4.164517,1.3189137 -1.006364,0.482749 -2.2742612,1.241941 -3.6091625,1.573918 -1.3349011,0.331976 -2.613451,0.282218 -3.8750466,-0.81448 a 1.0898647,1.2811267 0 1 0 -1.2960543,2.059877 c 1.8381927,1.597922 3.9173307,1.685194 5.6223278,1.261176 1.7050073,-0.424019 3.1592146,-1.313823 3.9814746,-1.708255 0.944607,-0.453126 2.180413,-1.018793 3.505195,-1.136462 1.324775,-0.117671 2.704011,0.159496 4.15093,1.497128 a 1.0898647,1.2811267 0 1 0 1.347291,-2.013685 C 19.528655,9.6520971 17.760694,9.1175153 16.180733,9.1110563 Z m 0,5.1239927 c -0.225712,-8.95e-4 -0.447587,0.0088 -0.664725,0.0281 -1.737113,0.154293 -3.205987,0.85911 -4.164517,1.318912 -1.006364,0.48275 -2.2742612,1.241942 -3.6091625,1.573919 -1.3349011,0.331978 -2.613451,0.282218 -3.8750466,-0.814481 a 1.0898647,1.2811267 0 1 0 -1.2960543,2.059876 c 1.8381927,1.597923 3.9173307,1.685195 5.6223278,1.261175 1.7050073,-0.424017 3.1592146,-1.31382 3.9814746,-1.708255 0.944607,-0.453124 2.180413,-1.018792 3.505195,-1.136462 1.324775,-0.117671 2.704011,0.159498 4.15093,1.497129 a 1.0898647,1.2811267 0 1 0 1.347291,-2.013685 c -1.649791,-1.525185 -3.417752,-2.059767 -4.997713,-2.066226 z"
     inkscape:connector-curvature="0"
     id="path8080-6" />
</svg>
