<?xml version="1.0" encoding="UTF-8" standalone="no"?>
<svg
   xmlns:dc="http://purl.org/dc/elements/1.1/"
   xmlns:cc="http://creativecommons.org/ns#"
   xmlns:rdf="http://www.w3.org/1999/02/22-rdf-syntax-ns#"
   xmlns:svg="http://www.w3.org/2000/svg"
   xmlns="http://www.w3.org/2000/svg"
   xmlns:sodipodi="http://sodipodi.sourceforge.net/DTD/sodipodi-0.dtd"
   xmlns:inkscape="http://www.inkscape.org/namespaces/inkscape"
   viewBox="0 0 24 24"
   width="24"
   height="24"
   y="0px"
   x="0px"
   id="svg2"
   version="1.1"
   inkscape:version="1.0 (4035a4fb49, 2020-05-01)"
   sodipodi:docname="pipeline_run_config.svg">
  <defs
     id="defs4" />
  <sodipodi:namedview
     id="base"
     pagecolor="#ffffff"
     bordercolor="#666666"
     borderopacity="1.0"
     inkscape:pageopacity="0.0"
     inkscape:pageshadow="2"
     inkscape:zoom="7.919596"
     inkscape:cx="143.85963"
     inkscape:cy="60.61772"
     inkscape:document-units="px"
     inkscape:current-layer="layer1"
     showgrid="false"
     fit-margin-top="0"
     fit-margin-left="0"
     fit-margin-right="0"
     fit-margin-bottom="0"
     inkscape:window-width="3440"
     inkscape:window-height="1387"
     inkscape:window-x="-8"
     inkscape:window-y="-8"
     inkscape:window-maximized="1"
     inkscape:snap-bbox="true"
     inkscape:bbox-paths="true"
     inkscape:bbox-nodes="true"
     inkscape:snap-bbox-edge-midpoints="true"
     inkscape:snap-bbox-midpoints="true"
     inkscape:object-paths="true"
     inkscape:snap-intersection-paths="true"
     inkscape:object-nodes="true"
     inkscape:snap-smooth-nodes="true"
     inkscape:snap-midpoints="true"
     inkscape:snap-object-midpoints="true"
     inkscape:snap-center="true"
     inkscape:snap-text-baseline="true"
     inkscape:snap-global="false"
     inkscape:document-rotation="0"
     inkscape:pagecheckerboard="false" />
  <g
     inkscape:label="Layer 1"
     inkscape:groupmode="layer"
     id="layer1"
     transform="translate(-379.90478,129.88361)">
    <path
       id="path2674"
       d="m 383.43575,-107.93557 c -0.37253,-0.0851 -0.65467,-0.23003 -0.94305,-0.48466 -0.27928,-0.24661 -0.43935,-0.48119 -0.53638,-0.786 -0.0495,-0.15581 -0.0515,-0.49045 -0.0515,-8.67683 0,-8.18638 0.001,-8.52103 0.0515,-8.67685 0.10795,-0.33915 0.36479,-0.69029 0.66872,-0.91427 0.18773,-0.13836 0.59764,-0.31846 0.83879,-0.36854 0.42761,-0.0888 0.99027,-0.0295 1.37569,0.14485 0.23315,0.10553 16.10083,8.27682 16.2519,8.36919 0.15149,0.0927 0.43051,0.35694 0.54233,0.51376 0.05,0.0702 0.13162,0.22176 0.18107,0.3366 0.0872,0.20247 0.09,0.22048 0.09,0.59526 0,0.37514 -0.003,0.39261 -0.0905,0.5963 -0.0498,0.1155 -0.14148,0.2794 -0.20384,0.36438 -0.14224,0.19383 -0.43936,0.44843 -0.65961,0.56529 -0.62791,0.33317 -15.96646,8.22235 -16.11767,8.28991 -0.40927,0.1829 -0.94983,0.23378 -1.39754,0.13158 z"
       style="fill:#53c3c4;fill-opacity:1;stroke:none;stroke-width:0.3179;stroke-linecap:round;stroke-linejoin:round" />
  </g>
</svg>
