<?xml version="1.0" encoding="UTF-8" standalone="no"?>
<svg
   xmlns:dc="http://purl.org/dc/elements/1.1/"
   xmlns:cc="http://creativecommons.org/ns#"
   xmlns:rdf="http://www.w3.org/1999/02/22-rdf-syntax-ns#"
   xmlns:svg="http://www.w3.org/2000/svg"
   xmlns="http://www.w3.org/2000/svg"
   xmlns:sodipodi="http://sodipodi.sourceforge.net/DTD/sodipodi-0.dtd"
   xmlns:inkscape="http://www.inkscape.org/namespaces/inkscape"
   width="512"
   height="512"
   id="svg2"
   version="1.1"
   inkscape:version="1.0 (4035a4fb49, 2020-05-01)"
   sodipodi:docname="workflow_run_config.svg">
  <defs
     id="defs4" />
  <sodipodi:namedview
     id="base"
     pagecolor="#ffffff"
     bordercolor="#666666"
     borderopacity="1.0"
     inkscape:pageopacity="0.0"
     inkscape:pageshadow="2"
     inkscape:zoom="1.979899"
     inkscape:cx="529.83088"
     inkscape:cy="257.25894"
     inkscape:document-units="px"
     inkscape:current-layer="layer1"
     showgrid="false"
     fit-margin-top="0"
     fit-margin-left="0"
     fit-margin-right="0"
     fit-margin-bottom="0"
     inkscape:window-width="3440"
     inkscape:window-height="1387"
     inkscape:window-x="-8"
     inkscape:window-y="-8"
     inkscape:window-maximized="1"
     inkscape:snap-bbox="true"
     inkscape:bbox-paths="true"
     inkscape:bbox-nodes="true"
     inkscape:snap-bbox-edge-midpoints="true"
     inkscape:snap-bbox-midpoints="true"
     inkscape:object-paths="true"
     inkscape:snap-intersection-paths="true"
     inkscape:object-nodes="true"
     inkscape:snap-smooth-nodes="true"
     inkscape:snap-midpoints="true"
     inkscape:snap-object-midpoints="true"
     inkscape:snap-center="true"
     inkscape:snap-text-baseline="true"
     inkscape:snap-global="false"
     inkscape:document-rotation="0"
     inkscape:pagecheckerboard="false" />
  <metadata
     id="metadata7">
    <rdf:RDF>
      <cc:Work
         rdf:about="">
        <dc:format>image/svg+xml</dc:format>
        <dc:type
           rdf:resource="http://purl.org/dc/dcmitype/StillImage" />
        <dc:title></dc:title>
        <dc:creator>
          <cc:Agent>
            <dc:title />
          </cc:Agent>
        </dc:creator>
        <cc:license
           rdf:resource="http://creativecommons.org/publicdomain/zero/1.0/" />
        <dc:subject>
          <rdf:Bag />
        </dc:subject>
      </cc:Work>
      <cc:License
         rdf:about="http://creativecommons.org/publicdomain/zero/1.0/">
        <cc:permits
           rdf:resource="http://creativecommons.org/ns#Reproduction" />
        <cc:permits
           rdf:resource="http://creativecommons.org/ns#Distribution" />
        <cc:permits
           rdf:resource="http://creativecommons.org/ns#DerivativeWorks" />
      </cc:License>
    </rdf:RDF>
  </metadata>
  <g
     inkscape:label="Layer 1"
     inkscape:groupmode="layer"
     id="layer1"
     transform="translate(-379.90478,129.88361)">
    <path
       inkscape:connector-curvature="0"
       id="rect8091-8"
       d="m 1060.3665,6.4910838 c -4.5442,0 -9.0889,1.740233 -12.571,5.2223532 l -36.2587,36.258563 12.8525,12.85239 30.9495,-30.949574 c 1.3935,-1.393372 3.2102,-2.08855 5.0277,-2.08855 1.8179,0 3.6351,0.695637 5.028,2.08855 l 24.1926,24.192676 -13.0796,13.079954 h 39.0467 V 28.09873 l -13.1144,13.116363 -29.5019,-29.501656 c -3.4821,-3.4821202 -8.0269,-5.2223532 -12.5714,-5.2223532 z m -92.15436,57.8211822 13.1163,13.114647 -29.50181,29.501767 c -3.48217,3.48211 -5.22216,8.02678 -5.22216,12.57124 0,4.54424 1.73999,9.08906 5.22216,12.57114 l 36.25871,36.25869 12.85236,-12.8524 -30.94956,-30.94973 c -1.3933,-1.39331 -2.0885,-3.21006 -2.0885,-5.0277 0,-1.81776 0.6957,-3.63506 2.0885,-5.02783 l 24.1927,-24.192697 13.07996,13.079887 V 64.312266 Z m 163.68236,7.111169 -12.8524,12.852408 30.9497,30.949677 c 1.3934,1.39337 2.0885,3.21009 2.0885,5.02774 0,1.81788 -0.6957,3.63505 -2.0885,5.02785 l -24.1928,24.19267 -13.0799,-13.07986 v 39.047 h 39.0488 l -13.1165,-13.11463 29.5019,-29.50178 c 3.4822,-3.4821 5.2221,-8.0268 5.2221,-12.57125 0,-4.54422 -1.7399,-9.08902 -5.2221,-12.57114 z M 1004.4257,172.60572 v 39.04873 l 13.1146,-13.11637 29.5017,29.5019 c 3.4822,3.48209 8.0268,5.22213 12.5713,5.22213 4.5442,0 9.089,-1.74004 12.5711,-5.22213 l 36.2587,-36.25879 -12.8525,-12.85241 -30.9497,30.94971 c -1.3933,1.39337 -3.21,2.08842 -5.0276,2.08842 -1.818,0 -3.6351,-0.69564 -5.0278,-2.08842 l -24.1928,-24.19279 13.08,-13.07998 z"
       style="color:#000000;clip-rule:nonzero;display:inline;overflow:visible;visibility:visible;opacity:1;isolation:auto;mix-blend-mode:normal;color-interpolation:sRGB;color-interpolation-filters:linearRGB;solid-color:#000000;solid-opacity:1;fill:#c9e8fb;fill-opacity:0.811765;fill-rule:nonzero;stroke:none;stroke-width:23.111;stroke-linecap:round;stroke-linejoin:round;stroke-miterlimit:4;stroke-dasharray:none;stroke-dashoffset:0;stroke-opacity:1;color-rendering:auto;image-rendering:auto;shape-rendering:auto;text-rendering:auto;enable-background:accumulate" />
    <path
       style="color:#000000;font-style:normal;font-variant:normal;font-weight:normal;font-stretch:normal;font-size:medium;line-height:normal;font-family:sans-serif;text-indent:0;text-align:start;text-decoration:none;text-decoration-line:none;text-decoration-style:solid;text-decoration-color:#000000;letter-spacing:normal;word-spacing:normal;text-transform:none;writing-mode:lr-tb;direction:ltr;baseline-shift:baseline;text-anchor:start;white-space:normal;clip-rule:nonzero;display:inline;overflow:visible;visibility:visible;opacity:1;isolation:auto;mix-blend-mode:normal;color-interpolation:sRGB;color-interpolation-filters:linearRGB;solid-color:#000000;solid-opacity:1;fill:#53c3c4;fill-opacity:1;fill-rule:evenodd;stroke:none;stroke-width:21.2601;stroke-linecap:round;stroke-linejoin:miter;stroke-miterlimit:4;stroke-dasharray:none;stroke-dashoffset:0;stroke-opacity:1;color-rendering:auto;image-rendering:auto;shape-rendering:auto;text-rendering:auto;enable-background:accumulate"
       d="m 1418.4084,23.616326 c -2.0302,-0.008 -4.0259,0.08099 -5.9789,0.252887 -15.6247,1.388496 -28.8367,7.731378 -37.4583,11.869261 -9.0519,4.344405 -20.4561,11.176572 -32.463,14.164161 -12.007,2.987583 -23.507,2.539774 -34.8547,-7.329743 a 9.8029253,11.529232 0 1 0 -11.6574,18.537456 c 16.5338,14.380162 35.2348,15.165522 50.5706,11.349645 15.336,-3.815883 28.4161,-11.823467 35.812,-15.37305 8.4963,-4.077842 19.6119,-9.168474 31.5278,-10.227415 11.916,-1.058951 24.3216,1.435386 37.3361,13.473101 A 9.8029253,11.529232 0 1 0 1463.361,42.21094 c -14.8392,-13.725632 -30.7414,-18.536473 -44.9526,-18.594614 z m 0,46.112295 c -2.0302,-0.008 -4.0259,0.08099 -5.9789,0.252872 -15.6247,1.388599 -28.8367,7.731477 -37.4583,11.869347 -9.0519,4.34442 -20.4561,11.17659 -32.463,14.16416 -12.007,2.98751 -23.507,2.5397 -34.8547,-7.32973 a 9.8029253,11.529232 0 1 0 -11.6574,18.53737 c 16.5338,14.38014 35.2348,15.16561 50.5706,11.34973 15.336,-3.81588 28.4161,-11.82346 35.812,-15.37313 8.4963,-4.07777 19.6119,-9.1684 31.5278,-10.22734 11.916,-1.05895 24.3216,1.43539 37.3361,13.4731 a 9.8029253,11.529232 0 1 0 12.1184,-18.12177 c -14.8392,-13.72555 -30.7414,-18.536388 -44.9526,-18.594521 z m 0,46.112379 c -2.0302,-0.008 -4.0259,0.081 -5.9789,0.25287 -15.6247,1.38851 -28.8367,7.73138 -37.4583,11.86925 -9.0519,4.34442 -20.4561,11.17659 -32.463,14.16417 -12.007,2.9875 -23.507,2.53969 -34.8547,-7.32973 a 9.8029253,11.529232 0 1 0 -11.6574,18.53736 c 16.5338,14.38014 35.2348,15.16561 50.5706,11.34972 15.336,-3.81587 28.4161,-11.82345 35.812,-15.37312 8.4963,-4.07777 19.6119,-9.16838 31.5278,-10.22733 11.916,-1.05895 24.3216,1.43538 37.3361,13.4731 a 9.8029253,11.529232 0 1 0 12.1184,-18.12179 c -14.8392,-13.72553 -30.7414,-18.53637 -44.9526,-18.5945 z"
       id="path8080-6-5"
       inkscape:connector-curvature="0" />
    <path
       id="path2674"
       d="m 487.2394,319.28472 c -6.6979,-1.72238 -11.7705,-4.6596 -16.9554,-9.81772 -5.0212,-4.9954 -7.8994,-9.74719 -9.6438,-15.92158 -0.8917,-3.15638 -0.9275,-9.93518 -0.9275,-175.76655 0,-165.831356 0.036,-172.610151 0.9275,-175.766531 1.941,-6.870523 6.5584,-13.983294 12.0229,-18.520664 3.3754,-2.802658 10.7455,-6.450934 15.0813,-7.465348 7.6882,-1.798751 17.8044,-0.598649 24.7341,2.934253 4.192,2.137206 289.4849,167.663207 292.2013,169.534287 2.724,1.876311 7.7406,7.230659 9.7507,10.407159 0.9011,1.423874 2.3663,4.492214 3.2561,6.818524 1.5688,4.10165 1.6177,4.46654 1.6177,12.05832 0,7.59932 -0.048,7.95323 -1.6255,12.07947 -0.894,2.33793 -2.5432,5.65933 -3.6648,7.3809 -2.5581,3.92632 -7.8998,9.08415 -11.8596,11.45129 -11.2895,6.74888 -287.0695,166.56002 -289.788,167.92861 -7.3587,3.70462 -17.0773,4.73561 -25.127,2.66558 z"
       style="fill:#53c3c4;fill-opacity:1;stroke:none;stroke-width:6.06688;stroke-linecap:round;stroke-linejoin:round" />
  </g>
</svg>
