<?xml version="1.0" encoding="UTF-8" standalone="no"?>
<svg
   xmlns:dc="http://purl.org/dc/elements/1.1/"
   xmlns:cc="http://creativecommons.org/ns#"
   xmlns:rdf="http://www.w3.org/1999/02/22-rdf-syntax-ns#"
   xmlns:svg="http://www.w3.org/2000/svg"
   xmlns="http://www.w3.org/2000/svg"
   xmlns:sodipodi="http://sodipodi.sourceforge.net/DTD/sodipodi-0.dtd"
   xmlns:inkscape="http://www.inkscape.org/namespaces/inkscape"
   x="0"
   y="0"
   width="24"
   height="24"
   viewBox="0 0 24 24"
   version="1.1"
   id="svg4"
   sodipodi:docname="pipeline.svg"
   inkscape:version="1.0 (4035a4fb49, 2020-05-01)">
  <path
     id="path8080-6"
     inkscape:connector-curvature="0"
     d="M 16.429312,4.0000578 C 16.197707,3.9991511 15.97004,4.0089289 15.747233,4.0283484 13.964768,4.1836831 12.457545,4.8932535 11.47399,5.356157 10.441352,5.8421621 9.140353,6.6064747 7.7706006,6.9406904 6.4008484,7.2749063 5.0889186,7.2248101 3.7943857,6.1207164 A 1.1183185,1.2897667 0 1 0 2.4644945,8.1944829 C 4.3506781,9.8031814 6.4840974,9.8910392 8.233608,9.4641636 9.983129,9.0372856 11.475303,8.141482 12.31903,7.7443882 13.288298,7.2882085 14.556368,6.7187247 15.915737,6.600262 17.275099,6.4817985 18.690344,6.7608344 20.175038,8.1074866 A 1.1183185,1.2897667 0 1 0 21.557504,6.0802214 C 19.864641,4.54475 18.050522,4.0065628 16.429312,4.0000597 Z m 0,5.1585519 c -0.231605,-8.8e-4 -0.459272,0.00885 -0.682079,0.028288 -1.782465,0.1553352 -3.289688,0.8649053 -4.273243,1.3278093 -1.032638,0.486005 -2.333637,1.250316 -3.7033894,1.584533 -1.3697522,0.334215 -2.681682,0.28412 -3.9762149,-0.819972 a 1.1183185,1.2897667 0 1 0 -1.3298912,2.073769 c 1.8861836,1.608696 4.0196029,1.696559 5.7691135,1.26968 1.749521,-0.426878 3.241695,-1.322683 4.085422,-1.719775 0.969268,-0.456182 2.237338,-1.025664 3.596707,-1.144127 1.359362,-0.118464 2.774607,0.160573 4.259301,1.507225 a 1.1183185,1.2897667 0 1 0 1.382466,-2.027265 C 19.864641,9.7033032 18.050522,9.1651161 16.429312,9.1586137 Z m 0,5.1585483 c -0.231605,-8.8e-4 -0.459272,0.0089 -0.682079,0.02829 -1.782465,0.155335 -3.289688,0.864905 -4.273243,1.327808 -1.032638,0.486002 -2.333637,1.250314 -3.7033894,1.58453 -1.3697522,0.334217 -2.681682,0.284122 -3.9762149,-0.819974 A 1.1183185,1.2897667 0 1 0 2.4644945,18.51158 c 1.8861836,1.6087 4.0196029,1.69656 5.7691135,1.269681 1.749521,-0.426877 3.241695,-1.322681 4.085422,-1.719776 0.969268,-0.45618 2.237338,-1.025663 3.596707,-1.144126 1.359362,-0.118465 2.774607,0.160573 4.259301,1.507226 a 1.1183185,1.2897667 0 1 0 1.382466,-2.027266 c -1.692863,-1.535471 -3.506982,-2.073658 -5.128192,-2.080161 z"
     style="fill:#53c3c4;fill-opacity:1;stroke-width:1.01638" />
</svg>
