<?xml version="1.0" encoding="utf-8"?>
<svg xmlns="http://www.w3.org/2000/svg" width="24" height="24">
    <path d="M16.429 4a7.52 7.52 0 0 0-.682.028c-1.782.155-3.29.865-4.273 1.328-1.033.486-2.334 1.25-3.703 1.585s-2.682.284-3.976-.82a1.118 1.29 0 1 0-1.33 2.074c1.886 1.609 4.02 1.697 5.769 1.27s3.242-1.323 4.085-1.72c.969-.456 2.237-1.026 3.597-1.144s2.775.161 4.259 1.507a1.118 1.29 0 1 0 1.382-2.027C19.865 4.545 18.051 4.007 16.429 4zm0 5.159a7.52 7.52 0 0 0-.682.028c-1.782.155-3.29.865-4.273 1.328-1.033.486-2.334 1.25-3.703 1.585s-2.682.284-3.976-.82a1.118 1.29 0 1 0-1.33 2.074c1.886 1.609 4.02 1.697 5.769 1.27s3.242-1.323 4.085-1.72c.969-.456 2.237-1.026 3.597-1.144s2.775.161 4.259 1.507a1.118 1.29 0 1 0 1.382-2.027c-1.693-1.535-3.507-2.074-5.128-2.08zm0 5.159a7.54 7.54 0 0 0-.682.028c-1.782.155-3.29.865-4.273 1.328-1.033.486-2.334 1.25-3.703 1.585s-2.682.284-3.976-.82a1.118 1.29 0 1 0-1.33 2.074c1.886 1.609 4.02 1.697 5.769 1.27s3.242-1.323 4.085-1.72c.969-.456 2.237-1.026 3.597-1.144s2.775.161 4.259 1.507a1.118 1.29 0 1 0 1.382-2.027c-1.693-1.535-3.507-2.074-5.128-2.08z"
          fill="#53c3c4"/>
</svg>
