<?xml version="1.0" encoding="utf-8"?>
<svg xmlns="http://www.w3.org/2000/svg" width="24" height="24">
    <path d="M3.531 21.948c-.373-.085-.655-.23-.943-.485-.279-.247-.439-.481-.536-.786-.05-.156-.051-.49-.051-8.677l.051-8.677c.108-.339.365-.69.669-.914.188-.138.598-.318.839-.369a2.45 2.45 0 0 1 1.376.145 4304.25 4304.25 0 0 1 16.252 8.369c.151.093.431.357.542.514.05.07.132.222.181.337.087.202.09.22.09.595s-.003.393-.091.596a2.25 2.25 0 0 1-.204.364c-.142.194-.439.448-.66.565l-16.118 8.29a2.34 2.34 0 0 1-1.398.132z"
          fill="#53c3c4"/>
</svg>
