<?xml version="1.0" encoding="UTF-8" standalone="no"?>
<svg
   xmlns:dc="http://purl.org/dc/elements/1.1/"
   xmlns:cc="http://creativecommons.org/ns#"
   xmlns:rdf="http://www.w3.org/1999/02/22-rdf-syntax-ns#"
   xmlns:svg="http://www.w3.org/2000/svg"
   xmlns="http://www.w3.org/2000/svg"
   xmlns:sodipodi="http://sodipodi.sourceforge.net/DTD/sodipodi-0.dtd"
   xmlns:inkscape="http://www.inkscape.org/namespaces/inkscape"
   sodipodi:docname="pipeline_run_config.svg"
   inkscape:version="1.0 (4035a4fb49, 2020-05-01)"
   version="1.1"
   id="svg2"
   x="0px"
   y="0px"
   height="24"
   width="24"
   viewBox="0 0 24 24">
  <defs
     id="defs4" />
  <sodipodi:namedview
     inkscape:pagecheckerboard="false"
     inkscape:document-rotation="0"
     inkscape:snap-global="false"
     inkscape:snap-text-baseline="true"
     inkscape:snap-center="true"
     inkscape:snap-object-midpoints="true"
     inkscape:snap-midpoints="true"
     inkscape:snap-smooth-nodes="true"
     inkscape:object-nodes="true"
     inkscape:snap-intersection-paths="true"
     inkscape:object-paths="true"
     inkscape:snap-bbox-midpoints="true"
     inkscape:snap-bbox-edge-midpoints="true"
     inkscape:bbox-nodes="true"
     inkscape:bbox-paths="true"
     inkscape:snap-bbox="true"
     inkscape:window-maximized="1"
     inkscape:window-y="-8"
     inkscape:window-x="-8"
     inkscape:window-height="1387"
     inkscape:window-width="3440"
     fit-margin-bottom="0"
     fit-margin-right="0"
     fit-margin-left="0"
     fit-margin-top="0"
     showgrid="false"
     inkscape:current-layer="layer1"
     inkscape:document-units="px"
     inkscape:cy="60.61772"
     inkscape:cx="143.85963"
     inkscape:zoom="7.919596"
     inkscape:pageshadow="2"
     inkscape:pageopacity="0.0"
     borderopacity="1.0"
     bordercolor="#666666"
     pagecolor="#ffffff"
     id="base" />
  <metadata
     id="metadata7">
    <rdf:RDF>
      <cc:Work
         rdf:about="">
        <dc:format>image/svg+xml</dc:format>
        <dc:type
           rdf:resource="http://purl.org/dc/dcmitype/StillImage" />
        <dc:title></dc:title>
        <dc:creator>
          <cc:Agent>
            <dc:title />
          </cc:Agent>
        </dc:creator>
        <cc:license
           rdf:resource="http://creativecommons.org/publicdomain/zero/1.0/" />
        <dc:subject>
          <rdf:Bag />
        </dc:subject>
      </cc:Work>
      <cc:License
         rdf:about="http://creativecommons.org/publicdomain/zero/1.0/">
        <cc:permits
           rdf:resource="http://creativecommons.org/ns#Reproduction" />
        <cc:permits
           rdf:resource="http://creativecommons.org/ns#Distribution" />
        <cc:permits
           rdf:resource="http://creativecommons.org/ns#DerivativeWorks" />
      </cc:License>
    </rdf:RDF>
  </metadata>
  <g
     transform="translate(-379.90478,129.88361)"
     id="layer1"
     inkscape:groupmode="layer"
     inkscape:label="Layer 1">
    <path
       style="fill:#53c3c4;fill-opacity:1;stroke:none;stroke-width:0.249449;stroke-linecap:round;stroke-linejoin:round"
       d="m 386.46308,-109.48308 c -0.27539,-0.0709 -0.48396,-0.19159 -0.69715,-0.40367 -0.20646,-0.2054 -0.32479,-0.40078 -0.39652,-0.65465 -0.0366,-0.12977 -0.0381,-0.40849 -0.0381,-7.22687 0,-6.81838 0.001,-7.09711 0.0381,-7.22689 0.0798,-0.28248 0.26967,-0.57494 0.49435,-0.76149 0.13878,-0.11524 0.44181,-0.26524 0.62008,-0.30695 0.31611,-0.074 0.73206,-0.0246 1.01698,0.12064 0.17236,0.0879 11.90257,6.89371 12.01425,6.97064 0.11199,0.0772 0.31826,0.29729 0.40092,0.42791 0.037,0.0585 0.0973,0.1847 0.13386,0.28035 0.0645,0.16864 0.0665,0.18364 0.0665,0.49579 0,0.31245 -0.002,0.327 -0.0669,0.49665 -0.0368,0.0962 -0.10459,0.23271 -0.15069,0.30349 -0.10515,0.16144 -0.3248,0.3735 -0.48762,0.47083 -0.46418,0.27749 -11.80324,6.84834 -11.91502,6.90461 -0.30255,0.15233 -0.70216,0.19471 -1.03313,0.10959 z"
       id="path2674" />
  </g>
</svg>
