<?xml version="1.0" encoding="UTF-8" standalone="no"?>
<svg
   xmlns:svg="http://www.w3.org/2000/svg"
   xmlns="http://www.w3.org/2000/svg"
   viewBox="0 0 24 24"
   height="24"
   width="24"
   version="1.1">
  <path
     style="fill:#0e3a5a;fill-opacity:1;stroke-width:1.18924"
     d="m 24.023809,13.696428 c 0,2.074287 -1.559999,3.795 -3.6,4.077858 v 3.582857 a 2.4,2.3571429 0 0 1 -2.4,2.357143 H 13.46381 v -0.353571 a 3.24,3.1821429 0 0 0 -3.240001,-3.182144 c -1.7999994,0 -3.2399995,1.426072 -3.2399995,3.182144 v 0.353571 h -4.56 A 2.4,2.3571429 0 0 1 0.02380952,21.357143 v -4.478572 h 0.36000001 c 1.78799997,0 3.24000007,-1.414285 3.24000007,-3.182143 0,-1.767857 -1.4520001,-3.182142 -3.24000007,-3.182142 H 0.02380952 V 6.0357143 A 2.4,2.3571429 0 0 1 2.4238095,3.6785714 h 3.648 c 0.288,-2.0035714 2.04,-3.53571426 4.1519995,-3.53571426 2.112001,0 3.864001,1.53214286 4.152,3.53571426 h 3.648 a 2.4,2.3571429 0 0 1 2.4,2.3571429 v 3.5828571 c 2.040001,0.2828571 3.6,2.0035716 3.6,4.0778566 m -6,1.767858 H 19.82381 A 1.8,1.7678571 0 0 0 21.623809,13.696428 1.8,1.7678571 0 0 0 19.82381,11.928571 H 18.023809 V 6.0357143 H 12.02381 V 4.2678571 A 1.8,1.7678571 0 0 0 10.223809,2.5 1.8,1.7678571 0 0 0 8.4238096,4.2678571 V 6.0357143 H 2.4238095 v 2.4985715 c 2.112,0.8014285 3.6000001,2.8050002 3.6000001,5.1621422 0,2.357143 -1.5,4.360715 -3.6000001,5.162143 v 2.498572 h 2.544 c 0.8160001,-2.0625 2.856,-3.535715 5.2559995,-3.535715 2.400001,0 4.440001,1.473215 5.256001,3.535715 h 2.543999 z" />
  <path
     d="m 2.4380952,20.111112 v -1.231999 l 0.407143,-0.196497 C 4.0445232,18.10381 4.9390137,17.217181 5.4981112,16.053062 6.336834,14.306721 6.1764493,12.212807 5.0811732,10.609694 4.5170068,9.7839463 3.7634164,9.1444673 2.8309523,8.7002104 L 2.4380952,8.5130399 V 7.2813924 6.049745 h 3.0000001 3 V 5.0580602 c 0,-0.8951381 0.00548,-1.0127491 0.056343,-1.2080493 0.2455349,-0.9428891 1.2122282,-1.5174117 2.1548137,-1.2806436 0.649911,0.1632508 1.13771,0.6423393 1.303929,1.2806436 0.05085,0.1953002 0.05634,0.3129112 0.05634,1.2080493 V 6.049745 h 3.000001 2.999999 v 2.9464285 2.9464285 h 1.009716 c 0.911414,0 1.031162,0.0055 1.230013,0.05533 0.64991,0.163252 1.137709,0.642339 1.303929,1.280645 0.241072,0.925754 -0.343896,1.875184 -1.303929,2.116335 -0.198851,0.04995 -0.318599,0.05534 -1.230013,0.05534 h -1.009716 v 2.946429 2.946429 h -1.25303 -1.25303 L 15.301828,20.94324 C 15.190928,20.72331 15.022387,20.429171 14.927293,20.289598 13.972075,18.887592 12.467712,18.002671 10.756497,17.836185 8.9413378,17.659586 7.0868215,18.399553 5.922729,19.764897 5.6016298,20.141508 5.3829569,20.473186 5.1458567,20.94324 L 4.9441566,21.343112 H 3.6911259 2.4380952 Z"
     style="fill:#c9e8fb;fill-opacity:0.811765;stroke:#0e3a5a;stroke-width:0.340118;stroke-linecap:round;stroke-linejoin:round" />
</svg>
