<?xml version="1.0" encoding="UTF-8" standalone="no"?>
<!-- Generator: Adobe Illustrator 17.0.0, SVG Export Plug-In . SVG Version: 6.00 Build 0)  -->

<svg
   xmlns:dc="http://purl.org/dc/elements/1.1/"
   xmlns:cc="http://creativecommons.org/ns#"
   xmlns:rdf="http://www.w3.org/1999/02/22-rdf-syntax-ns#"
   xmlns="http://www.w3.org/2000/svg"
   xmlns:sodipodi="http://sodipodi.sourceforge.net/DTD/sodipodi-0.dtd"
   xmlns:inkscape="http://www.inkscape.org/namespaces/inkscape"
   version="1.1"
   id="Layer_1"
   x="0px"
   y="0px"
   width="42px"
   height="42px"
   viewBox="0 0 42 42"
   enable-background="new 0 0 42 42"
   xml:space="preserve"
   sodipodi:docname="Plugin_inactive.svg"
   inkscape:version="0.92.4 (5da689c313, 2019-01-14)"><metadata
   id="metadata15"><rdf:RDF><cc:Work
       rdf:about=""><dc:format>image/svg+xml</dc:format><dc:type
         rdf:resource="http://purl.org/dc/dcmitype/StillImage" /><dc:title /></cc:Work></rdf:RDF></metadata><defs
   id="defs13">
	
  
  
</defs><sodipodi:namedview
   pagecolor="#ffffff"
   bordercolor="#666666"
   borderopacity="1"
   objecttolerance="10"
   gridtolerance="10"
   guidetolerance="10"
   inkscape:pageopacity="0"
   inkscape:pageshadow="2"
   inkscape:window-width="640"
   inkscape:window-height="480"
   id="namedview11"
   showgrid="false"
   inkscape:zoom="222.625"
   inkscape:cx="11.664211"
   inkscape:cy="21"
   inkscape:current-layer="Layer_1" />
<polygon
   style="fill:#c9e8fb"
   id="polygon2"
   points="" /><path
   style="fill:#c9e8fb;fill-opacity:0.70588237"
   inkscape:connector-curvature="0"
   id="path4"
   d="m 26.346,24.015 c 0.089,0.078 0.163,0.16 0.234,0.252 0.454,0.479 1.046,0.895 1.707,1.172 0.631,0.266 1.301,0.4 1.992,0.4 2.835,0 5.141,-2.306 5.141,-5.141 0,-2.835 -2.306,-5.141 -5.141,-5.141 -0.689,0 -1.359,0.135 -1.992,0.4 -0.639,0.269 -1.215,0.667 -1.71,1.183 -0.08,0.104 -0.165,0.193 -0.258,0.271 -0.332,0.274 -0.718,0.417 -1.122,0.417 -0.936,0 -1.707,-0.736 -1.756,-1.676 L 23.44,16.013 V 6.958 H 8.081 v 8.678 c 0.148,-0.079 0.299,-0.151 0.454,-0.216 0.705,-0.296 1.451,-0.446 2.218,-0.446 3.156,0 5.724,2.568 5.724,5.724 0,3.156 -2.568,5.724 -5.724,5.724 -0.769,0 -1.515,-0.15 -2.218,-0.447 C 8.381,25.911 8.229,25.839 8.082,25.76 v 9.282 H 23.44 l 10e-4,-9.791 c 0.049,-0.94 0.82,-1.676 1.756,-1.676 0.42,0.001 0.817,0.152 1.149,0.44 z" /><path
   style="fill:#0e3a5a;fill-opacity:0.47058824"
   inkscape:connector-curvature="0"
   id="path6"
   d="m 30.279,13.857 c -0.917,0 -1.808,0.18 -2.651,0.533 -0.873,0.368 -1.654,0.912 -2.32,1.617 L 25.197,16.129 25.14,16.014 V 5.258 H 6.381 v 14.2 l 1.464,-1.531 c 0.395,-0.413 0.849,-0.729 1.349,-0.939 0.495,-0.208 1.019,-0.313 1.559,-0.313 2.219,0 4.023,1.805 4.023,4.023 0,2.218 -1.805,4.023 -4.023,4.023 -0.541,0 -1.065,-0.105 -1.559,-0.313 C 8.695,24.199 8.242,23.882 7.847,23.467 L 6.381,21.928 V 36.742 H 25.14 V 25.391 l -0.85,-0.095 v 0 0 l 0.928,-0.011 0.069,0.083 c 0.671,0.717 1.459,1.269 2.341,1.639 0.84,0.354 1.732,0.534 2.651,0.534 3.772,0 6.841,-3.069 6.841,-6.841 0,-3.772 -3.069,-6.843 -6.841,-6.843 z M 23.441,25.251 23.44,35.042 H 8.081 V 25.76 c 0.147,0.079 0.299,0.15 0.453,0.215 0.703,0.296 1.45,0.447 2.218,0.447 3.156,0 5.724,-2.568 5.724,-5.724 0,-3.156 -2.568,-5.724 -5.724,-5.724 -0.767,0 -1.513,0.15 -2.218,0.446 C 8.38,15.485 8.228,15.557 8.08,15.636 V 6.958 h 15.358 v 9.055 l 0.001,0.139 c 0.049,0.94 0.82,1.676 1.756,1.676 0.403,0 0.79,-0.144 1.122,-0.417 0.093,-0.078 0.178,-0.167 0.258,-0.271 0.496,-0.516 1.071,-0.914 1.71,-1.183 0.633,-0.266 1.303,-0.4 1.992,-0.4 2.835,0 5.141,2.306 5.141,5.141 0,2.835 -2.306,5.141 -5.141,5.141 -0.691,0 -1.361,-0.134 -1.992,-0.4 -0.661,-0.277 -1.252,-0.692 -1.707,-1.172 -0.071,-0.092 -0.145,-0.174 -0.234,-0.252 -0.332,-0.287 -0.729,-0.439 -1.149,-0.439 -0.934,0 -1.705,0.735 -1.754,1.675 z" />
</svg>