<?xml version="1.0" encoding="UTF-8" standalone="no"?>
<svg
    xmlns="http://www.w3.org/2000/svg"
    id="svg38"
    version="1.1"
    viewBox="0 0 79.500755 77.375542"
    height="77.375542"
    width="79.500755"
>

  <g transform="translate(81.134784,81.112433)">
    <polygon
        style="fill:#0e3a5a;fill-opacity:1"
        points="-259,407.1 -259,402.4 -250.8,410.5 -249.6,409.3 -257.8,401.2 -253.1,401.2 -253.1,399.5 -260.7,399.5 -260.7,407.1 "
        class="st0"
        transform="matrix(2.5533064,0,0,2.516185,630.13517,-1041.3501)"/>
    <polygon
        style="fill:#0e3a5a;fill-opacity:1"
        points="-267,402.4 -267,407.1 -265.3,407.1 -265.3,399.5 -272.9,399.5 -272.9,401.2 -268.2,401.2 -276.4,409.3 -275.2,410.5 "
        class="st0"
        transform="matrix(2.5533064,0,0,2.516185,630.13517,-1041.3501)"/>
    <polygon
        style="fill:#0e3a5a;fill-opacity:1"
        points="-259,391.6 -259,386.9 -260.7,386.9 -260.7,394.5 -253.1,394.5 -253.1,392.8 -257.8,392.8 -249.6,384.7 -250.8,383.5 "
        class="st0"
        transform="matrix(2.5533064,0,0,2.516185,630.13517,-1041.3501)"/>
    <polygon
        style="fill:#0e3a5a;fill-opacity:1"
        points="-272.9,392.8 -272.9,394.5 -265.3,394.5 -265.3,386.9 -267,386.9 -267,391.6 -275.2,383.5 -276.4,384.7 -268.2,392.8 "
        class="st0"
        transform="matrix(2.5533064,0,0,2.516185,630.13517,-1041.3501)"/>
  </g>
</svg>
