<?xml version="1.0" encoding="UTF-8" standalone="no"?>
<!-- Generator: Adobe Illustrator 19.1.0, SVG Export Plug-In . SVG Version: 6.00 Build 0)  -->

<svg
   xmlns:dc="http://purl.org/dc/elements/1.1/"
   xmlns:cc="http://creativecommons.org/ns#"
   xmlns:rdf="http://www.w3.org/1999/02/22-rdf-syntax-ns#"
   xmlns:svg="http://www.w3.org/2000/svg"
   xmlns="http://www.w3.org/2000/svg"
   xmlns:sodipodi="http://sodipodi.sourceforge.net/DTD/sodipodi-0.dtd"
   xmlns:inkscape="http://www.inkscape.org/namespaces/inkscape"
   version="1.1"
   id="Layer_1"
   x="0px"
   y="0px"
   viewBox="-284 376 42 42"
   style="enable-background:new -284 376 42 42;"
   xml:space="preserve"
   sodipodi:docname="PPL.svg"
   inkscape:version="0.92.4 (5da689c313, 2019-01-14)"><metadata
   id="metadata19"><rdf:RDF><cc:Work
       rdf:about=""><dc:format>image/svg+xml</dc:format><dc:type
         rdf:resource="http://purl.org/dc/dcmitype/StillImage" /></cc:Work></rdf:RDF></metadata><defs
   id="defs17">
	
    
    
    
</defs><sodipodi:namedview
   pagecolor="#ffffff"
   bordercolor="#666666"
   borderopacity="1"
   objecttolerance="10"
   gridtolerance="10"
   guidetolerance="10"
   inkscape:pageopacity="0"
   inkscape:pageshadow="2"
   inkscape:window-width="640"
   inkscape:window-height="480"
   id="namedview15"
   showgrid="false"
   inkscape:zoom="38.587054"
   inkscape:cx="13.186499"
   inkscape:cy="21"
   inkscape:current-layer="Layer_1" />
<style
   type="text/css"
   id="style2">
	.st0{fill:#1CB24B;}
</style>
  <polygon
   style="fill:#0e3a5a;fill-opacity:1"
   id="polygon4"
   points="-260.7,399.5 -260.7,407.1 -259,407.1 -259,402.4 -250.8,410.5 -249.6,409.3 -257.8,401.2 -253.1,401.2 -253.1,399.5 "
   class="st0" /><polygon
   style="fill:#0e3a5a;fill-opacity:1"
   id="polygon6"
   points="-276.4,409.3 -275.2,410.5 -267,402.4 -267,407.1 -265.3,407.1 -265.3,399.5 -272.9,399.5 -272.9,401.2 -268.2,401.2 "
   class="st0" /><polygon
   style="fill:#0e3a5a;fill-opacity:1"
   id="polygon8"
   points="-249.6,384.7 -250.8,383.5 -259,391.6 -259,386.9 -260.7,386.9 -260.7,394.5 -253.1,394.5 -253.1,392.8 -257.8,392.8 "
   class="st0" /><polygon
   style="fill:#0e3a5a;fill-opacity:1"
   id="polygon10"
   points="-276.4,384.7 -268.2,392.8 -272.9,392.8 -272.9,394.5 -265.3,394.5 -265.3,386.9 -267,386.9 -267,391.6 -275.2,383.5 "
   class="st0" />
</svg>