<?xml version="1.0" encoding="UTF-8" standalone="no"?>
<svg
   xmlns:dc="http://purl.org/dc/elements/1.1/"
   xmlns:cc="http://creativecommons.org/ns#"
   xmlns:rdf="http://www.w3.org/1999/02/22-rdf-syntax-ns#"
   xmlns:svg="http://www.w3.org/2000/svg"
   xmlns="http://www.w3.org/2000/svg"
   xmlns:sodipodi="http://sodipodi.sourceforge.net/DTD/sodipodi-0.dtd"
   xmlns:inkscape="http://www.inkscape.org/namespaces/inkscape"
   inkscape:version="1.0 (4035a4fb49, 2020-05-01)"
   sodipodi:docname="preview.svg"
   id="svg6"
   version="1.1"
   viewBox="0 0 16 16"
   class="bi bi-eye-fill"
   fill="currentColor"
   height="16"
   width="16">
  <metadata
     id="metadata12">
    <rdf:RDF>
      <cc:Work
         rdf:about="">
        <dc:format>image/svg+xml</dc:format>
        <dc:type
           rdf:resource="http://purl.org/dc/dcmitype/StillImage" />
      </cc:Work>
    </rdf:RDF>
  </metadata>
  <defs
     id="defs10" />
  <sodipodi:namedview
     inkscape:current-layer="svg6"
     inkscape:window-maximized="0"
     inkscape:window-y="0"
     inkscape:window-x="0"
     inkscape:cy="8"
     inkscape:cx="8"
     inkscape:zoom="63"
     showgrid="false"
     id="namedview8"
     inkscape:window-height="1114"
     inkscape:window-width="2198"
     inkscape:pageshadow="2"
     inkscape:pageopacity="0"
     guidetolerance="10"
     gridtolerance="10"
     objecttolerance="10"
     borderopacity="1"
     bordercolor="#666666"
     pagecolor="#ffffff" />
  <path
     style="fill:#0e3a5a;fill-opacity:1"
     id="path2"
     d="m 10.5,8 a 2.5,2.5 0 1 1 -5,0 2.5,2.5 0 0 1 5,0 z" />
  <path
     style="fill:#0e3a5a;fill-opacity:1"
     id="path4"
     d="M 0,8 C 0,8 3,2.5 8,2.5 13,2.5 16,8 16,8 16,8 13,13.5 8,13.5 3,13.5 0,8 0,8 Z m 8,3.5 a 3.5,3.5 0 1 0 0,-7 3.5,3.5 0 0 0 0,7 z"
     fill-rule="evenodd" />
</svg>
