<?xml version="1.0" encoding="UTF-8" standalone="no"?>
<svg
   xmlns:dc="http://purl.org/dc/elements/1.1/"
   xmlns:cc="http://creativecommons.org/ns#"
   xmlns:rdf="http://www.w3.org/1999/02/22-rdf-syntax-ns#"
   xmlns:svg="http://www.w3.org/2000/svg"
   xmlns="http://www.w3.org/2000/svg"
   xmlns:sodipodi="http://sodipodi.sourceforge.net/DTD/sodipodi-0.dtd"
   xmlns:inkscape="http://www.inkscape.org/namespaces/inkscape"
   sodipodi:docname="refresh.svg"
   inkscape:version="1.0 (4035a4fb49, 2020-05-01)"
   version="1.1"
   viewBox="0 0 14 14"
   data-name="Layer 1"
   id="Layer_1">
  <metadata
     id="metadata15">
    <rdf:RDF>
      <cc:Work
         rdf:about="">
        <dc:format>image/svg+xml</dc:format>
        <dc:type
           rdf:resource="http://purl.org/dc/dcmitype/StillImage" />
        <dc:title>PDI-help-dialog-toolbar-all</dc:title>
      </cc:Work>
    </rdf:RDF>
  </metadata>
  <sodipodi:namedview
     inkscape:guide-bbox="true"
     showguides="true"
     inkscape:document-rotation="0"
     inkscape:current-layer="Layer_1"
     inkscape:window-maximized="1"
     inkscape:window-y="-8"
     inkscape:window-x="-8"
     inkscape:cy="6.9349731"
     inkscape:cx="7.0052286"
     inkscape:zoom="67.428571"
     showgrid="false"
     id="namedview13"
     inkscape:window-height="1387"
     inkscape:window-width="3440"
     inkscape:pageshadow="2"
     inkscape:pageopacity="0"
     guidetolerance="10"
     gridtolerance="10"
     objecttolerance="10"
     borderopacity="1"
     bordercolor="#666666"
     pagecolor="#ffffff" />
  <defs
     id="defs3">
    <style
       id="style5">.cls-1{fill:#0e3a5a;}</style>
  </defs>
  <title
     id="title7">PDI-help-dialog-toolbar-all</title>
  <path
     style="fill:#0e3a5a;fill-opacity:1"
     id="path9"
     d="M1.82,7A5.18,5.18,0,0,1,7,1.86,5.18,5.18,0,0,1,10.11,3L8.36,4.71h4.58V.13L11.06,2A6.42,6.42,0,0,0,7,.54,6.5,6.5,0,0,0,.5,7c0,.12,0,.24,0,.37H1.86C1.85,7.27,1.82,7.15,1.82,7Z"
     class="cls-1" />
  <path
     style="fill:#0e3a5a;fill-opacity:1"
     id="path11"
     d="M13.47,6.6H12.14c0,.13,0,.25,0,.37A5.18,5.18,0,0,1,7,12.14,5.18,5.18,0,0,1,3.89,11L5.64,9.29H1.06v4.58L2.94,12A6.42,6.42,0,0,0,7,13.46,6.5,6.5,0,0,0,13.5,7C13.5,6.85,13.48,6.73,13.47,6.6Z"
     class="cls-1" />
  <path
     inkscape:connector-curvature="0"
     id="path4157"
     d="M 0.50083429,7.2015367 C 0.5027349,6.0652661 0.7157069,5.1078641 1.1732444,4.1787599 1.5004132,3.5143905 1.8841391,2.9796209 2.412787,2.4513036 3.4436921,1.4210432 4.7130045,0.79698821 6.1843452,0.59702442 6.5128598,0.55237737 7.2182794,0.54133407 7.5747202,0.5752582 8.8040873,0.69226279 9.9923125,1.1640422 10.93143,1.9080244 l 0.131075,0.1038391 0.933014,-0.9329265 0.933015,-0.93292645 0,2.28014665 0,2.2801464 -2.275212,0 -2.2752115,0 0.3435379,-0.3383122 C 8.9105942,4.1819197 9.3004352,3.8001223 9.5879617,3.5195529 9.8754882,3.2389834 10.110737,3.0046997 10.110737,2.9989225 c 0,-0.019376 -0.331668,-0.255865 -0.5318996,-0.3792597 C 8.7867346,2.131522 7.8427852,1.858707 6.9465599,1.8588967 5.1665739,1.8592734 3.4819594,2.8245384 2.5465847,4.3800325 2.0733889,5.16694 1.7999794,6.159976 1.8258935,6.9976172 c 0.00454,0.146822 0.012614,0.2886388 0.017938,0.3151483 l 0.00968,0.048199 -0.6764714,0 -0.67647138,0 2.6667e-4,-0.159428 z"
     style="opacity:1;fill:#0e3a5a;fill-opacity:1;fill-rule:nonzero;stroke:none;stroke-width:12.01181126;stroke-linecap:round;stroke-linejoin:round;stroke-miterlimit:4;stroke-dasharray:none;stroke-opacity:1" />
  <path
     inkscape:connector-curvature="0"
     id="path4159"
     d="m 1.0641269,11.574434 0,-2.2706727 2.271653,0 2.271653,0 -0.035954,0.038728 C 5.5517045,9.3637906 5.1628192,9.7456412 4.7072897,10.191047 l -0.8282357,0.809829 0.042219,0.03398 c 0.02322,0.01869 0.105619,0.07934 0.1831084,0.134778 0.8007168,0.572882 1.7068125,0.896705 2.7039247,0.966336 0.3564269,0.02489 0.7957779,-0.01217 1.2290938,-0.103665 C 9.8200833,11.65587 11.274949,10.36662 11.86675,8.6388675 12.056569,8.0846933 12.14248,7.549111 12.142504,6.919757 l 1.3e-5,-0.3151483 0.658228,0 0.658229,0 0.0087,0.040784 c 0.0214,0.1004472 0.02733,0.5029176 0.01087,0.7378178 -0.126114,1.8002771 -0.951625,3.4193256 -2.329661,4.5690936 -0.850276,0.70943 -1.879058,1.19166 -2.9696668,1.391997 -1.4743048,0.27082 -2.9710345,0.02438 -4.2890369,-0.706196 C 3.6718404,12.517083 3.33834,12.297945 3.1247555,12.135162 3.0293197,12.062425 2.9453896,12.002914 2.9382442,12.002914 c -0.00715,0 -0.3733496,0.36081 -0.8137874,0.801801 -0.4404378,0.44099 -0.8591911,0.855483 -0.9305629,0.921096 l -0.129767,0.119295 0,-2.270672 z"
     style="opacity:1;fill:#0e3a5a;fill-opacity:1;fill-rule:nonzero;stroke:none;stroke-width:12.01181126;stroke-linecap:round;stroke-linejoin:round;stroke-miterlimit:4;stroke-dasharray:none;stroke-opacity:1" />
</svg>
