<?xml version="1.0" encoding="UTF-8" standalone="no"?>
<svg
    xmlns="http://www.w3.org/2000/svg"
    height="24"
    width="24"
    viewBox="0 0 24 24"
    version="1.1">
  <g transform="matrix(1.1477681,0,0,1.140546,-0.21503388,-1.2623631)">
    <g style="fill:#000000;fill-opacity:1;stroke:none"
       transform="matrix(0.123166,0,0,0.123166,1.2847379,17.440095)">
      <path
          d="m 83.751374,-19.287635 h -46.6875 l -4.6875,11.7187502 h 4.6875 q 6.9375,0 9.84375,2.71875 3,2.625 3,6.9375 0,4.21875 -3,6.9375
          -2.90625,2.6249998 -9.84375,2.6249998 h -25.875 q -6.9375,0 -9.84375,-2.6249998 -3,-2.71875 -3,-7.03125 0,-4.3125 3.09375,-7.03125
          3.09375,-2.71875 10.21875,-2.53125 l 30.1875,-75.1875002 h -12.5625 q -6.9375,0 -9.9375,-2.625 -2.90625,-2.71875 -2.90625,-7.03125
          0,-4.3125 2.90625,-6.9375 3,-2.718745 9.9375,-2.718745 l 41.53125,0.0937 38.249996,94.4062452 q 6.75,0 8.90625,1.5 4.3125,3.09375
          4.3125,8.15625 0,4.21875 -2.90625,6.9375 -2.90625,2.6249998 -9.84375,2.6249998 H 83.657624 q -6.9375,0 -9.9375,-2.6249998
          -2.90625,-2.71875 -2.90625,-7.03125 0,-4.21875 2.90625,-6.84375 3,-2.71875 9.9375,-2.71875 h 4.6875 z m -7.96875,-19.21875
          -15.46875,-38.0625 -15.5625,38.0625 z"
      />
    </g>
    <path style="fill:none;stroke:#000000;stroke-width:1.04574239px;stroke-linecap:butt;stroke-linejoin:miter;stroke-opacity:1"
          d="m 17.619288,2.6214499 0.09737,18.0986891"/>
    <path style="fill:none;stroke:#000000;stroke-width:0.68441802px;stroke-linecap:butt;stroke-linejoin:miter;stroke-opacity:1"
          d="m 20.032406,2.4422563 -4.981357,0.010767"/>
    <path style="fill:none;stroke:#000000;stroke-width:0.68441802px;stroke-linecap:butt;stroke-linejoin:miter;stroke-opacity:1"
          d="m 20.156766,20.623068 -4.981357,0.01077"/>
  </g>
</svg>
