<?xml version="1.0" encoding="utf-8"?>
<svg xmlns="http://www.w3.org/2000/svg" width="16" height="16">
    <g>
        <g>
            <rect fill="none" width="16" height="16"/>
        </g>
    </g>
    <g>
        <g>
            <polygon fill="#FFFFFF" points="1.1,3.8 1.1,13.9 12.5,8.9 		"/>
            <polygon fill="none" points="1.8,4.9 1.8,13.1 10.7,9 		"/>
            <path fill="#0E3A5A" d="M0,16l15-7L0,2V16z M1.8,4.9L10.7,9l-8.8,4.1V4.9z"/>
            <path fill="#0E3A5A" d="M12.3,3.8v0.3l-1.4-1.4l-1,1l3,3l3-3l-1-1l-1.4,1.4V3.8C13.7,1.7,12,0,9.9,0H5v1.3h4.8
			C11.2,1.3,12.3,2.4,12.3,3.8z"/>
        </g>
    </g>
</svg>
