<?xml version="1.0" encoding="UTF-8" standalone="no"?>
<svg
        width="16"
        height="16"
        version="1.1"
        xmlns="http://www.w3.org/2000/svg">
    <path
            fill="#D7D7D7"
            d="m 10.040337,7.008269 -6.3629999,3.692 c -0.54,0.313 -1.233,-0.066 -1.233,-0.697 v -7.384 c 0,-0.63 0.692,-1.01 1.233,-0.696 l 6.3629999,3.692 a 0.802,0.802 0 0 1 0,1.393 z"
            id="path2"
            style="fill:#D7D7D7"/>
    <path
            style="fill:#D7D7D7;fill-opacity:1;stroke-width:0.314263"
            d="m 11.488513,9.0704402 a 2.8283707,2.8283707 0 0 1 2.828371,2.8283708 h 0.94279 l -1.222484,1.222485 -0.022,0.04399 -1.269624,-1.266482 h 0.94279 a 2.1998438,2.1998438 0 0 0 -2.199844,-2.1998436 2.1998438,2.1998438 0 0 0 -2.199844,2.1998436 2.1998438,2.1998438 0 0 0 2.199844,2.199845 c 0.606529,0 1.156489,-0.248268 1.552461,-0.647384 l 0.446255,0.446255 c -0.512249,0.515392 -1.213058,0.829655 -1.998716,0.829655 A 2.8283707,2.8283707 0 0 1 8.6601421,11.898811 2.8283707,2.8283707 0 0 1 11.488513,9.0704402 Z"
            id="path2-3"/>
</svg>
