<?xml version="1.0" encoding="UTF-8" standalone="no"?>
<svg
   xmlns:dc="http://purl.org/dc/elements/1.1/"
   xmlns:cc="http://creativecommons.org/ns#"
   xmlns:rdf="http://www.w3.org/1999/02/22-rdf-syntax-ns#"
   xmlns:svg="http://www.w3.org/2000/svg"
   xmlns="http://www.w3.org/2000/svg"
   xmlns:sodipodi="http://sodipodi.sourceforge.net/DTD/sodipodi-0.dtd"
   xmlns:inkscape="http://www.inkscape.org/namespaces/inkscape"
   inkscape:version="1.0 (4035a4fb49, 2020-05-01)"
   sodipodi:docname="save-as.svg"
   id="svg4"
   viewBox="0 0 24 24"
   height="24"
   width="24"
   version="1.1">
  <metadata
     id="metadata10">
    <rdf:RDF>
      <cc:Work
         rdf:about="">
        <dc:format>image/svg+xml</dc:format>
        <dc:type
           rdf:resource="http://purl.org/dc/dcmitype/StillImage" />
      </cc:Work>
    </rdf:RDF>
  </metadata>
  <defs
     id="defs8" />
  <sodipodi:namedview
     inkscape:current-layer="svg4"
     inkscape:window-maximized="0"
     inkscape:window-y="4"
     inkscape:window-x="-7"
     inkscape:cy="12"
     inkscape:cx="12"
     inkscape:zoom="42"
     showgrid="false"
     id="namedview6"
     inkscape:window-height="1360"
     inkscape:window-width="1985"
     inkscape:pageshadow="2"
     inkscape:pageopacity="0"
     guidetolerance="10"
     gridtolerance="10"
     objecttolerance="10"
     borderopacity="1"
     bordercolor="#666666"
     pagecolor="#ffffff" />
  <path
     style="fill:#0e3a5a;fill-opacity:1;stroke-width:1.2048"
     id="path2"
     d="M 9.686009,20.409414 9.8546808,20.240741 C 8.3607304,19.807013 7.2764115,18.433543 7.2764115,16.795017 a 3.6143963,3.6143963 0 0 1 3.6143965,-3.614396 c 1.638526,0 3.011996,1.084319 3.445724,2.578269 L 21.733996,8.3614258 V 5.9518284 L 16.914801,1.1326334 H 2.4572166 c -1.3373267,0 -2.40959755,1.0843189 -2.40959755,2.4095975 V 20.409414 A 2.4095975,2.4095975 0 0 0 2.4572166,22.819011 H 9.686009 V 20.409414 M 2.4572166,3.5422309 H 14.505203 V 8.3614258 H 2.4572166 V 3.5422309 M 21.782189,12.132446 c -0.168672,0 -0.337345,0.07229 -0.469873,0.204815 l -1.204798,1.2048 2.469838,2.469837 1.204798,-1.204799 c 0.265057,-0.253008 0.265057,-0.674687 0,-0.927695 L 22.240012,12.337261 C 22.107484,12.204734 21.95086,12.132446 21.782189,12.132446 m -2.373454,2.108397 -7.313128,7.301081 v 2.481886 h 2.481884 l 7.301081,-7.313128 z" />
</svg>
