<?xml version="1.0" encoding="utf-8"?>
<svg xmlns="http://www.w3.org/2000/svg" width="512" height="512">
    <path fill="#0e3a5a" d="M143.702 65.997h228.655v113.88H143.702zm266.08 0h38.227V332.88c0 2.501-.803 6.61-3.304 11.612-1.697 5.001-4.198 8.306-5.806 10.003l-83.155 83.156c-1.697 1.697-5.002 4.198-10.004 5.805-5.002 1.608-8.307 3.305-11.611 3.305V322.876c0-8.306-2.501-15.005-8.307-19.917-5.806-5.002-12.505-8.307-19.918-8.307H133.698c-8.306 0-15.005 2.5-19.918 8.307-5.805 5.805-8.306 12.504-8.306 19.917v123.885H67.156V65.908h38.228V189.88c0 8.307 2.501 15.006 8.307 19.918 5.806 5.806 12.505 8.307 19.918 8.307h247.769c8.307 0 15.005-2.5 19.918-8.307 5.806-5.805 8.307-12.504 8.307-19.918.178 0 .178-123.884.178-123.884zM295.81 341.991v95.66c0 2.5-.804 5.001-2.5 6.61-1.698 1.696-4.199 2.5-6.61 2.5h-57.343c-2.5 0-5.002-.804-6.61-2.5-1.696-1.698-2.5-4.199-2.5-6.61v-95.66c0-2.501.804-5.002 2.5-6.61 1.698-1.697 4.199-2.5 6.61-2.5h57.343c2.5 0 5.001.803 6.61 2.5 1.607 1.697 2.5 4.109 2.5 6.61zm190.427-9.11V56.796c0-8.306-2.501-15.005-8.307-19.918-5.806-5.806-12.504-8.306-19.918-8.306H57.242c-8.307 0-15.006 2.5-19.918 8.306-5.806 5.806-8.307 12.505-8.307 19.918v399.968c0 8.306 2.501 15.005 8.307 19.918 5.805 4.912 12.504 8.306 19.918 8.306h276.083c8.306 0 16.613-1.697 26.617-5.805 9.11-4.198 17.417-9.11 22.419-14.113l83.155-83.155c5.806-5.806 10.004-13.309 14.112-22.419 4.913-10.004 6.61-19.114 6.61-26.617z"/>
</svg>