<?xml version="1.0" encoding="utf-8"?>
<svg xmlns="http://www.w3.org/2000/svg" width="512" height="512">
    <path d="M49.8 20.457c-8.509 0-15.371 2.56-20.404 8.508-5.947 5.947-8.51 12.812-8.51 20.406v409.736c0 8.51 2.563 15.372 8.51 20.405 5.948 5.032 12.81 8.51 20.405 8.51h111.144l55.844-55.114V341.53c0-2.562.822-5.124 2.56-6.771 1.74-1.739 4.302-2.56 6.772-2.56h58.744c2.562 0 5.123.821 6.77 2.56 1.647 1.738 2.562 4.21 2.562 6.771v14.983l39.045-38.535c-.71-6.693-3.31-12.21-8.3-16.432-5.948-5.124-12.81-8.51-20.405-8.51H128.125c-8.51 0-15.372 2.562-20.404 8.51-5.948 5.947-8.51 12.81-8.51 20.404v126.91H59.957V58.703h39.162v127.002c0 8.51 2.562 15.372 8.51 20.404 5.947 5.948 12.81 8.51 20.404 8.51h253.822c8.51 0 15.372-2.562 20.405-8.51 5.947-5.947 8.508-12.81 8.508-20.404.183 0 .183-126.91.183-126.91h39.162v143.838l39.162-38.65V49.37c0-8.51-2.562-15.374-8.51-20.406-5.947-5.948-12.81-8.508-20.404-8.508H49.801zm88.571 38.338h234.242v116.662H138.371V58.795z" style="color:#000;font-style:normal;font-variant:normal;font-weight:400;font-stretch:normal;font-size:medium;line-height:normal;font-family:sans-serif;font-variant-ligatures:normal;font-variant-position:normal;font-variant-caps:normal;font-variant-numeric:normal;font-variant-alternates:normal;font-variant-east-asian:normal;font-feature-settings:normal;font-variation-settings:normal;text-indent:0;text-align:start;text-decoration:none;text-decoration-line:none;text-decoration-style:solid;text-decoration-color:#000;letter-spacing:normal;word-spacing:normal;text-transform:none;writing-mode:lr-tb;direction:ltr;text-orientation:mixed;dominant-baseline:auto;baseline-shift:baseline;text-anchor:start;white-space:normal;shape-padding:0;shape-margin:0;inline-size:0;clip-rule:nonzero;display:inline;overflow:visible;visibility:visible;isolation:auto;mix-blend-mode:normal;color-interpolation:sRGB;color-interpolation-filters:linearRGB;solid-color:#000;solid-opacity:1;vector-effect:none;fill:#0e3a5a;fill-opacity:1;fill-rule:nonzero;stroke:none;stroke-width:.914998;stroke-linecap:butt;stroke-linejoin:miter;stroke-miterlimit:4;stroke-dasharray:none;stroke-dashoffset:0;stroke-opacity:1;color-rendering:auto;image-rendering:auto;shape-rendering:auto;text-rendering:auto;enable-background:accumulate;stop-color:#000;stop-opacity:1"/>
    <path d="M257.071 458.628v53.147h53.147l156.75-156.749-53.148-53.147Zm250.997-144.703a14.114 14.114 0 0 0 0-19.983l-33.164-33.164a14.114 14.114 0 0 0-19.983 0l-25.936 25.936 53.147 53.147z" style="fill:#0e3a5a;fill-opacity:1;stroke-width:14.1726"/>
</svg>
