<?xml version="1.0" encoding="UTF-8" standalone="no"?>
<svg
   xmlns:dc="http://purl.org/dc/elements/1.1/"
   xmlns:cc="http://creativecommons.org/ns#"
   xmlns:rdf="http://www.w3.org/1999/02/22-rdf-syntax-ns#"
   xmlns:svg="http://www.w3.org/2000/svg"
   xmlns="http://www.w3.org/2000/svg"
   xmlns:sodipodi="http://sodipodi.sourceforge.net/DTD/sodipodi-0.dtd"
   xmlns:inkscape="http://www.inkscape.org/namespaces/inkscape"
   inkscape:version="1.0 (4035a4fb49, 2020-05-01)"
   sodipodi:docname="save.svg"
   id="svg4"
   viewBox="0 0 24 24"
   height="24"
   width="24"
   version="1.1">
  <metadata
     id="metadata10">
    <rdf:RDF>
      <cc:Work
         rdf:about="">
        <dc:format>image/svg+xml</dc:format>
        <dc:type
           rdf:resource="http://purl.org/dc/dcmitype/StillImage" />
      </cc:Work>
    </rdf:RDF>
  </metadata>
  <defs
     id="defs8" />
  <sodipodi:namedview
     inkscape:current-layer="svg4"
     inkscape:window-maximized="0"
     inkscape:window-y="27"
     inkscape:window-x="1172"
     inkscape:cy="12"
     inkscape:cx="12"
     inkscape:zoom="42"
     showgrid="false"
     id="namedview6"
     inkscape:window-height="1315"
     inkscape:window-width="1864"
     inkscape:pageshadow="2"
     inkscape:pageopacity="0"
     guidetolerance="10"
     gridtolerance="10"
     objecttolerance="10"
     borderopacity="1"
     bordercolor="#666666"
     pagecolor="#ffffff" />
  <path
     style="fill:#0e3a5a;fill-opacity:1;stroke-width:1.21429"
     id="path2"
     d="M 14.619048,8.3333333 H 2.4761905 V 3.4761904 H 14.619048 M 10.976191,20.476191 a 3.6428571,3.6428571 0 0 1 -3.6428576,-3.642857 3.6428571,3.6428571 0 0 1 3.6428576,-3.642857 3.6428571,3.6428571 0 0 1 3.642857,3.642857 3.6428571,3.6428571 0 0 1 -3.642857,3.642857 M 17.047618,1.047619 H 2.4761905 c -1.3478571,0 -2.42857146,1.0928572 -2.42857146,2.4285714 V 20.476191 A 2.4285714,2.4285714 0 0 0 2.4761905,22.904762 H 19.476191 a 2.4285714,2.4285714 0 0 0 2.428571,-2.428571 V 5.904762 Z" />
</svg>
