<?xml version="1.0" encoding="UTF-8" standalone="no"?>
<svg
   xmlns:dc="http://purl.org/dc/elements/1.1/"
   xmlns:cc="http://creativecommons.org/ns#"
   xmlns:rdf="http://www.w3.org/1999/02/22-rdf-syntax-ns#"
   xmlns:svg="http://www.w3.org/2000/svg"
   xmlns="http://www.w3.org/2000/svg"
   xmlns:sodipodi="http://sodipodi.sourceforge.net/DTD/sodipodi-0.dtd"
   xmlns:inkscape="http://www.inkscape.org/namespaces/inkscape"
   inkscape:version="1.0 (4035a4fb49, 2020-05-01)"
   sodipodi:docname="save.svg"
   xml:space="preserve"
   style="enable-background:new 0 0 512 512;"
   viewBox="0 0 512 512"
   y="0px"
   x="0px"
   width="512"
   height="512"   
   id="Layer_1"
   version="1.1">
   <sodipodi:namedview
   inkscape:current-layer="Layer_1"
   inkscape:window-maximized="0"
   inkscape:window-y="27"
   inkscape:window-x="6"
   inkscape:cy="208.46798"
   inkscape:cx="126.58837"
   inkscape:zoom="1.3921165"
   showgrid="false"
   id="namedview5"
   inkscape:window-height="1371"
   inkscape:window-width="3424"
   inkscape:pageshadow="2"
   inkscape:pageopacity="0"
   guidetolerance="10"
   gridtolerance="10"
   objecttolerance="10"
   borderopacity="1"
   bordercolor="#666666"
   pagecolor="#ffffff" />
<g
   clip-path="none"
   style="fill:#0e3a5a;fill-opacity:1"
   transform="matrix(0.89318334,0,0,-0.89318334,28.927863,485.43586)"
   id="XMLID_2_">
	<path
   style="fill:#0e3a5a;fill-opacity:1"
   d="m 128.5,469.6 h 256 V 342.1 h -256 z m 297.9,0 h 42.8 V 170.8 c 0,-2.8 -0.9,-7.4 -3.7,-13 -1.9,-5.6 -4.7,-9.3 -6.5,-11.2 L 365.9,53.5 c -1.9,-1.9 -5.6,-4.7 -11.2,-6.5 -5.6,-1.8 -9.3,-3.7 -13,-3.7 V 182 c 0,9.3 -2.8,16.8 -9.3,22.3 -6.5,5.6 -14,9.3 -22.3,9.3 H 117.3 c -9.3,0 -16.8,-2.8 -22.3,-9.3 -6.5,-6.5 -9.3,-14 -9.3,-22.3 V 43.3 H 42.8 V 469.7 H 85.6 V 330.9 c 0,-9.3 2.8,-16.8 9.3,-22.3 6.5,-6.5 14,-9.3 22.3,-9.3 h 277.4 c 9.3,0 16.8,2.8 22.3,9.3 6.5,6.5 9.3,14 9.3,22.3 0.2,0 0.2,138.7 0.2,138.7 z M 298.8,160.6 V 53.5 c 0,-2.8 -0.9,-5.6 -2.8,-7.4 -1.9,-1.9 -4.7,-2.8 -7.4,-2.8 h -64.2 c -2.8,0 -5.6,0.9 -7.4,2.8 -1.9,1.9 -2.8,4.7 -2.8,7.4 v 107.1 c 0,2.8 0.9,5.6 2.8,7.4 1.9,1.9 4.7,2.8 7.4,2.8 h 64.2 c 2.8,0 5.6,-0.9 7.4,-2.8 1.8,-1.9 2.8,-4.6 2.8,-7.4 z M 512,170.8 v 309.1 c 0,9.3 -2.8,16.8 -9.3,22.3 -6.5,6.5 -14,9.3 -22.3,9.3 H 31.7 c -9.3,0 -16.8,-2.8 -22.3,-9.3 -6.5,-6.5 -9.3,-14 -9.3,-22.3 V 32.1 C 0.1,22.8 2.9,15.3 9.4,9.8 15.9,4.3 23.4,0.5 31.7,0.5 h 309.1 c 9.3,0 18.6,1.9 29.8,6.5 10.2,4.7 19.5,10.2 25.1,15.8 l 93.1,93.1 c 6.5,6.5 11.2,14.9 15.8,25.1 5.5,11.2 7.4,21.4 7.4,29.8 z"
   id="XMLID_8_" />
</g>
</svg>
