<?xml version="1.0" encoding="utf-8"?>
<svg xmlns="http://www.w3.org/2000/svg" width="42" height="42">
    <path fill="none" stroke="#0E3A5A" stroke-width="2"
          d="M13.435,22.281v6.633c0,1.466,1.188,2.653,2.653,2.653h13.266"/>
    <path fill="#0E3A5A" stroke="#0E3A5A" stroke-width="2" d="M5.476,6.362h13.266c0.733,0,1.326,0.594,1.326,1.327v13.266
	c0,0.732-0.593,1.326-1.326,1.326H5.476c-0.733,0-1.327-0.594-1.327-1.326V7.689C4.149,6.956,4.743,6.362,5.476,6.362z"/>
    <path fill="none" stroke="#0E3A5A" stroke-width="2" d="M30.682,11.669h5.305c0.734,0,1.328,0.593,1.328,1.327v5.306
	c0,0.734-0.594,1.327-1.328,1.327h-5.305c-0.733,0-1.328-0.593-1.328-1.327v-5.306C29.354,12.262,29.948,11.669,30.682,11.669z"/>
    <path fill="none" stroke="#0E3A5A" stroke-width="2" d="M30.682,27.588h5.305c0.734,0,1.328,0.593,1.328,1.326v5.307
	c0,0.733-0.594,1.326-1.328,1.326h-5.305c-0.733,0-1.328-0.593-1.328-1.326v-5.307C29.354,28.181,29.948,27.588,30.682,27.588z"/>
    <path fill="none" stroke="#0E3A5A" stroke-width="2" d="M20.067,15.648h9.286"/>
</svg>
