<?xml version="1.0" encoding="UTF-8" standalone="no"?>
<svg
   xmlns:svg="http://www.w3.org/2000/svg"
   xmlns="http://www.w3.org/2000/svg"


   viewBox="0 0 32 32"
   height="32"
   width="32"
   version="1.1">














  <path
     style="fill:#7f7f7f;fill-opacity:1;stroke-width:1.33341"


     d="m 21.015401,26.793888 c 0.760542,0 1.744293,-0.578071 1.740641,-1.291139 l 0.05194,-20.5721725 -12.107336,1e-7 c -1.275179,0 -2.5150225,1.260161 -2.519691,2.496225 L 8.1153759,24.790051 6.503817,24.273095 6.5693927,7.4268016 C 6.5777163,5.2875867 8.4190162,3.5533844 10.700643,3.5533844 h 15.147913 c 2.281627,0 3.335614,1.523969 3.321776,2.9492814 l -0.02151,2.2152751 c -1.559454,0.01197 -3.094514,0.038985 -4.653491,0.00728 l -0.02381,16.7775271 c 0,2.139228 -1.849623,3.873418 -4.131249,3.873418 H 6.5693927 c -2.2816259,0 -4.1312493,-1.73419 -4.1312493,-3.873418 V 24.21161 H 17.586058 c 0,1.426153 1.908259,2.582278 3.429343,2.582278 z" />
  <path
     style="fill:#e3e2db;fill-opacity:1;stroke:none;stroke-width:0.571991;stroke-linecap:round;stroke-linejoin:round"
     d="m 20.644862,26.741992 c -0.631451,-0.07101 -1.244097,-0.30257 -1.833462,-0.692986 -0.666885,-0.441767 -1.107458,-1.046378 -1.184236,-1.625159 l -0.03315,-0.249913 H 12.865781 8.1375505 l 0.020407,-7.535715 c 0.025345,-9.3594308 0.026691,-9.4417677 0.1608458,-9.84 0.256036,-0.7600325 0.8905379,-1.4151027 1.6614613,-1.7153203 l 0.3164934,-0.1232506 6.246184,-0.012928 6.246183,-0.012928 -0.02203,10.2272139 c -0.01211,5.624967 -0.03272,10.315502 -0.04579,10.42341 -0.0511,0.421893 -0.49638,0.863757 -1.067402,1.059215 -0.338501,0.115867 -0.614301,0.142752 -1.009039,0.09836 z"
      />
</svg>
