<?xml version="1.0" encoding="UTF-8" standalone="no"?>
<!-- Generator: Adobe Illustrator 18.0.0, SVG Export Plug-In . SVG Version: 6.00 Build 0)  -->
<svg
    xmlns="http://www.w3.org/2000/svg"
    version="1.1"
    x="0px"
    y="0px"
    viewBox="0 0 16 16"
    enable-background="new 0 0 16 16"
>
   <path
       fill="#3E6480"
       d="M12,10.2c0.7-1.1,1.1-2.3,1.1-3.6c0-3.6-2.9-6.5-6.5-6.5C3,0.1,0.1,3,0.1,6.6s2.9,6.5,6.5,6.5  c1.3,0,2.6-0.4,3.6-1.1l3.9,3.9l1.8-1.8L12,10.2z M11.1,6.6c0,2.5-2,4.5-4.5,4.5c-2.5,0-4.5-2-4.5-4.5s2-4.5,4.5-4.5  C9.1,2.1,11.1,4.1,11.1,6.6z"
       style="fill:#3e6480;fill-opacity:0.47058824"/>
</svg>