<?xml version="1.0" encoding="utf-8"?>
<svg xmlns="http://www.w3.org/2000/svg" width="1024" height="1024">
    <path fill="#0E3A5A" d="M850.688 554.666667A341.504 341.504 0 0 1 554.666667 850.688V938.666667h-85.333334v-87.978667A341.504 341.504 0 0 1 173.312 554.666667H85.333333v-85.333334h87.978667A341.504 341.504 0 0 1 469.333333 173.312V85.333333h85.333334v87.978667A341.504 341.504 0 0 1 850.688 469.333333H938.666667v85.333334h-87.978667zM512 768a256 256 0 1 0 0-512 256 256 0 0 0 0 512z m0-128a128 128 0 1 0 0-256 128 128 0 0 0 0 256z" />
</svg>