<?xml version="1.0" encoding="utf-8"?>
<svg xmlns="http://www.w3.org/2000/svg" width="128" height="128">
<path fill="#0E3A5A" d="M48,48h32v32H48 M37.333,90.666h53.333V37.333H37.333 M80,26.667h10.666V16H80 M80,112h10.666v-10.666H80
	 M101.334,90.666H112V80h-10.666 M101.334,48H112V37.333h-10.666 M101.334,112c5.891,0,10.666-4.775,10.666-10.666h-10.666
	 M101.334,69.334H112V58.667h-10.666 M58.667,112h10.667v-10.666H58.667 M48,16H37.333v10.667H48 M16,90.666h10.667V80H16
	 M26.667,112v-10.666H16C16,107.225,20.776,112,26.667,112 M101.334,16v10.667H112C112,20.775,107.225,16,101.334,16 M69.334,16
	H58.667v10.667h10.667 M16,48h10.667V37.333H16 M37.333,112H48v-10.666H37.333 M16,69.334h10.667V58.667H16 M16,26.667h10.667V16
	C20.776,16,16,20.775,16,26.667z"/>
</svg>
