<?xml version="1.0" encoding="utf-8"?>
<svg xmlns="http://www.w3.org/2000/svg" width="800" height="800">
<path fill="none" d="M600,240v320c0,22.092-17.909,40-40,40H240c-22.092,0-40-17.908-40-40V240
	c0-22.091,17.908-40,40-40h320C582.091,200,600,217.909,600,240z"/>
<path fill="none" stroke="#0E3A5A" stroke-width="42" stroke-linecap="round" stroke-linejoin="round" d="M600,240
	v320c0,22.092-17.909,40-40,40H240c-22.092,0-40-17.908-40-40V240c0-22.091,17.908-40,40-40h320C582.091,200,600,217.909,600,240z"
	/>
<path fill="#0E3A5A" stroke="#0E3A5A" stroke-width="42" d="M772.487,477.161v253.293
	c0,17.486-14.191,31.662-31.697,31.662H487.211c-17.506,0-31.697-14.176-31.697-31.662V477.161
	c0-17.486,14.191-31.661,31.697-31.661h253.578C758.295,445.5,772.487,459.675,772.487,477.161z"/>
<path fill="#0E3A5A" stroke="#0E3A5A" stroke-width="42" d="M358.487,71.661v253.293
	c0,17.486-14.191,31.662-31.697,31.662H73.211c-17.506,0-31.697-14.176-31.697-31.662V71.661C41.514,54.175,55.705,40,73.211,40
	h253.578C344.295,40,358.487,54.175,358.487,71.661z"/>
</svg>
