<?xml version="1.0" encoding="utf-8"?>
<!DOCTYPE svg PUBLIC "-//W3C//DTD SVG 1.1//EN" "http://www.w3.org/Graphics/SVG/1.1/DTD/svg11.dtd">
<svg version="1.1" id="Layer_1" xmlns="http://www.w3.org/2000/svg" xmlns:xlink="http://www.w3.org/1999/xlink" x="0px" y="0px"
	 width="128px" height="128px" viewBox="0 0 128 128" enable-background="new 0 0 128 128" xml:space="preserve">
<path fill="#0E3A5A" d="M44.56,100.63c-9.521-5.122-16.243-14.241-18.32-24.851h-9.18c2.562,13.717,10.989,25.629,23.07,32.611
	c2.136,1.248,4.88,0.529,6.129-1.606c0.216-0.37,0.378-0.769,0.481-1.185l0,0C47.225,103.641,46.33,101.601,44.56,100.63z"/>
<path fill="#0E3A5A" d="M61.64,32.77v-13.4l-1.28,0.06c-11.575,0.885-22.428,5.966-30.52,14.29l8,8
	C44.417,35.935,52.881,32.751,61.64,32.77z"/>
<path fill="#0E3A5A" d="M94.77,30.54c-7.48-6.304-16.725-10.146-26.47-11v13.9c5.911,1.125,11.447,3.714,16.101,7.53L94.77,30.54z"
	/>
<path fill="#0E3A5A" d="M25.56,68.84c-0.006-8.08,2.706-15.928,7.7-22.28l-7.75-7.75c-5.089,6.91-8.2,15.076-9,23.62
	c-0.207,2.224-0.261,4.458-0.16,6.69h9.25L25.56,68.84z"/>
<path fill="#0E3A5A" d="M104.891,42.41L94.12,53.18c2.027,4.148,3.226,8.652,3.53,13.259c0.06,1,0.09,2,0.07,3
	c0.214,3.86,3.518,6.816,7.377,6.602c3.393-0.189,6.16-2.787,6.563-6.161c0-0.93,0.08-1.88,0.08-2.83
	C111.753,58.365,109.383,49.842,104.891,42.41z"/>
<path fill="#0E3A5A" d="M101.76,34.87l-0.08-0.06l-0.07-0.08c-0.9-0.911-2.369-0.92-3.28-0.019
	c-0.007,0.006-0.013,0.013-0.019,0.019L66.75,61.13c4.246,1.023,7.578,4.31,8.66,8.54l26.35-31.5
	C102.668,37.257,102.668,35.783,101.76,34.87z"/>
<path fill="#0E3A5A" d="M64,64.12c-0.296-0.015-0.594-0.015-0.89,0c-4.646,0.488-8.018,4.651-7.529,9.298s4.652,8.018,9.298,7.529
	c4.063-0.428,7.239-3.695,7.551-7.768c0-0.209,0-0.43,0-0.64C72.402,67.897,68.643,64.142,64,64.12z"/>
</svg>
