<?xml version="1.0" encoding="utf-8"?>
<svg xmlns="http://www.w3.org/2000/svg" width="128" height="128">
<path fill="#0F3B5A" d="M112,21.333c0-2.549-2.021-5.333-5.333-5.333H21.334C18.027,16,16,18.768,16,21.333v85.333
	c0,3.313,2.773,5.334,5.334,5.334h85.333c2.549,0,5.333-2.021,5.333-5.334V21.333z M24,24h80v50.666H24V24z M43.621,57.824
	c-0.661,0.73-0.955,1.594-0.955,2.442c0,1.909,1.516,3.733,3.761,3.733h35.146c2.251,0,3.761-1.824,3.761-3.733
	c0-0.849-0.294-1.712-0.95-2.442c-5.237-5.809-12.891-14.315-17.173-19.072c-0.816-0.907-1.979-1.419-3.206-1.419
	c-1.221,0-2.389,0.512-3.206,1.413C56.518,43.509,48.859,52.011,43.621,57.824z"/>
</svg>
