<?xml version="1.0" encoding="utf-8"?>
<!-- Generator: Adobe Illustrator 14.0.0, SVG Export Plug-In . SVG Version: 6.00 Build 43363)  -->
<!DOCTYPE svg PUBLIC "-//W3C//DTD SVG 1.1//EN" "http://www.w3.org/Graphics/SVG/1.1/DTD/svg11.dtd">
<svg version="1.1" id="Layer_1" xmlns="http://www.w3.org/2000/svg" xmlns:xlink="http://www.w3.org/1999/xlink" x="0px" y="0px"
	 width="128px" height="128px" viewBox="0 0 128 128" enable-background="new 0 0 128 128" xml:space="preserve">
<path fill="#0E3A5A" d="M88.32,29.013l-7.734,7.733C89.813,42.347,96,52.427,96,64c0,17.674-14.326,32-32,32
	c-17.673,0-32-14.326-32-32c0-11.573,6.187-21.653,15.36-27.307l-7.68-7.68C28.586,36.693,21.333,49.493,21.333,64
	c0,23.564,19.103,42.666,42.667,42.666c23.564,0,42.666-19.102,42.666-42.666C106.666,49.493,99.414,36.693,88.32,29.013 M69.334,16
	H58.667v53.334h10.667"/>
</svg>
