<?xml version="1.0" encoding="UTF-8" standalone="no"?>
<svg
   xmlns:dc="http://purl.org/dc/elements/1.1/"
   xmlns:cc="http://creativecommons.org/ns#"
   xmlns:rdf="http://www.w3.org/1999/02/22-rdf-syntax-ns#"
   xmlns:svg="http://www.w3.org/2000/svg"
   xmlns="http://www.w3.org/2000/svg"
   xmlns:sodipodi="http://sodipodi.sourceforge.net/DTD/sodipodi-0.dtd"
   xmlns:inkscape="http://www.inkscape.org/namespaces/inkscape"
   inkscape:version="1.0 (4035a4fb49, 2020-05-01)"
   sodipodi:docname="snap-to-grid.svg"
   id="svg4"
   version="1.1"
   viewBox="0 0 16 16"
   class="bi bi-grip-horizontal"
   fill="currentColor"
   height="16"
   width="16">
  <metadata
     id="metadata10">
    <rdf:RDF>
      <cc:Work
         rdf:about="">
        <dc:format>image/svg+xml</dc:format>
        <dc:type
           rdf:resource="http://purl.org/dc/dcmitype/StillImage" />
      </cc:Work>
    </rdf:RDF>
  </metadata>
  <defs
     id="defs8" />
  <sodipodi:namedview
     inkscape:current-layer="svg4"
     inkscape:window-maximized="0"
     inkscape:window-y="0"
     inkscape:window-x="0"
     inkscape:cy="8"
     inkscape:cx="8"
     inkscape:zoom="63"
     showgrid="false"
     id="namedview6"
     inkscape:window-height="1293"
     inkscape:window-width="2451"
     inkscape:pageshadow="2"
     inkscape:pageopacity="0"
     guidetolerance="10"
     gridtolerance="10"
     objecttolerance="10"
     borderopacity="1"
     bordercolor="#666666"
     pagecolor="#ffffff" />
  <path
     style="fill:#0e3a5a;fill-opacity:1"
     id="path2"
     d="m 2,11.492064 a 1,1 0 1 1 0,2 1,1 0 0 1 0,-2 z M 2,8.4920634 A 1.0000002,1.0000002 0 1 1 2,10.492064 1.0000003,1.0000003 0 0 1 2,8.4920634 Z m 3,3.0000006 a 1,1 0 1 1 0,2 1,1 0 0 1 0,-2 z M 5,8.4920634 A 1.0000002,1.0000002 0 1 1 5,10.492064 1.0000003,1.0000003 0 0 1 5,8.4920634 Z m 3,3.0000006 a 1,1 0 1 1 0,2 1,1 0 0 1 0,-2 z M 8,8.4920634 A 1.0000002,1.0000002 0 1 1 8,10.492064 1.0000003,1.0000003 0 0 1 8,8.4920634 Z m 3,3.0000006 a 1,1 0 1 1 0,2 1,1 0 0 1 0,-2 z m 0,-3.0000006 a 1.0000002,1.0000002 0 1 1 0,2.0000006 1.0000003,1.0000003 0 0 1 0,-2.0000006 z m 3,3.0000006 a 1,1 0 1 1 0,2 1,1 0 0 1 0,-2 z m 0,-3.0000006 a 1.0000002,1.0000002 0 1 1 0,2.0000006 1.0000003,1.0000003 0 0 1 0,-2.0000006 z" />
  <path
     style="fill:#0e3a5a;fill-opacity:1"
     d="m 2.0476191,5.3412698 a 1,1 0 1 1 0,2 1,1 0 0 1 0,-2 z m 0,-3 a 1.0000002,1.0000002 0 1 1 0,2 1.0000003,1.0000003 0 0 1 0,-2 z m 2.9999997,3 a 1,1 0 1 1 0,2 1,1 0 0 1 0,-2 z m 0,-3 a 1.0000002,1.0000002 0 1 1 0,2 1.0000003,1.0000003 0 0 1 0,-2 z m 3,3 a 1,1 0 1 1 0,2 1,1 0 0 1 0,-2 z m 0,-3 a 1.0000002,1.0000002 0 1 1 0,2 1.0000003,1.0000003 0 0 1 0,-2 z m 3.0000002,3 a 1,1 0 1 1 0,2 1,1 0 0 1 0,-2 z m 0,-3 a 1.0000002,1.0000002 0 1 1 0,2 1.0000003,1.0000003 0 0 1 0,-2 z m 3,3 a 1,1 0 1 1 0,2 1,1 0 0 1 0,-2 z m 0,-3 a 1.0000002,1.0000002 0 1 1 0,2 1.0000003,1.0000003 0 0 1 0,-2 z"
     id="path2-9" />
</svg>
