<?xml version="1.0" encoding="UTF-8" standalone="no"?>
<svg
   xmlns:svg="http://www.w3.org/2000/svg"
   xmlns="http://www.w3.org/2000/svg"
   version="1.1"
   viewBox="0 0 16 16"
   class="bi bi-grip-horizontal"
   fill="currentColor"
   height="16"
   width="16">
  <path
     style="fill:#0e3a5a;fill-opacity:1"
     d="m 2,11.492064 a 1,1 0 1 1 0,2 1,1 0 0 1 0,-2 z M 2,8.4920634 A 1.0000002,1.0000002 0 1 1 2,10.492064 1.0000003,1.0000003 0 0 1 2,8.4920634 Z m 3,3.0000006 a 1,1 0 1 1 0,2 1,1 0 0 1 0,-2 z M 5,8.4920634 A 1.0000002,1.0000002 0 1 1 5,10.492064 1.0000003,1.0000003 0 0 1 5,8.4920634 Z m 3,3.0000006 a 1,1 0 1 1 0,2 1,1 0 0 1 0,-2 z M 8,8.4920634 A 1.0000002,1.0000002 0 1 1 8,10.492064 1.0000003,1.0000003 0 0 1 8,8.4920634 Z m 3,3.0000006 a 1,1 0 1 1 0,2 1,1 0 0 1 0,-2 z m 0,-3.0000006 a 1.0000002,1.0000002 0 1 1 0,2.0000006 1.0000003,1.0000003 0 0 1 0,-2.0000006 z m 3,3.0000006 a 1,1 0 1 1 0,2 1,1 0 0 1 0,-2 z m 0,-3.0000006 a 1.0000002,1.0000002 0 1 1 0,2.0000006 1.0000003,1.0000003 0 0 1 0,-2.0000006 z" />
  <path
     style="fill:#0e3a5a;fill-opacity:1"
     d="m 2.0476191,5.3412698 a 1,1 0 1 1 0,2 1,1 0 0 1 0,-2 z m 0,-3 a 1.0000002,1.0000002 0 1 1 0,2 1.0000003,1.0000003 0 0 1 0,-2 z m 2.9999997,3 a 1,1 0 1 1 0,2 1,1 0 0 1 0,-2 z m 0,-3 a 1.0000002,1.0000002 0 1 1 0,2 1.0000003,1.0000003 0 0 1 0,-2 z m 3,3 a 1,1 0 1 1 0,2 1,1 0 0 1 0,-2 z m 0,-3 a 1.0000002,1.0000002 0 1 1 0,2 1.0000003,1.0000003 0 0 1 0,-2 z m 3.0000002,3 a 1,1 0 1 1 0,2 1,1 0 0 1 0,-2 z m 0,-3 a 1.0000002,1.0000002 0 1 1 0,2 1.0000003,1.0000003 0 0 1 0,-2 z m 3,3 a 1,1 0 1 1 0,2 1,1 0 0 1 0,-2 z m 0,-3 a 1.0000002,1.0000002 0 1 1 0,2 1.0000003,1.0000003 0 0 1 0,-2 z"
      />
</svg>
