<?xml version="1.0" encoding="UTF-8" standalone="no"?>
<svg
        xmlns="http://www.w3.org/2000/svg"
        width="512"
        height="512"
        version="1.1"
>
    <g
            transform="translate(-379.90478,129.88361)">
        <path
                d="m 506.36967,300.21126 c -5.94528,-1.52698 -10.44788,-4.13098 -15.05018,-8.70392 -4.45698,-4.42869 -7.01176,-8.6414 -8.56016,-14.11533 -0.7915,-2.79829 -0.82327,-8.80805 -0.82327,-155.82632 0,-147.018241 0.032,-153.028 0.82327,-155.826297 1.7229,-6.091082 5.82146,-12.396928 10.67193,-16.419546 2.99612,-2.484704 9.53807,-5.719093 13.38667,-6.618425 6.8243,-1.594687 15.80378,-0.530734 21.95481,2.60137 3.72096,1.894746 256.95646,148.642276 259.36762,150.301086 2.41791,1.663452 6.87082,6.410372 8.65505,9.226492 0.79984,1.26235 2.10041,3.98259 2.89022,6.04499 1.39252,3.63633 1.43592,3.95982 1.43592,10.69033 0,6.7372 -0.0426,7.05097 -1.44284,10.70909 -0.79355,2.0727 -2.25744,5.0173 -3.253,6.54356 -2.27066,3.48089 -7.01213,8.05357 -10.52698,10.15217 -10.02094,5.98324 -254.81246,147.66425 -257.22549,148.87758 -6.53183,3.28433 -15.15838,4.19836 -22.30357,2.36317 z"
                style="fill:#53c3c4;fill-opacity:1;stroke:none;stroke-width:5.38188;stroke-linecap:round;stroke-linejoin:round"/>
    </g>
</svg>
