<?xml version="1.0" encoding="UTF-8" standalone="no"?>
<svg
   xmlns:dc="http://purl.org/dc/elements/1.1/"
   xmlns:cc="http://creativecommons.org/ns#"
   xmlns:rdf="http://www.w3.org/1999/02/22-rdf-syntax-ns#"
   xmlns:svg="http://www.w3.org/2000/svg"
   xmlns="http://www.w3.org/2000/svg"
   xmlns:sodipodi="http://sodipodi.sourceforge.net/DTD/sodipodi-0.dtd"
   xmlns:inkscape="http://www.inkscape.org/namespaces/inkscape"
   width="512"
   height="512"
   id="svg2"
   version="1.1"
   inkscape:version="1.0 (4035a4fb49, 2020-05-01)"
   sodipodi:docname="start.svg">
  <defs
     id="defs4" />
  <sodipodi:namedview
     id="base"
     pagecolor="#ffffff"
     bordercolor="#666666"
     borderopacity="1.0"
     inkscape:pageopacity="0.0"
     inkscape:pageshadow="2"
     inkscape:zoom="1.979899"
     inkscape:cx="529.83088"
     inkscape:cy="257.25894"
     inkscape:document-units="px"
     inkscape:current-layer="layer1"
     showgrid="false"
     fit-margin-top="0"
     fit-margin-left="0"
     fit-margin-right="0"
     fit-margin-bottom="0"
     inkscape:window-width="3440"
     inkscape:window-height="1387"
     inkscape:window-x="-8"
     inkscape:window-y="-8"
     inkscape:window-maximized="1"
     inkscape:snap-bbox="true"
     inkscape:bbox-paths="true"
     inkscape:bbox-nodes="true"
     inkscape:snap-bbox-edge-midpoints="true"
     inkscape:snap-bbox-midpoints="true"
     inkscape:object-paths="true"
     inkscape:snap-intersection-paths="true"
     inkscape:object-nodes="true"
     inkscape:snap-smooth-nodes="true"
     inkscape:snap-midpoints="true"
     inkscape:snap-object-midpoints="true"
     inkscape:snap-center="true"
     inkscape:snap-text-baseline="true"
     inkscape:snap-global="false"
     inkscape:document-rotation="0"
     inkscape:pagecheckerboard="false" />
  <metadata
     id="metadata7">
    <rdf:RDF>
      <cc:Work
         rdf:about="">
        <dc:format>image/svg+xml</dc:format>
        <dc:type
           rdf:resource="http://purl.org/dc/dcmitype/StillImage" />
        <dc:title></dc:title>
        <dc:creator>
          <cc:Agent>
            <dc:title />
          </cc:Agent>
        </dc:creator>
        <cc:license
           rdf:resource="http://creativecommons.org/publicdomain/zero/1.0/" />
        <dc:subject>
          <rdf:Bag />
        </dc:subject>
      </cc:Work>
      <cc:License
         rdf:about="http://creativecommons.org/publicdomain/zero/1.0/">
        <cc:permits
           rdf:resource="http://creativecommons.org/ns#Reproduction" />
        <cc:permits
           rdf:resource="http://creativecommons.org/ns#Distribution" />
        <cc:permits
           rdf:resource="http://creativecommons.org/ns#DerivativeWorks" />
      </cc:License>
    </rdf:RDF>
  </metadata>
  <g
     inkscape:label="Layer 1"
     inkscape:groupmode="layer"
     id="layer1"
     transform="translate(-379.90478,129.88361)">
    <path
       id="path2674"
       d="m 506.36967,300.21126 c -5.94528,-1.52698 -10.44788,-4.13098 -15.05018,-8.70392 -4.45698,-4.42869 -7.01176,-8.6414 -8.56016,-14.11533 -0.7915,-2.79829 -0.82327,-8.80805 -0.82327,-155.82632 0,-147.018241 0.032,-153.028 0.82327,-155.826297 1.7229,-6.091082 5.82146,-12.396928 10.67193,-16.419546 2.99612,-2.484704 9.53807,-5.719093 13.38667,-6.618425 6.8243,-1.594687 15.80378,-0.530734 21.95481,2.60137 3.72096,1.894746 256.95646,148.642276 259.36762,150.301086 2.41791,1.663452 6.87082,6.410372 8.65505,9.226492 0.79984,1.26235 2.10041,3.98259 2.89022,6.04499 1.39252,3.63633 1.43592,3.95982 1.43592,10.69033 0,6.7372 -0.0426,7.05097 -1.44284,10.70909 -0.79355,2.0727 -2.25744,5.0173 -3.253,6.54356 -2.27066,3.48089 -7.01213,8.05357 -10.52698,10.15217 -10.02094,5.98324 -254.81246,147.66425 -257.22549,148.87758 -6.53183,3.28433 -15.15838,4.19836 -22.30357,2.36317 z"
       style="fill:#53c3c4;fill-opacity:1;stroke:none;stroke-width:5.38188;stroke-linecap:round;stroke-linejoin:round" />
  </g>
</svg>
