<?xml version="1.0" encoding="UTF-8" standalone="no"?>
<svg
   xmlns:dc="http://purl.org/dc/elements/1.1/"
   xmlns:cc="http://creativecommons.org/ns#"
   xmlns:rdf="http://www.w3.org/1999/02/22-rdf-syntax-ns#"
   xmlns="http://www.w3.org/2000/svg"
   id="svg891"
   version="1.1"
   viewBox="0 0 17.960548 17.960548"
   height="17.960548"
   width="17.960548">
  <defs
     id="defs885" />
  <metadata
     id="metadata888">
    <rdf:RDF>
      <cc:Work
         rdf:about="">
        <dc:format>image/svg+xml</dc:format>
        <dc:type
           rdf:resource="http://purl.org/dc/dcmitype/StillImage" />
        <dc:title></dc:title>
      </cc:Work>
    </rdf:RDF>
  </metadata>
  <g
     transform="translate(-1.9193525,-1.8106024)"
     id="layer1">
    <g
       id="g28"
       transform="matrix(0.26458333,0,0,0.26458333,1.9194042,1.8106541)">
      <g
         id="g16">
        <path
           class="a"
           d="m 13.745,30.137 a 5.38,5.38 0 1 0 0,7.608 h 40.392 a 5.38,5.38 0 1 0 0,-7.608 z"
           id="path8"
           style="fill:#eda921;stroke:#000000;stroke-width:9.12199974px;stroke-miterlimit:10" />
        <path
           class="b"
           d="m 22.351,16.971 a 5.381,5.381 0 1 0 -5.38,5.38 l 28.561,28.561 a 5.38,5.38 0 1 0 5.38,-5.38 z"
           id="path10"
           style="fill:#eda921;stroke:#000000;stroke-width:9.12199974px;stroke-miterlimit:10" />
        <path
           class="a"
           d="m 37.745,13.745 a 5.38,5.38 0 1 0 -7.608,0 v 40.392 a 5.38,5.38 0 1 0 7.608,0 z"
           id="path12"
           style="fill:#eda921;stroke:#000000;stroke-width:9.12199974px;stroke-miterlimit:10" />
        <path
           class="b"
           d="m 50.912,22.351 a 5.381,5.381 0 1 0 -5.38,-5.38 L 16.971,45.532 a 5.38,5.38 0 1 0 5.38,5.38 z"
           id="path14"
           style="fill:#eda921;stroke:#000000;stroke-width:9.12199974px;stroke-miterlimit:10" />
      </g>
      <g
         id="g26">
        <path
           class="c"
           d="m 13.745,30.137 a 5.38,5.38 0 1 0 0,7.608 h 40.392 a 5.38,5.38 0 1 0 0,-7.608 z"
           id="path18"
           style="fill:#eda921" />
        <path
           class="c"
           d="m 22.351,16.971 a 5.381,5.381 0 1 0 -5.38,5.38 l 28.561,28.561 a 5.38,5.38 0 1 0 5.38,-5.38 z"
           id="path20"
           style="fill:#eda921" />
        <path
           class="c"
           d="m 37.745,13.745 a 5.38,5.38 0 1 0 -7.608,0 v 40.392 a 5.38,5.38 0 1 0 7.608,0 z"
           id="path22"
           style="fill:#eda921" />
        <path
           class="c"
           d="m 50.912,22.351 a 5.381,5.381 0 1 0 -5.38,-5.38 L 16.971,45.532 a 5.38,5.38 0 1 0 5.38,5.38 z"
           id="path24"
           style="fill:#eda921" />
      </g>
    </g>
  </g>
</svg>
