<?xml version="1.0" encoding="UTF-8" standalone="no"?>
<svg
        xmlns="http://www.w3.org/2000/svg"
        viewBox="0 0 24 24"
        height="24"
        width="24"
        version="1.1">
    <circle
            r="8.7738094"
            cy="12.011905"
            cx="12.011904"
            style="fill:#ffffff;fill-opacity:1;stroke-width:1.86387;stroke-linecap:round;stroke-linejoin:round"/>
    <path
            style="fill:#0e3a5a;fill-opacity:1"
            d="M12,2A10,10 0 0,0 2,12A10,10 0 0,0 12,22A10,10 0 0,0 22,12A10,10 0 0,0 12,2M12,20A8,8 0 0,1 4,12A8,8 0 0,1 12,4A8,8 0 0,1 20,12A8,8 0 0,1 12,20M16,15V13H13.72C13.36,13.62 12.71,14 12,14A2,2 0 0,1 10,12A2,2 0 0,1 12,10C12.71,10 13.36,10.38 13.72,11H16V9L19,12L16,15Z"/>
</svg>
