<?xml version="1.0" encoding="UTF-8" standalone="no"?>
<svg
   xmlns="http://www.w3.org/2000/svg"
   id="svg12686"
   version="1.1"
   viewBox="0 0 8.6534624 8.6491766"
   height="8.6491766"
   width="8.6534624"
  >
  <defs
     id="defs12680" />
  <g
     transform="translate(169.86432,1.37163)"
     id="layer1">
    <g
       style="font-size:10px;font-family:FreeSans;color-interpolation:linearRGB;fill:#ffffff;stroke:none;stroke-linecap:butt;stroke-miterlimit:2;color-rendering:optimizeQuality;image-rendering:optimizeQuality;text-rendering:geometricPrecision"
       id="g4245"
       transform="matrix(0.27167886,0,0,0.27100507,-92.129963,-102.82032)"
       >
      <defs
         id="defs3015" />
      <style
         id="style2999"
         type="text/css">
	.st0{fill:none;}
	.st1{fill:#5CC0C4;}
	.st2{fill:#1CB24B;}
</style>
      <polygon
         transform="translate(-7.6,-7.5)"
         points="-249.1,409.5 -254.8,406.8 -254.8,412.1 "
         class="st0"
         style="fill:none"
         id="polygon3003" />
      <polygon
         transform="translate(-7.6,-7.5)"
         points="-273,399.5 -273,401.2 -268.3,401.2 -276.4,409.3 -275.2,410.5 -267.1,402.4 -267.1,407.1 -265.4,407.1 -265.4,399.5 "
         class="st2"
         style="fill:#1cb24b"
         id="polygon3007" />
      <polygon
         transform="translate(-7.6,-7.5)"
         points="-253.2,394.5 -253.2,392.8 -257.8,392.8 -249.7,384.7 -250.9,383.5 -259,391.6 -259,386.9 -260.7,386.9 -260.7,394.5 "
         class="st2"
         style="fill:#1cb24b"
         id="polygon3009" />
      <polygon
         transform="translate(-7.6,-7.5)"
         points="-267.1,386.9 -267.1,391.6 -275.2,383.5 -276.4,384.7 -268.3,392.8 -273,392.8 -273,394.5 -265.4,394.5 -265.4,386.9 "
         class="st2"
         style="fill:#1cb24b"
         id="polygon3011" />
      <path
         class="st2"
         style="fill:#5cc0c4"
         id="path4243"
         d="m -268.3,392 v 11.1 l 11.9,-5.6 z m 1.9,2.9 5.7,2.7 -5.7,2.7 z" />
    </g>
  </g>
</svg>
