<?xml version="1.0" encoding="utf-8"?>
<!-- Generator: Adobe Illustrator 14.0.0, SVG Export Plug-In . SVG Version: 6.00 Build 43363)  -->
<!DOCTYPE svg PUBLIC "-//W3C//DTD SVG 1.1//EN" "http://www.w3.org/Graphics/SVG/1.1/DTD/svg11.dtd">
<svg version="1.1" id="Layer_1" xmlns="http://www.w3.org/2000/svg" xmlns:xlink="http://www.w3.org/1999/xlink" x="0px" y="0px"
	 width="24px" height="24px" viewBox="0 0 24 24" enable-background="new 0 0 24 24" xml:space="preserve">
<path fill="#D7D7D7" d="M12,2C6.5,2,2,6.5,2,12s4.5,10,10,10s10-4.5,10-10S17.5,2,12,2 M10,17l-5-5l1.41-1.41L10,14.17l7.59-7.59
	L19,8L10,17z"/>
<path fill="#FFFFFF" d="M7.513,14.492L5.021,12l0.7-0.699l0.7-0.699l1.793,1.793l1.793,1.793l3.795-3.794l3.795-3.795l0.699,0.7
	l0.699,0.699L14.5,12.491l-4.494,4.494L7.513,14.492z"/>
</svg>
