<?xml version="1.0" encoding="UTF-8" standalone="no"?>
<svg
   xmlns:svg="http://www.w3.org/2000/svg"
   xmlns="http://www.w3.org/2000/svg"
   viewBox="0 0 24 24"
   height="24"
   width="24"
   version="1.1">
  <ellipse
     ry="8.4880953"
     rx="8.6071424"
     cy="11.964286"
     cx="11.940476"
     style="fill:#ffffff;fill-opacity:1;stroke-width:2.33922;stroke-linecap:round;stroke-linejoin:round" />
  <path
     style="fill:#0e3a5a;fill-opacity:1"
     d="M12,20A8,8 0 0,1 4,12A8,8 0 0,1 12,4A8,8 0 0,1 20,12A8,8 0 0,1 12,20M12,2A10,10 0 0,0 2,12A10,10 0 0,0 12,22A10,10 0 0,0 22,12A10,10 0 0,0 12,2Z" />
</svg>
