<?xml version="1.0" encoding="utf-8"?>
<!-- Generator: Adobe Illustrator 14.0.0, SVG Export Plug-In . SVG Version: 6.00 Build 43363)  -->
<!DOCTYPE svg PUBLIC "-//W3C//DTD SVG 1.1//EN" "http://www.w3.org/Graphics/SVG/1.1/DTD/svg11.dtd">
<svg version="1.1" id="Layer_1" xmlns="http://www.w3.org/2000/svg" xmlns:xlink="http://www.w3.org/1999/xlink" x="0px" y="0px"
	 width="128px" height="128px" viewBox="0 0 128 128" enable-background="new 0 0 128 128" xml:space="preserve">
<path fill="#0E3A5A" d="M112,106.666c0,2.934-2.4,5.334-5.334,5.334h-5.332v-10.666H112V106.666 M80,112v-10.666h10.666V112H80
	 M58.667,112v-10.666h10.667V112H58.667 M37.333,112v-10.666H48V112H37.333 M21.333,112C18.4,112,16,109.6,16,106.666v-5.332h10.667
	V112H21.333 M16,80h10.667v10.666H16V80 M112,80v10.666h-10.666V80H112 M77.813,42.667L64,56.48L50.187,42.667l-7.52,7.52L56.48,64
	L42.667,77.813l7.52,7.521L64,71.52l13.813,13.814l7.521-7.521L71.52,64l13.814-13.813L77.813,42.667 M16,58.667h10.667v10.667H16
	V58.667 M112,58.667v10.667h-10.666V58.667H112 M16,37.333h10.667V48H16V37.333 M112,37.333V48h-10.666V37.333H112 M21.333,16h5.333
	v10.667H16v-5.333C16,18.4,18.4,16,21.333,16 M106.666,16C109.6,16,112,18.4,112,21.333v5.333h-10.666V16H106.666 M80,26.667V16
	h10.666v10.667H80 M58.667,26.667V16h10.667v10.667H58.667 M37.333,26.667V16H48v10.667H37.333z"/>
</svg>
