<?xml version="1.0" encoding="utf-8"?>
<svg xmlns="http://www.w3.org/2000/svg" width="16" height="16">
    <path fill="#0e3a5a" d="M6.5-.005L13.005 6.5 6.5 13.005-.005 6.5z"/>
    <path fill="#ffffff"
          d="M6.3 6.6V9c-.5 0-.9-.2-1-.6-.2-.1-.2-.4-.2-.8h-.8c0 .5.1.9.3 1.2.3.6.9.9 1.8.9v.9h.4v-.9c.5-.1 1-.2 1.2-.4.5-.3.7-.8.7-1.6 0-.5-.2-1-.6-1.2-.2-.3-.7-.4-1.4-.6V3.7c.4 0 .7.2.9.5.1.2.2.4.2.6h.8c0-.5-.2-.9-.5-1.2-.3-.4-.8-.6-1.4-.6v-.6h-.4V3c-.6 0-1.1.2-1.4.6-.3.3-.5.7-.5 1.2s.2.9.5 1.2.7.5 1.4.6h0z"/>
    <path fill="#0e3a5a"
          d="M6.7 9.1V6.7c.4.1.7.2.8.3.3.2.4.5.4.9 0 .2-.1.4-.2.6-.1.4-.5.5-1 .6h0zm-.4-5.4c-.4 0-.7.1-.9.3-.1.3-.2.5-.2.7 0 .3.1.5.3.7s.5.3.8.4V3.7z"/>
</svg>