<?xml version="1.0" encoding="UTF-8" standalone="no"?>
<svg
   xmlns:dc="http://purl.org/dc/elements/1.1/"
   xmlns:cc="http://creativecommons.org/ns#"
   xmlns:rdf="http://www.w3.org/1999/02/22-rdf-syntax-ns#"
   xmlns:svg="http://www.w3.org/2000/svg"
   xmlns="http://www.w3.org/2000/svg"
   xmlns:sodipodi="http://sodipodi.sourceforge.net/DTD/sodipodi-0.dtd"
   xmlns:inkscape="http://www.inkscape.org/namespaces/inkscape"
   inkscape:version="1.0 (4035a4fb49, 2020-05-01)"
   sodipodi:docname="view.svg"
   id="svg6"
   version="1.1"
   viewBox="0 0 16 16"
   class="bi bi-eye"
   fill="currentColor"
   height="16"
   width="16">
  <metadata
     id="metadata12">
    <rdf:RDF>
      <cc:Work
         rdf:about="">
        <dc:format>image/svg+xml</dc:format>
        <dc:type
           rdf:resource="http://purl.org/dc/dcmitype/StillImage" />
      </cc:Work>
    </rdf:RDF>
  </metadata>
  <defs
     id="defs10" />
  <sodipodi:namedview
     inkscape:current-layer="svg6"
     inkscape:window-maximized="0"
     inkscape:window-y="0"
     inkscape:window-x="0"
     inkscape:cy="8"
     inkscape:cx="8"
     inkscape:zoom="63"
     showgrid="false"
     id="namedview8"
     inkscape:window-height="1120"
     inkscape:window-width="2297"
     inkscape:pageshadow="2"
     inkscape:pageopacity="0"
     guidetolerance="10"
     gridtolerance="10"
     objecttolerance="10"
     borderopacity="1"
     bordercolor="#666666"
     pagecolor="#ffffff" />
  <path
     style="fill:#0e3a5a;fill-opacity:1"
     id="path2"
     d="M16 8s-3-5.5-8-5.5S0 8 0 8s3 5.5 8 5.5S16 8 16 8zM1.173 8a13.134 13.134 0 0 0 1.66 2.043C4.12 11.332 5.88 12.5 8 12.5c2.12 0 3.879-1.168 5.168-2.457A13.134 13.134 0 0 0 14.828 8a13.133 13.133 0 0 0-1.66-2.043C11.879 4.668 10.119 3.5 8 3.5c-2.12 0-3.879 1.168-5.168 2.457A13.133 13.133 0 0 0 1.172 8z"
     fill-rule="evenodd" />
  <path
     style="fill:#0e3a5a;fill-opacity:1"
     id="path4"
     d="M8 5.5a2.5 2.5 0 1 0 0 5 2.5 2.5 0 0 0 0-5zM4.5 8a3.5 3.5 0 1 1 7 0 3.5 3.5 0 0 1-7 0z"
     fill-rule="evenodd" />
</svg>
