<?xml version="1.0" encoding="utf-8"?>
<!DOCTYPE svg PUBLIC "-//W3C//DTD SVG 1.1//EN" "http://www.w3.org/Graphics/SVG/1.1/DTD/svg11.dtd">
<svg version="1.1" id="Layer_1" xmlns="http://www.w3.org/2000/svg" xmlns:xlink="http://www.w3.org/1999/xlink" x="0px" y="0px"
	 width="24px" height="24px" viewBox="0 0 24 24" enable-background="new 0 0 24 24" xml:space="preserve">
<path fill="#800080" d="M12,1.937C6.443,1.937,1.938,6.442,1.938,12c0,5.559,4.506,10.063,10.063,10.063
	c5.56,0,10.063-4.504,10.063-10.063C22.063,6.442,17.559,1.937,12,1.937z"/>
<path fill="#FFFFFF" d="M9.5,7.5C10.329,7.5,11,8.172,11,9v6c0,0.828-0.671,1.5-1.5,1.5S8,15.828,8,15V9C8,8.172,8.671,7.5,9.5,7.5z
	 M14.5,7.5C15.328,7.5,16,8.172,16,9v6c0,0.828-0.672,1.5-1.5,1.5S13,15.828,13,15V9C13,8.172,13.672,7.5,14.5,7.5z"/>
</svg>
