<?xml version="1.0" encoding="utf-8"?>
<svg xmlns="http://www.w3.org/2000/svg" width="128" height="128">
    <path fill="#ffdf43" d="M9.375 98.354l44.917-77.697c5.458-8.594 14.105-8.813 19.656 0l44.199 76.76c3.531 7.094 1.781 16.668-9.719 16.428H18.344c-7.563.186-12.438-6.449-8.969-15.491z"/>
    <path fill="#000001" d="M59.969 92.041a5.71 5.71 0 0 1 3.573-1.645c1.713-.123 3.394.509 4.605 1.729a5.77 5.77 0 0 1 1.688 3.688c.047.489.033.982-.043 1.469-.09.48-.236.949-.438 1.396-.6 1.336-1.688 2.395-3.041 2.957a6.03 6.03 0 0 1-4.76-.104 5.73 5.73 0 0 1-2.927-3.063c-.18-.424-.306-.868-.375-1.322s-.093-.916-.063-1.375h0c.084-.723.285-1.426.594-2.084a4.78 4.78 0 0 1 1.188-1.625v-.021zm8.49-10.666c-.199 4.99-8.657 5-8.844 0-.854-8.553-3.042-28.854-2.979-36.896.073-2.479 2.083-3.938 4.75-4.5.853-.18 1.723-.264 2.594-.25a12.26 12.26 0 0 1 2.605.261c2.719.573 4.844 2.083 4.844 4.625v.25l-2.97 36.51z"/>
</svg>
