<?xml version="1.0" encoding="utf-8"?>
<!DOCTYPE svg PUBLIC "-//W3C//DTD SVG 1.1//EN" "http://www.w3.org/Graphics/SVG/1.1/DTD/svg11.dtd">
<svg version="1.1" id="Layer_1" xmlns="http://www.w3.org/2000/svg" xmlns:xlink="http://www.w3.org/1999/xlink" x="0px" y="0px"
	 width="128px" height="128px" viewBox="0 0 128 128" enable-background="new 0 0 128 128" xml:space="preserve">
<path fill="#FFDF43" d="M9.375,98.354l44.917-77.697c5.458-8.594,14.105-8.813,19.656,0l44.199,76.76
	c3.531,7.094,1.781,16.668-9.719,16.428H18.344C10.781,114.031,5.906,107.396,9.375,98.354z"/>
<path fill="#000001" d="M59.969,92.041c0.958-0.954,2.225-1.537,3.573-1.645c1.713-0.123,3.394,0.509,4.605,1.729
	c0.99,0.984,1.59,2.295,1.688,3.688c0.047,0.489,0.033,0.982-0.043,1.469c-0.09,0.48-0.236,0.949-0.438,1.396
	c-0.6,1.336-1.688,2.395-3.041,2.957c-1.533,0.62-3.255,0.582-4.76-0.104c-1.331-0.61-2.378-1.705-2.927-3.063
	c-0.18-0.424-0.306-0.868-0.375-1.322c-0.072-0.455-0.093-0.916-0.063-1.375l0,0c0.084-0.723,0.285-1.426,0.594-2.084
	c0.276-0.619,0.681-1.174,1.188-1.625V92.041z M68.459,81.375c-0.199,4.99-8.657,5-8.844,0c-0.854-8.553-3.042-28.854-2.979-36.896
	c0.073-2.479,2.083-3.938,4.75-4.5c0.853-0.18,1.723-0.264,2.594-0.25c0.875-0.006,1.748,0.081,2.605,0.261
	c2.719,0.573,4.844,2.083,4.844,4.625v0.25L68.459,81.375z"/>
</svg>
