<?xml version="1.0" encoding="utf-8"?>
<svg xmlns="http://www.w3.org/2000/svg" width="24" height="24">
    <path fill="#033d5d" d="M12.033 2c-.401 0-.802.153-1.109.461L7.726 5.659 8.86 6.792l2.73-2.73c.123-.123.283-.184.443-.184s.321.061.443.184l2.134 2.134-1.154 1.154H16.9V3.906l-1.157 1.157-2.602-2.602C12.835 2.154 12.434 2 12.033 2zM3.905 7.1l1.157 1.157-2.602 2.602c-.307.307-.461.708-.461 1.109s.153.802.461 1.109l3.198 3.198 1.134-1.134-2.73-2.73c-.123-.123-.184-.283-.184-.443s.061-.321.184-.443L6.196 9.39l1.154 1.154V7.1zm14.436.627l-1.134 1.134 2.73 2.73c.123.123.184.283.184.443s-.061.321-.184.443l-2.134 2.134-1.154-1.154v3.444h3.444l-1.157-1.157 2.602-2.602c.307-.307.461-.708.461-1.109s-.153-.802-.461-1.109zM7.099 16.651v3.444l1.157-1.157 2.602 2.602c.307.307.708.461 1.109.461s.802-.153 1.109-.461l3.198-3.198-1.134-1.134-2.73 2.73c-.123.123-.283.184-.443.184s-.321-.061-.443-.184l-2.134-2.134 1.154-1.154z"/>
</svg>