<?xml version="1.0" encoding="UTF-8" standalone="no"?>
<svg
   xmlns:dc="http://purl.org/dc/elements/1.1/"
   xmlns:cc="http://creativecommons.org/ns#"
   xmlns:rdf="http://www.w3.org/1999/02/22-rdf-syntax-ns#"
   xmlns:svg="http://www.w3.org/2000/svg"
   xmlns="http://www.w3.org/2000/svg"
   xmlns:sodipodi="http://sodipodi.sourceforge.net/DTD/sodipodi-0.dtd"
   xmlns:inkscape="http://www.inkscape.org/namespaces/inkscape"
   sodipodi:docname="workflow.svg"
   inkscape:version="1.0 (4035a4fb49, 2020-05-01)"
   version="1.1"
   id="svg2"
   height="24"
   width="24">
  <g
     transform="translate(-379.90478,129.88361)"
     id="layer1"
     inkscape:groupmode="layer"
     inkscape:label="Layer 1">
    <path
       style="color:#000000;clip-rule:nonzero;display:inline;overflow:visible;visibility:visible;opacity:1;isolation:auto;mix-blend-mode:normal;color-interpolation:sRGB;color-interpolation-filters:linearRGB;solid-color:#000000;solid-opacity:1;fill:#033d5d;fill-opacity:1;fill-rule:nonzero;stroke:none;stroke-width:2.03827;stroke-linecap:round;stroke-linejoin:round;stroke-miterlimit:4;stroke-dasharray:none;stroke-dashoffset:0;stroke-opacity:1;color-rendering:auto;image-rendering:auto;shape-rendering:auto;text-rendering:auto;enable-background:accumulate"
       d="m 391.938,-127.88361 c -0.40078,0 -0.8016,0.15348 -1.10871,0.46058 l -3.19782,3.19782 1.13351,1.13351 2.7296,-2.72959 c 0.12289,-0.12289 0.28311,-0.1842 0.44342,-0.1842 0.16032,0 0.32059,0.0613 0.44343,0.1842 l 2.13366,2.13367 -1.15356,1.15358 h 3.44373 v -3.44389 l -1.15663,1.15679 -2.60191,-2.60189 c -0.30711,-0.3071 -0.70792,-0.46058 -1.10872,-0.46058 z m -8.12754,5.09952 1.15679,1.15664 -2.60191,2.6019 c -0.3071,0.30711 -0.46056,0.70792 -0.46056,1.10872 0,0.40078 0.15346,0.8016 0.46056,1.10871 l 3.19784,3.19782 1.13351,-1.13351 -2.72959,-2.7296 c -0.12289,-0.12289 -0.1842,-0.28311 -0.1842,-0.44342 0,-0.16032 0.0614,-0.32059 0.1842,-0.44343 l 2.13367,-2.13367 1.15358,1.15358 v -3.44374 z m 14.43592,0.62717 -1.13351,1.13351 2.7296,2.7296 c 0.12289,0.12289 0.18419,0.28311 0.18419,0.44342 0,0.16033 -0.0614,0.32059 -0.18419,0.44343 l -2.13368,2.13366 -1.15358,-1.15357 v 3.44374 h 3.4439 l -1.1568,-1.15664 2.6019,-2.6019 c 0.30711,-0.30711 0.46057,-0.70792 0.46057,-1.10872 0,-0.40078 -0.15346,-0.8016 -0.46057,-1.10871 z m -11.24208,8.92374 v 3.44389 l 1.15664,-1.15679 2.6019,2.60191 c 0.3071,0.3071 0.70792,0.46056 1.10872,0.46056 0.40078,0 0.8016,-0.15346 1.10871,-0.46056 l 3.19782,-3.19784 -1.13351,-1.13351 -2.7296,2.7296 c -0.12289,0.12289 -0.28311,0.18419 -0.44342,0.18419 -0.16033,0 -0.32059,-0.0614 -0.44343,-0.18419 l -2.13367,-2.13368 1.15358,-1.15358 z"
       id="rect8091-8"
       inkscape:connector-curvature="0" />
  </g>
</svg>
