<?xml version="1.0" encoding="UTF-8" standalone="no"?>
<svg
   xmlns="http://www.w3.org/2000/svg"
   xml:space="preserve"
   enable-background="new 0 0 42 42"
   viewBox="0 0 37.043327 33.881645"
   height="33.881645"
   width="37.043327"
   y="0px"
   x="0px"
   version="1.1"
>
<polygon
   style="fill:#5cc0c4;fill-opacity:1"
   transform="matrix(1.9456097,0,0,1.7216046,580.80286,-666.53619)"
   points="-286.8,389 -282.8,393 -282.8,391.1 -281,391.1 -281,396 -286,396 -286,394.3 -284,394.3 -288,390.2 "
   class="st1" /><polygon
   style="fill:#5cc0c4;fill-opacity:1"
   transform="matrix(1.9456097,0,0,1.7216046,580.80286,-666.53619)"
   points="-281,399.2 -285,403.2 -283.1,403.2 -283.1,405 -288,405 -288,400 -286.3,400 -286.3,402 -282.2,398 "
   class="st1" /><polygon
   style="fill:#5cc0c4;fill-opacity:1"
   transform="matrix(1.9456097,0,0,1.7216046,580.80286,-666.53619)"
   points="-291.2,405 -295.2,401 -295.2,402.9 -297,402.9 -297,398 -292,398 -292,399.7 -294,399.7 -290,403.8 "
   class="st1" /><polygon
   style="fill:#5cc0c4;fill-opacity:1"
   transform="matrix(1.9456097,0,0,1.7216046,580.80286,-666.53619)"
   points="-297,394.8 -293,390.8 -294.9,390.8 -294.9,389 -290,389 -290,394 -291.7,394 -291.7,392 -295.8,396 "
   class="st1" />
</svg>