<?xml version="1.0" encoding="UTF-8" standalone="no"?>
<svg
    xmlns="http://www.w3.org/2000/svg"
    viewBox="0 0 24 24"
    height="24"
    width="24"
    version="1.1">
  <circle
      style="opacity:1;fill:none;fill-opacity:1;stroke:#000000;stroke-width:1;stroke-linecap:round;stroke-miterlimit:4;stroke-dasharray:none;stroke-opacity:1;paint-order:markers fill stroke"
      cx="12.011724"
      cy="11.918196"
      r="11.058635"/>
  <g transform="scale(0.83761767,1.1938621)">
    <path
        style="line-height:1.25;fill:#000000;fill-opacity:1;stroke:none;stroke-width:0.79141343"
        d="m 6.3004313,12.97561 h -0.72599 V 8.7631796 q 0,-0.362995 0.00844,-0.5824803 0.00844,-0.2194854 0.025325,-0.4558542 Q 5.4731404,7.859913 5.3633977,7.9527722 5.2536551,8.0456314 5.0848202,8.189141 L 4.4432477,8.7125291 4.0549274,8.2144662 5.684184,6.9482047 h 0.6162473 z"
    />
    <path
        style="line-height:1.25;fill:#000000;fill-opacity:1;stroke:none;stroke-width:0.79141343"
        d="m 12.54731,9.9534655 q 0,0.9708005 -0.202602,1.6714655 -0.202602,0.692223 -0.641572,1.063659 -0.438971,0.371437 -1.164961,0.371437 -1.021451,0 -1.5110722,-0.818849 -0.4811794,-0.827291 -0.4811794,-2.2877125 0,-0.9792423 0.1941601,-1.6714653 0.2026019,-0.692223 0.6415726,-1.055218 0.4389706,-0.3714367 1.1565189,-0.3714367 1.013009,0 1.511072,0.8188491 0.498063,0.8104075 0.498063,2.2792709 z m -3.2585131,0 q 0,1.2409365 0.2785775,1.8571835 0.2870193,0.616247 0.9708006,0.616247 0.675339,0 0.962359,-0.607805 0.295461,-0.616247 0.295461,-1.8656255 0,-1.2324946 -0.295461,-1.8487419 -0.28702,-0.6162473 -0.962359,-0.6162473 -0.6837813,0 -0.9708006,0.6162473 -0.2785775,0.6162473 -0.2785775,1.8487419 z"
    />
    <path
        style="line-height:1.25;fill:#000000;fill-opacity:1;stroke:none;stroke-width:0.79141343"
        d="m 17.375976,9.9534655 q 0,0.9708005 -0.202602,1.6714655 -0.202602,0.692223 -0.641573,1.063659 -0.43897,0.371437 -1.16496,0.371437 -1.021451,0 -1.511072,-0.818849 -0.48118,-0.827291 -0.48118,-2.2877125 0,-0.9792423 0.19416,-1.6714653 0.202602,-0.692223 0.641573,-1.055218 0.43897,-0.3714367 1.156519,-0.3714367 1.013009,0 1.511072,0.8188491 0.498063,0.8104075 0.498063,2.2792709 z m -3.258513,0 q 0,1.2409365 0.278577,1.8571835 0.287019,0.616247 0.970801,0.616247 0.675339,0 0.962358,-0.607805 0.295462,-0.616247 0.295462,-1.8656255 0,-1.2324946 -0.295462,-1.8487419 -0.287019,-0.6162473 -0.962358,-0.6162473 -0.683782,0 -0.970801,0.6162473 -0.278577,0.6162473 -0.278577,1.8487419 z"
    />
    <path
        style="line-height:1.25;fill:#000000;fill-opacity:1;stroke:none;stroke-width:0.79141343"
        d="m 19.435749,6.8637872 q 0.62469,0 0.945476,0.4980629 0.320786,0.4896212 0.320786,1.384446 0,0.8948249 -0.312344,1.4013299 -0.303903,0.498062 -0.953918,0.498062 -0.599363,0 -0.92015,-0.498062 -0.312344,-0.506505 -0.312344,-1.4013299 0,-0.8948248 0.295461,-1.384446 0.295461,-0.4980629 0.937033,-0.4980629 z m 3.857877,0.084417 -3.34293,6.0274053 h -0.650014 l 3.34293,-6.0274053 z m -3.857877,0.4389707 q -0.320786,0 -0.472737,0.3461114 -0.14351,0.3376698 -0.14351,1.0130093 0,0.6753395 0.14351,1.021451 0.151951,0.3461119 0.472737,0.3461119 0.650015,0 0.650015,-1.3675629 0,-1.3591207 -0.650015,-1.3591207 z m 3.689043,1.8909506 q 0.616247,0 0.937033,0.4980629 0.329228,0.4896211 0.329228,1.3844461 0,0.894825 -0.312344,1.401329 -0.303903,0.498063 -0.953917,0.498063 -0.599364,0 -0.920151,-0.498063 -0.312344,-0.506504 -0.312344,-1.401329 0,-0.894825 0.295461,-1.3844461 0.295461,-0.4980629 0.937034,-0.4980629 z m 0,0.5318298 q -0.320787,0 -0.472738,0.3376702 -0.14351,0.337669 -0.14351,1.013009 0,0.683781 0.14351,1.029893 0.151951,0.337669 0.472738,0.337669 0.650014,0 0.650014,-1.367562 0,-1.3506792 -0.650014,-1.3506792 z"
    />
  </g>
</svg>
