<?xml version="1.0" encoding="utf-8"?>
<svg xmlns="http://www.w3.org/2000/svg" width="24" height="24">
<circle fill="none" stroke="#0E3A5A" stroke-linecap="round" cx="12.012" cy="11.918" r="11.059"/>
    <g transform="scale(0.83761767,1.1938621)">
	<path fill="#0E3A5A" d="M6.3,12.976H5.575V8.763c0-0.242,0.002-0.436,0.008-0.582c0.006-0.146,0.014-0.298,0.026-0.456
		c-0.09,0.09-0.172,0.166-0.245,0.228C5.29,8.015,5.197,8.094,5.085,8.189L4.443,8.712L4.055,8.215l1.629-1.266H6.3V12.976z"/>
        <path fill="#0E3A5A" d="M12.547,9.953c0,0.648-0.068,1.204-0.202,1.672c-0.135,0.461-0.349,0.816-0.642,1.063
		c-0.293,0.247-0.681,0.371-1.165,0.371c-0.681,0-1.185-0.273-1.512-0.819c-0.321-0.551-0.481-1.315-0.481-2.288
		c0-0.653,0.065-1.21,0.194-1.671C8.875,7.82,9.089,7.469,9.382,7.227c0.293-0.248,0.678-0.371,1.157-0.371
		c0.675,0,1.179,0.273,1.511,0.819C12.381,8.215,12.547,8.974,12.547,9.953L12.547,9.953z M9.289,9.953
		c0,0.828,0.093,1.446,0.279,1.857c0.192,0.411,0.515,0.617,0.971,0.617c0.45,0,0.771-0.203,0.962-0.608
		c0.196-0.411,0.295-1.033,0.295-1.866c0-0.821-0.099-1.438-0.295-1.849c-0.192-0.411-0.512-0.616-0.962-0.616
		c-0.456,0-0.779,0.205-0.971,0.616C9.382,8.516,9.289,9.132,9.289,9.953z"/>
        <path fill="#0E3A5A" d="M17.376,9.953c0,0.648-0.068,1.204-0.203,1.672c-0.135,0.461-0.35,0.816-0.641,1.063
		c-0.294,0.247-0.681,0.371-1.166,0.371c-0.68,0-1.184-0.273-1.51-0.819c-0.321-0.551-0.482-1.315-0.482-2.288
		c0-0.653,0.065-1.21,0.194-1.671c0.135-0.462,0.349-0.813,0.642-1.055c0.293-0.248,0.678-0.371,1.156-0.371
		c0.676,0,1.18,0.273,1.511,0.819C17.211,8.215,17.376,8.974,17.376,9.953z M14.118,9.953c0,0.828,0.093,1.446,0.279,1.857
		c0.191,0.411,0.515,0.617,0.97,0.617c0.45,0,0.772-0.203,0.963-0.608c0.197-0.411,0.296-1.033,0.296-1.866
		c0-0.821-0.099-1.438-0.296-1.849c-0.191-0.411-0.513-0.616-0.963-0.616c-0.455,0-0.779,0.205-0.97,0.616
		C14.21,8.516,14.118,9.132,14.118,9.953z"/>
        <path fill="#0E3A5A" d="M19.435,6.864c0.417,0,0.732,0.166,0.947,0.498c0.213,0.326,0.319,0.788,0.319,1.384
		s-0.104,1.064-0.312,1.401c-0.202,0.333-0.52,0.498-0.954,0.498c-0.399,0-0.707-0.165-0.92-0.498
		c-0.209-0.337-0.311-0.804-0.311-1.401s0.098-1.058,0.294-1.384C18.696,7.03,19.009,6.864,19.435,6.864z M23.294,6.948
		l-3.344,6.027H19.3l3.344-6.027H23.294z M19.435,7.387c-0.213,0-0.371,0.115-0.472,0.346c-0.096,0.225-0.143,0.563-0.143,1.013
		s0.048,0.791,0.143,1.021c0.101,0.231,0.259,0.346,0.472,0.346c0.434,0,0.651-0.456,0.651-1.368
		C20.086,7.84,19.869,7.387,19.435,7.387z M23.124,9.278c0.412,0,0.724,0.166,0.937,0.498c0.219,0.326,0.329,0.788,0.329,1.384
		c0,0.597-0.103,1.063-0.311,1.401c-0.203,0.332-0.521,0.498-0.955,0.498c-0.399,0-0.705-0.166-0.919-0.498
		c-0.209-0.338-0.312-0.804-0.312-1.401c0-0.596,0.098-1.058,0.295-1.384C22.385,9.444,22.697,9.278,23.124,9.278z M23.124,9.81
		c-0.213,0-0.371,0.112-0.472,0.337c-0.096,0.225-0.143,0.563-0.143,1.013c0,0.456,0.048,0.799,0.143,1.03
		c0.101,0.225,0.259,0.338,0.472,0.338c0.434,0,0.651-0.456,0.651-1.368C23.775,10.26,23.558,9.81,23.124,9.81z"/>
</g>
</svg>
